solid OpenSCAD_Model
  facet normal -0 0 1
    outer loop
      vertex -0.599999 15 -1.225
      vertex -0.45 0 -1.225
      vertex -0.45 15 -1.225
    endloop
  endfacet
  facet normal 0 0 1
    outer loop
      vertex -0.45 0 -1.225
      vertex -0.599999 15 -1.225
      vertex -0.599999 0 -1.225
    endloop
  endfacet
  facet normal -1 0 0
    outer loop
      vertex -0.45 0 -1.225
      vertex -0.45 15 -1.025
      vertex -0.45 15 -1.225
    endloop
  endfacet
  facet normal -1 -0 0
    outer loop
      vertex -0.45 15 -1.025
      vertex -0.45 0 -1.225
      vertex -0.45 0 -1.025
    endloop
  endfacet
  facet normal -0 0 1
    outer loop
      vertex -0.45 15 -1.025
      vertex 0.45 0 -1.025
      vertex 0.45 15 -1.025
    endloop
  endfacet
  facet normal 0 0 1
    outer loop
      vertex 0.45 0 -1.025
      vertex -0.45 15 -1.025
      vertex -0.45 0 -1.025
    endloop
  endfacet
  facet normal 1 -0 0
    outer loop
      vertex 0.45 0 -1.025
      vertex 0.45 15 -1.225
      vertex 0.45 15 -1.025
    endloop
  endfacet
  facet normal 1 0 0
    outer loop
      vertex 0.45 15 -1.225
      vertex 0.45 0 -1.025
      vertex 0.45 0 -1.225
    endloop
  endfacet
  facet normal -0 0 1
    outer loop
      vertex 0.45 15 -1.225
      vertex 0.599999 0 -1.225
      vertex 0.599999 15 -1.225
    endloop
  endfacet
  facet normal 0 0 1
    outer loop
      vertex 0.599999 0 -1.225
      vertex 0.45 15 -1.225
      vertex 0.45 0 -1.225
    endloop
  endfacet
  facet normal -1 0 0
    outer loop
      vertex 0.599999 0 -1.225
      vertex 0.599999 15 1.225
      vertex 0.599999 15 -1.225
    endloop
  endfacet
  facet normal -1 -0 0
    outer loop
      vertex 0.599999 15 1.225
      vertex 0.599999 0 -1.225
      vertex 0.599999 0 1.225
    endloop
  endfacet
  facet normal 0 0 -1
    outer loop
      vertex 0.45 0 1.225
      vertex 0.599999 15 1.225
      vertex 0.599999 0 1.225
    endloop
  endfacet
  facet normal -0 0 -1
    outer loop
      vertex 0.599999 15 1.225
      vertex 0.45 0 1.225
      vertex 0.45 15 1.225
    endloop
  endfacet
  facet normal 1 -0 0
    outer loop
      vertex 0.45 0 1.225
      vertex 0.45 15 1.025
      vertex 0.45 15 1.225
    endloop
  endfacet
  facet normal 1 0 0
    outer loop
      vertex 0.45 15 1.025
      vertex 0.45 0 1.225
      vertex 0.45 0 1.025
    endloop
  endfacet
  facet normal 0 0 -1
    outer loop
      vertex -0.45 0 1.025
      vertex 0.45 15 1.025
      vertex 0.45 0 1.025
    endloop
  endfacet
  facet normal -0 0 -1
    outer loop
      vertex 0.45 15 1.025
      vertex -0.45 0 1.025
      vertex -0.45 15 1.025
    endloop
  endfacet
  facet normal -1 0 0
    outer loop
      vertex -0.45 0 1.025
      vertex -0.45 15 1.225
      vertex -0.45 15 1.025
    endloop
  endfacet
  facet normal -1 -0 0
    outer loop
      vertex -0.45 15 1.225
      vertex -0.45 0 1.025
      vertex -0.45 0 1.225
    endloop
  endfacet
  facet normal 0 0 -1
    outer loop
      vertex -0.599999 0 1.225
      vertex -0.45 15 1.225
      vertex -0.45 0 1.225
    endloop
  endfacet
  facet normal -0 0 -1
    outer loop
      vertex -0.45 15 1.225
      vertex -0.599999 0 1.225
      vertex -0.599999 15 1.225
    endloop
  endfacet
  facet normal 1 -0 0
    outer loop
      vertex -0.599999 0 1.225
      vertex -0.599999 15 -1.225
      vertex -0.599999 15 1.225
    endloop
  endfacet
  facet normal 1 0 0
    outer loop
      vertex -0.599999 15 -1.225
      vertex -0.599999 0 1.225
      vertex -0.599999 0 -1.225
    endloop
  endfacet
  facet normal -0 0 1
    outer loop
      vertex 0.25 15 2.5
      vertex 0.799999 0 2.5
      vertex 0.799999 15 2.5
    endloop
  endfacet
  facet normal 0 0 1
    outer loop
      vertex 0.799999 0 2.5
      vertex 0.25 15 2.5
      vertex 0.25 0 2.5
    endloop
  endfacet
  facet normal -1 0 0
    outer loop
      vertex 0.25 0 2.3
      vertex 0.25 15 2.5
      vertex 0.25 15 2.3
    endloop
  endfacet
  facet normal -1 -0 0
    outer loop
      vertex 0.25 15 2.5
      vertex 0.25 0 2.3
      vertex 0.25 0 2.5
    endloop
  endfacet
  facet normal 0 0 -1
    outer loop
      vertex 0.25 0 2.3
      vertex 0.599999 15 2.3
      vertex 0.599999 0 2.3
    endloop
  endfacet
  facet normal -0 0 -1
    outer loop
      vertex 0.599999 15 2.3
      vertex 0.25 0 2.3
      vertex 0.25 15 2.3
    endloop
  endfacet
  facet normal -1 0 0
    outer loop
      vertex 0.599999 0 1.425
      vertex 0.599999 15 2.3
      vertex 0.599999 15 1.425
    endloop
  endfacet
  facet normal -1 -0 0
    outer loop
      vertex 0.599999 15 2.3
      vertex 0.599999 0 1.425
      vertex 0.599999 0 2.3
    endloop
  endfacet
  facet normal -0 0 1
    outer loop
      vertex 0.25 15 1.425
      vertex 0.599999 0 1.425
      vertex 0.599999 15 1.425
    endloop
  endfacet
  facet normal 0 0 1
    outer loop
      vertex 0.599999 0 1.425
      vertex 0.25 15 1.425
      vertex 0.25 0 1.425
    endloop
  endfacet
  facet normal -1 0 0
    outer loop
      vertex 0.25 0 1.225
      vertex 0.25 15 1.425
      vertex 0.25 15 1.225
    endloop
  endfacet
  facet normal -1 -0 0
    outer loop
      vertex 0.25 15 1.425
      vertex 0.25 0 1.225
      vertex 0.25 0 1.425
    endloop
  endfacet
  facet normal -0 0 1
    outer loop
      vertex -0.25 15 1.225
      vertex 0.25 0 1.225
      vertex 0.25 15 1.225
    endloop
  endfacet
  facet normal 0 0 1
    outer loop
      vertex 0.25 0 1.225
      vertex -0.25 15 1.225
      vertex -0.25 0 1.225
    endloop
  endfacet
  facet normal 1 -0 0
    outer loop
      vertex -0.25 0 1.425
      vertex -0.25 15 1.225
      vertex -0.25 15 1.425
    endloop
  endfacet
  facet normal 1 0 0
    outer loop
      vertex -0.25 15 1.225
      vertex -0.25 0 1.425
      vertex -0.25 0 1.225
    endloop
  endfacet
  facet normal -0 0 1
    outer loop
      vertex -0.599999 15 1.425
      vertex -0.25 0 1.425
      vertex -0.25 15 1.425
    endloop
  endfacet
  facet normal 0 0 1
    outer loop
      vertex -0.25 0 1.425
      vertex -0.599999 15 1.425
      vertex -0.599999 0 1.425
    endloop
  endfacet
  facet normal 1 -0 0
    outer loop
      vertex -0.599999 0 2.3
      vertex -0.599999 15 1.425
      vertex -0.599999 15 2.3
    endloop
  endfacet
  facet normal 1 0 0
    outer loop
      vertex -0.599999 15 1.425
      vertex -0.599999 0 2.3
      vertex -0.599999 0 1.425
    endloop
  endfacet
  facet normal 0 0 -1
    outer loop
      vertex -0.599999 0 2.3
      vertex -0.25 15 2.3
      vertex -0.25 0 2.3
    endloop
  endfacet
  facet normal -0 0 -1
    outer loop
      vertex -0.25 15 2.3
      vertex -0.599999 0 2.3
      vertex -0.599999 15 2.3
    endloop
  endfacet
  facet normal 1 -0 0
    outer loop
      vertex -0.25 0 2.5
      vertex -0.25 15 2.3
      vertex -0.25 15 2.5
    endloop
  endfacet
  facet normal 1 0 0
    outer loop
      vertex -0.25 15 2.3
      vertex -0.25 0 2.5
      vertex -0.25 0 2.3
    endloop
  endfacet
  facet normal -0 0 1
    outer loop
      vertex -0.799999 15 2.5
      vertex -0.25 0 2.5
      vertex -0.25 15 2.5
    endloop
  endfacet
  facet normal 0 0 1
    outer loop
      vertex -0.25 0 2.5
      vertex -0.799999 15 2.5
      vertex -0.799999 0 2.5
    endloop
  endfacet
  facet normal -1 0 0
    outer loop
      vertex -0.799999 0 -2.5
      vertex -0.799999 15 2.5
      vertex -0.799999 15 -2.5
    endloop
  endfacet
  facet normal -1 -0 0
    outer loop
      vertex -0.799999 15 2.5
      vertex -0.799999 0 -2.5
      vertex -0.799999 0 2.5
    endloop
  endfacet
  facet normal 0 0 -1
    outer loop
      vertex -0.799999 0 -2.5
      vertex -0.25 15 -2.5
      vertex -0.25 0 -2.5
    endloop
  endfacet
  facet normal -0 0 -1
    outer loop
      vertex -0.25 15 -2.5
      vertex -0.799999 0 -2.5
      vertex -0.799999 15 -2.5
    endloop
  endfacet
  facet normal 1 -0 0
    outer loop
      vertex -0.25 0 -2.3
      vertex -0.25 15 -2.5
      vertex -0.25 15 -2.3
    endloop
  endfacet
  facet normal 1 0 0
    outer loop
      vertex -0.25 15 -2.5
      vertex -0.25 0 -2.3
      vertex -0.25 0 -2.5
    endloop
  endfacet
  facet normal -0 0 1
    outer loop
      vertex -0.599999 15 -2.3
      vertex -0.25 0 -2.3
      vertex -0.25 15 -2.3
    endloop
  endfacet
  facet normal 0 0 1
    outer loop
      vertex -0.25 0 -2.3
      vertex -0.599999 15 -2.3
      vertex -0.599999 0 -2.3
    endloop
  endfacet
  facet normal 1 -0 0
    outer loop
      vertex -0.599999 0 -1.425
      vertex -0.599999 15 -2.3
      vertex -0.599999 15 -1.425
    endloop
  endfacet
  facet normal 1 0 0
    outer loop
      vertex -0.599999 15 -2.3
      vertex -0.599999 0 -1.425
      vertex -0.599999 0 -2.3
    endloop
  endfacet
  facet normal 0 0 -1
    outer loop
      vertex -0.599999 0 -1.425
      vertex -0.25 15 -1.425
      vertex -0.25 0 -1.425
    endloop
  endfacet
  facet normal -0 0 -1
    outer loop
      vertex -0.25 15 -1.425
      vertex -0.599999 0 -1.425
      vertex -0.599999 15 -1.425
    endloop
  endfacet
  facet normal 1 -0 0
    outer loop
      vertex -0.25 0 -1.225
      vertex -0.25 15 -1.425
      vertex -0.25 15 -1.225
    endloop
  endfacet
  facet normal 1 0 0
    outer loop
      vertex -0.25 15 -1.425
      vertex -0.25 0 -1.225
      vertex -0.25 0 -1.425
    endloop
  endfacet
  facet normal 0 0 -1
    outer loop
      vertex -0.25 0 -1.225
      vertex 0.25 15 -1.225
      vertex 0.25 0 -1.225
    endloop
  endfacet
  facet normal -0 0 -1
    outer loop
      vertex 0.25 15 -1.225
      vertex -0.25 0 -1.225
      vertex -0.25 15 -1.225
    endloop
  endfacet
  facet normal -1 0 0
    outer loop
      vertex 0.25 0 -1.425
      vertex 0.25 15 -1.225
      vertex 0.25 15 -1.425
    endloop
  endfacet
  facet normal -1 -0 0
    outer loop
      vertex 0.25 15 -1.225
      vertex 0.25 0 -1.425
      vertex 0.25 0 -1.225
    endloop
  endfacet
  facet normal 0 0 -1
    outer loop
      vertex 0.25 0 -1.425
      vertex 0.599999 15 -1.425
      vertex 0.599999 0 -1.425
    endloop
  endfacet
  facet normal -0 0 -1
    outer loop
      vertex 0.599999 15 -1.425
      vertex 0.25 0 -1.425
      vertex 0.25 15 -1.425
    endloop
  endfacet
  facet normal -1 0 0
    outer loop
      vertex 0.599999 0 -2.3
      vertex 0.599999 15 -1.425
      vertex 0.599999 15 -2.3
    endloop
  endfacet
  facet normal -1 -0 0
    outer loop
      vertex 0.599999 15 -1.425
      vertex 0.599999 0 -2.3
      vertex 0.599999 0 -1.425
    endloop
  endfacet
  facet normal -0 0 1
    outer loop
      vertex 0.25 15 -2.3
      vertex 0.599999 0 -2.3
      vertex 0.599999 15 -2.3
    endloop
  endfacet
  facet normal 0 0 1
    outer loop
      vertex 0.599999 0 -2.3
      vertex 0.25 15 -2.3
      vertex 0.25 0 -2.3
    endloop
  endfacet
  facet normal -1 0 0
    outer loop
      vertex 0.25 0 -2.5
      vertex 0.25 15 -2.3
      vertex 0.25 15 -2.5
    endloop
  endfacet
  facet normal -1 -0 0
    outer loop
      vertex 0.25 15 -2.3
      vertex 0.25 0 -2.5
      vertex 0.25 0 -2.3
    endloop
  endfacet
  facet normal 0 0 -1
    outer loop
      vertex 0.25 0 -2.5
      vertex 0.799999 15 -2.5
      vertex 0.799999 0 -2.5
    endloop
  endfacet
  facet normal -0 0 -1
    outer loop
      vertex 0.799999 15 -2.5
      vertex 0.25 0 -2.5
      vertex 0.25 15 -2.5
    endloop
  endfacet
  facet normal 1 -0 0
    outer loop
      vertex 0.799999 0 2.5
      vertex 0.799999 15 -2.5
      vertex 0.799999 15 2.5
    endloop
  endfacet
  facet normal 1 0 0
    outer loop
      vertex 0.799999 15 -2.5
      vertex 0.799999 0 2.5
      vertex 0.799999 0 -2.5
    endloop
  endfacet
  facet normal 0 1 0
    outer loop
      vertex -0.25 15 -2.3
      vertex -0.25 15 -2.5
      vertex -0.599999 15 -2.3
    endloop
  endfacet
  facet normal 0 1 0
    outer loop
      vertex -0.45 15 1.225
      vertex -0.25 15 1.425
      vertex -0.25 15 1.225
    endloop
  endfacet
  facet normal 0 1 0
    outer loop
      vertex -0.599999 15 2.3
      vertex -0.25 15 2.5
      vertex -0.25 15 2.3
    endloop
  endfacet
  facet normal 0 1 0
    outer loop
      vertex -0.25 15 2.5
      vertex -0.599999 15 2.3
      vertex -0.799999 15 2.5
    endloop
  endfacet
  facet normal 0 1 -0
    outer loop
      vertex -0.599999 15 1.425
      vertex -0.799999 15 2.5
      vertex -0.599999 15 2.3
    endloop
  endfacet
  facet normal 0 1 0
    outer loop
      vertex -0.25 15 1.425
      vertex -0.45 15 1.225
      vertex -0.599999 15 1.425
    endloop
  endfacet
  facet normal 0 1 0
    outer loop
      vertex -0.599999 15 1.225
      vertex -0.599999 15 1.425
      vertex -0.45 15 1.225
    endloop
  endfacet
  facet normal 0 1 -0
    outer loop
      vertex -0.599999 15 1.225
      vertex -0.799999 15 2.5
      vertex -0.599999 15 1.425
    endloop
  endfacet
  facet normal 0 1 -0
    outer loop
      vertex -0.599999 15 -1.225
      vertex -0.799999 15 2.5
      vertex -0.599999 15 1.225
    endloop
  endfacet
  facet normal 0 1 0
    outer loop
      vertex -0.45 15 -1.225
      vertex -0.599999 15 -1.425
      vertex -0.599999 15 -1.225
    endloop
  endfacet
  facet normal 0 1 0
    outer loop
      vertex -0.799999 15 -2.5
      vertex -0.599999 15 -1.225
      vertex -0.599999 15 -1.425
    endloop
  endfacet
  facet normal 0 1 0
    outer loop
      vertex -0.799999 15 -2.5
      vertex -0.599999 15 -1.425
      vertex -0.599999 15 -2.3
    endloop
  endfacet
  facet normal 0 1 0
    outer loop
      vertex -0.599999 15 -1.225
      vertex -0.799999 15 -2.5
      vertex -0.799999 15 2.5
    endloop
  endfacet
  facet normal 0 1 0
    outer loop
      vertex -0.799999 15 -2.5
      vertex -0.599999 15 -2.3
      vertex -0.25 15 -2.5
    endloop
  endfacet
  facet normal 0 1 0
    outer loop
      vertex 0.45 15 -1.225
      vertex 0.25 15 -1.425
      vertex 0.25 15 -1.225
    endloop
  endfacet
  facet normal 0 1 0
    outer loop
      vertex 0.799999 15 2.5
      vertex 0.599999 15 2.3
      vertex 0.25 15 2.5
    endloop
  endfacet
  facet normal 0 1 0
    outer loop
      vertex 0.799999 15 2.5
      vertex 0.599999 15 1.425
      vertex 0.599999 15 2.3
    endloop
  endfacet
  facet normal 0 1 0
    outer loop
      vertex 0.45 15 1.225
      vertex 0.599999 15 1.425
      vertex 0.599999 15 1.225
    endloop
  endfacet
  facet normal 0 1 0
    outer loop
      vertex 0.799999 15 2.5
      vertex 0.599999 15 1.225
      vertex 0.599999 15 1.425
    endloop
  endfacet
  facet normal 0 1 0
    outer loop
      vertex 0.799999 15 2.5
      vertex 0.599999 15 -1.225
      vertex 0.599999 15 1.225
    endloop
  endfacet
  facet normal 0 1 -0
    outer loop
      vertex 0.599999 15 -1.425
      vertex 0.45 15 -1.225
      vertex 0.599999 15 -1.225
    endloop
  endfacet
  facet normal 0 1 0
    outer loop
      vertex 0.25 15 -1.425
      vertex 0.45 15 -1.225
      vertex 0.599999 15 -1.425
    endloop
  endfacet
  facet normal 0 1 -0
    outer loop
      vertex 0.799999 15 -2.5
      vertex 0.599999 15 -1.225
      vertex 0.799999 15 2.5
    endloop
  endfacet
  facet normal 0 1 0
    outer loop
      vertex 0.599999 15 -1.225
      vertex 0.799999 15 -2.5
      vertex 0.599999 15 -1.425
    endloop
  endfacet
  facet normal 0 1 0
    outer loop
      vertex 0.599999 15 -1.425
      vertex 0.799999 15 -2.5
      vertex 0.599999 15 -2.3
    endloop
  endfacet
  facet normal 0 1 0
    outer loop
      vertex 0.25 15 -2.5
      vertex 0.599999 15 -2.3
      vertex 0.799999 15 -2.5
    endloop
  endfacet
  facet normal 0 1 0
    outer loop
      vertex 0.599999 15 -2.3
      vertex 0.25 15 -2.5
      vertex 0.25 15 -2.3
    endloop
  endfacet
  facet normal 0 1 0
    outer loop
      vertex 0.25 15 2.5
      vertex 0.599999 15 2.3
      vertex 0.25 15 2.3
    endloop
  endfacet
  facet normal 0 1 0
    outer loop
      vertex 0.599999 15 1.425
      vertex 0.45 15 1.225
      vertex 0.25 15 1.425
    endloop
  endfacet
  facet normal 0 1 0
    outer loop
      vertex 0.45 15 1.225
      vertex 0.25 15 1.225
      vertex 0.25 15 1.425
    endloop
  endfacet
  facet normal 0 1 -0
    outer loop
      vertex 0.45 15 1.025
      vertex 0.25 15 1.225
      vertex 0.45 15 1.225
    endloop
  endfacet
  facet normal 0 1 0
    outer loop
      vertex 0.25 15 1.225
      vertex 0.45 15 1.025
      vertex -0.25 15 1.225
    endloop
  endfacet
  facet normal 0 1 0
    outer loop
      vertex -0.45 15 1.025
      vertex -0.25 15 1.225
      vertex 0.45 15 1.025
    endloop
  endfacet
  facet normal 0 1 0
    outer loop
      vertex -0.25 15 1.225
      vertex -0.45 15 1.025
      vertex -0.45 15 1.225
    endloop
  endfacet
  facet normal 0 1 0
    outer loop
      vertex 0.25 15 -1.225
      vertex 0.45 15 -1.025
      vertex 0.45 15 -1.225
    endloop
  endfacet
  facet normal 0 1 0
    outer loop
      vertex 0.45 15 -1.025
      vertex 0.25 15 -1.225
      vertex -0.45 15 -1.025
    endloop
  endfacet
  facet normal 0 1 -0
    outer loop
      vertex -0.25 15 -1.225
      vertex -0.45 15 -1.025
      vertex 0.25 15 -1.225
    endloop
  endfacet
  facet normal 0 1 0
    outer loop
      vertex -0.25 15 -1.225
      vertex -0.45 15 -1.225
      vertex -0.45 15 -1.025
    endloop
  endfacet
  facet normal 0 1 -0
    outer loop
      vertex -0.25 15 -1.425
      vertex -0.45 15 -1.225
      vertex -0.25 15 -1.225
    endloop
  endfacet
  facet normal 0 1 0
    outer loop
      vertex -0.599999 15 -1.425
      vertex -0.45 15 -1.225
      vertex -0.25 15 -1.425
    endloop
  endfacet
  facet normal 0 -1 0
    outer loop
      vertex 0.25 0 -2.3
      vertex 0.25 0 -2.5
      vertex 0.599999 0 -2.3
    endloop
  endfacet
  facet normal 0 -1 0
    outer loop
      vertex 0.45 0 1.225
      vertex 0.25 0 1.425
      vertex 0.25 0 1.225
    endloop
  endfacet
  facet normal 0 -1 0
    outer loop
      vertex 0.599999 0 2.3
      vertex 0.25 0 2.5
      vertex 0.25 0 2.3
    endloop
  endfacet
  facet normal 0 -1 0
    outer loop
      vertex 0.25 0 2.5
      vertex 0.599999 0 2.3
      vertex 0.799999 0 2.5
    endloop
  endfacet
  facet normal 0 -1 0
    outer loop
      vertex 0.599999 0 1.425
      vertex 0.799999 0 2.5
      vertex 0.599999 0 2.3
    endloop
  endfacet
  facet normal 0 -1 0
    outer loop
      vertex 0.25 0 1.425
      vertex 0.45 0 1.225
      vertex 0.599999 0 1.425
    endloop
  endfacet
  facet normal 0 -1 0
    outer loop
      vertex 0.599999 0 1.225
      vertex 0.599999 0 1.425
      vertex 0.45 0 1.225
    endloop
  endfacet
  facet normal 0 -1 0
    outer loop
      vertex 0.599999 0 1.225
      vertex 0.799999 0 2.5
      vertex 0.599999 0 1.425
    endloop
  endfacet
  facet normal 0 -1 0
    outer loop
      vertex 0.599999 0 -1.225
      vertex 0.799999 0 2.5
      vertex 0.599999 0 1.225
    endloop
  endfacet
  facet normal 0 -1 0
    outer loop
      vertex 0.45 0 -1.225
      vertex 0.599999 0 -1.425
      vertex 0.599999 0 -1.225
    endloop
  endfacet
  facet normal 0 -1 0
    outer loop
      vertex 0.799999 0 -2.5
      vertex 0.599999 0 -1.225
      vertex 0.599999 0 -1.425
    endloop
  endfacet
  facet normal 0 -1 0
    outer loop
      vertex 0.799999 0 -2.5
      vertex 0.599999 0 -1.425
      vertex 0.599999 0 -2.3
    endloop
  endfacet
  facet normal 0 -1 0
    outer loop
      vertex 0.599999 0 -1.225
      vertex 0.799999 0 -2.5
      vertex 0.799999 0 2.5
    endloop
  endfacet
  facet normal 0 -1 0
    outer loop
      vertex 0.799999 0 -2.5
      vertex 0.599999 0 -2.3
      vertex 0.25 0 -2.5
    endloop
  endfacet
  facet normal 0 -1 0
    outer loop
      vertex -0.45 0 -1.225
      vertex -0.25 0 -1.425
      vertex -0.25 0 -1.225
    endloop
  endfacet
  facet normal 0 -1 0
    outer loop
      vertex -0.25 0 -1.225
      vertex -0.45 0 -1.025
      vertex -0.45 0 -1.225
    endloop
  endfacet
  facet normal 0 -1 0
    outer loop
      vertex -0.45 0 -1.025
      vertex -0.25 0 -1.225
      vertex 0.45 0 -1.025
    endloop
  endfacet
  facet normal 0 -1 0
    outer loop
      vertex 0.25 0 -1.225
      vertex 0.45 0 -1.025
      vertex -0.25 0 -1.225
    endloop
  endfacet
  facet normal 0 -1 0
    outer loop
      vertex 0.25 0 -1.225
      vertex 0.45 0 -1.225
      vertex 0.45 0 -1.025
    endloop
  endfacet
  facet normal 0 -1 0
    outer loop
      vertex 0.25 0 -1.425
      vertex 0.45 0 -1.225
      vertex 0.25 0 -1.225
    endloop
  endfacet
  facet normal 0 -1 0
    outer loop
      vertex 0.599999 0 -1.425
      vertex 0.45 0 -1.225
      vertex 0.25 0 -1.425
    endloop
  endfacet
  facet normal 0 -1 0
    outer loop
      vertex -0.799999 0 2.5
      vertex -0.599999 0 2.3
      vertex -0.25 0 2.5
    endloop
  endfacet
  facet normal 0 -1 0
    outer loop
      vertex -0.799999 0 2.5
      vertex -0.599999 0 1.425
      vertex -0.599999 0 2.3
    endloop
  endfacet
  facet normal 0 -1 0
    outer loop
      vertex -0.45 0 1.225
      vertex -0.599999 0 1.425
      vertex -0.599999 0 1.225
    endloop
  endfacet
  facet normal 0 -1 0
    outer loop
      vertex -0.799999 0 2.5
      vertex -0.599999 0 1.225
      vertex -0.599999 0 1.425
    endloop
  endfacet
  facet normal 0 -1 0
    outer loop
      vertex -0.799999 0 2.5
      vertex -0.599999 0 -1.225
      vertex -0.599999 0 1.225
    endloop
  endfacet
  facet normal 0 -1 0
    outer loop
      vertex -0.599999 0 -1.425
      vertex -0.45 0 -1.225
      vertex -0.599999 0 -1.225
    endloop
  endfacet
  facet normal 0 -1 0
    outer loop
      vertex -0.25 0 -1.425
      vertex -0.45 0 -1.225
      vertex -0.599999 0 -1.425
    endloop
  endfacet
  facet normal 0 -1 0
    outer loop
      vertex -0.799999 0 -2.5
      vertex -0.599999 0 -1.225
      vertex -0.799999 0 2.5
    endloop
  endfacet
  facet normal 0 -1 -0
    outer loop
      vertex -0.599999 0 -1.225
      vertex -0.799999 0 -2.5
      vertex -0.599999 0 -1.425
    endloop
  endfacet
  facet normal 0 -1 -0
    outer loop
      vertex -0.599999 0 -1.425
      vertex -0.799999 0 -2.5
      vertex -0.599999 0 -2.3
    endloop
  endfacet
  facet normal 0 -1 0
    outer loop
      vertex -0.25 0 -2.5
      vertex -0.599999 0 -2.3
      vertex -0.799999 0 -2.5
    endloop
  endfacet
  facet normal 0 -1 0
    outer loop
      vertex -0.599999 0 -2.3
      vertex -0.25 0 -2.5
      vertex -0.25 0 -2.3
    endloop
  endfacet
  facet normal 0 -1 -0
    outer loop
      vertex -0.25 0 2.5
      vertex -0.599999 0 2.3
      vertex -0.25 0 2.3
    endloop
  endfacet
  facet normal 0 -1 0
    outer loop
      vertex -0.599999 0 1.425
      vertex -0.45 0 1.225
      vertex -0.25 0 1.425
    endloop
  endfacet
  facet normal 0 -1 0
    outer loop
      vertex -0.45 0 1.225
      vertex -0.25 0 1.225
      vertex -0.25 0 1.425
    endloop
  endfacet
  facet normal 0 -1 0
    outer loop
      vertex -0.45 0 1.025
      vertex -0.25 0 1.225
      vertex -0.45 0 1.225
    endloop
  endfacet
  facet normal 0 -1 -0
    outer loop
      vertex -0.25 0 1.225
      vertex -0.45 0 1.025
      vertex 0.25 0 1.225
    endloop
  endfacet
  facet normal 0 -1 0
    outer loop
      vertex 0.45 0 1.025
      vertex 0.25 0 1.225
      vertex -0.45 0 1.025
    endloop
  endfacet
  facet normal 0 -1 0
    outer loop
      vertex 0.25 0 1.225
      vertex 0.45 0 1.025
      vertex 0.45 0 1.225
    endloop
  endfacet
endsolid OpenSCAD_Model
