999
dxflib 3.7.5.0
  0
SECTION
  2
HEADER
  9
$ACADVER
  1
AC1015
  9
$HANDSEED
  5
FFFF
  9
$ANGBASE
 50
0.0
  9
$ANGDIR
 70
0
  9
$ATTMODE
 70
1
  9
$AUNITS
 70
0
  9
$AUPREC
 70
0
  9
$CECOLOR
 62
256
  9
$CHAMFERA
 40
2.5
  9
$CHAMFERB
 40
2.5
  9
$DIMADEC
 70
0
  9
$DIMALT
 70
0
  9
$DIMALTD
 70
3
  9
$DIMALTF
 40
0.03937
  9
$DIMAPOST
  1

  9
$DIMASZ
 40
2.5
  9
$DIMAUNIT
 70
0
  9
$DIMAZIN
 70
0
  9
$DIMBLK
  1

  9
$DIMBLK1
  1

  9
$DIMBLK2
  1

  9
$DIMCEN
 40
2.5
  9
$DIMCLRD
 70
0
  9
$DIMCLRE
 70
0
  9
$DIMCLRT
 70
0
  9
$DIMDEC
 70
4
  9
$DIMDLE
 40
0.0
  9
$DIMDLI
 40
3.75
  9
$DIMEXE
 40
1.25
  9
$DIMEXO
 40
0.625
  9
$DIMGAP
 40
0.625
  9
$DIMLFAC
 40
1.0
  9
$DIMLIM
 70
0
  9
$DIMLUNIT
 70
2
  9
$DIMPOST
  1

  9
$DIMRND
 40
0.0
  9
$DIMSAH
 70
0
  9
$DIMSCALE
 40
1.0
  9
$DIMSE1
 70
0
  9
$DIMSE2
 70
0
  9
$DIMSOXD
 70
0
  9
$DIMTAD
 70
1
  9
$DIMTFAC
 40
1.0
  9
$DIMTIH
 70
0
  9
$DIMTIX
 70
0
  9
$DIMTM
 40
0.0
  9
$DIMTOFL
 70
1
  9
$DIMTOH
 70
0
  9
$DIMTOL
 70
0
  9
$DIMTP
 40
0.0
  9
$DIMTSZ
 40
0.0
  9
$DIMTVP
 40
0.0
  9
$DIMTXT
 40
2.5
  9
$DIMZIN
 70
8
  9
$DWGCODEPAGE
  3
ANSI_1252
  9
$ELEVATION
 40
0.0
  9
$EXTMAX
 10
219.6235350000000039
 20
173.106110000000001
 30
0.0
  9
$EXTMIN
 10
82.404120000000006
 20
34.3389779999999973
 30
0.0
  9
$FILLETRAD
 40
2.5
  9
$FILLMODE
 70
1
  9
$INSBASE
 10
0.0
 20
0.0
 30
0.0
  9
$INSUNITS
 70
0
  9
$LIMCHECK
 70
0
  9
$LIMMAX
 10
420.0
 20
297.0
  9
$LIMMIN
 10
0.0
 20
0.0
  9
$LTSCALE
 40
1
  9
$LUNITS
 70
2
  9
$LUPREC
 70
4
  9
$MAXACTVP
 70
48
  9
$MIRRTEXT
 70
1
  9
$ORTHOMODE
 70
0
  9
$PDMODE
 70
0
  9
$PDSIZE
 40
0.0
  9
$PELEVATION
 40
0.0
  9
$PEXTMAX
 10
219.6235200000000134
 20
174.106094000000013
 30
2.0
  9
$PEXTMIN
 10
0.0
 20
0.0
 30
0.0
  9
$PLIMCHECK
 70
0
  9
$PLIMMAX
 10
0.0
 20
0.0
  9
$PLIMMIN
 10
0.0
 20
0.0
  9
$PLINEGEN
 70
0
  9
$PLINEWID
 40
0.0
  9
$PSLTSCALE
 70
1
  9
$PUCSNAME
  2

  9
$PUCSORG
 10
0.0
 20
0.0
 30
0.0
  9
$PUCSXDIR
 10
1.0
 20
0.0
 30
0.0
  9
$PUCSYDIR
 10
0.0
 20
1.0
 30
0.0
  9
$QTEXTMODE
 70
0
  9
$REGENMODE
 70
1
  9
$SHADEDGE
 70
3
  9
$SHADEDIF
 70
70
  9
$SKETCHINC
 40
1.0
  9
$SKPOLY
 70
0
  9
$SPLFRAME
 70
0
  9
$SPLINESEGS
 70
8
  9
$SPLINETYPE
 70
6
  9
$SURFTAB1
 70
6
  9
$SURFTAB2
 70
6
  9
$SURFTYPE
 70
6
  9
$SURFU
 70
6
  9
$SURFV
 70
6
  9
$TEXTSIZE
 40
0.0
  9
$TEXTSTYLE
  7
STANDARD
  9
$THICKNESS
 40
0.0
  9
$TILEMODE
 70
1
  9
$TRACEWID
 40
1.0
  9
$UCSNAME
  2

  9
$UCSORG
 10
0.0
 20
0.0
 30
0.0
  9
$UCSXDIR
 10
1.0
 20
0.0
 30
0.0
  9
$UCSYDIR
 10
0.0
 20
1.0
 30
0.0
  9
$UNITMODE
 70
0
  9
$USERI1
 70
0
  9
$USERI2
 70
0
  9
$USERI3
 70
0
  9
$USERI4
 70
0
  9
$USERI5
 70
0
  9
$USERR1
 40
0.0
  9
$USERR2
 40
0.0
  9
$USERR3
 40
0.0
  9
$USERR4
 40
0.0
  9
$USERR5
 40
0.0
  9
$USRTIMER
 70
1
  9
$VISRETAIN
 70
0
  0
ENDSEC
  0
SECTION
  2
TABLES
  0
TABLE
  2
VPORT
  5
8
100
AcDbSymbolTable
 70
1
  0
VPORT
  5
30
100
AcDbSymbolTableRecord
100
AcDbViewportTableRecord
  2
*Active
 70
0
 10
0.0
 20
0.0
 11
1.0
 21
1.0
 12
286.3055555555554861
 22
148.5
 13
0.0
 23
0.0
 14
10.0
 24
10.0
 15
10.0
 25
10.0
 16
0.0
 26
0.0
 36
1.0
 17
0.0
 27
0.0
 37
0.0
 40
297.0
 41
1.92798353909465
 42
50.0
 43
0.0
 44
0.0
 50
0.0
 51
0.0
 71
0
 72
100
 73
1
 74
3
 75
1
 76
1
 77
0
 78
0
281
0
 65
1
110
0.0
120
0.0
130
0.0
111
1.0
121
0.0
131
0.0
112
0.0
122
1.0
132
0.0
 79
0
146
0.0
  0
ENDTAB
  0
TABLE
  2
LTYPE
  5
5
100
AcDbSymbolTable
 70
41
  0
LTYPE
  5
16
100
AcDbSymbolTableRecord
100
AcDbLinetypeTableRecord
  2
CONTINUOUS
 70
0
  3
Solid line
 72
65
 73
0
 40
0.0
  0
LTYPE
  5
31
100
AcDbSymbolTableRecord
100
AcDbLinetypeTableRecord
  2
ACAD_ISO15W100
 70
0
  3
ISO double-dash triple-dot __ __ . . . __ __ . .
 72
65
 73
10
 40
39.0000000000000071
 49
12.0
 74
0
 49
-3.0
 74
0
 49
12.0
 74
0
 49
-2.9500000000000002
 74
0
 49
0.1
 74
0
 49
-2.9000000000000004
 74
0
 49
0.1
 74
0
 49
-2.9000000000000004
 74
0
 49
0.1
 74
0
 49
-2.9500000000000002
 74
0
  0
LTYPE
  5
32
100
AcDbSymbolTableRecord
100
AcDbLinetypeTableRecord
  2
DIVIDE
 70
0
  3
Divide ____ . . ____ . . ____ . . ____ . . ____
 72
65
 73
6
 40
31.7500000000000036
 49
12.6999999999999993
 74
0
 49
-6.2999999999999998
 74
0
 49
0.1
 74
0
 49
-6.25
 74
0
 49
0.1
 74
0
 49
-6.2999999999999998
 74
0
  0
LTYPE
  5
33
100
AcDbSymbolTableRecord
100
AcDbLinetypeTableRecord
  2
ACAD_ISO10W100
 70
0
  3
ISO dash dot __ . __ . __ . __ . __ . __ . __ . 
 72
65
 73
4
 40
18.0
 49
12.0
 74
0
 49
-2.9500000000000002
 74
0
 49
0.1
 74
0
 49
-2.9500000000000002
 74
0
  0
LTYPE
  5
34
100
AcDbSymbolTableRecord
100
AcDbLinetypeTableRecord
  2
ACAD_ISO04W100
 70
0
  3
ISO long-dash dot ____ . ____ . ____ . ____ . _
 72
65
 73
4
 40
30.0
 49
24.0
 74
0
 49
-2.9500000000000002
 74
0
 49
0.1
 74
0
 49
-2.9500000000000002
 74
0
  0
LTYPE
  5
35
100
AcDbSymbolTableRecord
100
AcDbLinetypeTableRecord
  2
CENTER2
 70
0
  3
Center (.5x) ___ _ ___ _ ___ _ ___ _ ___ _ ___
 72
65
 73
4
 40
28.5750000000000028
 49
19.0500000000000007
 74
0
 49
-3.1749999999999998
 74
0
 49
3.1749999999999998
 74
0
 49
-3.1749999999999998
 74
0
  0
LTYPE
  5
36
100
AcDbSymbolTableRecord
100
AcDbLinetypeTableRecord
  2
ACAD_ISO11W100
 70
0
  3
ISO double-dash dot __ __ . __ __ . __ __ . __ _
 72
65
 73
6
 40
33.0
 49
12.0
 74
0
 49
-3.0
 74
0
 49
12.0
 74
0
 49
-2.9500000000000002
 74
0
 49
0.1
 74
0
 49
-2.9500000000000002
 74
0
  0
LTYPE
  5
37
100
AcDbSymbolTableRecord
100
AcDbLinetypeTableRecord
  2
HIDDEN2
 70
0
  3
Hidden (.5x) _ _ _ _ _ _ _ _ _ _ _ _ _ _ _ _ _ 
 72
65
 73
2
 40
4.7624999999999993
 49
3.1749999999999998
 74
0
 49
-1.5874999999999999
 74
0
  0
LTYPE
  5
38
100
AcDbSymbolTableRecord
100
AcDbLinetypeTableRecord
  2
BORDERX2
 70
0
  3
Border (2x) ____  ____  .  ____  ____  .  ___
 72
65
 73
6
 40
88.8999999999999773
 49
25.3999999999999986
 74
0
 49
-12.6999999999999993
 74
0
 49
25.3999999999999986
 74
0
 49
-12.6499999999999986
 74
0
 49
0.1
 74
0
 49
-12.6499999999999986
 74
0
  0
LTYPE
  5
39
100
AcDbSymbolTableRecord
100
AcDbLinetypeTableRecord
  2
ACAD_ISO05W100
 70
0
  3
ISO long-dash double-dot ____ .. ____ .. ____ . 
 72
65
 73
6
 40
33.0000000000000071
 49
24.0
 74
0
 49
-2.9500000000000002
 74
0
 49
0.1
 74
0
 49
-2.9000000000000004
 74
0
 49
0.1
 74
0
 49
-2.9500000000000002
 74
0
  0
LTYPE
  5
3A
100
AcDbSymbolTableRecord
100
AcDbLinetypeTableRecord
  2
DASHDOTX2
 70
0
  3
Dash dot (2x) ____  .  ____  .  ____  .  ___
 72
65
 73
4
 40
50.7999999999999972
 49
25.3999999999999986
 74
0
 49
-12.6499999999999986
 74
0
 49
0.1
 74
0
 49
-12.6499999999999986
 74
0
  0
LTYPE
  5
3B
100
AcDbSymbolTableRecord
100
AcDbLinetypeTableRecord
  2
HIDDENX2
 70
0
  3
Hidden (2x) ____ ____ ____ ____ ____ ____ ____ 
 72
65
 73
2
 40
19.0499999999999972
 49
12.6999999999999993
 74
0
 49
-6.3499999999999996
 74
0
  0
LTYPE
  5
3C
100
AcDbSymbolTableRecord
100
AcDbLinetypeTableRecord
  2
CENTERX2
 70
0
  3
Center (2x) ________  __  ________  __  _____
 72
65
 73
4
 40
101.6000000000000085
 49
63.5
 74
0
 49
-12.6999999999999993
 74
0
 49
12.6999999999999993
 74
0
 49
-12.6999999999999993
 74
0
  0
LTYPE
  5
3D
100
AcDbSymbolTableRecord
100
AcDbLinetypeTableRecord
  2
BORDER2
 70
0
  3
Border (.5x) __.__.__.__.__.__.__.__.__.__.__.
 72
65
 73
6
 40
22.2250000000000014
 49
6.3499999999999996
 74
0
 49
-3.1749999999999998
 74
0
 49
6.3499999999999996
 74
0
 49
-3.125
 74
0
 49
0.1
 74
0
 49
-3.125
 74
0
  0
LTYPE
  5
3E
100
AcDbSymbolTableRecord
100
AcDbLinetypeTableRecord
  2
DASHDOT2
 70
0
  3
Dash dot (.5x) _._._._._._._._._._._._._._._.
 72
65
 73
4
 40
12.6999999999999993
 49
6.3499999999999996
 74
0
 49
-3.125
 74
0
 49
0.1
 74
0
 49
-3.125
 74
0
  0
LTYPE
  5
3F
100
AcDbSymbolTableRecord
100
AcDbLinetypeTableRecord
  2
ACAD_ISO12W100
 70
0
  3
ISO dash double-dot __ . . __ . . __ . . __ . . 
 72
65
 73
6
 40
21.0
 49
12.0
 74
0
 49
-2.9500000000000002
 74
0
 49
0.1
 74
0
 49
-2.9000000000000004
 74
0
 49
0.1
 74
0
 49
-2.9500000000000002
 74
0
  0
LTYPE
  5
40
100
AcDbSymbolTableRecord
100
AcDbLinetypeTableRecord
  2
ACAD_ISO07W100
 70
0
  3
ISO dot . . . . . . . . . . . . . . . . . . . . 
 72
65
 73
2
 40
3.0
 49
0.1
 74
0
 49
-2.8999999999999999
 74
0
  0
LTYPE
  5
41
100
AcDbSymbolTableRecord
100
AcDbLinetypeTableRecord
  2
HIDDEN
 70
0
  3
Hidden __ __ __ __ __ __ __ __ __ __ __ __ __ __
 72
65
 73
2
 40
9.5249999999999986
 49
6.3499999999999996
 74
0
 49
-3.1749999999999998
 74
0
  0
LTYPE
  5
42
100
AcDbSymbolTableRecord
100
AcDbLinetypeTableRecord
  2
ACAD_ISO06W100
 70
0
  3
ISO long-dash triple-dot ____ ... ____ ... ____
 72
65
 73
8
 40
36.0000000000000071
 49
24.0
 74
0
 49
-2.9500000000000002
 74
0
 49
0.1
 74
0
 49
-2.9000000000000004
 74
0
 49
0.1
 74
0
 49
-2.9000000000000004
 74
0
 49
0.1
 74
0
 49
-2.9500000000000002
 74
0
  0
LTYPE
  5
43
100
AcDbSymbolTableRecord
100
AcDbLinetypeTableRecord
  2
CENTER
 70
0
  3
Center ____ _ ____ _ ____ _ ____ _ ____ _ ____
 72
65
 73
4
 40
50.8000000000000043
 49
31.75
 74
0
 49
-6.3499999999999996
 74
0
 49
6.3499999999999996
 74
0
 49
-6.3499999999999996
 74
0
  0
LTYPE
  5
44
100
AcDbSymbolTableRecord
100
AcDbLinetypeTableRecord
  2
DOTX2
 70
0
  3
Dot (2x) .  .  .  .  .  .  .  .  .  .  .  .  .  .
 72
65
 73
2
 40
12.6999999999999993
 49
0.1
 74
0
 49
-12.5999999999999996
 74
0
  0
LTYPE
  5
45
100
AcDbSymbolTableRecord
100
AcDbLinetypeTableRecord
  2
PHANTOM
 70
0
  3
Phantom ______  __  __  ______  __  __  ______ 
 72
65
 73
6
 40
63.5000000000000071
 49
31.75
 74
0
 49
-6.3499999999999996
 74
0
 49
6.3499999999999996
 74
0
 49
-6.3499999999999996
 74
0
 49
6.3499999999999996
 74
0
 49
-6.3499999999999996
 74
0
  0
LTYPE
  5
46
100
AcDbSymbolTableRecord
100
AcDbLinetypeTableRecord
  2
ACAD_ISO08W100
 70
0
  3
ISO long-dash short-dash ____ __ ____ __ ____ _
 72
65
 73
4
 40
36.0
 49
24.0
 74
0
 49
-3.0
 74
0
 49
6.0
 74
0
 49
-3.0
 74
0
  0
LTYPE
  5
47
100
AcDbSymbolTableRecord
100
AcDbLinetypeTableRecord
  2
DASHEDX2
 70
0
  3
Dashed (2x) ____  ____  ____  ____  ____  ___
 72
65
 73
2
 40
38.0999999999999943
 49
25.3999999999999986
 74
0
 49
-12.6999999999999993
 74
0
  0
LTYPE
  5
48
100
AcDbSymbolTableRecord
100
AcDbLinetypeTableRecord
  2
ACAD_ISO02W100
 70
0
  3
ISO dash __ __ __ __ __ __ __ __ __ __ __ __ __
 72
65
 73
2
 40
15.0
 49
12.0
 74
0
 49
-3.0
 74
0
  0
LTYPE
  5
49
100
AcDbSymbolTableRecord
100
AcDbLinetypeTableRecord
  2
PHANTOM2
 70
0
  3
Phantom (.5x) ___ _ _ ___ _ _ ___ _ _ ___ _ _
 72
65
 73
6
 40
31.7500000000000036
 49
15.875
 74
0
 49
-3.1749999999999998
 74
0
 49
3.1749999999999998
 74
0
 49
-3.1749999999999998
 74
0
 49
3.1749999999999998
 74
0
 49
-3.1749999999999998
 74
0
  0
LTYPE
  5
4A
100
AcDbSymbolTableRecord
100
AcDbLinetypeTableRecord
  2
DASHED2
 70
0
  3
Dashed (.5x) _ _ _ _ _ _ _ _ _ _ _ _ _ _ _ _ _ 
 72
65
 73
2
 40
9.5249999999999986
 49
6.3499999999999996
 74
0
 49
-3.1749999999999998
 74
0
  0
LTYPE
  5
4B
100
AcDbSymbolTableRecord
100
AcDbLinetypeTableRecord
  2
ACAD_ISO09W100
 70
0
  3
ISO long-dash double-short-dash ____ __ __ ____
 72
65
 73
6
 40
45.0
 49
24.0
 74
0
 49
-3.0
 74
0
 49
6.0
 74
0
 49
-3.0
 74
0
 49
6.0
 74
0
 49
-3.0
 74
0
  0
LTYPE
  5
4C
100
AcDbSymbolTableRecord
100
AcDbLinetypeTableRecord
  2
ACAD_ISO13W100
 70
0
  3
ISO double-dash double-dot __ __ . . __ __ . . _
 72
65
 73
8
 40
36.0000000000000071
 49
12.0
 74
0
 49
-3.0
 74
0
 49
12.0
 74
0
 49
-2.9500000000000002
 74
0
 49
0.1
 74
0
 49
-2.9000000000000004
 74
0
 49
0.1
 74
0
 49
-2.9500000000000002
 74
0
  0
LTYPE
  5
4D
100
AcDbSymbolTableRecord
100
AcDbLinetypeTableRecord
  2
DOT2
 70
0
  3
Dot (.5x) ........................................
 72
65
 73
2
 40
3.1749999999999998
 49
0.1
 74
0
 49
-3.0749999999999997
 74
0
  0
LTYPE
  5
4E
100
AcDbSymbolTableRecord
100
AcDbLinetypeTableRecord
  2
DASHED
 70
0
  3
Dashed __ __ __ __ __ __ __ __ __ __ __ __ __ _
 72
65
 73
2
 40
19.0499999999999972
 49
12.6999999999999993
 74
0
 49
-6.3499999999999996
 74
0
  0
LTYPE
  5
4F
100
AcDbSymbolTableRecord
100
AcDbLinetypeTableRecord
  2
ACAD_ISO14W100
 70
0
  3
ISO dash triple-dot __ . . . __ . . . __ . . . _
 72
65
 73
8
 40
24.0000000000000036
 49
12.0
 74
0
 49
-2.9500000000000002
 74
0
 49
0.1
 74
0
 49
-2.9000000000000004
 74
0
 49
0.1
 74
0
 49
-2.9000000000000004
 74
0
 49
0.1
 74
0
 49
-2.9500000000000002
 74
0
  0
LTYPE
  5
15
100
AcDbSymbolTableRecord
100
AcDbLinetypeTableRecord
  2
BYLAYER
 70
0
  3

 72
65
 73
0
 40
0.0
  0
LTYPE
  5
50
100
AcDbSymbolTableRecord
100
AcDbLinetypeTableRecord
  2
PHANTOMX2
 70
0
  3
Phantom (2x) ____________    ____    ____   _
 72
65
 73
6
 40
127.0000000000000142
 49
63.5
 74
0
 49
-12.6999999999999993
 74
0
 49
12.6999999999999993
 74
0
 49
-12.6999999999999993
 74
0
 49
12.6999999999999993
 74
0
 49
-12.6999999999999993
 74
0
  0
LTYPE
  5
14
100
AcDbSymbolTableRecord
100
AcDbLinetypeTableRecord
  2
BYBLOCK
 70
0
  3

 72
65
 73
0
 40
0.0
  0
LTYPE
  5
51
100
AcDbSymbolTableRecord
100
AcDbLinetypeTableRecord
  2
DIVIDEX2
 70
0
  3
Divide (2x) ________  .  .  ________  .  .  _
 72
65
 73
6
 40
63.5
 49
25.3999999999999986
 74
0
 49
-12.6499999999999986
 74
0
 49
0.1
 74
0
 49
-12.5999999999999979
 74
0
 49
0.1
 74
0
 49
-12.6499999999999986
 74
0
  0
LTYPE
  5
52
100
AcDbSymbolTableRecord
100
AcDbLinetypeTableRecord
  2
BORDER
 70
0
  3
Border __ __ . __ __ . __ __ . __ __ . __ __ .
 72
65
 73
6
 40
44.4499999999999957
 49
12.6999999999999993
 74
0
 49
-6.3499999999999996
 74
0
 49
12.6999999999999993
 74
0
 49
-6.2999999999999998
 74
0
 49
0.1
 74
0
 49
-6.2999999999999998
 74
0
  0
LTYPE
  5
53
100
AcDbSymbolTableRecord
100
AcDbLinetypeTableRecord
  2
DIVIDE2
 70
0
  3
Divide (.5x) __..__..__..__..__..__..__..__.._
 72
65
 73
6
 40
15.8749999999999982
 49
6.3499999999999996
 74
0
 49
-3.125
 74
0
 49
0.1
 74
0
 49
-3.0750000000000002
 74
0
 49
0.1
 74
0
 49
-3.125
 74
0
  0
LTYPE
  5
54
100
AcDbSymbolTableRecord
100
AcDbLinetypeTableRecord
  2
DOT
 70
0
  3
Dot . . . . . . . . . . . . . . . . . . . . . . . .
 72
65
 73
2
 40
6.3499999999999996
 49
0.1
 74
0
 49
-6.25
 74
0
  0
LTYPE
  5
55
100
AcDbSymbolTableRecord
100
AcDbLinetypeTableRecord
  2
DASHDOT
 70
0
  3
 __ . __ . __ . __ . __ . __ . __ . 
 72
65
 73
4
 40
18.5
 49
12.0
 74
0
 49
-3.0
 74
0
 49
0.5
 74
0
 49
-3.0
 74
0
  0
LTYPE
  5
56
100
AcDbSymbolTableRecord
100
AcDbLinetypeTableRecord
  2
ACAD_ISO03W100
 70
0
  3
ISO dash space __    __    __    __    __    __
 72
65
 73
2
 40
30.0
 49
12.0
 74
0
 49
-18.0
 74
0
  0
ENDTAB
  0
TABLE
  2
LAYER
  5
2
100
AcDbSymbolTable
 70
2
  0
LAYER
  5
57
100
AcDbSymbolTableRecord
100
AcDbLayerTableRecord
  2
DEFPOINTS
 70
0
 62
7
420
16777215
  6
CONTINUOUS
290
0
370
5
390
F
  0
LAYER
  5
10
100
AcDbSymbolTableRecord
100
AcDbLayerTableRecord
  2
0
 70
0
 62
7
420
16777215
  6
CONTINUOUS
370
5
390
F
  0
ENDTAB
  0
TABLE
  2
STYLE
  5
3
100
AcDbSymbolTable
 70
1
  0
STYLE
  5
58
100
AcDbSymbolTableRecord
100
AcDbTextStyleTableRecord
  2
Standard
 70
0
 40
0.0
 41
1.0
 50
0.0
 71
0
 42
2.5
  3

  4

1001
ACAD
1000
txt
1071
0
  0
ENDTAB
  0
TABLE
  2
VIEW
  5
6
100
AcDbSymbolTable
 70
0
  0
ENDTAB
  0
TABLE
  2
UCS
  5
7
100
AcDbSymbolTable
 70
0
  0
ENDTAB
  0
TABLE
  2
APPID
  5
9
100
AcDbSymbolTable
 70
1
  0
APPID
  5
12
100
AcDbSymbolTableRecord
100
AcDbRegAppTableRecord
  2
ACAD
 70
0
  0
APPID
  5
59
100
AcDbSymbolTableRecord
100
AcDbRegAppTableRecord
  2
QCAD
 70
0
  0
ENDTAB
  0
TABLE
  2
DIMSTYLE
  5
A
100
AcDbSymbolTable
 70
1
100
AcDbDimStyleTable
 71
0
  0
DIMSTYLE
105
27
100
AcDbSymbolTableRecord
100
AcDbDimStyleTableRecord
  2
Standard
 41
2.5
 42
0.625
 43
3.75
 44
1.25
 70
0
 73
0
 74
0
 77
1
 78
8
140
2.5
141
2.5
143
0.03937007874016
147
0.625
171
3
172
1
271
2
272
2
274
3
278
44
283
0
284
8
340
58
  0
ENDTAB
  0
TABLE
  2
BLOCK_RECORD
  5
1
100
AcDbSymbolTable
 70
1
  0
BLOCK_RECORD
  5
1F
100
AcDbSymbolTableRecord
100
AcDbBlockTableRecord
  2
*Model_Space
340
22
  0
BLOCK_RECORD
  5
1B
100
AcDbSymbolTableRecord
100
AcDbBlockTableRecord
  2
*Paper_Space
340
1E
  0
BLOCK_RECORD
  5
23
100
AcDbSymbolTableRecord
100
AcDbBlockTableRecord
  2
*Paper_Space0
340
26
  0
BLOCK_RECORD
  5
5A
100
AcDbSymbolTableRecord
100
AcDbBlockTableRecord
  2
block 2
340
0
  0
BLOCK_RECORD
  5
5B
100
AcDbSymbolTableRecord
100
AcDbBlockTableRecord
  2
block 4
340
0
  0
BLOCK_RECORD
  5
5C
100
AcDbSymbolTableRecord
100
AcDbBlockTableRecord
  2
$PAPER_SPACE
340
0
  0
BLOCK_RECORD
  5
5D
100
AcDbSymbolTableRecord
100
AcDbBlockTableRecord
  2
$MODEL_SPACE
340
0
  0
ENDTAB
  0
ENDSEC
  0
SECTION
  2
BLOCKS
  0
BLOCK
  5
20
100
AcDbEntity
  8
0
100
AcDbBlockBegin
  2
*Model_Space
 70
0
 10
0.0
 20
0.0
 30
0.0
  3
*Model_Space
  1

  0
ENDBLK
  5
21
100
AcDbEntity
  8
0
100
AcDbBlockEnd
  0
BLOCK
  5
1C
100
AcDbEntity
 67
1
  8
0
100
AcDbBlockBegin
  2
*Paper_Space
 70
0
 10
0.0
 20
0.0
 30
0.0
  3
*Paper_Space
  1

  0
ENDBLK
  5
1D
100
AcDbEntity
 67
1
  8
0
100
AcDbBlockEnd
  0
BLOCK
  5
24
100
AcDbEntity
  8
0
100
AcDbBlockBegin
  2
*Paper_Space0
 70
0
 10
0.0
 20
0.0
 30
0.0
  3
*Paper_Space0
  1

  0
ENDBLK
  5
25
100
AcDbEntity
  8
0
100
AcDbBlockEnd
  0
BLOCK
  5
5E
100
AcDbEntity
  8
0
100
AcDbBlockBegin
  2
block 2
 70
0
 10
0.0
 20
0.0
 30
0.0
  3
block 2
  1

  0
ARC
  5
5F
100
AcDbEntity
  8
0
 62
7
420
16777215
370
-1
 48
1.0
  6
BYLAYER
100
AcDbCircle
 10
1.9808242000000007
 20
-1.9275969999999987
 30
0.0
 40
1.5000001999999999
100
AcDbArc
 50
90.0000030000000066
 51
180.0000050000001011
  0
LINE
  5
60
100
AcDbEntity
100
AcDbLine
  8
0
 62
7
420
16777215
370
-1
 48
1.0
  6
BYLAYER
 10
0.4808242000000007
 20
-1.9275969999999987
 30
0.0
 11
0.4808242000000007
 21
-5.7875976000000016
 31
0.0
  0
LINE
  5
61
100
AcDbEntity
100
AcDbLine
  8
0
 62
7
420
16777215
370
-1
 48
1.0
  6
BYLAYER
 10
0.4808242000000007
 20
-5.7875976000000016
 30
0.0
 11
2.2808257999999988
 21
-7.5875975999999987
 31
0.0
  0
LINE
  5
62
100
AcDbEntity
100
AcDbLine
  8
0
 62
7
420
16777215
370
-1
 48
1.0
  6
BYLAYER
 10
2.2808257999999988
 20
-4.9282591999999994
 30
0.0
 11
2.2808257999999988
 21
-7.5875975999999987
 31
0.0
  0
LINE
  5
63
100
AcDbEntity
100
AcDbLine
  8
0
 62
7
420
16777215
370
-1
 48
1.0
  6
BYLAYER
 10
2.2808257999999988
 20
-4.9282591999999994
 30
0.0
 11
3.9208251999999995
 21
-4.9282591999999994
 31
0.0
  0
LINE
  5
64
100
AcDbEntity
100
AcDbLine
  8
0
 62
7
420
16777215
370
-1
 48
1.0
  6
BYLAYER
 10
3.9208251999999995
 20
-4.9282591999999994
 30
0.0
 11
6.5801651999999997
 21
-7.5875975999999987
 31
0.0
  0
LINE
  5
65
100
AcDbEntity
100
AcDbLine
  8
0
 62
7
420
16777215
370
-1
 48
1.0
  6
BYLAYER
 10
6.5801651999999997
 20
-7.5875975999999987
 30
0.0
 11
6.5801651999999997
 21
-10.2275986000000003
 31
0.0
  0
LINE
  5
66
100
AcDbEntity
100
AcDbLine
  8
0
 62
7
420
16777215
370
-1
 48
1.0
  6
BYLAYER
 10
6.5801651999999997
 20
-10.2275986000000003
 30
0.0
 11
6.780165199999999
 21
-10.4275985999999996
 31
0.0
  0
LINE
  5
67
100
AcDbEntity
100
AcDbLine
  8
0
 62
7
420
16777215
370
-1
 48
1.0
  6
BYLAYER
 10
6.5801651999999997
 20
-10.6275985999999989
 30
0.0
 11
6.780165199999999
 21
-10.4275985999999996
 31
0.0
  0
LINE
  5
68
100
AcDbEntity
100
AcDbLine
  8
0
 62
7
420
16777215
370
-1
 48
1.0
  6
BYLAYER
 10
6.5801651999999997
 20
-13.2675994000000017
 30
0.0
 11
6.5801651999999997
 21
-10.6275985999999989
 31
0.0
  0
LINE
  5
69
100
AcDbEntity
100
AcDbLine
  8
0
 62
7
420
16777215
370
-1
 48
1.0
  6
BYLAYER
 10
3.9208251999999995
 20
-15.9269393999999984
 30
0.0
 11
6.5801651999999997
 21
-13.2675994000000017
 31
0.0
  0
LINE
  5
6A
100
AcDbEntity
100
AcDbLine
  8
0
 62
7
420
16777215
370
-1
 48
1.0
  6
BYLAYER
 10
2.2808257999999988
 20
-15.9269393999999984
 30
0.0
 11
3.9208251999999995
 21
-15.9269393999999984
 31
0.0
  0
LINE
  5
6B
100
AcDbEntity
100
AcDbLine
  8
0
 62
7
420
16777215
370
-1
 48
1.0
  6
BYLAYER
 10
2.2808257999999988
 20
-15.9269393999999984
 30
0.0
 11
2.2808257999999988
 21
-13.2675994000000017
 31
0.0
  0
LINE
  5
6C
100
AcDbEntity
100
AcDbLine
  8
0
 62
7
420
16777215
370
-1
 48
1.0
  6
BYLAYER
 10
0.4808242000000007
 20
-15.0675993999999989
 30
0.0
 11
2.2808257999999988
 21
-13.2675994000000017
 31
0.0
  0
LINE
  5
6D
100
AcDbEntity
100
AcDbLine
  8
0
 62
7
420
16777215
370
-1
 48
1.0
  6
BYLAYER
 10
0.4808242000000007
 20
-18.9275999999999982
 30
0.0
 11
0.4808242000000007
 21
-15.0675993999999989
 31
0.0
  0
ARC
  5
6E
100
AcDbEntity
  8
0
 62
7
420
16777215
370
-1
 48
1.0
  6
BYLAYER
100
AcDbCircle
 10
1.9808242000000007
 20
-18.9275999999999982
 30
0.0
 40
1.5000001999999999
100
AcDbArc
 50
180.0000049999999874
 51
269.9999970000000076
  0
LINE
  5
6F
100
AcDbEntity
100
AcDbLine
  8
0
 62
7
420
16777215
370
-1
 48
1.0
  6
BYLAYER
 10
1.9808242000000007
 20
-20.4275993999999983
 30
0.0
 11
5.8408248
 21
-20.4275993999999983
 31
0.0
  0
LINE
  5
70
100
AcDbEntity
100
AcDbLine
  8
0
 62
7
420
16777215
370
-1
 48
1.0
  6
BYLAYER
 10
5.8408248
 20
-20.4275993999999983
 30
0.0
 11
7.6408248000000007
 21
-18.6275985999999989
 31
0.0
  0
LINE
  5
71
100
AcDbEntity
100
AcDbLine
  8
0
 62
7
420
16777215
370
-1
 48
1.0
  6
BYLAYER
 10
7.6408248000000007
 20
-18.6275985999999989
 30
0.0
 11
4.9814849999999993
 21
-18.6275985999999989
 31
0.0
  0
LINE
  5
72
100
AcDbEntity
100
AcDbLine
  8
0
 62
7
420
16777215
370
-1
 48
1.0
  6
BYLAYER
 10
4.9814849999999993
 20
-18.6275985999999989
 30
0.0
 11
4.9814849999999993
 21
-16.9875991999999982
 31
0.0
  0
LINE
  5
73
100
AcDbEntity
100
AcDbLine
  8
0
 62
7
420
16777215
370
-1
 48
1.0
  6
BYLAYER
 10
4.9814849999999993
 20
-16.9875991999999982
 30
0.0
 11
7.6408248000000007
 21
-14.3282592000000015
 31
0.0
  0
LINE
  5
74
100
AcDbEntity
100
AcDbLine
  8
0
 62
7
420
16777215
370
-1
 48
1.0
  6
BYLAYER
 10
10.2808257999999988
 20
-14.3282592000000015
 30
0.0
 11
7.6408248000000007
 21
-14.3282592000000015
 31
0.0
  0
LINE
  5
75
100
AcDbEntity
100
AcDbLine
  8
0
 62
7
420
16777215
370
-1
 48
1.0
  6
BYLAYER
 10
10.2808257999999988
 20
-14.3282592000000015
 30
0.0
 11
10.4808258000000087
 21
-14.1282591999999987
 31
0.0
  0
LINE
  5
76
100
AcDbEntity
100
AcDbLine
  8
0
 62
7
420
16777215
370
-1
 48
1.0
  6
BYLAYER
 10
10.6808258000000009
 20
-14.3282592000000015
 30
0.0
 11
10.4808258000000087
 21
-14.1282591999999987
 31
0.0
  0
LINE
  5
77
100
AcDbEntity
100
AcDbLine
  8
0
 62
7
420
16777215
370
-1
 48
1.0
  6
BYLAYER
 10
10.6808258000000009
 20
-14.3282592000000015
 30
0.0
 11
13.3208252000000016
 21
-14.3282592000000015
 31
0.0
  0
LINE
  5
78
100
AcDbEntity
100
AcDbLine
  8
0
 62
7
420
16777215
370
-1
 48
1.0
  6
BYLAYER
 10
15.9801666000000004
 20
-16.9875991999999982
 30
0.0
 11
13.3208252000000016
 21
-14.3282592000000015
 31
0.0
  0
LINE
  5
79
100
AcDbEntity
100
AcDbLine
  8
0
 62
7
420
16777215
370
-1
 48
1.0
  6
BYLAYER
 10
15.9801666000000004
 20
-18.6275985999999989
 30
0.0
 11
15.9801666000000004
 21
-16.9875991999999982
 31
0.0
  0
LINE
  5
7A
100
AcDbEntity
100
AcDbLine
  8
0
 62
7
420
16777215
370
-1
 48
1.0
  6
BYLAYER
 10
13.3208252000000016
 20
-18.6275985999999989
 30
0.0
 11
15.9801666000000004
 21
-18.6275985999999989
 31
0.0
  0
LINE
  5
7B
100
AcDbEntity
100
AcDbLine
  8
0
 62
7
420
16777215
370
-1
 48
1.0
  6
BYLAYER
 10
15.1208251999999987
 20
-20.4275993999999983
 30
0.0
 11
13.3208252000000016
 21
-18.6275985999999989
 31
0.0
  0
LINE
  5
7C
100
AcDbEntity
100
AcDbLine
  8
0
 62
7
420
16777215
370
-1
 48
1.0
  6
BYLAYER
 10
25.8408264000000116
 20
-20.4275993999999983
 30
0.0
 11
15.1208251999999987
 21
-20.4275993999999983
 31
0.0
  0
LINE
  5
7D
100
AcDbEntity
100
AcDbLine
  8
0
 62
7
420
16777215
370
-1
 48
1.0
  6
BYLAYER
 10
17.0408264000000003
 20
-15.9269393999999984
 30
0.0
 11
14.3814850000000014
 21
-13.2675994000000017
 31
0.0
  0
LINE
  5
7E
100
AcDbEntity
100
AcDbLine
  8
0
 62
7
420
16777215
370
-1
 48
1.0
  6
BYLAYER
 10
14.3814850000000014
 20
-13.2675994000000017
 30
0.0
 11
14.3814850000000014
 21
-10.6275985999999989
 31
0.0
  0
LINE
  5
7F
100
AcDbEntity
100
AcDbLine
  8
0
 62
7
420
16777215
370
-1
 48
1.0
  6
BYLAYER
 10
14.3814850000000014
 20
-10.6275985999999989
 30
0.0
 11
14.1814849999999986
 21
-10.4275985999999996
 31
0.0
  0
LINE
  5
80
100
AcDbEntity
100
AcDbLine
  8
0
 62
7
420
16777215
370
-1
 48
1.0
  6
BYLAYER
 10
14.3814850000000014
 20
-10.2275986000000003
 30
0.0
 11
14.1814849999999986
 21
-10.4275985999999996
 31
0.0
  0
LINE
  5
81
100
AcDbEntity
100
AcDbLine
  8
0
 62
7
420
16777215
370
-1
 48
1.0
  6
BYLAYER
 10
14.3814850000000014
 20
-7.5875975999999987
 30
0.0
 11
14.3814850000000014
 21
-10.2275986000000003
 31
0.0
  0
LINE
  5
82
100
AcDbEntity
100
AcDbLine
  8
0
 62
7
420
16777215
370
-1
 48
1.0
  6
BYLAYER
 10
17.0408264000000003
 20
-4.9282591999999994
 30
0.0
 11
14.3814850000000014
 21
-7.5875975999999987
 31
0.0
  0
LINE
  5
83
100
AcDbEntity
100
AcDbLine
  8
0
 62
7
420
16777215
370
-1
 48
1.0
  6
BYLAYER
 10
25.8408264000000116
 20
-0.4275969999999987
 30
0.0
 11
15.1208251999999987
 21
-0.4275969999999987
 31
0.0
  0
LINE
  5
84
100
AcDbEntity
100
AcDbLine
  8
0
 62
7
420
16777215
370
-1
 48
1.0
  6
BYLAYER
 10
15.1208251999999987
 20
-0.4275969999999987
 30
0.0
 11
13.3208252000000016
 21
-2.2275969999999994
 31
0.0
  0
LINE
  5
85
100
AcDbEntity
100
AcDbLine
  8
0
 62
7
420
16777215
370
-1
 48
1.0
  6
BYLAYER
 10
13.3208252000000016
 20
-2.2275969999999994
 30
0.0
 11
15.9801666000000004
 21
-2.2275969999999994
 31
0.0
  0
LINE
  5
86
100
AcDbEntity
100
AcDbLine
  8
0
 62
7
420
16777215
370
-1
 48
1.0
  6
BYLAYER
 10
15.9801666000000004
 20
-2.2275969999999994
 30
0.0
 11
15.9801666000000004
 21
-3.8675993999999996
 31
0.0
  0
LINE
  5
87
100
AcDbEntity
100
AcDbLine
  8
0
 62
7
420
16777215
370
-1
 48
1.0
  6
BYLAYER
 10
15.9801666000000004
 20
-3.8675993999999996
 30
0.0
 11
13.3208252000000016
 21
-6.5269377999999989
 31
0.0
  0
LINE
  5
88
100
AcDbEntity
100
AcDbLine
  8
0
 62
7
420
16777215
370
-1
 48
1.0
  6
BYLAYER
 10
10.6808258000000009
 20
-6.5269377999999989
 30
0.0
 11
13.3208252000000016
 21
-6.5269377999999989
 31
0.0
  0
LINE
  5
89
100
AcDbEntity
100
AcDbLine
  8
0
 62
7
420
16777215
370
-1
 48
1.0
  6
BYLAYER
 10
10.6808258000000009
 20
-6.5269377999999989
 30
0.0
 11
10.4808258000000087
 21
-6.7269378000000017
 31
0.0
  0
LINE
  5
8A
100
AcDbEntity
100
AcDbLine
  8
0
 62
7
420
16777215
370
-1
 48
1.0
  6
BYLAYER
 10
10.2808257999999988
 20
-6.5269377999999989
 30
0.0
 11
10.4808258000000087
 21
-6.7269378000000017
 31
0.0
  0
LINE
  5
8B
100
AcDbEntity
100
AcDbLine
  8
0
 62
7
420
16777215
370
-1
 48
1.0
  6
BYLAYER
 10
10.2808257999999988
 20
-6.5269377999999989
 30
0.0
 11
7.6408248000000007
 21
-6.5269377999999989
 31
0.0
  0
LINE
  5
8C
100
AcDbEntity
100
AcDbLine
  8
0
 62
7
420
16777215
370
-1
 48
1.0
  6
BYLAYER
 10
4.9814849999999993
 20
-3.8675993999999996
 30
0.0
 11
7.6408248000000007
 21
-6.5269377999999989
 31
0.0
  0
LINE
  5
8D
100
AcDbEntity
100
AcDbLine
  8
0
 62
7
420
16777215
370
-1
 48
1.0
  6
BYLAYER
 10
4.9814849999999993
 20
-2.2275969999999994
 30
0.0
 11
4.9814849999999993
 21
-3.8675993999999996
 31
0.0
  0
LINE
  5
8E
100
AcDbEntity
100
AcDbLine
  8
0
 62
7
420
16777215
370
-1
 48
1.0
  6
BYLAYER
 10
7.6408248000000007
 20
-2.2275969999999994
 30
0.0
 11
4.9814849999999993
 21
-2.2275969999999994
 31
0.0
  0
LINE
  5
8F
100
AcDbEntity
100
AcDbLine
  8
0
 62
7
420
16777215
370
-1
 48
1.0
  6
BYLAYER
 10
5.8408248
 20
-0.4275969999999987
 30
0.0
 11
7.6408248000000007
 21
-2.2275969999999994
 31
0.0
  0
LINE
  5
90
100
AcDbEntity
100
AcDbLine
  8
0
 62
7
420
16777215
370
-1
 48
1.0
  6
BYLAYER
 10
1.9808242000000007
 20
-0.4275969999999987
 30
0.0
 11
5.8408248
 21
-0.4275969999999987
 31
0.0
  0
CIRCLE
  5
91
100
AcDbEntity
100
AcDbCircle
  8
0
 62
7
420
16777215
370
-1
 48
1.0
  6
BYLAYER
 10
10.4808258000000087
 20
-10.4275985999999996
 30
0.0
 40
2.1000002000000002
  0
LINE
  5
92
100
AcDbEntity
100
AcDbLine
  8
0
 62
7
420
16777215
370
-1
 48
1.0
  6
BYLAYER
 10
23.9208268000000146
 20
-4.9282591999999994
 30
0.0
 11
26.5801668000000149
 21
-7.5875975999999987
 31
0.0
  0
LINE
  5
93
100
AcDbEntity
100
AcDbLine
  8
0
 62
7
420
16777215
370
-1
 48
1.0
  6
BYLAYER
 10
26.5801668000000149
 20
-7.5875975999999987
 30
0.0
 11
26.5801668000000149
 21
-10.2275986000000003
 31
0.0
  0
LINE
  5
94
100
AcDbEntity
100
AcDbLine
  8
0
 62
7
420
16777215
370
-1
 48
1.0
  6
BYLAYER
 10
26.5801668000000149
 20
-10.2275986000000003
 30
0.0
 11
26.7801668000000106
 21
-10.4275985999999996
 31
0.0
  0
LINE
  5
95
100
AcDbEntity
100
AcDbLine
  8
0
 62
7
420
16777215
370
-1
 48
1.0
  6
BYLAYER
 10
26.5801668000000149
 20
-10.6275985999999989
 30
0.0
 11
26.7801668000000106
 21
-10.4275985999999996
 31
0.0
  0
LINE
  5
96
100
AcDbEntity
100
AcDbLine
  8
0
 62
7
420
16777215
370
-1
 48
1.0
  6
BYLAYER
 10
26.5801668000000149
 20
-13.2675994000000017
 30
0.0
 11
26.5801668000000149
 21
-10.6275985999999989
 31
0.0
  0
LINE
  5
97
100
AcDbEntity
100
AcDbLine
  8
0
 62
7
420
16777215
370
-1
 48
1.0
  6
BYLAYER
 10
23.9208268000000146
 20
-15.9269393999999984
 30
0.0
 11
26.5801668000000149
 21
-13.2675994000000017
 31
0.0
  0
LINE
  5
98
100
AcDbEntity
100
AcDbLine
  8
0
 62
7
420
16777215
370
-1
 48
1.0
  6
BYLAYER
 10
25.8408264000000116
 20
-20.4275993999999983
 30
0.0
 11
27.6408264000000088
 21
-18.6275985999999989
 31
0.0
  0
LINE
  5
99
100
AcDbEntity
100
AcDbLine
  8
0
 62
7
420
16777215
370
-1
 48
1.0
  6
BYLAYER
 10
27.6408264000000088
 20
-18.6275985999999989
 30
0.0
 11
24.9814866000000109
 21
-18.6275985999999989
 31
0.0
  0
LINE
  5
9A
100
AcDbEntity
100
AcDbLine
  8
0
 62
7
420
16777215
370
-1
 48
1.0
  6
BYLAYER
 10
24.9814866000000109
 20
-18.6275985999999989
 30
0.0
 11
24.9814866000000109
 21
-16.9875991999999982
 31
0.0
  0
LINE
  5
9B
100
AcDbEntity
100
AcDbLine
  8
0
 62
7
420
16777215
370
-1
 48
1.0
  6
BYLAYER
 10
24.9814866000000109
 20
-16.9875991999999982
 30
0.0
 11
27.6408264000000088
 21
-14.3282592000000015
 31
0.0
  0
LINE
  5
9C
100
AcDbEntity
100
AcDbLine
  8
0
 62
7
420
16777215
370
-1
 48
1.0
  6
BYLAYER
 10
30.2808274000000068
 20
-14.3282592000000015
 30
0.0
 11
27.6408264000000088
 21
-14.3282592000000015
 31
0.0
  0
LINE
  5
9D
100
AcDbEntity
100
AcDbLine
  8
0
 62
7
420
16777215
370
-1
 48
1.0
  6
BYLAYER
 10
30.2808274000000068
 20
-14.3282592000000015
 30
0.0
 11
30.4808274000000239
 21
-14.1282591999999987
 31
0.0
  0
LINE
  5
9E
100
AcDbEntity
100
AcDbLine
  8
0
 62
7
420
16777215
370
-1
 48
1.0
  6
BYLAYER
 10
30.6808274000000125
 20
-14.3282592000000015
 30
0.0
 11
30.4808274000000239
 21
-14.1282591999999987
 31
0.0
  0
LINE
  5
9F
100
AcDbEntity
100
AcDbLine
  8
0
 62
7
420
16777215
370
-1
 48
1.0
  6
BYLAYER
 10
30.6808274000000125
 20
-14.3282592000000015
 30
0.0
 11
33.3208268000000132
 21
-14.3282592000000015
 31
0.0
  0
LINE
  5
A0
100
AcDbEntity
100
AcDbLine
  8
0
 62
7
420
16777215
370
-1
 48
1.0
  6
BYLAYER
 10
35.9801682000000085
 20
-16.9875991999999982
 30
0.0
 11
33.3208268000000132
 21
-14.3282592000000015
 31
0.0
  0
LINE
  5
A1
100
AcDbEntity
100
AcDbLine
  8
0
 62
7
420
16777215
370
-1
 48
1.0
  6
BYLAYER
 10
35.9801682000000085
 20
-18.6275985999999989
 30
0.0
 11
35.9801682000000085
 21
-16.9875991999999982
 31
0.0
  0
LINE
  5
A2
100
AcDbEntity
100
AcDbLine
  8
0
 62
7
420
16777215
370
-1
 48
1.0
  6
BYLAYER
 10
33.3208268000000132
 20
-18.6275985999999989
 30
0.0
 11
35.9801682000000085
 21
-18.6275985999999989
 31
0.0
  0
LINE
  5
A3
100
AcDbEntity
100
AcDbLine
  8
0
 62
7
420
16777215
370
-1
 48
1.0
  6
BYLAYER
 10
35.1208268000000103
 20
-20.4275993999999983
 30
0.0
 11
33.3208268000000132
 21
-18.6275985999999989
 31
0.0
  0
LINE
  5
A4
100
AcDbEntity
100
AcDbLine
  8
0
 62
7
420
16777215
370
-1
 48
1.0
  6
BYLAYER
 10
38.9808274000000239
 20
-20.4275993999999983
 30
0.0
 11
35.1208268000000103
 21
-20.4275993999999983
 31
0.0
  0
ARC
  5
A5
100
AcDbEntity
  8
0
 62
7
420
16777215
370
-1
 48
1.0
  6
BYLAYER
100
AcDbCircle
 10
38.9808274000000239
 20
-18.9275999999999982
 30
0.0
 40
1.5000001999999999
100
AcDbArc
 50
269.9999970000000076
 51
0.0
  0
LINE
  5
A6
100
AcDbEntity
100
AcDbLine
  8
0
 62
7
420
16777215
370
-1
 48
1.0
  6
BYLAYER
 10
40.4808274000000239
 20
-18.9275999999999982
 30
0.0
 11
40.4808274000000239
 21
-15.0675993999999989
 31
0.0
  0
LINE
  5
A7
100
AcDbEntity
100
AcDbLine
  8
0
 62
7
420
16777215
370
-1
 48
1.0
  6
BYLAYER
 10
40.4808274000000239
 20
-15.0675993999999989
 30
0.0
 11
38.6808274000000125
 21
-13.2675994000000017
 31
0.0
  0
LINE
  5
A8
100
AcDbEntity
100
AcDbLine
  8
0
 62
7
420
16777215
370
-1
 48
1.0
  6
BYLAYER
 10
38.6808274000000125
 20
-15.9269393999999984
 30
0.0
 11
38.6808274000000125
 21
-13.2675994000000017
 31
0.0
  0
LINE
  5
A9
100
AcDbEntity
100
AcDbLine
  8
0
 62
7
420
16777215
370
-1
 48
1.0
  6
BYLAYER
 10
38.6808274000000125
 20
-15.9269393999999984
 30
0.0
 11
37.0408280000000119
 21
-15.9269393999999984
 31
0.0
  0
LINE
  5
AA
100
AcDbEntity
100
AcDbLine
  8
0
 62
7
420
16777215
370
-1
 48
1.0
  6
BYLAYER
 10
37.0408280000000119
 20
-15.9269393999999984
 30
0.0
 11
34.3814866000000166
 21
-13.2675994000000017
 31
0.0
  0
LINE
  5
AB
100
AcDbEntity
100
AcDbLine
  8
0
 62
7
420
16777215
370
-1
 48
1.0
  6
BYLAYER
 10
34.3814866000000166
 20
-13.2675994000000017
 30
0.0
 11
34.3814866000000166
 21
-10.6275985999999989
 31
0.0
  0
LINE
  5
AC
100
AcDbEntity
100
AcDbLine
  8
0
 62
7
420
16777215
370
-1
 48
1.0
  6
BYLAYER
 10
34.3814866000000166
 20
-10.6275985999999989
 30
0.0
 11
34.1814866000000137
 21
-10.4275985999999996
 31
0.0
  0
LINE
  5
AD
100
AcDbEntity
100
AcDbLine
  8
0
 62
7
420
16777215
370
-1
 48
1.0
  6
BYLAYER
 10
34.3814866000000166
 20
-10.2275986000000003
 30
0.0
 11
34.1814866000000137
 21
-10.4275985999999996
 31
0.0
  0
LINE
  5
AE
100
AcDbEntity
100
AcDbLine
  8
0
 62
7
420
16777215
370
-1
 48
1.0
  6
BYLAYER
 10
34.3814866000000166
 20
-7.5875975999999987
 30
0.0
 11
34.3814866000000166
 21
-10.2275986000000003
 31
0.0
  0
LINE
  5
AF
100
AcDbEntity
100
AcDbLine
  8
0
 62
7
420
16777215
370
-1
 48
1.0
  6
BYLAYER
 10
37.0408280000000119
 20
-4.9282591999999994
 30
0.0
 11
34.3814866000000166
 21
-7.5875975999999987
 31
0.0
  0
LINE
  5
B0
100
AcDbEntity
100
AcDbLine
  8
0
 62
7
420
16777215
370
-1
 48
1.0
  6
BYLAYER
 10
38.6808274000000125
 20
-4.9282591999999994
 30
0.0
 11
37.0408280000000119
 21
-4.9282591999999994
 31
0.0
  0
LINE
  5
B1
100
AcDbEntity
100
AcDbLine
  8
0
 62
7
420
16777215
370
-1
 48
1.0
  6
BYLAYER
 10
38.6808274000000125
 20
-4.9282591999999994
 30
0.0
 11
38.6808274000000125
 21
-7.5875975999999987
 31
0.0
  0
LINE
  5
B2
100
AcDbEntity
100
AcDbLine
  8
0
 62
7
420
16777215
370
-1
 48
1.0
  6
BYLAYER
 10
40.4808274000000239
 20
-5.7875976000000016
 30
0.0
 11
38.6808274000000125
 21
-7.5875975999999987
 31
0.0
  0
LINE
  5
B3
100
AcDbEntity
100
AcDbLine
  8
0
 62
7
420
16777215
370
-1
 48
1.0
  6
BYLAYER
 10
40.4808274000000239
 20
-1.9275969999999987
 30
0.0
 11
40.4808274000000239
 21
-5.7875976000000016
 31
0.0
  0
ARC
  5
B4
100
AcDbEntity
  8
0
 62
7
420
16777215
370
-1
 48
1.0
  6
BYLAYER
100
AcDbCircle
 10
38.9808274000000239
 20
-1.9275969999999987
 30
0.0
 40
1.5000001999999999
100
AcDbArc
 50
0.0
 51
90.0000030000000066
  0
LINE
  5
B5
100
AcDbEntity
100
AcDbLine
  8
0
 62
7
420
16777215
370
-1
 48
1.0
  6
BYLAYER
 10
38.9808274000000239
 20
-0.4275969999999987
 30
0.0
 11
35.1208268000000103
 21
-0.4275969999999987
 31
0.0
  0
LINE
  5
B6
100
AcDbEntity
100
AcDbLine
  8
0
 62
7
420
16777215
370
-1
 48
1.0
  6
BYLAYER
 10
35.1208268000000103
 20
-0.4275969999999987
 30
0.0
 11
33.3208268000000132
 21
-2.2275969999999994
 31
0.0
  0
LINE
  5
B7
100
AcDbEntity
100
AcDbLine
  8
0
 62
7
420
16777215
370
-1
 48
1.0
  6
BYLAYER
 10
33.3208268000000132
 20
-2.2275969999999994
 30
0.0
 11
35.9801682000000085
 21
-2.2275969999999994
 31
0.0
  0
LINE
  5
B8
100
AcDbEntity
100
AcDbLine
  8
0
 62
7
420
16777215
370
-1
 48
1.0
  6
BYLAYER
 10
35.9801682000000085
 20
-2.2275969999999994
 30
0.0
 11
35.9801682000000085
 21
-3.8675993999999996
 31
0.0
  0
LINE
  5
B9
100
AcDbEntity
100
AcDbLine
  8
0
 62
7
420
16777215
370
-1
 48
1.0
  6
BYLAYER
 10
35.9801682000000085
 20
-3.8675993999999996
 30
0.0
 11
33.3208268000000132
 21
-6.5269377999999989
 31
0.0
  0
LINE
  5
BA
100
AcDbEntity
100
AcDbLine
  8
0
 62
7
420
16777215
370
-1
 48
1.0
  6
BYLAYER
 10
30.6808274000000125
 20
-6.5269377999999989
 30
0.0
 11
33.3208268000000132
 21
-6.5269377999999989
 31
0.0
  0
LINE
  5
BB
100
AcDbEntity
100
AcDbLine
  8
0
 62
7
420
16777215
370
-1
 48
1.0
  6
BYLAYER
 10
30.6808274000000125
 20
-6.5269377999999989
 30
0.0
 11
30.4808274000000239
 21
-6.7269378000000017
 31
0.0
  0
LINE
  5
BC
100
AcDbEntity
100
AcDbLine
  8
0
 62
7
420
16777215
370
-1
 48
1.0
  6
BYLAYER
 10
30.2808274000000068
 20
-6.5269377999999989
 30
0.0
 11
30.4808274000000239
 21
-6.7269378000000017
 31
0.0
  0
LINE
  5
BD
100
AcDbEntity
100
AcDbLine
  8
0
 62
7
420
16777215
370
-1
 48
1.0
  6
BYLAYER
 10
30.2808274000000068
 20
-6.5269377999999989
 30
0.0
 11
27.6408264000000088
 21
-6.5269377999999989
 31
0.0
  0
LINE
  5
BE
100
AcDbEntity
100
AcDbLine
  8
0
 62
7
420
16777215
370
-1
 48
1.0
  6
BYLAYER
 10
24.9814866000000109
 20
-3.8675993999999996
 30
0.0
 11
27.6408264000000088
 21
-6.5269377999999989
 31
0.0
  0
LINE
  5
BF
100
AcDbEntity
100
AcDbLine
  8
0
 62
7
420
16777215
370
-1
 48
1.0
  6
BYLAYER
 10
24.9814866000000109
 20
-2.2275969999999994
 30
0.0
 11
24.9814866000000109
 21
-3.8675993999999996
 31
0.0
  0
LINE
  5
C0
100
AcDbEntity
100
AcDbLine
  8
0
 62
7
420
16777215
370
-1
 48
1.0
  6
BYLAYER
 10
27.6408264000000088
 20
-2.2275969999999994
 30
0.0
 11
24.9814866000000109
 21
-2.2275969999999994
 31
0.0
  0
LINE
  5
C1
100
AcDbEntity
100
AcDbLine
  8
0
 62
7
420
16777215
370
-1
 48
1.0
  6
BYLAYER
 10
25.8408264000000116
 20
-0.4275969999999987
 30
0.0
 11
27.6408264000000088
 21
-2.2275969999999994
 31
0.0
  0
CIRCLE
  5
C2
100
AcDbEntity
100
AcDbCircle
  8
0
 62
7
420
16777215
370
-1
 48
1.0
  6
BYLAYER
 10
30.4808274000000239
 20
-10.4275985999999996
 30
0.0
 40
2.1000002000000002
  0
LINE
  5
C3
100
AcDbEntity
100
AcDbLine
  8
0
 62
256
370
-1
 48
1.0
  6
BYLAYER
 10
17.0408264000000003
 20
-4.9282591999999994
 30
0.0
 11
17.0408264000000003
 21
-4.0
 31
0.0
  0
LINE
  5
C4
100
AcDbEntity
100
AcDbLine
  8
0
 62
256
370
-1
 48
1.0
  6
BYLAYER
 10
23.9208268000000146
 20
-4.9282591999999994
 30
0.0
 11
23.9208268000000146
 21
-2.2275969999999958
 31
0.0
  0
LINE
  5
C5
100
AcDbEntity
100
AcDbLine
  8
0
 62
256
370
-1
 48
1.0
  6
BYLAYER
 10
23.9208268000000146
 20
-15.9269393999999984
 30
0.0
 11
23.9208268000000146
 21
-18.6275985999999989
 31
0.0
  0
LINE
  5
C6
100
AcDbEntity
100
AcDbLine
  8
0
 62
256
370
-1
 48
1.0
  6
BYLAYER
 10
17.0408264000000003
 20
-15.9269393999999984
 30
0.0
 11
17.0408264000000003
 21
-18.6275985999999989
 31
0.0
  0
LINE
  5
C7
100
AcDbEntity
100
AcDbLine
  8
0
 62
256
370
-1
 48
1.0
  6
BYLAYER
 10
17.0408264000000003
 20
-2.2275969999999958
 30
0.0
 11
17.0408264000000003
 21
-4.9282592000000029
 31
0.0
  0
LINE
  5
C8
100
AcDbEntity
100
AcDbLine
  8
0
 62
256
370
-1
 48
1.0
  6
BYLAYER
 10
23.9208268000000146
 20
-2.2275969999999994
 30
0.0
 11
17.0408264000000003
 21
-2.2275969999999994
 31
0.0
  0
LINE
  5
C9
100
AcDbEntity
100
AcDbLine
  8
0
 62
256
370
-1
 48
1.0
  6
BYLAYER
 10
17.0408264000000003
 20
-18.6275985999999989
 30
0.0
 11
23.9208268000000075
 21
-18.6275985999999989
 31
0.0
  0
ENDBLK
  5
CA
100
AcDbEntity
  8
0
100
AcDbBlockEnd
  0
BLOCK
  5
CB
100
AcDbEntity
  8
0
100
AcDbBlockBegin
  2
block 4
 70
0
 10
0.0
 20
0.0
 30
0.0
  3
block 4
  1

  0
ARC
  5
CC
100
AcDbEntity
  8
0
 62
7
420
16777215
370
-1
 48
1.0
  6
BYLAYER
100
AcDbCircle
 10
-80.2998982550471254
 20
-6.5410282833811664
 30
0.0
 40
1.5000001999999999
100
AcDbArc
 50
90.0000030000000066
 51
180.0000050000001011
  0
LINE
  5
CD
100
AcDbEntity
100
AcDbLine
  8
0
 62
7
420
16777215
370
-1
 48
1.0
  6
BYLAYER
 10
-40.2998950550471022
 20
-5.0410282833811486
 30
0.0
 11
-47.1598956550471087
 21
-5.0410282833811664
 31
0.0
  0
LINE
  5
CE
100
AcDbEntity
100
AcDbLine
  8
0
 62
7
420
16777215
370
-1
 48
1.0
  6
BYLAYER
 10
-47.1598956550471087
 20
-5.0410282833811664
 30
0.0
 11
-48.95989565504712
 21
-6.8410282833811671
 31
0.0
  0
LINE
  5
CF
100
AcDbEntity
100
AcDbLine
  8
0
 62
7
420
16777215
370
-1
 48
1.0
  6
BYLAYER
 10
-81.7998982550471254
 20
-6.5410282833811664
 30
0.0
 11
-81.7998982550471254
 21
-10.4010288833811693
 31
0.0
  0
LINE
  5
D0
100
AcDbEntity
100
AcDbLine
  8
0
 62
7
420
16777215
370
-1
 48
1.0
  6
BYLAYER
 10
-48.95989565504712
 20
-6.8410282833811671
 30
0.0
 11
-46.3005542550471176
 21
-6.8410282833811671
 31
0.0
  0
LINE
  5
D1
100
AcDbEntity
100
AcDbLine
  8
0
 62
7
420
16777215
370
-1
 48
1.0
  6
BYLAYER
 10
-81.7998982550471254
 20
-10.4010288833811693
 30
0.0
 11
-79.9998966550471238
 21
-12.2010288833811664
 31
0.0
  0
LINE
  5
D2
100
AcDbEntity
100
AcDbLine
  8
0
 62
7
420
16777215
370
-1
 48
1.0
  6
BYLAYER
 10
-46.3005542550471176
 20
-6.8410282833811671
 30
0.0
 11
-46.3005542550471176
 21
-8.4810306833811673
 31
0.0
  0
LINE
  5
D3
100
AcDbEntity
100
AcDbLine
  8
0
 62
7
420
16777215
370
-1
 48
1.0
  6
BYLAYER
 10
-79.9998966550471238
 20
-9.5416904833811671
 30
0.0
 11
-79.9998966550471238
 21
-12.2010288833811664
 31
0.0
  0
LINE
  5
D4
100
AcDbEntity
100
AcDbLine
  8
0
 62
7
420
16777215
370
-1
 48
1.0
  6
BYLAYER
 10
-79.9998966550471238
 20
-9.5416904833811671
 30
0.0
 11
-78.3598972550471302
 21
-9.5416904833811671
 31
0.0
  0
LINE
  5
D5
100
AcDbEntity
100
AcDbLine
  8
0
 62
7
420
16777215
370
-1
 48
1.0
  6
BYLAYER
 10
-46.3005542550471176
 20
-8.4810306833811673
 30
0.0
 11
-48.95989565504712
 21
-11.1403690833811666
 31
0.0
  0
LINE
  5
D6
100
AcDbEntity
100
AcDbLine
  8
0
 62
7
420
16777215
370
-1
 48
1.0
  6
BYLAYER
 10
-78.3598972550471302
 20
-9.5416904833811671
 30
0.0
 11
-75.70055725504713
 21
-12.2010288833811664
 31
0.0
  0
LINE
  5
D7
100
AcDbEntity
100
AcDbLine
  8
0
 62
7
420
16777215
370
-1
 48
1.0
  6
BYLAYER
 10
-51.5998950550471136
 20
-11.1403690833811666
 30
0.0
 11
-48.95989565504712
 21
-11.1403690833811666
 31
0.0
  0
LINE
  5
D8
100
AcDbEntity
100
AcDbLine
  8
0
 62
7
420
16777215
370
-1
 48
1.0
  6
BYLAYER
 10
-75.70055725504713
 20
-12.2010288833811664
 30
0.0
 11
-75.70055725504713
 21
-14.841029883381168
 31
0.0
  0
LINE
  5
D9
100
AcDbEntity
100
AcDbLine
  8
0
 62
7
420
16777215
370
-1
 48
1.0
  6
BYLAYER
 10
-51.5998950550471136
 20
-11.1403690833811666
 30
0.0
 11
-51.7998950550471022
 21
-11.3403690833811694
 31
0.0
  0
LINE
  5
DA
100
AcDbEntity
100
AcDbLine
  8
0
 62
7
420
16777215
370
-1
 48
1.0
  6
BYLAYER
 10
-75.70055725504713
 20
-14.841029883381168
 30
0.0
 11
-75.5005572550471271
 21
-15.0410298833811673
 31
0.0
  0
LINE
  5
DB
100
AcDbEntity
100
AcDbLine
  8
0
 62
7
420
16777215
370
-1
 48
1.0
  6
BYLAYER
 10
-51.9998950550471193
 20
-11.1403690833811666
 30
0.0
 11
-51.7998950550471022
 21
-11.3403690833811694
 31
0.0
  0
LINE
  5
DC
100
AcDbEntity
100
AcDbLine
  8
0
 62
7
420
16777215
370
-1
 48
1.0
  6
BYLAYER
 10
-75.70055725504713
 20
-15.2410298833811666
 30
0.0
 11
-75.5005572550471271
 21
-15.0410298833811673
 31
0.0
  0
LINE
  5
DD
100
AcDbEntity
100
AcDbLine
  8
0
 62
7
420
16777215
370
-1
 48
1.0
  6
BYLAYER
 10
-51.9998950550471193
 20
-11.1403690833811666
 30
0.0
 11
-54.6398960550471173
 21
-11.1403690833811666
 31
0.0
  0
LINE
  5
DE
100
AcDbEntity
100
AcDbLine
  8
0
 62
7
420
16777215
370
-1
 48
1.0
  6
BYLAYER
 10
-75.70055725504713
 20
-17.8810306833811694
 30
0.0
 11
-75.70055725504713
 21
-15.2410298833811666
 31
0.0
  0
LINE
  5
DF
100
AcDbEntity
100
AcDbLine
  8
0
 62
7
420
16777215
370
-1
 48
1.0
  6
BYLAYER
 10
-57.2992358550471153
 20
-8.4810306833811673
 30
0.0
 11
-54.6398960550471173
 21
-11.1403690833811666
 31
0.0
  0
LINE
  5
E0
100
AcDbEntity
100
AcDbLine
  8
0
 62
7
420
16777215
370
-1
 48
1.0
  6
BYLAYER
 10
-78.3598972550471302
 20
-20.5403706833811661
 30
0.0
 11
-75.70055725504713
 21
-17.8810306833811694
 31
0.0
  0
LINE
  5
E1
100
AcDbEntity
100
AcDbLine
  8
0
 62
7
420
16777215
370
-1
 48
1.0
  6
BYLAYER
 10
-57.2992358550471153
 20
-6.8410282833811671
 30
0.0
 11
-57.2992358550471153
 21
-8.4810306833811673
 31
0.0
  0
LINE
  5
E2
100
AcDbEntity
100
AcDbLine
  8
0
 62
7
420
16777215
370
-1
 48
1.0
  6
BYLAYER
 10
-79.9998966550471238
 20
-20.5403706833811661
 30
0.0
 11
-78.3598972550471302
 21
-20.5403706833811661
 31
0.0
  0
LINE
  5
E3
100
AcDbEntity
100
AcDbLine
  8
0
 62
7
420
16777215
370
-1
 48
1.0
  6
BYLAYER
 10
-54.6398960550471173
 20
-6.8410282833811671
 30
0.0
 11
-57.2992358550471153
 21
-6.8410282833811671
 31
0.0
  0
LINE
  5
E4
100
AcDbEntity
100
AcDbLine
  8
0
 62
7
420
16777215
370
-1
 48
1.0
  6
BYLAYER
 10
-79.9998966550471238
 20
-20.5403706833811661
 30
0.0
 11
-79.9998966550471238
 21
-17.8810306833811694
 31
0.0
  0
LINE
  5
E5
100
AcDbEntity
100
AcDbLine
  8
0
 62
7
420
16777215
370
-1
 48
1.0
  6
BYLAYER
 10
-56.4398960550471145
 20
-5.0410282833811664
 30
0.0
 11
-54.6398960550471173
 21
-6.8410282833811671
 31
0.0
  0
LINE
  5
E6
100
AcDbEntity
100
AcDbLine
  8
0
 62
7
420
16777215
370
-1
 48
1.0
  6
BYLAYER
 10
-81.7998982550471254
 20
-19.6810306833811666
 30
0.0
 11
-79.9998966550471238
 21
-17.8810306833811694
 31
0.0
  0
LINE
  5
E7
100
AcDbEntity
100
AcDbLine
  8
0
 62
7
420
16777215
370
-1
 48
1.0
  6
BYLAYER
 10
-81.7998982550471254
 20
-23.5410312833811659
 30
0.0
 11
-81.7998982550471254
 21
-19.6810306833811666
 31
0.0
  0
CIRCLE
  5
E8
100
AcDbEntity
100
AcDbCircle
  8
0
 62
7
420
16777215
370
-1
 48
1.0
  6
BYLAYER
 10
-51.7998950550471022
 20
-15.0410298833811673
 30
0.0
 40
2.1000002000000002
  0
ARC
  5
E9
100
AcDbEntity
  8
0
 62
7
420
16777215
370
-1
 48
1.0
  6
BYLAYER
100
AcDbCircle
 10
-80.2998982550471254
 20
-23.5410312833811659
 30
0.0
 40
1.5000001999999999
100
AcDbArc
 50
180.0000049999999874
 51
269.9999970000000076
  0
LINE
  5
EA
100
AcDbEntity
100
AcDbLine
  8
0
 62
7
420
16777215
370
-1
 48
1.0
  6
BYLAYER
 10
-80.2998982550471254
 20
-25.041030683381166
 30
0.0
 11
-76.4398976550471332
 21
-25.041030683381166
 31
0.0
  0
LINE
  5
EB
100
AcDbEntity
100
AcDbLine
  8
0
 62
7
420
16777215
370
-1
 48
1.0
  6
BYLAYER
 10
-76.4398976550471332
 20
-25.041030683381166
 30
0.0
 11
-74.6398976550471218
 21
-23.2410298833811666
 31
0.0
  0
LINE
  5
EC
100
AcDbEntity
100
AcDbLine
  8
0
 62
7
420
16777215
370
-1
 48
1.0
  6
BYLAYER
 10
-74.6398976550471218
 20
-23.2410298833811666
 30
0.0
 11
-77.2992374550471197
 21
-23.2410298833811666
 31
0.0
  0
LINE
  5
ED
100
AcDbEntity
100
AcDbLine
  8
0
 62
256
370
-1
 48
1.0
  6
BYLAYER
 10
-65.2398960550471259
 20
-9.5416904833811671
 30
0.0
 11
-65.2398960550471259
 21
-8.6134312833811677
 31
0.0
  0
LINE
  5
EE
100
AcDbEntity
100
AcDbLine
  8
0
 62
7
420
16777215
370
-1
 48
1.0
  6
BYLAYER
 10
-77.2992374550471197
 20
-23.2410298833811666
 30
0.0
 11
-77.2992374550471197
 21
-21.6010304833811659
 31
0.0
  0
LINE
  5
EF
100
AcDbEntity
100
AcDbLine
  8
0
 62
256
370
-1
 48
1.0
  6
BYLAYER
 10
-58.3598956550471115
 20
-9.5416904833811671
 30
0.0
 11
-58.3598956550471115
 21
-6.8410282833811635
 31
0.0
  0
LINE
  5
F0
100
AcDbEntity
100
AcDbLine
  8
0
 62
7
420
16777215
370
-1
 48
1.0
  6
BYLAYER
 10
-77.2992374550471197
 20
-21.6010304833811659
 30
0.0
 11
-74.6398976550471218
 21
-18.9416904833811692
 31
0.0
  0
LINE
  5
F1
100
AcDbEntity
100
AcDbLine
  8
0
 62
256
370
-1
 48
1.0
  6
BYLAYER
 10
-58.3598956550471115
 20
-20.5403706833811661
 30
0.0
 11
-58.3598956550471115
 21
-23.2410298833811666
 31
0.0
  0
LINE
  5
F2
100
AcDbEntity
100
AcDbLine
  8
0
 62
256
370
-1
 48
1.0
  6
BYLAYER
 10
-65.2398960550471259
 20
-20.5403706833811661
 30
0.0
 11
-65.2398960550471259
 21
-23.2410298833811666
 31
0.0
  0
LINE
  5
F3
100
AcDbEntity
100
AcDbLine
  8
0
 62
7
420
16777215
370
-1
 48
1.0
  6
BYLAYER
 10
-71.9998966550471238
 20
-18.9416904833811692
 30
0.0
 11
-74.6398976550471218
 21
-18.9416904833811692
 31
0.0
  0
LINE
  5
F4
100
AcDbEntity
100
AcDbLine
  8
0
 62
256
370
-1
 48
1.0
  6
BYLAYER
 10
-65.2398960550471259
 20
-6.8410282833811635
 30
0.0
 11
-65.2398960550471259
 21
-9.5416904833811707
 31
0.0
  0
LINE
  5
F5
100
AcDbEntity
100
AcDbLine
  8
0
 62
7
420
16777215
370
-1
 48
1.0
  6
BYLAYER
 10
-71.9998966550471238
 20
-18.9416904833811692
 30
0.0
 11
-71.7998966550471209
 21
-18.7416904833811664
 31
0.0
  0
LINE
  5
F6
100
AcDbEntity
100
AcDbLine
  8
0
 62
7
420
16777215
370
-1
 48
1.0
  6
BYLAYER
 10
-71.5998966550471323
 20
-18.9416904833811692
 30
0.0
 11
-71.7998966550471209
 21
-18.7416904833811664
 31
0.0
  0
LINE
  5
F7
100
AcDbEntity
100
AcDbLine
  8
0
 62
256
370
-1
 48
1.0
  6
BYLAYER
 10
-58.3598956550471115
 20
-6.8410282833811671
 30
0.0
 11
-65.2398960550471259
 21
-6.8410282833811671
 31
0.0
  0
LINE
  5
F8
100
AcDbEntity
100
AcDbLine
  8
0
 62
7
420
16777215
370
-1
 48
1.0
  6
BYLAYER
 10
-71.5998966550471323
 20
-18.9416904833811692
 30
0.0
 11
-68.9598972550471245
 21
-18.9416904833811692
 31
0.0
  0
LINE
  5
F9
100
AcDbEntity
100
AcDbLine
  8
0
 62
7
420
16777215
370
-1
 48
1.0
  6
BYLAYER
 10
-66.3005558550471221
 20
-21.6010304833811659
 30
0.0
 11
-68.9598972550471245
 21
-18.9416904833811692
 31
0.0
  0
LINE
  5
FA
100
AcDbEntity
100
AcDbLine
  8
0
 62
256
370
-1
 48
1.0
  6
BYLAYER
 10
-65.2398960550471259
 20
-23.2410298833811666
 30
0.0
 11
-58.3598956550471257
 21
-23.2410298833811666
 31
0.0
  0
LINE
  5
FB
100
AcDbEntity
100
AcDbLine
  8
0
 62
7
420
16777215
370
-1
 48
1.0
  6
BYLAYER
 10
-66.3005558550471221
 20
-23.2410298833811666
 30
0.0
 11
-66.3005558550471221
 21
-21.6010304833811659
 31
0.0
  0
LINE
  5
FC
100
AcDbEntity
100
AcDbLine
  8
0
 62
7
420
16777215
370
-1
 48
1.0
  6
BYLAYER
 10
-68.9598972550471245
 20
-23.2410298833811666
 30
0.0
 11
-66.3005558550471221
 21
-23.2410298833811666
 31
0.0
  0
LINE
  5
FD
100
AcDbEntity
100
AcDbLine
  8
0
 62
7
420
16777215
370
-1
 48
1.0
  6
BYLAYER
 10
-67.1598972550471274
 20
-25.041030683381166
 30
0.0
 11
-68.9598972550471245
 21
-23.2410298833811666
 31
0.0
  0
LINE
  5
FE
100
AcDbEntity
100
AcDbLine
  8
0
 62
7
420
16777215
370
-1
 48
1.0
  6
BYLAYER
 10
-56.4398960550471145
 20
-25.041030683381166
 30
0.0
 11
-67.1598972550471274
 21
-25.041030683381166
 31
0.0
  0
LINE
  5
FF
100
AcDbEntity
100
AcDbLine
  8
0
 62
7
420
16777215
370
-1
 48
1.0
  6
BYLAYER
 10
-65.2398960550471259
 20
-20.5403706833811661
 30
0.0
 11
-67.8992374550471283
 21
-17.8810306833811694
 31
0.0
  0
LINE
  5
100
100
AcDbEntity
100
AcDbLine
  8
0
 62
7
420
16777215
370
-1
 48
1.0
  6
BYLAYER
 10
-67.8992374550471283
 20
-17.8810306833811694
 30
0.0
 11
-67.8992374550471283
 21
-15.2410298833811666
 31
0.0
  0
LINE
  5
101
100
AcDbEntity
100
AcDbLine
  8
0
 62
7
420
16777215
370
-1
 48
1.0
  6
BYLAYER
 10
-67.8992374550471283
 20
-15.2410298833811666
 30
0.0
 11
-68.0992374550471311
 21
-15.0410298833811673
 31
0.0
  0
LINE
  5
102
100
AcDbEntity
100
AcDbLine
  8
0
 62
7
420
16777215
370
-1
 48
1.0
  6
BYLAYER
 10
-67.8992374550471283
 20
-14.841029883381168
 30
0.0
 11
-68.0992374550471311
 21
-15.0410298833811673
 31
0.0
  0
LINE
  5
103
100
AcDbEntity
100
AcDbLine
  8
0
 62
7
420
16777215
370
-1
 48
1.0
  6
BYLAYER
 10
-67.8992374550471283
 20
-12.2010288833811664
 30
0.0
 11
-67.8992374550471283
 21
-14.841029883381168
 31
0.0
  0
LINE
  5
104
100
AcDbEntity
100
AcDbLine
  8
0
 62
7
420
16777215
370
-1
 48
1.0
  6
BYLAYER
 10
-65.2398960550471259
 20
-9.5416904833811671
 30
0.0
 11
-67.8992374550471283
 21
-12.2010288833811664
 31
0.0
  0
LINE
  5
105
100
AcDbEntity
100
AcDbLine
  8
0
 62
7
420
16777215
370
-1
 48
1.0
  6
BYLAYER
 10
-56.4398960550471145
 20
-5.0410282833811664
 30
0.0
 11
-67.1598972550471274
 21
-5.0410282833811664
 31
0.0
  0
LINE
  5
106
100
AcDbEntity
100
AcDbLine
  8
0
 62
7
420
16777215
370
-1
 48
1.0
  6
BYLAYER
 10
-67.1598972550471274
 20
-5.0410282833811664
 30
0.0
 11
-68.9598972550471245
 21
-6.8410282833811671
 31
0.0
  0
LINE
  5
107
100
AcDbEntity
100
AcDbLine
  8
0
 62
7
420
16777215
370
-1
 48
1.0
  6
BYLAYER
 10
-68.9598972550471245
 20
-6.8410282833811671
 30
0.0
 11
-66.3005558550471221
 21
-6.8410282833811671
 31
0.0
  0
LINE
  5
108
100
AcDbEntity
100
AcDbLine
  8
0
 62
7
420
16777215
370
-1
 48
1.0
  6
BYLAYER
 10
-66.3005558550471221
 20
-6.8410282833811671
 30
0.0
 11
-66.3005558550471221
 21
-8.4810306833811673
 31
0.0
  0
LINE
  5
109
100
AcDbEntity
100
AcDbLine
  8
0
 62
7
420
16777215
370
-1
 48
1.0
  6
BYLAYER
 10
-66.3005558550471221
 20
-8.4810306833811673
 30
0.0
 11
-68.9598972550471245
 21
-11.1403690833811666
 31
0.0
  0
LINE
  5
10A
100
AcDbEntity
100
AcDbLine
  8
0
 62
7
420
16777215
370
-1
 48
1.0
  6
BYLAYER
 10
-71.5998966550471323
 20
-11.1403690833811666
 30
0.0
 11
-68.9598972550471245
 21
-11.1403690833811666
 31
0.0
  0
LINE
  5
10B
100
AcDbEntity
100
AcDbLine
  8
0
 62
7
420
16777215
370
-1
 48
1.0
  6
BYLAYER
 10
-71.5998966550471323
 20
-11.1403690833811666
 30
0.0
 11
-71.7998966550471209
 21
-11.3403690833811694
 31
0.0
  0
LINE
  5
10C
100
AcDbEntity
100
AcDbLine
  8
0
 62
7
420
16777215
370
-1
 48
1.0
  6
BYLAYER
 10
-71.9998966550471238
 20
-11.1403690833811666
 30
0.0
 11
-71.7998966550471209
 21
-11.3403690833811694
 31
0.0
  0
LINE
  5
10D
100
AcDbEntity
100
AcDbLine
  8
0
 62
7
420
16777215
370
-1
 48
1.0
  6
BYLAYER
 10
-71.9998966550471238
 20
-11.1403690833811666
 30
0.0
 11
-74.6398976550471218
 21
-11.1403690833811666
 31
0.0
  0
LINE
  5
10E
100
AcDbEntity
100
AcDbLine
  8
0
 62
7
420
16777215
370
-1
 48
1.0
  6
BYLAYER
 10
-77.2992374550471197
 20
-8.4810306833811673
 30
0.0
 11
-74.6398976550471218
 21
-11.1403690833811666
 31
0.0
  0
LINE
  5
10F
100
AcDbEntity
100
AcDbLine
  8
0
 62
7
420
16777215
370
-1
 48
1.0
  6
BYLAYER
 10
-77.2992374550471197
 20
-6.8410282833811671
 30
0.0
 11
-77.2992374550471197
 21
-8.4810306833811673
 31
0.0
  0
LINE
  5
110
100
AcDbEntity
100
AcDbLine
  8
0
 62
7
420
16777215
370
-1
 48
1.0
  6
BYLAYER
 10
-74.6398976550471218
 20
-6.8410282833811671
 30
0.0
 11
-77.2992374550471197
 21
-6.8410282833811671
 31
0.0
  0
LINE
  5
111
100
AcDbEntity
100
AcDbLine
  8
0
 62
7
420
16777215
370
-1
 48
1.0
  6
BYLAYER
 10
-76.4398976550471332
 20
-5.0410282833811664
 30
0.0
 11
-74.6398976550471218
 21
-6.8410282833811671
 31
0.0
  0
LINE
  5
112
100
AcDbEntity
100
AcDbLine
  8
0
 62
7
420
16777215
370
-1
 48
1.0
  6
BYLAYER
 10
-80.2998982550471254
 20
-5.0410282833811664
 30
0.0
 11
-76.4398976550471332
 21
-5.0410282833811664
 31
0.0
  0
CIRCLE
  5
113
100
AcDbEntity
100
AcDbCircle
  8
0
 62
7
420
16777215
370
-1
 48
1.0
  6
BYLAYER
 10
-71.7998966550471209
 20
-15.0410298833811673
 30
0.0
 40
2.1000002000000002
  0
LINE
  5
114
100
AcDbEntity
100
AcDbLine
  8
0
 62
7
420
16777215
370
-1
 48
1.0
  6
BYLAYER
 10
-58.3598956550471115
 20
-9.5416904833811671
 30
0.0
 11
-55.7005556550471113
 21
-12.2010288833811664
 31
0.0
  0
LINE
  5
115
100
AcDbEntity
100
AcDbLine
  8
0
 62
7
420
16777215
370
-1
 48
1.0
  6
BYLAYER
 10
-55.7005556550471113
 20
-12.2010288833811664
 30
0.0
 11
-55.7005556550471113
 21
-14.841029883381168
 31
0.0
  0
LINE
  5
116
100
AcDbEntity
100
AcDbLine
  8
0
 62
7
420
16777215
370
-1
 48
1.0
  6
BYLAYER
 10
-55.7005556550471113
 20
-14.841029883381168
 30
0.0
 11
-55.5005556550471226
 21
-15.0410298833811673
 31
0.0
  0
LINE
  5
117
100
AcDbEntity
100
AcDbLine
  8
0
 62
7
420
16777215
370
-1
 48
1.0
  6
BYLAYER
 10
-55.7005556550471113
 20
-15.2410298833811666
 30
0.0
 11
-55.5005556550471226
 21
-15.0410298833811673
 31
0.0
  0
LINE
  5
118
100
AcDbEntity
100
AcDbLine
  8
0
 62
7
420
16777215
370
-1
 48
1.0
  6
BYLAYER
 10
-55.7005556550471113
 20
-17.8810306833811694
 30
0.0
 11
-55.7005556550471113
 21
-15.2410298833811666
 31
0.0
  0
LINE
  5
119
100
AcDbEntity
100
AcDbLine
  8
0
 62
7
420
16777215
370
-1
 48
1.0
  6
BYLAYER
 10
-58.3598956550471115
 20
-20.5403706833811661
 30
0.0
 11
-55.7005556550471113
 21
-17.8810306833811694
 31
0.0
  0
LINE
  5
11A
100
AcDbEntity
100
AcDbLine
  8
0
 62
7
420
16777215
370
-1
 48
1.0
  6
BYLAYER
 10
-56.4398960550471145
 20
-25.041030683381166
 30
0.0
 11
-54.6398960550471173
 21
-23.2410298833811666
 31
0.0
  0
LINE
  5
11B
100
AcDbEntity
100
AcDbLine
  8
0
 62
7
420
16777215
370
-1
 48
1.0
  6
BYLAYER
 10
-54.6398960550471173
 20
-23.2410298833811666
 30
0.0
 11
-57.2992358550471153
 21
-23.2410298833811666
 31
0.0
  0
LINE
  5
11C
100
AcDbEntity
100
AcDbLine
  8
0
 62
7
420
16777215
370
-1
 48
1.0
  6
BYLAYER
 10
-57.2992358550471153
 20
-23.2410298833811666
 30
0.0
 11
-57.2992358550471153
 21
-21.6010304833811659
 31
0.0
  0
LINE
  5
11D
100
AcDbEntity
100
AcDbLine
  8
0
 62
7
420
16777215
370
-1
 48
1.0
  6
BYLAYER
 10
-57.2992358550471153
 20
-21.6010304833811659
 30
0.0
 11
-54.6398960550471173
 21
-18.9416904833811692
 31
0.0
  0
LINE
  5
11E
100
AcDbEntity
100
AcDbLine
  8
0
 62
7
420
16777215
370
-1
 48
1.0
  6
BYLAYER
 10
-51.9998950550471193
 20
-18.9416904833811692
 30
0.0
 11
-54.6398960550471173
 21
-18.9416904833811692
 31
0.0
  0
LINE
  5
11F
100
AcDbEntity
100
AcDbLine
  8
0
 62
7
420
16777215
370
-1
 48
1.0
  6
BYLAYER
 10
-51.9998950550471193
 20
-18.9416904833811692
 30
0.0
 11
-51.7998950550471022
 21
-18.7416904833811664
 31
0.0
  0
LINE
  5
120
100
AcDbEntity
100
AcDbLine
  8
0
 62
7
420
16777215
370
-1
 48
1.0
  6
BYLAYER
 10
-51.5998950550471136
 20
-18.9416904833811692
 30
0.0
 11
-51.7998950550471022
 21
-18.7416904833811664
 31
0.0
  0
LINE
  5
121
100
AcDbEntity
100
AcDbLine
  8
0
 62
7
420
16777215
370
-1
 48
1.0
  6
BYLAYER
 10
-51.5998950550471136
 20
-18.9416904833811692
 30
0.0
 11
-48.95989565504712
 21
-18.9416904833811692
 31
0.0
  0
LINE
  5
122
100
AcDbEntity
100
AcDbLine
  8
0
 62
7
420
16777215
370
-1
 48
1.0
  6
BYLAYER
 10
-46.3005542550471176
 20
-21.6010304833811659
 30
0.0
 11
-48.95989565504712
 21
-18.9416904833811692
 31
0.0
  0
LINE
  5
123
100
AcDbEntity
100
AcDbLine
  8
0
 62
7
420
16777215
370
-1
 48
1.0
  6
BYLAYER
 10
-46.3005542550471176
 20
-23.2410298833811666
 30
0.0
 11
-46.3005542550471176
 21
-21.6010304833811659
 31
0.0
  0
LINE
  5
124
100
AcDbEntity
100
AcDbLine
  8
0
 62
7
420
16777215
370
-1
 48
1.0
  6
BYLAYER
 10
-48.95989565504712
 20
-23.2410298833811666
 30
0.0
 11
-46.3005542550471176
 21
-23.2410298833811666
 31
0.0
  0
LINE
  5
125
100
AcDbEntity
100
AcDbLine
  8
0
 62
7
420
16777215
370
-1
 48
1.0
  6
BYLAYER
 10
-47.1598956550471087
 20
-25.041030683381166
 30
0.0
 11
-48.95989565504712
 21
-23.2410298833811666
 31
0.0
  0
LINE
  5
126
100
AcDbEntity
100
AcDbLine
  8
0
 62
7
420
16777215
370
-1
 48
1.0
  6
BYLAYER
 10
-40.2998950550471022
 20
-25.0410306833811482
 30
0.0
 11
-47.1598956550471087
 21
-25.041030683381166
 31
0.0
  0
LINE
  5
127
100
AcDbEntity
100
AcDbLine
  8
0
 62
7
420
16777215
370
-1
 48
1.0
  6
BYLAYER
 10
-45.2398944550471072
 20
-20.5403706833811661
 30
0.0
 11
-47.8992358550471096
 21
-17.8810306833811694
 31
0.0
  0
LINE
  5
128
100
AcDbEntity
100
AcDbLine
  8
0
 62
7
420
16777215
370
-1
 48
1.0
  6
BYLAYER
 10
-47.8992358550471096
 20
-17.8810306833811694
 30
0.0
 11
-47.8992358550471096
 21
-15.2410298833811666
 31
0.0
  0
LINE
  5
129
100
AcDbEntity
100
AcDbLine
  8
0
 62
7
420
16777215
370
-1
 48
1.0
  6
BYLAYER
 10
-47.8992358550471096
 20
-15.2410298833811666
 30
0.0
 11
-48.0992358550471124
 21
-15.0410298833811673
 31
0.0
  0
LINE
  5
12A
100
AcDbEntity
100
AcDbLine
  8
0
 62
7
420
16777215
370
-1
 48
1.0
  6
BYLAYER
 10
-47.8992358550471096
 20
-14.841029883381168
 30
0.0
 11
-48.0992358550471124
 21
-15.0410298833811673
 31
0.0
  0
LINE
  5
12B
100
AcDbEntity
100
AcDbLine
  8
0
 62
7
420
16777215
370
-1
 48
1.0
  6
BYLAYER
 10
-47.8992358550471096
 20
-12.2010288833811664
 30
0.0
 11
-47.8992358550471096
 21
-14.841029883381168
 31
0.0
  0
LINE
  5
12C
100
AcDbEntity
100
AcDbLine
  8
0
 62
7
420
16777215
370
-1
 48
1.0
  6
BYLAYER
 10
-45.2398944550471072
 20
-9.5416904833811671
 30
0.0
 11
-47.8992358550471096
 21
-12.2010288833811664
 31
0.0
  0
LINE
  5
12D
100
AcDbEntity
100
AcDbLine
  8
0
 62
7
420
16777215
370
-1
 48
1.0
  6
BYLAYER
 10
-1.7998918550470648
 20
-6.5410282833811486
 30
0.0
 11
-1.7998918550470648
 21
-10.4010288833811515
 31
0.0
  0
ARC
  5
12E
100
AcDbEntity
  8
0
 62
7
420
16777215
370
-1
 48
1.0
  6
BYLAYER
100
AcDbCircle
 10
-3.299891855047079
 20
-6.5410282833811486
 30
0.0
 40
1.5000001999999999
100
AcDbArc
 50
0.0
 51
90.0000030000000066
  0
LINE
  5
12F
100
AcDbEntity
100
AcDbLine
  8
0
 62
7
420
16777215
370
-1
 48
1.0
  6
BYLAYER
 10
-3.299891855047079
 20
-5.0410282833811486
 30
0.0
 11
-7.1598924550470997
 21
-5.0410282833811486
 31
0.0
  0
LINE
  5
130
100
AcDbEntity
100
AcDbLine
  8
0
 62
7
420
16777215
370
-1
 48
1.0
  6
BYLAYER
 10
-7.1598924550470997
 20
-5.0410282833811486
 30
0.0
 11
-8.9598924550470826
 21
-6.8410282833811493
 31
0.0
  0
LINE
  5
131
100
AcDbEntity
100
AcDbLine
  8
0
 62
7
420
16777215
370
-1
 48
1.0
  6
BYLAYER
 10
-8.9598924550470826
 20
-6.8410282833811493
 30
0.0
 11
-6.3005510550470945
 21
-6.8410282833811493
 31
0.0
  0
LINE
  5
132
100
AcDbEntity
100
AcDbLine
  8
0
 62
7
420
16777215
370
-1
 48
1.0
  6
BYLAYER
 10
-6.3005510550470945
 20
-6.8410282833811493
 30
0.0
 11
-6.3005510550470945
 21
-8.4810306833811495
 31
0.0
  0
LINE
  5
133
100
AcDbEntity
100
AcDbLine
  8
0
 62
7
420
16777215
370
-1
 48
1.0
  6
BYLAYER
 10
-6.3005510550470945
 20
-8.4810306833811495
 30
0.0
 11
-8.9598924550470826
 21
-11.1403690833811488
 31
0.0
  0
LINE
  5
134
100
AcDbEntity
100
AcDbLine
  8
0
 62
7
420
16777215
370
-1
 48
1.0
  6
BYLAYER
 10
-38.359894055047107
 20
-9.5416904833811493
 30
0.0
 11
-35.7005540550471068
 21
-12.2010288833811487
 31
0.0
  0
LINE
  5
135
100
AcDbEntity
100
AcDbLine
  8
0
 62
7
420
16777215
370
-1
 48
1.0
  6
BYLAYER
 10
-11.5998918550470904
 20
-11.1403690833811488
 30
0.0
 11
-8.9598924550470826
 21
-11.1403690833811488
 31
0.0
  0
LINE
  5
136
100
AcDbEntity
100
AcDbLine
  8
0
 62
7
420
16777215
370
-1
 48
1.0
  6
BYLAYER
 10
-35.7005540550471068
 20
-12.2010288833811487
 30
0.0
 11
-35.7005540550471068
 21
-14.8410298833811503
 31
0.0
  0
LINE
  5
137
100
AcDbEntity
100
AcDbLine
  8
0
 62
7
420
16777215
370
-1
 48
1.0
  6
BYLAYER
 10
-11.5998918550470904
 20
-11.1403690833811488
 30
0.0
 11
-11.799891855047079
 21
-11.3403690833811517
 31
0.0
  0
LINE
  5
138
100
AcDbEntity
100
AcDbLine
  8
0
 62
7
420
16777215
370
-1
 48
1.0
  6
BYLAYER
 10
-35.7005540550471068
 20
-14.8410298833811503
 30
0.0
 11
-35.5005540550471039
 21
-15.0410298833811495
 31
0.0
  0
LINE
  5
139
100
AcDbEntity
100
AcDbLine
  8
0
 62
7
420
16777215
370
-1
 48
1.0
  6
BYLAYER
 10
-11.9998918550470961
 20
-11.1403690833811488
 30
0.0
 11
-11.799891855047079
 21
-11.3403690833811517
 31
0.0
  0
LINE
  5
13A
100
AcDbEntity
100
AcDbLine
  8
0
 62
7
420
16777215
370
-1
 48
1.0
  6
BYLAYER
 10
-35.7005540550471068
 20
-15.2410298833811488
 30
0.0
 11
-35.5005540550471039
 21
-15.0410298833811495
 31
0.0
  0
LINE
  5
13B
100
AcDbEntity
100
AcDbLine
  8
0
 62
7
420
16777215
370
-1
 48
1.0
  6
BYLAYER
 10
-11.9998918550470961
 20
-11.1403690833811488
 30
0.0
 11
-14.6398928550470941
 21
-11.1403690833811488
 31
0.0
  0
LINE
  5
13C
100
AcDbEntity
100
AcDbLine
  8
0
 62
7
420
16777215
370
-1
 48
1.0
  6
BYLAYER
 10
-35.7005540550471068
 20
-17.8810306833811516
 30
0.0
 11
-35.7005540550471068
 21
-15.2410298833811488
 31
0.0
  0
LINE
  5
13D
100
AcDbEntity
100
AcDbLine
  8
0
 62
7
420
16777215
370
-1
 48
1.0
  6
BYLAYER
 10
-17.2992326550470921
 20
-8.4810306833811495
 30
0.0
 11
-14.6398928550470941
 21
-11.1403690833811488
 31
0.0
  0
LINE
  5
13E
100
AcDbEntity
100
AcDbLine
  8
0
 62
7
420
16777215
370
-1
 48
1.0
  6
BYLAYER
 10
-38.359894055047107
 20
-20.5403706833811484
 30
0.0
 11
-35.7005540550471068
 21
-17.8810306833811516
 31
0.0
  0
LINE
  5
13F
100
AcDbEntity
100
AcDbLine
  8
0
 62
7
420
16777215
370
-1
 48
1.0
  6
BYLAYER
 10
-17.2992326550470921
 20
-6.8410282833811493
 30
0.0
 11
-17.2992326550470921
 21
-8.4810306833811495
 31
0.0
  0
LINE
  5
140
100
AcDbEntity
100
AcDbLine
  8
0
 62
7
420
16777215
370
-1
 48
1.0
  6
BYLAYER
 10
-14.6398928550470941
 20
-6.8410282833811493
 30
0.0
 11
-17.2992326550470921
 21
-6.8410282833811493
 31
0.0
  0
LINE
  5
141
100
AcDbEntity
100
AcDbLine
  8
0
 62
7
420
16777215
370
-1
 48
1.0
  6
BYLAYER
 10
-16.4398928550470913
 20
-5.0410282833811486
 30
0.0
 11
-14.6398928550470941
 21
-6.8410282833811493
 31
0.0
  0
CIRCLE
  5
142
100
AcDbEntity
100
AcDbCircle
  8
0
 62
7
420
16777215
370
-1
 48
1.0
  6
BYLAYER
 10
-11.799891855047079
 20
-15.0410298833811495
 30
0.0
 40
2.1000002000000002
  0
LINE
  5
143
100
AcDbEntity
100
AcDbLine
  8
0
 62
7
420
16777215
370
-1
 48
1.0
  6
BYLAYER
 10
-40.2998950550471022
 20
-25.0410306833811482
 30
0.0
 11
-36.4398944550470958
 21
-25.0410306833811482
 31
0.0
  0
LINE
  5
144
100
AcDbEntity
100
AcDbLine
  8
0
 62
7
420
16777215
370
-1
 48
1.0
  6
BYLAYER
 10
-36.4398944550470958
 20
-25.0410306833811482
 30
0.0
 11
-34.6398944550470986
 21
-23.2410298833811488
 31
0.0
  0
LINE
  5
145
100
AcDbEntity
100
AcDbLine
  8
0
 62
7
420
16777215
370
-1
 48
1.0
  6
BYLAYER
 10
-34.6398944550470986
 20
-23.2410298833811488
 30
0.0
 11
-37.2992342550471108
 21
-23.2410298833811488
 31
0.0
  0
LINE
  5
146
100
AcDbEntity
100
AcDbLine
  8
0
 62
256
370
-1
 48
1.0
  6
BYLAYER
 10
-25.2398928550471027
 20
-9.5416904833811493
 30
0.0
 11
-25.2398928550471027
 21
-8.6134312833811499
 31
0.0
  0
LINE
  5
147
100
AcDbEntity
100
AcDbLine
  8
0
 62
7
420
16777215
370
-1
 48
1.0
  6
BYLAYER
 10
-37.2992342550471108
 20
-23.2410298833811488
 30
0.0
 11
-37.2992342550471108
 21
-21.6010304833811482
 31
0.0
  0
LINE
  5
148
100
AcDbEntity
100
AcDbLine
  8
0
 62
256
370
-1
 48
1.0
  6
BYLAYER
 10
-18.3598924550470883
 20
-9.5416904833811493
 30
0.0
 11
-18.3598924550470883
 21
-6.8410282833811458
 31
0.0
  0
LINE
  5
149
100
AcDbEntity
100
AcDbLine
  8
0
 62
7
420
16777215
370
-1
 48
1.0
  6
BYLAYER
 10
-37.2992342550471108
 20
-21.6010304833811482
 30
0.0
 11
-34.6398944550470986
 21
-18.9416904833811515
 31
0.0
  0
LINE
  5
14A
100
AcDbEntity
100
AcDbLine
  8
0
 62
256
370
-1
 48
1.0
  6
BYLAYER
 10
-18.3598924550470883
 20
-20.5403706833811484
 30
0.0
 11
-18.3598924550470883
 21
-23.2410298833811488
 31
0.0
  0
LINE
  5
14B
100
AcDbEntity
100
AcDbLine
  8
0
 62
256
370
-1
 48
1.0
  6
BYLAYER
 10
-25.2398928550471027
 20
-20.5403706833811484
 30
0.0
 11
-25.2398928550471027
 21
-23.2410298833811488
 31
0.0
  0
LINE
  5
14C
100
AcDbEntity
100
AcDbLine
  8
0
 62
7
420
16777215
370
-1
 48
1.0
  6
BYLAYER
 10
-31.9998934550471006
 20
-18.9416904833811515
 30
0.0
 11
-34.6398944550470986
 21
-18.9416904833811515
 31
0.0
  0
LINE
  5
14D
100
AcDbEntity
100
AcDbLine
  8
0
 62
256
370
-1
 48
1.0
  6
BYLAYER
 10
-25.2398928550471027
 20
-6.8410282833811458
 30
0.0
 11
-25.2398928550471027
 21
-9.5416904833811529
 31
0.0
  0
LINE
  5
14E
100
AcDbEntity
100
AcDbLine
  8
0
 62
7
420
16777215
370
-1
 48
1.0
  6
BYLAYER
 10
-31.9998934550471006
 20
-18.9416904833811515
 30
0.0
 11
-31.7998934550470977
 21
-18.7416904833811486
 31
0.0
  0
LINE
  5
14F
100
AcDbEntity
100
AcDbLine
  8
0
 62
7
420
16777215
370
-1
 48
1.0
  6
BYLAYER
 10
-31.5998934550470949
 20
-18.9416904833811515
 30
0.0
 11
-31.7998934550470977
 21
-18.7416904833811486
 31
0.0
  0
LINE
  5
150
100
AcDbEntity
100
AcDbLine
  8
0
 62
256
370
-1
 48
1.0
  6
BYLAYER
 10
-18.3598924550470883
 20
-6.8410282833811493
 30
0.0
 11
-25.2398928550471027
 21
-6.8410282833811493
 31
0.0
  0
LINE
  5
151
100
AcDbEntity
100
AcDbLine
  8
0
 62
7
420
16777215
370
-1
 48
1.0
  6
BYLAYER
 10
-31.5998934550470949
 20
-18.9416904833811515
 30
0.0
 11
-28.9598940550471013
 21
-18.9416904833811515
 31
0.0
  0
LINE
  5
152
100
AcDbEntity
100
AcDbLine
  8
0
 62
7
420
16777215
370
-1
 48
1.0
  6
BYLAYER
 10
-26.3005526550470989
 20
-21.6010304833811482
 30
0.0
 11
-28.9598940550471013
 21
-18.9416904833811515
 31
0.0
  0
LINE
  5
153
100
AcDbEntity
100
AcDbLine
  8
0
 62
256
370
-1
 48
1.0
  6
BYLAYER
 10
-25.2398928550471027
 20
-23.2410298833811488
 30
0.0
 11
-18.3598924550470883
 21
-23.2410298833811488
 31
0.0
  0
LINE
  5
154
100
AcDbEntity
100
AcDbLine
  8
0
 62
7
420
16777215
370
-1
 48
1.0
  6
BYLAYER
 10
-26.3005526550470989
 20
-23.2410298833811488
 30
0.0
 11
-26.3005526550470989
 21
-21.6010304833811482
 31
0.0
  0
LINE
  5
155
100
AcDbEntity
100
AcDbLine
  8
0
 62
7
420
16777215
370
-1
 48
1.0
  6
BYLAYER
 10
-28.9598940550471013
 20
-23.2410298833811488
 30
0.0
 11
-26.3005526550470989
 21
-23.2410298833811488
 31
0.0
  0
LINE
  5
156
100
AcDbEntity
100
AcDbLine
  8
0
 62
7
420
16777215
370
-1
 48
1.0
  6
BYLAYER
 10
-27.1598940550471042
 20
-25.0410306833811482
 30
0.0
 11
-28.9598940550471013
 21
-23.2410298833811488
 31
0.0
  0
LINE
  5
157
100
AcDbEntity
100
AcDbLine
  8
0
 62
7
420
16777215
370
-1
 48
1.0
  6
BYLAYER
 10
-16.4398928550470913
 20
-25.0410306833811482
 30
0.0
 11
-27.1598940550471042
 21
-25.0410306833811482
 31
0.0
  0
LINE
  5
158
100
AcDbEntity
100
AcDbLine
  8
0
 62
7
420
16777215
370
-1
 48
1.0
  6
BYLAYER
 10
-25.2398928550471027
 20
-20.5403706833811484
 30
0.0
 11
-27.8992342550471051
 21
-17.8810306833811516
 31
0.0
  0
LINE
  5
159
100
AcDbEntity
100
AcDbLine
  8
0
 62
7
420
16777215
370
-1
 48
1.0
  6
BYLAYER
 10
-27.8992342550471051
 20
-17.8810306833811516
 30
0.0
 11
-27.8992342550471051
 21
-15.2410298833811488
 31
0.0
  0
LINE
  5
15A
100
AcDbEntity
100
AcDbLine
  8
0
 62
7
420
16777215
370
-1
 48
1.0
  6
BYLAYER
 10
-27.8992342550471051
 20
-15.2410298833811488
 30
0.0
 11
-28.0992342550471079
 21
-15.0410298833811495
 31
0.0
  0
LINE
  5
15B
100
AcDbEntity
100
AcDbLine
  8
0
 62
7
420
16777215
370
-1
 48
1.0
  6
BYLAYER
 10
-27.8992342550471051
 20
-14.8410298833811503
 30
0.0
 11
-28.0992342550471079
 21
-15.0410298833811495
 31
0.0
  0
LINE
  5
15C
100
AcDbEntity
100
AcDbLine
  8
0
 62
7
420
16777215
370
-1
 48
1.0
  6
BYLAYER
 10
-27.8992342550471051
 20
-12.2010288833811487
 30
0.0
 11
-27.8992342550471051
 21
-14.8410298833811503
 31
0.0
  0
LINE
  5
15D
100
AcDbEntity
100
AcDbLine
  8
0
 62
7
420
16777215
370
-1
 48
1.0
  6
BYLAYER
 10
-25.2398928550471027
 20
-9.5416904833811493
 30
0.0
 11
-27.8992342550471051
 21
-12.2010288833811487
 31
0.0
  0
LINE
  5
15E
100
AcDbEntity
100
AcDbLine
  8
0
 62
7
420
16777215
370
-1
 48
1.0
  6
BYLAYER
 10
-16.4398928550470913
 20
-5.0410282833811486
 30
0.0
 11
-27.1598940550471042
 21
-5.0410282833811486
 31
0.0
  0
LINE
  5
15F
100
AcDbEntity
100
AcDbLine
  8
0
 62
7
420
16777215
370
-1
 48
1.0
  6
BYLAYER
 10
-27.1598940550471042
 20
-5.0410282833811486
 30
0.0
 11
-28.9598940550471013
 21
-6.8410282833811493
 31
0.0
  0
LINE
  5
160
100
AcDbEntity
100
AcDbLine
  8
0
 62
7
420
16777215
370
-1
 48
1.0
  6
BYLAYER
 10
-28.9598940550471013
 20
-6.8410282833811493
 30
0.0
 11
-26.3005526550470989
 21
-6.8410282833811493
 31
0.0
  0
LINE
  5
161
100
AcDbEntity
100
AcDbLine
  8
0
 62
7
420
16777215
370
-1
 48
1.0
  6
BYLAYER
 10
-26.3005526550470989
 20
-6.8410282833811493
 30
0.0
 11
-26.3005526550470989
 21
-8.4810306833811495
 31
0.0
  0
LINE
  5
162
100
AcDbEntity
100
AcDbLine
  8
0
 62
7
420
16777215
370
-1
 48
1.0
  6
BYLAYER
 10
-26.3005526550470989
 20
-8.4810306833811495
 30
0.0
 11
-28.9598940550471013
 21
-11.1403690833811488
 31
0.0
  0
LINE
  5
163
100
AcDbEntity
100
AcDbLine
  8
0
 62
7
420
16777215
370
-1
 48
1.0
  6
BYLAYER
 10
-31.5998934550470949
 20
-11.1403690833811488
 30
0.0
 11
-28.9598940550471013
 21
-11.1403690833811488
 31
0.0
  0
LINE
  5
164
100
AcDbEntity
100
AcDbLine
  8
0
 62
7
420
16777215
370
-1
 48
1.0
  6
BYLAYER
 10
-31.5998934550470949
 20
-11.1403690833811488
 30
0.0
 11
-31.7998934550470977
 21
-11.3403690833811517
 31
0.0
  0
LINE
  5
165
100
AcDbEntity
100
AcDbLine
  8
0
 62
7
420
16777215
370
-1
 48
1.0
  6
BYLAYER
 10
-31.9998934550471006
 20
-11.1403690833811488
 30
0.0
 11
-31.7998934550470977
 21
-11.3403690833811517
 31
0.0
  0
LINE
  5
166
100
AcDbEntity
100
AcDbLine
  8
0
 62
7
420
16777215
370
-1
 48
1.0
  6
BYLAYER
 10
-31.9998934550471006
 20
-11.1403690833811488
 30
0.0
 11
-34.6398944550470986
 21
-11.1403690833811488
 31
0.0
  0
LINE
  5
167
100
AcDbEntity
100
AcDbLine
  8
0
 62
7
420
16777215
370
-1
 48
1.0
  6
BYLAYER
 10
-37.2992342550471108
 20
-8.4810306833811495
 30
0.0
 11
-34.6398944550470986
 21
-11.1403690833811488
 31
0.0
  0
LINE
  5
168
100
AcDbEntity
100
AcDbLine
  8
0
 62
7
420
16777215
370
-1
 48
1.0
  6
BYLAYER
 10
-37.2992342550471108
 20
-6.8410282833811493
 30
0.0
 11
-37.2992342550471108
 21
-8.4810306833811495
 31
0.0
  0
LINE
  5
169
100
AcDbEntity
100
AcDbLine
  8
0
 62
7
420
16777215
370
-1
 48
1.0
  6
BYLAYER
 10
-34.6398944550470986
 20
-6.8410282833811493
 30
0.0
 11
-37.2992342550471108
 21
-6.8410282833811493
 31
0.0
  0
LINE
  5
16A
100
AcDbEntity
100
AcDbLine
  8
0
 62
7
420
16777215
370
-1
 48
1.0
  6
BYLAYER
 10
-36.4398944550470958
 20
-5.0410282833811486
 30
0.0
 11
-34.6398944550470986
 21
-6.8410282833811493
 31
0.0
  0
LINE
  5
16B
100
AcDbEntity
100
AcDbLine
  8
0
 62
7
420
16777215
370
-1
 48
1.0
  6
BYLAYER
 10
-40.2998950550471022
 20
-5.0410282833811486
 30
0.0
 11
-36.4398944550470958
 21
-5.0410282833811486
 31
0.0
  0
CIRCLE
  5
16C
100
AcDbEntity
100
AcDbCircle
  8
0
 62
7
420
16777215
370
-1
 48
1.0
  6
BYLAYER
 10
-31.7998934550470977
 20
-15.0410298833811495
 30
0.0
 40
2.1000002000000002
  0
LINE
  5
16D
100
AcDbEntity
100
AcDbLine
  8
0
 62
7
420
16777215
370
-1
 48
1.0
  6
BYLAYER
 10
-18.3598924550470883
 20
-9.5416904833811493
 30
0.0
 11
-15.7005524550470881
 21
-12.2010288833811487
 31
0.0
  0
LINE
  5
16E
100
AcDbEntity
100
AcDbLine
  8
0
 62
7
420
16777215
370
-1
 48
1.0
  6
BYLAYER
 10
-15.7005524550470881
 20
-12.2010288833811487
 30
0.0
 11
-15.7005524550470881
 21
-14.8410298833811503
 31
0.0
  0
LINE
  5
16F
100
AcDbEntity
100
AcDbLine
  8
0
 62
7
420
16777215
370
-1
 48
1.0
  6
BYLAYER
 10
-15.7005524550470881
 20
-14.8410298833811503
 30
0.0
 11
-15.5005524550470852
 21
-15.0410298833811495
 31
0.0
  0
LINE
  5
170
100
AcDbEntity
100
AcDbLine
  8
0
 62
7
420
16777215
370
-1
 48
1.0
  6
BYLAYER
 10
-15.7005524550470881
 20
-15.2410298833811488
 30
0.0
 11
-15.5005524550470852
 21
-15.0410298833811495
 31
0.0
  0
LINE
  5
171
100
AcDbEntity
100
AcDbLine
  8
0
 62
7
420
16777215
370
-1
 48
1.0
  6
BYLAYER
 10
-15.7005524550470881
 20
-17.8810306833811516
 30
0.0
 11
-15.7005524550470881
 21
-15.2410298833811488
 31
0.0
  0
LINE
  5
172
100
AcDbEntity
100
AcDbLine
  8
0
 62
7
420
16777215
370
-1
 48
1.0
  6
BYLAYER
 10
-18.3598924550470883
 20
-20.5403706833811484
 30
0.0
 11
-15.7005524550470881
 21
-17.8810306833811516
 31
0.0
  0
LINE
  5
173
100
AcDbEntity
100
AcDbLine
  8
0
 62
7
420
16777215
370
-1
 48
1.0
  6
BYLAYER
 10
-16.4398928550470913
 20
-25.0410306833811482
 30
0.0
 11
-14.6398928550470941
 21
-23.2410298833811488
 31
0.0
  0
LINE
  5
174
100
AcDbEntity
100
AcDbLine
  8
0
 62
7
420
16777215
370
-1
 48
1.0
  6
BYLAYER
 10
-14.6398928550470941
 20
-23.2410298833811488
 30
0.0
 11
-17.2992326550470921
 21
-23.2410298833811488
 31
0.0
  0
LINE
  5
175
100
AcDbEntity
100
AcDbLine
  8
0
 62
7
420
16777215
370
-1
 48
1.0
  6
BYLAYER
 10
-17.2992326550470921
 20
-23.2410298833811488
 30
0.0
 11
-17.2992326550470921
 21
-21.6010304833811482
 31
0.0
  0
LINE
  5
176
100
AcDbEntity
100
AcDbLine
  8
0
 62
7
420
16777215
370
-1
 48
1.0
  6
BYLAYER
 10
-17.2992326550470921
 20
-21.6010304833811482
 30
0.0
 11
-14.6398928550470941
 21
-18.9416904833811515
 31
0.0
  0
LINE
  5
177
100
AcDbEntity
100
AcDbLine
  8
0
 62
7
420
16777215
370
-1
 48
1.0
  6
BYLAYER
 10
-11.9998918550470961
 20
-18.9416904833811515
 30
0.0
 11
-14.6398928550470941
 21
-18.9416904833811515
 31
0.0
  0
LINE
  5
178
100
AcDbEntity
100
AcDbLine
  8
0
 62
7
420
16777215
370
-1
 48
1.0
  6
BYLAYER
 10
-11.9998918550470961
 20
-18.9416904833811515
 30
0.0
 11
-11.799891855047079
 21
-18.7416904833811486
 31
0.0
  0
LINE
  5
179
100
AcDbEntity
100
AcDbLine
  8
0
 62
7
420
16777215
370
-1
 48
1.0
  6
BYLAYER
 10
-11.5998918550470904
 20
-18.9416904833811515
 30
0.0
 11
-11.799891855047079
 21
-18.7416904833811486
 31
0.0
  0
LINE
  5
17A
100
AcDbEntity
100
AcDbLine
  8
0
 62
7
420
16777215
370
-1
 48
1.0
  6
BYLAYER
 10
-11.5998918550470904
 20
-18.9416904833811515
 30
0.0
 11
-8.9598924550470826
 21
-18.9416904833811515
 31
0.0
  0
LINE
  5
17B
100
AcDbEntity
100
AcDbLine
  8
0
 62
7
420
16777215
370
-1
 48
1.0
  6
BYLAYER
 10
-6.3005510550470945
 20
-21.6010304833811482
 30
0.0
 11
-8.9598924550470826
 21
-18.9416904833811515
 31
0.0
  0
LINE
  5
17C
100
AcDbEntity
100
AcDbLine
  8
0
 62
7
420
16777215
370
-1
 48
1.0
  6
BYLAYER
 10
-6.3005510550470945
 20
-23.2410298833811488
 30
0.0
 11
-6.3005510550470945
 21
-21.6010304833811482
 31
0.0
  0
LINE
  5
17D
100
AcDbEntity
100
AcDbLine
  8
0
 62
7
420
16777215
370
-1
 48
1.0
  6
BYLAYER
 10
-8.9598924550470826
 20
-23.2410298833811488
 30
0.0
 11
-6.3005510550470945
 21
-23.2410298833811488
 31
0.0
  0
LINE
  5
17E
100
AcDbEntity
100
AcDbLine
  8
0
 62
7
420
16777215
370
-1
 48
1.0
  6
BYLAYER
 10
-7.1598924550470997
 20
-25.0410306833811482
 30
0.0
 11
-8.9598924550470826
 21
-23.2410298833811488
 31
0.0
  0
LINE
  5
17F
100
AcDbEntity
100
AcDbLine
  8
0
 62
7
420
16777215
370
-1
 48
1.0
  6
BYLAYER
 10
-3.299891855047079
 20
-25.0410306833811482
 30
0.0
 11
-7.1598924550470997
 21
-25.0410306833811482
 31
0.0
  0
ARC
  5
180
100
AcDbEntity
  8
0
 62
7
420
16777215
370
-1
 48
1.0
  6
BYLAYER
100
AcDbCircle
 10
-3.299891855047079
 20
-23.5410312833811481
 30
0.0
 40
1.5000001999999999
100
AcDbArc
 50
269.9999970000000076
 51
0.0
  0
LINE
  5
181
100
AcDbEntity
100
AcDbLine
  8
0
 62
7
420
16777215
370
-1
 48
1.0
  6
BYLAYER
 10
-1.7998918550470648
 20
-23.5410312833811481
 30
0.0
 11
-1.7998918550470648
 21
-19.6810306833811488
 31
0.0
  0
LINE
  5
182
100
AcDbEntity
100
AcDbLine
  8
0
 62
7
420
16777215
370
-1
 48
1.0
  6
BYLAYER
 10
-1.7998918550470648
 20
-19.6810306833811488
 30
0.0
 11
-3.5998918550470904
 21
-17.8810306833811516
 31
0.0
  0
LINE
  5
183
100
AcDbEntity
100
AcDbLine
  8
0
 62
7
420
16777215
370
-1
 48
1.0
  6
BYLAYER
 10
-3.5998918550470904
 20
-20.5403706833811484
 30
0.0
 11
-3.5998918550470904
 21
-17.8810306833811516
 31
0.0
  0
LINE
  5
184
100
AcDbEntity
100
AcDbLine
  8
0
 62
7
420
16777215
370
-1
 48
1.0
  6
BYLAYER
 10
-3.5998918550470904
 20
-20.5403706833811484
 30
0.0
 11
-5.2398912550470982
 21
-20.5403706833811484
 31
0.0
  0
LINE
  5
185
100
AcDbEntity
100
AcDbLine
  8
0
 62
7
420
16777215
370
-1
 48
1.0
  6
BYLAYER
 10
-5.2398912550470982
 20
-20.5403706833811484
 30
0.0
 11
-7.8992326550470864
 21
-17.8810306833811516
 31
0.0
  0
LINE
  5
186
100
AcDbEntity
100
AcDbLine
  8
0
 62
7
420
16777215
370
-1
 48
1.0
  6
BYLAYER
 10
-7.8992326550470864
 20
-17.8810306833811516
 30
0.0
 11
-7.8992326550470864
 21
-15.2410298833811488
 31
0.0
  0
LINE
  5
187
100
AcDbEntity
100
AcDbLine
  8
0
 62
7
420
16777215
370
-1
 48
1.0
  6
BYLAYER
 10
-7.8992326550470864
 20
-15.2410298833811488
 30
0.0
 11
-8.0992326550470892
 21
-15.0410298833811495
 31
0.0
  0
LINE
  5
188
100
AcDbEntity
100
AcDbLine
  8
0
 62
7
420
16777215
370
-1
 48
1.0
  6
BYLAYER
 10
-7.8992326550470864
 20
-14.8410298833811503
 30
0.0
 11
-8.0992326550470892
 21
-15.0410298833811495
 31
0.0
  0
LINE
  5
189
100
AcDbEntity
100
AcDbLine
  8
0
 62
7
420
16777215
370
-1
 48
1.0
  6
BYLAYER
 10
-7.8992326550470864
 20
-12.2010288833811487
 30
0.0
 11
-7.8992326550470864
 21
-14.8410298833811503
 31
0.0
  0
LINE
  5
18A
100
AcDbEntity
100
AcDbLine
  8
0
 62
7
420
16777215
370
-1
 48
1.0
  6
BYLAYER
 10
-5.2398912550470982
 20
-9.5416904833811493
 30
0.0
 11
-7.8992326550470864
 21
-12.2010288833811487
 31
0.0
  0
LINE
  5
18B
100
AcDbEntity
100
AcDbLine
  8
0
 62
7
420
16777215
370
-1
 48
1.0
  6
BYLAYER
 10
-3.5998918550470904
 20
-9.5416904833811493
 30
0.0
 11
-5.2398912550470982
 21
-9.5416904833811493
 31
0.0
  0
LINE
  5
18C
100
AcDbEntity
100
AcDbLine
  8
0
 62
7
420
16777215
370
-1
 48
1.0
  6
BYLAYER
 10
-3.5998918550470904
 20
-9.5416904833811493
 30
0.0
 11
-3.5998918550470904
 21
-12.2010288833811487
 31
0.0
  0
LINE
  5
18D
100
AcDbEntity
100
AcDbLine
  8
0
 62
7
420
16777215
370
-1
 48
1.0
  6
BYLAYER
 10
-1.7998918550470648
 20
-10.4010288833811515
 30
0.0
 11
-3.5998918550470904
 21
-12.2010288833811487
 31
0.0
  0
LINE
  5
18E
100
AcDbEntity
100
AcDbLine
  8
0
 62
256
370
-1
 48
1.0
  6
BYLAYER
 10
-45.2398944550471072
 20
-9.5416904833811671
 30
0.0
 11
-45.2398944550471072
 21
-6.8410282833811635
 31
0.0
  0
LINE
  5
18F
100
AcDbEntity
100
AcDbLine
  8
0
 62
256
370
-1
 48
1.0
  6
BYLAYER
 10
-38.359894055047107
 20
-9.5416904833811493
 30
0.0
 11
-38.359894055047107
 21
-6.8410282833811493
 31
0.0
  0
LINE
  5
190
100
AcDbEntity
100
AcDbLine
  8
0
 62
256
370
-1
 48
1.0
  6
BYLAYER
 10
-38.359894055047107
 20
-20.5403706833811484
 30
0.0
 11
-38.359894055047107
 21
-23.2410298833811524
 31
0.0
  0
LINE
  5
191
100
AcDbEntity
100
AcDbLine
  8
0
 62
256
370
-1
 48
1.0
  6
BYLAYER
 10
-45.2398944550471072
 20
-20.5403706833811661
 30
0.0
 11
-45.2398944550471072
 21
-23.2410298833811666
 31
0.0
  0
LINE
  5
192
100
AcDbEntity
100
AcDbLine
  8
0
 62
256
370
-1
 48
1.0
  6
BYLAYER
 10
-45.2398944550471072
 20
-6.8410282833811635
 30
0.0
 11
-38.359894055047107
 21
-6.8410282833811493
 31
0.0
  0
LINE
  5
193
100
AcDbEntity
100
AcDbLine
  8
0
 62
256
370
-1
 48
1.0
  6
BYLAYER
 10
-45.2398944550471072
 20
-23.2410298833811666
 30
0.0
 11
-38.3598940550471212
 21
-23.2410298833811524
 31
0.0
  0
ENDBLK
  5
194
100
AcDbEntity
  8
0
100
AcDbBlockEnd
  0
BLOCK
  5
195
100
AcDbEntity
  8
0
100
AcDbBlockBegin
  2
$PAPER_SPACE
 70
0
 10
0.0
 20
0.0
 30
0.0
  3
$PAPER_SPACE
  1

  0
ENDBLK
  5
196
100
AcDbEntity
  8
0
100
AcDbBlockEnd
  0
BLOCK
  5
197
100
AcDbEntity
  8
0
100
AcDbBlockBegin
  2
$MODEL_SPACE
 70
0
 10
0.0
 20
0.0
 30
0.0
  3
$MODEL_SPACE
  1

  0
ENDBLK
  5
198
100
AcDbEntity
  8
0
100
AcDbBlockEnd
  0
ENDSEC
  0
SECTION
  2
ENTITIES
  0
INSERT
  5
199
100
AcDbEntity
100
AcDbBlockReference
  8
0
 62
256
370
-1
 48
1.0
  6
BYLAYER
  2
block 4
 10
71.7998966550471209
 20
15.0410298833811673
 30
0.0
  0
ENDSEC
  0
SECTION
  2
OBJECTS
  0
DICTIONARY
  5
C
100
AcDbDictionary
280
0
281
1
  3
ACAD_GROUP
350
D
  3
ACAD_LAYOUT
350
1A
  3
ACAD_MLINESTYLE
350
17
  3
ACAD_PLOTSETTINGS
350
19
  3
ACAD_PLOTSTYLENAME
350
E
  3
AcDbVariableDictionary
350
19A
  3
QCAD_OBJECTS
350
19B
  0
DICTIONARY
  5
D
100
AcDbDictionary
280
0
281
1
  0
ACDBDICTIONARYWDFLT
  5
E
100
AcDbDictionary
281
1
  3
Normal
350
F
100
AcDbDictionaryWithDefault
340
F
  0
ACDBPLACEHOLDER
  5
F
  0
DICTIONARY
  5
17
100
AcDbDictionary
280
0
281
1
  3
Standard
350
18
  0
MLINESTYLE
  5
18
100
AcDbMlineStyle
  2
STANDARD
 70
0
  3

 62
256
 51
90.0
 52
90.0
 71
2
 49
0.5
 62
256
  6
BYLAYER
 49
-0.5
 62
256
  6
BYLAYER
  0
DICTIONARY
  5
19
100
AcDbDictionary
280
0
281
1
  0
DICTIONARY
  5
1A
100
AcDbDictionary
281
1
  3
Layout1
350
1E
  3
Layout2
350
26
  3
Model
350
22
  0
LAYOUT
  5
1E
100
AcDbPlotSettings
  1

  2
none_device
  4

  6

 40
0.0
 41
0.0
 42
0.0
 43
0.0
 44
0.0
 45
0.0
 46
0.0
 47
0.0
 48
0.0
 49
0.0
140
0.0
141
0.0
142
1.0
143
1.0
 70
688
 72
0
 73
0
 74
5
  7

 75
16
147
1.0
148
0.0
149
0.0
100
AcDbLayout
  1
Layout1
 70
1
 71
1
 10
0.0
 20
0.0
 11
420.0
 21
297.0
 12
0.0
 22
0.0
 32
0.0
 14
100000000000000000000.0
 24
100000000000000000000.0
 34
100000000000000000000.0
 15
-100000000000000000000.0
 25
-100000000000000000000.0
 35
-100000000000000000000.0
146
0.0
 13
0.0
 23
0.0
 33
0.0
 16
1.0
 26
0.0
 36
0.0
 17
0.0
 27
1.0
 37
0.0
 76
0
330
1B
  0
LAYOUT
  5
22
100
AcDbPlotSettings
  1

  2
none_device
  4

  6

 40
0.0
 41
0.0
 42
0.0
 43
0.0
 44
0.0
 45
0.0
 46
0.0
 47
0.0
 48
0.0
 49
0.0
140
0.0
141
0.0
142
1.0
143
1.0
 70
1712
 72
0
 73
0
 74
0
  7

 75
0
147
1.0
148
0.0
149
0.0
100
AcDbLayout
  1
Model
 70
1
 71
0
 10
0.0
 20
0.0
 11
12.0
 21
9.0
 12
0.0
 22
0.0
 32
0.0
 14
0.0
 24
0.0
 34
0.0
 15
0.0
 25
0.0
 35
0.0
146
0.0
 13
0.0
 23
0.0
 33
0.0
 16
1.0
 26
0.0
 36
0.0
 17
0.0
 27
1.0
 37
0.0
 76
0
330
1F
  0
LAYOUT
  5
26
100
AcDbPlotSettings
  1

  2
none_device
  4

  6

 40
0.0
 41
0.0
 42
0.0
 43
0.0
 44
0.0
 45
0.0
 46
0.0
 47
0.0
 48
0.0
 49
0.0
140
0.0
141
0.0
142
1.0
143
1.0
 70
688
 72
0
 73
0
 74
5
  7

 75
16
147
1.0
148
0.0
149
0.0
100
AcDbLayout
  1
Layout2
 70
1
 71
2
 10
0.0
 20
0.0
 11
12.0
 21
9.0
 12
0.0
 22
0.0
 32
0.0
 14
0.0
 24
0.0
 34
0.0
 15
0.0
 25
0.0
 35
0.0
146
0.0
 13
0.0
 23
0.0
 33
0.0
 16
1.0
 26
0.0
 36
0.0
 17
0.0
 27
1.0
 37
0.0
 76
0
330
23
  0
DICTIONARY
  5
19A
100
AcDbDictionary
281
1
  3
DIMASSOC
350
19D
  3
HIDETEXT
350
19C
  0
DICTIONARYVAR
  5
19C
100
DictionaryVariables
280
0
  1
2
  0
DICTIONARYVAR
  5
19D
100
DictionaryVariables
280
0
  1
1
  0
DICTIONARY
  5
19B
100
AcDbDictionary
281
1
  3
Grid/DisplayGrid00
350
19E
  3
Grid/DisplayGrid01
350
19F
  3
Grid/DisplayGrid02
350
1A0
  3
Grid/DisplayGrid03
350
1A1
  3
Grid/GridSpacingX00
350
1A2
  3
Grid/GridSpacingX01
350
1A3
  3
Grid/GridSpacingX02
350
1A4
  3
Grid/GridSpacingX03
350
1A5
  3
Grid/GridSpacingY00
350
1A6
  3
Grid/GridSpacingY01
350
1A7
  3
Grid/GridSpacingY02
350
1A8
  3
Grid/GridSpacingY03
350
1A9
  3
Grid/IsometricGrid00
350
1AA
  3
Grid/IsometricGrid01
350
1AB
  3
Grid/IsometricGrid02
350
1AC
  3
Grid/IsometricGrid03
350
1AD
  3
Grid/IsometricProjection00
350
1AE
  3
Grid/IsometricProjection01
350
1AF
  3
Grid/IsometricProjection02
350
1B0
  3
Grid/IsometricProjection03
350
1B1
  3
Grid/MetaGridSpacingX00
350
1B2
  3
Grid/MetaGridSpacingX01
350
1B3
  3
Grid/MetaGridSpacingX02
350
1B4
  3
Grid/MetaGridSpacingX03
350
1B5
  3
Grid/MetaGridSpacingY00
350
1B6
  3
Grid/MetaGridSpacingY01
350
1B7
  3
Grid/MetaGridSpacingY02
350
1B8
  3
Grid/MetaGridSpacingY03
350
1B9
  3
MultiPageSettings/Columns
350
1BA
  3
MultiPageSettings/GlueMarginsBottom
350
1BB
  3
MultiPageSettings/GlueMarginsLeft
350
1BC
  3
MultiPageSettings/GlueMarginsRight
350
1BD
  3
MultiPageSettings/GlueMarginsTop
350
1BE
  3
MultiPageSettings/PrintCropMarks
350
1BF
  3
MultiPageSettings/Rows
350
1C0
  3
PageSettings/OffsetX
350
1C1
  3
PageSettings/OffsetY
350
1C2
  3
PageSettings/PageOrientation
350
1C3
  3
PageSettings/PaperHeight
350
1C4
  3
PageSettings/PaperWidth
350
1C5
  3
PageSettings/Scale
350
1C6
  3
PageSettings/ShowPaperBorders
350
1C7
  3
UnitSettings/PaperUnit
350
1C8
  0
XRECORD
  5
19E
330
19B
100
AcDbXrecord
280
1
290
1
  0
XRECORD
  5
19F
330
19B
100
AcDbXrecord
280
1
290
1
  0
XRECORD
  5
1A0
330
19B
100
AcDbXrecord
280
1
290
1
  0
XRECORD
  5
1A1
330
19B
100
AcDbXrecord
280
1
290
1
  0
XRECORD
  5
1A2
330
19B
100
AcDbXrecord
280
1
1000
1
  0
XRECORD
  5
1A3
330
19B
100
AcDbXrecord
280
1
1000
auto
  0
XRECORD
  5
1A4
330
19B
100
AcDbXrecord
280
1
1000
auto
  0
XRECORD
  5
1A5
330
19B
100
AcDbXrecord
280
1
1000
auto
  0
XRECORD
  5
1A6
330
19B
100
AcDbXrecord
280
1
1000
1
  0
XRECORD
  5
1A7
330
19B
100
AcDbXrecord
280
1
1000
auto
  0
XRECORD
  5
1A8
330
19B
100
AcDbXrecord
280
1
1000
auto
  0
XRECORD
  5
1A9
330
19B
100
AcDbXrecord
280
1
1000
auto
  0
XRECORD
  5
1AA
330
19B
100
AcDbXrecord
280
1
290
0
  0
XRECORD
  5
1AB
330
19B
100
AcDbXrecord
280
1
290
0
  0
XRECORD
  5
1AC
330
19B
100
AcDbXrecord
280
1
290
0
  0
XRECORD
  5
1AD
330
19B
100
AcDbXrecord
280
1
290
0
  0
XRECORD
  5
1AE
330
19B
100
AcDbXrecord
280
1
 90
0
  0
XRECORD
  5
1AF
330
19B
100
AcDbXrecord
280
1
 90
0
  0
XRECORD
  5
1B0
330
19B
100
AcDbXrecord
280
1
 90
0
  0
XRECORD
  5
1B1
330
19B
100
AcDbXrecord
280
1
 90
0
  0
XRECORD
  5
1B2
330
19B
100
AcDbXrecord
280
1
1000
auto
  0
XRECORD
  5
1B3
330
19B
100
AcDbXrecord
280
1
1000
auto
  0
XRECORD
  5
1B4
330
19B
100
AcDbXrecord
280
1
1000
auto
  0
XRECORD
  5
1B5
330
19B
100
AcDbXrecord
280
1
1000
auto
  0
XRECORD
  5
1B6
330
19B
100
AcDbXrecord
280
1
1000
auto
  0
XRECORD
  5
1B7
330
19B
100
AcDbXrecord
280
1
1000
auto
  0
XRECORD
  5
1B8
330
19B
100
AcDbXrecord
280
1
1000
auto
  0
XRECORD
  5
1B9
330
19B
100
AcDbXrecord
280
1
1000
auto
  0
XRECORD
  5
1BA
330
19B
100
AcDbXrecord
280
1
 90
1
  0
XRECORD
  5
1BB
330
19B
100
AcDbXrecord
280
1
 40
0.5
  0
XRECORD
  5
1BC
330
19B
100
AcDbXrecord
280
1
 40
0.5
  0
XRECORD
  5
1BD
330
19B
100
AcDbXrecord
280
1
 40
0.5
  0
XRECORD
  5
1BE
330
19B
100
AcDbXrecord
280
1
 40
0.5
  0
XRECORD
  5
1BF
330
19B
100
AcDbXrecord
280
1
290
0
  0
XRECORD
  5
1C0
330
19B
100
AcDbXrecord
280
1
 90
1
  0
XRECORD
  5
1C1
330
19B
100
AcDbXrecord
280
1
 40
0.0
  0
XRECORD
  5
1C2
330
19B
100
AcDbXrecord
280
1
 40
0.0
  0
XRECORD
  5
1C3
330
19B
100
AcDbXrecord
280
1
1000
Portrait
  0
XRECORD
  5
1C4
330
19B
100
AcDbXrecord
280
1
 40
42.0
  0
XRECORD
  5
1C5
330
19B
100
AcDbXrecord
280
1
 40
30.0
  0
XRECORD
  5
1C6
330
19B
100
AcDbXrecord
280
1
1000
1:1
  0
XRECORD
  5
1C7
330
19B
100
AcDbXrecord
280
1
290
1
  0
XRECORD
  5
1C8
330
19B
100
AcDbXrecord
280
1
 90
4
  0
ENDSEC
  0
EOF
