solid LCD_SupportA
facet normal 0.003072243317486974 0.0002588479328508228 0.9999952471480782
  outer loop
    vertex 7.0 3.817 21.0
    vertex 9.5 53.270481604906415 20.979518395093585
    vertex 6.999979025544971 53.270481604906415 20.994879684691497
  endloop
endfacet
facet normal 0.003072243317486974 0.0002588479328508228 0.9999952471480782
  outer loop
    vertex 9.5 53.270481604906415 20.979518395093585
    vertex 7.0 3.817 21.0
    vertex 9.5 3.817 21.0
  endloop
endfacet
facet normal 1.2093940987047038e-17 -1.990147213122545e-18 -1.0
  outer loop
    vertex -0.9999999999999999 60.239999999999995 0.0
    vertex 0.24999999999999953 58.599999999999994 0.0
    vertex -0.9999999999999999 56.849999999999994 0.0
  endloop
endfacet
facet normal 1.2093940987047038e-17 -1.990147213122545e-18 -1.0
  outer loop
    vertex 0.24999999999999953 58.599999999999994 0.0
    vertex -0.9999999999999999 60.239999999999995 0.0
    vertex 4.499999999999999 60.239999999999995 0.0
  endloop
endfacet
facet normal 1.2093940987047038e-17 -1.990147213122545e-18 -1.0
  outer loop
    vertex 0.24999999999999953 58.599999999999994 0.0
    vertex 4.499999999999999 60.239999999999995 0.0
    vertex 2.0 58.599999999999994 0.0
  endloop
endfacet
facet normal 1.2093940987047038e-17 -1.990147213122545e-18 -1.0
  outer loop
    vertex 27.349184719828678 8.449689783217025 0.0
    vertex 20.985223689149752 8.449689783217025 1.4099832412739487e-15
    vertex 24.308625560726522 11.773091654793795 1.4094556574975715e-15
  endloop
endfacet
facet normal 1.2093940987047038e-17 -1.990147213122545e-18 -1.0
  outer loop
    vertex 5.999999999999999 7.999999999999999 0.0
    vertex 1.9999999999999998 1.9999999999999998 0.0
    vertex 1.9999999999999998 7.999999999999999 0.0
  endloop
endfacet
facet normal 1.2093940987047038e-17 -1.990147213122545e-18 -1.0
  outer loop
    vertex 1.9999999999999998 1.9999999999999998 0.0
    vertex 5.999999999999999 7.999999999999999 0.0
    vertex 3.999999999999999 0.0 0.0
  endloop
endfacet
facet normal 1.2093940987047038e-17 -1.990147213122545e-18 -1.0
  outer loop
    vertex 3.999999999999999 0.0 0.0
    vertex 5.999999999999999 7.999999999999999 0.0
    vertex 5.414565621984245 0.12047039647164023 0.0
  endloop
endfacet
facet normal 1.2093940987047038e-17 -1.990147213122545e-18 -1.0
  outer loop
    vertex 5.414565621984245 0.12047039647164023 0.0
    vertex 5.999999999999999 7.999999999999999 0.0
    vertex 6.973671727453766 0.4736717274537647 0.0
  endloop
endfacet
facet normal 1.2093940987047038e-17 -1.990147213122545e-18 -1.0
  outer loop
    vertex 0.25000000000000017 2.53 -8.739711803885484e-32
    vertex -0.9999999999999999 1.9999999999999996 -8.739711803885484e-32
    vertex -0.9999999999999999 2.5300000000000002 -8.739711803885484e-32
  endloop
endfacet
facet normal 1.2093940987047038e-17 -1.990147213122545e-18 -1.0
  outer loop
    vertex -0.9999999999999999 1.9999999999999996 -8.739711803885484e-32
    vertex 0.25000000000000017 2.53 -8.739711803885484e-32
    vertex 0.25000000000000017 1.9999999999999998 -8.739711803885484e-32
  endloop
endfacet
facet normal 1.2093940987047038e-17 -1.990147213122545e-18 -1.0
  outer loop
    vertex -0.9999999999999999 1.9999999999999996 -8.739711803885484e-32
    vertex 0.25000000000000017 1.9999999999999998 -8.739711803885484e-32
    vertex 1.9999999999999996 0.0 0.0
  endloop
endfacet
facet normal 1.2093940987047038e-17 -1.990147213122545e-18 -1.0
  outer loop
    vertex 1.9999999999999996 0.0 0.0
    vertex 0.25000000000000017 1.9999999999999998 -8.739711803885484e-32
    vertex 1.9999999999999998 1.9999999999999998 0.0
  endloop
endfacet
facet normal 1.2093940987047038e-17 -1.990147213122545e-18 -1.0
  outer loop
    vertex 1.9999999999999996 0.0 0.0
    vertex 1.9999999999999998 1.9999999999999998 0.0
    vertex 3.999999999999999 0.0 0.0
  endloop
endfacet
facet normal 1.2093940987047038e-17 -1.990147213122545e-18 -1.0
  outer loop
    vertex 11.95009952791698 57.61952960352836 0.0
    vertex 10.999999999999996 46.668932188134505 2.8199664825478975e-15
    vertex 10.597893971888562 58.47223304703363 0.0
  endloop
endfacet
facet normal 1.2093940987047038e-17 -1.990147213122545e-18 -1.0
  outer loop
    vertex 10.999999999999996 46.668932188134505 2.8199664825478975e-15
    vertex 11.95009952791698 57.61952960352836 0.0
    vertex 11.12047039647164 47.84255701717547 2.795992820200971e-15
  endloop
endfacet
facet normal 1.2093940987047038e-17 -1.990147213122545e-18 -1.0
  outer loop
    vertex 11.12047039647164 47.84255701717547 2.795992820200971e-15
    vertex 11.95009952791698 57.61952960352836 0.0
    vertex 11.473671727453764 48.69526046068074 2.725705598630786e-15
  endloop
endfacet
facet normal 1.2093940987047038e-17 -1.990147213122545e-18 -1.0
  outer loop
    vertex 11.473671727453764 48.69526046068074 2.725705598630786e-15
    vertex 11.95009952791698 57.61952960352836 0.0
    vertex 12.035533905932736 49.16893218813451 2.6138947758322237e-15
  endloop
endfacet
facet normal 1.2093940987047038e-17 -1.990147213122545e-18 -1.0
  outer loop
    vertex 12.035533905932736 49.16893218813451 2.6138947758322237e-15
    vertex 11.95009952791698 57.61952960352836 0.0
    vertex 13.035533905932734 56.704466094067264 0.0
  endloop
endfacet
facet normal 1.2093940987047038e-17 -1.990147213122545e-18 -1.0
  outer loop
    vertex 12.035533905932736 49.16893218813451 2.6138947758322237e-15
    vertex 13.035533905932734 56.704466094067264 0.0
    vertex 12.76776695296637 49.231292254090334 2.4681800746028856e-15
  endloop
endfacet
facet normal 1.2093940987047038e-17 -1.990147213122545e-18 -1.0
  outer loop
    vertex 12.76776695296637 49.231292254090334 2.4681800746028856e-15
    vertex 13.035533905932734 56.704466094067264 0.0
    vertex 13.620470396471642 48.87809092310821 2.2984917110266213e-15
  endloop
endfacet
facet normal 1.2093940987047038e-17 -1.990147213122545e-18 -1.0
  outer loop
    vertex 13.620470396471642 48.87809092310821 2.2984917110266213e-15
    vertex 13.035533905932734 56.704466094067264 0.0
    vertex 35.834466094067245 33.90553390593274 0.0
  endloop
endfacet
facet normal 1.2093940987047038e-17 -1.990147213122545e-18 -1.0
  outer loop
    vertex 13.620470396471642 48.87809092310821 2.2984917110266213e-15
    vertex 35.834466094067245 33.90553390593274 0.0
    vertex 14.535533905932738 48.133398282201775 2.116393666657874e-15
  endloop
endfacet
facet normal 1.2093940987047038e-17 -1.990147213122545e-18 -1.0
  outer loop
    vertex 14.535533905932738 48.133398282201775 2.116393666657874e-15
    vertex 35.834466094067245 33.90553390593274 0.0
    vertex 28.76339828220178 33.905533905932735 -7.064104253839251e-16
  endloop
endfacet
facet normal 1.2093940987047038e-17 -1.990147213122545e-18 -1.0
  outer loop
    vertex 28.76339828220178 33.905533905932735 -7.064104253839251e-16
    vertex 35.834466094067245 33.90553390593274 0.0
    vertex 29.557991395191237 32.87 -8.645348074057469e-16
  endloop
endfacet
facet normal 1.2093940987047038e-17 -1.990147213122545e-18 -1.0
  outer loop
    vertex 29.557991395191237 32.87 -8.645348074057469e-16
    vertex 35.834466094067245 33.90553390593274 0.0
    vertex 30.05749350771439 31.6640952255126 -9.639359494118257e-16
  endloop
endfacet
facet normal 1.2093940987047038e-17 -1.990147213122545e-18 -1.0
  outer loop
    vertex 30.05749350771439 31.6640952255126 -9.639359494118257e-16
    vertex 35.834466094067245 33.90553390593274 0.0
    vertex 30.227864376269043 30.369999999999997 -9.978398278426018e-16
  endloop
endfacet
facet normal 1.2093940987047038e-17 -1.990147213122545e-18 -1.0
  outer loop
    vertex 2.0 58.599999999999994 0.0
    vertex 5.999999999999999 51.99999999999999 0.0
    vertex 1.9999999999999998 51.99999999999999 0.0
  endloop
endfacet
facet normal 1.2093940987047038e-17 -1.990147213122545e-18 -1.0
  outer loop
    vertex 5.999999999999999 51.99999999999999 0.0
    vertex 2.0 58.599999999999994 0.0
    vertex 4.499999999999999 60.239999999999995 0.0
  endloop
endfacet
facet normal 1.2093940987047038e-17 -1.990147213122545e-18 -1.0
  outer loop
    vertex 5.999999999999999 51.99999999999999 0.0
    vertex 4.499999999999999 60.239999999999995 0.0
    vertex 5.914565621984245 60.119529603528356 0.0
  endloop
endfacet
facet normal 1.2093940987047038e-17 -1.990147213122545e-18 -1.0
  outer loop
    vertex 5.999999999999999 51.99999999999999 0.0
    vertex 5.914565621984245 60.119529603528356 0.0
    vertex 7.473671727453763 59.76632827254624 0.0
  endloop
endfacet
facet normal 1.2093940987047038e-17 -1.990147213122545e-18 -1.0
  outer loop
    vertex 5.999999999999999 51.99999999999999 0.0
    vertex 7.473671727453763 59.76632827254624 0.0
    vertex 5.999999999999999 7.999999999999999 0.0
  endloop
endfacet
facet normal 1.2093940987047038e-17 -1.990147213122545e-18 -1.0
  outer loop
    vertex 5.999999999999999 7.999999999999999 0.0
    vertex 7.473671727453763 59.76632827254624 0.0
    vertex 6.973671727453766 0.4736717274537647 0.0
  endloop
endfacet
facet normal 1.2093940987047038e-17 -1.990147213122545e-18 -1.0
  outer loop
    vertex 6.973671727453766 0.4736717274537647 0.0
    vertex 7.473671727453763 59.76632827254624 0.0
    vertex 8.571067811865476 1.0355339059327375 0.0
  endloop
endfacet
facet normal 1.2093940987047038e-17 -1.990147213122545e-18 -1.0
  outer loop
    vertex 8.571067811865476 1.0355339059327375 0.0
    vertex 7.473671727453763 59.76632827254624 0.0
    vertex 9.071067811865474 59.20446609406726 0.0
  endloop
endfacet
facet normal 1.2093940987047038e-17 -1.990147213122545e-18 -1.0
  outer loop
    vertex 8.571067811865476 1.0355339059327375 0.0
    vertex 9.071067811865474 59.20446609406726 0.0
    vertex 10.097893971888562 1.7677669529663693 0.0
  endloop
endfacet
facet normal 1.2093940987047038e-17 -1.990147213122545e-18 -1.0
  outer loop
    vertex 10.097893971888562 1.7677669529663693 0.0
    vertex 9.071067811865474 59.20446609406726 0.0
    vertex 10.597893971888562 58.47223304703363 0.0
  endloop
endfacet
facet normal 1.2093940987047038e-17 -1.990147213122545e-18 -1.0
  outer loop
    vertex 10.097893971888562 1.7677669529663693 0.0
    vertex 10.597893971888562 58.47223304703363 0.0
    vertex 10.999999999999996 14.07106781186548 2.8199664825478975e-15
  endloop
endfacet
facet normal 1.2093940987047038e-17 -1.990147213122545e-18 -1.0
  outer loop
    vertex 10.097893971888562 1.7677669529663693 0.0
    vertex 10.999999999999996 14.07106781186548 2.8199664825478975e-15
    vertex 11.450099527916981 2.6204703964716414 0.0
  endloop
endfacet
facet normal 1.2093940987047038e-17 -1.990147213122545e-18 -1.0
  outer loop
    vertex 10.999999999999996 14.07106781186548 2.8199664825478975e-15
    vertex 10.597893971888562 58.47223304703363 0.0
    vertex 10.999999999999996 46.668932188134505 2.8199664825478975e-15
  endloop
endfacet
facet normal 1.2093940987047038e-17 -1.990147213122545e-18 -1.0
  outer loop
    vertex 11.450099527916981 2.6204703964716414 0.0
    vertex 10.999999999999996 14.07106781186548 2.8199664825478975e-15
    vertex 11.120470396471637 12.897442982824517 2.795992820200971e-15
  endloop
endfacet
facet normal 1.2093940987047038e-17 -1.990147213122545e-18 -1.0
  outer loop
    vertex 11.450099527916981 2.6204703964716414 0.0
    vertex 11.120470396471637 12.897442982824517 2.795992820200971e-15
    vertex 11.473671727453763 12.044739539319245 2.725705598630786e-15
  endloop
endfacet
facet normal 1.2093940987047038e-17 -1.990147213122545e-18 -1.0
  outer loop
    vertex 11.450099527916981 2.6204703964716414 0.0
    vertex 11.473671727453763 12.044739539319245 2.725705598630786e-15
    vertex 12.535533905932736 3.5355339059327386 0.0
  endloop
endfacet
facet normal 1.2093940987047038e-17 -1.990147213122545e-18 -1.0
  outer loop
    vertex 12.535533905932736 3.5355339059327386 0.0
    vertex 11.473671727453763 12.044739539319245 2.725705598630786e-15
    vertex 12.035533905932734 11.57106781186548 2.6138947758322237e-15
  endloop
endfacet
facet normal 1.2093940987047038e-17 -1.990147213122545e-18 -1.0
  outer loop
    vertex 12.535533905932736 3.5355339059327386 0.0
    vertex 12.035533905932734 11.57106781186548 2.6138947758322237e-15
    vertex 12.767766952966364 11.508707745909655 2.4681800746028856e-15
  endloop
endfacet
facet normal 1.2093940987047038e-17 -1.990147213122545e-18 -1.0
  outer loop
    vertex 12.535533905932736 3.5355339059327386 0.0
    vertex 12.767766952966364 11.508707745909655 2.4681800746028856e-15
    vertex 22.540858607760157 13.54085860776017 -5.275837763772986e-19
  endloop
endfacet
facet normal 1.2093940987047038e-17 -1.990147213122545e-18 -1.0
  outer loop
    vertex 22.540858607760157 13.54085860776017 -5.275837763772986e-19
    vertex 12.767766952966364 11.508707745909655 2.4681800746028856e-15
    vertex 13.620470396471637 11.86190907689178 2.2984917110266213e-15
  endloop
endfacet
facet normal 1.2093940987047038e-17 -1.990147213122545e-18 -1.0
  outer loop
    vertex 22.540858607760157 13.54085860776017 -5.275837763772986e-19
    vertex 13.620470396471637 11.86190907689178 2.2984917110266213e-15
    vertex 14.535533905932734 12.606601717798219 2.116393666657874e-15
  endloop
endfacet
facet normal 1.2093940987047038e-17 -1.990147213122545e-18 -1.0
  outer loop
    vertex 22.540858607760157 13.54085860776017 -5.275837763772986e-19
    vertex 14.535533905932734 12.606601717798219 2.116393666657874e-15
    vertex 28.763398282201788 26.834466094067263 -7.064104253839259e-16
  endloop
endfacet
facet normal 1.2093940987047038e-17 -1.990147213122545e-18 -1.0
  outer loop
    vertex 22.540858607760157 13.54085860776017 -5.275837763772986e-19
    vertex 28.763398282201788 26.834466094067263 -7.064104253839259e-16
    vertex 24.308625560726522 11.773091654793795 1.4094556574975715e-15
  endloop
endfacet
facet normal 1.2093940987047038e-17 -1.990147213122545e-18 -1.0
  outer loop
    vertex 24.308625560726522 11.773091654793795 1.4094556574975715e-15
    vertex 28.763398282201788 26.834466094067263 -7.064104253839259e-16
    vertex 27.914870144777918 18.914870144777936 2.3618325987155618e-33
  endloop
endfacet
facet normal 1.2093940987047038e-17 -1.990147213122545e-18 -1.0
  outer loop
    vertex 24.308625560726522 11.773091654793795 1.4094556574975715e-15
    vertex 27.914870144777918 18.914870144777936 2.3618325987155618e-33
    vertex 27.349184719828678 8.449689783217025 0.0
  endloop
endfacet
facet normal 1.2093940987047038e-17 -1.990147213122545e-18 -1.0
  outer loop
    vertex 27.914870144777918 18.914870144777936 2.3618325987155618e-33
    vertex 28.763398282201788 26.834466094067263 -7.064104253839259e-16
    vertex 35.834466094067245 26.83446609406727 0.0
  endloop
endfacet
facet normal 1.2093940987047038e-17 -1.990147213122545e-18 -1.0
  outer loop
    vertex 35.834466094067245 26.83446609406727 0.0
    vertex 28.763398282201788 26.834466094067263 -7.064104253839259e-16
    vertex 29.557991395191245 27.870000000000005 -8.645348074057472e-16
  endloop
endfacet
facet normal 1.2093940987047038e-17 -1.990147213122545e-18 -1.0
  outer loop
    vertex 35.834466094067245 26.83446609406727 0.0
    vertex 29.557991395191245 27.870000000000005 -8.645348074057472e-16
    vertex 30.05749350771439 29.075904774487395 -9.63935949411826e-16
  endloop
endfacet
facet normal 1.2093940987047038e-17 -1.990147213122545e-18 -1.0
  outer loop
    vertex 35.834466094067245 26.83446609406727 0.0
    vertex 30.05749350771439 29.075904774487395 -9.63935949411826e-16
    vertex 30.227864376269043 30.369999999999997 -9.978398278426018e-16
  endloop
endfacet
facet normal 1.2093940987047038e-17 -1.990147213122545e-18 -1.0
  outer loop
    vertex 35.834466094067245 26.83446609406727 0.0
    vertex 30.227864376269043 30.369999999999997 -9.978398278426018e-16
    vertex 35.834466094067245 33.90553390593274 0.0
  endloop
endfacet
facet normal 1.2093940987047038e-17 -1.990147213122545e-18 -1.0
  outer loop
    vertex 35.834466094067245 26.83446609406727 0.0
    vertex 35.834466094067245 33.90553390593274 0.0
    vertex 36.6290592070567 32.870000000000005 0.0
  endloop
endfacet
facet normal 1.2093940987047038e-17 -1.990147213122545e-18 -1.0
  outer loop
    vertex 35.834466094067245 26.83446609406727 0.0
    vertex 36.6290592070567 32.870000000000005 0.0
    vertex 36.6290592070567 27.870000000000008 0.0
  endloop
endfacet
facet normal 1.2093940987047038e-17 -1.990147213122545e-18 -1.0
  outer loop
    vertex 36.6290592070567 27.870000000000008 0.0
    vertex 36.6290592070567 32.870000000000005 0.0
    vertex 37.12856131957985 31.66409522551261 0.0
  endloop
endfacet
facet normal 1.2093940987047038e-17 -1.990147213122545e-18 -1.0
  outer loop
    vertex 36.6290592070567 27.870000000000008 0.0
    vertex 37.12856131957985 31.66409522551261 0.0
    vertex 37.12856131957985 29.07590477448741 0.0
  endloop
endfacet
facet normal 1.2093940987047038e-17 -1.990147213122545e-18 -1.0
  outer loop
    vertex 37.12856131957985 29.07590477448741 0.0
    vertex 37.12856131957985 31.66409522551261 0.0
    vertex 37.29893218813451 30.370000000000008 0.0
  endloop
endfacet
facet normal 1.2093940987047038e-17 -1.990147213122545e-18 -1.0
  outer loop
    vertex 27.349184719828678 8.449689783217025 0.0
    vertex 29.68263709774429 17.147103191811564 2.8199664825478975e-15
    vertex 33.00603896932106 14.106544032709408 0.0
  endloop
endfacet
facet normal 1.2093940987047038e-17 -1.990147213122545e-18 -1.0
  outer loop
    vertex 29.68263709774429 17.147103191811564 2.8199664825478975e-15
    vertex 27.349184719828678 8.449689783217025 0.0
    vertex 27.914870144777918 18.914870144777936 2.3618325987155618e-33
  endloop
endfacet
facet normal 1.2093940987047038e-17 -1.990147213122545e-18 -1.0
  outer loop
    vertex 33.00603896932106 14.106544032709408 0.0
    vertex 29.68263709774429 17.147103191811564 2.8199664825478975e-15
    vertex 33.00603896932106 20.470505063388337 2.8199664825478975e-15
  endloop
endfacet
facet normal 1.2093940987047038e-17 -1.990147213122545e-18 -1.0
  outer loop
    vertex 0.24999999999999953 56.849999999999994 0.0
    vertex -0.9999999999999999 56.849999999999994 0.0
    vertex 0.24999999999999953 58.599999999999994 0.0
  endloop
endfacet
facet normal 0.7933533402912359 -0.6087614290087195 -0.0
  outer loop
    vertex 36.6290592070567 27.870000000000008 0.0
    vertex 35.834466094067245 26.83446609406727 10.0
    vertex 35.834466094067245 26.83446609406727 0.0
  endloop
endfacet
facet normal 0.7933533402912359 -0.6087614290087195 -0.0
  outer loop
    vertex 35.834466094067245 26.83446609406727 10.0
    vertex 36.6290592070567 27.870000000000008 0.0
    vertex 36.6290592070567 27.870000000000008 10.0
  endloop
endfacet
facet normal -0.0 1.0 -0.0
  outer loop
    vertex -0.9999999999999999 60.239999999999995 10.0
    vertex 4.499999999999999 60.239999999999995 0.0
    vertex -0.9999999999999999 60.239999999999995 0.0
  endloop
endfacet
facet normal -0.0 1.0 -0.0
  outer loop
    vertex 4.499999999999999 60.239999999999995 0.0
    vertex -0.9999999999999999 60.239999999999995 10.0
    vertex 4.499999999999999 60.239999999999995 10.0
  endloop
endfacet
facet normal 0.08485705729788043 0.9963931351764446 -0.0
  outer loop
    vertex 4.499999999999999 60.239999999999995 10.0
    vertex 5.914565621984245 60.119529603528356 0.0
    vertex 4.499999999999999 60.239999999999995 0.0
  endloop
endfacet
facet normal 0.08485705729788043 0.9963931351764446 -0.0
  outer loop
    vertex 5.914565621984245 60.119529603528356 0.0
    vertex 4.499999999999999 60.239999999999995 10.0
    vertex 5.914565621984245 60.119529603528356 10.0
  endloop
endfacet
facet normal 0.9238795325112865 0.38268343236509017 -0.0
  outer loop
    vertex 36.6290592070567 32.870000000000005 0.0
    vertex 37.12856131957985 31.66409522551261 10.0
    vertex 37.12856131957985 31.66409522551261 0.0
  endloop
endfacet
facet normal 0.9238795325112865 0.38268343236509017 -0.0
  outer loop
    vertex 37.12856131957985 31.66409522551261 10.0
    vertex 36.6290592070567 32.870000000000005 0.0
    vertex 36.6290592070567 32.870000000000005 10.0
  endloop
endfacet
facet normal 0.7071067811865478 -0.7071067811865472 -0.0
  outer loop
    vertex 22.540858607760157 13.54085860776017 -5.275837763772986e-19
    vertex 12.535533905932736 3.5355339059327386 10.0
    vertex 12.535533905932736 3.5355339059327386 0.0
  endloop
endfacet
facet normal 0.7071067811865478 -0.7071067811865472 -0.0
  outer loop
    vertex 12.535533905932736 3.5355339059327386 10.0
    vertex 22.540858607760157 13.54085860776017 -5.275837763772986e-19
    vertex 22.540858607760157 13.54085860776017 10.0
  endloop
endfacet
facet normal 0.7071067811865476 0.7071067811865475 -0.0
  outer loop
    vertex 13.035533905932734 56.704466094067264 0.0
    vertex 35.834466094067245 33.90553390593274 10.0
    vertex 35.834466094067245 33.90553390593274 0.0
  endloop
endfacet
facet normal 0.7071067811865476 0.7071067811865475 -0.0
  outer loop
    vertex 35.834466094067245 33.90553390593274 10.0
    vertex 13.035533905932734 56.704466094067264 0.0
    vertex 13.035533905932734 56.704466094067264 10.0
  endloop
endfacet
facet normal 0.7933533402912359 0.6087614290087195 -0.0
  outer loop
    vertex 35.834466094067245 33.90553390593274 0.0
    vertex 36.6290592070567 32.870000000000005 10.0
    vertex 36.6290592070567 32.870000000000005 0.0
  endloop
endfacet
facet normal 0.7933533402912359 0.6087614290087195 -0.0
  outer loop
    vertex 36.6290592070567 32.870000000000005 10.0
    vertex 35.834466094067245 33.90553390593274 0.0
    vertex 35.834466094067245 33.90553390593274 10.0
  endloop
endfacet
facet normal 0.9914448613738105 0.13052619222005188 -0.0
  outer loop
    vertex 37.12856131957985 31.66409522551261 0.0
    vertex 37.29893218813451 30.370000000000008 10.0
    vertex 37.29893218813451 30.370000000000008 0.0
  endloop
endfacet
facet normal 0.9914448613738105 0.13052619222005188 -0.0
  outer loop
    vertex 37.29893218813451 30.370000000000008 10.0
    vertex 37.12856131957985 31.66409522551261 0.0
    vertex 37.12856131957985 31.66409522551261 10.0
  endloop
endfacet
facet normal 0.9914448613738105 -0.13052619222005188 -0.0
  outer loop
    vertex 37.29893218813451 30.370000000000008 0.0
    vertex 37.12856131957985 29.07590477448741 10.0
    vertex 37.12856131957985 29.07590477448741 0.0
  endloop
endfacet
facet normal 0.9914448613738105 -0.13052619222005188 -0.0
  outer loop
    vertex 37.12856131957985 29.07590477448741 10.0
    vertex 37.29893218813451 30.370000000000008 0.0
    vertex 37.29893218813451 30.370000000000008 10.0
  endloop
endfacet
facet normal 0.9238795325112873 -0.3826834323650888 -0.0
  outer loop
    vertex 37.12856131957985 29.07590477448741 0.0
    vertex 36.6290592070567 27.870000000000008 10.0
    vertex 36.6290592070567 27.870000000000008 0.0
  endloop
endfacet
facet normal 0.9238795325112873 -0.3826834323650888 -0.0
  outer loop
    vertex 36.6290592070567 27.870000000000008 10.0
    vertex 37.12856131957985 29.07590477448741 0.0
    vertex 37.12856131957985 29.07590477448741 10.0
  endloop
endfacet
facet normal 0.7071067811865479 -0.7071067811865472 -0.0
  outer loop
    vertex 35.834466094067245 26.83446609406727 0.0
    vertex 27.914870144777918 18.914870144777936 10.0
    vertex 27.914870144777918 18.914870144777936 2.3618325987155618e-33
  endloop
endfacet
facet normal 0.7071067811865479 -0.7071067811865472 -0.0
  outer loop
    vertex 27.914870144777918 18.914870144777936 10.0
    vertex 35.834466094067245 26.83446609406727 0.0
    vertex 35.834466094067245 26.83446609406727 10.0
  endloop
endfacet
facet normal 0.6445533419641227 0.7645593432578539 -0.0
  outer loop
    vertex 11.95009952791698 57.61952960352836 10.0
    vertex 13.035533905932734 56.704466094067264 0.0
    vertex 11.95009952791698 57.61952960352836 0.0
  endloop
endfacet
facet normal 0.6445533419641227 0.7645593432578539 -0.0
  outer loop
    vertex 13.035533905932734 56.704466094067264 0.0
    vertex 11.95009952791698 57.61952960352836 10.0
    vertex 13.035533905932734 56.704466094067264 10.0
  endloop
endfacet
facet normal 0.4324221780673746 -0.9016712593376078 0.0
  outer loop
    vertex 10.097893971888562 1.7677669529663693 10.0
    vertex 8.571067811865476 1.0355339059327375 0.0
    vertex 10.097893971888562 1.7677669529663693 0.0
  endloop
endfacet
facet normal 0.4324221780673746 -0.9016712593376078 0.0
  outer loop
    vertex 8.571067811865476 1.0355339059327375 0.0
    vertex 10.097893971888562 1.7677669529663693 10.0
    vertex 8.571067811865476 1.0355339059327375 10.0
  endloop
endfacet
facet normal 0.08485705729787892 -0.9963931351764446 0.0
  outer loop
    vertex 5.414565621984245 0.12047039647164023 10.0
    vertex 3.999999999999999 0.0 0.0
    vertex 5.414565621984245 0.12047039647164023 0.0
  endloop
endfacet
facet normal 0.08485705729787892 -0.9963931351764446 0.0
  outer loop
    vertex 3.999999999999999 0.0 0.0
    vertex 5.414565621984245 0.12047039647164023 10.0
    vertex 3.999999999999999 0.0 10.0
  endloop
endfacet
facet normal 0.2209423826903948 -0.9752868621749661 0.0
  outer loop
    vertex 6.973671727453766 0.4736717274537647 10.0
    vertex 5.414565621984245 0.12047039647164023 0.0
    vertex 6.973671727453766 0.4736717274537647 0.0
  endloop
endfacet
facet normal 0.2209423826903948 -0.9752868621749661 0.0
  outer loop
    vertex 5.414565621984245 0.12047039647164023 0.0
    vertex 6.973671727453766 0.4736717274537647 10.0
    vertex 5.414565621984245 0.12047039647164023 10.0
  endloop
endfacet
facet normal 0.22094238269039063 0.975286862174967 -0.0
  outer loop
    vertex 5.914565621984245 60.119529603528356 10.0
    vertex 7.473671727453763 59.76632827254624 0.0
    vertex 5.914565621984245 60.119529603528356 0.0
  endloop
endfacet
facet normal 0.22094238269039063 0.975286862174967 -0.0
  outer loop
    vertex 7.473671727453763 59.76632827254624 0.0
    vertex 5.914565621984245 60.119529603528356 10.0
    vertex 7.473671727453763 59.76632827254624 10.0
  endloop
endfacet
facet normal 0.5334020967941773 -0.8458618108979594 0.0
  outer loop
    vertex 11.450099527916981 2.6204703964716414 10.0
    vertex 10.097893971888562 1.7677669529663693 0.0
    vertex 11.450099527916981 2.6204703964716414 0.0
  endloop
endfacet
facet normal 0.5334020967941773 -0.8458618108979594 0.0
  outer loop
    vertex 10.097893971888562 1.7677669529663693 0.0
    vertex 11.450099527916981 2.6204703964716414 10.0
    vertex 10.097893971888562 1.7677669529663693 10.0
  endloop
endfacet
facet normal 0.3318092074317439 0.9433465163255325 -0.0
  outer loop
    vertex 7.473671727453763 59.76632827254624 10.0
    vertex 9.071067811865474 59.20446609406726 0.0
    vertex 7.473671727453763 59.76632827254624 0.0
  endloop
endfacet
facet normal 0.3318092074317439 0.9433465163255325 -0.0
  outer loop
    vertex 9.071067811865474 59.20446609406726 0.0
    vertex 7.473671727453763 59.76632827254624 10.0
    vertex 9.071067811865474 59.20446609406726 10.0
  endloop
endfacet
facet normal 0.43242217806736966 0.9016712593376102 -0.0
  outer loop
    vertex 9.071067811865474 59.20446609406726 10.0
    vertex 10.597893971888562 58.47223304703363 0.0
    vertex 9.071067811865474 59.20446609406726 0.0
  endloop
endfacet
facet normal 0.43242217806736966 0.9016712593376102 -0.0
  outer loop
    vertex 10.597893971888562 58.47223304703363 0.0
    vertex 9.071067811865474 59.20446609406726 10.0
    vertex 10.597893971888562 58.47223304703363 10.0
  endloop
endfacet
facet normal 0.6445533419641227 -0.7645593432578539 0.0
  outer loop
    vertex 12.535533905932736 3.5355339059327386 10.0
    vertex 11.450099527916981 2.6204703964716414 0.0
    vertex 12.535533905932736 3.5355339059327386 0.0
  endloop
endfacet
facet normal 0.6445533419641227 -0.7645593432578539 0.0
  outer loop
    vertex 11.450099527916981 2.6204703964716414 0.0
    vertex 12.535533905932736 3.5355339059327386 10.0
    vertex 11.450099527916981 2.6204703964716414 10.0
  endloop
endfacet
facet normal 0.33180920743173997 -0.9433465163255338 0.0
  outer loop
    vertex 8.571067811865476 1.0355339059327375 10.0
    vertex 6.973671727453766 0.4736717274537647 0.0
    vertex 8.571067811865476 1.0355339059327375 0.0
  endloop
endfacet
facet normal 0.33180920743173997 -0.9433465163255338 0.0
  outer loop
    vertex 6.973671727453766 0.4736717274537647 0.0
    vertex 8.571067811865476 1.0355339059327375 10.0
    vertex 6.973671727453766 0.4736717274537647 10.0
  endloop
endfacet
facet normal 0.5334020967941789 0.8458618108979583 -0.0
  outer loop
    vertex 10.597893971888562 58.47223304703363 10.0
    vertex 11.95009952791698 57.61952960352836 0.0
    vertex 10.597893971888562 58.47223304703363 0.0
  endloop
endfacet
facet normal 0.5334020967941789 0.8458618108979583 -0.0
  outer loop
    vertex 11.95009952791698 57.61952960352836 0.0
    vertex 10.597893971888562 58.47223304703363 10.0
    vertex 11.95009952791698 57.61952960352836 10.0
  endloop
endfacet
facet normal 0.0 -1.0 0.0
  outer loop
    vertex 3.999999999999999 0.0 10.0
    vertex 1.9999999999999996 0.0 0.0
    vertex 3.999999999999999 0.0 0.0
  endloop
endfacet
facet normal 0.0 -1.0 0.0
  outer loop
    vertex 1.9999999999999996 0.0 0.0
    vertex 3.999999999999999 0.0 10.0
    vertex 1.9999999999999996 0.0 10.0
  endloop
endfacet
facet normal 1.0 -0.0 -0.0
  outer loop
    vertex 10.999999999999996 46.668932188134505 2.8199664825478975e-15
    vertex 10.999999999999996 14.07106781186548 10.000000000000004
    vertex 10.999999999999996 14.07106781186548 2.8199664825478975e-15
  endloop
endfacet
facet normal 1.0 -0.0 -0.0
  outer loop
    vertex 10.999999999999996 14.07106781186548 10.000000000000004
    vertex 10.999999999999996 46.668932188134505 2.8199664825478975e-15
    vertex 10.999999999999996 46.668932188134505 10.000000000000004
  endloop
endfacet
facet normal -0.7071067811865474 -0.7071067811865477 4.4802361246183674e-32
  outer loop
    vertex 28.76339828220178 33.905533905932735 10.000000000000002
    vertex 14.535533905932738 48.133398282201775 2.116393666657874e-15
    vertex 28.76339828220178 33.905533905932735 -7.064104253839251e-16
  endloop
endfacet
facet normal -0.7071067811865474 -0.7071067811865477 4.4802361246183674e-32
  outer loop
    vertex 14.535533905932738 48.133398282201775 2.116393666657874e-15
    vertex 28.76339828220178 33.905533905932735 10.000000000000002
    vertex 14.535533905932738 48.133398282201775 10.000000000000004
  endloop
endfacet
facet normal -0.9914448613738109 0.1305261922200476 0.0
  outer loop
    vertex 30.227864376269043 30.369999999999997 10.000000000000002
    vertex 30.05749350771439 29.075904774487395 -9.63935949411826e-16
    vertex 30.05749350771439 29.075904774487395 10.000000000000002
  endloop
endfacet
facet normal -0.9914448613738109 0.1305261922200476 0.0
  outer loop
    vertex 30.05749350771439 29.075904774487395 -9.63935949411826e-16
    vertex 30.227864376269043 30.369999999999997 10.000000000000002
    vertex 30.227864376269043 30.369999999999997 -9.978398278426018e-16
  endloop
endfacet
facet normal -0.9914448613738109 -0.1305261922200476 0.0
  outer loop
    vertex 30.05749350771439 31.6640952255126 10.000000000000002
    vertex 30.227864376269043 30.369999999999997 -9.978398278426018e-16
    vertex 30.227864376269043 30.369999999999997 10.000000000000002
  endloop
endfacet
facet normal -0.9914448613738109 -0.1305261922200476 0.0
  outer loop
    vertex 30.227864376269043 30.369999999999997 -9.978398278426018e-16
    vertex 30.05749350771439 31.6640952255126 10.000000000000002
    vertex 30.05749350771439 31.6640952255126 -9.639359494118257e-16
  endloop
endfacet
facet normal 0.0848570572978794 -0.9963931351764446 -2.6876660151765183e-16
  outer loop
    vertex 12.767766952966367 49.231292254090334 10.000000000000004
    vertex 12.035533905932736 49.16893218813451 2.6138947758322237e-15
    vertex 12.76776695296637 49.231292254090334 2.4681800746028856e-15
  endloop
endfacet
facet normal 0.0848570572978794 -0.9963931351764446 -2.6876660151765183e-16
  outer loop
    vertex 12.035533905932736 49.16893218813451 2.6138947758322237e-15
    vertex 12.767766952966367 49.231292254090334 10.000000000000004
    vertex 12.035533905932736 49.168932188134505 10.000000000000004
  endloop
endfacet
facet normal 0.6445533419641241 -0.7645593432578527 -1.2588702645606263e-16
  outer loop
    vertex 12.035533905932736 49.168932188134505 10.000000000000004
    vertex 11.473671727453764 48.69526046068074 2.725705598630786e-15
    vertex 12.035533905932736 49.16893218813451 2.6138947758322237e-15
  endloop
endfacet
facet normal 0.6445533419641241 -0.7645593432578527 -1.2588702645606263e-16
  outer loop
    vertex 11.473671727453764 48.69526046068074 2.725705598630786e-15
    vertex 12.035533905932736 49.168932188134505 10.000000000000004
    vertex 11.473671727453763 48.69526046068074 10.000000000000004
  endloop
endfacet
facet normal 0.9947729510558513 -0.1021115852762703 7.027859135293719e-17
  outer loop
    vertex 11.12047039647164 47.84255701717547 2.795992820200971e-15
    vertex 10.999999999999996 46.668932188134505 10.000000000000004
    vertex 10.999999999999996 46.668932188134505 2.8199664825478975e-15
  endloop
endfacet
facet normal 0.9947729510558513 -0.1021115852762703 7.027859135293719e-17
  outer loop
    vertex 10.999999999999996 46.668932188134505 10.000000000000004
    vertex 11.12047039647164 47.84255701717547 2.795992820200971e-15
    vertex 11.120470396471639 47.84255701717547 10.000000000000004
  endloop
endfacet
facet normal -0.6312069050459884 -0.7756144938191037 -8.830381019702149e-17
  outer loop
    vertex 14.535533905932738 48.133398282201775 10.000000000000004
    vertex 13.620470396471642 48.87809092310821 2.2984917110266213e-15
    vertex 14.535533905932738 48.133398282201775 2.116393666657874e-15
  endloop
endfacet
facet normal -0.6312069050459884 -0.7756144938191037 -8.830381019702149e-17
  outer loop
    vertex 13.620470396471642 48.87809092310821 2.2984917110266213e-15
    vertex 14.535533905932738 48.133398282201775 10.000000000000004
    vertex 13.62047039647164 48.87809092310821 10.000000000000004
  endloop
endfacet
facet normal -0.38268343236508834 -0.9238795325112875 -1.0685060174367607e-16
  outer loop
    vertex 13.62047039647164 48.87809092310821 10.000000000000004
    vertex 12.76776695296637 49.231292254090334 2.4681800746028856e-15
    vertex 13.620470396471642 48.87809092310821 2.2984917110266213e-15
  endloop
endfacet
facet normal -0.38268343236508834 -0.9238795325112875 -1.0685060174367607e-16
  outer loop
    vertex 12.76776695296637 49.231292254090334 2.4681800746028856e-15
    vertex 13.62047039647164 48.87809092310821 10.000000000000004
    vertex 12.767766952966367 49.231292254090334 10.000000000000004
  endloop
endfacet
facet normal -0.923879532511285 -0.38268343236509395 3.67344247332222e-32
  outer loop
    vertex 29.557991395191237 32.87 10.000000000000002
    vertex 30.05749350771439 31.6640952255126 -9.639359494118257e-16
    vertex 30.05749350771439 31.6640952255126 10.000000000000002
  endloop
endfacet
facet normal -0.923879532511285 -0.38268343236509395 3.67344247332222e-32
  outer loop
    vertex 30.05749350771439 31.6640952255126 -9.639359494118257e-16
    vertex 29.557991395191237 32.87 10.000000000000002
    vertex 29.557991395191237 32.87 -8.645348074057469e-16
  endloop
endfacet
facet normal -0.9238795325112865 0.3826834323650903 0.0
  outer loop
    vertex 30.05749350771439 29.075904774487395 10.000000000000002
    vertex 29.557991395191245 27.870000000000005 -8.645348074057472e-16
    vertex 29.557991395191245 27.870000000000005 10.000000000000002
  endloop
endfacet
facet normal -0.9238795325112865 0.3826834323650903 0.0
  outer loop
    vertex 29.557991395191245 27.870000000000005 -8.645348074057472e-16
    vertex 30.05749350771439 29.075904774487395 10.000000000000002
    vertex 30.05749350771439 29.075904774487395 -9.63935949411826e-16
  endloop
endfacet
facet normal -0.7071067811865474 0.7071067811865477 6.331005316527663e-17
  outer loop
    vertex 14.535533905932734 12.606601717798219 2.116393666657874e-15
    vertex 28.763398282201788 26.834466094067263 10.000000000000002
    vertex 28.763398282201788 26.834466094067263 -7.064104253839259e-16
  endloop
endfacet
facet normal -0.7071067811865474 0.7071067811865477 6.331005316527663e-17
  outer loop
    vertex 28.763398282201788 26.834466094067263 10.000000000000002
    vertex 14.535533905932734 12.606601717798219 2.116393666657874e-15
    vertex 14.535533905932738 12.606601717798219 10.000000000000004
  endloop
endfacet
facet normal -0.7933533402912359 0.6087614290087195 0.0
  outer loop
    vertex 29.557991395191245 27.870000000000005 10.000000000000002
    vertex 28.763398282201788 26.834466094067263 -7.064104253839259e-16
    vertex 28.763398282201788 26.834466094067263 10.000000000000002
  endloop
endfacet
facet normal -0.7933533402912359 0.6087614290087195 0.0
  outer loop
    vertex 28.763398282201788 26.834466094067263 -7.064104253839259e-16
    vertex 29.557991395191245 27.870000000000005 10.000000000000002
    vertex 29.557991395191245 27.870000000000005 -8.645348074057472e-16
  endloop
endfacet
facet normal 0.9238795325112867 -0.38268343236509 1.9516412791071574e-16
  outer loop
    vertex 11.473671727453764 48.69526046068074 2.725705598630786e-15
    vertex 11.120470396471639 47.84255701717547 10.000000000000004
    vertex 11.12047039647164 47.84255701717547 2.795992820200971e-15
  endloop
endfacet
facet normal 0.9238795325112867 -0.38268343236509 1.9516412791071574e-16
  outer loop
    vertex 11.120470396471639 47.84255701717547 10.000000000000004
    vertex 11.473671727453764 48.69526046068074 2.725705598630786e-15
    vertex 11.473671727453763 48.69526046068074 10.000000000000004
  endloop
endfacet
facet normal 0.9238795325112867 0.3826834323650898 2.6768088963356276e-17
  outer loop
    vertex 11.473671727453763 12.044739539319245 2.725705598630786e-15
    vertex 11.120470396471637 12.897442982824517 10.000000000000004
    vertex 11.473671727453763 12.044739539319243 10.000000000000004
  endloop
endfacet
facet normal 0.9238795325112867 0.3826834323650898 2.6768088963356276e-17
  outer loop
    vertex 11.120470396471637 12.897442982824517 10.000000000000004
    vertex 11.473671727453763 12.044739539319245 2.725705598630786e-15
    vertex 11.120470396471637 12.897442982824517 2.795992820200971e-15
  endloop
endfacet
facet normal -0.6312069050459878 0.7756144938191045 1.4472691257499826e-16
  outer loop
    vertex 13.620470396471637 11.86190907689178 2.2984917110266213e-15
    vertex 14.535533905932738 12.606601717798219 10.000000000000004
    vertex 14.535533905932734 12.606601717798219 2.116393666657874e-15
  endloop
endfacet
facet normal -0.6312069050459878 0.7756144938191045 1.4472691257499826e-16
  outer loop
    vertex 14.535533905932738 12.606601717798219 10.000000000000004
    vertex 13.620470396471637 11.86190907689178 2.2984917110266213e-15
    vertex 13.620470396471637 11.861909076891779 10.000000000000004
  endloop
endfacet
facet normal -0.3826834323650894 0.9238795325112868 1.1838181545060544e-16
  outer loop
    vertex 12.767766952966364 11.508707745909655 2.4681800746028856e-15
    vertex 13.620470396471637 11.861909076891779 10.000000000000004
    vertex 13.620470396471637 11.86190907689178 2.2984917110266213e-15
  endloop
endfacet
facet normal -0.3826834323650894 0.9238795325112868 1.1838181545060544e-16
  outer loop
    vertex 13.620470396471637 11.861909076891779 10.000000000000004
    vertex 12.767766952966364 11.508707745909655 2.4681800746028856e-15
    vertex 12.767766952966367 11.508707745909655 10.000000000000004
  endloop
endfacet
facet normal -0.7933533402912359 -0.6087614290087195 0.0
  outer loop
    vertex 28.76339828220178 33.905533905932735 10.000000000000002
    vertex 29.557991395191237 32.87 -8.645348074057469e-16
    vertex 29.557991395191237 32.87 10.000000000000002
  endloop
endfacet
facet normal -0.7933533402912359 -0.6087614290087195 0.0
  outer loop
    vertex 29.557991395191237 32.87 -8.645348074057469e-16
    vertex 28.76339828220178 33.905533905932735 10.000000000000002
    vertex 28.76339828220178 33.905533905932735 -7.064104253839251e-16
  endloop
endfacet
facet normal 0.08485705729787947 0.9963931351764446 -1.828169208745305e-17
  outer loop
    vertex 12.035533905932734 11.57106781186548 2.6138947758322237e-15
    vertex 12.767766952966367 11.508707745909655 10.000000000000004
    vertex 12.767766952966364 11.508707745909655 2.4681800746028856e-15
  endloop
endfacet
facet normal 0.08485705729787947 0.9963931351764446 -1.828169208745305e-17
  outer loop
    vertex 12.767766952966367 11.508707745909655 10.000000000000004
    vertex 12.035533905932734 11.57106781186548 2.6138947758322237e-15
    vertex 12.035533905932736 11.57106781186548 10.000000000000004
  endloop
endfacet
facet normal 0.9947729510558515 0.10211158527626882 -0.0
  outer loop
    vertex 10.999999999999996 14.07106781186548 2.8199664825478975e-15
    vertex 11.120470396471637 12.897442982824517 10.000000000000004
    vertex 11.120470396471637 12.897442982824517 2.795992820200971e-15
  endloop
endfacet
facet normal 0.9947729510558515 0.10211158527626882 -0.0
  outer loop
    vertex 11.120470396471637 12.897442982824517 10.000000000000004
    vertex 10.999999999999996 14.07106781186548 2.8199664825478975e-15
    vertex 10.999999999999996 14.07106781186548 10.000000000000004
  endloop
endfacet
facet normal 0.6445533419641216 0.7645593432578547 8.394226264027677e-18
  outer loop
    vertex 11.473671727453763 12.044739539319245 2.725705598630786e-15
    vertex 12.035533905932736 11.57106781186548 10.000000000000004
    vertex 12.035533905932734 11.57106781186548 2.6138947758322237e-15
  endloop
endfacet
facet normal 0.6445533419641216 0.7645593432578547 8.394226264027677e-18
  outer loop
    vertex 12.035533905932736 11.57106781186548 10.000000000000004
    vertex 11.473671727453763 12.044739539319245 2.725705598630786e-15
    vertex 11.473671727453763 12.044739539319243 10.000000000000004
  endloop
endfacet
facet normal -0.0015675922471248727 0.9238783973650047 -0.38268296217210573
  outer loop
    vertex 7.0 52.37755589930272 19.443166508056898
    vertex 9.5 52.72221235694369 20.264999999999997
    vertex 9.5 52.37755589930272 19.432925705603694
  endloop
endfacet
facet normal -0.0015675922471248727 0.9238783973650047 -0.38268296217210573
  outer loop
    vertex 9.5 52.72221235694369 20.264999999999997
    vertex 7.0 52.37755589930272 19.443166508056898
    vertex 7.0 52.72221235694369 20.275240802453204
  endloop
endfacet
facet normal -0.0005346771033712565 0.9914447196568671 -0.13052617356266782
  outer loop
    vertex 7.0 52.26 18.550240802453203
    vertex 9.5 52.37755589930272 19.432925705603694
    vertex 9.5 52.26 18.54
  endloop
endfacet
facet normal -0.0005346771033712565 0.9914447196568671 -0.13052617356266782
  outer loop
    vertex 9.5 52.37755589930272 19.432925705603694
    vertex 7.0 52.26 18.550240802453203
    vertex 7.0 52.37755589930272 19.443166508056898
  endloop
endfacet
facet normal -0.003110044077772626 0.7944031435150732 -0.6073828884642736
  outer loop
    vertex 7.0 52.72221235694369 20.275240802453204
    vertex 9.5 53.270481604906415 20.979518395093585
    vertex 9.5 52.72221235694369 20.264999999999997
  endloop
endfacet
facet normal -0.003110044077772626 0.7944031435150732 -0.6073828884642736
  outer loop
    vertex 9.5 53.270481604906415 20.979518395093585
    vertex 7.0 52.72221235694369 20.275240802453204
    vertex 6.999979025544971 53.270481604906415 20.994879684691497
  endloop
endfacet
facet normal 2.819966482547897e-16 1.0 -0.0
  outer loop
    vertex -0.9999999999999999 2.5300000000000002 10.0
    vertex 0.25000000000000017 2.53 -8.739711803885484e-32
    vertex -0.9999999999999999 2.5300000000000002 -8.739711803885484e-32
  endloop
endfacet
facet normal 2.819966482547897e-16 1.0 -0.0
  outer loop
    vertex 0.25000000000000017 2.53 -8.739711803885484e-32
    vertex -0.9999999999999999 2.5300000000000002 10.0
    vertex 0.25000000000000017 2.53 10.0
  endloop
endfacet
facet normal -1.0 5.34084561088617e-17 0.0
  outer loop
    vertex 2.0 58.599999999999994 10.0
    vertex 1.9999999999999998 51.99999999999999 0.0
    vertex 1.9999999999999998 51.99999999999999 10.0
  endloop
endfacet
facet normal -1.0 5.34084561088617e-17 0.0
  outer loop
    vertex 1.9999999999999998 51.99999999999999 0.0
    vertex 2.0 58.599999999999994 10.0
    vertex 2.0 58.599999999999994 0.0
  endloop
endfacet
facet normal 1.0 -0.0 -0.0
  outer loop
    vertex 0.25000000000000017 2.53 -8.739711803885484e-32
    vertex 0.25000000000000017 1.9999999999999998 10.0
    vertex 0.25000000000000017 1.9999999999999998 -8.739711803885484e-32
  endloop
endfacet
facet normal 1.0 -0.0 -0.0
  outer loop
    vertex 0.25000000000000017 1.9999999999999998 10.0
    vertex 0.25000000000000017 2.53 -8.739711803885484e-32
    vertex 0.25000000000000017 2.53 10.0
  endloop
endfacet
facet normal -1.0 0.0 0.0
  outer loop
    vertex -0.9999999999999999 60.239999999999995 10.0
    vertex -0.9999999999999999 56.849999999999994 0.0
    vertex -0.9999999999999999 56.849999999999994 10.0
  endloop
endfacet
facet normal -1.0 0.0 0.0
  outer loop
    vertex -0.9999999999999999 56.849999999999994 0.0
    vertex -0.9999999999999999 60.239999999999995 10.0
    vertex -0.9999999999999999 60.239999999999995 0.0
  endloop
endfacet
facet normal 1.0 -0.0 -0.0
  outer loop
    vertex 33.00603896932106 20.470505063388337 2.8199664825478975e-15
    vertex 33.00603896932106 14.106544032709408 10.0
    vertex 33.00603896932106 14.106544032709408 0.0
  endloop
endfacet
facet normal 1.0 -0.0 -0.0
  outer loop
    vertex 33.00603896932106 14.106544032709408 10.0
    vertex 33.00603896932106 20.470505063388337 2.8199664825478975e-15
    vertex 33.00603896932106 20.470505063388337 10.0
  endloop
endfacet
facet normal -0.554700196225229 -0.8320502943378437 0.0
  outer loop
    vertex 1.9999999999999996 0.0 0.0
    vertex -0.9999999999999999 1.9999999999999996 10.0
    vertex -0.9999999999999999 1.9999999999999996 -8.739711803885484e-32
  endloop
endfacet
facet normal -0.554700196225229 -0.8320502943378437 0.0
  outer loop
    vertex -0.9999999999999999 1.9999999999999996 10.0
    vertex 1.9999999999999996 0.0 0.0
    vertex 1.9999999999999996 0.0 10.0
  endloop
endfacet
facet normal 0.7071067811865476 -0.7071067811865476 0.0
  outer loop
    vertex 33.00603896932106 14.106544032709408 0.0
    vertex 27.349184719828678 8.449689783217025 10.0
    vertex 27.349184719828678 8.449689783217025 0.0
  endloop
endfacet
facet normal 0.7071067811865476 -0.7071067811865476 0.0
  outer loop
    vertex 27.349184719828678 8.449689783217025 10.0
    vertex 33.00603896932106 14.106544032709408 0.0
    vertex 33.00603896932106 14.106544032709408 10.0
  endloop
endfacet
facet normal 0.004061242894567316 0.13052511578608525 0.9914366850460904
  outer loop
    vertex 9.5 54.817074294396306 15.207555899302713
    vertex 7.0 55.71 15.100240802453206
    vertex 7.0 54.817074294396306 15.217796701755919
  endloop
endfacet
facet normal 0.004061242894567316 0.13052511578608525 0.9914366850460904
  outer loop
    vertex 7.0 55.71 15.100240802453206
    vertex 9.5 54.817074294396306 15.207555899302713
    vertex 9.5 55.71 15.089999999999998
  endloop
endfacet
facet normal -1.0 0.0 0.0
  outer loop
    vertex 5.999999999999999 51.99999999999999 10.0
    vertex 5.999999999999999 7.999999999999999 0.0
    vertex 5.999999999999999 7.999999999999999 10.0
  endloop
endfacet
facet normal -1.0 0.0 0.0
  outer loop
    vertex 5.999999999999999 7.999999999999999 0.0
    vertex 5.999999999999999 51.99999999999999 10.0
    vertex 5.999999999999999 51.99999999999999 0.0
  endloop
endfacet
facet normal 0.0 -1.0 0.0
  outer loop
    vertex 27.349184719828678 8.449689783217025 10.0
    vertex 20.985223689149752 8.449689783217025 1.4099832412739487e-15
    vertex 27.349184719828678 8.449689783217025 0.0
  endloop
endfacet
facet normal 0.0 -1.0 0.0
  outer loop
    vertex 20.985223689149752 8.449689783217025 1.4099832412739487e-15
    vertex 27.349184719828678 8.449689783217025 10.0
    vertex 20.985223689149752 8.449689783217025 10.0
  endloop
endfacet
facet normal -1.0 0.0 0.0
  outer loop
    vertex -0.9999999999999999 2.5300000000000002 10.0
    vertex -0.9999999999999999 1.9999999999999996 -8.739711803885484e-32
    vertex -0.9999999999999999 1.9999999999999996 10.0
  endloop
endfacet
facet normal -1.0 0.0 0.0
  outer loop
    vertex -0.9999999999999999 1.9999999999999996 -8.739711803885484e-32
    vertex -0.9999999999999999 2.5300000000000002 10.0
    vertex -0.9999999999999999 2.5300000000000002 -8.739711803885484e-32
  endloop
endfacet
facet normal -1.0 0.0 0.0
  outer loop
    vertex 1.9999999999999998 7.999999999999999 10.0
    vertex 1.9999999999999998 1.9999999999999998 0.0
    vertex 1.9999999999999998 1.9999999999999998 10.0
  endloop
endfacet
facet normal -1.0 0.0 0.0
  outer loop
    vertex 1.9999999999999998 1.9999999999999998 0.0
    vertex 1.9999999999999998 7.999999999999999 10.0
    vertex 1.9999999999999998 7.999999999999999 0.0
  endloop
endfacet
facet normal -0.0 1.0 -0.0
  outer loop
    vertex 0.25000000000000017 1.9999999999999998 10.0
    vertex 1.9999999999999998 1.9999999999999998 0.0
    vertex 0.25000000000000017 1.9999999999999998 -8.739711803885484e-32
  endloop
endfacet
facet normal -0.0 1.0 -0.0
  outer loop
    vertex 1.9999999999999998 1.9999999999999998 0.0
    vertex 0.25000000000000017 1.9999999999999998 10.0
    vertex 1.9999999999999998 1.9999999999999998 10.0
  endloop
endfacet
facet normal -0.0 -1.0 -0.0
  outer loop
    vertex 0.24999999999999953 56.849999999999994 10.0
    vertex -0.9999999999999999 56.849999999999994 0.0
    vertex 0.24999999999999953 56.849999999999994 0.0
  endloop
endfacet
facet normal -0.0 -1.0 -0.0
  outer loop
    vertex -0.9999999999999999 56.849999999999994 0.0
    vertex 0.24999999999999953 56.849999999999994 10.0
    vertex -0.9999999999999999 56.849999999999994 10.0
  endloop
endfacet
facet normal -0.0 -1.0 -0.0
  outer loop
    vertex 2.0 58.599999999999994 10.0
    vertex 0.24999999999999953 58.599999999999994 0.0
    vertex 2.0 58.599999999999994 0.0
  endloop
endfacet
facet normal -0.0 -1.0 -0.0
  outer loop
    vertex 0.24999999999999953 58.599999999999994 0.0
    vertex 2.0 58.599999999999994 10.0
    vertex 0.24999999999999953 58.599999999999994 10.0
  endloop
endfacet
facet normal -0.0 1.0 0.0
  outer loop
    vertex 1.9999999999999998 7.999999999999999 10.0
    vertex 5.999999999999999 7.999999999999999 0.0
    vertex 1.9999999999999998 7.999999999999999 0.0
  endloop
endfacet
facet normal -0.0 1.0 0.0
  outer loop
    vertex 5.999999999999999 7.999999999999999 0.0
    vertex 1.9999999999999998 7.999999999999999 10.0
    vertex 5.999999999999999 7.999999999999999 10.0
  endloop
endfacet
facet normal -0.0 -1.0 -0.0
  outer loop
    vertex 5.999999999999999 51.99999999999999 10.0
    vertex 1.9999999999999998 51.99999999999999 0.0
    vertex 5.999999999999999 51.99999999999999 0.0
  endloop
endfacet
facet normal -0.0 -1.0 -0.0
  outer loop
    vertex 1.9999999999999998 51.99999999999999 0.0
    vertex 5.999999999999999 51.99999999999999 10.0
    vertex 1.9999999999999998 51.99999999999999 10.0
  endloop
endfacet
facet normal 1.0 0.0 0.0
  outer loop
    vertex 0.24999999999999953 58.599999999999994 0.0
    vertex 0.24999999999999953 56.849999999999994 10.0
    vertex 0.24999999999999953 56.849999999999994 0.0
  endloop
endfacet
facet normal 1.0 0.0 0.0
  outer loop
    vertex 0.24999999999999953 56.849999999999994 10.0
    vertex 0.24999999999999953 58.599999999999994 0.0
    vertex 0.24999999999999953 58.599999999999994 10.0
  endloop
endfacet
facet normal 0.0037844800117040503 0.3826806919039267 0.923872916452784
  outer loop
    vertex 9.5 53.985 15.552212356943684
    vertex 7.0 54.817074294396306 15.217796701755919
    vertex 7.0 53.985 15.56245315939689
  endloop
endfacet
facet normal 0.0037844800117040503 0.3826806919039267 0.923872916452784
  outer loop
    vertex 7.0 54.817074294396306 15.217796701755919
    vertex 9.5 53.985 15.552212356943684
    vertex 9.5 54.817074294396306 15.207555899302713
  endloop
endfacet
facet normal 0.004061242894567311 -0.13052511578608988 0.9914366850460897
  outer loop
    vertex 7.0 55.71 15.100240802453206
    vertex 8.607074294396298 56.6029257056037 15.211213609605307
    vertex 6.1070742943963 56.6029257056037 15.221454412058513
  endloop
endfacet
facet normal 0.004061242894567311 -0.13052511578608988 0.9914366850460897
  outer loop
    vertex 8.607074294396298 56.6029257056037 15.211213609605307
    vertex 7.0 55.71 15.100240802453206
    vertex 9.5 55.71 15.089999999999998
  endloop
endfacet
facet normal 0.0031844120713811564 -0.6290189631415523 0.7773834340453147
  outer loop
    vertex 5.274999999999994 57.43500000000001 15.569519313089604
    vertex 7.000000000000003 58.21 16.1895435694638
    vertex 4.500000000000004 58.21 16.19978437191701
  endloop
endfacet
facet normal 0.0031844120713811564 -0.6290189631415523 0.7773834340453147
  outer loop
    vertex 7.000000000000003 58.21 16.1895435694638
    vertex 5.274999999999994 57.43500000000001 15.569519313089604
    vertex 7.7749999999999915 57.43500000000001 15.559278510636398
  endloop
endfacet
facet normal 0.003784480011704059 -0.38268069190392495 0.9238729164527848
  outer loop
    vertex 6.1070742943963 56.6029257056037 15.221454412058513
    vertex 7.7749999999999915 57.43500000000001 15.559278510636398
    vertex 5.274999999999994 57.43500000000001 15.569519313089604
  endloop
endfacet
facet normal 0.003784480011704059 -0.38268069190392495 0.9238729164527848
  outer loop
    vertex 7.7749999999999915 57.43500000000001 15.559278510636398
    vertex 6.1070742943963 56.6029257056037 15.221454412058513
    vertex 8.607074294396298 56.6029257056037 15.211213609605307
  endloop
endfacet
facet normal 0.0005346771033712563 0.9914447196568671 0.13052617356266744
  outer loop
    vertex 7.0 52.37755589930272 17.657315096849505
    vertex 9.5 52.26 18.54
    vertex 9.5 52.37755589930272 17.6470742943963
  endloop
endfacet
facet normal 0.0005346771033712563 0.9914447196568671 0.13052617356266744
  outer loop
    vertex 9.5 52.26 18.54
    vertex 7.0 52.37755589930272 17.657315096849505
    vertex 7.0 52.26 18.550240802453203
  endloop
endfacet
facet normal -0.9999999999998423 -2.529941746076607e-08 -5.609934350792541e-07
  outer loop
    vertex 6.999979025544971 53.270481604906415 20.994879684691497
    vertex 7.0 3.817 10.0
    vertex 7.0 3.817 21.0
  endloop
endfacet
facet normal -0.9999999999998423 -2.529941746076607e-08 -5.609934350792541e-07
  outer loop
    vertex 7.0 3.817 10.0
    vertex 6.999979025544971 53.270481604906415 20.994879684691497
    vertex 7.0 52.72221235694369 20.275240802453204
  endloop
endfacet
facet normal -0.9999999999998423 -2.529941746076607e-08 -5.609934350792541e-07
  outer loop
    vertex 7.0 3.817 10.0
    vertex 7.0 52.72221235694369 20.275240802453204
    vertex 7.0 52.37755589930272 19.443166508056898
  endloop
endfacet
facet normal -0.9999999999998423 -2.529941746076607e-08 -5.609934350792541e-07
  outer loop
    vertex 7.0 3.817 10.0
    vertex 7.0 52.37755589930272 19.443166508056898
    vertex 7.0 52.26 18.550240802453203
  endloop
endfacet
facet normal -0.9999999999998423 -2.529941746076607e-08 -5.609934350792541e-07
  outer loop
    vertex 7.0 3.817 10.0
    vertex 7.0 52.72221235694369 16.825240802453205
    vertex 7.0 55.71 10.0
  endloop
endfacet
facet normal -0.9999999999998423 -2.529941746076607e-08 -5.609934350792541e-07
  outer loop
    vertex 7.0 52.72221235694369 16.825240802453205
    vertex 7.0 3.817 10.0
    vertex 7.0 52.37755589930272 17.657315096849505
  endloop
endfacet
facet normal -0.9999999999998423 -2.529941746076607e-08 -5.609934350792541e-07
  outer loop
    vertex 7.0 52.37755589930272 17.657315096849505
    vertex 7.0 3.817 10.0
    vertex 7.0 52.26 18.550240802453203
  endloop
endfacet
facet normal -0.9999999999998423 -2.529941746076607e-08 -5.609934350792541e-07
  outer loop
    vertex 7.0 55.71 10.0
    vertex 7.0 52.72221235694369 16.825240802453205
    vertex 7.0 53.270481604906415 16.110722407359617
  endloop
endfacet
facet normal -0.9999999999998423 -2.529941746076607e-08 -5.609934350792541e-07
  outer loop
    vertex 7.0 55.71 10.0
    vertex 7.0 53.270481604906415 16.110722407359617
    vertex 7.0 53.985 15.56245315939689
  endloop
endfacet
facet normal -0.9999999999998423 -2.529941746076607e-08 -5.609934350792541e-07
  outer loop
    vertex 7.0 55.71 10.0
    vertex 7.0 53.985 15.56245315939689
    vertex 7.0 54.817074294396306 15.217796701755919
  endloop
endfacet
facet normal -0.9999999999998423 -2.529941746076607e-08 -5.609934350792541e-07
  outer loop
    vertex 7.0 55.71 10.0
    vertex 7.0 54.817074294396306 15.217796701755919
    vertex 7.0 55.71 15.100240802453206
  endloop
endfacet
facet normal 1.0 -0.0 -0.0
  outer loop
    vertex 9.5 55.71 10.0
    vertex 9.5 3.817 21.0
    vertex 9.5 3.817 10.0
  endloop
endfacet
facet normal 1.0 -0.0 -0.0
  outer loop
    vertex 9.5 3.817 21.0
    vertex 9.5 55.71 10.0
    vertex 9.5 52.72221235694369 16.814999999999998
  endloop
endfacet
facet normal 1.0 -0.0 -0.0
  outer loop
    vertex 9.5 3.817 21.0
    vertex 9.5 52.72221235694369 16.814999999999998
    vertex 9.5 52.37755589930272 17.6470742943963
  endloop
endfacet
facet normal 1.0 -0.0 -0.0
  outer loop
    vertex 9.5 3.817 21.0
    vertex 9.5 52.37755589930272 17.6470742943963
    vertex 9.5 52.26 18.54
  endloop
endfacet
facet normal 1.0 -0.0 -0.0
  outer loop
    vertex 9.5 52.72221235694369 16.814999999999998
    vertex 9.5 55.71 10.0
    vertex 9.5 53.270481604906415 16.10048160490641
  endloop
endfacet
facet normal 1.0 -0.0 -0.0
  outer loop
    vertex 9.5 53.270481604906415 16.10048160490641
    vertex 9.5 55.71 10.0
    vertex 9.5 53.985 15.552212356943684
  endloop
endfacet
facet normal 1.0 -0.0 -0.0
  outer loop
    vertex 9.5 53.985 15.552212356943684
    vertex 9.5 55.71 10.0
    vertex 9.5 54.817074294396306 15.207555899302713
  endloop
endfacet
facet normal 1.0 -0.0 -0.0
  outer loop
    vertex 9.5 54.817074294396306 15.207555899302713
    vertex 9.5 55.71 10.0
    vertex 9.5 55.71 15.089999999999998
  endloop
endfacet
facet normal 1.0 -0.0 -0.0
  outer loop
    vertex 9.5 3.817 21.0
    vertex 9.5 52.72221235694369 20.264999999999997
    vertex 9.5 53.270481604906415 20.979518395093585
  endloop
endfacet
facet normal 1.0 -0.0 -0.0
  outer loop
    vertex 9.5 52.72221235694369 20.264999999999997
    vertex 9.5 3.817 21.0
    vertex 9.5 52.37755589930272 19.432925705603694
  endloop
endfacet
facet normal 1.0 -0.0 -0.0
  outer loop
    vertex 9.5 52.37755589930272 19.432925705603694
    vertex 9.5 3.817 21.0
    vertex 9.5 52.26 18.54
  endloop
endfacet
facet normal -0.0 1.0 -0.0
  outer loop
    vertex 4.500000000000004 58.21 16.19978437191701
    vertex 7.000000000000001 58.21 10.0
    vertex 4.500000000000004 58.21 10.0
  endloop
endfacet
facet normal -0.0 1.0 -0.0
  outer loop
    vertex 7.000000000000001 58.21 10.0
    vertex 4.500000000000004 58.21 16.19978437191701
    vertex 7.000000000000003 58.21 16.1895435694638
  endloop
endfacet
facet normal 0.0 -1.0 0.0
  outer loop
    vertex 9.5 3.817 21.0
    vertex 7.0 3.817 10.0
    vertex 9.5 3.817 10.0
  endloop
endfacet
facet normal 0.0 -1.0 0.0
  outer loop
    vertex 7.0 3.817 10.0
    vertex 9.5 3.817 21.0
    vertex 7.0 3.817 21.0
  endloop
endfacet
facet normal -0.7071067811865476 -0.7071067811865476 -1.8815397511045442e-16
  outer loop
    vertex 6.1070742943963 56.6029257056037 15.221454412058513
    vertex 7.0 55.71 10.0
    vertex 7.0 55.71 15.100240802453206
  endloop
endfacet
facet normal -0.7071067811865476 -0.7071067811865476 -1.8815397511045442e-16
  outer loop
    vertex 7.0 55.71 10.0
    vertex 6.1070742943963 56.6029257056037 15.221454412058513
    vertex 4.500000000000004 58.21 10.0
  endloop
endfacet
facet normal -0.7071067811865476 -0.7071067811865476 -1.8815397511045442e-16
  outer loop
    vertex 4.500000000000004 58.21 10.0
    vertex 6.1070742943963 56.6029257056037 15.221454412058513
    vertex 5.274999999999994 57.43500000000001 15.569519313089604
  endloop
endfacet
facet normal -0.7071067811865476 -0.7071067811865476 -1.8815397511045442e-16
  outer loop
    vertex 4.500000000000004 58.21 10.0
    vertex 5.274999999999994 57.43500000000001 15.569519313089604
    vertex 4.500000000000004 58.21 16.19978437191701
  endloop
endfacet
facet normal 0.7071067811865471 0.707106781186548 1.6292761342887691e-16
  outer loop
    vertex 7.000000000000003 58.21 16.1895435694638
    vertex 9.5 55.71 10.0
    vertex 7.000000000000001 58.21 10.0
  endloop
endfacet
facet normal 0.7071067811865471 0.707106781186548 1.6292761342887691e-16
  outer loop
    vertex 9.5 55.71 10.0
    vertex 7.000000000000003 58.21 16.1895435694638
    vertex 7.7749999999999915 57.43500000000001 15.559278510636398
  endloop
endfacet
facet normal 0.7071067811865471 0.707106781186548 1.6292761342887691e-16
  outer loop
    vertex 9.5 55.71 10.0
    vertex 7.7749999999999915 57.43500000000001 15.559278510636398
    vertex 8.607074294396298 56.6029257056037 15.211213609605307
  endloop
endfacet
facet normal 0.7071067811865471 0.707106781186548 1.6292761342887691e-16
  outer loop
    vertex 9.5 55.71 10.0
    vertex 8.607074294396298 56.6029257056037 15.211213609605307
    vertex 9.5 55.71 15.089999999999998
  endloop
endfacet
facet normal 0.0024936744608596954 0.7933508735883095 0.6087595362409935
  outer loop
    vertex 7.0 53.270481604906415 16.110722407359617
    vertex 9.5 52.72221235694369 16.814999999999998
    vertex 9.5 53.270481604906415 16.10048160490641
  endloop
endfacet
facet normal 0.0024936744608596954 0.7933508735883095 0.6087595362409935
  outer loop
    vertex 9.5 52.72221235694369 16.814999999999998
    vertex 7.0 53.270481604906415 16.110722407359617
    vertex 7.0 52.72221235694369 16.825240802453205
  endloop
endfacet
facet normal 0.003249812772173192 0.6087582143493536 0.7933491508655771
  outer loop
    vertex 9.5 53.270481604906415 16.10048160490641
    vertex 7.0 53.985 15.56245315939689
    vertex 7.0 53.270481604906415 16.110722407359617
  endloop
endfacet
facet normal 0.003249812772173192 0.6087582143493536 0.7933491508655771
  outer loop
    vertex 7.0 53.985 15.56245315939689
    vertex 9.5 53.270481604906415 16.10048160490641
    vertex 9.5 53.985 15.552212356943684
  endloop
endfacet
facet normal 0.0015675922471248816 0.9238783973650042 0.38268296217210684
  outer loop
    vertex 7.0 52.72221235694369 16.825240802453205
    vertex 9.5 52.37755589930272 17.6470742943963
    vertex 9.5 52.72221235694369 16.814999999999998
  endloop
endfacet
facet normal 0.0015675922471248816 0.9238783973650042 0.38268296217210684
  outer loop
    vertex 9.5 52.37755589930272 17.6470742943963
    vertex 7.0 52.72221235694369 16.825240802453205
    vertex 7.0 52.37755589930272 17.657315096849505
  endloop
endfacet
facet normal 9.856817729308798e-32 1.9424487308329002e-32 1.0
  outer loop
    vertex 1.9999999999999996 0.0 10.0
    vertex -0.9999999999999999 2.5300000000000002 10.0
    vertex -0.9999999999999999 1.9999999999999996 10.0
  endloop
endfacet
facet normal 9.856817729308798e-32 1.9424487308329002e-32 1.0
  outer loop
    vertex -0.9999999999999999 2.5300000000000002 10.0
    vertex 1.9999999999999996 0.0 10.0
    vertex 0.25000000000000017 1.9999999999999998 10.0
  endloop
endfacet
facet normal 9.856817729308798e-32 1.9424487308329002e-32 1.0
  outer loop
    vertex 0.25000000000000017 1.9999999999999998 10.0
    vertex 1.9999999999999996 0.0 10.0
    vertex 1.9999999999999998 1.9999999999999998 10.0
  endloop
endfacet
facet normal 9.856817729308798e-32 1.9424487308329002e-32 1.0
  outer loop
    vertex 1.9999999999999998 1.9999999999999998 10.0
    vertex 1.9999999999999996 0.0 10.0
    vertex 3.999999999999999 0.0 10.0
  endloop
endfacet
facet normal 9.856817729308798e-32 1.9424487308329002e-32 1.0
  outer loop
    vertex 1.9999999999999998 1.9999999999999998 10.0
    vertex 3.999999999999999 0.0 10.0
    vertex 1.9999999999999998 7.999999999999999 10.0
  endloop
endfacet
facet normal 9.856817729308798e-32 1.9424487308329002e-32 1.0
  outer loop
    vertex 1.9999999999999998 7.999999999999999 10.0
    vertex 3.999999999999999 0.0 10.0
    vertex 5.999999999999999 7.999999999999999 10.0
  endloop
endfacet
facet normal 9.856817729308798e-32 1.9424487308329002e-32 1.0
  outer loop
    vertex 5.999999999999999 7.999999999999999 10.0
    vertex 3.999999999999999 0.0 10.0
    vertex 5.414565621984245 0.12047039647164023 10.0
  endloop
endfacet
facet normal 9.856817729308798e-32 1.9424487308329002e-32 1.0
  outer loop
    vertex 5.999999999999999 7.999999999999999 10.0
    vertex 5.414565621984245 0.12047039647164023 10.0
    vertex 6.973671727453766 0.4736717274537647 10.0
  endloop
endfacet
facet normal 9.856817729308798e-32 1.9424487308329002e-32 1.0
  outer loop
    vertex 5.999999999999999 7.999999999999999 10.0
    vertex 6.973671727453766 0.4736717274537647 10.0
    vertex 5.999999999999999 51.99999999999999 10.0
  endloop
endfacet
facet normal 9.856817729308798e-32 1.9424487308329002e-32 1.0
  outer loop
    vertex 8.571067811865476 1.0355339059327375 10.0
    vertex 7.0 3.817 10.0
    vertex 6.973671727453766 0.4736717274537647 10.0
  endloop
endfacet
facet normal 9.856817729308798e-32 1.9424487308329002e-32 1.0
  outer loop
    vertex 7.0 3.817 10.0
    vertex 8.571067811865476 1.0355339059327375 10.0
    vertex 9.5 3.817 10.0
  endloop
endfacet
facet normal 9.856817729308798e-32 1.9424487308329002e-32 1.0
  outer loop
    vertex 9.5 3.817 10.0
    vertex 8.571067811865476 1.0355339059327375 10.0
    vertex 10.097893971888562 1.7677669529663693 10.0
  endloop
endfacet
facet normal 9.856817729308798e-32 1.9424487308329002e-32 1.0
  outer loop
    vertex 9.5 3.817 10.0
    vertex 10.097893971888562 1.7677669529663693 10.0
    vertex 9.5 55.71 10.0
  endloop
endfacet
facet normal 9.856817729308798e-32 1.9424487308329002e-32 1.0
  outer loop
    vertex 5.999999999999999 51.99999999999999 10.0
    vertex 2.0 58.599999999999994 10.0
    vertex 1.9999999999999998 51.99999999999999 10.0
  endloop
endfacet
facet normal 9.856817729308798e-32 1.9424487308329002e-32 1.0
  outer loop
    vertex 2.0 58.599999999999994 10.0
    vertex 5.999999999999999 51.99999999999999 10.0
    vertex 4.500000000000004 58.21 10.0
  endloop
endfacet
facet normal 9.856817729308798e-32 1.9424487308329002e-32 1.0
  outer loop
    vertex 2.0 58.599999999999994 10.0
    vertex 4.500000000000004 58.21 10.0
    vertex 4.499999999999999 60.239999999999995 10.0
  endloop
endfacet
facet normal 9.856817729308798e-32 1.9424487308329002e-32 1.0
  outer loop
    vertex 4.500000000000004 58.21 10.0
    vertex 5.999999999999999 51.99999999999999 10.0
    vertex 7.0 55.71 10.0
  endloop
endfacet
facet normal 9.856817729308798e-32 1.9424487308329002e-32 1.0
  outer loop
    vertex 7.0 55.71 10.0
    vertex 5.999999999999999 51.99999999999999 10.0
    vertex 6.973671727453766 0.4736717274537647 10.0
  endloop
endfacet
facet normal 9.856817729308798e-32 1.9424487308329002e-32 1.0
  outer loop
    vertex 7.0 55.71 10.0
    vertex 6.973671727453766 0.4736717274537647 10.0
    vertex 7.0 3.817 10.0
  endloop
endfacet
facet normal 9.856817729308798e-32 1.9424487308329002e-32 1.0
  outer loop
    vertex 27.349184719828678 8.449689783217025 10.0
    vertex 24.308625560726522 11.773091654793795 10.0
    vertex 20.985223689149752 8.449689783217025 10.0
  endloop
endfacet
facet normal 9.856817729308798e-32 1.9424487308329002e-32 1.0
  outer loop
    vertex 27.349184719828678 8.449689783217025 10.0
    vertex 29.68263709774429 17.147103191811564 10.0
    vertex 27.914870144777918 18.914870144777936 10.0
  endloop
endfacet
facet normal 9.856817729308798e-32 1.9424487308329002e-32 1.0
  outer loop
    vertex 29.68263709774429 17.147103191811564 10.0
    vertex 27.349184719828678 8.449689783217025 10.0
    vertex 33.00603896932106 14.106544032709408 10.0
  endloop
endfacet
facet normal 9.856817729308798e-32 1.9424487308329002e-32 1.0
  outer loop
    vertex 29.68263709774429 17.147103191811564 10.0
    vertex 33.00603896932106 14.106544032709408 10.0
    vertex 33.00603896932106 20.470505063388337 10.0
  endloop
endfacet
facet normal 9.856817729308798e-32 1.9424487308329002e-32 1.0
  outer loop
    vertex 4.500000000000004 58.21 10.0
    vertex 5.914565621984245 60.119529603528356 10.0
    vertex 4.499999999999999 60.239999999999995 10.0
  endloop
endfacet
facet normal 9.856817729308798e-32 1.9424487308329002e-32 1.0
  outer loop
    vertex 5.914565621984245 60.119529603528356 10.0
    vertex 4.500000000000004 58.21 10.0
    vertex 7.000000000000001 58.21 10.0
  endloop
endfacet
facet normal 9.856817729308798e-32 1.9424487308329002e-32 1.0
  outer loop
    vertex 5.914565621984245 60.119529603528356 10.0
    vertex 7.000000000000001 58.21 10.0
    vertex 7.473671727453763 59.76632827254624 10.0
  endloop
endfacet
facet normal 9.856817729308798e-32 1.9424487308329002e-32 1.0
  outer loop
    vertex 7.473671727453763 59.76632827254624 10.0
    vertex 7.000000000000001 58.21 10.0
    vertex 9.5 55.71 10.0
  endloop
endfacet
facet normal 9.856817729308798e-32 1.9424487308329002e-32 1.0
  outer loop
    vertex 7.473671727453763 59.76632827254624 10.0
    vertex 9.5 55.71 10.0
    vertex 9.071067811865474 59.20446609406726 10.0
  endloop
endfacet
facet normal 9.856817729308798e-32 1.9424487308329002e-32 1.0
  outer loop
    vertex 9.071067811865474 59.20446609406726 10.0
    vertex 9.5 55.71 10.0
    vertex 10.597893971888562 58.47223304703363 10.0
  endloop
endfacet
facet normal 9.856817729308798e-32 1.9424487308329002e-32 1.0
  outer loop
    vertex 10.597893971888562 58.47223304703363 10.0
    vertex 9.5 55.71 10.0
    vertex 10.097893971888562 1.7677669529663693 10.0
  endloop
endfacet
facet normal 9.856817729308798e-32 1.9424487308329002e-32 1.0
  outer loop
    vertex 10.597893971888562 58.47223304703363 10.0
    vertex 10.097893971888562 1.7677669529663693 10.0
    vertex 10.999999999999996 14.07106781186548 10.000000000000004
  endloop
endfacet
facet normal 9.856817729308798e-32 1.9424487308329002e-32 1.0
  outer loop
    vertex 10.999999999999996 14.07106781186548 10.000000000000004
    vertex 10.097893971888562 1.7677669529663693 10.0
    vertex 11.450099527916981 2.6204703964716414 10.0
  endloop
endfacet
facet normal 9.856817729308798e-32 1.9424487308329002e-32 1.0
  outer loop
    vertex 10.999999999999996 14.07106781186548 10.000000000000004
    vertex 11.450099527916981 2.6204703964716414 10.0
    vertex 11.120470396471637 12.897442982824517 10.000000000000004
  endloop
endfacet
facet normal 9.856817729308798e-32 1.9424487308329002e-32 1.0
  outer loop
    vertex 11.120470396471637 12.897442982824517 10.000000000000004
    vertex 11.450099527916981 2.6204703964716414 10.0
    vertex 11.473671727453763 12.044739539319243 10.000000000000004
  endloop
endfacet
facet normal 9.856817729308798e-32 1.9424487308329002e-32 1.0
  outer loop
    vertex 11.473671727453763 12.044739539319243 10.000000000000004
    vertex 11.450099527916981 2.6204703964716414 10.0
    vertex 12.535533905932736 3.5355339059327386 10.0
  endloop
endfacet
facet normal 9.856817729308798e-32 1.9424487308329002e-32 1.0
  outer loop
    vertex 11.473671727453763 12.044739539319243 10.000000000000004
    vertex 12.535533905932736 3.5355339059327386 10.0
    vertex 12.035533905932736 11.57106781186548 10.000000000000004
  endloop
endfacet
facet normal 9.856817729308798e-32 1.9424487308329002e-32 1.0
  outer loop
    vertex 12.035533905932736 11.57106781186548 10.000000000000004
    vertex 12.535533905932736 3.5355339059327386 10.0
    vertex 12.767766952966367 11.508707745909655 10.000000000000004
  endloop
endfacet
facet normal 9.856817729308798e-32 1.9424487308329002e-32 1.0
  outer loop
    vertex 12.767766952966367 11.508707745909655 10.000000000000004
    vertex 12.535533905932736 3.5355339059327386 10.0
    vertex 22.540858607760157 13.54085860776017 10.0
  endloop
endfacet
facet normal 9.856817729308798e-32 1.9424487308329002e-32 1.0
  outer loop
    vertex 12.767766952966367 11.508707745909655 10.000000000000004
    vertex 22.540858607760157 13.54085860776017 10.0
    vertex 13.620470396471637 11.861909076891779 10.000000000000004
  endloop
endfacet
facet normal 9.856817729308798e-32 1.9424487308329002e-32 1.0
  outer loop
    vertex 13.620470396471637 11.861909076891779 10.000000000000004
    vertex 22.540858607760157 13.54085860776017 10.0
    vertex 14.535533905932738 12.606601717798219 10.000000000000004
  endloop
endfacet
facet normal 9.856817729308798e-32 1.9424487308329002e-32 1.0
  outer loop
    vertex 14.535533905932738 12.606601717798219 10.000000000000004
    vertex 22.540858607760157 13.54085860776017 10.0
    vertex 28.763398282201788 26.834466094067263 10.000000000000002
  endloop
endfacet
facet normal 9.856817729308798e-32 1.9424487308329002e-32 1.0
  outer loop
    vertex 28.763398282201788 26.834466094067263 10.000000000000002
    vertex 22.540858607760157 13.54085860776017 10.0
    vertex 24.308625560726522 11.773091654793795 10.0
  endloop
endfacet
facet normal 9.856817729308798e-32 1.9424487308329002e-32 1.0
  outer loop
    vertex 28.763398282201788 26.834466094067263 10.000000000000002
    vertex 24.308625560726522 11.773091654793795 10.0
    vertex 27.914870144777918 18.914870144777936 10.0
  endloop
endfacet
facet normal 9.856817729308798e-32 1.9424487308329002e-32 1.0
  outer loop
    vertex 27.914870144777918 18.914870144777936 10.0
    vertex 24.308625560726522 11.773091654793795 10.0
    vertex 27.349184719828678 8.449689783217025 10.0
  endloop
endfacet
facet normal 9.856817729308798e-32 1.9424487308329002e-32 1.0
  outer loop
    vertex 28.763398282201788 26.834466094067263 10.000000000000002
    vertex 27.914870144777918 18.914870144777936 10.0
    vertex 35.834466094067245 26.83446609406727 10.0
  endloop
endfacet
facet normal 9.856817729308798e-32 1.9424487308329002e-32 1.0
  outer loop
    vertex 28.763398282201788 26.834466094067263 10.000000000000002
    vertex 35.834466094067245 26.83446609406727 10.0
    vertex 29.557991395191245 27.870000000000005 10.000000000000002
  endloop
endfacet
facet normal 9.856817729308798e-32 1.9424487308329002e-32 1.0
  outer loop
    vertex 29.557991395191245 27.870000000000005 10.000000000000002
    vertex 35.834466094067245 26.83446609406727 10.0
    vertex 30.05749350771439 29.075904774487395 10.000000000000002
  endloop
endfacet
facet normal 9.856817729308798e-32 1.9424487308329002e-32 1.0
  outer loop
    vertex 30.05749350771439 29.075904774487395 10.000000000000002
    vertex 35.834466094067245 26.83446609406727 10.0
    vertex 30.227864376269043 30.369999999999997 10.000000000000002
  endloop
endfacet
facet normal 9.856817729308798e-32 1.9424487308329002e-32 1.0
  outer loop
    vertex 10.597893971888562 58.47223304703363 10.0
    vertex 10.999999999999996 46.668932188134505 10.000000000000004
    vertex 11.95009952791698 57.61952960352836 10.0
  endloop
endfacet
facet normal 9.856817729308798e-32 1.9424487308329002e-32 1.0
  outer loop
    vertex 10.999999999999996 46.668932188134505 10.000000000000004
    vertex 10.597893971888562 58.47223304703363 10.0
    vertex 10.999999999999996 14.07106781186548 10.000000000000004
  endloop
endfacet
facet normal 9.856817729308798e-32 1.9424487308329002e-32 1.0
  outer loop
    vertex 11.95009952791698 57.61952960352836 10.0
    vertex 10.999999999999996 46.668932188134505 10.000000000000004
    vertex 11.120470396471639 47.84255701717547 10.000000000000004
  endloop
endfacet
facet normal 9.856817729308798e-32 1.9424487308329002e-32 1.0
  outer loop
    vertex 11.95009952791698 57.61952960352836 10.0
    vertex 11.120470396471639 47.84255701717547 10.000000000000004
    vertex 11.473671727453763 48.69526046068074 10.000000000000004
  endloop
endfacet
facet normal 9.856817729308798e-32 1.9424487308329002e-32 1.0
  outer loop
    vertex 11.95009952791698 57.61952960352836 10.0
    vertex 11.473671727453763 48.69526046068074 10.000000000000004
    vertex 12.035533905932736 49.168932188134505 10.000000000000004
  endloop
endfacet
facet normal 9.856817729308798e-32 1.9424487308329002e-32 1.0
  outer loop
    vertex 11.95009952791698 57.61952960352836 10.0
    vertex 12.035533905932736 49.168932188134505 10.000000000000004
    vertex 13.035533905932734 56.704466094067264 10.0
  endloop
endfacet
facet normal 9.856817729308798e-32 1.9424487308329002e-32 1.0
  outer loop
    vertex 13.035533905932734 56.704466094067264 10.0
    vertex 12.035533905932736 49.168932188134505 10.000000000000004
    vertex 12.767766952966367 49.231292254090334 10.000000000000004
  endloop
endfacet
facet normal 9.856817729308798e-32 1.9424487308329002e-32 1.0
  outer loop
    vertex 13.035533905932734 56.704466094067264 10.0
    vertex 12.767766952966367 49.231292254090334 10.000000000000004
    vertex 13.62047039647164 48.87809092310821 10.000000000000004
  endloop
endfacet
facet normal 9.856817729308798e-32 1.9424487308329002e-32 1.0
  outer loop
    vertex 13.035533905932734 56.704466094067264 10.0
    vertex 13.62047039647164 48.87809092310821 10.000000000000004
    vertex 35.834466094067245 33.90553390593274 10.0
  endloop
endfacet
facet normal 9.856817729308798e-32 1.9424487308329002e-32 1.0
  outer loop
    vertex 35.834466094067245 33.90553390593274 10.0
    vertex 13.62047039647164 48.87809092310821 10.000000000000004
    vertex 14.535533905932738 48.133398282201775 10.000000000000004
  endloop
endfacet
facet normal 9.856817729308798e-32 1.9424487308329002e-32 1.0
  outer loop
    vertex 35.834466094067245 33.90553390593274 10.0
    vertex 14.535533905932738 48.133398282201775 10.000000000000004
    vertex 28.76339828220178 33.905533905932735 10.000000000000002
  endloop
endfacet
facet normal 9.856817729308798e-32 1.9424487308329002e-32 1.0
  outer loop
    vertex 35.834466094067245 33.90553390593274 10.0
    vertex 28.76339828220178 33.905533905932735 10.000000000000002
    vertex 29.557991395191237 32.87 10.000000000000002
  endloop
endfacet
facet normal 9.856817729308798e-32 1.9424487308329002e-32 1.0
  outer loop
    vertex 35.834466094067245 33.90553390593274 10.0
    vertex 29.557991395191237 32.87 10.000000000000002
    vertex 30.05749350771439 31.6640952255126 10.000000000000002
  endloop
endfacet
facet normal 9.856817729308798e-32 1.9424487308329002e-32 1.0
  outer loop
    vertex 35.834466094067245 33.90553390593274 10.0
    vertex 30.05749350771439 31.6640952255126 10.000000000000002
    vertex 30.227864376269043 30.369999999999997 10.000000000000002
  endloop
endfacet
facet normal 9.856817729308798e-32 1.9424487308329002e-32 1.0
  outer loop
    vertex 35.834466094067245 33.90553390593274 10.0
    vertex 30.227864376269043 30.369999999999997 10.000000000000002
    vertex 35.834466094067245 26.83446609406727 10.0
  endloop
endfacet
facet normal 9.856817729308798e-32 1.9424487308329002e-32 1.0
  outer loop
    vertex 35.834466094067245 33.90553390593274 10.0
    vertex 35.834466094067245 26.83446609406727 10.0
    vertex 36.6290592070567 27.870000000000008 10.0
  endloop
endfacet
facet normal 9.856817729308798e-32 1.9424487308329002e-32 1.0
  outer loop
    vertex 35.834466094067245 33.90553390593274 10.0
    vertex 36.6290592070567 27.870000000000008 10.0
    vertex 36.6290592070567 32.870000000000005 10.0
  endloop
endfacet
facet normal 9.856817729308798e-32 1.9424487308329002e-32 1.0
  outer loop
    vertex 36.6290592070567 32.870000000000005 10.0
    vertex 36.6290592070567 27.870000000000008 10.0
    vertex 37.12856131957985 29.07590477448741 10.0
  endloop
endfacet
facet normal 9.856817729308798e-32 1.9424487308329002e-32 1.0
  outer loop
    vertex 36.6290592070567 32.870000000000005 10.0
    vertex 37.12856131957985 29.07590477448741 10.0
    vertex 37.12856131957985 31.66409522551261 10.0
  endloop
endfacet
facet normal 9.856817729308798e-32 1.9424487308329002e-32 1.0
  outer loop
    vertex 37.12856131957985 31.66409522551261 10.0
    vertex 37.12856131957985 29.07590477448741 10.0
    vertex 37.29893218813451 30.370000000000008 10.0
  endloop
endfacet
facet normal 9.856817729308798e-32 1.9424487308329002e-32 1.0
  outer loop
    vertex 0.24999999999999953 56.849999999999994 10.0
    vertex -0.9999999999999999 60.239999999999995 10.0
    vertex -0.9999999999999999 56.849999999999994 10.0
  endloop
endfacet
facet normal 9.856817729308798e-32 1.9424487308329002e-32 1.0
  outer loop
    vertex -0.9999999999999999 60.239999999999995 10.0
    vertex 0.24999999999999953 56.849999999999994 10.0
    vertex 0.24999999999999953 58.599999999999994 10.0
  endloop
endfacet
facet normal 9.856817729308798e-32 1.9424487308329002e-32 1.0
  outer loop
    vertex -0.9999999999999999 60.239999999999995 10.0
    vertex 0.24999999999999953 58.599999999999994 10.0
    vertex 4.499999999999999 60.239999999999995 10.0
  endloop
endfacet
facet normal 9.856817729308798e-32 1.9424487308329002e-32 1.0
  outer loop
    vertex 4.499999999999999 60.239999999999995 10.0
    vertex 0.24999999999999953 58.599999999999994 10.0
    vertex 2.0 58.599999999999994 10.0
  endloop
endfacet
facet normal 9.856817729308798e-32 1.9424487308329002e-32 1.0
  outer loop
    vertex 0.25000000000000017 2.53 10.0
    vertex -0.9999999999999999 2.5300000000000002 10.0
    vertex 0.25000000000000017 1.9999999999999998 10.0
  endloop
endfacet
facet normal 0.7071067811865478 0.7071067811865474 -1.1809162993577807e-32
  outer loop
    vertex 27.914870144777918 18.914870144777936 2.3618325987155618e-33
    vertex 29.68263709774429 17.147103191811564 10.0
    vertex 29.68263709774429 17.147103191811564 2.8199664825478975e-15
  endloop
endfacet
facet normal 0.7071067811865478 0.7071067811865474 -1.1809162993577807e-32
  outer loop
    vertex 29.68263709774429 17.147103191811564 10.0
    vertex 27.914870144777918 18.914870144777936 2.3618325987155618e-33
    vertex 27.914870144777918 18.914870144777936 10.0
  endloop
endfacet
facet normal -0.7071067811865481 0.7071067811865469 0.0
  outer loop
    vertex 33.00603896932106 20.470505063388337 10.0
    vertex 29.68263709774429 17.147103191811564 2.8199664825478975e-15
    vertex 29.68263709774429 17.147103191811564 10.0
  endloop
endfacet
facet normal -0.7071067811865481 0.7071067811865469 0.0
  outer loop
    vertex 29.68263709774429 17.147103191811564 2.8199664825478975e-15
    vertex 33.00603896932106 20.470505063388337 10.0
    vertex 33.00603896932106 20.470505063388337 2.8199664825478975e-15
  endloop
endfacet
facet normal -0.7071067811865477 0.7071067811865474 0.0
  outer loop
    vertex 24.308625560726522 11.773091654793795 10.0
    vertex 20.985223689149752 8.449689783217025 1.4099832412739487e-15
    vertex 20.985223689149752 8.449689783217025 10.0
  endloop
endfacet
facet normal -0.7071067811865477 0.7071067811865474 0.0
  outer loop
    vertex 20.985223689149752 8.449689783217025 1.4099832412739487e-15
    vertex 24.308625560726522 11.773091654793795 10.0
    vertex 24.308625560726522 11.773091654793795 1.4094556574975715e-15
  endloop
endfacet
facet normal -0.70710678118655 -0.7071067811865451 2.6379188818864937e-18
  outer loop
    vertex 22.540858607760157 13.54085860776017 10.0
    vertex 24.308625560726522 11.773091654793795 1.4094556574975715e-15
    vertex 24.308625560726522 11.773091654793795 10.0
  endloop
endfacet
facet normal -0.70710678118655 -0.7071067811865451 2.6379188818864937e-18
  outer loop
    vertex 24.308625560726522 11.773091654793795 1.4094556574975715e-15
    vertex 22.540858607760157 13.54085860776017 10.0
    vertex 22.540858607760157 13.54085860776017 -5.275837763772986e-19
  endloop
endfacet
endsolid LCD_SupportA
