solid psu-mount-socket
facet normal 0.0 0.0 -1.0
  outer loop
    vertex 31.0 30.0 0.0
    vertex 0.0 19.000000000000004 0.0
    vertex 0.0 30.0 0.0
  endloop
endfacet
facet normal 0.0 0.0 -1.0
  outer loop
    vertex 0.0 19.000000000000004 0.0
    vertex 31.0 30.0 0.0
    vertex 12.0 19.000000000000004 0.0
  endloop
endfacet
facet normal 0.0 0.0 -1.0
  outer loop
    vertex 12.0 19.000000000000004 0.0
    vertex 31.0 30.0 0.0
    vertex 17.89878066911803 19.101219330881975 0.0
  endloop
endfacet
facet normal 0.0 0.0 -1.0
  outer loop
    vertex 12.0 19.000000000000004 0.0
    vertex 17.89878066911803 19.101219330881975 0.0
    vertex 16.977052658050262 17.900000000000002 0.0
  endloop
endfacet
facet normal 0.0 0.0 -1.0
  outer loop
    vertex 12.0 19.000000000000004 0.0
    vertex 16.977052658050262 17.900000000000002 0.0
    vertex 12.0 11.000000000000002 0.0
  endloop
endfacet
facet normal 0.0 0.0 -1.0
  outer loop
    vertex 12.0 11.000000000000002 0.0
    vertex 16.977052658050262 17.900000000000002 0.0
    vertex 16.39763020752341 16.501150461594627 0.0
  endloop
endfacet
facet normal 0.0 0.0 -1.0
  outer loop
    vertex 12.0 11.000000000000002 0.0
    vertex 16.39763020752341 16.501150461594627 0.0
    vertex 16.200000000000003 15.0 0.0
  endloop
endfacet
facet normal 0.0 0.0 -1.0
  outer loop
    vertex 17.89878066911803 19.101219330881975 0.0
    vertex 31.0 30.0 0.0
    vertex 19.10000000000001 20.02294734194975 0.0
  endloop
endfacet
facet normal 0.0 0.0 -1.0
  outer loop
    vertex 19.10000000000001 20.02294734194975 0.0
    vertex 31.0 30.0 0.0
    vertex 20.498849538405388 20.602369792476598 0.0
  endloop
endfacet
facet normal 0.0 0.0 -1.0
  outer loop
    vertex 20.498849538405388 20.602369792476598 0.0
    vertex 31.0 30.0 0.0
    vertex 22.000000000000004 20.8 0.0
  endloop
endfacet
facet normal 0.0 0.0 -1.0
  outer loop
    vertex 22.000000000000004 20.8 0.0
    vertex 31.0 30.0 0.0
    vertex 23.50115046159463 20.602369792476594 0.0
  endloop
endfacet
facet normal 0.0 0.0 -1.0
  outer loop
    vertex 23.50115046159463 20.602369792476594 0.0
    vertex 31.0 30.0 0.0
    vertex 24.90000000000001 20.022947341949745 0.0
  endloop
endfacet
facet normal 0.0 0.0 -1.0
  outer loop
    vertex 24.90000000000001 20.022947341949745 0.0
    vertex 31.0 30.0 0.0
    vertex 26.101219330881985 19.101219330881975 0.0
  endloop
endfacet
facet normal 0.0 0.0 -1.0
  outer loop
    vertex 26.101219330881985 19.101219330881975 0.0
    vertex 31.0 30.0 0.0
    vertex 27.02294734194975 17.9 0.0
  endloop
endfacet
facet normal 0.0 0.0 -1.0
  outer loop
    vertex 27.02294734194975 17.9 0.0
    vertex 31.0 30.0 0.0
    vertex 27.602369792476605 16.50115046159462 0.0
  endloop
endfacet
facet normal 0.0 0.0 -1.0
  outer loop
    vertex 27.602369792476605 16.50115046159462 0.0
    vertex 31.0 30.0 0.0
    vertex 27.800000000000004 15.0 0.0
  endloop
endfacet
facet normal 0.0 0.0 -1.0
  outer loop
    vertex 12.0 11.000000000000002 0.0
    vertex 0.0 0.0 0.0
    vertex 0.0 11.000000000000002 0.0
  endloop
endfacet
facet normal 0.0 0.0 -1.0
  outer loop
    vertex 0.0 0.0 0.0
    vertex 12.0 11.000000000000002 0.0
    vertex 31.0 0.0 0.0
  endloop
endfacet
facet normal 0.0 0.0 -1.0
  outer loop
    vertex 31.0 0.0 0.0
    vertex 12.0 11.000000000000002 0.0
    vertex 17.89878066911803 10.898780669118025 0.0
  endloop
endfacet
facet normal 0.0 0.0 -1.0
  outer loop
    vertex 17.89878066911803 10.898780669118025 0.0
    vertex 12.0 11.000000000000002 0.0
    vertex 16.977052658050262 12.1 0.0
  endloop
endfacet
facet normal 0.0 0.0 -1.0
  outer loop
    vertex 16.977052658050262 12.1 0.0
    vertex 12.0 11.000000000000002 0.0
    vertex 16.39763020752341 13.498849538405379 0.0
  endloop
endfacet
facet normal 0.0 0.0 -1.0
  outer loop
    vertex 16.39763020752341 13.498849538405379 0.0
    vertex 12.0 11.000000000000002 0.0
    vertex 16.200000000000003 15.0 0.0
  endloop
endfacet
facet normal 0.0 0.0 -1.0
  outer loop
    vertex 31.0 0.0 0.0
    vertex 17.89878066911803 10.898780669118025 0.0
    vertex 19.100000000000005 9.977052658050257 0.0
  endloop
endfacet
facet normal 0.0 0.0 -1.0
  outer loop
    vertex 31.0 0.0 0.0
    vertex 19.100000000000005 9.977052658050257 0.0
    vertex 20.498849538405384 9.397630207523404 0.0
  endloop
endfacet
facet normal 0.0 0.0 -1.0
  outer loop
    vertex 31.0 0.0 0.0
    vertex 20.498849538405384 9.397630207523404 0.0
    vertex 22.000000000000004 9.2 0.0
  endloop
endfacet
facet normal 0.0 0.0 -1.0
  outer loop
    vertex 31.0 0.0 0.0
    vertex 22.000000000000004 9.2 0.0
    vertex 23.501150461594623 9.397630207523404 0.0
  endloop
endfacet
facet normal 0.0 0.0 -1.0
  outer loop
    vertex 31.0 0.0 0.0
    vertex 23.501150461594623 9.397630207523404 0.0
    vertex 24.900000000000006 9.977052658050255 0.0
  endloop
endfacet
facet normal 0.0 0.0 -1.0
  outer loop
    vertex 31.0 0.0 0.0
    vertex 24.900000000000006 9.977052658050255 0.0
    vertex 26.10121933088198 10.898780669118025 0.0
  endloop
endfacet
facet normal 0.0 0.0 -1.0
  outer loop
    vertex 31.0 0.0 0.0
    vertex 26.10121933088198 10.898780669118025 0.0
    vertex 27.02294734194975 12.1 0.0
  endloop
endfacet
facet normal 0.0 0.0 -1.0
  outer loop
    vertex 31.0 0.0 0.0
    vertex 27.02294734194975 12.1 0.0
    vertex 27.602369792476598 13.498849538405379 0.0
  endloop
endfacet
facet normal 0.0 0.0 -1.0
  outer loop
    vertex 31.0 0.0 0.0
    vertex 27.602369792476598 13.498849538405379 0.0
    vertex 27.800000000000004 15.0 0.0
  endloop
endfacet
facet normal 0.0 0.0 -1.0
  outer loop
    vertex 31.0 0.0 0.0
    vertex 27.800000000000004 15.0 0.0
    vertex 31.0 30.0 0.0
  endloop
endfacet
facet normal -1.0 0.0 0.0
  outer loop
    vertex 0.0 24.0 10.0
    vertex 0.0 19.000000000000004 0.0
    vertex 0.0 19.000000000000004 5.0
  endloop
endfacet
facet normal -1.0 0.0 0.0
  outer loop
    vertex 0.0 19.000000000000004 0.0
    vertex 0.0 24.0 10.0
    vertex 0.0 30.0 0.0
  endloop
endfacet
facet normal -1.0 0.0 0.0
  outer loop
    vertex 0.0 30.0 0.0
    vertex 0.0 24.0 10.0
    vertex 0.0 30.0 10.0
  endloop
endfacet
facet normal -0.0 1.0 0.0
  outer loop
    vertex 0.0 30.0 10.0
    vertex 31.0 30.0 0.0
    vertex 0.0 30.0 0.0
  endloop
endfacet
facet normal -0.0 1.0 0.0
  outer loop
    vertex 31.0 30.0 0.0
    vertex 0.0 30.0 10.0
    vertex 31.0 30.0 10.0
  endloop
endfacet
facet normal 1.0 0.0 0.0
  outer loop
    vertex 31.0 30.0 0.0
    vertex 31.0 0.0 10.0
    vertex 31.0 0.0 0.0
  endloop
endfacet
facet normal 1.0 0.0 0.0
  outer loop
    vertex 31.0 0.0 10.0
    vertex 31.0 30.0 0.0
    vertex 31.0 10.999999999999998 10.0
  endloop
endfacet
facet normal 1.0 0.0 0.0
  outer loop
    vertex 31.0 10.999999999999998 10.0
    vertex 31.0 30.0 0.0
    vertex 31.0 10.999999999999998 12.0
  endloop
endfacet
facet normal 1.0 0.0 0.0
  outer loop
    vertex 31.0 10.999999999999998 12.0
    vertex 31.0 30.0 0.0
    vertex 31.0 19.000000000000004 10.0
  endloop
endfacet
facet normal 1.0 0.0 0.0
  outer loop
    vertex 31.0 19.000000000000004 10.0
    vertex 31.0 30.0 0.0
    vertex 31.0 30.0 10.0
  endloop
endfacet
facet normal 1.0 0.0 0.0
  outer loop
    vertex 31.0 19.000000000000004 12.0
    vertex 31.0 10.999999999999998 12.0
    vertex 31.0 19.000000000000004 10.0
  endloop
endfacet
facet normal -0.0 -1.0 -0.0
  outer loop
    vertex 31.0 0.0 10.0
    vertex 0.0 0.0 0.0
    vertex 31.0 0.0 0.0
  endloop
endfacet
facet normal -0.0 -1.0 -0.0
  outer loop
    vertex 0.0 0.0 0.0
    vertex 31.0 0.0 10.0
    vertex 0.0 0.0 10.0
  endloop
endfacet
facet normal -1.4535909703855143e-17 1.43194855947667e-32 1.0
  outer loop
    vertex 17.0 19.000000000000004 10.000000000000002
    vertex 12.0 24.0 10.0
    vertex 12.0 19.000000000000004 10.0
  endloop
endfacet
facet normal -1.4535909703855143e-17 1.43194855947667e-32 1.0
  outer loop
    vertex 31.0 0.0 10.0
    vertex 0.0 6.000000000000002 10.0
    vertex 0.0 0.0 10.0
  endloop
endfacet
facet normal -1.4535909703855143e-17 1.43194855947667e-32 1.0
  outer loop
    vertex 0.0 6.000000000000002 10.0
    vertex 31.0 0.0 10.0
    vertex 12.0 6.000000000000002 10.0
  endloop
endfacet
facet normal -1.4535909703855143e-17 1.43194855947667e-32 1.0
  outer loop
    vertex 12.0 6.000000000000002 10.0
    vertex 31.0 0.0 10.0
    vertex 12.0 11.000000000000002 10.0
  endloop
endfacet
facet normal -1.4535909703855143e-17 1.43194855947667e-32 1.0
  outer loop
    vertex 12.0 11.000000000000002 10.0
    vertex 31.0 0.0 10.0
    vertex 17.0 11.0 10.000000000000002
  endloop
endfacet
facet normal -1.4535909703855143e-17 1.43194855947667e-32 1.0
  outer loop
    vertex 17.0 11.0 10.000000000000002
    vertex 31.0 0.0 10.0
    vertex 19.807968978321707 12.807968978321703 10.000000000000002
  endloop
endfacet
facet normal -1.4535909703855143e-17 1.43194855947667e-32 1.0
  outer loop
    vertex 17.0 11.0 10.000000000000002
    vertex 19.807968978321707 12.807968978321703 10.000000000000002
    vertex 19.31532124826824 13.450000000000001 10.000000000000002
  endloop
endfacet
facet normal -1.4535909703855143e-17 1.43194855947667e-32 1.0
  outer loop
    vertex 17.0 11.0 10.000000000000002
    vertex 19.31532124826824 13.450000000000001 10.000000000000002
    vertex 17.0 19.000000000000004 10.000000000000002
  endloop
endfacet
facet normal -1.4535909703855143e-17 1.43194855947667e-32 1.0
  outer loop
    vertex 17.0 19.000000000000004 10.000000000000002
    vertex 19.31532124826824 13.450000000000001 10.000000000000002
    vertex 19.00562993850389 14.197660960182185 10.000000000000002
  endloop
endfacet
facet normal -1.4535909703855143e-17 1.43194855947667e-32 1.0
  outer loop
    vertex 17.0 19.000000000000004 10.000000000000002
    vertex 19.00562993850389 14.197660960182185 10.000000000000002
    vertex 18.900000000000002 15.0 10.000000000000002
  endloop
endfacet
facet normal -1.4535909703855143e-17 1.43194855947667e-32 1.0
  outer loop
    vertex 19.807968978321707 12.807968978321703 10.000000000000002
    vertex 31.0 0.0 10.0
    vertex 20.450000000000003 12.31532124826824 10.000000000000002
  endloop
endfacet
facet normal -1.4535909703855143e-17 1.43194855947667e-32 1.0
  outer loop
    vertex 20.450000000000003 12.31532124826824 10.000000000000002
    vertex 31.0 0.0 10.0
    vertex 21.197660960182187 12.005629938503889 10.000000000000002
  endloop
endfacet
facet normal -1.4535909703855143e-17 1.43194855947667e-32 1.0
  outer loop
    vertex 21.197660960182187 12.005629938503889 10.000000000000002
    vertex 31.0 0.0 10.0
    vertex 22.000000000000004 11.9 10.000000000000002
  endloop
endfacet
facet normal -1.4535909703855143e-17 1.43194855947667e-32 1.0
  outer loop
    vertex 22.000000000000004 11.9 10.000000000000002
    vertex 31.0 0.0 10.0
    vertex 22.802339039817817 12.005629938503889 10.000000000000002
  endloop
endfacet
facet normal -1.4535909703855143e-17 1.43194855947667e-32 1.0
  outer loop
    vertex 22.802339039817817 12.005629938503889 10.000000000000002
    vertex 31.0 0.0 10.0
    vertex 23.55 12.31532124826824 10.000000000000002
  endloop
endfacet
facet normal -1.4535909703855143e-17 1.43194855947667e-32 1.0
  outer loop
    vertex 23.55 12.31532124826824 10.000000000000002
    vertex 31.0 0.0 10.0
    vertex 24.1920310216783 12.807968978321703 10.000000000000002
  endloop
endfacet
facet normal -1.4535909703855143e-17 1.43194855947667e-32 1.0
  outer loop
    vertex 24.1920310216783 12.807968978321703 10.000000000000002
    vertex 31.0 0.0 10.0
    vertex 24.684678751731763 13.450000000000001 10.000000000000002
  endloop
endfacet
facet normal -1.4535909703855143e-17 1.43194855947667e-32 1.0
  outer loop
    vertex 24.684678751731763 13.450000000000001 10.000000000000002
    vertex 31.0 0.0 10.0
    vertex 24.994370061496113 14.197660960182187 10.000000000000002
  endloop
endfacet
facet normal -1.4535909703855143e-17 1.43194855947667e-32 1.0
  outer loop
    vertex 24.994370061496113 14.197660960182187 10.000000000000002
    vertex 31.0 0.0 10.0
    vertex 25.1 15.0 10.000000000000002
  endloop
endfacet
facet normal -1.4535909703855143e-17 1.43194855947667e-32 1.0
  outer loop
    vertex 25.1 15.0 10.000000000000002
    vertex 31.0 0.0 10.0
    vertex 27.0 10.999999999999998 10.000000000000002
  endloop
endfacet
facet normal -1.4535909703855143e-17 1.43194855947667e-32 1.0
  outer loop
    vertex 25.1 15.0 10.000000000000002
    vertex 27.0 10.999999999999998 10.000000000000002
    vertex 26.999999999999996 19.000000000000004 10.000000000000002
  endloop
endfacet
facet normal -1.4535909703855143e-17 1.43194855947667e-32 1.0
  outer loop
    vertex 27.0 10.999999999999998 10.000000000000002
    vertex 31.0 0.0 10.0
    vertex 31.0 10.999999999999998 10.0
  endloop
endfacet
facet normal -1.4535909703855143e-17 1.43194855947667e-32 1.0
  outer loop
    vertex 12.0 24.0 10.0
    vertex 0.0 30.0 10.0
    vertex 0.0 24.0 10.0
  endloop
endfacet
facet normal -1.4535909703855143e-17 1.43194855947667e-32 1.0
  outer loop
    vertex 0.0 30.0 10.0
    vertex 12.0 24.0 10.0
    vertex 31.0 30.0 10.0
  endloop
endfacet
facet normal -1.4535909703855143e-17 1.43194855947667e-32 1.0
  outer loop
    vertex 31.0 30.0 10.0
    vertex 12.0 24.0 10.0
    vertex 17.0 19.000000000000004 10.000000000000002
  endloop
endfacet
facet normal -1.4535909703855143e-17 1.43194855947667e-32 1.0
  outer loop
    vertex 31.0 30.0 10.0
    vertex 17.0 19.000000000000004 10.000000000000002
    vertex 19.807968978321703 17.192031021678297 10.000000000000002
  endloop
endfacet
facet normal -1.4535909703855143e-17 1.43194855947667e-32 1.0
  outer loop
    vertex 19.807968978321703 17.192031021678297 10.000000000000002
    vertex 17.0 19.000000000000004 10.000000000000002
    vertex 19.31532124826824 16.55 10.000000000000002
  endloop
endfacet
facet normal -1.4535909703855143e-17 1.43194855947667e-32 1.0
  outer loop
    vertex 19.31532124826824 16.55 10.000000000000002
    vertex 17.0 19.000000000000004 10.000000000000002
    vertex 19.00562993850389 15.802339039817815 10.000000000000002
  endloop
endfacet
facet normal -1.4535909703855143e-17 1.43194855947667e-32 1.0
  outer loop
    vertex 19.00562993850389 15.802339039817815 10.000000000000002
    vertex 17.0 19.000000000000004 10.000000000000002
    vertex 18.900000000000002 15.0 10.000000000000002
  endloop
endfacet
facet normal -1.4535909703855143e-17 1.43194855947667e-32 1.0
  outer loop
    vertex 31.0 30.0 10.0
    vertex 19.807968978321703 17.192031021678297 10.000000000000002
    vertex 20.450000000000003 17.68467875173176 10.000000000000002
  endloop
endfacet
facet normal -1.4535909703855143e-17 1.43194855947667e-32 1.0
  outer loop
    vertex 31.0 30.0 10.0
    vertex 20.450000000000003 17.68467875173176 10.000000000000002
    vertex 21.197660960182187 17.99437006149611 10.000000000000002
  endloop
endfacet
facet normal -1.4535909703855143e-17 1.43194855947667e-32 1.0
  outer loop
    vertex 31.0 30.0 10.0
    vertex 21.197660960182187 17.99437006149611 10.000000000000002
    vertex 22.000000000000004 18.1 10.000000000000002
  endloop
endfacet
facet normal -1.4535909703855143e-17 1.43194855947667e-32 1.0
  outer loop
    vertex 31.0 30.0 10.0
    vertex 22.000000000000004 18.1 10.000000000000002
    vertex 22.802339039817817 17.994370061496113 10.000000000000002
  endloop
endfacet
facet normal -1.4535909703855143e-17 1.43194855947667e-32 1.0
  outer loop
    vertex 31.0 30.0 10.0
    vertex 22.802339039817817 17.994370061496113 10.000000000000002
    vertex 23.55 17.68467875173176 10.000000000000002
  endloop
endfacet
facet normal -1.4535909703855143e-17 1.43194855947667e-32 1.0
  outer loop
    vertex 31.0 30.0 10.0
    vertex 23.55 17.68467875173176 10.000000000000002
    vertex 24.1920310216783 17.192031021678297 10.000000000000002
  endloop
endfacet
facet normal -1.4535909703855143e-17 1.43194855947667e-32 1.0
  outer loop
    vertex 31.0 30.0 10.0
    vertex 24.1920310216783 17.192031021678297 10.000000000000002
    vertex 24.684678751731763 16.550000000000004 10.000000000000002
  endloop
endfacet
facet normal -1.4535909703855143e-17 1.43194855947667e-32 1.0
  outer loop
    vertex 31.0 30.0 10.0
    vertex 24.684678751731763 16.550000000000004 10.000000000000002
    vertex 24.994370061496113 15.802339039817817 10.000000000000002
  endloop
endfacet
facet normal -1.4535909703855143e-17 1.43194855947667e-32 1.0
  outer loop
    vertex 31.0 30.0 10.0
    vertex 24.994370061496113 15.802339039817817 10.000000000000002
    vertex 25.1 15.0 10.000000000000002
  endloop
endfacet
facet normal -1.4535909703855143e-17 1.43194855947667e-32 1.0
  outer loop
    vertex 31.0 30.0 10.0
    vertex 25.1 15.0 10.000000000000002
    vertex 26.999999999999996 19.000000000000004 10.000000000000002
  endloop
endfacet
facet normal -1.4535909703855143e-17 1.43194855947667e-32 1.0
  outer loop
    vertex 31.0 30.0 10.0
    vertex 26.999999999999996 19.000000000000004 10.000000000000002
    vertex 31.0 19.000000000000004 10.0
  endloop
endfacet
facet normal -0.0 -0.0 1.0
  outer loop
    vertex 27.0 10.999999999999998 12.0
    vertex 31.0 19.000000000000004 12.0
    vertex 26.999999999999996 19.000000000000004 12.0
  endloop
endfacet
facet normal -0.0 -0.0 1.0
  outer loop
    vertex 31.0 19.000000000000004 12.0
    vertex 27.0 10.999999999999998 12.0
    vertex 31.0 10.999999999999998 12.0
  endloop
endfacet
facet normal -2.819966482547898e-16 -1.0 7.921147638620434e-33
  outer loop
    vertex 17.0 11.0 10.000000000000002
    vertex 12.0 11.000000000000002 12.0
    vertex 12.0 11.000000000000002 10.0
  endloop
endfacet
facet normal -2.819966482547898e-16 -1.0 7.921147638620434e-33
  outer loop
    vertex 12.0 11.000000000000002 12.0
    vertex 17.0 11.0 10.000000000000002
    vertex 17.0 11.0 12.0
  endloop
endfacet
facet normal -0.0 1.0 -0.0
  outer loop
    vertex 26.999999999999996 19.000000000000004 10.000000000000002
    vertex 31.0 19.000000000000004 12.0
    vertex 31.0 19.000000000000004 10.0
  endloop
endfacet
facet normal -0.0 1.0 -0.0
  outer loop
    vertex 31.0 19.000000000000004 12.0
    vertex 26.999999999999996 19.000000000000004 10.000000000000002
    vertex 26.999999999999996 19.000000000000004 12.0
  endloop
endfacet
facet normal 0.0 0.0 -1.0
  outer loop
    vertex 16.39763020752341 16.501150461594627 7.000000000000001
    vertex 16.39763020752341 13.498849538405379 7.000000000000001
    vertex 16.200000000000003 15.0 7.000000000000001
  endloop
endfacet
facet normal 0.0 0.0 -1.0
  outer loop
    vertex 16.39763020752341 13.498849538405379 7.000000000000001
    vertex 16.39763020752341 16.501150461594627 7.000000000000001
    vertex 16.977052658050262 12.1 7.000000000000001
  endloop
endfacet
facet normal 0.0 0.0 -1.0
  outer loop
    vertex 16.977052658050262 12.1 7.000000000000001
    vertex 16.39763020752341 16.501150461594627 7.000000000000001
    vertex 16.977052658050262 17.900000000000002 7.000000000000001
  endloop
endfacet
facet normal 0.0 0.0 -1.0
  outer loop
    vertex 16.977052658050262 12.1 7.000000000000001
    vertex 16.977052658050262 17.900000000000002 7.000000000000001
    vertex 17.89878066911803 19.101219330881975 7.000000000000001
  endloop
endfacet
facet normal 0.0 0.0 -1.0
  outer loop
    vertex 16.977052658050262 12.1 7.000000000000001
    vertex 17.89878066911803 19.101219330881975 7.000000000000001
    vertex 17.89878066911803 10.898780669118025 7.000000000000001
  endloop
endfacet
facet normal 0.0 0.0 -1.0
  outer loop
    vertex 17.89878066911803 10.898780669118025 7.000000000000001
    vertex 17.89878066911803 19.101219330881975 7.000000000000001
    vertex 19.10000000000001 20.02294734194975 7.000000000000001
  endloop
endfacet
facet normal 0.0 0.0 -1.0
  outer loop
    vertex 17.89878066911803 10.898780669118025 7.000000000000001
    vertex 19.10000000000001 20.02294734194975 7.000000000000001
    vertex 19.100000000000005 9.977052658050257 7.000000000000001
  endloop
endfacet
facet normal 0.0 0.0 -1.0
  outer loop
    vertex 19.100000000000005 9.977052658050257 7.000000000000001
    vertex 19.10000000000001 20.02294734194975 7.000000000000001
    vertex 20.498849538405384 9.397630207523404 7.000000000000001
  endloop
endfacet
facet normal 0.0 0.0 -1.0
  outer loop
    vertex 20.498849538405384 9.397630207523404 7.000000000000001
    vertex 19.10000000000001 20.02294734194975 7.000000000000001
    vertex 20.498849538405388 20.602369792476598 7.000000000000001
  endloop
endfacet
facet normal 0.0 0.0 -1.0
  outer loop
    vertex 20.498849538405384 9.397630207523404 7.000000000000001
    vertex 20.498849538405388 20.602369792476598 7.000000000000001
    vertex 22.000000000000004 9.2 7.000000000000001
  endloop
endfacet
facet normal 0.0 0.0 -1.0
  outer loop
    vertex 22.000000000000004 9.2 7.000000000000001
    vertex 20.498849538405388 20.602369792476598 7.000000000000001
    vertex 22.000000000000004 20.8 7.000000000000001
  endloop
endfacet
facet normal 0.0 0.0 -1.0
  outer loop
    vertex 22.000000000000004 9.2 7.000000000000001
    vertex 22.000000000000004 20.8 7.000000000000001
    vertex 23.50115046159463 20.602369792476594 7.000000000000001
  endloop
endfacet
facet normal 0.0 0.0 -1.0
  outer loop
    vertex 22.000000000000004 9.2 7.000000000000001
    vertex 23.50115046159463 20.602369792476594 7.000000000000001
    vertex 23.501150461594623 9.397630207523404 7.000000000000001
  endloop
endfacet
facet normal 0.0 0.0 -1.0
  outer loop
    vertex 23.501150461594623 9.397630207523404 7.000000000000001
    vertex 23.50115046159463 20.602369792476594 7.000000000000001
    vertex 24.900000000000006 9.977052658050255 7.000000000000001
  endloop
endfacet
facet normal 0.0 0.0 -1.0
  outer loop
    vertex 24.900000000000006 9.977052658050255 7.000000000000001
    vertex 23.50115046159463 20.602369792476594 7.000000000000001
    vertex 24.90000000000001 20.022947341949745 7.000000000000001
  endloop
endfacet
facet normal 0.0 0.0 -1.0
  outer loop
    vertex 24.900000000000006 9.977052658050255 7.000000000000001
    vertex 24.90000000000001 20.022947341949745 7.000000000000001
    vertex 26.10121933088198 10.898780669118025 7.000000000000001
  endloop
endfacet
facet normal 0.0 0.0 -1.0
  outer loop
    vertex 26.10121933088198 10.898780669118025 7.000000000000001
    vertex 24.90000000000001 20.022947341949745 7.000000000000001
    vertex 26.101219330881985 19.101219330881975 7.000000000000001
  endloop
endfacet
facet normal 0.0 0.0 -1.0
  outer loop
    vertex 26.10121933088198 10.898780669118025 7.000000000000001
    vertex 26.101219330881985 19.101219330881975 7.000000000000001
    vertex 27.02294734194975 12.1 7.000000000000001
  endloop
endfacet
facet normal 0.0 0.0 -1.0
  outer loop
    vertex 27.02294734194975 12.1 7.000000000000001
    vertex 26.101219330881985 19.101219330881975 7.000000000000001
    vertex 27.02294734194975 17.9 7.000000000000001
  endloop
endfacet
facet normal 0.0 0.0 -1.0
  outer loop
    vertex 27.02294734194975 12.1 7.000000000000001
    vertex 27.02294734194975 17.9 7.000000000000001
    vertex 27.602369792476605 16.50115046159462 7.000000000000001
  endloop
endfacet
facet normal 0.0 0.0 -1.0
  outer loop
    vertex 27.02294734194975 12.1 7.000000000000001
    vertex 27.602369792476605 16.50115046159462 7.000000000000001
    vertex 27.602369792476598 13.498849538405379 7.000000000000001
  endloop
endfacet
facet normal 0.0 0.0 -1.0
  outer loop
    vertex 27.602369792476598 13.498849538405379 7.000000000000001
    vertex 27.602369792476605 16.50115046159462 7.000000000000001
    vertex 27.800000000000004 15.0 7.000000000000001
  endloop
endfacet
facet normal -0.7933533402912372 -0.6087614290087182 -0.0
  outer loop
    vertex 26.101219330881985 19.101219330881975 7.000000000000001
    vertex 27.02294734194975 17.9 0.0
    vertex 27.02294734194975 17.9 7.000000000000001
  endloop
endfacet
facet normal -0.7933533402912372 -0.6087614290087182 -0.0
  outer loop
    vertex 27.02294734194975 17.9 0.0
    vertex 26.101219330881985 19.101219330881975 7.000000000000001
    vertex 26.101219330881985 19.101219330881975 0.0
  endloop
endfacet
facet normal -0.9238795325112859 -0.3826834323650923 -0.0
  outer loop
    vertex 27.02294734194975 17.9 7.000000000000001
    vertex 27.602369792476605 16.50115046159462 0.0
    vertex 27.602369792476605 16.50115046159462 7.000000000000001
  endloop
endfacet
facet normal -0.9238795325112859 -0.3826834323650923 -0.0
  outer loop
    vertex 27.602369792476605 16.50115046159462 0.0
    vertex 27.02294734194975 17.9 7.000000000000001
    vertex 27.02294734194975 17.9 0.0
  endloop
endfacet
facet normal -0.9914448613738107 -0.1305261922200497 -0.0
  outer loop
    vertex 27.602369792476605 16.50115046159462 7.000000000000001
    vertex 27.800000000000004 15.0 0.0
    vertex 27.800000000000004 15.0 7.000000000000001
  endloop
endfacet
facet normal -0.9914448613738107 -0.1305261922200497 -0.0
  outer loop
    vertex 27.800000000000004 15.0 0.0
    vertex 27.602369792476605 16.50115046159462 7.000000000000001
    vertex 27.602369792476605 16.50115046159462 0.0
  endloop
endfacet
facet normal -0.9914448613738103 0.13052619222005313 -0.0
  outer loop
    vertex 27.800000000000004 15.0 7.000000000000001
    vertex 27.602369792476598 13.498849538405379 0.0
    vertex 27.602369792476598 13.498849538405379 7.000000000000001
  endloop
endfacet
facet normal -0.9914448613738103 0.13052619222005313 -0.0
  outer loop
    vertex 27.602369792476598 13.498849538405379 0.0
    vertex 27.800000000000004 15.0 7.000000000000001
    vertex 27.800000000000004 15.0 0.0
  endloop
endfacet
facet normal -0.9238795325112872 0.3826834323650887 -0.0
  outer loop
    vertex 27.602369792476598 13.498849538405379 7.000000000000001
    vertex 27.02294734194975 12.1 0.0
    vertex 27.02294734194975 12.1 7.000000000000001
  endloop
endfacet
facet normal -0.9238795325112872 0.3826834323650887 -0.0
  outer loop
    vertex 27.02294734194975 12.1 0.0
    vertex 27.602369792476598 13.498849538405379 7.000000000000001
    vertex 27.602369792476598 13.498849538405379 0.0
  endloop
endfacet
facet normal -0.793353340291235 0.608761429008721 -0.0
  outer loop
    vertex 27.02294734194975 12.1 7.000000000000001
    vertex 26.10121933088198 10.898780669118025 0.0
    vertex 26.10121933088198 10.898780669118025 7.000000000000001
  endloop
endfacet
facet normal -0.793353340291235 0.608761429008721 -0.0
  outer loop
    vertex 26.10121933088198 10.898780669118025 0.0
    vertex 27.02294734194975 12.1 7.000000000000001
    vertex 27.02294734194975 12.1 0.0
  endloop
endfacet
facet normal -0.6087614290087211 0.7933533402912347 -0.0
  outer loop
    vertex 24.900000000000006 9.977052658050255 7.000000000000001
    vertex 26.10121933088198 10.898780669118025 0.0
    vertex 24.900000000000006 9.977052658050255 0.0
  endloop
endfacet
facet normal -0.6087614290087211 0.7933533402912347 -0.0
  outer loop
    vertex 26.10121933088198 10.898780669118025 0.0
    vertex 24.900000000000006 9.977052658050255 7.000000000000001
    vertex 26.10121933088198 10.898780669118025 7.000000000000001
  endloop
endfacet
facet normal -0.38268343236508917 0.923879532511287 -0.0
  outer loop
    vertex 23.501150461594623 9.397630207523404 7.000000000000001
    vertex 24.900000000000006 9.977052658050255 0.0
    vertex 23.501150461594623 9.397630207523404 0.0
  endloop
endfacet
facet normal -0.38268343236508917 0.923879532511287 -0.0
  outer loop
    vertex 24.900000000000006 9.977052658050255 0.0
    vertex 23.501150461594623 9.397630207523404 7.000000000000001
    vertex 24.900000000000006 9.977052658050255 7.000000000000001
  endloop
endfacet
facet normal -0.13052619222005155 0.9914448613738105 -0.0
  outer loop
    vertex 22.000000000000004 9.2 7.000000000000001
    vertex 23.501150461594623 9.397630207523404 0.0
    vertex 22.000000000000004 9.2 0.0
  endloop
endfacet
facet normal -0.13052619222005155 0.9914448613738105 -0.0
  outer loop
    vertex 23.501150461594623 9.397630207523404 0.0
    vertex 22.000000000000004 9.2 7.000000000000001
    vertex 23.501150461594623 9.397630207523404 7.000000000000001
  endloop
endfacet
facet normal 0.1305261922200513 0.9914448613738105 0.0
  outer loop
    vertex 20.498849538405384 9.397630207523404 7.000000000000001
    vertex 22.000000000000004 9.2 0.0
    vertex 20.498849538405384 9.397630207523404 0.0
  endloop
endfacet
facet normal 0.1305261922200513 0.9914448613738105 0.0
  outer loop
    vertex 22.000000000000004 9.2 0.0
    vertex 20.498849538405384 9.397630207523404 7.000000000000001
    vertex 22.000000000000004 9.2 7.000000000000001
  endloop
endfacet
facet normal 0.38268343236509067 0.9238795325112864 0.0
  outer loop
    vertex 19.100000000000005 9.977052658050257 7.000000000000001
    vertex 20.498849538405384 9.397630207523404 0.0
    vertex 19.100000000000005 9.977052658050257 0.0
  endloop
endfacet
facet normal 0.38268343236509067 0.9238795325112864 0.0
  outer loop
    vertex 20.498849538405384 9.397630207523404 0.0
    vertex 19.100000000000005 9.977052658050257 7.000000000000001
    vertex 20.498849538405384 9.397630207523404 7.000000000000001
  endloop
endfacet
facet normal 0.6087614290087205 0.7933533402912352 0.0
  outer loop
    vertex 17.89878066911803 10.898780669118025 7.000000000000001
    vertex 19.100000000000005 9.977052658050257 0.0
    vertex 17.89878066911803 10.898780669118025 0.0
  endloop
endfacet
facet normal 0.6087614290087205 0.7933533402912352 0.0
  outer loop
    vertex 19.100000000000005 9.977052658050257 0.0
    vertex 17.89878066911803 10.898780669118025 7.000000000000001
    vertex 19.100000000000005 9.977052658050257 7.000000000000001
  endloop
endfacet
facet normal 0.7933533402912352 0.6087614290087205 0.0
  outer loop
    vertex 16.977052658050262 12.1 0.0
    vertex 17.89878066911803 10.898780669118025 7.000000000000001
    vertex 17.89878066911803 10.898780669118025 0.0
  endloop
endfacet
facet normal 0.7933533402912352 0.6087614290087205 0.0
  outer loop
    vertex 17.89878066911803 10.898780669118025 7.000000000000001
    vertex 16.977052658050262 12.1 0.0
    vertex 16.977052658050262 12.1 7.000000000000001
  endloop
endfacet
facet normal 0.9238795325112864 0.38268343236509067 0.0
  outer loop
    vertex 16.39763020752341 13.498849538405379 0.0
    vertex 16.977052658050262 12.1 7.000000000000001
    vertex 16.977052658050262 12.1 0.0
  endloop
endfacet
facet normal 0.9238795325112864 0.38268343236509067 0.0
  outer loop
    vertex 16.977052658050262 12.1 7.000000000000001
    vertex 16.39763020752341 13.498849538405379 0.0
    vertex 16.39763020752341 13.498849538405379 7.000000000000001
  endloop
endfacet
facet normal 0.9914448613738105 0.1305261922200513 0.0
  outer loop
    vertex 16.200000000000003 15.0 0.0
    vertex 16.39763020752341 13.498849538405379 7.000000000000001
    vertex 16.39763020752341 13.498849538405379 0.0
  endloop
endfacet
facet normal 0.9914448613738105 0.1305261922200513 0.0
  outer loop
    vertex 16.39763020752341 13.498849538405379 7.000000000000001
    vertex 16.200000000000003 15.0 0.0
    vertex 16.200000000000003 15.0 7.000000000000001
  endloop
endfacet
facet normal 0.9914448613738103 -0.13052619222005288 -0.0
  outer loop
    vertex 16.39763020752341 16.501150461594627 0.0
    vertex 16.200000000000003 15.0 7.000000000000001
    vertex 16.200000000000003 15.0 0.0
  endloop
endfacet
facet normal 0.9914448613738103 -0.13052619222005288 -0.0
  outer loop
    vertex 16.200000000000003 15.0 7.000000000000001
    vertex 16.39763020752341 16.501150461594627 0.0
    vertex 16.39763020752341 16.501150461594627 7.000000000000001
  endloop
endfacet
facet normal 0.9238795325112871 -0.38268343236508906 -0.0
  outer loop
    vertex 16.977052658050262 17.900000000000002 0.0
    vertex 16.39763020752341 16.501150461594627 7.000000000000001
    vertex 16.39763020752341 16.501150461594627 0.0
  endloop
endfacet
facet normal 0.9238795325112871 -0.38268343236508906 -0.0
  outer loop
    vertex 16.39763020752341 16.501150461594627 7.000000000000001
    vertex 16.977052658050262 17.900000000000002 0.0
    vertex 16.977052658050262 17.900000000000002 7.000000000000001
  endloop
endfacet
facet normal 0.7933533402912345 -0.6087614290087214 -0.0
  outer loop
    vertex 17.89878066911803 19.101219330881975 0.0
    vertex 16.977052658050262 17.900000000000002 7.000000000000001
    vertex 16.977052658050262 17.900000000000002 0.0
  endloop
endfacet
facet normal 0.7933533402912345 -0.6087614290087214 -0.0
  outer loop
    vertex 16.977052658050262 17.900000000000002 7.000000000000001
    vertex 17.89878066911803 19.101219330881975 0.0
    vertex 17.89878066911803 19.101219330881975 7.000000000000001
  endloop
endfacet
facet normal 0.60876142900872 -0.7933533402912357 -0.0
  outer loop
    vertex 19.10000000000001 20.02294734194975 7.000000000000001
    vertex 17.89878066911803 19.101219330881975 0.0
    vertex 19.10000000000001 20.02294734194975 0.0
  endloop
endfacet
facet normal 0.60876142900872 -0.7933533402912357 -0.0
  outer loop
    vertex 17.89878066911803 19.101219330881975 0.0
    vertex 19.10000000000001 20.02294734194975 7.000000000000001
    vertex 17.89878066911803 19.101219330881975 7.000000000000001
  endloop
endfacet
facet normal 0.3826834323650897 -0.9238795325112867 -0.0
  outer loop
    vertex 20.498849538405388 20.602369792476598 7.000000000000001
    vertex 19.10000000000001 20.02294734194975 0.0
    vertex 20.498849538405388 20.602369792476598 0.0
  endloop
endfacet
facet normal 0.3826834323650897 -0.9238795325112867 -0.0
  outer loop
    vertex 19.10000000000001 20.02294734194975 0.0
    vertex 20.498849538405388 20.602369792476598 7.000000000000001
    vertex 19.10000000000001 20.02294734194975 7.000000000000001
  endloop
endfacet
facet normal 0.13052619222005155 -0.9914448613738105 -0.0
  outer loop
    vertex 22.000000000000004 20.8 7.000000000000001
    vertex 20.498849538405388 20.602369792476598 0.0
    vertex 22.000000000000004 20.8 0.0
  endloop
endfacet
facet normal 0.13052619222005155 -0.9914448613738105 -0.0
  outer loop
    vertex 20.498849538405388 20.602369792476598 0.0
    vertex 22.000000000000004 20.8 7.000000000000001
    vertex 20.498849538405388 20.602369792476598 7.000000000000001
  endloop
endfacet
facet normal -0.13052619222005288 -0.9914448613738103 -0.0
  outer loop
    vertex 23.50115046159463 20.602369792476594 7.000000000000001
    vertex 22.000000000000004 20.8 0.0
    vertex 23.50115046159463 20.602369792476594 0.0
  endloop
endfacet
facet normal -0.13052619222005288 -0.9914448613738103 -0.0
  outer loop
    vertex 22.000000000000004 20.8 0.0
    vertex 23.50115046159463 20.602369792476594 7.000000000000001
    vertex 22.000000000000004 20.8 7.000000000000001
  endloop
endfacet
facet normal -0.38268343236508906 -0.9238795325112871 -0.0
  outer loop
    vertex 24.90000000000001 20.022947341949745 7.000000000000001
    vertex 23.50115046159463 20.602369792476594 0.0
    vertex 24.90000000000001 20.022947341949745 0.0
  endloop
endfacet
facet normal -0.38268343236508906 -0.9238795325112871 -0.0
  outer loop
    vertex 23.50115046159463 20.602369792476594 0.0
    vertex 24.90000000000001 20.022947341949745 7.000000000000001
    vertex 23.50115046159463 20.602369792476594 7.000000000000001
  endloop
endfacet
facet normal -0.6087614290087209 -0.7933533402912352 -0.0
  outer loop
    vertex 26.101219330881985 19.101219330881975 7.000000000000001
    vertex 24.90000000000001 20.022947341949745 0.0
    vertex 26.101219330881985 19.101219330881975 0.0
  endloop
endfacet
facet normal -0.6087614290087209 -0.7933533402912352 -0.0
  outer loop
    vertex 24.90000000000001 20.022947341949745 0.0
    vertex 26.101219330881985 19.101219330881975 7.000000000000001
    vertex 24.90000000000001 20.022947341949745 7.000000000000001
  endloop
endfacet
facet normal 6.895777803237565e-32 -2.7583111212950274e-31 1.0
  outer loop
    vertex 19.00562993850389 14.197660960182185 7.200000000000001
    vertex 19.00562993850389 15.802339039817815 7.200000000000001
    vertex 18.900000000000002 15.0 7.200000000000001
  endloop
endfacet
facet normal 6.895777803237565e-32 -2.7583111212950274e-31 1.0
  outer loop
    vertex 19.00562993850389 15.802339039817815 7.200000000000001
    vertex 19.00562993850389 14.197660960182185 7.200000000000001
    vertex 19.31532124826824 13.450000000000001 7.200000000000001
  endloop
endfacet
facet normal 6.895777803237565e-32 -2.7583111212950274e-31 1.0
  outer loop
    vertex 19.00562993850389 15.802339039817815 7.200000000000001
    vertex 19.31532124826824 13.450000000000001 7.200000000000001
    vertex 19.31532124826824 16.55 7.200000000000001
  endloop
endfacet
facet normal 6.895777803237565e-32 -2.7583111212950274e-31 1.0
  outer loop
    vertex 19.31532124826824 16.55 7.200000000000001
    vertex 19.31532124826824 13.450000000000001 7.200000000000001
    vertex 19.807968978321707 12.807968978321703 7.200000000000001
  endloop
endfacet
facet normal 6.895777803237565e-32 -2.7583111212950274e-31 1.0
  outer loop
    vertex 19.31532124826824 16.55 7.200000000000001
    vertex 19.807968978321707 12.807968978321703 7.200000000000001
    vertex 19.807968978321703 17.192031021678297 7.200000000000001
  endloop
endfacet
facet normal 6.895777803237565e-32 -2.7583111212950274e-31 1.0
  outer loop
    vertex 19.807968978321703 17.192031021678297 7.200000000000001
    vertex 19.807968978321707 12.807968978321703 7.200000000000001
    vertex 20.450000000000003 17.68467875173176 7.200000000000001
  endloop
endfacet
facet normal 6.895777803237565e-32 -2.7583111212950274e-31 1.0
  outer loop
    vertex 20.450000000000003 17.68467875173176 7.200000000000001
    vertex 19.807968978321707 12.807968978321703 7.200000000000001
    vertex 20.450000000000003 12.31532124826824 7.200000000000001
  endloop
endfacet
facet normal 6.895777803237565e-32 -2.7583111212950274e-31 1.0
  outer loop
    vertex 20.450000000000003 17.68467875173176 7.200000000000001
    vertex 20.450000000000003 12.31532124826824 7.200000000000001
    vertex 21.197660960182187 12.005629938503889 7.200000000000001
  endloop
endfacet
facet normal 6.895777803237565e-32 -2.7583111212950274e-31 1.0
  outer loop
    vertex 20.450000000000003 17.68467875173176 7.200000000000001
    vertex 21.197660960182187 12.005629938503889 7.200000000000001
    vertex 21.197660960182187 17.99437006149611 7.200000000000001
  endloop
endfacet
facet normal 6.895777803237565e-32 -2.7583111212950274e-31 1.0
  outer loop
    vertex 21.197660960182187 17.99437006149611 7.200000000000001
    vertex 21.197660960182187 12.005629938503889 7.200000000000001
    vertex 22.000000000000004 18.1 7.200000000000001
  endloop
endfacet
facet normal 6.895777803237565e-32 -2.7583111212950274e-31 1.0
  outer loop
    vertex 22.000000000000004 18.1 7.200000000000001
    vertex 21.197660960182187 12.005629938503889 7.200000000000001
    vertex 22.000000000000004 11.9 7.200000000000001
  endloop
endfacet
facet normal 6.895777803237565e-32 -2.7583111212950274e-31 1.0
  outer loop
    vertex 22.000000000000004 18.1 7.200000000000001
    vertex 22.000000000000004 11.9 7.200000000000001
    vertex 22.802339039817817 12.005629938503889 7.200000000000001
  endloop
endfacet
facet normal 6.895777803237565e-32 -2.7583111212950274e-31 1.0
  outer loop
    vertex 22.000000000000004 18.1 7.200000000000001
    vertex 22.802339039817817 12.005629938503889 7.200000000000001
    vertex 22.802339039817817 17.994370061496113 7.200000000000001
  endloop
endfacet
facet normal 6.895777803237565e-32 -2.7583111212950274e-31 1.0
  outer loop
    vertex 22.802339039817817 17.994370061496113 7.200000000000001
    vertex 22.802339039817817 12.005629938503889 7.200000000000001
    vertex 23.55 17.68467875173176 7.200000000000001
  endloop
endfacet
facet normal 6.895777803237565e-32 -2.7583111212950274e-31 1.0
  outer loop
    vertex 23.55 17.68467875173176 7.200000000000001
    vertex 22.802339039817817 12.005629938503889 7.200000000000001
    vertex 23.55 12.31532124826824 7.200000000000001
  endloop
endfacet
facet normal 6.895777803237565e-32 -2.7583111212950274e-31 1.0
  outer loop
    vertex 23.55 17.68467875173176 7.200000000000001
    vertex 23.55 12.31532124826824 7.200000000000001
    vertex 24.1920310216783 17.192031021678297 7.200000000000001
  endloop
endfacet
facet normal 6.895777803237565e-32 -2.7583111212950274e-31 1.0
  outer loop
    vertex 24.1920310216783 17.192031021678297 7.200000000000001
    vertex 23.55 12.31532124826824 7.200000000000001
    vertex 24.1920310216783 12.807968978321703 7.200000000000001
  endloop
endfacet
facet normal 6.895777803237565e-32 -2.7583111212950274e-31 1.0
  outer loop
    vertex 24.1920310216783 17.192031021678297 7.200000000000001
    vertex 24.1920310216783 12.807968978321703 7.200000000000001
    vertex 24.684678751731763 13.450000000000001 7.200000000000001
  endloop
endfacet
facet normal 6.895777803237565e-32 -2.7583111212950274e-31 1.0
  outer loop
    vertex 24.1920310216783 17.192031021678297 7.200000000000001
    vertex 24.684678751731763 13.450000000000001 7.200000000000001
    vertex 24.684678751731763 16.550000000000004 7.200000000000001
  endloop
endfacet
facet normal 6.895777803237565e-32 -2.7583111212950274e-31 1.0
  outer loop
    vertex 24.684678751731763 16.550000000000004 7.200000000000001
    vertex 24.684678751731763 13.450000000000001 7.200000000000001
    vertex 24.994370061496113 14.197660960182187 7.200000000000001
  endloop
endfacet
facet normal 6.895777803237565e-32 -2.7583111212950274e-31 1.0
  outer loop
    vertex 24.684678751731763 16.550000000000004 7.200000000000001
    vertex 24.994370061496113 14.197660960182187 7.200000000000001
    vertex 24.994370061496113 15.802339039817817 7.200000000000001
  endloop
endfacet
facet normal 6.895777803237565e-32 -2.7583111212950274e-31 1.0
  outer loop
    vertex 24.994370061496113 15.802339039817817 7.200000000000001
    vertex 24.994370061496113 14.197660960182187 7.200000000000001
    vertex 25.1 15.0 7.200000000000001
  endloop
endfacet
facet normal 0.7933533402912358 -0.6087614290087199 -2.2262322552606736e-31
  outer loop
    vertex 19.807968978321703 17.192031021678297 7.200000000000001
    vertex 19.31532124826824 16.55 10.000000000000002
    vertex 19.31532124826824 16.55 7.200000000000001
  endloop
endfacet
facet normal 0.7933533402912358 -0.6087614290087199 -2.2262322552606736e-31
  outer loop
    vertex 19.31532124826824 16.55 10.000000000000002
    vertex 19.807968978321703 17.192031021678297 7.200000000000001
    vertex 19.807968978321703 17.192031021678297 10.000000000000002
  endloop
endfacet
facet normal 0.9238795325112868 -0.38268343236508984 -1.6926467647436636e-31
  outer loop
    vertex 19.31532124826824 16.55 7.200000000000001
    vertex 19.00562993850389 15.802339039817815 10.000000000000002
    vertex 19.00562993850389 15.802339039817815 7.200000000000001
  endloop
endfacet
facet normal 0.9238795325112868 -0.38268343236508984 -1.6926467647436636e-31
  outer loop
    vertex 19.00562993850389 15.802339039817815 10.000000000000002
    vertex 19.31532124826824 16.55 7.200000000000001
    vertex 19.31532124826824 16.55 10.000000000000002
  endloop
endfacet
facet normal 0.9914448613738106 -0.13052619222005057 -1.0437101944404048e-31
  outer loop
    vertex 19.00562993850389 15.802339039817815 7.200000000000001
    vertex 18.900000000000002 15.0 10.000000000000002
    vertex 18.900000000000002 15.0 7.200000000000001
  endloop
endfacet
facet normal 0.9914448613738106 -0.13052619222005057 -1.0437101944404048e-31
  outer loop
    vertex 18.900000000000002 15.0 10.000000000000002
    vertex 19.00562993850389 15.802339039817815 7.200000000000001
    vertex 19.00562993850389 15.802339039817815 10.000000000000002
  endloop
endfacet
facet normal 0.9914448613738107 0.1305261922200501 -3.2364649919869014e-32
  outer loop
    vertex 18.900000000000002 15.0 7.200000000000001
    vertex 19.00562993850389 14.197660960182185 10.000000000000002
    vertex 19.00562993850389 14.197660960182185 7.200000000000001
  endloop
endfacet
facet normal 0.9914448613738107 0.1305261922200501 -3.2364649919869014e-32
  outer loop
    vertex 19.00562993850389 14.197660960182185 10.000000000000002
    vertex 18.900000000000002 15.0 7.200000000000001
    vertex 18.900000000000002 15.0 10.000000000000002
  endloop
endfacet
facet normal 0.9238795325112863 0.382683432365091 4.1847317011230137e-32
  outer loop
    vertex 19.00562993850389 14.197660960182185 7.200000000000001
    vertex 19.31532124826824 13.450000000000001 10.000000000000002
    vertex 19.31532124826824 13.450000000000001 7.200000000000001
  endloop
endfacet
facet normal 0.9238795325112863 0.382683432365091 4.1847317011230137e-32
  outer loop
    vertex 19.31532124826824 13.450000000000001 10.000000000000002
    vertex 19.00562993850389 14.197660960182185 7.200000000000001
    vertex 19.00562993850389 14.197660960182185 10.000000000000002
  endloop
endfacet
facet normal 0.7933533402912342 0.6087614290087221 1.1320745844397443e-31
  outer loop
    vertex 19.31532124826824 13.450000000000001 7.200000000000001
    vertex 19.807968978321707 12.807968978321703 10.000000000000002
    vertex 19.807968978321707 12.807968978321703 7.200000000000001
  endloop
endfacet
facet normal 0.7933533402912342 0.6087614290087221 1.1320745844397443e-31
  outer loop
    vertex 19.807968978321707 12.807968978321703 10.000000000000002
    vertex 19.31532124826824 13.450000000000001 7.200000000000001
    vertex 19.31532124826824 13.450000000000001 10.000000000000002
  endloop
endfacet
facet normal 0.6087614290087221 0.7933533402912342 1.768526986679317e-31
  outer loop
    vertex 19.807968978321707 12.807968978321703 10.000000000000002
    vertex 20.450000000000003 12.31532124826824 7.200000000000001
    vertex 19.807968978321707 12.807968978321703 7.200000000000001
  endloop
endfacet
facet normal 0.6087614290087221 0.7933533402912342 1.768526986679317e-31
  outer loop
    vertex 20.450000000000003 12.31532124826824 7.200000000000001
    vertex 19.807968978321707 12.807968978321703 10.000000000000002
    vertex 20.450000000000003 12.31532124826824 10.000000000000002
  endloop
endfacet
facet normal 0.3826834323650883 0.9238795325112873 2.2844571974057407e-31
  outer loop
    vertex 20.450000000000003 12.31532124826824 10.000000000000002
    vertex 21.197660960182187 12.005629938503889 7.200000000000001
    vertex 20.450000000000003 12.31532124826824 7.200000000000001
  endloop
endfacet
facet normal 0.3826834323650883 0.9238795325112873 2.2844571974057407e-31
  outer loop
    vertex 21.197660960182187 12.005629938503889 7.200000000000001
    vertex 20.450000000000003 12.31532124826824 10.000000000000002
    vertex 21.197660960182187 12.005629938503889 10.000000000000002
  endloop
endfacet
facet normal 0.13052619222005227 0.9914448613738104 2.6447054253729726e-31
  outer loop
    vertex 21.197660960182187 12.005629938503889 10.000000000000002
    vertex 22.000000000000004 11.9 7.200000000000001
    vertex 21.197660960182187 12.005629938503889 7.200000000000001
  endloop
endfacet
facet normal 0.13052619222005227 0.9914448613738104 2.6447054253729726e-31
  outer loop
    vertex 22.000000000000004 11.9 7.200000000000001
    vertex 21.197660960182187 12.005629938503889 10.000000000000002
    vertex 22.000000000000004 11.9 10.000000000000002
  endloop
endfacet
facet normal -0.13052619222005182 0.9914448613738104 2.8247213491834027e-31
  outer loop
    vertex 22.000000000000004 11.9 10.000000000000002
    vertex 22.802339039817817 12.005629938503889 7.200000000000001
    vertex 22.000000000000004 11.9 7.200000000000001
  endloop
endfacet
facet normal -0.13052619222005182 0.9914448613738104 2.8247213491834027e-31
  outer loop
    vertex 22.802339039817817 12.005629938503889 7.200000000000001
    vertex 22.000000000000004 11.9 10.000000000000002
    vertex 22.802339039817817 12.005629938503889 10.000000000000002
  endloop
endfacet
facet normal -0.38268343236508956 0.9238795325112868 2.8122371811197284e-31
  outer loop
    vertex 22.802339039817817 12.005629938503889 10.000000000000002
    vertex 23.55 12.31532124826824 7.200000000000001
    vertex 22.802339039817817 12.005629938503889 7.200000000000001
  endloop
endfacet
facet normal -0.38268343236508956 0.9238795325112868 2.8122371811197284e-31
  outer loop
    vertex 23.55 12.31532124826824 7.200000000000001
    vertex 22.802339039817817 12.005629938503889 10.000000000000002
    vertex 23.55 12.31532124826824 10.000000000000002
  endloop
endfacet
facet normal -0.6087614290087221 0.7933533402912342 2.608103696604422e-31
  outer loop
    vertex 23.55 12.31532124826824 10.000000000000002
    vertex 24.1920310216783 12.807968978321703 7.200000000000001
    vertex 23.55 12.31532124826824 7.200000000000001
  endloop
endfacet
facet normal -0.6087614290087221 0.7933533402912342 2.608103696604422e-31
  outer loop
    vertex 24.1920310216783 12.807968978321703 7.200000000000001
    vertex 23.55 12.31532124826824 10.000000000000002
    vertex 24.1920310216783 12.807968978321703 10.000000000000002
  endloop
endfacet
facet normal -0.7933533402912342 0.6087614290087221 2.2262322552606784e-31
  outer loop
    vertex 24.684678751731763 13.450000000000001 10.000000000000002
    vertex 24.1920310216783 12.807968978321703 7.200000000000001
    vertex 24.1920310216783 12.807968978321703 10.000000000000002
  endloop
endfacet
facet normal -0.7933533402912342 0.6087614290087221 2.2262322552606784e-31
  outer loop
    vertex 24.1920310216783 12.807968978321703 7.200000000000001
    vertex 24.684678751731763 13.450000000000001 10.000000000000002
    vertex 24.684678751731763 13.450000000000001 7.200000000000001
  endloop
endfacet
facet normal -0.9238795325112868 0.38268343236508984 1.6926467647436636e-31
  outer loop
    vertex 24.994370061496113 14.197660960182187 10.000000000000002
    vertex 24.684678751731763 13.450000000000001 7.200000000000001
    vertex 24.684678751731763 13.450000000000001 10.000000000000002
  endloop
endfacet
facet normal -0.9238795325112868 0.38268343236508984 1.6926467647436636e-31
  outer loop
    vertex 24.684678751731763 13.450000000000001 7.200000000000001
    vertex 24.994370061496113 14.197660960182187 10.000000000000002
    vertex 24.994370061496113 14.197660960182187 7.200000000000001
  endloop
endfacet
facet normal -0.9914448613738106 0.13052619222005057 1.0437101944404048e-31
  outer loop
    vertex 25.1 15.0 10.000000000000002
    vertex 24.994370061496113 14.197660960182187 7.200000000000001
    vertex 24.994370061496113 14.197660960182187 10.000000000000002
  endloop
endfacet
facet normal -0.9914448613738106 0.13052619222005057 1.0437101944404048e-31
  outer loop
    vertex 24.994370061496113 14.197660960182187 7.200000000000001
    vertex 25.1 15.0 10.000000000000002
    vertex 25.1 15.0 7.200000000000001
  endloop
endfacet
facet normal -0.9914448613738102 -0.13052619222005352 3.2364649919868034e-32
  outer loop
    vertex 24.994370061496113 15.802339039817817 10.000000000000002
    vertex 25.1 15.0 7.200000000000001
    vertex 25.1 15.0 10.000000000000002
  endloop
endfacet
facet normal -0.9914448613738102 -0.13052619222005352 3.2364649919868034e-32
  outer loop
    vertex 25.1 15.0 7.200000000000001
    vertex 24.994370061496113 15.802339039817817 10.000000000000002
    vertex 24.994370061496113 15.802339039817817 7.200000000000001
  endloop
endfacet
facet normal -0.923879532511288 -0.3826834323650868 -4.184731701122885e-32
  outer loop
    vertex 24.684678751731763 16.550000000000004 10.000000000000002
    vertex 24.994370061496113 15.802339039817817 7.200000000000001
    vertex 24.994370061496113 15.802339039817817 10.000000000000002
  endloop
endfacet
facet normal -0.923879532511288 -0.3826834323650868 -4.184731701122885e-32
  outer loop
    vertex 24.994370061496113 15.802339039817817 7.200000000000001
    vertex 24.684678751731763 16.550000000000004 10.000000000000002
    vertex 24.684678751731763 16.550000000000004 7.200000000000001
  endloop
endfacet
facet normal -0.793353340291233 -0.6087614290087238 -1.1320745844397498e-31
  outer loop
    vertex 24.1920310216783 17.192031021678297 10.000000000000002
    vertex 24.684678751731763 16.550000000000004 7.200000000000001
    vertex 24.684678751731763 16.550000000000004 10.000000000000002
  endloop
endfacet
facet normal -0.793353340291233 -0.6087614290087238 -1.1320745844397498e-31
  outer loop
    vertex 24.684678751731763 16.550000000000004 7.200000000000001
    vertex 24.1920310216783 17.192031021678297 10.000000000000002
    vertex 24.1920310216783 17.192031021678297 7.200000000000001
  endloop
endfacet
facet normal -0.6087614290087203 -0.7933533402912354 -1.7685269866793214e-31
  outer loop
    vertex 24.1920310216783 17.192031021678297 10.000000000000002
    vertex 23.55 17.68467875173176 7.200000000000001
    vertex 24.1920310216783 17.192031021678297 7.200000000000001
  endloop
endfacet
facet normal -0.6087614290087203 -0.7933533402912354 -1.7685269866793214e-31
  outer loop
    vertex 23.55 17.68467875173176 7.200000000000001
    vertex 24.1920310216783 17.192031021678297 10.000000000000002
    vertex 23.55 17.68467875173176 10.000000000000002
  endloop
endfacet
facet normal -0.382683432365091 -0.9238795325112863 -2.284457197405736e-31
  outer loop
    vertex 23.55 17.68467875173176 10.000000000000002
    vertex 22.802339039817817 17.994370061496113 7.200000000000001
    vertex 23.55 17.68467875173176 7.200000000000001
  endloop
endfacet
facet normal -0.382683432365091 -0.9238795325112863 -2.284457197405736e-31
  outer loop
    vertex 22.802339039817817 17.994370061496113 7.200000000000001
    vertex 23.55 17.68467875173176 10.000000000000002
    vertex 22.802339039817817 17.994370061496113 10.000000000000002
  endloop
endfacet
facet normal -0.13052619222005057 -0.9914448613738106 -2.6447054253729744e-31
  outer loop
    vertex 22.802339039817817 17.994370061496113 10.000000000000002
    vertex 22.000000000000004 18.1 7.200000000000001
    vertex 22.802339039817817 17.994370061496113 7.200000000000001
  endloop
endfacet
facet normal -0.13052619222005057 -0.9914448613738106 -2.6447054253729744e-31
  outer loop
    vertex 22.000000000000004 18.1 7.200000000000001
    vertex 22.802339039817817 17.994370061496113 10.000000000000002
    vertex 22.000000000000004 18.1 10.000000000000002
  endloop
endfacet
facet normal 0.13052619222005352 -0.9914448613738102 -2.8247213491834036e-31
  outer loop
    vertex 22.000000000000004 18.1 10.000000000000002
    vertex 21.197660960182187 17.99437006149611 7.200000000000001
    vertex 22.000000000000004 18.1 7.200000000000001
  endloop
endfacet
facet normal 0.13052619222005352 -0.9914448613738102 -2.8247213491834036e-31
  outer loop
    vertex 21.197660960182187 17.99437006149611 7.200000000000001
    vertex 22.000000000000004 18.1 10.000000000000002
    vertex 21.197660960182187 17.99437006149611 10.000000000000002
  endloop
endfacet
facet normal 0.382683432365091 -0.9238795325112863 -2.8122371811197276e-31
  outer loop
    vertex 21.197660960182187 17.99437006149611 10.000000000000002
    vertex 20.450000000000003 17.68467875173176 7.200000000000001
    vertex 21.197660960182187 17.99437006149611 7.200000000000001
  endloop
endfacet
facet normal 0.382683432365091 -0.9238795325112863 -2.8122371811197276e-31
  outer loop
    vertex 20.450000000000003 17.68467875173176 7.200000000000001
    vertex 21.197660960182187 17.99437006149611 10.000000000000002
    vertex 20.450000000000003 17.68467875173176 10.000000000000002
  endloop
endfacet
facet normal 0.6087614290087181 -0.793353340291237 -2.608103696604428e-31
  outer loop
    vertex 20.450000000000003 17.68467875173176 10.000000000000002
    vertex 19.807968978321703 17.192031021678297 7.200000000000001
    vertex 20.450000000000003 17.68467875173176 7.200000000000001
  endloop
endfacet
facet normal 0.6087614290087181 -0.793353340291237 -2.608103696604428e-31
  outer loop
    vertex 19.807968978321703 17.192031021678297 7.200000000000001
    vertex 20.450000000000003 17.68467875173176 10.000000000000002
    vertex 19.807968978321703 17.192031021678297 10.000000000000002
  endloop
endfacet
facet normal -1.0 0.0 0.0
  outer loop
    vertex 0.0 6.000000000000002 10.0
    vertex 0.0 0.0 0.0
    vertex 0.0 0.0 10.0
  endloop
endfacet
facet normal -1.0 0.0 0.0
  outer loop
    vertex 0.0 0.0 0.0
    vertex 0.0 6.000000000000002 10.0
    vertex 0.0 11.000000000000002 0.0
  endloop
endfacet
facet normal -1.0 0.0 0.0
  outer loop
    vertex 0.0 11.000000000000002 0.0
    vertex 0.0 6.000000000000002 10.0
    vertex 0.0 11.000000000000002 5.0
  endloop
endfacet
facet normal -1.0 0.0 0.0
  outer loop
    vertex 12.0 24.0 10.0
    vertex 12.0 19.000000000000004 5.0
    vertex 12.0 19.000000000000004 10.0
  endloop
endfacet
facet normal -1.0 0.0 0.0
  outer loop
    vertex 12.0 19.000000000000004 12.0
    vertex 12.0 11.000000000000002 10.0
    vertex 12.0 11.000000000000002 12.0
  endloop
endfacet
facet normal -1.0 0.0 0.0
  outer loop
    vertex 12.0 11.000000000000002 10.0
    vertex 12.0 19.000000000000004 12.0
    vertex 12.0 11.000000000000002 5.0
  endloop
endfacet
facet normal -1.0 0.0 0.0
  outer loop
    vertex 12.0 11.000000000000002 5.0
    vertex 12.0 19.000000000000004 12.0
    vertex 12.0 11.000000000000002 0.0
  endloop
endfacet
facet normal -1.0 0.0 0.0
  outer loop
    vertex 12.0 11.000000000000002 0.0
    vertex 12.0 19.000000000000004 12.0
    vertex 12.0 19.000000000000004 0.0
  endloop
endfacet
facet normal -1.0 0.0 0.0
  outer loop
    vertex 12.0 19.000000000000004 0.0
    vertex 12.0 19.000000000000004 12.0
    vertex 12.0 19.000000000000004 10.0
  endloop
endfacet
facet normal -1.0 0.0 0.0
  outer loop
    vertex 12.0 19.000000000000004 0.0
    vertex 12.0 19.000000000000004 10.0
    vertex 12.0 19.000000000000004 5.0
  endloop
endfacet
facet normal -1.0 0.0 0.0
  outer loop
    vertex 12.0 11.000000000000002 5.0
    vertex 12.0 6.000000000000002 10.0
    vertex 12.0 11.000000000000002 10.0
  endloop
endfacet
facet normal 0.0 1.0 2.8199664825478977e-16
  outer loop
    vertex 0.0 11.000000000000002 5.0
    vertex 12.0 11.000000000000002 0.0
    vertex 0.0 11.000000000000002 0.0
  endloop
endfacet
facet normal 0.0 1.0 2.8199664825478977e-16
  outer loop
    vertex 12.0 11.000000000000002 0.0
    vertex 0.0 11.000000000000002 5.0
    vertex 12.0 11.000000000000002 5.0
  endloop
endfacet
facet normal 0.0 0.7071067811865476 0.7071067811865475
  outer loop
    vertex 0.0 6.000000000000002 10.0
    vertex 12.0 11.000000000000002 5.0
    vertex 0.0 11.000000000000002 5.0
  endloop
endfacet
facet normal 0.0 0.7071067811865476 0.7071067811865475
  outer loop
    vertex 12.0 11.000000000000002 5.0
    vertex 0.0 6.000000000000002 10.0
    vertex 12.0 6.000000000000002 10.0
  endloop
endfacet
facet normal -0.0 -0.7071067811865476 0.7071067811865475
  outer loop
    vertex 12.0 24.0 10.0
    vertex 0.0 19.000000000000004 5.0
    vertex 12.0 19.000000000000004 5.0
  endloop
endfacet
facet normal -0.0 -0.7071067811865476 0.7071067811865475
  outer loop
    vertex 0.0 19.000000000000004 5.0
    vertex 12.0 24.0 10.0
    vertex 0.0 24.0 10.0
  endloop
endfacet
facet normal -0.0 -1.0 -0.0
  outer loop
    vertex 12.0 19.000000000000004 5.0
    vertex 0.0 19.000000000000004 0.0
    vertex 12.0 19.000000000000004 0.0
  endloop
endfacet
facet normal -0.0 -1.0 -0.0
  outer loop
    vertex 0.0 19.000000000000004 0.0
    vertex 12.0 19.000000000000004 5.0
    vertex 0.0 19.000000000000004 5.0
  endloop
endfacet
facet normal -0.0 -0.0 1.0
  outer loop
    vertex 17.0 11.0 12.0
    vertex 12.0 19.000000000000004 12.0
    vertex 12.0 11.000000000000002 12.0
  endloop
endfacet
facet normal -0.0 -0.0 1.0
  outer loop
    vertex 12.0 19.000000000000004 12.0
    vertex 17.0 11.0 12.0
    vertex 17.0 19.000000000000004 12.0
  endloop
endfacet
facet normal -1.0 -7.04991620636974e-16 -7.007802617795563e-46
  outer loop
    vertex 26.999999999999996 19.000000000000004 12.0
    vertex 27.0 10.999999999999998 10.000000000000002
    vertex 27.0 10.999999999999998 12.0
  endloop
endfacet
facet normal -1.0 -7.04991620636974e-16 -7.007802617795563e-46
  outer loop
    vertex 27.0 10.999999999999998 10.000000000000002
    vertex 26.999999999999996 19.000000000000004 12.0
    vertex 26.999999999999996 19.000000000000004 10.000000000000002
  endloop
endfacet
facet normal 1.0 -0.0 -0.0
  outer loop
    vertex 17.0 19.000000000000004 10.000000000000002
    vertex 17.0 11.0 12.0
    vertex 17.0 11.0 10.000000000000002
  endloop
endfacet
facet normal 1.0 -0.0 -0.0
  outer loop
    vertex 17.0 11.0 12.0
    vertex 17.0 19.000000000000004 10.000000000000002
    vertex 17.0 19.000000000000004 12.0
  endloop
endfacet
facet normal -0.0 1.0 -0.0
  outer loop
    vertex 12.0 19.000000000000004 12.0
    vertex 17.0 19.000000000000004 10.000000000000002
    vertex 12.0 19.000000000000004 10.0
  endloop
endfacet
facet normal -0.0 1.0 -0.0
  outer loop
    vertex 17.0 19.000000000000004 10.000000000000002
    vertex 12.0 19.000000000000004 12.0
    vertex 17.0 19.000000000000004 12.0
  endloop
endfacet
facet normal 0.0 -1.0 0.0
  outer loop
    vertex 31.0 10.999999999999998 12.0
    vertex 27.0 10.999999999999998 10.000000000000002
    vertex 31.0 10.999999999999998 10.0
  endloop
endfacet
facet normal 0.0 -1.0 0.0
  outer loop
    vertex 27.0 10.999999999999998 10.000000000000002
    vertex 31.0 10.999999999999998 12.0
    vertex 27.0 10.999999999999998 12.0
  endloop
endfacet
endsolid psu-mount-socket
