solid psu-mount-plug
facet normal 0.0 0.0 -1.0
  outer loop
    vertex 14.999999999999995 28.000000000000004 0.0
    vertex 9.999999999999996 19.999999999999996 0.0
    vertex 9.999999999999996 28.000000000000004 0.0
  endloop
endfacet
facet normal 0.0 0.0 -1.0
  outer loop
    vertex 9.999999999999996 19.999999999999996 0.0
    vertex 14.999999999999995 28.000000000000004 0.0
    vertex 14.999999999999995 20.000000000000004 0.0
  endloop
endfacet
facet normal 0.0 0.0 -1.0
  outer loop
    vertex 14.999999999999995 20.000000000000004 0.0
    vertex 14.999999999999995 28.000000000000004 0.0
    vertex 19.999999999999996 33.00000000000001 0.0
  endloop
endfacet
facet normal 0.0 0.0 -1.0
  outer loop
    vertex 14.999999999999995 20.000000000000004 0.0
    vertex 19.999999999999996 33.00000000000001 0.0
    vertex 19.999999999999996 15.0 0.0
  endloop
endfacet
facet normal 0.0 0.0 -1.0
  outer loop
    vertex 0.0 0.0 0.0
    vertex 9.999999999999996 9.0 0.0
    vertex 20.000000000000004 0.0 0.0
  endloop
endfacet
facet normal 0.0 0.0 -1.0
  outer loop
    vertex 9.999999999999996 9.0 0.0
    vertex 0.0 0.0 0.0
    vertex 9.999999999999996 39.00000000000001 0.0
  endloop
endfacet
facet normal 0.0 0.0 -1.0
  outer loop
    vertex 9.999999999999996 9.0 0.0
    vertex 9.999999999999996 39.00000000000001 0.0
    vertex 9.999999999999996 28.000000000000004 0.0
  endloop
endfacet
facet normal 0.0 0.0 -1.0
  outer loop
    vertex 9.999999999999996 9.0 0.0
    vertex 9.999999999999996 28.000000000000004 0.0
    vertex 9.999999999999996 19.999999999999996 0.0
  endloop
endfacet
facet normal 0.0 0.0 -1.0
  outer loop
    vertex 20.000000000000004 0.0 0.0
    vertex 9.999999999999996 9.0 0.0
    vertex 20.000000000000004 9.0 0.0
  endloop
endfacet
facet normal 0.0 0.0 -1.0
  outer loop
    vertex 0.0 48.000000000000014 0.0
    vertex 9.999999999999996 39.00000000000001 0.0
    vertex 0.0 0.0 0.0
  endloop
endfacet
facet normal 0.0 0.0 -1.0
  outer loop
    vertex 9.999999999999996 39.00000000000001 0.0
    vertex 0.0 48.000000000000014 0.0
    vertex 19.999999999999996 48.000000000000014 0.0
  endloop
endfacet
facet normal 0.0 0.0 -1.0
  outer loop
    vertex 9.999999999999996 39.00000000000001 0.0
    vertex 19.999999999999996 48.000000000000014 0.0
    vertex 19.999999999999996 39.00000000000001 0.0
  endloop
endfacet
facet normal -0.0 -0.0 1.0
  outer loop
    vertex 10.0 0.0 11.999999999999998
    vertex 20.000000000000004 9.0 11.999999999999998
    vertex 9.999999999999996 9.0 11.999999999999998
  endloop
endfacet
facet normal -0.0 -0.0 1.0
  outer loop
    vertex 20.000000000000004 9.0 11.999999999999998
    vertex 10.0 0.0 11.999999999999998
    vertex 20.000000000000004 0.0 11.999999999999998
  endloop
endfacet
facet normal -0.0 1.0 -0.0
  outer loop
    vertex 9.999999999999996 28.000000000000004 11.999999999999998
    vertex 14.999999999999995 28.000000000000004 0.0
    vertex 9.999999999999996 28.000000000000004 0.0
  endloop
endfacet
facet normal -0.0 1.0 -0.0
  outer loop
    vertex 14.999999999999995 28.000000000000004 0.0
    vertex 9.999999999999996 28.000000000000004 11.999999999999998
    vertex 14.999999999999995 28.000000000000004 11.999999999999998
  endloop
endfacet
facet normal -0.7071067811865476 0.7071067811865476 -0.0
  outer loop
    vertex 19.999999999999996 33.00000000000001 11.999999999999998
    vertex 14.999999999999995 28.000000000000004 0.0
    vertex 14.999999999999995 28.000000000000004 11.999999999999998
  endloop
endfacet
facet normal -0.7071067811865476 0.7071067811865476 -0.0
  outer loop
    vertex 14.999999999999995 28.000000000000004 0.0
    vertex 19.999999999999996 33.00000000000001 11.999999999999998
    vertex 19.999999999999996 33.00000000000001 0.0
  endloop
endfacet
facet normal 1.0 -0.0 -0.0
  outer loop
    vertex 19.999999999999996 33.00000000000001 0.0
    vertex 19.999999999999996 15.0 11.999999999999998
    vertex 19.999999999999996 15.0 0.0
  endloop
endfacet
facet normal 1.0 -0.0 -0.0
  outer loop
    vertex 19.999999999999996 15.0 11.999999999999998
    vertex 19.999999999999996 33.00000000000001 0.0
    vertex 19.999999999999996 33.00000000000001 11.999999999999998
  endloop
endfacet
facet normal -0.7071067811865476 -0.7071067811865476 0.0
  outer loop
    vertex 14.999999999999995 20.000000000000004 11.999999999999998
    vertex 19.999999999999996 15.0 0.0
    vertex 19.999999999999996 15.0 11.999999999999998
  endloop
endfacet
facet normal -0.7071067811865476 -0.7071067811865476 0.0
  outer loop
    vertex 19.999999999999996 15.0 0.0
    vertex 14.999999999999995 20.000000000000004 11.999999999999998
    vertex 14.999999999999995 20.000000000000004 0.0
  endloop
endfacet
facet normal 1.1279865930191595e-15 -1.0 0.0
  outer loop
    vertex 14.999999999999995 20.000000000000004 11.999999999999998
    vertex 9.999999999999996 19.999999999999996 0.0
    vertex 14.999999999999995 20.000000000000004 0.0
  endloop
endfacet
facet normal 1.1279865930191595e-15 -1.0 0.0
  outer loop
    vertex 9.999999999999996 19.999999999999996 0.0
    vertex 14.999999999999995 20.000000000000004 11.999999999999998
    vertex 9.999999999999996 19.999999999999996 11.999999999999998
  endloop
endfacet
facet normal -0.0 1.0 -0.0
  outer loop
    vertex 9.999999999999996 9.0 11.999999999999998
    vertex 20.000000000000004 9.0 0.0
    vertex 9.999999999999996 9.0 0.0
  endloop
endfacet
facet normal -0.0 1.0 -0.0
  outer loop
    vertex 20.000000000000004 9.0 0.0
    vertex 9.999999999999996 9.0 11.999999999999998
    vertex 20.000000000000004 9.0 11.999999999999998
  endloop
endfacet
facet normal 1.0 -0.0 -0.0
  outer loop
    vertex 20.000000000000004 9.0 0.0
    vertex 20.000000000000004 0.0 11.999999999999998
    vertex 20.000000000000004 0.0 0.0
  endloop
endfacet
facet normal 1.0 -0.0 -0.0
  outer loop
    vertex 20.000000000000004 0.0 11.999999999999998
    vertex 20.000000000000004 9.0 0.0
    vertex 20.000000000000004 9.0 11.999999999999998
  endloop
endfacet
facet normal 0.0 -1.0 0.0
  outer loop
    vertex 20.000000000000004 0.0 11.999999999999998
    vertex 0.0 0.0 0.0
    vertex 20.000000000000004 0.0 0.0
  endloop
endfacet
facet normal 0.0 -1.0 0.0
  outer loop
    vertex 0.0 0.0 0.0
    vertex 20.000000000000004 0.0 11.999999999999998
    vertex 10.0 0.0 11.999999999999998
  endloop
endfacet
facet normal 0.0 -1.0 0.0
  outer loop
    vertex 0.0 0.0 0.0
    vertex 10.0 0.0 11.999999999999998
    vertex 0.0 0.0 30.000000000000007
  endloop
endfacet
facet normal 0.0 -1.0 0.0
  outer loop
    vertex 0.0 0.0 30.000000000000007
    vertex 10.0 0.0 11.999999999999998
    vertex 10.0 0.0 30.000000000000007
  endloop
endfacet
facet normal -1.0 0.0 0.0
  outer loop
    vertex 0.0 0.0 30.000000000000007
    vertex 2.8199664825478975e-15 35.95000000000001 22.818653347947315
    vertex 0.0 0.0 0.0
  endloop
endfacet
facet normal -1.0 0.0 0.0
  outer loop
    vertex 2.8199664825478975e-15 35.95000000000001 22.818653347947315
    vertex 0.0 0.0 30.000000000000007
    vertex 0.0 48.000000000000014 30.000000000000007
  endloop
endfacet
facet normal -1.0 0.0 0.0
  outer loop
    vertex 0.0 0.0 0.0
    vertex 2.8199664825478975e-15 35.95000000000001 22.818653347947315
    vertex 2.8199664825478975e-15 35.515075759508264 22.484924240491747
  endloop
endfacet
facet normal -1.0 0.0 0.0
  outer loop
    vertex 0.0 0.0 0.0
    vertex 2.8199664825478975e-15 35.515075759508264 22.484924240491747
    vertex 2.8199664825478975e-15 35.18134665205269 22.049999999999997
  endloop
endfacet
facet normal -1.0 0.0 0.0
  outer loop
    vertex 0.0 0.0 0.0
    vertex 2.8199664825478975e-15 35.18134665205269 22.049999999999997
    vertex 2.8199664825478975e-15 34.97155576479297 21.543519994715293
  endloop
endfacet
facet normal -1.0 0.0 0.0
  outer loop
    vertex 0.0 0.0 0.0
    vertex 2.8199664825478975e-15 34.97155576479297 21.543519994715293
    vertex 2.8199664825478975e-15 34.90000000000001 20.999999999999996
  endloop
endfacet
facet normal -1.0 0.0 0.0
  outer loop
    vertex 2.8199664825478975e-15 35.95000000000001 22.818653347947315
    vertex 0.0 48.000000000000014 30.000000000000007
    vertex 2.8199664825478975e-15 36.456480005284725 23.028444235207047
  endloop
endfacet
facet normal -1.0 0.0 0.0
  outer loop
    vertex 2.8199664825478975e-15 36.456480005284725 23.028444235207047
    vertex 0.0 48.000000000000014 30.000000000000007
    vertex 2.8199664825478975e-15 37.000000000000014 23.1
  endloop
endfacet
facet normal -1.0 0.0 0.0
  outer loop
    vertex 2.8199664825478975e-15 37.000000000000014 23.1
    vertex 0.0 48.000000000000014 30.000000000000007
    vertex 2.8199664825478975e-15 37.54351999471531 23.028444235207047
  endloop
endfacet
facet normal -1.0 0.0 0.0
  outer loop
    vertex 2.8199664825478975e-15 37.54351999471531 23.028444235207047
    vertex 0.0 48.000000000000014 30.000000000000007
    vertex 2.8199664825478975e-15 38.05000000000001 22.818653347947322
  endloop
endfacet
facet normal -1.0 0.0 0.0
  outer loop
    vertex 2.8199664825478975e-15 38.05000000000001 22.818653347947322
    vertex 0.0 48.000000000000014 30.000000000000007
    vertex 2.8199664825478975e-15 38.484924240491765 22.484924240491747
  endloop
endfacet
facet normal -1.0 0.0 0.0
  outer loop
    vertex 2.8199664825478975e-15 38.484924240491765 22.484924240491747
    vertex 0.0 48.000000000000014 30.000000000000007
    vertex 2.8199664825478975e-15 38.81865334794733 22.05
  endloop
endfacet
facet normal -1.0 0.0 0.0
  outer loop
    vertex 2.8199664825478975e-15 38.81865334794733 22.05
    vertex 0.0 48.000000000000014 30.000000000000007
    vertex 2.8199664825478975e-15 39.028444235207054 21.543519994715293
  endloop
endfacet
facet normal -1.0 0.0 0.0
  outer loop
    vertex 2.8199664825478975e-15 39.028444235207054 21.543519994715293
    vertex 0.0 48.000000000000014 30.000000000000007
    vertex 2.8199664825478975e-15 39.10000000000001 20.999999999999996
  endloop
endfacet
facet normal -1.0 0.0 0.0
  outer loop
    vertex 0.0 0.0 0.0
    vertex 2.8199664825478975e-15 35.181346652052696 19.949999999999996
    vertex 0.0 48.000000000000014 0.0
  endloop
endfacet
facet normal -1.0 0.0 0.0
  outer loop
    vertex 2.8199664825478975e-15 35.181346652052696 19.949999999999996
    vertex 0.0 0.0 0.0
    vertex 2.8199664825478975e-15 34.97155576479297 20.456480005284703
  endloop
endfacet
facet normal -1.0 0.0 0.0
  outer loop
    vertex 2.8199664825478975e-15 34.97155576479297 20.456480005284703
    vertex 0.0 0.0 0.0
    vertex 2.8199664825478975e-15 34.90000000000001 20.999999999999996
  endloop
endfacet
facet normal -1.0 0.0 0.0
  outer loop
    vertex 0.0 48.000000000000014 0.0
    vertex 2.8199664825478975e-15 35.181346652052696 19.949999999999996
    vertex 2.8199664825478975e-15 35.515075759508264 19.51507575950825
  endloop
endfacet
facet normal -1.0 0.0 0.0
  outer loop
    vertex 0.0 48.000000000000014 0.0
    vertex 2.8199664825478975e-15 35.515075759508264 19.51507575950825
    vertex 2.8199664825478975e-15 35.95000000000001 19.181346652052678
  endloop
endfacet
facet normal -1.0 0.0 0.0
  outer loop
    vertex 0.0 48.000000000000014 0.0
    vertex 2.8199664825478975e-15 35.95000000000001 19.181346652052678
    vertex 2.8199664825478975e-15 36.456480005284725 18.971555764792956
  endloop
endfacet
facet normal -1.0 0.0 0.0
  outer loop
    vertex 0.0 48.000000000000014 0.0
    vertex 2.8199664825478975e-15 36.456480005284725 18.971555764792956
    vertex 2.8199664825478975e-15 37.000000000000014 18.9
  endloop
endfacet
facet normal -1.0 0.0 0.0
  outer loop
    vertex 0.0 48.000000000000014 0.0
    vertex 2.8199664825478975e-15 37.000000000000014 18.9
    vertex 2.8199664825478975e-15 37.54351999471531 18.971555764792956
  endloop
endfacet
facet normal -1.0 0.0 0.0
  outer loop
    vertex 0.0 48.000000000000014 0.0
    vertex 2.8199664825478975e-15 37.54351999471531 18.971555764792956
    vertex 2.8199664825478975e-15 38.05000000000001 19.181346652052678
  endloop
endfacet
facet normal -1.0 0.0 0.0
  outer loop
    vertex 0.0 48.000000000000014 0.0
    vertex 2.8199664825478975e-15 38.05000000000001 19.181346652052678
    vertex 2.8199664825478975e-15 38.484924240491765 19.51507575950825
  endloop
endfacet
facet normal -1.0 0.0 0.0
  outer loop
    vertex 0.0 48.000000000000014 0.0
    vertex 2.8199664825478975e-15 38.484924240491765 19.51507575950825
    vertex 2.8199664825478975e-15 38.81865334794733 19.95
  endloop
endfacet
facet normal -1.0 0.0 0.0
  outer loop
    vertex 0.0 48.000000000000014 0.0
    vertex 2.8199664825478975e-15 38.81865334794733 19.95
    vertex 2.8199664825478975e-15 39.028444235207054 20.456480005284703
  endloop
endfacet
facet normal -1.0 0.0 0.0
  outer loop
    vertex 0.0 48.000000000000014 0.0
    vertex 2.8199664825478975e-15 39.028444235207054 20.456480005284703
    vertex 2.8199664825478975e-15 39.10000000000001 20.999999999999996
  endloop
endfacet
facet normal -1.0 0.0 0.0
  outer loop
    vertex 0.0 48.000000000000014 0.0
    vertex 2.8199664825478975e-15 39.10000000000001 20.999999999999996
    vertex 0.0 48.000000000000014 30.000000000000007
  endloop
endfacet
facet normal -0.0 1.0 -0.0
  outer loop
    vertex 0.0 48.000000000000014 0.0
    vertex 9.999999999999998 48.000000000000014 11.999999999999998
    vertex 19.999999999999996 48.000000000000014 0.0
  endloop
endfacet
facet normal -0.0 1.0 -0.0
  outer loop
    vertex 9.999999999999998 48.000000000000014 11.999999999999998
    vertex 0.0 48.000000000000014 0.0
    vertex 0.0 48.000000000000014 30.000000000000007
  endloop
endfacet
facet normal -0.0 1.0 -0.0
  outer loop
    vertex 9.999999999999998 48.000000000000014 11.999999999999998
    vertex 0.0 48.000000000000014 30.000000000000007
    vertex 9.999999999999998 48.000000000000014 30.000000000000007
  endloop
endfacet
facet normal -0.0 1.0 -0.0
  outer loop
    vertex 19.999999999999996 48.000000000000014 11.999999999999998
    vertex 19.999999999999996 48.000000000000014 0.0
    vertex 9.999999999999998 48.000000000000014 11.999999999999998
  endloop
endfacet
facet normal 1.0 -0.0 -0.0
  outer loop
    vertex 19.999999999999996 48.000000000000014 0.0
    vertex 19.999999999999996 39.00000000000001 11.999999999999998
    vertex 19.999999999999996 39.00000000000001 0.0
  endloop
endfacet
facet normal 1.0 -0.0 -0.0
  outer loop
    vertex 19.999999999999996 39.00000000000001 11.999999999999998
    vertex 19.999999999999996 48.000000000000014 0.0
    vertex 19.999999999999996 48.000000000000014 11.999999999999998
  endloop
endfacet
facet normal 0.0 -1.0 0.0
  outer loop
    vertex 19.999999999999996 39.00000000000001 11.999999999999998
    vertex 9.999999999999996 39.00000000000001 0.0
    vertex 19.999999999999996 39.00000000000001 0.0
  endloop
endfacet
facet normal 0.0 -1.0 0.0
  outer loop
    vertex 9.999999999999996 39.00000000000001 0.0
    vertex 19.999999999999996 39.00000000000001 11.999999999999998
    vertex 9.999999999999996 39.00000000000001 11.999999999999998
  endloop
endfacet
facet normal -0.0 -0.0 1.0
  outer loop
    vertex 19.999999999999996 39.00000000000001 11.999999999999998
    vertex 9.999999999999998 48.000000000000014 11.999999999999998
    vertex 9.999999999999996 39.00000000000001 11.999999999999998
  endloop
endfacet
facet normal -0.0 -0.0 1.0
  outer loop
    vertex 9.999999999999998 48.000000000000014 11.999999999999998
    vertex 19.999999999999996 39.00000000000001 11.999999999999998
    vertex 19.999999999999996 48.000000000000014 11.999999999999998
  endloop
endfacet
facet normal -0.0 -0.0 1.0
  outer loop
    vertex 14.999999999999995 20.000000000000004 11.999999999999998
    vertex 9.999999999999996 28.000000000000004 11.999999999999998
    vertex 9.999999999999996 19.999999999999996 11.999999999999998
  endloop
endfacet
facet normal -0.0 -0.0 1.0
  outer loop
    vertex 9.999999999999996 28.000000000000004 11.999999999999998
    vertex 14.999999999999995 20.000000000000004 11.999999999999998
    vertex 14.999999999999995 28.000000000000004 11.999999999999998
  endloop
endfacet
facet normal -0.0 -0.0 1.0
  outer loop
    vertex 14.999999999999995 28.000000000000004 11.999999999999998
    vertex 14.999999999999995 20.000000000000004 11.999999999999998
    vertex 19.999999999999996 15.0 11.999999999999998
  endloop
endfacet
facet normal -0.0 -0.0 1.0
  outer loop
    vertex 14.999999999999995 28.000000000000004 11.999999999999998
    vertex 19.999999999999996 15.0 11.999999999999998
    vertex 19.999999999999996 33.00000000000001 11.999999999999998
  endloop
endfacet
facet normal -0.0 -0.0 1.0
  outer loop
    vertex 10.0 0.0 30.000000000000007
    vertex 0.0 48.000000000000014 30.000000000000007
    vertex 0.0 0.0 30.000000000000007
  endloop
endfacet
facet normal -0.0 -0.0 1.0
  outer loop
    vertex 0.0 48.000000000000014 30.000000000000007
    vertex 10.0 0.0 30.000000000000007
    vertex 9.999999999999998 48.000000000000014 30.000000000000007
  endloop
endfacet
facet normal 1.0 2.0709668170486397e-17 -6.980115055811627e-17
  outer loop
    vertex 9.999999999999996 19.999999999999996 0.0
    vertex 9.999999999999996 9.0 11.999999999999998
    vertex 9.999999999999996 9.0 0.0
  endloop
endfacet
facet normal 1.0 2.0709668170486397e-17 -6.980115055811627e-17
  outer loop
    vertex 9.999999999999996 39.00000000000001 0.0
    vertex 9.999999999999996 28.000000000000004 11.999999999999998
    vertex 9.999999999999996 28.000000000000004 0.0
  endloop
endfacet
facet normal 1.0 2.0709668170486397e-17 -6.980115055811627e-17
  outer loop
    vertex 9.999999999999996 28.000000000000004 11.999999999999998
    vertex 9.999999999999996 39.00000000000001 0.0
    vertex 9.999999999999998 32.94311152958593 19.91296001056941
  endloop
endfacet
facet normal 1.0 2.0709668170486397e-17 -6.980115055811627e-17
  outer loop
    vertex 9.999999999999996 28.000000000000004 11.999999999999998
    vertex 9.999999999999998 32.94311152958593 19.91296001056941
    vertex 9.999999999999998 32.800000000000004 20.999999999999996
  endloop
endfacet
facet normal 1.0 2.0709668170486397e-17 -6.980115055811627e-17
  outer loop
    vertex 9.999999999999998 32.94311152958593 19.91296001056941
    vertex 9.999999999999996 39.00000000000001 0.0
    vertex 9.999999999999998 33.36269330410538 18.899999999999995
  endloop
endfacet
facet normal 1.0 2.0709668170486397e-17 -6.980115055811627e-17
  outer loop
    vertex 9.999999999999998 33.36269330410538 18.899999999999995
    vertex 9.999999999999996 39.00000000000001 0.0
    vertex 9.999999999999998 34.03015151901651 18.0301515190165
  endloop
endfacet
facet normal 1.0 2.0709668170486397e-17 -6.980115055811627e-17
  outer loop
    vertex 9.999999999999998 34.03015151901651 18.0301515190165
    vertex 9.999999999999996 39.00000000000001 0.0
    vertex 9.999999999999998 34.90000000000001 17.362693304105356
  endloop
endfacet
facet normal 1.0 2.0709668170486397e-17 -6.980115055811627e-17
  outer loop
    vertex 9.999999999999998 34.90000000000001 17.362693304105356
    vertex 9.999999999999996 39.00000000000001 0.0
    vertex 9.999999999999998 35.91296001056943 16.943111529585913
  endloop
endfacet
facet normal 1.0 2.0709668170486397e-17 -6.980115055811627e-17
  outer loop
    vertex 9.999999999999998 35.91296001056943 16.943111529585913
    vertex 9.999999999999996 39.00000000000001 0.0
    vertex 9.999999999999998 37.000000000000014 16.799999999999997
  endloop
endfacet
facet normal 1.0 2.0709668170486397e-17 -6.980115055811627e-17
  outer loop
    vertex 9.999999999999998 37.000000000000014 16.799999999999997
    vertex 9.999999999999996 39.00000000000001 0.0
    vertex 9.999999999999998 38.0870399894306 16.943111529585913
  endloop
endfacet
facet normal 1.0 2.0709668170486397e-17 -6.980115055811627e-17
  outer loop
    vertex 9.999999999999998 38.0870399894306 16.943111529585913
    vertex 9.999999999999996 39.00000000000001 0.0
    vertex 9.999999999999996 39.00000000000001 11.999999999999998
  endloop
endfacet
facet normal 1.0 2.0709668170486397e-17 -6.980115055811627e-17
  outer loop
    vertex 9.999999999999998 38.0870399894306 16.943111529585913
    vertex 9.999999999999996 39.00000000000001 11.999999999999998
    vertex 9.999999999999998 39.100000000000016 17.362693304105356
  endloop
endfacet
facet normal 1.0 2.0709668170486397e-17 -6.980115055811627e-17
  outer loop
    vertex 9.999999999999998 39.100000000000016 17.362693304105356
    vertex 9.999999999999996 39.00000000000001 11.999999999999998
    vertex 9.999999999999998 48.000000000000014 11.999999999999998
  endloop
endfacet
facet normal 1.0 2.0709668170486397e-17 -6.980115055811627e-17
  outer loop
    vertex 9.999999999999998 39.100000000000016 17.362693304105356
    vertex 9.999999999999998 48.000000000000014 11.999999999999998
    vertex 9.999999999999998 39.96984848098351 18.0301515190165
  endloop
endfacet
facet normal 1.0 2.0709668170486397e-17 -6.980115055811627e-17
  outer loop
    vertex 9.999999999999998 39.96984848098351 18.0301515190165
    vertex 9.999999999999998 48.000000000000014 11.999999999999998
    vertex 9.999999999999998 40.63730669589466 18.9
  endloop
endfacet
facet normal 1.0 2.0709668170486397e-17 -6.980115055811627e-17
  outer loop
    vertex 9.999999999999998 40.63730669589466 18.9
    vertex 9.999999999999998 48.000000000000014 11.999999999999998
    vertex 9.999999999999998 41.0568884704141 19.91296001056941
  endloop
endfacet
facet normal 1.0 2.0709668170486397e-17 -6.980115055811627e-17
  outer loop
    vertex 9.999999999999998 41.0568884704141 19.91296001056941
    vertex 9.999999999999998 48.000000000000014 11.999999999999998
    vertex 9.999999999999998 41.20000000000002 20.999999999999996
  endloop
endfacet
facet normal 1.0 2.0709668170486397e-17 -6.980115055811627e-17
  outer loop
    vertex 9.999999999999996 9.0 11.999999999999998
    vertex 10.0 0.0 30.000000000000007
    vertex 10.0 0.0 11.999999999999998
  endloop
endfacet
facet normal 1.0 2.0709668170486397e-17 -6.980115055811627e-17
  outer loop
    vertex 10.0 0.0 30.000000000000007
    vertex 9.999999999999996 9.0 11.999999999999998
    vertex 9.999999999999998 34.90000000000001 24.637306695894647
  endloop
endfacet
facet normal 1.0 2.0709668170486397e-17 -6.980115055811627e-17
  outer loop
    vertex 10.0 0.0 30.000000000000007
    vertex 9.999999999999998 34.90000000000001 24.637306695894647
    vertex 9.999999999999998 35.91296001056943 25.05688847041409
  endloop
endfacet
facet normal 1.0 2.0709668170486397e-17 -6.980115055811627e-17
  outer loop
    vertex 10.0 0.0 30.000000000000007
    vertex 9.999999999999998 35.91296001056943 25.05688847041409
    vertex 9.999999999999998 48.000000000000014 30.000000000000007
  endloop
endfacet
facet normal 1.0 2.0709668170486397e-17 -6.980115055811627e-17
  outer loop
    vertex 9.999999999999998 34.90000000000001 24.637306695894647
    vertex 9.999999999999996 9.0 11.999999999999998
    vertex 9.999999999999998 34.03015151901651 23.969848480983504
  endloop
endfacet
facet normal 1.0 2.0709668170486397e-17 -6.980115055811627e-17
  outer loop
    vertex 9.999999999999998 34.03015151901651 23.969848480983504
    vertex 9.999999999999996 9.0 11.999999999999998
    vertex 9.999999999999996 19.999999999999996 11.999999999999998
  endloop
endfacet
facet normal 1.0 2.0709668170486397e-17 -6.980115055811627e-17
  outer loop
    vertex 9.999999999999996 19.999999999999996 11.999999999999998
    vertex 9.999999999999996 9.0 11.999999999999998
    vertex 9.999999999999996 19.999999999999996 0.0
  endloop
endfacet
facet normal 1.0 2.0709668170486397e-17 -6.980115055811627e-17
  outer loop
    vertex 9.999999999999998 34.03015151901651 23.969848480983504
    vertex 9.999999999999996 19.999999999999996 11.999999999999998
    vertex 9.999999999999998 33.36269330410536 23.1
  endloop
endfacet
facet normal 1.0 2.0709668170486397e-17 -6.980115055811627e-17
  outer loop
    vertex 9.999999999999998 33.36269330410536 23.1
    vertex 9.999999999999996 19.999999999999996 11.999999999999998
    vertex 9.999999999999996 28.000000000000004 11.999999999999998
  endloop
endfacet
facet normal 1.0 2.0709668170486397e-17 -6.980115055811627e-17
  outer loop
    vertex 9.999999999999998 33.36269330410536 23.1
    vertex 9.999999999999996 28.000000000000004 11.999999999999998
    vertex 9.999999999999998 32.94311152958593 22.087039989430586
  endloop
endfacet
facet normal 1.0 2.0709668170486397e-17 -6.980115055811627e-17
  outer loop
    vertex 9.999999999999998 32.94311152958593 22.087039989430586
    vertex 9.999999999999996 28.000000000000004 11.999999999999998
    vertex 9.999999999999998 32.800000000000004 20.999999999999996
  endloop
endfacet
facet normal 1.0 2.0709668170486397e-17 -6.980115055811627e-17
  outer loop
    vertex 9.999999999999998 48.000000000000014 30.000000000000007
    vertex 9.999999999999998 35.91296001056943 25.05688847041409
    vertex 9.999999999999998 37.000000000000014 25.200000000000006
  endloop
endfacet
facet normal 1.0 2.0709668170486397e-17 -6.980115055811627e-17
  outer loop
    vertex 9.999999999999998 48.000000000000014 30.000000000000007
    vertex 9.999999999999998 37.000000000000014 25.200000000000006
    vertex 9.999999999999998 38.0870399894306 25.05688847041409
  endloop
endfacet
facet normal 1.0 2.0709668170486397e-17 -6.980115055811627e-17
  outer loop
    vertex 9.999999999999998 48.000000000000014 30.000000000000007
    vertex 9.999999999999998 38.0870399894306 25.05688847041409
    vertex 9.999999999999998 39.100000000000016 24.637306695894647
  endloop
endfacet
facet normal 1.0 2.0709668170486397e-17 -6.980115055811627e-17
  outer loop
    vertex 9.999999999999998 48.000000000000014 30.000000000000007
    vertex 9.999999999999998 39.100000000000016 24.637306695894647
    vertex 9.999999999999998 39.96984848098351 23.969848480983504
  endloop
endfacet
facet normal 1.0 2.0709668170486397e-17 -6.980115055811627e-17
  outer loop
    vertex 9.999999999999998 48.000000000000014 30.000000000000007
    vertex 9.999999999999998 39.96984848098351 23.969848480983504
    vertex 9.999999999999998 40.63730669589466 23.100000000000005
  endloop
endfacet
facet normal 1.0 2.0709668170486397e-17 -6.980115055811627e-17
  outer loop
    vertex 9.999999999999998 48.000000000000014 30.000000000000007
    vertex 9.999999999999998 40.63730669589466 23.100000000000005
    vertex 9.999999999999998 41.0568884704141 22.08703998943059
  endloop
endfacet
facet normal 1.0 2.0709668170486397e-17 -6.980115055811627e-17
  outer loop
    vertex 9.999999999999998 48.000000000000014 30.000000000000007
    vertex 9.999999999999998 41.0568884704141 22.08703998943059
    vertex 9.999999999999998 41.20000000000002 20.999999999999996
  endloop
endfacet
facet normal 1.0 2.0709668170486397e-17 -6.980115055811627e-17
  outer loop
    vertex 9.999999999999998 48.000000000000014 30.000000000000007
    vertex 9.999999999999998 41.20000000000002 20.999999999999996
    vertex 9.999999999999998 48.000000000000014 11.999999999999998
  endloop
endfacet
facet normal 0.0 -0.6087614290087165 -0.7933533402912383
  outer loop
    vertex 6.999999999999998 38.484924240491765 22.484924240491747
    vertex 2.8199664825478975e-15 38.05000000000001 22.818653347947322
    vertex 2.8199664825478975e-15 38.484924240491765 22.484924240491747
  endloop
endfacet
facet normal 0.0 -0.6087614290087165 -0.7933533402912383
  outer loop
    vertex 2.8199664825478975e-15 38.05000000000001 22.818653347947322
    vertex 6.999999999999998 38.484924240491765 22.484924240491747
    vertex 6.999999999999998 38.05000000000001 22.818653347947322
  endloop
endfacet
facet normal 0.0 -0.3826834323650989 -0.923879532511283
  outer loop
    vertex 6.999999999999998 38.05000000000001 22.818653347947322
    vertex 2.8199664825478975e-15 37.54351999471531 23.028444235207047
    vertex 2.8199664825478975e-15 38.05000000000001 22.818653347947322
  endloop
endfacet
facet normal 0.0 -0.3826834323650989 -0.923879532511283
  outer loop
    vertex 2.8199664825478975e-15 37.54351999471531 23.028444235207047
    vertex 6.999999999999998 38.05000000000001 22.818653347947322
    vertex 6.999999999999998 37.54351999471531 23.028444235207047
  endloop
endfacet
facet normal 0.0 -0.1305261922200434 -0.9914448613738116
  outer loop
    vertex 6.999999999999998 37.54351999471531 23.028444235207047
    vertex 2.8199664825478975e-15 37.000000000000014 23.1
    vertex 2.8199664825478975e-15 37.54351999471531 23.028444235207047
  endloop
endfacet
facet normal 0.0 -0.1305261922200434 -0.9914448613738116
  outer loop
    vertex 2.8199664825478975e-15 37.000000000000014 23.1
    vertex 6.999999999999998 37.54351999471531 23.028444235207047
    vertex 6.999999999999998 37.000000000000014 23.1
  endloop
endfacet
facet normal 0.0 0.13052619222004608 -0.9914448613738112
  outer loop
    vertex 6.999999999999998 37.000000000000014 23.1
    vertex 2.8199664825478975e-15 36.456480005284725 23.028444235207047
    vertex 2.8199664825478975e-15 37.000000000000014 23.1
  endloop
endfacet
facet normal 0.0 0.13052619222004608 -0.9914448613738112
  outer loop
    vertex 2.8199664825478975e-15 36.456480005284725 23.028444235207047
    vertex 6.999999999999998 37.000000000000014 23.1
    vertex 6.999999999999998 36.456480005284725 23.028444235207047
  endloop
endfacet
facet normal 0.0 0.38268343236510044 -0.9238795325112823
  outer loop
    vertex 6.999999999999998 36.456480005284725 23.028444235207047
    vertex 2.8199664825478975e-15 35.95000000000001 22.818653347947315
    vertex 2.8199664825478975e-15 36.456480005284725 23.028444235207047
  endloop
endfacet
facet normal 0.0 0.38268343236510044 -0.9238795325112823
  outer loop
    vertex 2.8199664825478975e-15 35.95000000000001 22.818653347947315
    vertex 6.999999999999998 36.456480005284725 23.028444235207047
    vertex 6.999999999999998 35.95000000000001 22.818653347947315
  endloop
endfacet
facet normal 0.0 0.6087614290087199 -0.7933533402912357
  outer loop
    vertex 6.999999999999998 35.95000000000001 22.818653347947315
    vertex 2.8199664825478975e-15 35.515075759508264 22.484924240491747
    vertex 2.8199664825478975e-15 35.95000000000001 22.818653347947315
  endloop
endfacet
facet normal 0.0 0.6087614290087199 -0.7933533402912357
  outer loop
    vertex 2.8199664825478975e-15 35.515075759508264 22.484924240491747
    vertex 6.999999999999998 35.95000000000001 22.818653347947315
    vertex 6.999999999999998 35.515075759508264 22.484924240491747
  endloop
endfacet
facet normal -0.0 0.7933533402912295 -0.6087614290087281
  outer loop
    vertex 2.8199664825478975e-15 35.515075759508264 22.484924240491747
    vertex 6.999999999999998 35.18134665205269 22.049999999999997
    vertex 2.8199664825478975e-15 35.18134665205269 22.049999999999997
  endloop
endfacet
facet normal -0.0 0.7933533402912295 -0.6087614290087281
  outer loop
    vertex 6.999999999999998 35.18134665205269 22.049999999999997
    vertex 2.8199664825478975e-15 35.515075759508264 22.484924240491747
    vertex 6.999999999999998 35.515075759508264 22.484924240491747
  endloop
endfacet
facet normal -0.0 0.9238795325112881 -0.3826834323650865
  outer loop
    vertex 2.8199664825478975e-15 35.18134665205269 22.049999999999997
    vertex 6.999999999999998 34.97155576479297 21.543519994715293
    vertex 2.8199664825478975e-15 34.97155576479297 21.543519994715293
  endloop
endfacet
facet normal -0.0 0.9238795325112881 -0.3826834323650865
  outer loop
    vertex 6.999999999999998 34.97155576479297 21.543519994715293
    vertex 2.8199664825478975e-15 35.18134665205269 22.049999999999997
    vertex 6.999999999999998 35.18134665205269 22.049999999999997
  endloop
endfacet
facet normal -0.0 0.9914448613738114 -0.13052619222004477
  outer loop
    vertex 2.8199664825478975e-15 34.97155576479297 21.543519994715293
    vertex 6.999999999999998 34.90000000000001 20.999999999999996
    vertex 2.8199664825478975e-15 34.90000000000001 20.999999999999996
  endloop
endfacet
facet normal -0.0 0.9914448613738114 -0.13052619222004477
  outer loop
    vertex 6.999999999999998 34.90000000000001 20.999999999999996
    vertex 2.8199664825478975e-15 34.97155576479297 21.543519994715293
    vertex 6.999999999999998 34.97155576479297 21.543519994715293
  endloop
endfacet
facet normal -0.0 0.9914448613738114 0.13052619222004405
  outer loop
    vertex 2.8199664825478975e-15 34.90000000000001 20.999999999999996
    vertex 6.999999999999998 34.97155576479297 20.456480005284703
    vertex 2.8199664825478975e-15 34.97155576479297 20.456480005284703
  endloop
endfacet
facet normal -0.0 0.9914448613738114 0.13052619222004405
  outer loop
    vertex 6.999999999999998 34.97155576479297 20.456480005284703
    vertex 2.8199664825478975e-15 34.90000000000001 20.999999999999996
    vertex 6.999999999999998 34.90000000000001 20.999999999999996
  endloop
endfacet
facet normal -0.0 0.9238795325112809 0.38268343236510405
  outer loop
    vertex 2.8199664825478975e-15 34.97155576479297 20.456480005284703
    vertex 6.999999999999998 35.181346652052696 19.949999999999996
    vertex 2.8199664825478975e-15 35.181346652052696 19.949999999999996
  endloop
endfacet
facet normal -0.0 0.9238795325112809 0.38268343236510405
  outer loop
    vertex 6.999999999999998 35.181346652052696 19.949999999999996
    vertex 2.8199664825478975e-15 34.97155576479297 20.456480005284703
    vertex 6.999999999999998 34.97155576479297 20.456480005284703
  endloop
endfacet
facet normal -0.0 0.7933533402912376 0.6087614290087175
  outer loop
    vertex 2.8199664825478975e-15 35.181346652052696 19.949999999999996
    vertex 6.999999999999998 35.515075759508264 19.51507575950825
    vertex 2.8199664825478975e-15 35.515075759508264 19.51507575950825
  endloop
endfacet
facet normal -0.0 0.7933533402912376 0.6087614290087175
  outer loop
    vertex 6.999999999999998 35.515075759508264 19.51507575950825
    vertex 2.8199664825478975e-15 35.181346652052696 19.949999999999996
    vertex 6.999999999999998 35.181346652052696 19.949999999999996
  endloop
endfacet
facet normal -0.0 0.6087614290087232 0.7933533402912332
  outer loop
    vertex 6.999999999999998 35.515075759508264 19.51507575950825
    vertex 2.8199664825478975e-15 35.95000000000001 19.181346652052678
    vertex 2.8199664825478975e-15 35.515075759508264 19.51507575950825
  endloop
endfacet
facet normal -0.0 0.6087614290087232 0.7933533402912332
  outer loop
    vertex 2.8199664825478975e-15 35.95000000000001 19.181346652052678
    vertex 6.999999999999998 35.515075759508264 19.51507575950825
    vertex 6.999999999999998 35.95000000000001 19.181346652052678
  endloop
endfacet
facet normal -0.0 0.38268343236508723 0.9238795325112878
  outer loop
    vertex 6.999999999999998 35.95000000000001 19.181346652052678
    vertex 2.8199664825478975e-15 36.456480005284725 18.971555764792956
    vertex 2.8199664825478975e-15 35.95000000000001 19.181346652052678
  endloop
endfacet
facet normal -0.0 0.38268343236508723 0.9238795325112878
  outer loop
    vertex 2.8199664825478975e-15 36.456480005284725 18.971555764792956
    vertex 6.999999999999998 35.95000000000001 19.181346652052678
    vertex 6.999999999999998 36.456480005284725 18.971555764792956
  endloop
endfacet
facet normal -0.0 0.13052619222005113 0.9914448613738105
  outer loop
    vertex 6.999999999999998 36.456480005284725 18.971555764792956
    vertex 2.8199664825478975e-15 37.000000000000014 18.9
    vertex 2.8199664825478975e-15 36.456480005284725 18.971555764792956
  endloop
endfacet
facet normal -0.0 0.13052619222005113 0.9914448613738105
  outer loop
    vertex 2.8199664825478975e-15 37.000000000000014 18.9
    vertex 6.999999999999998 36.456480005284725 18.971555764792956
    vertex 6.999999999999998 37.000000000000014 18.9
  endloop
endfacet
facet normal -0.0 -0.13052619222004852 0.9914448613738109
  outer loop
    vertex 6.999999999999998 37.000000000000014 18.9
    vertex 2.8199664825478975e-15 37.54351999471531 18.971555764792956
    vertex 2.8199664825478975e-15 37.000000000000014 18.9
  endloop
endfacet
facet normal -0.0 -0.13052619222004852 0.9914448613738109
  outer loop
    vertex 2.8199664825478975e-15 37.54351999471531 18.971555764792956
    vertex 6.999999999999998 37.000000000000014 18.9
    vertex 6.999999999999998 37.54351999471531 18.971555764792956
  endloop
endfacet
facet normal -0.0 -0.3826834323650945 0.9238795325112849
  outer loop
    vertex 6.999999999999998 37.54351999471531 18.971555764792956
    vertex 2.8199664825478975e-15 38.05000000000001 19.181346652052678
    vertex 2.8199664825478975e-15 37.54351999471531 18.971555764792956
  endloop
endfacet
facet normal -0.0 -0.3826834323650945 0.9238795325112849
  outer loop
    vertex 2.8199664825478975e-15 38.05000000000001 19.181346652052678
    vertex 6.999999999999998 37.54351999471531 18.971555764792956
    vertex 6.999999999999998 38.05000000000001 19.181346652052678
  endloop
endfacet
facet normal -0.0 -0.6087614290087133 0.7933533402912408
  outer loop
    vertex 6.999999999999998 38.05000000000001 19.181346652052678
    vertex 2.8199664825478975e-15 38.484924240491765 19.51507575950825
    vertex 2.8199664825478975e-15 38.05000000000001 19.181346652052678
  endloop
endfacet
facet normal -0.0 -0.6087614290087133 0.7933533402912408
  outer loop
    vertex 2.8199664825478975e-15 38.484924240491765 19.51507575950825
    vertex 6.999999999999998 38.05000000000001 19.181346652052678
    vertex 6.999999999999998 38.484924240491765 19.51507575950825
  endloop
endfacet
facet normal 0.0 -0.7933533402912395 0.6087614290087151
  outer loop
    vertex 6.999999999999998 38.81865334794733 19.95
    vertex 2.8199664825478975e-15 38.484924240491765 19.51507575950825
    vertex 6.999999999999998 38.484924240491765 19.51507575950825
  endloop
endfacet
facet normal 0.0 -0.7933533402912395 0.6087614290087151
  outer loop
    vertex 2.8199664825478975e-15 38.484924240491765 19.51507575950825
    vertex 6.999999999999998 38.81865334794733 19.95
    vertex 2.8199664825478975e-15 38.81865334794733 19.95
  endloop
endfacet
facet normal 0.0 -0.9238795325112881 0.3826834323650865
  outer loop
    vertex 6.999999999999998 39.028444235207054 20.456480005284703
    vertex 2.8199664825478975e-15 38.81865334794733 19.95
    vertex 6.999999999999998 38.81865334794733 19.95
  endloop
endfacet
facet normal 0.0 -0.9238795325112881 0.3826834323650865
  outer loop
    vertex 2.8199664825478975e-15 38.81865334794733 19.95
    vertex 6.999999999999998 39.028444235207054 20.456480005284703
    vertex 2.8199664825478975e-15 39.028444235207054 20.456480005284703
  endloop
endfacet
facet normal 0.0 -0.9914448613738114 0.13052619222004477
  outer loop
    vertex 6.999999999999998 39.10000000000001 20.999999999999996
    vertex 2.8199664825478975e-15 39.028444235207054 20.456480005284703
    vertex 6.999999999999998 39.028444235207054 20.456480005284703
  endloop
endfacet
facet normal 0.0 -0.9914448613738114 0.13052619222004477
  outer loop
    vertex 2.8199664825478975e-15 39.028444235207054 20.456480005284703
    vertex 6.999999999999998 39.10000000000001 20.999999999999996
    vertex 2.8199664825478975e-15 39.10000000000001 20.999999999999996
  endloop
endfacet
facet normal 0.0 -0.9914448613738114 -0.13052619222004477
  outer loop
    vertex 6.999999999999998 39.028444235207054 21.543519994715293
    vertex 2.8199664825478975e-15 39.10000000000001 20.999999999999996
    vertex 6.999999999999998 39.10000000000001 20.999999999999996
  endloop
endfacet
facet normal 0.0 -0.9914448613738114 -0.13052619222004477
  outer loop
    vertex 2.8199664825478975e-15 39.10000000000001 20.999999999999996
    vertex 6.999999999999998 39.028444235207054 21.543519994715293
    vertex 2.8199664825478975e-15 39.028444235207054 21.543519994715293
  endloop
endfacet
facet normal 0.0 -0.9238795325112897 -0.3826834323650829
  outer loop
    vertex 6.999999999999998 38.81865334794733 22.05
    vertex 2.8199664825478975e-15 39.028444235207054 21.543519994715293
    vertex 6.999999999999998 39.028444235207054 21.543519994715293
  endloop
endfacet
facet normal 0.0 -0.9238795325112897 -0.3826834323650829
  outer loop
    vertex 2.8199664825478975e-15 39.028444235207054 21.543519994715293
    vertex 6.999999999999998 38.81865334794733 22.05
    vertex 2.8199664825478975e-15 38.81865334794733 22.05
  endloop
endfacet
facet normal 0.0 -0.7933533402912357 -0.60876142900872
  outer loop
    vertex 6.999999999999998 38.484924240491765 22.484924240491747
    vertex 2.8199664825478975e-15 38.81865334794733 22.05
    vertex 6.999999999999998 38.81865334794733 22.05
  endloop
endfacet
facet normal 0.0 -0.7933533402912357 -0.60876142900872
  outer loop
    vertex 2.8199664825478975e-15 38.81865334794733 22.05
    vertex 6.999999999999998 38.484924240491765 22.484924240491747
    vertex 2.8199664825478975e-15 38.484924240491765 22.484924240491747
  endloop
endfacet
facet normal 1.0 3.376562940948474e-48 -1.8783567088750822e-32
  outer loop
    vertex 6.999999999999998 34.90000000000001 17.362693304105356
    vertex 6.999999999999998 34.97155576479297 20.456480005284703
    vertex 6.999999999999998 34.90000000000001 20.999999999999996
  endloop
endfacet
facet normal 1.0 3.376562940948474e-48 -1.8783567088750822e-32
  outer loop
    vertex 6.999999999999998 34.97155576479297 20.456480005284703
    vertex 6.999999999999998 34.90000000000001 17.362693304105356
    vertex 6.999999999999998 35.91296001056943 16.943111529585913
  endloop
endfacet
facet normal 1.0 3.376562940948474e-48 -1.8783567088750822e-32
  outer loop
    vertex 6.999999999999998 34.97155576479297 20.456480005284703
    vertex 6.999999999999998 35.91296001056943 16.943111529585913
    vertex 6.999999999999998 35.181346652052696 19.949999999999996
  endloop
endfacet
facet normal 1.0 3.376562940948474e-48 -1.8783567088750822e-32
  outer loop
    vertex 6.999999999999998 35.181346652052696 19.949999999999996
    vertex 6.999999999999998 35.91296001056943 16.943111529585913
    vertex 6.999999999999998 35.515075759508264 19.51507575950825
  endloop
endfacet
facet normal 1.0 3.376562940948474e-48 -1.8783567088750822e-32
  outer loop
    vertex 6.999999999999998 35.515075759508264 19.51507575950825
    vertex 6.999999999999998 35.91296001056943 16.943111529585913
    vertex 6.999999999999998 35.95000000000001 19.181346652052678
  endloop
endfacet
facet normal 1.0 3.376562940948474e-48 -1.8783567088750822e-32
  outer loop
    vertex 6.999999999999998 35.95000000000001 19.181346652052678
    vertex 6.999999999999998 35.91296001056943 16.943111529585913
    vertex 6.999999999999998 37.000000000000014 16.799999999999997
  endloop
endfacet
facet normal 1.0 3.376562940948474e-48 -1.8783567088750822e-32
  outer loop
    vertex 6.999999999999998 35.95000000000001 19.181346652052678
    vertex 6.999999999999998 37.000000000000014 16.799999999999997
    vertex 6.999999999999998 36.456480005284725 18.971555764792956
  endloop
endfacet
facet normal 1.0 3.376562940948474e-48 -1.8783567088750822e-32
  outer loop
    vertex 6.999999999999998 36.456480005284725 18.971555764792956
    vertex 6.999999999999998 37.000000000000014 16.799999999999997
    vertex 6.999999999999998 37.000000000000014 18.9
  endloop
endfacet
facet normal 1.0 3.376562940948474e-48 -1.8783567088750822e-32
  outer loop
    vertex 6.999999999999998 37.000000000000014 18.9
    vertex 6.999999999999998 37.000000000000014 16.799999999999997
    vertex 6.999999999999998 38.0870399894306 16.943111529585913
  endloop
endfacet
facet normal 1.0 3.376562940948474e-48 -1.8783567088750822e-32
  outer loop
    vertex 6.999999999999998 37.000000000000014 18.9
    vertex 6.999999999999998 38.0870399894306 16.943111529585913
    vertex 6.999999999999998 37.54351999471531 18.971555764792956
  endloop
endfacet
facet normal 1.0 3.376562940948474e-48 -1.8783567088750822e-32
  outer loop
    vertex 6.999999999999998 37.54351999471531 18.971555764792956
    vertex 6.999999999999998 38.0870399894306 16.943111529585913
    vertex 6.999999999999998 38.05000000000001 19.181346652052678
  endloop
endfacet
facet normal 1.0 3.376562940948474e-48 -1.8783567088750822e-32
  outer loop
    vertex 6.999999999999998 38.05000000000001 19.181346652052678
    vertex 6.999999999999998 38.0870399894306 16.943111529585913
    vertex 6.999999999999998 38.484924240491765 19.51507575950825
  endloop
endfacet
facet normal 1.0 3.376562940948474e-48 -1.8783567088750822e-32
  outer loop
    vertex 6.999999999999998 38.484924240491765 19.51507575950825
    vertex 6.999999999999998 38.0870399894306 16.943111529585913
    vertex 6.999999999999998 39.100000000000016 17.362693304105356
  endloop
endfacet
facet normal 1.0 3.376562940948474e-48 -1.8783567088750822e-32
  outer loop
    vertex 6.999999999999998 38.484924240491765 19.51507575950825
    vertex 6.999999999999998 39.100000000000016 17.362693304105356
    vertex 6.999999999999998 38.81865334794733 19.95
  endloop
endfacet
facet normal 1.0 3.376562940948474e-48 -1.8783567088750822e-32
  outer loop
    vertex 6.999999999999998 38.81865334794733 19.95
    vertex 6.999999999999998 39.100000000000016 17.362693304105356
    vertex 6.999999999999998 39.028444235207054 20.456480005284703
  endloop
endfacet
facet normal 1.0 3.376562940948474e-48 -1.8783567088750822e-32
  outer loop
    vertex 6.999999999999998 39.028444235207054 20.456480005284703
    vertex 6.999999999999998 39.100000000000016 17.362693304105356
    vertex 6.999999999999998 39.10000000000001 20.999999999999996
  endloop
endfacet
facet normal 1.0 3.376562940948474e-48 -1.8783567088750822e-32
  outer loop
    vertex 6.999999999999998 32.94311152958593 19.91296001056941
    vertex 6.999999999999998 32.94311152958593 22.087039989430586
    vertex 6.999999999999998 32.800000000000004 20.999999999999996
  endloop
endfacet
facet normal 1.0 3.376562940948474e-48 -1.8783567088750822e-32
  outer loop
    vertex 6.999999999999998 32.94311152958593 22.087039989430586
    vertex 6.999999999999998 32.94311152958593 19.91296001056941
    vertex 6.999999999999998 33.36269330410538 18.899999999999995
  endloop
endfacet
facet normal 1.0 3.376562940948474e-48 -1.8783567088750822e-32
  outer loop
    vertex 6.999999999999998 32.94311152958593 22.087039989430586
    vertex 6.999999999999998 33.36269330410538 18.899999999999995
    vertex 6.999999999999998 33.36269330410536 23.1
  endloop
endfacet
facet normal 1.0 3.376562940948474e-48 -1.8783567088750822e-32
  outer loop
    vertex 6.999999999999998 33.36269330410536 23.1
    vertex 6.999999999999998 33.36269330410538 18.899999999999995
    vertex 6.999999999999998 34.03015151901651 23.969848480983504
  endloop
endfacet
facet normal 1.0 3.376562940948474e-48 -1.8783567088750822e-32
  outer loop
    vertex 6.999999999999998 34.03015151901651 23.969848480983504
    vertex 6.999999999999998 33.36269330410538 18.899999999999995
    vertex 6.999999999999998 34.03015151901651 18.0301515190165
  endloop
endfacet
facet normal 1.0 3.376562940948474e-48 -1.8783567088750822e-32
  outer loop
    vertex 6.999999999999998 34.03015151901651 23.969848480983504
    vertex 6.999999999999998 34.03015151901651 18.0301515190165
    vertex 6.999999999999998 34.90000000000001 17.362693304105356
  endloop
endfacet
facet normal 1.0 3.376562940948474e-48 -1.8783567088750822e-32
  outer loop
    vertex 6.999999999999998 34.03015151901651 23.969848480983504
    vertex 6.999999999999998 34.90000000000001 17.362693304105356
    vertex 6.999999999999998 34.90000000000001 24.637306695894647
  endloop
endfacet
facet normal 1.0 3.376562940948474e-48 -1.8783567088750822e-32
  outer loop
    vertex 6.999999999999998 34.90000000000001 24.637306695894647
    vertex 6.999999999999998 34.90000000000001 17.362693304105356
    vertex 6.999999999999998 34.90000000000001 20.999999999999996
  endloop
endfacet
facet normal 1.0 3.376562940948474e-48 -1.8783567088750822e-32
  outer loop
    vertex 6.999999999999998 34.90000000000001 24.637306695894647
    vertex 6.999999999999998 34.90000000000001 20.999999999999996
    vertex 6.999999999999998 34.97155576479297 21.543519994715293
  endloop
endfacet
facet normal 1.0 3.376562940948474e-48 -1.8783567088750822e-32
  outer loop
    vertex 6.999999999999998 34.90000000000001 24.637306695894647
    vertex 6.999999999999998 34.97155576479297 21.543519994715293
    vertex 6.999999999999998 35.91296001056943 25.05688847041409
  endloop
endfacet
facet normal 1.0 3.376562940948474e-48 -1.8783567088750822e-32
  outer loop
    vertex 6.999999999999998 35.91296001056943 25.05688847041409
    vertex 6.999999999999998 34.97155576479297 21.543519994715293
    vertex 6.999999999999998 35.18134665205269 22.049999999999997
  endloop
endfacet
facet normal 1.0 3.376562940948474e-48 -1.8783567088750822e-32
  outer loop
    vertex 6.999999999999998 35.91296001056943 25.05688847041409
    vertex 6.999999999999998 35.18134665205269 22.049999999999997
    vertex 6.999999999999998 35.515075759508264 22.484924240491747
  endloop
endfacet
facet normal 1.0 3.376562940948474e-48 -1.8783567088750822e-32
  outer loop
    vertex 6.999999999999998 35.91296001056943 25.05688847041409
    vertex 6.999999999999998 35.515075759508264 22.484924240491747
    vertex 6.999999999999998 35.95000000000001 22.818653347947315
  endloop
endfacet
facet normal 1.0 3.376562940948474e-48 -1.8783567088750822e-32
  outer loop
    vertex 6.999999999999998 35.91296001056943 25.05688847041409
    vertex 6.999999999999998 35.95000000000001 22.818653347947315
    vertex 6.999999999999998 37.000000000000014 25.200000000000006
  endloop
endfacet
facet normal 1.0 3.376562940948474e-48 -1.8783567088750822e-32
  outer loop
    vertex 6.999999999999998 37.000000000000014 25.200000000000006
    vertex 6.999999999999998 35.95000000000001 22.818653347947315
    vertex 6.999999999999998 36.456480005284725 23.028444235207047
  endloop
endfacet
facet normal 1.0 3.376562940948474e-48 -1.8783567088750822e-32
  outer loop
    vertex 6.999999999999998 37.000000000000014 25.200000000000006
    vertex 6.999999999999998 36.456480005284725 23.028444235207047
    vertex 6.999999999999998 37.000000000000014 23.1
  endloop
endfacet
facet normal 1.0 3.376562940948474e-48 -1.8783567088750822e-32
  outer loop
    vertex 6.999999999999998 37.000000000000014 25.200000000000006
    vertex 6.999999999999998 37.000000000000014 23.1
    vertex 6.999999999999998 37.54351999471531 23.028444235207047
  endloop
endfacet
facet normal 1.0 3.376562940948474e-48 -1.8783567088750822e-32
  outer loop
    vertex 6.999999999999998 37.000000000000014 25.200000000000006
    vertex 6.999999999999998 37.54351999471531 23.028444235207047
    vertex 6.999999999999998 38.0870399894306 25.05688847041409
  endloop
endfacet
facet normal 1.0 3.376562940948474e-48 -1.8783567088750822e-32
  outer loop
    vertex 6.999999999999998 38.0870399894306 25.05688847041409
    vertex 6.999999999999998 37.54351999471531 23.028444235207047
    vertex 6.999999999999998 38.05000000000001 22.818653347947322
  endloop
endfacet
facet normal 1.0 3.376562940948474e-48 -1.8783567088750822e-32
  outer loop
    vertex 6.999999999999998 38.0870399894306 25.05688847041409
    vertex 6.999999999999998 38.05000000000001 22.818653347947322
    vertex 6.999999999999998 38.484924240491765 22.484924240491747
  endloop
endfacet
facet normal 1.0 3.376562940948474e-48 -1.8783567088750822e-32
  outer loop
    vertex 6.999999999999998 38.0870399894306 25.05688847041409
    vertex 6.999999999999998 38.484924240491765 22.484924240491747
    vertex 6.999999999999998 39.100000000000016 24.637306695894647
  endloop
endfacet
facet normal 1.0 3.376562940948474e-48 -1.8783567088750822e-32
  outer loop
    vertex 6.999999999999998 39.100000000000016 24.637306695894647
    vertex 6.999999999999998 38.484924240491765 22.484924240491747
    vertex 6.999999999999998 38.81865334794733 22.05
  endloop
endfacet
facet normal 1.0 3.376562940948474e-48 -1.8783567088750822e-32
  outer loop
    vertex 6.999999999999998 39.100000000000016 24.637306695894647
    vertex 6.999999999999998 38.81865334794733 22.05
    vertex 6.999999999999998 39.028444235207054 21.543519994715293
  endloop
endfacet
facet normal 1.0 3.376562940948474e-48 -1.8783567088750822e-32
  outer loop
    vertex 6.999999999999998 39.100000000000016 24.637306695894647
    vertex 6.999999999999998 39.028444235207054 21.543519994715293
    vertex 6.999999999999998 39.10000000000001 20.999999999999996
  endloop
endfacet
facet normal 1.0 3.376562940948474e-48 -1.8783567088750822e-32
  outer loop
    vertex 6.999999999999998 39.100000000000016 24.637306695894647
    vertex 6.999999999999998 39.10000000000001 20.999999999999996
    vertex 6.999999999999998 39.100000000000016 17.362693304105356
  endloop
endfacet
facet normal 1.0 3.376562940948474e-48 -1.8783567088750822e-32
  outer loop
    vertex 6.999999999999998 39.100000000000016 24.637306695894647
    vertex 6.999999999999998 39.100000000000016 17.362693304105356
    vertex 6.999999999999998 39.96984848098351 18.0301515190165
  endloop
endfacet
facet normal 1.0 3.376562940948474e-48 -1.8783567088750822e-32
  outer loop
    vertex 6.999999999999998 39.100000000000016 24.637306695894647
    vertex 6.999999999999998 39.96984848098351 18.0301515190165
    vertex 6.999999999999998 39.96984848098351 23.969848480983504
  endloop
endfacet
facet normal 1.0 3.376562940948474e-48 -1.8783567088750822e-32
  outer loop
    vertex 6.999999999999998 39.96984848098351 23.969848480983504
    vertex 6.999999999999998 39.96984848098351 18.0301515190165
    vertex 6.999999999999998 40.63730669589466 18.9
  endloop
endfacet
facet normal 1.0 3.376562940948474e-48 -1.8783567088750822e-32
  outer loop
    vertex 6.999999999999998 39.96984848098351 23.969848480983504
    vertex 6.999999999999998 40.63730669589466 18.9
    vertex 6.999999999999998 40.63730669589466 23.100000000000005
  endloop
endfacet
facet normal 1.0 3.376562940948474e-48 -1.8783567088750822e-32
  outer loop
    vertex 6.999999999999998 40.63730669589466 23.100000000000005
    vertex 6.999999999999998 40.63730669589466 18.9
    vertex 6.999999999999998 41.0568884704141 19.91296001056941
  endloop
endfacet
facet normal 1.0 3.376562940948474e-48 -1.8783567088750822e-32
  outer loop
    vertex 6.999999999999998 40.63730669589466 23.100000000000005
    vertex 6.999999999999998 41.0568884704141 19.91296001056941
    vertex 6.999999999999998 41.0568884704141 22.08703998943059
  endloop
endfacet
facet normal 1.0 3.376562940948474e-48 -1.8783567088750822e-32
  outer loop
    vertex 6.999999999999998 41.0568884704141 22.08703998943059
    vertex 6.999999999999998 41.0568884704141 19.91296001056941
    vertex 6.999999999999998 41.20000000000002 20.999999999999996
  endloop
endfacet
facet normal 0.0 -0.9238795325112886 0.3826834323650856
  outer loop
    vertex 9.999999999999998 41.0568884704141 19.91296001056941
    vertex 6.999999999999998 40.63730669589466 18.9
    vertex 9.999999999999998 40.63730669589466 18.9
  endloop
endfacet
facet normal 0.0 -0.9238795325112886 0.3826834323650856
  outer loop
    vertex 6.999999999999998 40.63730669589466 18.9
    vertex 9.999999999999998 41.0568884704141 19.91296001056941
    vertex 6.999999999999998 41.0568884704141 19.91296001056941
  endloop
endfacet
facet normal 0.0 -0.99144486137381 0.13052619222005485
  outer loop
    vertex 9.999999999999998 41.20000000000002 20.999999999999996
    vertex 6.999999999999998 41.0568884704141 19.91296001056941
    vertex 9.999999999999998 41.0568884704141 19.91296001056941
  endloop
endfacet
facet normal 0.0 -0.99144486137381 0.13052619222005485
  outer loop
    vertex 6.999999999999998 41.0568884704141 19.91296001056941
    vertex 9.999999999999998 41.20000000000002 20.999999999999996
    vertex 6.999999999999998 41.20000000000002 20.999999999999996
  endloop
endfacet
facet normal 0.0 -0.99144486137381 -0.13052619222005418
  outer loop
    vertex 9.999999999999998 41.0568884704141 22.08703998943059
    vertex 6.999999999999998 41.20000000000002 20.999999999999996
    vertex 9.999999999999998 41.20000000000002 20.999999999999996
  endloop
endfacet
facet normal 0.0 -0.99144486137381 -0.13052619222005418
  outer loop
    vertex 6.999999999999998 41.20000000000002 20.999999999999996
    vertex 9.999999999999998 41.0568884704141 22.08703998943059
    vertex 6.999999999999998 41.0568884704141 22.08703998943059
  endloop
endfacet
facet normal 0.0 -0.9238795325112888 -0.3826834323650846
  outer loop
    vertex 9.999999999999998 40.63730669589466 23.100000000000005
    vertex 6.999999999999998 41.0568884704141 22.08703998943059
    vertex 9.999999999999998 41.0568884704141 22.08703998943059
  endloop
endfacet
facet normal 0.0 -0.9238795325112888 -0.3826834323650846
  outer loop
    vertex 6.999999999999998 41.0568884704141 22.08703998943059
    vertex 9.999999999999998 40.63730669589466 23.100000000000005
    vertex 6.999999999999998 40.63730669589466 23.100000000000005
  endloop
endfacet
facet normal 0.0 -0.7933533402912326 -0.608761429008724
  outer loop
    vertex 9.999999999999998 39.96984848098351 23.969848480983504
    vertex 6.999999999999998 40.63730669589466 23.100000000000005
    vertex 9.999999999999998 40.63730669589466 23.100000000000005
  endloop
endfacet
facet normal 0.0 -0.7933533402912326 -0.608761429008724
  outer loop
    vertex 6.999999999999998 40.63730669589466 23.100000000000005
    vertex 9.999999999999998 39.96984848098351 23.969848480983504
    vertex 6.999999999999998 39.96984848098351 23.969848480983504
  endloop
endfacet
facet normal 0.0 -0.6087614290087232 -0.7933533402912332
  outer loop
    vertex 9.999999999999998 39.96984848098351 23.969848480983504
    vertex 6.999999999999998 39.100000000000016 24.637306695894647
    vertex 6.999999999999998 39.96984848098351 23.969848480983504
  endloop
endfacet
facet normal 0.0 -0.6087614290087232 -0.7933533402912332
  outer loop
    vertex 6.999999999999998 39.100000000000016 24.637306695894647
    vertex 9.999999999999998 39.96984848098351 23.969848480983504
    vertex 9.999999999999998 39.100000000000016 24.637306695894647
  endloop
endfacet
facet normal 0.0 -0.3826834323650873 -0.9238795325112878
  outer loop
    vertex 9.999999999999998 39.100000000000016 24.637306695894647
    vertex 6.999999999999998 38.0870399894306 25.05688847041409
    vertex 6.999999999999998 39.100000000000016 24.637306695894647
  endloop
endfacet
facet normal 0.0 -0.3826834323650873 -0.9238795325112878
  outer loop
    vertex 6.999999999999998 38.0870399894306 25.05688847041409
    vertex 9.999999999999998 39.100000000000016 24.637306695894647
    vertex 9.999999999999998 38.0870399894306 25.05688847041409
  endloop
endfacet
facet normal 0.0 -0.13052619222005485 -0.99144486137381
  outer loop
    vertex 9.999999999999998 38.0870399894306 25.05688847041409
    vertex 6.999999999999998 37.000000000000014 25.200000000000006
    vertex 6.999999999999998 38.0870399894306 25.05688847041409
  endloop
endfacet
facet normal 0.0 -0.13052619222005485 -0.99144486137381
  outer loop
    vertex 6.999999999999998 37.000000000000014 25.200000000000006
    vertex 9.999999999999998 38.0870399894306 25.05688847041409
    vertex 9.999999999999998 37.000000000000014 25.200000000000006
  endloop
endfacet
facet normal 0.0 0.13052619222005485 -0.99144486137381
  outer loop
    vertex 9.999999999999998 37.000000000000014 25.200000000000006
    vertex 6.999999999999998 35.91296001056943 25.05688847041409
    vertex 6.999999999999998 37.000000000000014 25.200000000000006
  endloop
endfacet
facet normal 0.0 0.13052619222005485 -0.99144486137381
  outer loop
    vertex 6.999999999999998 35.91296001056943 25.05688847041409
    vertex 9.999999999999998 37.000000000000014 25.200000000000006
    vertex 9.999999999999998 35.91296001056943 25.05688847041409
  endloop
endfacet
facet normal 0.0 0.3826834323650909 -0.9238795325112863
  outer loop
    vertex 9.999999999999998 35.91296001056943 25.05688847041409
    vertex 6.999999999999998 34.90000000000001 24.637306695894647
    vertex 6.999999999999998 35.91296001056943 25.05688847041409
  endloop
endfacet
facet normal 0.0 0.3826834323650909 -0.9238795325112863
  outer loop
    vertex 6.999999999999998 34.90000000000001 24.637306695894647
    vertex 9.999999999999998 35.91296001056943 25.05688847041409
    vertex 9.999999999999998 34.90000000000001 24.637306695894647
  endloop
endfacet
facet normal 0.0 0.6087614290087182 -0.7933533402912369
  outer loop
    vertex 9.999999999999998 34.90000000000001 24.637306695894647
    vertex 6.999999999999998 34.03015151901651 23.969848480983504
    vertex 6.999999999999998 34.90000000000001 24.637306695894647
  endloop
endfacet
facet normal 0.0 0.6087614290087182 -0.7933533402912369
  outer loop
    vertex 6.999999999999998 34.03015151901651 23.969848480983504
    vertex 9.999999999999998 34.90000000000001 24.637306695894647
    vertex 9.999999999999998 34.03015151901651 23.969848480983504
  endloop
endfacet
facet normal -0.0 0.7933533402912344 -0.6087614290087215
  outer loop
    vertex 6.999999999999998 34.03015151901651 23.969848480983504
    vertex 9.999999999999998 33.36269330410536 23.1
    vertex 6.999999999999998 33.36269330410536 23.1
  endloop
endfacet
facet normal -0.0 0.7933533402912344 -0.6087614290087215
  outer loop
    vertex 9.999999999999998 33.36269330410536 23.1
    vertex 6.999999999999998 34.03015151901651 23.969848480983504
    vertex 9.999999999999998 34.03015151901651 23.969848480983504
  endloop
endfacet
facet normal -0.0 0.9238795325112888 -0.3826834323650846
  outer loop
    vertex 6.999999999999998 33.36269330410536 23.1
    vertex 9.999999999999998 32.94311152958593 22.087039989430586
    vertex 6.999999999999998 32.94311152958593 22.087039989430586
  endloop
endfacet
facet normal -0.0 0.9238795325112888 -0.3826834323650846
  outer loop
    vertex 9.999999999999998 32.94311152958593 22.087039989430586
    vertex 6.999999999999998 33.36269330410536 23.1
    vertex 9.999999999999998 33.36269330410536 23.1
  endloop
endfacet
facet normal -0.0 0.99144486137381 -0.13052619222005485
  outer loop
    vertex 6.999999999999998 32.94311152958593 22.087039989430586
    vertex 9.999999999999998 32.800000000000004 20.999999999999996
    vertex 6.999999999999998 32.800000000000004 20.999999999999996
  endloop
endfacet
facet normal -0.0 0.99144486137381 -0.13052619222005485
  outer loop
    vertex 9.999999999999998 32.800000000000004 20.999999999999996
    vertex 6.999999999999998 32.94311152958593 22.087039989430586
    vertex 9.999999999999998 32.94311152958593 22.087039989430586
  endloop
endfacet
facet normal -0.0 0.99144486137381 0.1305261922200545
  outer loop
    vertex 6.999999999999998 32.800000000000004 20.999999999999996
    vertex 9.999999999999998 32.94311152958593 19.91296001056941
    vertex 6.999999999999998 32.94311152958593 19.91296001056941
  endloop
endfacet
facet normal -0.0 0.99144486137381 0.1305261922200545
  outer loop
    vertex 9.999999999999998 32.94311152958593 19.91296001056941
    vertex 6.999999999999998 32.800000000000004 20.999999999999996
    vertex 9.999999999999998 32.800000000000004 20.999999999999996
  endloop
endfacet
facet normal -0.0 0.9238795325112849 0.38268343236509433
  outer loop
    vertex 6.999999999999998 32.94311152958593 19.91296001056941
    vertex 9.999999999999998 33.36269330410538 18.899999999999995
    vertex 6.999999999999998 33.36269330410538 18.899999999999995
  endloop
endfacet
facet normal -0.0 0.9238795325112849 0.38268343236509433
  outer loop
    vertex 9.999999999999998 33.36269330410538 18.899999999999995
    vertex 6.999999999999998 32.94311152958593 19.91296001056941
    vertex 9.999999999999998 32.94311152958593 19.91296001056941
  endloop
endfacet
facet normal -0.0 0.7933533402912376 0.6087614290087175
  outer loop
    vertex 6.999999999999998 33.36269330410538 18.899999999999995
    vertex 9.999999999999998 34.03015151901651 18.0301515190165
    vertex 6.999999999999998 34.03015151901651 18.0301515190165
  endloop
endfacet
facet normal -0.0 0.7933533402912376 0.6087614290087175
  outer loop
    vertex 9.999999999999998 34.03015151901651 18.0301515190165
    vertex 6.999999999999998 33.36269330410538 18.899999999999995
    vertex 9.999999999999998 33.36269330410538 18.899999999999995
  endloop
endfacet
facet normal -0.0 0.6087614290087183 0.7933533402912369
  outer loop
    vertex 9.999999999999998 34.03015151901651 18.0301515190165
    vertex 6.999999999999998 34.90000000000001 17.362693304105356
    vertex 6.999999999999998 34.03015151901651 18.0301515190165
  endloop
endfacet
facet normal -0.0 0.6087614290087183 0.7933533402912369
  outer loop
    vertex 6.999999999999998 34.90000000000001 17.362693304105356
    vertex 9.999999999999998 34.03015151901651 18.0301515190165
    vertex 9.999999999999998 34.90000000000001 17.362693304105356
  endloop
endfacet
facet normal -0.0 0.3826834323650909 0.9238795325112863
  outer loop
    vertex 9.999999999999998 34.90000000000001 17.362693304105356
    vertex 6.999999999999998 35.91296001056943 16.943111529585913
    vertex 6.999999999999998 34.90000000000001 17.362693304105356
  endloop
endfacet
facet normal -0.0 0.3826834323650909 0.9238795325112863
  outer loop
    vertex 6.999999999999998 35.91296001056943 16.943111529585913
    vertex 9.999999999999998 34.90000000000001 17.362693304105356
    vertex 9.999999999999998 35.91296001056943 16.943111529585913
  endloop
endfacet
facet normal -0.0 0.13052619222005232 0.9914448613738103
  outer loop
    vertex 9.999999999999998 35.91296001056943 16.943111529585913
    vertex 6.999999999999998 37.000000000000014 16.799999999999997
    vertex 6.999999999999998 35.91296001056943 16.943111529585913
  endloop
endfacet
facet normal -0.0 0.13052619222005232 0.9914448613738103
  outer loop
    vertex 6.999999999999998 37.000000000000014 16.799999999999997
    vertex 9.999999999999998 35.91296001056943 16.943111529585913
    vertex 9.999999999999998 37.000000000000014 16.799999999999997
  endloop
endfacet
facet normal -0.0 -0.13052619222005232 0.9914448613738103
  outer loop
    vertex 9.999999999999998 37.000000000000014 16.799999999999997
    vertex 6.999999999999998 38.0870399894306 16.943111529585913
    vertex 6.999999999999998 37.000000000000014 16.799999999999997
  endloop
endfacet
facet normal -0.0 -0.13052619222005232 0.9914448613738103
  outer loop
    vertex 6.999999999999998 38.0870399894306 16.943111529585913
    vertex 9.999999999999998 37.000000000000014 16.799999999999997
    vertex 9.999999999999998 38.0870399894306 16.943111529585913
  endloop
endfacet
facet normal -0.0 -0.3826834323650873 0.9238795325112878
  outer loop
    vertex 9.999999999999998 38.0870399894306 16.943111529585913
    vertex 6.999999999999998 39.100000000000016 17.362693304105356
    vertex 6.999999999999998 38.0870399894306 16.943111529585913
  endloop
endfacet
facet normal -0.0 -0.3826834323650873 0.9238795325112878
  outer loop
    vertex 6.999999999999998 39.100000000000016 17.362693304105356
    vertex 9.999999999999998 38.0870399894306 16.943111529585913
    vertex 9.999999999999998 39.100000000000016 17.362693304105356
  endloop
endfacet
facet normal -0.0 -0.6087614290087232 0.7933533402912332
  outer loop
    vertex 9.999999999999998 39.100000000000016 17.362693304105356
    vertex 6.999999999999998 39.96984848098351 18.0301515190165
    vertex 6.999999999999998 39.100000000000016 17.362693304105356
  endloop
endfacet
facet normal -0.0 -0.6087614290087232 0.7933533402912332
  outer loop
    vertex 6.999999999999998 39.96984848098351 18.0301515190165
    vertex 9.999999999999998 39.100000000000016 17.362693304105356
    vertex 9.999999999999998 39.96984848098351 18.0301515190165
  endloop
endfacet
facet normal 0.0 -0.7933533402912336 0.6087614290087228
  outer loop
    vertex 9.999999999999998 40.63730669589466 18.9
    vertex 6.999999999999998 39.96984848098351 18.0301515190165
    vertex 9.999999999999998 39.96984848098351 18.0301515190165
  endloop
endfacet
facet normal 0.0 -0.7933533402912336 0.6087614290087228
  outer loop
    vertex 6.999999999999998 39.96984848098351 18.0301515190165
    vertex 9.999999999999998 40.63730669589466 18.9
    vertex 6.999999999999998 40.63730669589466 18.9
  endloop
endfacet
endsolid psu-mount-plug
