  0
SECTION
  2
HEADER
  9
$ACADVER
  1
AC1014
  9
$HANDSEED
  5
FFFF
  9
$MEASUREMENT
 70
     1
  0
ENDSEC
  0
SECTION
  2
TABLES
  0
TABLE
  2
VPORT
  5
8
330
0
100
AcDbSymbolTable
 70
     4
  0
VPORT
  5
2E
330
8
100
AcDbSymbolTableRecord
100
AcDbViewportTableRecord
  2
*ACTIVE
 70
     0
 10
0.0
 20
0.0
 11
1.0
 21
1.0
 12
210.0
 22
148.5
 13
0.0
 23
0.0
 14
10.0
 24
10.0
 15
10.0
 25
10.0
 16
0.0
 26
0.0
 36
1.0
 17
0.0
 27
0.0
 37
0.0
 40
341.0
 41
1.24
 42
50.0
 43
0.0
 44
0.0
 50
0.0
 51
0.0
 71
     0
 72
   100
 73
     1
 74
     3
 75
     0
 76
     0
 77
     0
 78
     0
  0
ENDTAB
  0
TABLE
  2
LTYPE
  5
5
330
0
100
AcDbSymbolTable
 70
     1
  0
LTYPE
  5
14
330
5
100
AcDbSymbolTableRecord
100
AcDbLinetypeTableRecord
  2
BYBLOCK
 70
     0
  3

 72
    65
 73
     0
 40
0.0
  0
LTYPE
  5
15
330
5
100
AcDbSymbolTableRecord
100
AcDbLinetypeTableRecord
  2
BYLAYER
 70
     0
  3

 72
    65
 73
     0
 40
0.0
  0
LTYPE
  5
16
330
5
100
AcDbSymbolTableRecord
100
AcDbLinetypeTableRecord
  2
CONTINUOUS
 70
     0
  3
Solid line
 72
    65
 73
     0
 40
0.0
  0
ENDTAB
  0
TABLE
  2
LAYER
  5
2
100
AcDbSymbolTable
 70
2
  0
LAYER
  5
50
100
AcDbSymbolTableRecord
100
AcDbLayerTableRecord
  2
0
 70
0
  6
CONTINUOUS
  0
LAYER
  5
51
100
AcDbSymbolTableRecord
100
AcDbLayerTableRecord
  2
S_253
 70
0
  6
CONTINUOUS
  0
ENDTAB
  0
TABLE
  2
STYLE
  5
3
330
0
100
AcDbSymbolTable
 70
     1
  0
STYLE
  5
11
330
3
100
AcDbSymbolTableRecord
100
AcDbTextStyleTableRecord
  2
STANDARD
 70
     0
 40
0.0
 41
1.0
 50
0.0
 71
     0
 42
2.5
  3
txt
  4

  0
ENDTAB
  0
TABLE
  2
VIEW
  5
6
330
0
100
AcDbSymbolTable
 70
     0
  0
ENDTAB
  0
TABLE
  2
UCS
  5
7
330
0
100
AcDbSymbolTable
 70
     0
  0
ENDTAB
  0
TABLE
  2
APPID
  5
9
330
0
100
AcDbSymbolTable
 70
     2
  0
APPID
  5
12
330
9
100
AcDbSymbolTableRecord
100
AcDbRegAppTableRecord
  2
ACAD
 70
     0
  0
ENDTAB
  0
TABLE
  2
DIMSTYLE
  5
A
330
0
100
AcDbSymbolTable
 70
     1
  0
DIMSTYLE
105
27
330
A
100
AcDbSymbolTableRecord
100
AcDbDimStyleTableRecord
  2
ISO-25
 70
     0
  3

  4

  5

  6

  7

 40
1.0
 41
2.5
 42
0.625
 43
3.75
 44
1.25
 45
0.0
 46
0.0
 47
0.0
 48
0.0
140
2.5
141
2.5
142
0.0
143
0.03937007874016
144
1.0
145
0.0
146
1.0
147
0.625
 71
     0
 72
     0
 73
     0
 74
     0
 75
     0
 76
     0
 77
     1
 78
     8
170
     0
171
     3
172
     1
173
     0
174
     0
175
     0
176
     0
177
     0
178
     0
270
     2
271
     2
272
     2
273
     2
274
     3
340
11
275
     0
280
     0
281
     0
282
     0
283
     0
284
     8
285
     0
286
     0
287
     3
288
     0
  0
ENDTAB
  0
TABLE
  2
BLOCK_RECORD
  5
1
330
0
100
AcDbSymbolTable
 70
     1
  0
BLOCK_RECORD
  5
1F
330
1
100
AcDbSymbolTableRecord
100
AcDbBlockTableRecord
  2
*MODEL_SPACE
  0
BLOCK_RECORD
  5
1B
330
1
100
AcDbSymbolTableRecord
100
AcDbBlockTableRecord
  2
*PAPER_SPACE
  0
ENDTAB
  0
ENDSEC
  0
SECTION
  2
BLOCKS
  0
BLOCK
  5
20
330
1F
100
AcDbEntity
  8
0
100
AcDbBlockBegin
  2
*MODEL_SPACE
 70
     0
 10
0.0
 20
0.0
 30
0.0
  3
*MODEL_SPACE
  1

  0
ENDBLK
  5
21
330
1F
100
AcDbEntity
  8
0
100
AcDbBlockEnd
  0
BLOCK
  5
1C
330
1B
100
AcDbEntity
 67
     1
  8
0
100
AcDbBlockBegin
  2
*PAPER_SPACE
  1

  0
ENDBLK
  5
1D
330
1B
100
AcDbEntity
 67
     1
  8
0
100
AcDbBlockEnd
  0
ENDSEC
  0
SECTION
  2
ENTITIES
  0
LWPOLYLINE
  5
100
100
AcDbEntity
  8
S_253
 62
7
100
AcDbPolyline
 90
2
 70
1
 10
20.475998
 20
17.686690
 30
0.0
 10
20.475399
 20
17.687184
 30
0.0
  0
SPLINE
  5
101
100
AcDbEntity
  8
S_253
 62
7
100
AcDbSpline
 70
0
 71
3
 72
10
 73
6
 74
4
 40
0.000000
 40
0.000000
 40
0.000000
 40
0.000000
 40
0.138765
 40
0.276279
 40
0.415076
 40
0.415076
 40
0.415076
 40
0.415076
 10
20.475399
 20
17.687184
 30
0.0
 10
20.439927
 20
17.717185
 30
0.0
 10
20.369305
 20
17.776915
 30
0.0
 10
20.236990
 20
17.828059
 30
0.0
 10
20.144542
 20
17.831339
 30
0.0
 10
20.098103
 20
17.832987
 30
0.0
 11
20.475399
 21
17.687184
 31
0.0
 11
20.364583
 21
17.770705
 31
0.0
 11
20.236317
 21
17.820281
 31
0.0
 11
20.098103
 21
17.832987
 31
0.0
  0
LWPOLYLINE
  5
102
100
AcDbEntity
  8
S_253
 62
7
100
AcDbPolyline
 90
2
 70
1
 10
20.098103
 20
17.832987
 30
0.0
 10
20.098209
 20
17.832705
 30
0.0
  0
SPLINE
  5
103
100
AcDbEntity
  8
S_253
 62
7
100
AcDbSpline
 70
0
 71
3
 72
13
 73
9
 74
7
 40
0.000000
 40
0.000000
 40
0.000000
 40
0.000000
 40
0.760240
 40
1.509562
 40
2.269817
 40
3.030011
 40
3.779336
 40
4.539588
 40
4.539588
 40
4.539588
 40
4.539588
 10
20.098209
 20
17.832705
 30
0.0
 10
19.842535
 20
17.846757
 30
0.0
 10
19.334860
 20
17.874658
 30
0.0
 10
18.648868
 20
18.244288
 30
0.0
 10
18.124798
 20
18.808775
 30
0.0
 10
17.832553
 20
19.521434
 30
0.0
 10
17.785149
 20
20.299222
 30
0.0
 10
17.973056
 20
20.771674
 30
0.0
 10
18.067690
 20
21.009610
 30
0.0
 11
20.098209
 21
17.832705
 31
0.0
 11
19.344238
 21
17.930132
 31
0.0
 11
18.678704
 21
18.274440
 31
0.0
 11
18.163611
 21
18.833606
 31
0.0
 11
17.872450
 21
19.535832
 31
0.0
 11
17.839444
 21
20.284430
 31
0.0
 11
18.067690
 21
21.009610
 31
0.0
  0
LWPOLYLINE
  5
104
100
AcDbEntity
  8
S_253
 62
7
100
AcDbPolyline
 90
2
 70
1
 10
18.067690
 20
21.009610
 30
0.0
 10
18.068502
 20
21.010210
 30
0.0
  0
SPLINE
  5
105
100
AcDbEntity
  8
S_253
 62
7
100
AcDbSpline
 70
0
 71
3
 72
13
 73
9
 74
7
 40
0.000000
 40
0.000000
 40
0.000000
 40
0.000000
 40
0.070795
 40
0.140897
 40
0.211677
 40
0.282509
 40
0.352644
 40
0.423484
 40
0.423484
 40
0.423484
 40
0.423484
 10
18.068502
 20
21.010210
 30
0.0
 10
18.081172
 20
21.030310
 30
0.0
 10
18.106387
 20
21.070314
 30
0.0
 10
18.163646
 20
21.113894
 30
0.0
 10
18.229794
 20
21.140763
 30
0.0
 10
18.300892
 20
21.147461
 30
0.0
 10
18.371838
 20
21.135172
 30
0.0
 10
18.412680
 20
21.111288
 30
0.0
 10
18.433203
 20
21.099286
 30
0.0
 11
18.068502
 21
21.010210
 31
0.0
 11
18.109768
 21
21.067735
 31
0.0
 11
18.164925
 21
21.111000
 31
0.0
 11
18.230603
 21
21.137386
 31
0.0
 11
18.301097
 21
21.144293
 31
0.0
 11
18.370023
 21
21.131326
 31
0.0
 11
18.433203
 21
21.099286
 31
0.0
  0
LWPOLYLINE
  5
106
100
AcDbEntity
  8
S_253
 62
7
100
AcDbPolyline
 90
4
 70
1
 10
18.433203
 20
21.099286
 30
0.0
 10
18.434191
 20
21.098792
 30
0.0
 10
19.042592
 20
20.672213
 30
0.0
 10
19.041886
 20
20.672284
 30
0.0
  0
SPLINE
  5
107
100
AcDbEntity
  8
S_253
 62
7
100
AcDbSpline
 70
0
 71
3
 72
10
 73
6
 74
4
 40
0.000000
 40
0.000000
 40
0.000000
 40
0.000000
 40
0.071859
 40
0.141910
 40
0.213786
 40
0.213786
 40
0.213786
 40
0.213786
 10
19.041886
 20
20.672284
 30
0.0
 10
19.059609
 20
20.655657
 30
0.0
 10
19.094610
 20
20.622822
 30
0.0
 10
19.112718
 20
20.548469
 30
0.0
 10
19.096704
 20
20.503218
 30
0.0
 10
19.088594
 20
20.480302
 30
0.0
 11
19.041886
 21
20.672284
 31
0.0
 11
19.089164
 21
20.618168
 31
0.0
 11
19.105734
 21
20.550105
 31
0.0
 11
19.088594
 21
20.480302
 31
0.0
  0
LWPOLYLINE
  5
108
100
AcDbEntity
  8
S_253
 62
7
100
AcDbPolyline
 90
2
 70
1
 10
19.088594
 20
20.480302
 30
0.0
 10
19.087888
 20
20.480196
 30
0.0
  0
SPLINE
  5
109
100
AcDbEntity
  8
S_253
 62
7
100
AcDbSpline
 70
0
 71
3
 72
13
 73
9
 74
7
 40
0.000000
 40
0.000000
 40
0.000000
 40
0.000000
 40
0.310185
 40
0.616968
 40
0.927194
 40
1.237362
 40
1.544156
 40
1.854360
 40
1.854360
 40
1.854360
 40
1.854360
 10
19.087888
 20
20.480196
 30
0.0
 10
19.047813
 20
20.384008
 30
0.0
 10
18.968103
 20
20.192686
 30
0.0
 10
18.963858
 20
19.876697
 30
0.0
 10
19.047271
 20
19.574794
 30
0.0
 10
19.219288
 20
19.313050
 30
0.0
 10
19.459640
 20
19.107882
 30
0.0
 10
19.656061
 20
19.041688
 30
0.0
 10
19.754815
 20
19.008407
 30
0.0
 11
19.087888
 21
20.480196
 31
0.0
 11
18.987097
 21
20.186843
 31
0.0
 11
18.978295
 21
19.880187
 31
0.0
 11
19.062100
 21
19.581495
 31
0.0
 11
19.231407
 21
19.321611
 31
0.0
 11
19.467774
 21
19.126028
 31
0.0
 11
19.754815
 21
19.008407
 31
0.0
  0
LWPOLYLINE
  5
10a
100
AcDbEntity
  8
S_253
 62
7
100
AcDbPolyline
 90
2
 70
1
 10
19.754815
 20
19.008407
 30
0.0
 10
19.755309
 20
19.008090
 30
0.0
  0
SPLINE
  5
10b
100
AcDbEntity
  8
S_253
 62
7
100
AcDbSpline
 70
0
 71
3
 72
10
 73
6
 74
4
 40
0.000000
 40
0.000000
 40
0.000000
 40
0.000000
 40
0.049056
 40
0.097528
 40
0.146640
 40
0.146640
 40
0.146640
 40
0.146640
 10
19.755309
 20
19.008090
 30
0.0
 10
19.770854
 20
19.002695
 30
0.0
 10
19.801761
 20
18.991971
 30
0.0
 10
19.839488
 20
18.958251
 30
0.0
 10
19.853658
 20
18.928747
 30
0.0
 10
19.860789
 20
18.913898
 30
0.0
 11
19.755309
 21
19.008090
 31
0.0
 11
19.800475
 21
18.988946
 31
0.0
 11
19.836625
 21
18.956655
 31
0.0
 11
19.860789
 21
18.913898
 31
0.0
  0
LWPOLYLINE
  5
10c
100
AcDbEntity
  8
S_253
 62
7
100
AcDbPolyline
 90
2
 70
1
 10
19.860789
 20
18.913898
 30
0.0
 10
19.883085
 20
18.853997
 30
0.0
  0
SPLINE
  5
10d
100
AcDbEntity
  8
S_253
 62
7
100
AcDbSpline
 70
0
 71
3
 72
10
 73
6
 74
4
 40
0.000000
 40
0.000000
 40
0.000000
 40
0.000000
 40
0.062221
 40
0.123171
 40
0.185297
 40
0.185297
 40
0.185297
 40
0.185297
 10
19.883085
 20
18.853997
 30
0.0
 10
19.892631
 20
18.835339
 30
0.0
 10
19.911529
 20
18.798405
 30
0.0
 10
19.965428
 20
18.761699
 30
0.0
 10
20.006686
 20
18.757650
 30
0.0
 10
20.027512
 20
18.755607
 30
0.0
 11
19.883085
 21
18.853997
 31
0.0
 11
19.916045
 21
18.801222
 31
0.0
 11
19.966424
 21
18.766918
 31
0.0
 11
20.027512
 21
18.755607
 31
0.0
  0
LWPOLYLINE
  5
10e
100
AcDbEntity
  8
S_253
 62
7
100
AcDbPolyline
 90
2
 70
1
 10
20.027512
 20
18.755607
 30
0.0
 10
20.026983
 20
18.755783
 30
0.0
  0
SPLINE
  5
10f
100
AcDbEntity
  8
S_253
 62
7
100
AcDbSpline
 70
0
 71
3
 72
10
 73
6
 74
4
 40
0.000000
 40
0.000000
 40
0.000000
 40
0.000000
 40
0.269608
 40
0.537691
 40
0.807339
 40
0.807339
 40
0.807339
 40
0.807339
 10
20.026983
 20
18.755783
 30
0.0
 10
20.116719
 20
18.763886
 30
0.0
 10
20.295685
 20
18.780047
 30
0.0
 10
20.552439
 20
18.873546
 30
0.0
 10
20.699926
 20
18.976219
 30
0.0
 10
20.773884
 20
19.027704
 30
0.0
 11
20.026983
 21
18.755783
 31
0.0
 11
20.294190
 21
18.791686
 31
0.0
 11
20.546094
 21
18.883405
 31
0.0
 11
20.773884
 21
19.027704
 31
0.0
  0
LWPOLYLINE
  5
110
100
AcDbEntity
  8
S_253
 62
7
100
AcDbPolyline
 90
2
 70
1
 10
20.773884
 20
19.027704
 30
0.0
 10
20.774484
 20
19.027493
 30
0.0
  0
SPLINE
  5
111
100
AcDbEntity
  8
S_253
 62
7
100
AcDbSpline
 70
0
 71
3
 72
10
 73
6
 74
4
 40
0.000000
 40
0.000000
 40
0.000000
 40
0.000000
 40
0.062189
 40
0.123150
 40
0.185362
 40
0.185362
 40
0.185362
 40
0.185362
 10
20.774484
 20
19.027493
 30
0.0
 10
20.789124
 20
19.042475
 30
0.0
 10
20.818115
 20
19.072144
 30
0.0
 10
20.835772
 20
19.134927
 30
0.0
 10
20.826553
 20
19.175374
 30
0.0
 10
20.821897
 20
19.195803
 30
0.0
 11
20.774484
 21
19.027493
 31
0.0
 11
20.814003
 21
19.075511
 31
0.0
 11
20.830520
 21
19.134191
 31
0.0
 11
20.821897
 21
19.195803
 31
0.0
  0
LWPOLYLINE
  5
112
100
AcDbEntity
  8
S_253
 62
7
100
AcDbPolyline
 90
4
 70
1
 10
20.821897
 20
19.195803
 30
0.0
 10
20.822109
 20
19.195203
 30
0.0
 10
20.800413
 20
19.256093
 30
0.0
 10
20.800695
 20
19.256692
 30
0.0
  0
SPLINE
  5
113
100
AcDbEntity
  8
S_253
 62
7
100
AcDbSpline
 70
0
 71
3
 72
10
 73
6
 74
4
 40
0.000000
 40
0.000000
 40
0.000000
 40
0.000000
 40
0.049103
 40
0.097593
 40
0.146686
 40
0.146686
 40
0.146686
 40
0.146686
 10
20.800695
 20
19.256692
 30
0.0
 10
20.796602
 20
19.272647
 30
0.0
 10
20.788466
 20
19.304356
 30
0.0
 10
20.795739
 20
19.354444
 30
0.0
 10
20.812484
 20
19.382563
 30
0.0
 10
20.820909
 20
19.396710
 30
0.0
 11
20.800695
 21
19.256692
 31
0.0
 11
20.791699
 21
19.304964
 31
0.0
 11
20.798649
 21
19.352954
 31
0.0
 11
20.820909
 21
19.396710
 31
0.0
  0
LWPOLYLINE
  5
114
100
AcDbEntity
  8
S_253
 62
7
100
AcDbPolyline
 90
2
 70
1
 10
20.820909
 20
19.396710
 30
0.0
 10
20.820098
 20
19.396110
 30
0.0
  0
SPLINE
  5
115
100
AcDbEntity
  8
S_253
 62
7
100
AcDbSpline
 70
0
 71
3
 72
16
 73
12
 74
10
 40
0.000000
 40
0.000000
 40
0.000000
 40
0.000000
 40
0.310219
 40
0.617001
 40
0.927150
 40
1.237410
 40
1.544197
 40
1.854417
 40
1.926326
 40
1.996386
 40
2.068302
 40
2.068302
 40
2.068302
 40
2.068302
 10
20.820098
 20
19.396110
 30
0.0
 10
20.874340
 20
19.485098
 30
0.0
 10
20.982224
 20
19.662087
 30
0.0
 10
21.034527
 20
19.973675
 30
0.0
 10
20.998139
 20
20.284948
 30
0.0
 10
20.867669
 20
20.569149
 30
0.0
 10
20.662300
 20
20.811009
 30
0.0
 10
20.454006
 20
20.910462
 30
0.0
 10
20.322598
 20
20.989062
 30
0.0
 10
20.288606
 20
21.057565
 30
0.0
 10
20.294318
 20
21.105256
 30
0.0
 10
20.297211
 20
21.129413
 30
0.0
 11
20.820098
 21
19.396110
 31
0.0
 11
20.964351
 21
19.670749
 31
0.0
 11
21.019744
 21
19.972489
 31
0.0
 11
20.982411
 21
20.280383
 31
0.0
 11
20.854581
 21
20.563086
 31
0.0
 11
20.650724
 21
20.792347
 31
0.0
 11
20.384911
 21
20.952284
 31
0.0
 11
20.326857
 21
20.994718
 31
0.0
 11
20.295786
 21
21.057511
 31
0.0
 11
20.297211
 21
21.129413
 31
0.0
  0
LWPOLYLINE
  5
116
100
AcDbEntity
  8
S_253
 62
7
100
AcDbPolyline
 90
4
 70
1
 10
20.297211
 20
21.129413
 30
0.0
 10
20.297493
 20
21.129307
 30
0.0
 10
20.490215
 20
21.846611
 30
0.0
 10
20.490004
 20
21.847598
 30
0.0
  0
SPLINE
  5
117
100
AcDbEntity
  8
S_253
 62
7
100
AcDbSpline
 70
0
 71
3
 72
13
 73
9
 74
7
 40
0.000000
 40
0.000000
 40
0.000000
 40
0.000000
 40
0.070767
 40
0.140882
 40
0.211708
 40
0.282476
 40
0.352605
 40
0.423325
 40
0.423325
 40
0.423325
 40
0.423325
 10
20.490004
 20
21.847598
 30
0.0
 10
20.498017
 20
21.869956
 30
0.0
 10
20.513969
 20
21.914465
 30
0.0
 10
20.560403
 20
21.969444
 30
0.0
 10
20.619153
 20
22.010023
 30
0.0
 10
20.687103
 20
22.031950
 30
0.0
 10
20.758951
 20
22.035399
 30
0.0
 10
20.803980
 20
22.021015
 30
0.0
 10
20.826589
 20
22.013792
 30
0.0
 11
20.490004
 21
21.847598
 31
0.0
 11
20.517814
 21
21.912671
 31
0.0
 11
20.562276
 21
21.966887
 31
0.0
 11
20.620708
 21
22.006913
 31
0.0
 11
20.687968
 21
22.028914
 31
0.0
 11
20.758059
 21
22.031254
 31
0.0
 11
20.826589
 21
22.013792
 31
0.0
  0
LWPOLYLINE
  5
118
100
AcDbEntity
  8
S_253
 62
7
100
AcDbPolyline
 90
2
 70
1
 10
20.826589
 20
22.013792
 30
0.0
 10
20.826095
 20
22.013616
 30
0.0
  0
SPLINE
  5
119
100
AcDbEntity
  8
S_253
 62
7
100
AcDbSpline
 70
0
 71
3
 72
13
 73
9
 74
7
 40
0.000000
 40
0.000000
 40
0.000000
 40
0.000000
 40
0.681722
 40
1.355455
 40
2.037160
 40
2.718828
 40
3.392534
 40
4.074204
 40
4.074204
 40
4.074204
 40
4.074204
 10
20.826095
 20
22.013616
 30
0.0
 10
21.028992
 20
21.907122
 30
0.0
 10
21.432407
 20
21.695384
 30
0.0
 10
21.876541
 20
21.160256
 30
0.0
 10
22.144417
 20
20.525631
 30
0.0
 10
22.197056
 20
19.838814
 30
0.0
 10
22.047463
 20
19.159704
 30
0.0
 10
21.785874
 20
18.786709
 30
0.0
 10
21.654311
 20
18.599115
 30
0.0
 11
20.826095
 21
22.013616
 31
0.0
 11
21.407490
 21
21.657630
 31
0.0
 11
21.845829
 21
21.145991
 31
0.0
 11
22.108407
 21
20.516885
 31
0.0
 11
22.163226
 21
19.837425
 31
0.0
 11
22.008009
 21
19.181844
 31
0.0
 11
21.654311
 21
18.599115
 31
0.0
  0
LWPOLYLINE
  5
11a
100
AcDbEntity
  8
S_253
 62
7
100
AcDbPolyline
 90
2
 70
1
 10
21.654311
 20
18.599115
 30
0.0
 10
21.655193
 20
18.599714
 30
0.0
  0
SPLINE
  5
11b
100
AcDbEntity
  8
S_253
 62
7
100
AcDbSpline
 70
0
 71
3
 72
10
 73
6
 74
4
 40
0.000000
 40
0.000000
 40
0.000000
 40
0.000000
 40
0.123785
 40
0.244210
 40
0.367944
 40
0.367944
 40
0.367944
 40
0.367944
 10
21.655193
 20
18.599714
 30
0.0
 10
21.633110
 20
18.564099
 30
0.0
 10
21.589544
 20
18.493835
 30
0.0
 10
21.594991
 20
18.361712
 30
0.0
 10
21.644170
 20
18.295279
 30
0.0
 10
21.669093
 20
18.261612
 30
0.0
 11
21.655193
 21
18.599714
 31
0.0
 11
21.601067
 21
18.488391
 31
0.0
 11
21.606027
 21
18.368067
 31
0.0
 11
21.669093
 21
18.261612
 31
0.0
  0
LWPOLYLINE
  5
11c
100
AcDbEntity
  8
S_253
 62
7
100
AcDbPolyline
 90
4
 70
1
 10
21.669093
 20
18.261612
 30
0.0
 10
21.668916
 20
18.260307
 30
0.0
 10
23.920803
 20
16.008315
 30
0.0
 10
23.920591
 20
16.009197
 30
0.0
  0
SPLINE
  5
11d
100
AcDbEntity
  8
S_253
 62
7
100
AcDbSpline
 70
0
 71
3
 72
10
 73
6
 74
4
 40
0.000000
 40
0.000000
 40
0.000000
 40
0.000000
 40
0.065404
 40
0.130273
 40
0.195708
 40
0.195708
 40
0.195708
 40
0.195708
 10
23.920591
 20
16.009197
 30
0.0
 10
23.934801
 20
15.992553
 30
0.0
 10
23.963106
 20
15.959402
 30
0.0
 10
23.988662
 20
15.897789
 30
0.0
 10
23.992077
 20
15.854320
 30
0.0
 10
23.993792
 20
15.832490
 30
0.0
 11
23.920591
 21
16.009197
 31
0.0
 11
23.960375
 21
15.957285
 31
0.0
 11
23.985217
 21
15.897361
 31
0.0
 11
23.993792
 21
15.832490
 31
0.0
  0
LWPOLYLINE
  5
11e
100
AcDbEntity
  8
S_253
 62
7
100
AcDbPolyline
 90
4
 70
1
 10
23.993792
 20
15.832490
 30
0.0
 10
23.994886
 20
15.831996
 30
0.0
 10
23.994886
 20
13.532203
 30
0.0
 10
23.993792
 20
13.532697
 30
0.0
  0
SPLINE
  5
11f
100
AcDbEntity
  8
S_253
 62
7
100
AcDbSpline
 70
0
 71
3
 72
10
 73
6
 74
4
 40
0.000000
 40
0.000000
 40
0.000000
 40
0.000000
 40
0.078209
 40
0.154136
 40
0.232410
 40
0.232410
 40
0.232410
 40
0.232410
 10
23.993792
 20
13.532697
 30
0.0
 10
23.989674
 20
13.506487
 30
0.0
 10
23.981559
 20
13.454833
 30
0.0
 10
23.922018
 20
13.395310
 30
0.0
 10
23.870341
 20
13.387200
 30
0.0
 10
23.844109
 20
13.383084
 30
0.0
 11
23.993792
 21
13.532697
 31
0.0
 11
23.973361
 21
13.457204
 31
0.0
 11
23.919667
 21
13.403520
 31
0.0
 11
23.844109
 21
13.383084
 31
0.0
  0
LWPOLYLINE
  5
120
100
AcDbEntity
  8
S_253
 62
7
100
AcDbPolyline
 90
4
 70
1
 10
23.844109
 20
13.383084
 30
0.0
 10
23.844709
 20
13.381990
 30
0.0
 10
22.944596
 20
13.381990
 30
0.0
 10
22.944596
 20
14.958483
 30
0.0
  0
SPLINE
  5
121
100
AcDbEntity
  8
S_253
 62
7
100
AcDbSpline
 70
0
 71
3
 72
13
 73
9
 74
7
 40
0.000000
 40
0.000000
 40
0.000000
 40
0.000000
 40
0.085845
 40
0.170508
 40
0.256366
 40
0.342161
 40
0.426749
 40
0.512556
 40
0.512556
 40
0.512556
 40
0.512556
 10
22.944596
 20
14.958483
 30
0.0
 10
22.941702
 20
14.987241
 30
0.0
 10
22.935954
 20
15.044360
 30
0.0
 10
22.891342
 20
15.120135
 30
0.0
 10
22.825730
 20
15.177149
 30
0.0
 10
22.744537
 20
15.208086
 30
0.0
 10
22.656733
 20
15.211733
 30
0.0
 10
22.603705
 20
15.189825
 30
0.0
 10
22.577002
 20
15.178793
 30
0.0
 11
22.944596
 21
14.958483
 31
0.0
 11
22.929850
 21
15.043052
 31
0.0
 11
22.888105
 21
15.116708
 31
0.0
 11
22.823099
 21
15.172796
 31
0.0
 11
22.743037
 21
15.203631
 31
0.0
 11
22.658475
 21
15.205719
 31
0.0
 11
22.577002
 21
15.178793
 31
0.0
  0
LWPOLYLINE
  5
122
100
AcDbEntity
  8
S_253
 62
7
100
AcDbPolyline
 90
2
 70
1
 10
22.577002
 20
15.178793
 30
0.0
 10
22.576402
 20
15.179287
 30
0.0
  0
SPLINE
  5
123
100
AcDbEntity
  8
S_253
 62
7
100
AcDbSpline
 70
0
 71
3
 72
10
 73
6
 74
4
 40
0.000000
 40
0.000000
 40
0.000000
 40
0.000000
 40
0.573628
 40
1.146446
 40
1.720065
 40
1.720065
 40
1.720065
 40
1.720065
 10
22.576402
 20
15.179287
 30
0.0
 10
22.404941
 20
15.094403
 30
0.0
 10
22.062261
 20
14.924755
 30
0.0
 10
21.518610
 20
14.736112
 30
0.0
 10
21.144486
 20
14.657119
 30
0.0
 10
20.957293
 20
14.617594
 30
0.0
 11
22.576402
 21
15.179287
 31
0.0
 11
22.057095
 21
14.935630
 31
0.0
 11
21.515923
 21
14.747868
 31
0.0
 11
20.957293
 21
14.617594
 31
0.0
  0
LWPOLYLINE
  5
124
100
AcDbEntity
  8
S_253
 62
7
100
AcDbPolyline
 90
2
 70
1
 10
20.957293
 20
14.617594
 30
0.0
 10
20.957893
 20
14.618300
 30
0.0
  0
SPLINE
  5
125
100
AcDbEntity
  8
S_253
 62
7
100
AcDbSpline
 70
0
 71
3
 72
10
 73
6
 74
4
 40
0.000000
 40
0.000000
 40
0.000000
 40
0.000000
 40
0.232184
 40
0.458799
 40
0.691023
 40
0.691023
 40
0.691023
 40
0.691023
 10
20.957893
 20
14.618300
 30
0.0
 10
20.883321
 20
14.593982
 30
0.0
 10
20.735966
 20
14.545931
 30
0.0
 10
20.577907
 20
14.357117
 30
0.0
 10
20.556527
 20
14.203593
 30
0.0
 10
20.545707
 20
14.125892
 30
0.0
 11
20.957893
 21
14.618300
 31
0.0
 11
20.745040
 21
14.525548
 31
0.0
 11
20.599575
 21
14.351783
 31
0.0
 11
20.545707
 21
14.125892
 31
0.0
  0
LWPOLYLINE
  5
126
100
AcDbEntity
  8
S_253
 62
7
100
AcDbPolyline
 90
2
 70
1
 10
20.545707
 20
14.125892
 30
0.0
 10
20.545707
 20
10.509109
 30
0.0
  0
SPLINE
  5
127
100
AcDbEntity
  8
S_253
 62
7
100
AcDbSpline
 70
0
 71
3
 72
10
 73
6
 74
4
 40
0.000000
 40
0.000000
 40
0.000000
 40
0.000000
 40
0.261493
 40
0.515215
 40
0.776691
 40
0.776691
 40
0.776691
 40
0.776691
 10
20.545707
 20
10.509109
 30
0.0
 10
20.559462
 20
10.421474
 30
0.0
 10
20.586562
 20
10.248809
 30
0.0
 10
20.785518
 20
10.049863
 30
0.0
 10
20.958176
 20
10.022764
 30
0.0
 10
21.045805
 20
10.009011
 30
0.0
 11
20.545707
 21
10.509109
 31
0.0
 11
20.613987
 21
10.256687
 31
0.0
 11
20.793399
 21
10.077283
 31
0.0
 11
21.045805
 21
10.009011
 31
0.0
  0
LWPOLYLINE
  5
128
100
AcDbEntity
  8
S_253
 62
7
100
AcDbPolyline
 90
3
 70
1
 10
21.045805
 20
10.009011
 30
0.0
 10
22.795406
 20
10.009011
 30
0.0
 10
22.794912
 20
10.010105
 30
0.0
  0
SPLINE
  5
129
100
AcDbEntity
  8
S_253
 62
7
100
AcDbSpline
 70
0
 71
3
 72
10
 73
6
 74
4
 40
0.000000
 40
0.000000
 40
0.000000
 40
0.000000
 40
0.078245
 40
0.154124
 40
0.232317
 40
0.232317
 40
0.232317
 40
0.232317
 10
22.794912
 20
10.010105
 30
0.0
 10
22.821136
 20
10.014217
 30
0.0
 10
22.872791
 20
10.022317
 30
0.0
 10
22.932286
 20
10.081842
 30
0.0
 10
22.940382
 20
10.133477
 30
0.0
 10
22.944490
 20
10.159682
 30
0.0
 11
22.794912
 21
10.010105
 31
0.0
 11
22.870444
 21
10.030532
 31
0.0
 11
22.924087
 21
10.084199
 31
0.0
 11
22.944490
 21
10.159682
 31
0.0
  0
LWPOLYLINE
  5
12a
100
AcDbEntity
  8
S_253
 62
7
100
AcDbPolyline
 90
4
 70
1
 10
22.944490
 20
10.159682
 30
0.0
 10
22.944596
 20
10.159189
 30
0.0
 10
22.944596
 20
11.233503
 30
0.0
 10
23.846614
 20
11.233503
 30
0.0
  0
SPLINE
  5
12b
100
AcDbEntity
  8
S_253
 62
7
100
AcDbSpline
 70
0
 71
3
 72
10
 73
6
 74
4
 40
0.000000
 40
0.000000
 40
0.000000
 40
0.000000
 40
0.077401
 40
0.152586
 40
0.230080
 40
0.230080
 40
0.230080
 40
0.230080
 10
23.846614
 20
11.233503
 30
0.0
 10
23.872474
 20
11.229033
 30
0.0
 10
23.923455
 20
11.220220
 30
0.0
 10
23.981820
 20
11.160914
 30
0.0
 10
23.989761
 20
11.109752
 30
0.0
 10
23.993792
 20
11.083784
 30
0.0
 11
23.846614
 21
11.233503
 31
0.0
 11
23.921037
 21
11.212239
 31
0.0
 11
23.973768
 21
11.158646
 31
0.0
 11
23.993792
 21
11.083784
 31
0.0
  0
LWPOLYLINE
  5
12c
100
AcDbEntity
  8
S_253
 62
7
100
AcDbPolyline
 90
4
 70
1
 10
23.993792
 20
11.083784
 30
0.0
 10
23.994886
 20
11.083290
 30
0.0
 10
23.994886
 20
5.261292
 30
0.0
 10
23.993792
 20
5.261892
 30
0.0
  0
SPLINE
  5
12d
100
AcDbEntity
  8
S_253
 62
7
100
AcDbSpline
 70
0
 71
3
 72
10
 73
6
 74
4
 40
0.000000
 40
0.000000
 40
0.000000
 40
0.000000
 40
0.130628
 40
0.257351
 40
0.387979
 40
0.387979
 40
0.387979
 40
0.387979
 10
23.993792
 20
5.261892
 30
0.0
 10
23.986927
 20
5.218113
 30
0.0
 10
23.973402
 20
5.131864
 30
0.0
 10
23.874019
 20
5.032481
 30
0.0
 10
23.787770
 20
5.018955
 30
0.0
 10
23.743991
 20
5.012090
 30
0.0
 11
23.993792
 21
5.261892
 31
0.0
 11
23.959697
 21
5.135792
 31
0.0
 11
23.870090
 21
5.046186
 31
0.0
 11
23.743991
 21
5.012090
 31
0.0
  0
LWPOLYLINE
  5
12e
100
AcDbEntity
  8
S_253
 62
7
100
AcDbPolyline
 90
4
 70
1
 10
23.743991
 20
5.012090
 30
0.0
 10
23.744484
 20
5.010997
 30
0.0
 10
21.220501
 20
5.010997
 30
0.0
 10
21.219901
 20
5.012090
 30
0.0
  0
SPLINE
  5
12f
100
AcDbEntity
  8
S_253
 62
7
100
AcDbSpline
 70
0
 71
3
 72
10
 73
6
 74
4
 40
0.000000
 40
0.000000
 40
0.000000
 40
0.000000
 40
0.078208
 40
0.154123
 40
0.232348
 40
0.232348
 40
0.232348
 40
0.232348
 10
21.219901
 20
5.012090
 30
0.0
 10
21.193692
 20
5.016208
 30
0.0
 10
21.142043
 20
5.024323
 30
0.0
 10
21.082523
 20
5.083833
 30
0.0
 10
21.074407
 20
5.135488
 30
0.0
 10
21.070288
 20
5.161703
 30
0.0
 11
21.219901
 21
5.012090
 31
0.0
 11
21.144408
 21
5.032519
 31
0.0
 11
21.090724
 21
5.086195
 31
0.0
 11
21.070288
 21
5.161703
 31
0.0
  0
LWPOLYLINE
  5
130
100
AcDbEntity
  8
S_253
 62
7
100
AcDbPolyline
 90
4
 70
1
 10
21.070288
 20
5.161703
 30
0.0
 10
21.071417
 20
5.161209
 30
0.0
 10
21.071417
 20
6.061287
 30
0.0
 10
22.845007
 20
6.061287
 30
0.0
  0
SPLINE
  5
131
100
AcDbEntity
  8
S_253
 62
7
100
AcDbSpline
 70
0
 71
3
 72
10
 73
6
 74
4
 40
0.000000
 40
0.000000
 40
0.000000
 40
0.000000
 40
0.078248
 40
0.154159
 40
0.232433
 40
0.232433
 40
0.232433
 40
0.232433
 10
22.845007
 20
6.061287
 30
0.0
 10
22.871233
 20
6.065402
 30
0.0
 10
22.922901
 20
6.073511
 30
0.0
 10
22.982391
 20
6.133100
 30
0.0
 10
22.990479
 20
6.184773
 30
0.0
 10
22.994585
 20
6.211006
 30
0.0
 11
22.845007
 21
6.061287
 31
0.0
 11
22.920538
 21
6.081727
 31
0.0
 11
22.974181
 21
6.135438
 31
0.0
 11
22.994585
 21
6.211006
 31
0.0
  0
LWPOLYLINE
  5
132
100
AcDbEntity
  8
S_253
 62
7
100
AcDbPolyline
 90
3
 70
1
 10
22.994585
 20
6.211006
 30
0.0
 10
22.994585
 20
6.210406
 30
0.0
 10
22.994585
 20
8.760107
 30
0.0
  0
SPLINE
  5
133
100
AcDbEntity
  8
S_253
 62
7
100
AcDbSpline
 70
0
 71
3
 72
13
 73
9
 74
7
 40
0.000000
 40
0.000000
 40
0.000000
 40
0.000000
 40
0.130555
 40
0.257239
 40
0.387794
 40
0.388888
 40
0.389982
 40
0.391075
 40
0.391075
 40
0.391075
 40
0.391075
 10
22.994585
 20
8.760107
 30
0.0
 10
22.987708
 20
8.804122
 30
0.0
 10
22.974157
 20
8.890846
 30
0.0
 10
22.874954
 20
8.986360
 30
0.0
 10
22.788041
 20
9.009846
 30
0.0
 10
22.743795
 20
9.009803
 30
0.0
 10
22.742701
 20
9.009803
 30
0.0
 10
22.741972
 20
9.009803
 30
0.0
 10
22.741608
 20
9.009803
 30
0.0
 11
22.994585
 21
8.760107
 31
0.0
 11
22.960493
 21
8.886133
 31
0.0
 11
22.870914
 21
8.975712
 31
0.0
 11
22.744889
 21
9.009803
 31
0.0
 11
22.743795
 21
9.009803
 31
0.0
 11
22.742701
 21
9.009803
 31
0.0
 11
22.741608
 21
9.009803
 31
0.0
  0
LWPOLYLINE
  5
134
100
AcDbEntity
  8
S_253
 62
7
100
AcDbPolyline
 90
2
 70
1
 10
22.741608
 20
9.009803
 30
0.0
 10
17.247200
 20
9.009803
 30
0.0
  0
SPLINE
  5
135
100
AcDbEntity
  8
S_253
 62
7
100
AcDbSpline
 70
0
 71
3
 72
10
 73
6
 74
4
 40
0.000000
 40
0.000000
 40
0.000000
 40
0.000000
 40
0.130556
 40
0.257260
 40
0.387887
 40
0.387887
 40
0.387887
 40
0.387887
 10
17.247200
 20
9.009803
 30
0.0
 10
17.203446
 20
9.002935
 30
0.0
 10
17.117229
 20
8.989400
 30
0.0
 10
17.017892
 20
8.890020
 30
0.0
 10
17.004368
 20
8.803779
 30
0.0
 10
16.997504
 20
8.760001
 30
0.0
 11
17.247200
 21
9.009803
 31
0.0
 11
17.121174
 21
8.975708
 31
0.0
 11
17.031595
 21
8.886101
 31
0.0
 11
16.997504
 21
8.760001
 31
0.0
  0
LWPOLYLINE
  5
136
100
AcDbEntity
  8
S_253
 62
7
100
AcDbPolyline
 90
2
 70
1
 10
16.997504
 20
8.760001
 30
0.0
 10
16.997504
 20
6.211006
 30
0.0
  0
SPLINE
  5
137
100
AcDbEntity
  8
S_253
 62
7
100
AcDbSpline
 70
0
 71
3
 72
10
 73
6
 74
4
 40
0.000000
 40
0.000000
 40
0.000000
 40
0.000000
 40
0.078274
 40
0.154191
 40
0.232463
 40
0.232463
 40
0.232463
 40
0.232463
 10
16.997504
 20
6.211006
 30
0.0
 10
17.001610
 20
6.184773
 30
0.0
 10
17.009698
 20
6.133097
 30
0.0
 10
17.069204
 20
6.073506
 30
0.0
 10
17.120883
 20
6.065401
 30
0.0
 10
17.147117
 20
6.061287
 30
0.0
 11
16.997504
 21
6.211006
 31
0.0
 11
17.017909
 21
6.135438
 31
0.0
 11
17.071561
 21
6.081727
 31
0.0
 11
17.147117
 21
6.061287
 31
0.0
  0
LWPOLYLINE
  5
138
100
AcDbEntity
  8
S_253
 62
7
100
AcDbPolyline
 90
4
 70
1
 10
17.147117
 20
6.061287
 30
0.0
 10
18.921801
 20
6.061287
 30
0.0
 10
18.921801
 20
5.161209
 30
0.0
 10
18.920707
 20
5.161703
 30
0.0
  0
SPLINE
  5
139
100
AcDbEntity
  8
S_253
 62
7
100
AcDbSpline
 70
0
 71
3
 72
10
 73
6
 74
4
 40
0.000000
 40
0.000000
 40
0.000000
 40
0.000000
 40
0.078224
 40
0.154153
 40
0.232448
 40
0.232448
 40
0.232448
 40
0.232448
 10
18.920707
 20
5.161703
 30
0.0
 10
18.916590
 20
5.135487
 30
0.0
 10
18.908478
 20
5.083825
 30
0.0
 10
18.848914
 20
5.024304
 30
0.0
 10
18.797228
 20
5.016203
 30
0.0
 10
18.770988
 20
5.012090
 30
0.0
 11
18.920707
 21
5.161703
 31
0.0
 11
18.900275
 21
5.086195
 31
0.0
 11
18.846571
 21
5.032519
 31
0.0
 11
18.770988
 21
5.012090
 31
0.0
  0
LWPOLYLINE
  5
13a
100
AcDbEntity
  8
S_253
 62
7
100
AcDbPolyline
 90
4
 70
1
 10
18.770988
 20
5.012090
 30
0.0
 10
18.771588
 20
5.010997
 30
0.0
 10
16.248592
 20
5.010997
 30
0.0
 10
16.248098
 20
5.012090
 30
0.0
  0
SPLINE
  5
13b
100
AcDbEntity
  8
S_253
 62
7
100
AcDbSpline
 70
0
 71
3
 72
10
 73
6
 74
4
 40
0.000000
 40
0.000000
 40
0.000000
 40
0.000000
 40
0.130628
 40
0.257351
 40
0.387979
 40
0.387979
 40
0.387979
 40
0.387979
 10
16.248098
 20
5.012090
 30
0.0
 10
16.204319
 20
5.018955
 30
0.0
 10
16.118069
 20
5.032481
 30
0.0
 10
16.018686
 20
5.131864
 30
0.0
 10
16.005161
 20
5.218113
 30
0.0
 10
15.998296
 20
5.261892
 30
0.0
 11
16.248098
 21
5.012090
 31
0.0
 11
16.121998
 21
5.046186
 31
0.0
 11
16.032391
 21
5.135792
 31
0.0
 11
15.998296
 21
5.261892
 31
0.0
  0
LWPOLYLINE
  5
13c
100
AcDbEntity
  8
S_253
 62
7
100
AcDbPolyline
 90
2
 70
1
 10
15.998296
 20
5.261892
 30
0.0
 10
15.998296
 20
11.083784
 30
0.0
  0
SPLINE
  5
13d
100
AcDbEntity
  8
S_253
 62
7
100
AcDbSpline
 70
0
 71
3
 72
10
 73
6
 74
4
 40
0.000000
 40
0.000000
 40
0.000000
 40
0.000000
 40
0.078295
 40
0.154224
 40
0.232448
 40
0.232448
 40
0.232448
 40
0.232448
 10
15.998296
 20
11.083784
 30
0.0
 10
16.002409
 20
11.110024
 30
0.0
 10
16.010510
 20
11.161710
 30
0.0
 10
16.070031
 20
11.221274
 30
0.0
 10
16.121693
 20
11.229386
 30
0.0
 10
16.147909
 20
11.233503
 30
0.0
 11
15.998296
 21
11.083784
 31
0.0
 11
16.018724
 21
11.159367
 31
0.0
 11
16.072400
 21
11.213070
 31
0.0
 11
16.147909
 21
11.233503
 31
0.0
  0
LWPOLYLINE
  5
13e
100
AcDbEntity
  8
S_253
 62
7
100
AcDbPolyline
 90
3
 70
1
 10
16.147909
 20
11.233503
 30
0.0
 10
17.047492
 20
11.233503
 30
0.0
 10
17.047492
 20
10.159682
 30
0.0
  0
SPLINE
  5
13f
100
AcDbEntity
  8
S_253
 62
7
100
AcDbSpline
 70
0
 71
3
 72
10
 73
6
 74
4
 40
0.000000
 40
0.000000
 40
0.000000
 40
0.000000
 40
0.078200
 40
0.154122
 40
0.232417
 40
0.232417
 40
0.232417
 40
0.232417
 10
17.047492
 20
10.159682
 30
0.0
 10
17.051610
 20
10.133475
 30
0.0
 10
17.059725
 20
10.081823
 30
0.0
 10
17.119289
 20
10.022318
 30
0.0
 10
17.170972
 20
10.014217
 30
0.0
 10
17.197211
 20
10.010105
 30
0.0
 11
17.047492
 21
10.159682
 31
0.0
 11
17.067925
 21
10.084199
 31
0.0
 11
17.121628
 21
10.030532
 31
0.0
 11
17.197211
 21
10.010105
 31
0.0
  0
LWPOLYLINE
  5
140
100
AcDbEntity
  8
S_253
 62
7
100
AcDbPolyline
 90
3
 70
1
 10
17.197211
 20
10.010105
 30
0.0
 10
17.197705
 20
10.009011
 30
0.0
 10
18.946213
 20
10.009011
 30
0.0
  0
SPLINE
  5
141
100
AcDbEntity
  8
S_253
 62
7
100
AcDbSpline
 70
0
 71
3
 72
10
 73
6
 74
4
 40
0.000000
 40
0.000000
 40
0.000000
 40
0.000000
 40
0.261548
 40
0.515289
 40
0.776784
 40
0.776784
 40
0.776784
 40
0.776784
 10
18.946213
 20
10.009011
 30
0.0
 10
19.033866
 20
10.022761
 30
0.0
 10
19.206557
 20
10.049850
 30
0.0
 10
19.405560
 20
10.248799
 30
0.0
 10
19.432662
 20
10.421473
 30
0.0
 10
19.446416
 20
10.509109
 30
0.0
 11
18.946213
 21
10.009011
 31
0.0
 11
19.198693
 21
10.077283
 31
0.0
 11
19.378133
 21
10.256687
 31
0.0
 11
19.446416
 21
10.509109
 31
0.0
  0
LWPOLYLINE
  5
142
100
AcDbEntity
  8
S_253
 62
7
100
AcDbPolyline
 90
2
 70
1
 10
19.446416
 20
10.509109
 30
0.0
 10
19.446416
 20
14.125998
 30
0.0
  0
SPLINE
  5
143
100
AcDbEntity
  8
S_253
 62
7
100
AcDbSpline
 70
0
 71
3
 72
10
 73
6
 74
4
 40
0.000000
 40
0.000000
 40
0.000000
 40
0.000000
 40
0.232153
 40
0.458770
 40
0.691044
 40
0.691044
 40
0.691044
 40
0.691044
 10
19.446416
 20
14.125998
 30
0.0
 10
19.435593
 20
14.203675
 30
0.0
 10
19.414204
 20
14.357177
 30
0.0
 10
19.256087
 20
14.545955
 30
0.0
 10
19.108694
 20
14.593987
 30
0.0
 10
19.034090
 20
14.618300
 30
0.0
 11
19.446416
 21
14.125998
 31
0.0
 11
19.392543
 21
14.351814
 31
0.0
 11
19.247042
 21
14.525552
 31
0.0
 11
19.034090
 21
14.618300
 31
0.0
  0
LWPOLYLINE
  5
144
100
AcDbEntity
  8
S_253
 62
7
100
AcDbPolyline
 90
2
 70
1
 10
19.034090
 20
14.618300
 30
0.0
 10
19.033702
 20
14.617594
 30
0.0
  0
SPLINE
  5
145
100
AcDbEntity
  8
S_253
 62
7
100
AcDbSpline
 70
0
 71
3
 72
10
 73
6
 74
4
 40
0.000000
 40
0.000000
 40
0.000000
 40
0.000000
 40
0.573619
 40
1.146438
 40
1.720065
 40
1.720065
 40
1.720065
 40
1.720065
 10
19.033702
 20
14.617594
 30
0.0
 10
18.846509
 20
14.657119
 30
0.0
 10
18.472385
 20
14.736112
 30
0.0
 10
17.928733
 20
14.924755
 30
0.0
 10
17.586054
 20
15.094403
 30
0.0
 10
17.414593
 20
15.179287
 30
0.0
 11
19.033702
 21
14.617594
 31
0.0
 11
18.475072
 21
14.747868
 31
0.0
 11
17.933900
 21
14.935630
 31
0.0
 11
17.414593
 21
15.179287
 31
0.0
  0
LWPOLYLINE
  5
146
100
AcDbEntity
  8
S_253
 62
7
100
AcDbPolyline
 90
2
 70
1
 10
17.414593
 20
15.179287
 30
0.0
 10
17.415087
 20
15.178793
 30
0.0
  0
SPLINE
  5
147
100
AcDbEntity
  8
S_253
 62
7
100
AcDbSpline
 70
0
 71
3
 72
13
 73
9
 74
7
 40
0.000000
 40
0.000000
 40
0.000000
 40
0.000000
 40
0.085804
 40
0.170411
 40
0.256290
 40
0.342092
 40
0.426741
 40
0.512585
 40
0.512585
 40
0.512585
 40
0.512585
 10
17.415087
 20
15.178793
 30
0.0
 10
17.388384
 20
15.189826
 30
0.0
 10
17.335350
 20
15.211739
 30
0.0
 10
17.247521
 20
15.208070
 30
0.0
 10
17.166279
 20
15.177197
 30
0.0
 10
17.100711
 20
15.120112
 30
0.0
 10
17.056133
 20
15.044355
 30
0.0
 10
17.050386
 20
14.987241
 30
0.0
 10
17.047492
 20
14.958483
 30
0.0
 11
17.415087
 21
15.178793
 31
0.0
 11
17.333617
 21
15.205719
 31
0.0
 11
17.249035
 21
15.203631
 31
0.0
 11
17.168883
 21
15.172796
 31
0.0
 11
17.103952
 21
15.116708
 31
0.0
 11
17.062234
 21
15.043052
 31
0.0
 11
17.047492
 21
14.958483
 31
0.0
  0
LWPOLYLINE
  5
148
100
AcDbEntity
  8
S_253
 62
7
100
AcDbPolyline
 90
4
 70
1
 10
17.047492
 20
14.958483
 30
0.0
 10
17.047492
 20
13.381990
 30
0.0
 10
16.148509
 20
13.381990
 30
0.0
 10
16.147909
 20
13.383084
 30
0.0
  0
SPLINE
  5
149
100
AcDbEntity
  8
S_253
 62
7
100
AcDbSpline
 70
0
 71
3
 72
10
 73
6
 74
4
 40
0.000000
 40
0.000000
 40
0.000000
 40
0.000000
 40
0.078225
 40
0.154140
 40
0.232348
 40
0.232348
 40
0.232348
 40
0.232348
 10
16.147909
 20
13.383084
 30
0.0
 10
16.121694
 20
13.387203
 30
0.0
 10
16.070038
 20
13.395319
 30
0.0
 10
16.010529
 20
13.454839
 30
0.0
 10
16.002414
 20
13.506488
 30
0.0
 10
15.998296
 20
13.532697
 30
0.0
 11
16.147909
 21
13.383084
 31
0.0
 11
16.072400
 21
13.403520
 31
0.0
 11
16.018724
 21
13.457204
 31
0.0
 11
15.998296
 21
13.532697
 31
0.0
  0
LWPOLYLINE
  5
14a
100
AcDbEntity
  8
S_253
 62
7
100
AcDbPolyline
 90
2
 70
1
 10
15.998296
 20
13.532697
 30
0.0
 10
15.998296
 20
18.265105
 30
0.0
  0
SPLINE
  5
14b
100
AcDbEntity
  8
S_253
 62
7
100
AcDbSpline
 70
0
 71
3
 72
13
 73
9
 74
7
 40
0.000000
 40
0.000000
 40
0.000000
 40
0.000000
 40
0.067720
 40
0.133905
 40
0.201634
 40
0.269394
 40
0.335542
 40
0.403217
 40
0.403217
 40
0.403217
 40
0.403217
 10
15.998296
 20
18.265105
 30
0.0
 10
16.001347
 20
18.287873
 30
0.0
 10
16.007379
 20
18.332892
 30
0.0
 10
16.052718
 20
18.386923
 30
0.0
 10
16.115285
 20
18.416756
 30
0.0
 10
16.184573
 20
18.415352
 30
0.0
 10
16.248137
 20
18.384815
 30
0.0
 10
16.272150
 20
18.346288
 30
0.0
 10
16.284293
 20
18.326806
 30
0.0
 11
15.998296
 21
18.265105
 31
0.0
 11
16.013606
 21
18.331072
 31
0.0
 11
16.055164
 21
18.382582
 31
0.0
 11
16.116406
 21
18.411507
 31
0.0
 11
16.184156
 21
18.410385
 31
0.0
 11
16.243212
 21
18.380586
 31
0.0
 11
16.284293
 21
18.326806
 31
0.0
  0
LWPOLYLINE
  5
14c
100
AcDbEntity
  8
S_253
 62
7
100
AcDbPolyline
 90
2
 70
1
 10
16.284293
 20
18.326806
 30
0.0
 10
16.283693
 20
18.326594
 30
0.0
  0
SPLINE
  5
14d
100
AcDbEntity
  8
S_253
 62
7
100
AcDbSpline
 70
0
 71
3
 72
10
 73
6
 74
4
 40
0.000000
 40
0.000000
 40
0.000000
 40
0.000000
 40
2.106089
 40
4.150947
 40
6.257077
 40
6.257077
 40
6.257077
 40
6.257077
 10
16.283693
 20
18.326594
 30
0.0
 10
16.674174
 20
17.728668
 30
0.0
 10
17.443784
 20
16.550199
 30
0.0
 10
19.553754
 20
15.732699
 30
0.0
 10
20.916470
 20
16.085030
 30
0.0
 10
21.607886
 20
16.263796
 30
0.0
 11
16.283693
 21
18.326594
 31
0.0
 11
17.617355
 21
16.696576
 31
0.0
 11
19.524101
 21
15.957817
 31
0.0
 11
21.607886
 21
16.263796
 31
0.0
  0
LWPOLYLINE
  5
14e
100
AcDbEntity
  8
S_253
 62
7
100
AcDbPolyline
 90
2
 70
1
 10
21.607886
 20
16.263796
 30
0.0
 10
21.607886
 20
16.264290
 30
0.0
  0
LWPOLYLINE
  5
14f
100
AcDbEntity
  8
S_253
 62
7
100
AcDbPolyline
 90
4
 70
1
 10
21.654488
 20
16.507601
 30
0.0
 10
21.655899
 20
16.507883
 30
0.0
 10
20.475998
 20
17.686690
 30
0.0
 10
20.475998
 20
17.686690
 30
0.0
  0
SPLINE
  5
150
100
AcDbEntity
  8
S_253
 62
7
100
AcDbSpline
 70
0
 71
3
 72
13
 73
9
 74
7
 40
0.000000
 40
0.000000
 40
0.000000
 40
0.000000
 40
0.048658
 40
0.096659
 40
0.145289
 40
0.193877
 40
0.241848
 40
0.290435
 40
0.290435
 40
0.290435
 40
0.290435
 10
21.607886
 20
16.264290
 30
0.0
 10
21.622230
 20
16.272168
 30
0.0
 10
21.650723
 20
16.287817
 30
0.0
 10
21.681198
 20
16.327065
 30
0.0
 10
21.698236
 20
16.373164
 30
0.0
 10
21.699426
 20
16.422293
 30
0.0
 10
21.685554
 20
16.469955
 30
0.0
 10
21.664887
 20
16.494999
 30
0.0
 10
21.654488
 20
16.507601
 30
0.0
 11
21.607886
 21
16.264290
 31
0.0
 11
21.648834
 21
16.290575
 31
0.0
 11
21.678862
 21
16.328023
 31
0.0
 11
21.695586
 21
16.373687
 31
0.0
 11
21.696894
 21
16.422258
 31
0.0
 11
21.682790
 21
16.468108
 31
0.0
 11
21.654488
 21
16.507601
 31
0.0
  0
LWPOLYLINE
  5
151
100
AcDbEntity
  8
S_253
 62
1
100
AcDbPolyline
 90
4
 70
1
 10
17.000890
 20
33.790184
 30
0.0
 10
17.001984
 20
33.789691
 30
0.0
 10
17.001984
 20
31.241682
 30
0.0
 10
17.000890
 20
31.242212
 30
0.0
  0
SPLINE
  5
152
100
AcDbEntity
  8
S_253
 62
1
100
AcDbSpline
 70
0
 71
3
 72
10
 73
6
 74
4
 40
0.000000
 40
0.000000
 40
0.000000
 40
0.000000
 40
0.130555
 40
0.257239
 40
0.387794
 40
0.387794
 40
0.387794
 40
0.387794
 10
17.000890
 20
31.242212
 30
0.0
 10
17.007759
 20
31.198459
 30
0.0
 10
17.021291
 20
31.112250
 30
0.0
 10
17.120625
 20
31.012917
 30
0.0
 10
17.206834
 20
30.999384
 30
0.0
 10
17.250586
 20
30.992516
 30
0.0
 11
17.000890
 21
31.242212
 31
0.0
 11
17.034982
 21
31.116186
 31
0.0
 11
17.124561
 21
31.026607
 31
0.0
 11
17.250586
 21
30.992516
 31
0.0
  0
LWPOLYLINE
  5
153
100
AcDbEntity
  8
S_253
 62
1
100
AcDbPolyline
 90
4
 70
1
 10
17.250586
 20
30.992516
 30
0.0
 10
17.251186
 20
30.991387
 30
0.0
 10
22.748804
 20
30.991387
 30
0.0
 10
22.748205
 20
30.992516
 30
0.0
  0
SPLINE
  5
154
100
AcDbEntity
  8
S_253
 62
1
100
AcDbSpline
 70
0
 71
3
 72
10
 73
6
 74
4
 40
0.000000
 40
0.000000
 40
0.000000
 40
0.000000
 40
0.130627
 40
0.257331
 40
0.387887
 40
0.387887
 40
0.387887
 40
0.387887
 10
22.748205
 20
30.992516
 30
0.0
 10
22.791982
 20
30.999380
 30
0.0
 10
22.878223
 20
31.012904
 30
0.0
 10
22.977604
 20
31.112241
 30
0.0
 10
22.991138
 20
31.198458
 30
0.0
 10
22.998007
 20
31.242212
 30
0.0
 11
22.748205
 21
30.992516
 31
0.0
 11
22.874304
 21
31.026607
 31
0.0
 11
22.963911
 21
31.116186
 31
0.0
 11
22.998007
 21
31.242212
 31
0.0
  0
LWPOLYLINE
  5
155
100
AcDbEntity
  8
S_253
 62
1
100
AcDbPolyline
 90
3
 70
1
 10
22.998007
 20
31.242212
 30
0.0
 10
22.998007
 20
31.241682
 30
0.0
 10
22.998007
 20
33.790184
 30
0.0
  0
SPLINE
  5
156
100
AcDbEntity
  8
S_253
 62
1
100
AcDbSpline
 70
0
 71
3
 72
10
 73
6
 74
4
 40
0.000000
 40
0.000000
 40
0.000000
 40
0.000000
 40
0.078296
 40
0.154244
 40
0.232541
 40
0.232541
 40
0.232541
 40
0.232541
 10
22.998007
 20
33.790184
 30
0.0
 10
22.993894
 20
33.816425
 30
0.0
 10
22.985791
 20
33.868120
 30
0.0
 10
22.926223
 20
33.927687
 30
0.0
 10
22.874529
 20
33.935790
 30
0.0
 10
22.848288
 20
33.939903
 30
0.0
 11
22.998007
 21
33.790184
 31
0.0
 11
22.977574
 21
33.865768
 31
0.0
 11
22.923871
 21
33.919471
 31
0.0
 11
22.848288
 21
33.939903
 31
0.0
  0
LWPOLYLINE
  5
157
100
AcDbEntity
  8
S_253
 62
1
100
AcDbPolyline
 90
4
 70
1
 10
22.848288
 20
33.939903
 30
0.0
 10
21.074803
 20
33.939903
 30
0.0
 10
21.074803
 20
34.840016
 30
0.0
 10
21.073710
 20
34.840510
 30
0.0
  0
SPLINE
  5
158
100
AcDbEntity
  8
S_253
 62
1
100
AcDbSpline
 70
0
 71
3
 72
10
 73
6
 74
4
 40
0.000000
 40
0.000000
 40
0.000000
 40
0.000000
 40
0.078271
 40
0.154187
 40
0.232387
 40
0.232387
 40
0.232387
 40
0.232387
 10
21.073710
 20
34.840510
 30
0.0
 10
21.077824
 20
34.866741
 30
0.0
 10
21.085927
 20
34.918413
 30
0.0
 10
21.145432
 20
34.977961
 30
0.0
 10
21.197080
 20
34.986076
 30
0.0
 10
21.223287
 20
34.990193
 30
0.0
 11
21.073710
 21
34.840510
 31
0.0
 11
21.094137
 21
34.916068
 31
0.0
 11
21.147804
 21
34.969762
 31
0.0
 11
21.223287
 21
34.990193
 31
0.0
  0
LWPOLYLINE
  5
159
100
AcDbEntity
  8
S_253
 62
1
100
AcDbPolyline
 90
4
 70
1
 10
21.223287
 20
34.990193
 30
0.0
 10
21.223993
 20
34.989100
 30
0.0
 10
23.748012
 20
34.989100
 30
0.0
 10
23.747412
 20
34.990193
 30
0.0
  0
SPLINE
  5
15a
100
AcDbEntity
  8
S_253
 62
1
100
AcDbSpline
 70
0
 71
3
 72
10
 73
6
 74
4
 40
0.000000
 40
0.000000
 40
0.000000
 40
0.000000
 40
0.130613
 40
0.257342
 40
0.387971
 40
0.387971
 40
0.387971
 40
0.387971
 10
23.747412
 20
34.990193
 30
0.0
 10
23.791186
 20
34.983327
 30
0.0
 10
23.877430
 20
34.969797
 30
0.0
 10
23.976816
 20
34.870422
 30
0.0
 10
23.990346
 20
34.784171
 30
0.0
 10
23.997214
 20
34.740391
 30
0.0
 11
23.747412
 21
34.990193
 31
0.0
 11
23.873497
 21
34.956098
 31
0.0
 11
23.963111
 21
34.866491
 31
0.0
 11
23.997214
 21
34.740391
 31
0.0
  0
LWPOLYLINE
  5
15b
100
AcDbEntity
  8
S_253
 62
1
100
AcDbPolyline
 90
4
 70
1
 10
23.997214
 20
34.740391
 30
0.0
 10
23.998308
 20
34.739897
 30
0.0
 10
23.998308
 20
28.917900
 30
0.0
 10
23.997214
 20
28.918394
 30
0.0
  0
SPLINE
  5
15c
100
AcDbEntity
  8
S_253
 62
1
100
AcDbSpline
 70
0
 71
3
 72
10
 73
6
 74
4
 40
0.000000
 40
0.000000
 40
0.000000
 40
0.000000
 40
0.078203
 40
0.154130
 40
0.232410
 40
0.232410
 40
0.232410
 40
0.232410
 10
23.997214
 20
28.918394
 30
0.0
 10
23.993094
 20
28.892186
 30
0.0
 10
23.984973
 20
28.840533
 30
0.0
 10
23.925407
 20
28.781035
 30
0.0
 10
23.873729
 20
28.772930
 30
0.0
 10
23.847496
 20
28.768816
 30
0.0
 11
23.997214
 21
28.918394
 31
0.0
 11
23.976774
 21
28.842910
 31
0.0
 11
23.923063
 21
28.789243
 31
0.0
 11
23.847496
 21
28.768816
 31
0.0
  0
LWPOLYLINE
  5
15d
100
AcDbEntity
  8
S_253
 62
1
100
AcDbPolyline
 90
5
 70
1
 10
23.847496
 20
28.768816
 30
0.0
 10
23.848095
 20
28.767687
 30
0.0
 10
22.949112
 20
28.767687
 30
0.0
 10
22.949112
 20
29.842001
 30
0.0
 10
22.947983
 20
29.842601
 30
0.0
  0
SPLINE
  5
15e
100
AcDbEntity
  8
S_253
 62
1
100
AcDbSpline
 70
0
 71
3
 72
10
 73
6
 74
4
 40
0.000000
 40
0.000000
 40
0.000000
 40
0.000000
 40
0.077496
 40
0.152679
 40
0.230014
 40
0.230014
 40
0.230014
 40
0.230014
 10
22.947983
 20
29.842601
 30
0.0
 10
22.943945
 20
29.868569
 30
0.0
 10
22.935989
 20
29.919728
 30
0.0
 10
22.877612
 20
29.978999
 30
0.0
 10
22.826646
 20
29.987768
 30
0.0
 10
22.800804
 20
29.992214
 30
0.0
 11
22.947983
 21
29.842601
 31
0.0
 11
22.927935
 21
29.917459
 31
0.0
 11
22.875180
 21
29.971025
 31
0.0
 11
22.800804
 21
29.992214
 31
0.0
  0
LWPOLYLINE
  5
15f
100
AcDbEntity
  8
S_253
 62
1
100
AcDbPolyline
 90
3
 70
1
 10
22.800804
 20
29.992214
 30
0.0
 10
21.049791
 20
29.992214
 30
0.0
 10
21.049192
 20
29.993308
 30
0.0
  0
SPLINE
  5
160
100
AcDbEntity
  8
S_253
 62
1
100
AcDbSpline
 70
0
 71
3
 72
10
 73
6
 74
4
 40
0.000000
 40
0.000000
 40
0.000000
 40
0.000000
 40
0.261479
 40
0.515226
 40
0.776776
 40
0.776776
 40
0.776776
 40
0.776776
 10
21.049192
 20
29.993308
 30
0.0
 10
20.961561
 20
29.979551
 30
0.0
 10
20.788893
 20
29.952445
 30
0.0
 10
20.589942
 20
29.753451
 30
0.0
 10
20.562847
 20
29.580758
 30
0.0
 10
20.549094
 20
29.493104
 30
0.0
 11
21.049192
 21
29.993308
 31
0.0
 11
20.796786
 21
29.925024
 31
0.0
 11
20.617373
 21
29.745585
 31
0.0
 11
20.549094
 21
29.493104
 31
0.0
  0
LWPOLYLINE
  5
161
100
AcDbEntity
  8
S_253
 62
1
100
AcDbPolyline
 90
4
 70
1
 10
20.549094
 20
29.493104
 30
0.0
 10
20.550187
 20
29.492610
 30
0.0
 10
20.550187
 20
24.010302
 30
0.0
 10
20.549094
 20
24.010796
 30
0.0
  0
SPLINE
  5
162
100
AcDbEntity
  8
S_253
 62
1
100
AcDbSpline
 70
0
 71
3
 72
10
 73
6
 74
4
 40
0.000000
 40
0.000000
 40
0.000000
 40
0.000000
 40
0.219076
 40
0.433361
 40
0.652418
 40
0.652418
 40
0.652418
 40
0.652418
 10
20.549094
 20
24.010796
 30
0.0
 10
20.558712
 20
23.937538
 30
0.0
 10
20.577738
 20
23.792622
 30
0.0
 10
20.718851
 20
23.609867
 30
0.0
 10
20.854244
 20
23.554822
 30
0.0
 10
20.922686
 20
23.526997
 30
0.0
 11
20.549094
 21
24.010796
 31
0.0
 11
20.597040
 21
23.797031
 31
0.0
 11
20.728007
 21
23.627426
 31
0.0
 11
20.922686
 21
23.526997
 31
0.0
  0
LWPOLYLINE
  5
163
100
AcDbEntity
  8
S_253
 62
1
100
AcDbPolyline
 90
2
 70
1
 10
20.922686
 20
23.526997
 30
0.0
 10
20.921486
 20
23.526997
 30
0.0
  0
SPLINE
  5
164
100
AcDbEntity
  8
S_253
 62
1
100
AcDbSpline
 70
0
 71
3
 72
16
 73
12
 74
10
 40
0.000000
 40
0.000000
 40
0.000000
 40
0.000000
 40
0.196200
 40
0.392373
 40
0.588618
 40
0.590267
 40
0.591923
 40
0.593573
 40
0.693770
 40
0.792072
 40
0.892237
 40
0.892237
 40
0.892237
 40
0.892237
 10
20.921486
 20
23.526997
 30
0.0
 10
20.984541
 20
23.509542
 30
0.0
 10
21.110642
 20
23.474634
 30
0.0
 10
21.295390
 20
23.408402
 30
0.0
 10
21.418015
 20
23.360813
 30
0.0
 10
21.478110
 20
23.332297
 30
0.0
 10
21.479605
 20
23.331596
 30
0.0
 10
21.510755
 20
23.316762
 30
0.0
 10
21.578090
 20
23.303263
 30
0.0
 10
21.679920
 20
23.319918
 30
0.0
 10
21.732603
 20
23.361509
 30
0.0
 10
21.759192
 20
23.382499
 30
0.0
 11
20.921486
 21
23.526997
 31
0.0
 11
21.109914
 21
23.472320
 31
0.0
 11
21.295104
 21
23.407601
 31
0.0
 11
21.476617
 21
23.333004
 31
0.0
 11
21.478108
 21
23.332299
 31
0.0
 11
21.479607
 21
23.331593
 31
0.0
 11
21.481097
 21
23.330888
 31
0.0
 11
21.578957
 21
23.309367
 31
0.0
 11
21.675609
 21
23.327303
 31
0.0
 11
21.759192
 21
23.382499
 31
0.0
  0
LWPOLYLINE
  5
165
100
AcDbEntity
  8
S_253
 62
1
100
AcDbPolyline
 90
4
 70
1
 10
21.759192
 20
23.382499
 30
0.0
 10
21.759404
 20
23.382287
 30
0.0
 10
22.802109
 20
24.424993
 30
0.0
 10
22.801509
 20
24.424605
 30
0.0
  0
SPLINE
  5
166
100
AcDbEntity
  8
S_253
 62
1
100
AcDbSpline
 70
0
 71
3
 72
10
 73
6
 74
4
 40
0.000000
 40
0.000000
 40
0.000000
 40
0.000000
 40
0.130868
 40
0.260665
 40
0.391534
 40
0.391534
 40
0.391534
 40
0.391534
 10
22.801509
 20
24.424605
 30
0.0
 10
22.829971
 20
24.457887
 30
0.0
 10
22.886660
 20
24.524178
 30
0.0
 10
22.937732
 20
24.647474
 30
0.0
 10
22.944556
 20
24.734431
 30
0.0
 10
22.947983
 20
24.778088
 30
0.0
 11
22.801509
 21
24.424605
 31
0.0
 11
22.881175
 21
24.528431
 31
0.0
 11
22.930853
 21
24.648344
 31
0.0
 11
22.947983
 21
24.778088
 31
0.0
  0
LWPOLYLINE
  5
167
100
AcDbEntity
  8
S_253
 62
1
100
AcDbPolyline
 90
5
 70
1
 10
22.947983
 20
24.778088
 30
0.0
 10
22.949112
 20
24.777594
 30
0.0
 10
22.949112
 20
26.618106
 30
0.0
 10
23.848095
 20
26.618106
 30
0.0
 10
23.847496
 20
26.619200
 30
0.0
  0
SPLINE
  5
168
100
AcDbEntity
  8
S_253
 62
1
100
AcDbSpline
 70
0
 71
3
 72
10
 73
6
 74
4
 40
0.000000
 40
0.000000
 40
0.000000
 40
0.000000
 40
0.078244
 40
0.154172
 40
0.232448
 40
0.232448
 40
0.232448
 40
0.232448
 10
23.847496
 20
26.619200
 30
0.0
 10
23.873717
 20
26.615091
 30
0.0
 10
23.925383
 20
26.606994
 30
0.0
 10
23.984978
 20
26.547504
 30
0.0
 10
23.993094
 20
26.495822
 30
0.0
 10
23.997214
 20
26.469587
 30
0.0
 11
23.847496
 21
26.619200
 31
0.0
 11
23.923032
 21
26.598795
 31
0.0
 11
23.976759
 21
26.545143
 31
0.0
 11
23.997214
 21
26.469587
 31
0.0
  0
LWPOLYLINE
  5
169
100
AcDbEntity
  8
S_253
 62
1
100
AcDbPolyline
 90
4
 70
1
 10
23.997214
 20
26.469587
 30
0.0
 10
23.998308
 20
26.468987
 30
0.0
 10
23.998308
 20
24.169194
 30
0.0
 10
23.997214
 20
24.169688
 30
0.0
  0
SPLINE
  5
16a
100
AcDbEntity
  8
S_253
 62
1
100
AcDbSpline
 70
0
 71
3
 72
10
 73
6
 74
4
 40
0.000000
 40
0.000000
 40
0.000000
 40
0.000000
 40
0.065336
 40
0.130173
 40
0.195612
 40
0.195612
 40
0.195612
 40
0.195612
 10
23.997214
 20
24.169688
 30
0.0
 10
23.995502
 20
24.147892
 30
0.0
 10
23.992090
 20
24.104466
 30
0.0
 10
23.966551
 20
24.042880
 30
0.0
 10
23.938236
 20
24.009735
 30
0.0
 10
23.924013
 20
23.993087
 30
0.0
 11
23.997214
 21
24.169688
 31
0.0
 11
23.988655
 21
24.104915
 31
0.0
 11
23.963829
 21
24.045018
 31
0.0
 11
23.924013
 21
23.993087
 31
0.0
  0
LWPOLYLINE
  5
16b
100
AcDbEntity
  8
S_253
 62
1
100
AcDbPolyline
 90
4
 70
1
 10
23.924013
 20
23.993087
 30
0.0
 10
23.925389
 20
23.992911
 30
0.0
 10
21.719187
 20
21.786709
 30
0.0
 10
21.717811
 20
21.786885
 30
0.0
  0
SPLINE
  5
16c
100
AcDbEntity
  8
S_253
 62
1
100
AcDbSpline
 70
0
 71
3
 72
10
 73
6
 74
4
 40
0.000000
 40
0.000000
 40
0.000000
 40
0.000000
 40
0.120638
 40
0.238125
 40
0.358723
 40
0.358723
 40
0.358723
 40
0.358723
 10
21.717811
 20
21.786885
 30
0.0
 10
21.685112
 20
21.762479
 30
0.0
 10
21.620567
 20
21.714305
 30
0.0
 10
21.492321
 20
21.706549
 30
0.0
 10
21.422490
 20
21.746667
 30
0.0
 10
21.387117
 20
21.766989
 30
0.0
 11
21.717811
 21
21.786885
 31
0.0
 11
21.614429
 21
21.724710
 31
0.0
 11
21.497155
 21
21.717639
 31
0.0
 11
21.387117
 21
21.766989
 31
0.0
  0
LWPOLYLINE
  5
16d
100
AcDbEntity
  8
S_253
 62
1
100
AcDbPolyline
 90
2
 70
1
 10
21.387117
 20
21.766989
 30
0.0
 10
21.386800
 20
21.767800
 30
0.0
  0
SPLINE
  5
16e
100
AcDbEntity
  8
S_253
 62
1
100
AcDbSpline
 70
0
 71
3
 72
16
 73
12
 74
10
 40
0.000000
 40
0.000000
 40
0.000000
 40
0.000000
 40
0.960344
 40
1.900712
 40
2.860992
 40
3.821404
 40
4.761810
 40
5.722182
 40
6.682464
 40
7.622834
 40
8.583156
 40
8.583156
 40
8.583156
 40
8.583156
 10
21.386800
 20
21.767800
 30
0.0
 10
21.107907
 20
21.934881
 30
0.0
 10
20.555923
 20
22.265568
 30
0.0
 10
19.559601
 20
22.270807
 30
0.0
 10
18.658142
 20
21.891385
 30
0.0
 10
17.994569
 20
21.162828
 30
0.0
 10
17.692207
 20
20.229208
 30
0.0
 10
17.802702
 20
19.249985
 30
0.0
 10
18.310519
 20
18.414116
 30
0.0
 10
19.120706
 20
17.834235
 30
0.0
 10
19.761735
 20
17.778471
 30
0.0
 10
20.085614
 20
17.750296
 30
0.0
 11
21.386800
 21
21.767800
 31
0.0
 11
20.522059
 21
22.185514
 31
0.0
 11
19.581965
 21
22.208218
 31
0.0
 11
18.698104
 21
21.832817
 31
0.0
 11
18.051195
 21
21.122959
 31
0.0
 11
17.761453
 21
20.228300
 31
0.0
 11
17.869394
 21
19.274014
 31
0.0
 11
18.365332
 21
18.451707
 31
0.0
 11
19.140214
 21
17.918929
 31
0.0
 11
20.085614
 21
17.750296
 31
0.0
  0
LWPOLYLINE
  5
16f
100
AcDbEntity
  8
S_253
 62
1
100
AcDbPolyline
 90
2
 70
1
 10
20.085614
 20
17.750296
 30
0.0
 10
20.086285
 20
17.750508
 30
0.0
  0
SPLINE
  5
170
100
AcDbEntity
  8
S_253
 62
1
100
AcDbSpline
 70
0
 71
3
 72
10
 73
6
 74
4
 40
0.000000
 40
0.000000
 40
0.000000
 40
0.000000
 40
0.137344
 40
0.273452
 40
0.410774
 40
0.410774
 40
0.410774
 40
0.410774
 10
20.086285
 20
17.750508
 30
0.0
 10
20.132216
 20
17.748485
 30
0.0
 10
20.223665
 20
17.744458
 30
0.0
 10
20.354315
 20
17.693298
 30
0.0
 10
20.424139
 20
17.634112
 30
0.0
 10
20.459206
 20
17.604387
 30
0.0
 11
20.086285
 21
17.750508
 31
0.0
 11
20.222950
 21
17.736864
 31
0.0
 11
20.349682
 21
17.687222
 31
0.0
 11
20.459206
 21
17.604387
 31
0.0
  0
LWPOLYLINE
  5
171
100
AcDbEntity
  8
S_253
 62
1
100
AcDbPolyline
 90
4
 70
1
 10
20.459206
 20
17.604387
 30
0.0
 10
20.459912
 20
17.603893
 30
0.0
 10
21.534085
 20
16.529614
 30
0.0
 10
21.532709
 20
16.529403
 30
0.0
  0
SPLINE
  5
172
100
AcDbEntity
  8
S_253
 62
1
100
AcDbSpline
 70
0
 71
3
 72
13
 73
9
 74
7
 40
0.000000
 40
0.000000
 40
0.000000
 40
0.000000
 40
0.049301
 40
0.097968
 40
0.147254
 40
0.196537
 40
0.245171
 40
0.294439
 40
0.294439
 40
0.294439
 40
0.294439
 10
21.532709
 20
16.529403
 30
0.0
 10
21.543257
 20
16.516604
 30
0.0
 10
21.564218
 20
16.491171
 30
0.0
 10
21.577907
 20
16.442675
 30
0.0
 10
21.576234
 20
16.392846
 30
0.0
 10
21.558171
 20
16.346385
 30
0.0
 10
21.526500
 20
16.307220
 30
0.0
 10
21.497236
 20
16.292109
 30
0.0
 10
21.482509
 20
16.284504
 30
0.0
 11
21.532709
 21
16.529403
 31
0.0
 11
21.561352
 21
16.489276
 31
0.0
 11
21.575327
 21
16.442659
 31
0.0
 11
21.573490
 21
16.393407
 31
0.0
 11
21.555798
 21
16.347409
 31
0.0
 11
21.524613
 21
16.310089
 31
0.0
 11
21.482509
 21
16.284504
 31
0.0
  0
LWPOLYLINE
  5
173
100
AcDbEntity
  8
S_253
 62
1
100
AcDbPolyline
 90
2
 70
1
 10
21.482509
 20
16.284504
 30
0.0
 10
21.482085
 20
16.284892
 30
0.0
  0
SPLINE
  5
174
100
AcDbEntity
  8
S_253
 62
1
100
AcDbSpline
 70
0
 71
3
 72
13
 73
9
 74
7
 40
0.000000
 40
0.000000
 40
0.000000
 40
0.000000
 40
1.299689
 40
2.583133
 40
3.882802
 40
5.182559
 40
6.466021
 40
7.765689
 40
7.765689
 40
7.765689
 40
7.765689
 10
21.482085
 20
16.284892
 30
0.0
 10
21.062620
 20
16.161871
 30
0.0
 10
20.228932
 20
15.917366
 30
0.0
 10
18.911278
 20
16.081117
 30
0.0
 10
17.715518
 20
16.626874
 30
0.0
 10
16.765134
 20
17.534867
 30
0.0
 10
16.124160
 20
18.697733
 30
0.0
 10
16.041951
 20
19.562641
 30
0.0
 10
16.000589
 20
19.997808
 30
0.0
 11
21.482085
 21
16.284892
 31
0.0
 11
20.212825
 21
16.005304
 31
0.0
 11
18.936807
 21
16.143170
 31
0.0
 11
17.756611
 21
16.687482
 31
0.0
 11
16.813258
 21
17.581604
 31
0.0
 11
16.211810
 21
18.715419
 31
0.0
 11
16.000589
 21
19.997808
 31
0.0
  0
LWPOLYLINE
  5
175
100
AcDbEntity
  8
S_253
 62
1
100
AcDbPolyline
 90
3
 70
1
 10
16.000589
 20
19.997808
 30
0.0
 10
16.001682
 20
19.997314
 30
0.0
 10
16.001682
 20
26.469516
 30
0.0
  0
SPLINE
  5
176
100
AcDbEntity
  8
S_253
 62
1
100
AcDbSpline
 70
0
 71
3
 72
10
 73
6
 74
4
 40
0.000000
 40
0.000000
 40
0.000000
 40
0.000000
 40
0.078319
 40
0.154230
 40
0.232433
 40
0.232433
 40
0.232433
 40
0.232433
 10
16.001682
 20
26.469516
 30
0.0
 10
16.005794
 20
26.495766
 30
0.0
 10
16.013892
 20
26.547458
 30
0.0
 10
16.073437
 20
26.606992
 30
0.0
 10
16.125087
 20
26.615090
 30
0.0
 10
16.151296
 20
26.619200
 30
0.0
 11
16.001682
 21
26.469516
 31
0.0
 11
16.022119
 21
26.545122
 31
0.0
 11
16.075802
 21
26.598792
 31
0.0
 11
16.151296
 21
26.619200
 31
0.0
  0
LWPOLYLINE
  5
177
100
AcDbEntity
  8
S_253
 62
1
100
AcDbPolyline
 90
4
 70
1
 10
16.151296
 20
26.619200
 30
0.0
 10
16.151895
 20
26.618106
 30
0.0
 10
17.050985
 20
26.618106
 30
0.0
 10
17.050985
 20
22.810294
 30
0.0
  0
SPLINE
  5
178
100
AcDbEntity
  8
S_253
 62
1
100
AcDbSpline
 70
0
 71
3
 72
13
 73
9
 74
7
 40
0.000000
 40
0.000000
 40
0.000000
 40
0.000000
 40
0.097176
 40
0.192626
 40
0.289744
 40
0.386941
 40
0.482434
 40
0.579614
 40
0.579614
 40
0.579614
 40
0.579614
 10
17.050985
 20
22.810294
 30
0.0
 10
17.054712
 20
22.777695
 30
0.0
 10
17.062102
 20
22.713076
 30
0.0
 10
17.118777
 20
22.630504
 30
0.0
 10
17.200171
 20
22.574567
 30
0.0
 10
17.296898
 20
22.554551
 30
0.0
 10
17.395760
 20
22.570781
 30
0.0
 10
17.447558
 20
22.610138
 30
0.0
 10
17.473683
 20
22.629989
 30
0.0
 11
17.050985
 21
22.810294
 31
0.0
 11
17.069877
 21
22.714972
 31
0.0
 11
17.122486
 21
22.635329
 31
0.0
 11
17.202714
 21
22.580600
 31
0.0
 11
17.297825
 21
22.560565
 31
0.0
 11
17.391767
 21
22.577705
 31
0.0
 11
17.473683
 21
22.629989
 31
0.0
  0
LWPOLYLINE
  5
179
100
AcDbEntity
  8
S_253
 62
1
100
AcDbPolyline
 90
2
 70
1
 10
17.473683
 20
22.629989
 30
0.0
 10
17.473507
 20
22.630095
 30
0.0
  0
SPLINE
  5
17a
100
AcDbEntity
  8
S_253
 62
1
100
AcDbSpline
 70
0
 71
3
 72
13
 73
9
 74
7
 40
0.000000
 40
0.000000
 40
0.000000
 40
0.000000
 40
0.618800
 40
1.235412
 40
1.854264
 40
2.073387
 40
2.287689
 40
2.506766
 40
2.506766
 40
2.506766
 40
2.506766
 10
17.473507
 20
22.630095
 30
0.0
 10
17.629746
 20
22.764917
 30
0.0
 10
17.941671
 20
23.034085
 30
0.0
 10
18.484665
 20
23.345690
 30
0.0
 10
18.952231
 20
23.471633
 30
0.0
 10
19.279851
 20
23.610527
 30
0.0
 10
19.421196
 20
23.792442
 30
0.0
 10
19.440198
 20
23.937479
 30
0.0
 10
19.449803
 20
24.010796
 30
0.0
 11
17.473507
 21
22.630095
 31
0.0
 11
17.954730
 21
23.019117
 31
0.0
 11
18.492812
 21
23.320243
 31
0.0
 11
19.076106
 21
23.526997
 31
0.0
 11
19.270858
 21
23.627426
 31
0.0
 11
19.401853
 21
23.797031
 31
0.0
 11
19.449803
 21
24.010796
 31
0.0
  0
LWPOLYLINE
  5
17b
100
AcDbEntity
  8
S_253
 62
1
100
AcDbPolyline
 90
3
 70
1
 10
19.449803
 20
24.010796
 30
0.0
 10
19.449803
 20
24.010302
 30
0.0
 10
19.449803
 20
29.493210
 30
0.0
  0
SPLINE
  5
17c
100
AcDbEntity
  8
S_253
 62
1
100
AcDbSpline
 70
0
 71
3
 72
10
 73
6
 74
4
 40
0.000000
 40
0.000000
 40
0.000000
 40
0.000000
 40
0.261479
 40
0.515226
 40
0.776776
 40
0.776776
 40
0.776776
 40
0.776776
 10
19.449803
 20
29.493210
 30
0.0
 10
19.436047
 20
29.580840
 30
0.0
 10
19.408941
 20
29.753509
 30
0.0
 10
19.209946
 20
29.952460
 30
0.0
 10
19.037253
 20
29.979555
 30
0.0
 10
18.949599
 20
29.993308
 30
0.0
 11
19.449803
 21
29.493210
 31
0.0
 11
19.381520
 21
29.745616
 31
0.0
 11
19.202080
 21
29.925028
 31
0.0
 11
18.949599
 21
29.993308
 31
0.0
  0
LWPOLYLINE
  5
17d
100
AcDbEntity
  8
S_253
 62
1
100
AcDbPolyline
 90
3
 70
1
 10
18.949599
 20
29.993308
 30
0.0
 10
18.950305
 20
29.992214
 30
0.0
 10
17.200598
 20
29.992214
 30
0.0
  0
SPLINE
  5
17e
100
AcDbEntity
  8
S_253
 62
1
100
AcDbSpline
 70
0
 71
3
 72
13
 73
9
 74
7
 40
0.000000
 40
0.000000
 40
0.000000
 40
0.000000
 40
0.078274
 40
0.154221
 40
0.232502
 40
0.233332
 40
0.234177
 40
0.235009
 40
0.235009
 40
0.235009
 40
0.235009
 10
17.200598
 20
29.992214
 30
0.0
 10
17.174208
 20
29.988092
 30
0.0
 10
17.122212
 20
29.979969
 30
0.0
 10
17.064963
 20
29.920480
 30
0.0
 10
17.050861
 20
29.868310
 30
0.0
 10
17.050915
 20
29.841660
 30
0.0
 10
17.050927
 20
29.840825
 30
0.0
 10
17.050966
 20
29.840267
 30
0.0
 10
17.050985
 20
29.839991
 30
0.0
 11
17.200598
 21
29.992214
 31
0.0
 11
17.125039
 21
29.971774
 31
0.0
 11
17.071345
 21
29.918063
 31
0.0
 11
17.050914
 21
29.842495
 31
0.0
 11
17.050917
 21
29.841666
 31
0.0
 11
17.050935
 21
29.840820
 31
0.0
 11
17.050985
 21
29.839991
 31
0.0
  0
LWPOLYLINE
  5
17f
100
AcDbEntity
  8
S_253
 62
1
100
AcDbPolyline
 90
4
 70
1
 10
17.050985
 20
29.839991
 30
0.0
 10
17.050985
 20
28.767687
 30
0.0
 10
16.151895
 20
28.767687
 30
0.0
 10
16.151296
 20
28.768816
 30
0.0
  0
SPLINE
  5
180
100
AcDbEntity
  8
S_253
 62
1
100
AcDbSpline
 70
0
 71
3
 72
10
 73
6
 74
4
 40
0.000000
 40
0.000000
 40
0.000000
 40
0.000000
 40
0.078208
 40
0.154116
 40
0.232318
 40
0.232318
 40
0.232318
 40
0.232318
 10
16.151296
 20
28.768816
 30
0.0
 10
16.125087
 20
28.772934
 30
0.0
 10
16.073441
 20
28.781048
 30
0.0
 10
16.013922
 20
28.840542
 30
0.0
 10
16.005803
 20
28.892187
 30
0.0
 10
16.001682
 20
28.918394
 30
0.0
 11
16.151296
 21
28.768816
 31
0.0
 11
16.075802
 21
28.789243
 31
0.0
 11
16.022119
 21
28.842910
 31
0.0
 11
16.001682
 21
28.918394
 31
0.0
  0
LWPOLYLINE
  5
181
100
AcDbEntity
  8
S_253
 62
1
100
AcDbPolyline
 90
2
 70
1
 10
16.001682
 20
28.918394
 30
0.0
 10
16.001682
 20
34.740391
 30
0.0
  0
SPLINE
  5
182
100
AcDbEntity
  8
S_253
 62
1
100
AcDbSpline
 70
0
 71
3
 72
10
 73
6
 74
4
 40
0.000000
 40
0.000000
 40
0.000000
 40
0.000000
 40
0.130630
 40
0.257359
 40
0.387971
 40
0.387971
 40
0.387971
 40
0.387971
 10
16.001682
 20
34.740391
 30
0.0
 10
16.008551
 20
34.784171
 30
0.0
 10
16.022081
 20
34.870422
 30
0.0
 10
16.121467
 20
34.969797
 30
0.0
 10
16.207711
 20
34.983327
 30
0.0
 10
16.251484
 20
34.990193
 30
0.0
 11
16.001682
 21
34.740391
 31
0.0
 11
16.035786
 21
34.866491
 31
0.0
 11
16.125400
 21
34.956098
 31
0.0
 11
16.251484
 21
34.990193
 31
0.0
  0
LWPOLYLINE
  5
183
100
AcDbEntity
  8
S_253
 62
1
100
AcDbPolyline
 90
4
 70
1
 10
16.251484
 20
34.990193
 30
0.0
 10
16.252084
 20
34.989100
 30
0.0
 10
18.776103
 20
34.989100
 30
0.0
 10
18.775504
 20
34.990193
 30
0.0
  0
SPLINE
  5
184
100
AcDbEntity
  8
S_253
 62
1
100
AcDbSpline
 70
0
 71
3
 72
10
 73
6
 74
4
 40
0.000000
 40
0.000000
 40
0.000000
 40
0.000000
 40
0.078271
 40
0.154187
 40
0.232387
 40
0.232387
 40
0.232387
 40
0.232387
 10
18.775504
 20
34.990193
 30
0.0
 10
18.801735
 20
34.986080
 30
0.0
 10
18.853407
 20
34.977976
 30
0.0
 10
18.912955
 20
34.918471
 30
0.0
 10
18.921070
 20
34.866823
 30
0.0
 10
18.925187
 20
34.840616
 30
0.0
 11
18.775504
 21
34.990193
 31
0.0
 11
18.851062
 21
34.969766
 31
0.0
 11
18.904756
 21
34.916100
 31
0.0
 11
18.925187
 21
34.840616
 31
0.0
  0
LWPOLYLINE
  5
185
100
AcDbEntity
  8
S_253
 62
1
100
AcDbPolyline
 90
3
 70
1
 10
18.925187
 20
34.840616
 30
0.0
 10
18.925187
 20
33.939903
 30
0.0
 10
17.150503
 20
33.939903
 30
0.0
  0
LWPOLYLINE
  5
186
100
AcDbEntity
  8
S_253
 62
1
100
AcDbPolyline
 90
2
 70
1
 10
17.000890
 20
33.790184
 30
0.0
 10
17.000890
 20
33.790184
 30
0.0
  0
SPLINE
  5
187
100
AcDbEntity
  8
S_253
 62
1
100
AcDbSpline
 70
0
 71
3
 72
10
 73
6
 74
4
 40
0.000000
 40
0.000000
 40
0.000000
 40
0.000000
 40
0.078224
 40
0.154153
 40
0.232448
 40
0.232448
 40
0.232448
 40
0.232448
 10
17.150503
 20
33.939903
 30
0.0
 10
17.124287
 20
33.935787
 30
0.0
 10
17.072625
 20
33.927675
 30
0.0
 10
17.013104
 20
33.868110
 30
0.0
 10
17.005003
 20
33.816424
 30
0.0
 10
17.000890
 20
33.790184
 30
0.0
 11
17.150503
 21
33.939903
 31
0.0
 11
17.074995
 21
33.919471
 31
0.0
 11
17.021319
 21
33.865768
 31
0.0
 11
17.000890
 21
33.790184
 31
0.0
  0
LWPOLYLINE
  5
188
100
AcDbEntity
  8
S_253
 62
1
100
AcDbPolyline
 90
2
 70
0
 10
16.001682
 20
26.457910
 30
0.0
 10
16.161985
 20
26.618212
 30
0.0
  0
ENDSEC
  0
SECTION
  2
OBJECTS
  0
DICTIONARY
  5
C
330
0
100
AcDbDictionary
  3
ACAD_GROUP
350
D
  3
ACAD_MLINESTYLE
350
17
  0
DICTIONARY
  5
D
330
C
100
AcDbDictionary
  0
DICTIONARY
  5
1A
330
C
100
AcDbDictionary
  0
DICTIONARY
  5
17
330
C
100
AcDbDictionary
  3
STANDARD
350
18
  0
DICTIONARY
  5
19
330
C
100
AcDbDictionary
  0
ENDSEC
  0
EOF
