  0
SECTION
  2
BLOCKS
  0
ENDSEC
  0
SECTION
  2
ENTITIES
  0
LINE
  8
0
 10
0.272461
 20
-7.89941
 11
0.658203
 21
-7.87598
  0
LINE
  8
0
 10
0.658203
 20
-7.87598
 11
1.04297
 21
-7.83301
  0
LINE
  8
0
 10
1.04297
 20
-7.83301
 11
1.42676
 21
-7.77148
  0
LINE
  8
0
 10
1.42676
 20
-7.77148
 11
1.80762
 21
-7.69141
  0
LINE
  8
0
 10
1.80762
 20
-7.69141
 11
2.18652
 21
-7.5918
  0
LINE
  8
0
 10
2.18652
 20
-7.5918
 11
2.56152
 21
-7.47266
  0
LINE
  8
0
 10
2.56152
 20
-7.47266
 11
2.93164
 21
-7.33496
  0
LINE
  8
0
 10
2.93164
 20
-7.33496
 11
2.94629
 21
-7.3291
  0
LINE
  8
0
 10
2.94629
 20
-7.3291
 11
2.95996
 21
-7.32324
  0
LINE
  8
0
 10
2.95996
 20
-7.32324
 11
2.98535
 21
-7.30762
  0
LINE
  8
0
 10
2.98535
 20
-7.30762
 11
2.99805
 21
-7.29883
  0
LINE
  8
0
 10
2.99805
 20
-7.29883
 11
3.00879
 21
-7.29004
  0
LINE
  8
0
 10
3.00879
 20
-7.29004
 11
3.02051
 21
-7.28125
  0
LINE
  8
0
 10
3.02051
 20
-7.28125
 11
3.04102
 21
-7.26074
  0
LINE
  8
0
 10
3.04102
 20
-7.26074
 11
3.05078
 21
-7.24902
  0
LINE
  8
0
 10
3.05078
 20
-7.24902
 11
3.05957
 21
-7.23828
  0
LINE
  8
0
 10
3.05957
 20
-7.23828
 11
3.06836
 21
-7.22559
  0
LINE
  8
0
 10
3.06836
 20
-7.22559
 11
3.07617
 21
-7.21387
  0
LINE
  8
0
 10
3.07617
 20
-7.21387
 11
3.08398
 21
-7.20117
  0
LINE
  8
0
 10
3.08398
 20
-7.20117
 11
3.09082
 21
-7.1875
  0
LINE
  8
0
 10
3.09082
 20
-7.1875
 11
3.09668
 21
-7.17383
  0
LINE
  8
0
 10
3.09668
 20
-7.17383
 11
3.10645
 21
-7.14648
  0
LINE
  8
0
 10
3.10645
 20
-7.14648
 11
3.11426
 21
-7.11719
  0
LINE
  8
0
 10
3.11426
 20
-7.11719
 11
3.11719
 21
-7.10254
  0
LINE
  8
0
 10
3.11719
 20
-7.10254
 11
3.11914
 21
-7.08789
  0
LINE
  8
0
 10
3.11914
 20
-7.08789
 11
3.12012
 21
-7.07324
  0
LINE
  8
0
 10
3.12012
 20
-7.07324
 11
3.12012
 21
-7.04297
  0
LINE
  8
0
 10
3.12012
 20
-7.04297
 11
3.11914
 21
-7.02832
  0
LINE
  8
0
 10
3.11914
 20
-7.02832
 11
3.11719
 21
-7.01367
  0
LINE
  8
0
 10
3.11719
 20
-7.01367
 11
3.11426
 21
-6.99902
  0
LINE
  8
0
 10
3.11426
 20
-6.99902
 11
3.11133
 21
-6.98535
  0
LINE
  8
0
 10
3.11133
 20
-6.98535
 11
3.10742
 21
-6.9707
  0
LINE
  8
0
 10
3.10742
 20
-6.9707
 11
3.10352
 21
-6.95703
  0
LINE
  8
0
 10
3.10352
 20
-6.95703
 11
3.0918
 21
-6.92969
  0
LINE
  8
0
 10
3.0918
 20
-6.92969
 11
3.08594
 21
-6.91699
  0
LINE
  8
0
 10
3.08594
 20
-6.91699
 11
3.0625
 21
-6.87891
  0
LINE
  8
0
 10
3.0625
 20
-6.87891
 11
3.05273
 21
-6.86719
  0
LINE
  8
0
 10
3.05273
 20
-6.86719
 11
3.04297
 21
-6.85645
  0
LINE
  8
0
 10
3.04297
 20
-6.85645
 11
3.0332
 21
-6.84473
  0
LINE
  8
0
 10
3.0332
 20
-6.84473
 11
3.03516
 21
-6.84473
  0
LINE
  8
0
 10
3.03516
 20
-6.84473
 11
0.893555
 21
-4.69434
  0
LINE
  8
0
 10
0.893555
 20
-4.69434
 11
0.862305
 21
-4.66504
  0
LINE
  8
0
 10
0.862305
 20
-4.66504
 11
0.831055
 21
-4.6377
  0
LINE
  8
0
 10
0.831055
 20
-4.6377
 11
0.798828
 21
-4.61133
  0
LINE
  8
0
 10
0.798828
 20
-4.61133
 11
0.765625
 21
-4.58691
  0
LINE
  8
0
 10
0.765625
 20
-4.58691
 11
0.732422
 21
-4.56348
  0
LINE
  8
0
 10
0.732422
 20
-4.56348
 11
0.697266
 21
-4.54199
  0
LINE
  8
0
 10
0.697266
 20
-4.54199
 11
0.662109
 21
-4.52148
  0
LINE
  8
0
 10
0.662109
 20
-4.52148
 11
0.625977
 21
-4.50293
  0
LINE
  8
0
 10
0.625977
 20
-4.50293
 11
0.588867
 21
-4.48535
  0
LINE
  8
0
 10
0.588867
 20
-4.48535
 11
0.550781
 21
-4.46973
  0
LINE
  8
0
 10
0.550781
 20
-4.46973
 11
0.512695
 21
-4.45508
  0
LINE
  8
0
 10
0.512695
 20
-4.45508
 11
0.473633
 21
-4.44238
  0
LINE
  8
0
 10
0.473633
 20
-4.44238
 11
0.43457
 21
-4.43164
  0
LINE
  8
0
 10
0.43457
 20
-4.43164
 11
0.394531
 21
-4.42285
  0
LINE
  8
0
 10
0.394531
 20
-4.42285
 11
0.354492
 21
-4.41504
  0
LINE
  8
0
 10
0.354492
 20
-4.41504
 11
0.313477
 21
-4.40918
  0
LINE
  8
0
 10
0.313477
 20
-4.40918
 11
0.272461
 21
-4.4043
  0
LINE
  8
0
 10
0.272461
 20
-4.4043
 11
0.231445
 21
-4.40137
  0
LINE
  8
0
 10
0.231445
 20
-4.40137
 11
0.19043
 21
-4.40039
  0
LINE
  8
0
 10
0.19043
 20
-4.40039
 11
0.148438
 21
-4.40137
  0
LINE
  8
0
 10
0.148438
 20
-4.40137
 11
-0.148438
 21
-4.40332
  0
LINE
  8
0
 10
-0.148438
 20
-4.40332
 11
-0.441406
 21
-4.38574
  0
LINE
  8
0
 10
-0.441406
 20
-4.38574
 11
-0.729492
 21
-4.34961
  0
LINE
  8
0
 10
-0.729492
 20
-4.34961
 11
-1.0127
 21
-4.29492
  0
LINE
  8
0
 10
-1.0127
 20
-4.29492
 11
-1.29004
 21
-4.22266
  0
LINE
  8
0
 10
-1.29004
 20
-4.22266
 11
-1.56152
 21
-4.13281
  0
LINE
  8
0
 10
-1.56152
 20
-4.13281
 11
-1.8252
 21
-4.02734
  0
LINE
  8
0
 10
-1.8252
 20
-4.02734
 11
-2.08105
 21
-3.9043
  0
LINE
  8
0
 10
-2.08105
 20
-3.9043
 11
-2.32812
 21
-3.7666
  0
LINE
  8
0
 10
-2.32812
 20
-3.7666
 11
-2.56641
 21
-3.61328
  0
LINE
  8
0
 10
-2.56641
 20
-3.61328
 11
-2.79492
 21
-3.44434
  0
LINE
  8
0
 10
-2.79492
 20
-3.44434
 11
-3.01172
 21
-3.2627
  0
LINE
  8
0
 10
-3.01172
 20
-3.2627
 11
-3.21777
 21
-3.06641
  0
LINE
  8
0
 10
-3.21777
 20
-3.06641
 11
-3.41113
 21
-2.85645
  0
LINE
  8
0
 10
-3.41113
 20
-2.85645
 11
-3.59082
 21
-2.63477
  0
LINE
  8
0
 10
-3.59082
 20
-2.63477
 11
-3.75781
 21
-2.40039
  0
LINE
  8
0
 10
-3.75781
 20
-2.40039
 11
-3.91016
 21
-2.15527
  0
LINE
  8
0
 10
-3.91016
 20
-2.15527
 11
-4.04688
 21
-1.89746
  0
LINE
  8
0
 10
-4.04688
 20
-1.89746
 11
-4.16797
 21
-1.62988
  0
LINE
  8
0
 10
-4.16797
 20
-1.62988
 11
-4.27246
 21
-1.35254
  0
LINE
  8
0
 10
-4.27246
 20
-1.35254
 11
-4.3584
 21
-1.06836
  0
LINE
  8
0
 10
-4.3584
 20
-1.06836
 11
-4.4248
 21
-0.78125
  0
LINE
  8
0
 10
-4.4248
 20
-0.78125
 11
-4.47266
 21
-0.494141
  0
LINE
  8
0
 10
-4.47266
 20
-0.494141
 11
-4.50098
 21
-0.206055
  0
LINE
  8
0
 10
-4.50098
 20
-0.206055
 11
-4.51074
 21
0.0820312
  0
LINE
  8
0
 10
-4.51074
 20
0.0820312
 11
-4.50293
 21
0.368164
  0
LINE
  8
0
 10
-4.50293
 20
0.368164
 11
-4.47656
 21
0.652344
  0
LINE
  8
0
 10
-4.47656
 20
0.652344
 11
-4.43262
 21
0.933594
  0
LINE
  8
0
 10
-4.43262
 20
0.933594
 11
-4.37109
 21
1.21094
  0
LINE
  8
0
 10
-4.37109
 20
1.21094
 11
-4.29297
 21
1.4834
  0
LINE
  8
0
 10
-4.29297
 20
1.4834
 11
-4.19727
 21
1.75098
  0
LINE
  8
0
 10
-4.19727
 20
1.75098
 11
-4.08496
 21
2.01172
  0
LINE
  8
0
 10
-4.08496
 20
2.01172
 11
-3.95605
 21
2.26562
  0
LINE
  8
0
 10
-3.95605
 20
2.26562
 11
-3.81152
 21
2.51074
  0
LINE
  8
0
 10
-3.81152
 20
2.51074
 11
-3.65039
 21
2.74805
  0
LINE
  8
0
 10
-3.65039
 20
2.74805
 11
-3.47461
 21
2.97461
  0
LINE
  8
0
 10
-3.47461
 20
2.97461
 11
-3.2832
 21
3.19141
  0
LINE
  8
0
 10
-3.2832
 20
3.19141
 11
-3.07617
 21
3.39648
  0
LINE
  8
0
 10
-3.07617
 20
3.39648
 11
-2.85547
 21
3.58887
  0
LINE
  8
0
 10
-2.85547
 20
3.58887
 11
-2.62012
 21
3.76855
  0
LINE
  8
0
 10
-2.62012
 20
3.76855
 11
-2.37305
 21
3.93262
  0
LINE
  8
0
 10
-2.37305
 20
3.93262
 11
-2.11816
 21
4.07812
  0
LINE
  8
0
 10
-2.11816
 20
4.07812
 11
-1.85742
 21
4.20605
  0
LINE
  8
0
 10
-1.85742
 20
4.20605
 11
-1.58984
 21
4.31543
  0
LINE
  8
0
 10
-1.58984
 20
4.31543
 11
-1.31836
 21
4.40723
  0
LINE
  8
0
 10
-1.31836
 20
4.40723
 11
-1.04297
 21
4.48145
  0
LINE
  8
0
 10
-1.04297
 20
4.48145
 11
-0.763672
 21
4.53711
  0
LINE
  8
0
 10
-0.763672
 20
4.53711
 11
-0.482422
 21
4.5752
  0
LINE
  8
0
 10
-0.482422
 20
4.5752
 11
-0.200195
 21
4.59473
  0
LINE
  8
0
 10
-0.200195
 20
4.59473
 11
0.0830078
 21
4.59668
  0
LINE
  8
0
 10
0.0830078
 20
4.59668
 11
0.365234
 21
4.58105
  0
LINE
  8
0
 10
0.365234
 20
4.58105
 11
0.646484
 21
4.54785
  0
LINE
  8
0
 10
0.646484
 20
4.54785
 11
0.924805
 21
4.49609
  0
LINE
  8
0
 10
0.924805
 20
4.49609
 11
1.20117
 21
4.42676
  0
LINE
  8
0
 10
1.20117
 20
4.42676
 11
1.47266
 21
4.33984
  0
LINE
  8
0
 10
1.47266
 20
4.33984
 11
1.74023
 21
4.23535
  0
LINE
  8
0
 10
1.74023
 20
4.23535
 11
2.00098
 21
4.1123
  0
LINE
  8
0
 10
2.00098
 20
4.1123
 11
2.25586
 21
3.97266
  0
LINE
  8
0
 10
2.25586
 20
3.97266
 11
2.50293
 21
3.81445
  0
LINE
  8
0
 10
2.50293
 20
3.81445
 11
2.74219
 21
3.63867
  0
LINE
  8
0
 10
2.74219
 20
3.63867
 11
2.77246
 21
3.61523
  0
LINE
  8
0
 10
2.77246
 20
3.61523
 11
2.80469
 21
3.5957
  0
LINE
  8
0
 10
2.80469
 20
3.5957
 11
2.83691
 21
3.5791
  0
LINE
  8
0
 10
2.83691
 20
3.5791
 11
2.87012
 21
3.56445
  0
LINE
  8
0
 10
2.87012
 20
3.56445
 11
2.9043
 21
3.55273
  0
LINE
  8
0
 10
2.9043
 20
3.55273
 11
2.93848
 21
3.54297
  0
LINE
  8
0
 10
2.93848
 20
3.54297
 11
2.97363
 21
3.53613
  0
LINE
  8
0
 10
2.97363
 20
3.53613
 11
3.00879
 21
3.53223
  0
LINE
  8
0
 10
3.00879
 20
3.53223
 11
3.04395
 21
3.53125
  0
LINE
  8
0
 10
3.04395
 20
3.53125
 11
3.08008
 21
3.53125
  0
LINE
  8
0
 10
3.08008
 20
3.53125
 11
3.11523
 21
3.53516
  0
LINE
  8
0
 10
3.11523
 20
3.53516
 11
3.14941
 21
3.54102
  0
LINE
  8
0
 10
3.14941
 20
3.54102
 11
3.18457
 21
3.54883
  0
LINE
  8
0
 10
3.18457
 20
3.54883
 11
3.21875
 21
3.56055
  0
LINE
  8
0
 10
3.21875
 20
3.56055
 11
3.25195
 21
3.57324
  0
LINE
  8
0
 10
3.25195
 20
3.57324
 11
3.28418
 21
3.58887
  0
LINE
  8
0
 10
3.28418
 20
3.58887
 11
3.31543
 21
3.60742
  0
LINE
  8
0
 10
3.31543
 20
3.60742
 11
3.3457
 21
3.62793
  0
LINE
  8
0
 10
3.3457
 20
3.62793
 11
3.37402
 21
3.65137
  0
LINE
  8
0
 10
3.37402
 20
3.65137
 11
3.40234
 21
3.67676
  0
LINE
  8
0
 10
3.40234
 20
3.67676
 11
3.4043
 21
3.67676
  0
LINE
  8
0
 10
3.4043
 20
3.67676
 11
7.80469
 21
8.0918
  0
LINE
  8
0
 10
7.80469
 20
8.0918
 11
7.80176
 21
8.09277
  0
LINE
  8
0
 10
7.80176
 20
8.09277
 11
7.81543
 21
8.10645
  0
LINE
  8
0
 10
7.81543
 20
8.10645
 11
7.82812
 21
8.12207
  0
LINE
  8
0
 10
7.82812
 20
8.12207
 11
7.84082
 21
8.13672
  0
LINE
  8
0
 10
7.84082
 20
8.13672
 11
7.85254
 21
8.15234
  0
LINE
  8
0
 10
7.85254
 20
8.15234
 11
7.87402
 21
8.18555
  0
LINE
  8
0
 10
7.87402
 20
8.18555
 11
7.88379
 21
8.20215
  0
LINE
  8
0
 10
7.88379
 20
8.20215
 11
7.89355
 21
8.21973
  0
LINE
  8
0
 10
7.89355
 20
8.21973
 11
7.90918
 21
8.25488
  0
LINE
  8
0
 10
7.90918
 20
8.25488
 11
7.91699
 21
8.27344
  0
LINE
  8
0
 10
7.91699
 20
8.27344
 11
7.92285
 21
8.29102
  0
LINE
  8
0
 10
7.92285
 20
8.29102
 11
7.92871
 21
8.31055
  0
LINE
  8
0
 10
7.92871
 20
8.31055
 11
7.93359
 21
8.3291
  0
LINE
  8
0
 10
7.93359
 20
8.3291
 11
7.9375
 21
8.34766
  0
LINE
  8
0
 10
7.9375
 20
8.34766
 11
7.94141
 21
8.36719
  0
LINE
  8
0
 10
7.94141
 20
8.36719
 11
7.94434
 21
8.38672
  0
LINE
  8
0
 10
7.94434
 20
8.38672
 11
7.94531
 21
8.40625
  0
LINE
  8
0
 10
7.94531
 20
8.40625
 11
7.94727
 21
8.42578
  0
LINE
  8
0
 10
7.94727
 20
8.42578
 11
7.94727
 21
8.44629
  0
LINE
  8
0
 10
7.94727
 20
8.44629
 11
7.94922
 21
8.44531
  0
LINE
  8
0
 10
7.94922
 20
8.44531
 11
7.94922
 21
13.0479
  0
LINE
  8
0
 10
7.94922
 20
13.0479
 11
7.94727
 21
13.0488
  0
LINE
  8
0
 10
7.94727
 20
13.0488
 11
7.94629
 21
13.0732
  0
LINE
  8
0
 10
7.94629
 20
13.0732
 11
7.94336
 21
13.0977
  0
LINE
  8
0
 10
7.94336
 20
13.0977
 11
7.93848
 21
13.1211
  0
LINE
  8
0
 10
7.93848
 20
13.1211
 11
7.93262
 21
13.1436
  0
LINE
  8
0
 10
7.93262
 20
13.1436
 11
7.92383
 21
13.166
  0
LINE
  8
0
 10
7.92383
 20
13.166
 11
7.91406
 21
13.1865
  0
LINE
  8
0
 10
7.91406
 20
13.1865
 11
7.90234
 21
13.207
  0
LINE
  8
0
 10
7.90234
 20
13.207
 11
7.88965
 21
13.2256
  0
LINE
  8
0
 10
7.88965
 20
13.2256
 11
7.87598
 21
13.2441
  0
LINE
  8
0
 10
7.87598
 20
13.2441
 11
7.86035
 21
13.2607
  0
LINE
  8
0
 10
7.86035
 20
13.2607
 11
7.84277
 21
13.2764
  0
LINE
  8
0
 10
7.84277
 20
13.2764
 11
7.8252
 21
13.291
  0
LINE
  8
0
 10
7.8252
 20
13.291
 11
7.80566
 21
13.3037
  0
LINE
  8
0
 10
7.80566
 20
13.3037
 11
7.78613
 21
13.3154
  0
LINE
  8
0
 10
7.78613
 20
13.3154
 11
7.76465
 21
13.3252
  0
LINE
  8
0
 10
7.76465
 20
13.3252
 11
7.74316
 21
13.333
  0
LINE
  8
0
 10
7.74316
 20
13.333
 11
7.7207
 21
13.3398
  0
LINE
  8
0
 10
7.7207
 20
13.3398
 11
7.69727
 21
13.3447
  0
LINE
  8
0
 10
7.69727
 20
13.3447
 11
7.67285
 21
13.3477
  0
LINE
  8
0
 10
7.67285
 20
13.3477
 11
7.64844
 21
13.3486
  0
LINE
  8
0
 10
7.64844
 20
13.3486
 11
7.65039
 21
13.3467
  0
LINE
  8
0
 10
7.65039
 20
13.3467
 11
5.85742
 21
13.3467
  0
LINE
  8
0
 10
5.85742
 20
13.3467
 11
5.85742
 21
9.66309
  0
LINE
  8
0
 10
5.85742
 20
9.66309
 11
5.85547
 21
9.66406
  0
LINE
  8
0
 10
5.85547
 20
9.66406
 11
5.85449
 21
9.62402
  0
LINE
  8
0
 10
5.85449
 20
9.62402
 11
5.85156
 21
9.58398
  0
LINE
  8
0
 10
5.85156
 20
9.58398
 11
5.84766
 21
9.54492
  0
LINE
  8
0
 10
5.84766
 20
9.54492
 11
5.84277
 21
9.50586
  0
LINE
  8
0
 10
5.84277
 20
9.50586
 11
5.83594
 21
9.46777
  0
LINE
  8
0
 10
5.83594
 20
9.46777
 11
5.82715
 21
9.42969
  0
LINE
  8
0
 10
5.82715
 20
9.42969
 11
5.81738
 21
9.3916
  0
LINE
  8
0
 10
5.81738
 20
9.3916
 11
5.80664
 21
9.35352
  0
LINE
  8
0
 10
5.80664
 20
9.35352
 11
5.7793
 21
9.28125
  0
LINE
  8
0
 10
5.7793
 20
9.28125
 11
5.76367
 21
9.24512
  0
LINE
  8
0
 10
5.76367
 20
9.24512
 11
5.74707
 21
9.20996
  0
LINE
  8
0
 10
5.74707
 20
9.20996
 11
5.72852
 21
9.17578
  0
LINE
  8
0
 10
5.72852
 20
9.17578
 11
5.70898
 21
9.1416
  0
LINE
  8
0
 10
5.70898
 20
9.1416
 11
5.6875
 21
9.1084
  0
LINE
  8
0
 10
5.6875
 20
9.1084
 11
5.66504
 21
9.07617
  0
LINE
  8
0
 10
5.66504
 20
9.07617
 11
5.6416
 21
9.04492
  0
LINE
  8
0
 10
5.6416
 20
9.04492
 11
5.59082
 21
8.98438
  0
LINE
  8
0
 10
5.59082
 20
8.98438
 11
5.56348
 21
8.95605
  0
LINE
  8
0
 10
5.56348
 20
8.95605
 11
3.48535
 21
6.87012
  0
LINE
  8
0
 10
3.48535
 20
6.87012
 11
3.46191
 21
6.84961
  0
LINE
  8
0
 10
3.46191
 20
6.84961
 11
3.43848
 21
6.83008
  0
LINE
  8
0
 10
3.43848
 20
6.83008
 11
3.41406
 21
6.81152
  0
LINE
  8
0
 10
3.41406
 20
6.81152
 11
3.38867
 21
6.7959
  0
LINE
  8
0
 10
3.38867
 20
6.7959
 11
3.36328
 21
6.78125
  0
LINE
  8
0
 10
3.36328
 20
6.78125
 11
3.33594
 21
6.76758
  0
LINE
  8
0
 10
3.33594
 20
6.76758
 11
3.30859
 21
6.75684
  0
LINE
  8
0
 10
3.30859
 20
6.75684
 11
3.28027
 21
6.74707
  0
LINE
  8
0
 10
3.28027
 20
6.74707
 11
3.25195
 21
6.73926
  0
LINE
  8
0
 10
3.25195
 20
6.73926
 11
3.22363
 21
6.73242
  0
LINE
  8
0
 10
3.22363
 20
6.73242
 11
3.19434
 21
6.72754
  0
LINE
  8
0
 10
3.19434
 20
6.72754
 11
3.16504
 21
6.72559
  0
LINE
  8
0
 10
3.16504
 20
6.72559
 11
3.13477
 21
6.72363
  0
LINE
  8
0
 10
3.13477
 20
6.72363
 11
3.10547
 21
6.72461
  0
LINE
  8
0
 10
3.10547
 20
6.72461
 11
3.0752
 21
6.72754
  0
LINE
  8
0
 10
3.0752
 20
6.72754
 11
3.0459
 21
6.73145
  0
LINE
  8
0
 10
3.0459
 20
6.73145
 11
3.0166
 21
6.73828
  0
LINE
  8
0
 10
3.0166
 20
6.73828
 11
2.9873
 21
6.74609
  0
LINE
  8
0
 10
2.9873
 20
6.74609
 11
2.95898
 21
6.75586
  0
LINE
  8
0
 10
2.95898
 20
6.75586
 11
2.92969
 21
6.76758
  0
LINE
  8
0
 10
2.92969
 20
6.76758
 11
2.9209
 21
6.77148
  0
LINE
  8
0
 10
2.9209
 20
6.77148
 11
2.81348
 21
6.81836
  0
LINE
  8
0
 10
2.81348
 20
6.81836
 11
2.75879
 21
6.84082
  0
LINE
  8
0
 10
2.75879
 20
6.84082
 11
2.70508
 21
6.86328
  0
LINE
  8
0
 10
2.70508
 20
6.86328
 11
2.65039
 21
6.88574
  0
LINE
  8
0
 10
2.65039
 20
6.88574
 11
2.5957
 21
6.90625
  0
LINE
  8
0
 10
2.5957
 20
6.90625
 11
2.54102
 21
6.92773
  0
LINE
  8
0
 10
2.54102
 20
6.92773
 11
2.48535
 21
6.94824
  0
LINE
  8
0
 10
2.48535
 20
6.94824
 11
2.43066
 21
6.96875
  0
LINE
  8
0
 10
2.43066
 20
6.96875
 11
2.375
 21
6.98828
  0
LINE
  8
0
 10
2.375
 20
6.98828
 11
2.31934
 21
7.00684
  0
LINE
  8
0
 10
2.31934
 20
7.00684
 11
2.26465
 21
7.02637
  0
LINE
  8
0
 10
2.26465
 20
7.02637
 11
2.20801
 21
7.04395
  0
LINE
  8
0
 10
2.20801
 20
7.04395
 11
2.15234
 21
7.0625
  0
LINE
  8
0
 10
2.15234
 20
7.0625
 11
2.09668
 21
7.08008
  0
LINE
  8
0
 10
2.09668
 20
7.08008
 11
1.9834
 21
7.11328
  0
LINE
  8
0
 10
1.9834
 20
7.11328
 11
1.92773
 21
7.12891
  0
LINE
  8
0
 10
1.92773
 20
7.12891
 11
1.81445
 21
7.16016
  0
LINE
  8
0
 10
1.81445
 20
7.16016
 11
1.81641
 21
7.16016
  0
LINE
  8
0
 10
1.81641
 20
7.16016
 11
1.75195
 21
7.17871
  0
LINE
  8
0
 10
1.75195
 20
7.17871
 11
1.68848
 21
7.20215
  0
LINE
  8
0
 10
1.68848
 20
7.20215
 11
1.62891
 21
7.22949
  0
LINE
  8
0
 10
1.62891
 20
7.22949
 11
1.57031
 21
7.26074
  0
LINE
  8
0
 10
1.57031
 20
7.26074
 11
1.51465
 21
7.2959
  0
LINE
  8
0
 10
1.51465
 20
7.2959
 11
1.46191
 21
7.33398
  0
LINE
  8
0
 10
1.46191
 20
7.33398
 11
1.41211
 21
7.375
  0
LINE
  8
0
 10
1.41211
 20
7.375
 11
1.36426
 21
7.41895
  0
LINE
  8
0
 10
1.36426
 20
7.41895
 11
1.32031
 21
7.4668
  0
LINE
  8
0
 10
1.32031
 20
7.4668
 11
1.2793
 21
7.5166
  0
LINE
  8
0
 10
1.2793
 20
7.5166
 11
1.24121
 21
7.56836
  0
LINE
  8
0
 10
1.24121
 20
7.56836
 11
1.20703
 21
7.62402
  0
LINE
  8
0
 10
1.20703
 20
7.62402
 11
1.17676
 21
7.68066
  0
LINE
  8
0
 10
1.17676
 20
7.68066
 11
1.14941
 21
7.74023
  0
LINE
  8
0
 10
1.14941
 20
7.74023
 11
1.12598
 21
7.80078
  0
LINE
  8
0
 10
1.12598
 20
7.80078
 11
1.10645
 21
7.86328
  0
LINE
  8
0
 10
1.10645
 20
7.86328
 11
1.0918
 21
7.92773
  0
LINE
  8
0
 10
1.0918
 20
7.92773
 11
1.08008
 21
7.99316
  0
LINE
  8
0
 10
1.08008
 20
7.99316
 11
1.07324
 21
8.06055
  0
LINE
  8
0
 10
1.07324
 20
8.06055
 11
1.07129
 21
8.12793
  0
LINE
  8
0
 10
1.07129
 20
8.12793
 11
1.07324
 21
8.12695
  0
LINE
  8
0
 10
1.07324
 20
8.12695
 11
1.07324
 21
19.0996
  0
LINE
  8
0
 10
1.07324
 20
19.0996
 11
1.07129
 21
19.1006
  0
LINE
  8
0
 10
1.07129
 20
19.1006
 11
1.0752
 21
19.1826
  0
LINE
  8
0
 10
1.0752
 20
19.1826
 11
1.08398
 21
19.2627
  0
LINE
  8
0
 10
1.08398
 20
19.2627
 11
1.10059
 21
19.3408
  0
LINE
  8
0
 10
1.10059
 20
19.3408
 11
1.12207
 21
19.417
  0
LINE
  8
0
 10
1.12207
 20
19.417
 11
1.14941
 21
19.4902
  0
LINE
  8
0
 10
1.14941
 20
19.4902
 11
1.18262
 21
19.5605
  0
LINE
  8
0
 10
1.18262
 20
19.5605
 11
1.2207
 21
19.6279
  0
LINE
  8
0
 10
1.2207
 20
19.6279
 11
1.26367
 21
19.6914
  0
LINE
  8
0
 10
1.26367
 20
19.6914
 11
1.31152
 21
19.752
  0
LINE
  8
0
 10
1.31152
 20
19.752
 11
1.36328
 21
19.8086
  0
LINE
  8
0
 10
1.36328
 20
19.8086
 11
1.41992
 21
19.8604
  0
LINE
  8
0
 10
1.41992
 20
19.8604
 11
1.47949
 21
19.9082
  0
LINE
  8
0
 10
1.47949
 20
19.9082
 11
1.54297
 21
19.9512
  0
LINE
  8
0
 10
1.54297
 20
19.9512
 11
1.61035
 21
19.9893
  0
LINE
  8
0
 10
1.61035
 20
19.9893
 11
1.68066
 21
20.0225
  0
LINE
  8
0
 10
1.68066
 20
20.0225
 11
1.75391
 21
20.0508
  0
LINE
  8
0
 10
1.75391
 20
20.0508
 11
1.8291
 21
20.0723
  0
LINE
  8
0
 10
1.8291
 20
20.0723
 11
1.90723
 21
20.0879
  0
LINE
  8
0
 10
1.90723
 20
20.0879
 11
1.9873
 21
20.0977
  0
LINE
  8
0
 10
1.9873
 20
20.0977
 11
2.06836
 21
20.1016
  0
LINE
  8
0
 10
2.06836
 20
20.1016
 11
2.07031
 21
20.0996
  0
LINE
  8
0
 10
2.07031
 20
20.0996
 11
5.56152
 21
20.0996
  0
LINE
  8
0
 10
5.56152
 20
20.0996
 11
5.58594
 21
20.0977
  0
LINE
  8
0
 10
5.58594
 20
20.0977
 11
5.60938
 21
20.0947
  0
LINE
  8
0
 10
5.60938
 20
20.0947
 11
5.63184
 21
20.0898
  0
LINE
  8
0
 10
5.63184
 20
20.0898
 11
5.6543
 21
20.083
  0
LINE
  8
0
 10
5.6543
 20
20.083
 11
5.67578
 21
20.0742
  0
LINE
  8
0
 10
5.67578
 20
20.0742
 11
5.69629
 21
20.0645
  0
LINE
  8
0
 10
5.69629
 20
20.0645
 11
5.7168
 21
20.0527
  0
LINE
  8
0
 10
5.7168
 20
20.0527
 11
5.73535
 21
20.04
  0
LINE
  8
0
 10
5.73535
 20
20.04
 11
5.75293
 21
20.0254
  0
LINE
  8
0
 10
5.75293
 20
20.0254
 11
5.76953
 21
20.0098
  0
LINE
  8
0
 10
5.76953
 20
20.0098
 11
5.78418
 21
19.9932
  0
LINE
  8
0
 10
5.78418
 20
19.9932
 11
5.79883
 21
19.9756
  0
LINE
  8
0
 10
5.79883
 20
19.9756
 11
5.81152
 21
19.9561
  0
LINE
  8
0
 10
5.81152
 20
19.9561
 11
5.82227
 21
19.9365
  0
LINE
  8
0
 10
5.82227
 20
19.9365
 11
5.83203
 21
19.915
  0
LINE
  8
0
 10
5.83203
 20
19.915
 11
5.83984
 21
19.8936
  0
LINE
  8
0
 10
5.83984
 20
19.8936
 11
5.84668
 21
19.8711
  0
LINE
  8
0
 10
5.84668
 20
19.8711
 11
5.85156
 21
19.8477
  0
LINE
  8
0
 10
5.85156
 20
19.8477
 11
5.85449
 21
19.8242
  0
LINE
  8
0
 10
5.85449
 20
19.8242
 11
5.85547
 21
19.7998
  0
LINE
  8
0
 10
5.85547
 20
19.7998
 11
5.85742
 21
19.7988
  0
LINE
  8
0
 10
5.85742
 20
19.7988
 11
5.85742
 21
17.6484
  0
LINE
  8
0
 10
5.85742
 20
17.6484
 11
7.65039
 21
17.6484
  0
LINE
  8
0
 10
7.65039
 20
17.6484
 11
7.64844
 21
17.6504
  0
LINE
  8
0
 10
7.64844
 20
17.6504
 11
7.67285
 21
17.6514
  0
LINE
  8
0
 10
7.67285
 20
17.6514
 11
7.69727
 21
17.6543
  0
LINE
  8
0
 10
7.69727
 20
17.6543
 11
7.7207
 21
17.6592
  0
LINE
  8
0
 10
7.7207
 20
17.6592
 11
7.74316
 21
17.666
  0
LINE
  8
0
 10
7.74316
 20
17.666
 11
7.76465
 21
17.6738
  0
LINE
  8
0
 10
7.76465
 20
17.6738
 11
7.78613
 21
17.6846
  0
LINE
  8
0
 10
7.78613
 20
17.6846
 11
7.80566
 21
17.6953
  0
LINE
  8
0
 10
7.80566
 20
17.6953
 11
7.8252
 21
17.708
  0
LINE
  8
0
 10
7.8252
 20
17.708
 11
7.84277
 21
17.7227
  0
LINE
  8
0
 10
7.84277
 20
17.7227
 11
7.86035
 21
17.7383
  0
LINE
  8
0
 10
7.86035
 20
17.7383
 11
7.87598
 21
17.7549
  0
LINE
  8
0
 10
7.87598
 20
17.7549
 11
7.88965
 21
17.7734
  0
LINE
  8
0
 10
7.88965
 20
17.7734
 11
7.90234
 21
17.792
  0
LINE
  8
0
 10
7.90234
 20
17.792
 11
7.91406
 21
17.8125
  0
LINE
  8
0
 10
7.91406
 20
17.8125
 11
7.92383
 21
17.834
  0
LINE
  8
0
 10
7.92383
 20
17.834
 11
7.93262
 21
17.8555
  0
LINE
  8
0
 10
7.93262
 20
17.8555
 11
7.93848
 21
17.8779
  0
LINE
  8
0
 10
7.93848
 20
17.8779
 11
7.94336
 21
17.9014
  0
LINE
  8
0
 10
7.94336
 20
17.9014
 11
7.94629
 21
17.9258
  0
LINE
  8
0
 10
7.94629
 20
17.9258
 11
7.94727
 21
17.9502
  0
LINE
  8
0
 10
7.94727
 20
17.9502
 11
7.94922
 21
17.9492
  0
LINE
  8
0
 10
7.94922
 20
17.9492
 11
7.94922
 21
29.6016
  0
LINE
  8
0
 10
7.94922
 20
29.6016
 11
7.94727
 21
29.6025
  0
LINE
  8
0
 10
7.94727
 20
29.6025
 11
7.94531
 21
29.6436
  0
LINE
  8
0
 10
7.94531
 20
29.6436
 11
7.94043
 21
29.6836
  0
LINE
  8
0
 10
7.94043
 20
29.6836
 11
7.93262
 21
29.7227
  0
LINE
  8
0
 10
7.93262
 20
29.7227
 11
7.92188
 21
29.7598
  0
LINE
  8
0
 10
7.92188
 20
29.7598
 11
7.9082
 21
29.7969
  0
LINE
  8
0
 10
7.9082
 20
29.7969
 11
7.8916
 21
29.832
  0
LINE
  8
0
 10
7.8916
 20
29.832
 11
7.87305
 21
29.8652
  0
LINE
  8
0
 10
7.87305
 20
29.8652
 11
7.85156
 21
29.8975
  0
LINE
  8
0
 10
7.85156
 20
29.8975
 11
7.82715
 21
29.9277
  0
LINE
  8
0
 10
7.82715
 20
29.9277
 11
7.80176
 21
29.9561
  0
LINE
  8
0
 10
7.80176
 20
29.9561
 11
7.77344
 21
29.9814
  0
LINE
  8
0
 10
7.77344
 20
29.9814
 11
7.74316
 21
30.0059
  0
LINE
  8
0
 10
7.74316
 20
30.0059
 11
7.71191
 21
30.0273
  0
LINE
  8
0
 10
7.71191
 20
30.0273
 11
7.67773
 21
30.0459
  0
LINE
  8
0
 10
7.67773
 20
30.0459
 11
7.64355
 21
30.0625
  0
LINE
  8
0
 10
7.64355
 20
30.0625
 11
7.60645
 21
30.0762
  0
LINE
  8
0
 10
7.60645
 20
30.0762
 11
7.56934
 21
30.0879
  0
LINE
  8
0
 10
7.56934
 20
30.0879
 11
7.53027
 21
30.0957
  0
LINE
  8
0
 10
7.53027
 20
30.0957
 11
7.49023
 21
30.1006
  0
LINE
  8
0
 10
7.49023
 20
30.1006
 11
7.44922
 21
30.1016
  0
LINE
  8
0
 10
7.44922
 20
30.1016
 11
7.4502
 21
30.0996
  0
LINE
  8
0
 10
7.4502
 20
30.0996
 11
2.41699
 21
30.0996
  0
LINE
  8
0
 10
2.41699
 20
30.0996
 11
2.41602
 21
30.1016
  0
LINE
  8
0
 10
2.41602
 20
30.1016
 11
2.3916
 21
30.1016
  0
LINE
  8
0
 10
2.3916
 20
30.1016
 11
2.36719
 21
30.0977
  0
LINE
  8
0
 10
2.36719
 20
30.0977
 11
2.34375
 21
30.0938
  0
LINE
  8
0
 10
2.34375
 20
30.0938
 11
2.32129
 21
30.0869
  0
LINE
  8
0
 10
2.32129
 20
30.0869
 11
2.2998
 21
30.0781
  0
LINE
  8
0
 10
2.2998
 20
30.0781
 11
2.27832
 21
30.0684
  0
LINE
  8
0
 10
2.27832
 20
30.0684
 11
2.25879
 21
30.0576
  0
LINE
  8
0
 10
2.25879
 20
30.0576
 11
2.23926
 21
30.0439
  0
LINE
  8
0
 10
2.23926
 20
30.0439
 11
2.22168
 21
30.0303
  0
LINE
  8
0
 10
2.22168
 20
30.0303
 11
2.20508
 21
30.0146
  0
LINE
  8
0
 10
2.20508
 20
30.0146
 11
2.18945
 21
29.9971
  0
LINE
  8
0
 10
2.18945
 20
29.9971
 11
2.1748
 21
29.9795
  0
LINE
  8
0
 10
2.1748
 20
29.9795
 11
2.16211
 21
29.96
  0
LINE
  8
0
 10
2.16211
 20
29.96
 11
2.15137
 21
29.9404
  0
LINE
  8
0
 10
2.15137
 20
29.9404
 11
2.14062
 21
29.9189
  0
LINE
  8
0
 10
2.14062
 20
29.9189
 11
2.13281
 21
29.8975
  0
LINE
  8
0
 10
2.13281
 20
29.8975
 11
2.12598
 21
29.874
  0
LINE
  8
0
 10
2.12598
 20
29.874
 11
2.12109
 21
29.8516
  0
LINE
  8
0
 10
2.12109
 20
29.8516
 11
2.11816
 21
29.8271
  0
LINE
  8
0
 10
2.11816
 20
29.8271
 11
2.11719
 21
29.8027
  0
LINE
  8
0
 10
2.11719
 20
29.8027
 11
2.12012
 21
29.8018
  0
LINE
  8
0
 10
2.12012
 20
29.8018
 11
2.12012
 21
28
  0
LINE
  8
0
 10
2.12012
 20
28
 11
5.65625
 21
28
  0
LINE
  8
0
 10
5.65625
 20
28
 11
5.68066
 21
27.999
  0
LINE
  8
0
 10
5.68066
 20
27.999
 11
5.70508
 21
27.9961
  0
LINE
  8
0
 10
5.70508
 20
27.9961
 11
5.72852
 21
27.9912
  0
LINE
  8
0
 10
5.72852
 20
27.9912
 11
5.75098
 21
27.9844
  0
LINE
  8
0
 10
5.75098
 20
27.9844
 11
5.77246
 21
27.9766
  0
LINE
  8
0
 10
5.77246
 20
27.9766
 11
5.79395
 21
27.9668
  0
LINE
  8
0
 10
5.79395
 20
27.9668
 11
5.81348
 21
27.9551
  0
LINE
  8
0
 10
5.81348
 20
27.9551
 11
5.83301
 21
27.9424
  0
LINE
  8
0
 10
5.83301
 20
27.9424
 11
5.85059
 21
27.9277
  0
LINE
  8
0
 10
5.85059
 20
27.9277
 11
5.86719
 21
27.9121
  0
LINE
  8
0
 10
5.86719
 20
27.9121
 11
5.88281
 21
27.8955
  0
LINE
  8
0
 10
5.88281
 20
27.8955
 11
5.89746
 21
27.877
  0
LINE
  8
0
 10
5.89746
 20
27.877
 11
5.91016
 21
27.8584
  0
LINE
  8
0
 10
5.91016
 20
27.8584
 11
5.92188
 21
27.8379
  0
LINE
  8
0
 10
5.92188
 20
27.8379
 11
5.93164
 21
27.8174
  0
LINE
  8
0
 10
5.93164
 20
27.8174
 11
5.93945
 21
27.7949
  0
LINE
  8
0
 10
5.93945
 20
27.7949
 11
5.94629
 21
27.7725
  0
LINE
  8
0
 10
5.94629
 20
27.7725
 11
5.95117
 21
27.749
  0
LINE
  8
0
 10
5.95117
 20
27.749
 11
5.9541
 21
27.7246
  0
LINE
  8
0
 10
5.9541
 20
27.7246
 11
5.95508
 21
27.7002
  0
LINE
  8
0
 10
5.95508
 20
27.7002
 11
5.95508
 21
22.6006
  0
LINE
  8
0
 10
5.95508
 20
22.6006
 11
5.95312
 21
22.5596
  0
LINE
  8
0
 10
5.95312
 20
22.5596
 11
5.94824
 21
22.5195
  0
LINE
  8
0
 10
5.94824
 20
22.5195
 11
5.94043
 21
22.4805
  0
LINE
  8
0
 10
5.94043
 20
22.4805
 11
5.92969
 21
22.4434
  0
LINE
  8
0
 10
5.92969
 20
22.4434
 11
5.91602
 21
22.4062
  0
LINE
  8
0
 10
5.91602
 20
22.4062
 11
5.89941
 21
22.3711
  0
LINE
  8
0
 10
5.89941
 20
22.3711
 11
5.87988
 21
22.3379
  0
LINE
  8
0
 10
5.87988
 20
22.3379
 11
5.8584
 21
22.3057
  0
LINE
  8
0
 10
5.8584
 20
22.3057
 11
5.83496
 21
22.2754
  0
LINE
  8
0
 10
5.83496
 20
22.2754
 11
5.80859
 21
22.2471
  0
LINE
  8
0
 10
5.80859
 20
22.2471
 11
5.78125
 21
22.2217
  0
LINE
  8
0
 10
5.78125
 20
22.2217
 11
5.75098
 21
22.1973
  0
LINE
  8
0
 10
5.75098
 20
22.1973
 11
5.71875
 21
22.1758
  0
LINE
  8
0
 10
5.71875
 20
22.1758
 11
5.68555
 21
22.1572
  0
LINE
  8
0
 10
5.68555
 20
22.1572
 11
5.65039
 21
22.1406
  0
LINE
  8
0
 10
5.65039
 20
22.1406
 11
5.61426
 21
22.127
  0
LINE
  8
0
 10
5.61426
 20
22.127
 11
5.57617
 21
22.1152
  0
LINE
  8
0
 10
5.57617
 20
22.1152
 11
5.53809
 21
22.1074
  0
LINE
  8
0
 10
5.53809
 20
22.1074
 11
5.49805
 21
22.1025
  0
LINE
  8
0
 10
5.49805
 20
22.1025
 11
5.45703
 21
22.1016
  0
LINE
  8
0
 10
5.45703
 20
22.1016
 11
5.45801
 21
22.0986
  0
LINE
  8
0
 10
5.45801
 20
22.0986
 11
-5.50488
 21
22.0986
  0
LINE
  8
0
 10
-5.50488
 20
22.0986
 11
-5.50586
 21
22.1016
  0
LINE
  8
0
 10
-5.50586
 20
22.1016
 11
-5.54688
 21
22.1025
  0
LINE
  8
0
 10
-5.54688
 20
22.1025
 11
-5.58691
 21
22.1074
  0
LINE
  8
0
 10
-5.58691
 20
22.1074
 11
-5.62598
 21
22.1152
  0
LINE
  8
0
 10
-5.62598
 20
22.1152
 11
-5.66406
 21
22.127
  0
LINE
  8
0
 10
-5.66406
 20
22.127
 11
-5.7002
 21
22.1406
  0
LINE
  8
0
 10
-5.7002
 20
22.1406
 11
-5.73535
 21
22.1572
  0
LINE
  8
0
 10
-5.73535
 20
22.1572
 11
-5.76855
 21
22.1758
  0
LINE
  8
0
 10
-5.76855
 20
22.1758
 11
-5.7998
 21
22.1973
  0
LINE
  8
0
 10
-5.7998
 20
22.1973
 11
-5.83008
 21
22.2217
  0
LINE
  8
0
 10
-5.83008
 20
22.2217
 11
-5.8584
 21
22.2471
  0
LINE
  8
0
 10
-5.8584
 20
22.2471
 11
-5.88379
 21
22.2754
  0
LINE
  8
0
 10
-5.88379
 20
22.2754
 11
-5.9082
 21
22.3057
  0
LINE
  8
0
 10
-5.9082
 20
22.3057
 11
-5.92969
 21
22.3379
  0
LINE
  8
0
 10
-5.92969
 20
22.3379
 11
-5.94824
 21
22.3711
  0
LINE
  8
0
 10
-5.94824
 20
22.3711
 11
-5.96484
 21
22.4062
  0
LINE
  8
0
 10
-5.96484
 20
22.4062
 11
-5.97852
 21
22.4434
  0
LINE
  8
0
 10
-5.97852
 20
22.4434
 11
-5.98926
 21
22.4805
  0
LINE
  8
0
 10
-5.98926
 20
22.4805
 11
-5.99805
 21
22.5195
  0
LINE
  8
0
 10
-5.99805
 20
22.5195
 11
-6.00293
 21
22.5596
  0
LINE
  8
0
 10
-6.00293
 20
22.5596
 11
-6.00391
 21
22.6006
  0
LINE
  8
0
 10
-6.00391
 20
22.6006
 11
-6.00195
 21
22.5996
  0
LINE
  8
0
 10
-6.00195
 20
22.5996
 11
-6.00195
 21
27.6992
  0
LINE
  8
0
 10
-6.00195
 20
27.6992
 11
-6.00391
 21
27.7002
  0
LINE
  8
0
 10
-6.00391
 20
27.7002
 11
-6.00293
 21
27.7246
  0
LINE
  8
0
 10
-6.00293
 20
27.7246
 11
-6
 21
27.749
  0
LINE
  8
0
 10
-6
 20
27.749
 11
-5.99512
 21
27.7725
  0
LINE
  8
0
 10
-5.99512
 20
27.7725
 11
-5.98926
 21
27.7949
  0
LINE
  8
0
 10
-5.98926
 20
27.7949
 11
-5.98047
 21
27.8174
  0
LINE
  8
0
 10
-5.98047
 20
27.8174
 11
-5.9707
 21
27.8379
  0
LINE
  8
0
 10
-5.9707
 20
27.8379
 11
-5.95898
 21
27.8584
  0
LINE
  8
0
 10
-5.95898
 20
27.8584
 11
-5.94629
 21
27.877
  0
LINE
  8
0
 10
-5.94629
 20
27.877
 11
-5.93262
 21
27.8955
  0
LINE
  8
0
 10
-5.93262
 20
27.8955
 11
-5.91699
 21
27.9121
  0
LINE
  8
0
 10
-5.91699
 20
27.9121
 11
-5.90039
 21
27.9277
  0
LINE
  8
0
 10
-5.90039
 20
27.9277
 11
-5.88184
 21
27.9424
  0
LINE
  8
0
 10
-5.88184
 20
27.9424
 11
-5.86328
 21
27.9551
  0
LINE
  8
0
 10
-5.86328
 20
27.9551
 11
-5.84277
 21
27.9668
  0
LINE
  8
0
 10
-5.84277
 20
27.9668
 11
-5.82227
 21
27.9766
  0
LINE
  8
0
 10
-5.82227
 20
27.9766
 11
-5.7998
 21
27.9844
  0
LINE
  8
0
 10
-5.7998
 20
27.9844
 11
-5.77734
 21
27.9912
  0
LINE
  8
0
 10
-5.77734
 20
27.9912
 11
-5.75391
 21
27.9961
  0
LINE
  8
0
 10
-5.75391
 20
27.9961
 11
-5.73047
 21
27.999
  0
LINE
  8
0
 10
-5.73047
 20
27.999
 11
-5.70605
 21
28
  0
LINE
  8
0
 10
-5.70605
 20
28
 11
-2.16699
 21
28
  0
LINE
  8
0
 10
-2.16699
 20
28
 11
-2.16699
 21
29.8027
  0
LINE
  8
0
 10
-2.16699
 20
29.8027
 11
-2.16797
 21
29.8271
  0
LINE
  8
0
 10
-2.16797
 20
29.8271
 11
-2.1709
 21
29.8516
  0
LINE
  8
0
 10
-2.1709
 20
29.8516
 11
-2.17578
 21
29.875
  0
LINE
  8
0
 10
-2.17578
 20
29.875
 11
-2.18164
 21
29.8975
  0
LINE
  8
0
 10
-2.18164
 20
29.8975
 11
-2.19043
 21
29.9189
  0
LINE
  8
0
 10
-2.19043
 20
29.9189
 11
-2.2002
 21
29.9404
  0
LINE
  8
0
 10
-2.2002
 20
29.9404
 11
-2.21191
 21
29.96
  0
LINE
  8
0
 10
-2.21191
 20
29.96
 11
-2.22461
 21
29.9795
  0
LINE
  8
0
 10
-2.22461
 20
29.9795
 11
-2.23828
 21
29.9971
  0
LINE
  8
0
 10
-2.23828
 20
29.9971
 11
-2.25391
 21
30.0146
  0
LINE
  8
0
 10
-2.25391
 20
30.0146
 11
-2.27148
 21
30.0303
  0
LINE
  8
0
 10
-2.27148
 20
30.0303
 11
-2.28906
 21
30.0439
  0
LINE
  8
0
 10
-2.28906
 20
30.0439
 11
-2.30762
 21
30.0576
  0
LINE
  8
0
 10
-2.30762
 20
30.0576
 11
-2.32812
 21
30.0684
  0
LINE
  8
0
 10
-2.32812
 20
30.0684
 11
-2.34863
 21
30.0781
  0
LINE
  8
0
 10
-2.34863
 20
30.0781
 11
-2.37109
 21
30.0869
  0
LINE
  8
0
 10
-2.37109
 20
30.0869
 11
-2.39355
 21
30.0938
  0
LINE
  8
0
 10
-2.39355
 20
30.0938
 11
-2.44043
 21
30.1016
  0
LINE
  8
0
 10
-2.44043
 20
30.1016
 11
-2.46484
 21
30.1016
  0
LINE
  8
0
 10
-2.46484
 20
30.1016
 11
-2.46387
 21
30.0996
  0
LINE
  8
0
 10
-2.46387
 20
30.0996
 11
-7.49707
 21
30.0996
  0
LINE
  8
0
 10
-7.49707
 20
30.0996
 11
-7.49805
 21
30.1016
  0
LINE
  8
0
 10
-7.49805
 20
30.1016
 11
-7.53906
 21
30.1006
  0
LINE
  8
0
 10
-7.53906
 20
30.1006
 11
-7.5791
 21
30.0957
  0
LINE
  8
0
 10
-7.5791
 20
30.0957
 11
-7.61816
 21
30.0879
  0
LINE
  8
0
 10
-7.61816
 20
30.0879
 11
-7.65625
 21
30.0762
  0
LINE
  8
0
 10
-7.65625
 20
30.0762
 11
-7.69238
 21
30.0625
  0
LINE
  8
0
 10
-7.69238
 20
30.0625
 11
-7.72754
 21
30.0459
  0
LINE
  8
0
 10
-7.72754
 20
30.0459
 11
-7.76074
 21
30.0273
  0
LINE
  8
0
 10
-7.76074
 20
30.0273
 11
-7.79297
 21
30.0059
  0
LINE
  8
0
 10
-7.79297
 20
30.0059
 11
-7.82227
 21
29.9814
  0
LINE
  8
0
 10
-7.82227
 20
29.9814
 11
-7.85059
 21
29.9561
  0
LINE
  8
0
 10
-7.85059
 20
29.9561
 11
-7.87695
 21
29.9277
  0
LINE
  8
0
 10
-7.87695
 20
29.9277
 11
-7.90039
 21
29.8975
  0
LINE
  8
0
 10
-7.90039
 20
29.8975
 11
-7.92188
 21
29.8652
  0
LINE
  8
0
 10
-7.92188
 20
29.8652
 11
-7.94141
 21
29.832
  0
LINE
  8
0
 10
-7.94141
 20
29.832
 11
-7.95801
 21
29.7969
  0
LINE
  8
0
 10
-7.95801
 20
29.7969
 11
-7.97168
 21
29.7598
  0
LINE
  8
0
 10
-7.97168
 20
29.7598
 11
-7.98242
 21
29.7227
  0
LINE
  8
0
 10
-7.98242
 20
29.7227
 11
-7.99023
 21
29.6836
  0
LINE
  8
0
 10
-7.99023
 20
29.6836
 11
-7.99512
 21
29.6436
  0
LINE
  8
0
 10
-7.99512
 20
29.6436
 11
-7.99707
 21
29.6025
  0
LINE
  8
0
 10
-7.99707
 20
29.6025
 11
-7.99707
 21
17.9502
  0
LINE
  8
0
 10
-7.99707
 20
17.9502
 11
-7.99609
 21
17.9258
  0
LINE
  8
0
 10
-7.99609
 20
17.9258
 11
-7.99316
 21
17.9014
  0
LINE
  8
0
 10
-7.99316
 20
17.9014
 11
-7.98828
 21
17.8779
  0
LINE
  8
0
 10
-7.98828
 20
17.8779
 11
-7.98145
 21
17.8555
  0
LINE
  8
0
 10
-7.98145
 20
17.8555
 11
-7.97363
 21
17.834
  0
LINE
  8
0
 10
-7.97363
 20
17.834
 11
-7.96289
 21
17.8125
  0
LINE
  8
0
 10
-7.96289
 20
17.8125
 11
-7.95215
 21
17.792
  0
LINE
  8
0
 10
-7.95215
 20
17.792
 11
-7.93945
 21
17.7734
  0
LINE
  8
0
 10
-7.93945
 20
17.7734
 11
-7.9248
 21
17.7549
  0
LINE
  8
0
 10
-7.9248
 20
17.7549
 11
-7.90918
 21
17.7383
  0
LINE
  8
0
 10
-7.90918
 20
17.7383
 11
-7.89258
 21
17.7227
  0
LINE
  8
0
 10
-7.89258
 20
17.7227
 11
-7.87402
 21
17.708
  0
LINE
  8
0
 10
-7.87402
 20
17.708
 11
-7.85547
 21
17.6953
  0
LINE
  8
0
 10
-7.85547
 20
17.6953
 11
-7.81445
 21
17.6738
  0
LINE
  8
0
 10
-7.81445
 20
17.6738
 11
-7.79297
 21
17.666
  0
LINE
  8
0
 10
-7.79297
 20
17.666
 11
-7.76953
 21
17.6592
  0
LINE
  8
0
 10
-7.76953
 20
17.6592
 11
-7.74707
 21
17.6543
  0
LINE
  8
0
 10
-7.74707
 20
17.6543
 11
-7.72266
 21
17.6514
  0
LINE
  8
0
 10
-7.72266
 20
17.6514
 11
-7.69824
 21
17.6504
  0
LINE
  8
0
 10
-7.69824
 20
17.6504
 11
-7.69727
 21
17.6484
  0
LINE
  8
0
 10
-7.69727
 20
17.6484
 11
-5.9043
 21
17.6484
  0
LINE
  8
0
 10
-5.9043
 20
17.6484
 11
-5.9043
 21
19.7998
  0
LINE
  8
0
 10
-5.9043
 20
19.7998
 11
-5.90332
 21
19.8242
  0
LINE
  8
0
 10
-5.90332
 20
19.8242
 11
-5.90039
 21
19.8477
  0
LINE
  8
0
 10
-5.90039
 20
19.8477
 11
-5.89551
 21
19.8711
  0
LINE
  8
0
 10
-5.89551
 20
19.8711
 11
-5.88867
 21
19.8945
  0
LINE
  8
0
 10
-5.88867
 20
19.8945
 11
-5.88086
 21
19.916
  0
LINE
  8
0
 10
-5.88086
 20
19.916
 11
-5.87109
 21
19.9375
  0
LINE
  8
0
 10
-5.87109
 20
19.9375
 11
-5.85938
 21
19.957
  0
LINE
  8
0
 10
-5.85938
 20
19.957
 11
-5.84668
 21
19.9766
  0
LINE
  8
0
 10
-5.84668
 20
19.9766
 11
-5.83301
 21
19.9941
  0
LINE
  8
0
 10
-5.83301
 20
19.9941
 11
-5.81738
 21
20.0117
  0
LINE
  8
0
 10
-5.81738
 20
20.0117
 11
-5.7998
 21
20.0273
  0
LINE
  8
0
 10
-5.7998
 20
20.0273
 11
-5.78223
 21
20.041
  0
LINE
  8
0
 10
-5.78223
 20
20.041
 11
-5.7627
 21
20.0547
  0
LINE
  8
0
 10
-5.7627
 20
20.0547
 11
-5.74316
 21
20.0654
  0
LINE
  8
0
 10
-5.74316
 20
20.0654
 11
-5.72168
 21
20.0752
  0
LINE
  8
0
 10
-5.72168
 20
20.0752
 11
-5.7002
 21
20.084
  0
LINE
  8
0
 10
-5.7002
 20
20.084
 11
-5.67773
 21
20.0908
  0
LINE
  8
0
 10
-5.67773
 20
20.0908
 11
-5.6543
 21
20.0947
  0
LINE
  8
0
 10
-5.6543
 20
20.0947
 11
-5.62988
 21
20.0986
  0
LINE
  8
0
 10
-5.62988
 20
20.0986
 11
-5.60547
 21
20.0996
  0
LINE
  8
0
 10
-5.60547
 20
20.0996
 11
-2.11719
 21
20.0996
  0
LINE
  8
0
 10
-2.11719
 20
20.0996
 11
-2.11816
 21
20.1016
  0
LINE
  8
0
 10
-2.11816
 20
20.1016
 11
-2.03613
 21
20.0977
  0
LINE
  8
0
 10
-2.03613
 20
20.0977
 11
-1.95605
 21
20.0879
  0
LINE
  8
0
 10
-1.95605
 20
20.0879
 11
-1.87891
 21
20.0723
  0
LINE
  8
0
 10
-1.87891
 20
20.0723
 11
-1.80273
 21
20.0508
  0
LINE
  8
0
 10
-1.80273
 20
20.0508
 11
-1.72949
 21
20.0225
  0
LINE
  8
0
 10
-1.72949
 20
20.0225
 11
-1.66016
 21
19.9893
  0
LINE
  8
0
 10
-1.66016
 20
19.9893
 11
-1.59277
 21
19.9512
  0
LINE
  8
0
 10
-1.59277
 20
19.9512
 11
-1.5293
 21
19.9082
  0
LINE
  8
0
 10
-1.5293
 20
19.9082
 11
-1.46875
 21
19.8604
  0
LINE
  8
0
 10
-1.46875
 20
19.8604
 11
-1.41309
 21
19.8086
  0
LINE
  8
0
 10
-1.41309
 20
19.8086
 11
-1.36035
 21
19.752
  0
LINE
  8
0
 10
-1.36035
 20
19.752
 11
-1.31348
 21
19.6914
  0
LINE
  8
0
 10
-1.31348
 20
19.6914
 11
-1.27051
 21
19.6279
  0
LINE
  8
0
 10
-1.27051
 20
19.6279
 11
-1.23242
 21
19.5605
  0
LINE
  8
0
 10
-1.23242
 20
19.5605
 11
-1.19922
 21
19.4902
  0
LINE
  8
0
 10
-1.19922
 20
19.4902
 11
-1.17188
 21
19.417
  0
LINE
  8
0
 10
-1.17188
 20
19.417
 11
-1.14941
 21
19.3408
  0
LINE
  8
0
 10
-1.14941
 20
19.3408
 11
-1.13379
 21
19.2627
  0
LINE
  8
0
 10
-1.13379
 20
19.2627
 11
-1.12402
 21
19.1826
  0
LINE
  8
0
 10
-1.12402
 20
19.1826
 11
-1.12109
 21
19.1006
  0
LINE
  8
0
 10
-1.12109
 20
19.1006
 11
-1.12109
 21
8.12793
  0
LINE
  8
0
 10
-1.12109
 20
8.12793
 11
-1.12305
 21
8.06055
  0
LINE
  8
0
 10
-1.12305
 20
8.06055
 11
-1.12988
 21
7.99316
  0
LINE
  8
0
 10
-1.12988
 20
7.99316
 11
-1.14062
 21
7.92773
  0
LINE
  8
0
 10
-1.14062
 20
7.92773
 11
-1.15625
 21
7.86328
  0
LINE
  8
0
 10
-1.15625
 20
7.86328
 11
-1.17578
 21
7.80078
  0
LINE
  8
0
 10
-1.17578
 20
7.80078
 11
-1.19824
 21
7.74023
  0
LINE
  8
0
 10
-1.19824
 20
7.74023
 11
-1.22559
 21
7.68066
  0
LINE
  8
0
 10
-1.22559
 20
7.68066
 11
-1.25684
 21
7.62402
  0
LINE
  8
0
 10
-1.25684
 20
7.62402
 11
-1.29102
 21
7.56836
  0
LINE
  8
0
 10
-1.29102
 20
7.56836
 11
-1.3291
 21
7.5166
  0
LINE
  8
0
 10
-1.3291
 20
7.5166
 11
-1.37012
 21
7.4668
  0
LINE
  8
0
 10
-1.37012
 20
7.4668
 11
-1.41406
 21
7.41895
  0
LINE
  8
0
 10
-1.41406
 20
7.41895
 11
-1.46094
 21
7.375
  0
LINE
  8
0
 10
-1.46094
 20
7.375
 11
-1.51172
 21
7.33398
  0
LINE
  8
0
 10
-1.51172
 20
7.33398
 11
-1.56445
 21
7.2959
  0
LINE
  8
0
 10
-1.56445
 20
7.2959
 11
-1.62012
 21
7.26074
  0
LINE
  8
0
 10
-1.62012
 20
7.26074
 11
-1.67773
 21
7.22949
  0
LINE
  8
0
 10
-1.67773
 20
7.22949
 11
-1.73828
 21
7.20215
  0
LINE
  8
0
 10
-1.73828
 20
7.20215
 11
-1.80078
 21
7.17871
  0
LINE
  8
0
 10
-1.80078
 20
7.17871
 11
-1.86621
 21
7.16016
  0
LINE
  8
0
 10
-1.86621
 20
7.16016
 11
-2.04492
 21
7.11035
  0
LINE
  8
0
 10
-2.04492
 20
7.11035
 11
-2.22266
 21
7.05664
  0
LINE
  8
0
 10
-2.22266
 20
7.05664
 11
-2.39941
 21
6.99805
  0
LINE
  8
0
 10
-2.39941
 20
6.99805
 11
-2.57324
 21
6.93457
  0
LINE
  8
0
 10
-2.57324
 20
6.93457
 11
-2.74609
 21
6.86719
  0
LINE
  8
0
 10
-2.74609
 20
6.86719
 11
-2.91602
 21
6.7959
  0
LINE
  8
0
 10
-2.91602
 20
6.7959
 11
-3.08496
 21
6.71973
  0
LINE
  8
0
 10
-3.08496
 20
6.71973
 11
-3.25195
 21
6.63965
  0
LINE
  8
0
 10
-3.25195
 20
6.63965
 11
-3.41602
 21
6.55566
  0
LINE
  8
0
 10
-3.41602
 20
6.55566
 11
-3.57812
 21
6.46777
  0
LINE
  8
0
 10
-3.57812
 20
6.46777
 11
-3.73828
 21
6.375
  0
LINE
  8
0
 10
-3.73828
 20
6.375
 11
-3.89551
 21
6.27832
  0
LINE
  8
0
 10
-3.89551
 20
6.27832
 11
-4.05078
 21
6.17773
  0
LINE
  8
0
 10
-4.05078
 20
6.17773
 11
-4.20312
 21
6.07324
  0
LINE
  8
0
 10
-4.20312
 20
6.07324
 11
-4.35352
 21
5.96484
  0
LINE
  8
0
 10
-4.35352
 20
5.96484
 11
-4.50098
 21
5.85254
  0
LINE
  8
0
 10
-4.50098
 20
5.85254
 11
-4.64551
 21
5.73633
  0
LINE
  8
0
 10
-4.64551
 20
5.73633
 11
-4.78711
 21
5.61621
  0
LINE
  8
0
 10
-4.78711
 20
5.61621
 11
-4.92578
 21
5.49219
  0
LINE
  8
0
 10
-4.92578
 20
5.49219
 11
-5.06152
 21
5.36426
  0
LINE
  8
0
 10
-5.06152
 20
5.36426
 11
-5.08301
 21
5.34473
  0
LINE
  8
0
 10
-5.08301
 20
5.34473
 11
-5.10645
 21
5.32617
  0
LINE
  8
0
 10
-5.10645
 20
5.32617
 11
-5.13086
 21
5.30859
  0
LINE
  8
0
 10
-5.13086
 20
5.30859
 11
-5.15527
 21
5.29395
  0
LINE
  8
0
 10
-5.15527
 20
5.29395
 11
-5.18066
 21
5.2793
  0
LINE
  8
0
 10
-5.18066
 20
5.2793
 11
-5.20703
 21
5.26758
  0
LINE
  8
0
 10
-5.20703
 20
5.26758
 11
-5.2334
 21
5.25684
  0
LINE
  8
0
 10
-5.2334
 20
5.25684
 11
-5.26074
 21
5.24707
  0
LINE
  8
0
 10
-5.26074
 20
5.24707
 11
-5.28906
 21
5.23926
  0
LINE
  8
0
 10
-5.28906
 20
5.23926
 11
-5.31641
 21
5.2334
  0
LINE
  8
0
 10
-5.31641
 20
5.2334
 11
-5.34473
 21
5.22949
  0
LINE
  8
0
 10
-5.34473
 20
5.22949
 11
-5.37402
 21
5.22656
  0
LINE
  8
0
 10
-5.37402
 20
5.22656
 11
-5.40234
 21
5.22559
  0
LINE
  8
0
 10
-5.40234
 20
5.22559
 11
-5.43164
 21
5.22656
  0
LINE
  8
0
 10
-5.43164
 20
5.22656
 11
-5.45996
 21
5.22852
  0
LINE
  8
0
 10
-5.45996
 20
5.22852
 11
-5.48926
 21
5.23242
  0
LINE
  8
0
 10
-5.48926
 20
5.23242
 11
-5.51758
 21
5.23828
  0
LINE
  8
0
 10
-5.51758
 20
5.23828
 11
-5.5459
 21
5.24512
  0
LINE
  8
0
 10
-5.5459
 20
5.24512
 11
-5.57422
 21
5.25488
  0
LINE
  8
0
 10
-5.57422
 20
5.25488
 11
-5.60156
 21
5.26562
  0
LINE
  8
0
 10
-5.60156
 20
5.26562
 11
-5.62891
 21
5.27832
  0
LINE
  8
0
 10
-5.62891
 20
5.27832
 11
-5.6543
 21
5.29199
  0
LINE
  8
0
 10
-5.6543
 20
5.29199
 11
-5.67969
 21
5.30762
  0
LINE
  8
0
 10
-5.67969
 20
5.30762
 11
-5.70312
 21
5.32422
  0
LINE
  8
0
 10
-5.70312
 20
5.32422
 11
-5.72656
 21
5.34277
  0
LINE
  8
0
 10
-5.72656
 20
5.34277
 11
-5.74805
 21
5.36133
  0
LINE
  8
0
 10
-5.74805
 20
5.36133
 11
-5.76855
 21
5.38184
  0
LINE
  8
0
 10
-5.76855
 20
5.38184
 11
-5.78711
 21
5.40332
  0
LINE
  8
0
 10
-5.78711
 20
5.40332
 11
-5.80566
 21
5.42578
  0
LINE
  8
0
 10
-5.80566
 20
5.42578
 11
-5.83691
 21
5.47461
  0
LINE
  8
0
 10
-5.83691
 20
5.47461
 11
-5.85059
 21
5.5
  0
LINE
  8
0
 10
-5.85059
 20
5.5
 11
-5.8623
 21
5.52539
  0
LINE
  8
0
 10
-5.8623
 20
5.52539
 11
-5.87402
 21
5.55273
  0
LINE
  8
0
 10
-5.87402
 20
5.55273
 11
-5.88281
 21
5.58008
  0
LINE
  8
0
 10
-5.88281
 20
5.58008
 11
-5.89062
 21
5.6084
  0
LINE
  8
0
 10
-5.89062
 20
5.6084
 11
-5.89648
 21
5.63672
  0
LINE
  8
0
 10
-5.89648
 20
5.63672
 11
-5.90039
 21
5.66602
  0
LINE
  8
0
 10
-5.90039
 20
5.66602
 11
-5.90332
 21
5.69531
  0
LINE
  8
0
 10
-5.90332
 20
5.69531
 11
-5.9043
 21
5.72559
  0
LINE
  8
0
 10
-5.9043
 20
5.72559
 11
-5.9043
 21
13.3467
  0
LINE
  8
0
 10
-5.9043
 20
13.3467
 11
-7.67676
 21
13.3467
  0
LINE
  8
0
 10
-7.67676
 20
13.3467
 11
-7.73047
 21
13.4004
  0
LINE
  8
0
 10
-7.73047
 20
13.4004
 11
-7.80078
 21
13.3301
  0
LINE
  8
0
 10
-7.80078
 20
13.3301
 11
-7.81445
 21
13.3252
  0
LINE
  8
0
 10
-7.81445
 20
13.3252
 11
-7.83496
 21
13.3154
  0
LINE
  8
0
 10
-7.83496
 20
13.3154
 11
-7.85547
 21
13.3037
  0
LINE
  8
0
 10
-7.85547
 20
13.3037
 11
-7.87402
 21
13.291
  0
LINE
  8
0
 10
-7.87402
 20
13.291
 11
-7.89258
 21
13.2764
  0
LINE
  8
0
 10
-7.89258
 20
13.2764
 11
-7.90918
 21
13.2607
  0
LINE
  8
0
 10
-7.90918
 20
13.2607
 11
-7.9248
 21
13.2441
  0
LINE
  8
0
 10
-7.9248
 20
13.2441
 11
-7.93945
 21
13.2256
  0
LINE
  8
0
 10
-7.93945
 20
13.2256
 11
-7.95215
 21
13.207
  0
LINE
  8
0
 10
-7.95215
 20
13.207
 11
-7.97363
 21
13.166
  0
LINE
  8
0
 10
-7.97363
 20
13.166
 11
-7.97852
 21
13.1523
  0
LINE
  8
0
 10
-7.97852
 20
13.1523
 11
-8.05078
 21
13.0801
  0
LINE
  8
0
 10
-8.05078
 20
13.0801
 11
-7.99707
 21
13.0254
  0
LINE
  8
0
 10
-7.99707
 20
13.0254
 11
-7.99707
 21
0.0957031
  0
LINE
  8
0
 10
-7.99707
 20
0.0957031
 11
-7.99902
 21
0.0966797
  0
LINE
  8
0
 10
-7.99902
 20
0.0966797
 11
-7.98926
 21
-0.300781
  0
LINE
  8
0
 10
-7.98926
 20
-0.300781
 11
-7.95996
 21
-0.694336
  0
LINE
  8
0
 10
-7.95996
 20
-0.694336
 11
-7.91211
 21
-1.08398
  0
LINE
  8
0
 10
-7.91211
 20
-1.08398
 11
-7.84473
 21
-1.46875
  0
LINE
  8
0
 10
-7.84473
 20
-1.46875
 11
-7.75977
 21
-1.84961
  0
LINE
  8
0
 10
-7.75977
 20
-1.84961
 11
-7.65625
 21
-2.22363
  0
LINE
  8
0
 10
-7.65625
 20
-2.22363
 11
-7.53516
 21
-2.5918
  0
LINE
  8
0
 10
-7.53516
 20
-2.5918
 11
-7.39648
 21
-2.95312
  0
LINE
  8
0
 10
-7.39648
 20
-2.95312
 11
-7.24121
 21
-3.30762
  0
LINE
  8
0
 10
-7.24121
 20
-3.30762
 11
-7.06934
 21
-3.65332
  0
LINE
  8
0
 10
-7.06934
 20
-3.65332
 11
-6.88086
 21
-3.99023
  0
LINE
  8
0
 10
-6.88086
 20
-3.99023
 11
-6.67578
 21
-4.31836
  0
LINE
  8
0
 10
-6.67578
 20
-4.31836
 11
-6.45508
 21
-4.63574
  0
LINE
  8
0
 10
-6.45508
 20
-4.63574
 11
-6.21973
 21
-4.94238
  0
LINE
  8
0
 10
-6.21973
 20
-4.94238
 11
-5.96777
 21
-5.23926
  0
LINE
  8
0
 10
-5.96777
 20
-5.23926
 11
-5.70215
 21
-5.52246
  0
LINE
  8
0
 10
-5.70215
 20
-5.52246
 11
-5.42188
 21
-5.79492
  0
LINE
  8
0
 10
-5.42188
 20
-5.79492
 11
-5.12695
 21
-6.05273
  0
LINE
  8
0
 10
-5.12695
 20
-6.05273
 11
-4.81934
 21
-6.29785
  0
LINE
  8
0
 10
-4.81934
 20
-6.29785
 11
-4.49707
 21
-6.52832
  0
LINE
  8
0
 10
-4.49707
 20
-6.52832
 11
-4.16406
 21
-6.74316
  0
LINE
  8
0
 10
-4.16406
 20
-6.74316
 11
-3.82324
 21
-6.93945
  0
LINE
  8
0
 10
-3.82324
 20
-6.93945
 11
-3.47461
 21
-7.11816
  0
LINE
  8
0
 10
-3.47461
 20
-7.11816
 11
-3.11914
 21
-7.27832
  0
LINE
  8
0
 10
-3.11914
 20
-7.27832
 11
-2.75781
 21
-7.4209
  0
LINE
  8
0
 10
-2.75781
 20
-7.4209
 11
-2.39062
 21
-7.54492
  0
LINE
  8
0
 10
-2.39062
 20
-7.54492
 11
-2.01953
 21
-7.65137
  0
LINE
  8
0
 10
-2.01953
 20
-7.65137
 11
-1.64355
 21
-7.73926
  0
LINE
  8
0
 10
-1.64355
 20
-7.73926
 11
-1.26465
 21
-7.80859
  0
LINE
  8
0
 10
-1.26465
 20
-7.80859
 11
-0.882812
 21
-7.85938
  0
LINE
  8
0
 10
-0.882812
 20
-7.85938
 11
-0.499023
 21
-7.8916
  0
LINE
  8
0
 10
-0.499023
 20
-7.8916
 11
-0.113281
 21
-7.90527
  0
LINE
  8
0
 10
-0.113281
 20
-7.90527
 11
0.272461
 21
-7.89941
  0
LINE
  8
0
 10
-2.47461
 20
-29.8955
 11
-2.4502
 21
-29.8945
  0
LINE
  8
0
 10
-2.4502
 20
-29.8945
 11
-2.42578
 21
-29.8916
  0
LINE
  8
0
 10
-2.42578
 20
-29.8916
 11
-2.40234
 21
-29.8867
  0
LINE
  8
0
 10
-2.40234
 20
-29.8867
 11
-2.37988
 21
-29.8809
  0
LINE
  8
0
 10
-2.37988
 20
-29.8809
 11
-2.3584
 21
-29.8721
  0
LINE
  8
0
 10
-2.3584
 20
-29.8721
 11
-2.33691
 21
-29.8623
  0
LINE
  8
0
 10
-2.33691
 20
-29.8623
 11
-2.31738
 21
-29.8506
  0
LINE
  8
0
 10
-2.31738
 20
-29.8506
 11
-2.29785
 21
-29.8379
  0
LINE
  8
0
 10
-2.29785
 20
-29.8379
 11
-2.28027
 21
-29.8232
  0
LINE
  8
0
 10
-2.28027
 20
-29.8232
 11
-2.2627
 21
-29.8076
  0
LINE
  8
0
 10
-2.2627
 20
-29.8076
 11
-2.24805
 21
-29.791
  0
LINE
  8
0
 10
-2.24805
 20
-29.791
 11
-2.2334
 21
-29.7734
  0
LINE
  8
0
 10
-2.2334
 20
-29.7734
 11
-2.2207
 21
-29.7539
  0
LINE
  8
0
 10
-2.2207
 20
-29.7539
 11
-2.20898
 21
-29.7344
  0
LINE
  8
0
 10
-2.20898
 20
-29.7344
 11
-2.19922
 21
-29.7129
  0
LINE
  8
0
 10
-2.19922
 20
-29.7129
 11
-2.19141
 21
-29.6914
  0
LINE
  8
0
 10
-2.19141
 20
-29.6914
 11
-2.18457
 21
-29.668
  0
LINE
  8
0
 10
-2.18457
 20
-29.668
 11
-2.17969
 21
-29.6445
  0
LINE
  8
0
 10
-2.17969
 20
-29.6445
 11
-2.17676
 21
-29.6211
  0
LINE
  8
0
 10
-2.17676
 20
-29.6211
 11
-2.17578
 21
-29.5967
  0
LINE
  8
0
 10
-2.17578
 20
-29.5967
 11
-2.17383
 21
-29.5977
  0
LINE
  8
0
 10
-2.17383
 20
-29.5977
 11
-2.17383
 21
-27.7959
  0
LINE
  8
0
 10
-2.17383
 20
-27.7959
 11
-5.71289
 21
-27.7959
  0
LINE
  8
0
 10
-5.71289
 20
-27.7959
 11
-5.7373
 21
-27.7949
  0
LINE
  8
0
 10
-5.7373
 20
-27.7949
 11
-5.76074
 21
-27.792
  0
LINE
  8
0
 10
-5.76074
 20
-27.792
 11
-5.78418
 21
-27.7871
  0
LINE
  8
0
 10
-5.78418
 20
-27.7871
 11
-5.80664
 21
-27.7803
  0
LINE
  8
0
 10
-5.80664
 20
-27.7803
 11
-5.8291
 21
-27.7725
  0
LINE
  8
0
 10
-5.8291
 20
-27.7725
 11
-5.84961
 21
-27.7627
  0
LINE
  8
0
 10
-5.84961
 20
-27.7627
 11
-5.87012
 21
-27.751
  0
LINE
  8
0
 10
-5.87012
 20
-27.751
 11
-5.88867
 21
-27.7383
  0
LINE
  8
0
 10
-5.88867
 20
-27.7383
 11
-5.90723
 21
-27.7236
  0
LINE
  8
0
 10
-5.90723
 20
-27.7236
 11
-5.92383
 21
-27.708
  0
LINE
  8
0
 10
-5.92383
 20
-27.708
 11
-5.93945
 21
-27.6914
  0
LINE
  8
0
 10
-5.93945
 20
-27.6914
 11
-5.95312
 21
-27.6729
  0
LINE
  8
0
 10
-5.95312
 20
-27.6729
 11
-5.96582
 21
-27.6543
  0
LINE
  8
0
 10
-5.96582
 20
-27.6543
 11
-5.97754
 21
-27.6338
  0
LINE
  8
0
 10
-5.97754
 20
-27.6338
 11
-5.9873
 21
-27.6133
  0
LINE
  8
0
 10
-5.9873
 20
-27.6133
 11
-5.99609
 21
-27.5908
  0
LINE
  8
0
 10
-5.99609
 20
-27.5908
 11
-6.00195
 21
-27.5684
  0
LINE
  8
0
 10
-6.00195
 20
-27.5684
 11
-6.00684
 21
-27.5449
  0
LINE
  8
0
 10
-6.00684
 20
-27.5449
 11
-6.00977
 21
-27.5205
  0
LINE
  8
0
 10
-6.00977
 20
-27.5205
 11
-6.01074
 21
-27.4961
  0
LINE
  8
0
 10
-6.01074
 20
-27.4961
 11
-6.01074
 21
-22.3945
  0
LINE
  8
0
 10
-6.01074
 20
-22.3945
 11
-6.00879
 21
-22.3535
  0
LINE
  8
0
 10
-6.00879
 20
-22.3535
 11
-6.00391
 21
-22.3135
  0
LINE
  8
0
 10
-6.00391
 20
-22.3135
 11
-5.99609
 21
-22.2744
  0
LINE
  8
0
 10
-5.99609
 20
-22.2744
 11
-5.98535
 21
-22.2363
  0
LINE
  8
0
 10
-5.98535
 20
-22.2363
 11
-5.97168
 21
-22.2002
  0
LINE
  8
0
 10
-5.97168
 20
-22.2002
 11
-5.95508
 21
-22.165
  0
LINE
  8
0
 10
-5.95508
 20
-22.165
 11
-5.93652
 21
-22.1309
  0
LINE
  8
0
 10
-5.93652
 20
-22.1309
 11
-5.91504
 21
-22.0996
  0
LINE
  8
0
 10
-5.91504
 20
-22.0996
 11
-5.89062
 21
-22.0693
  0
LINE
  8
0
 10
-5.89062
 20
-22.0693
 11
-5.86523
 21
-22.041
  0
LINE
  8
0
 10
-5.86523
 20
-22.041
 11
-5.83691
 21
-22.0146
  0
LINE
  8
0
 10
-5.83691
 20
-22.0146
 11
-5.80664
 21
-21.9912
  0
LINE
  8
0
 10
-5.80664
 20
-21.9912
 11
-5.77539
 21
-21.9697
  0
LINE
  8
0
 10
-5.77539
 20
-21.9697
 11
-5.74219
 21
-21.9502
  0
LINE
  8
0
 10
-5.74219
 20
-21.9502
 11
-5.70703
 21
-21.9336
  0
LINE
  8
0
 10
-5.70703
 20
-21.9336
 11
-5.66992
 21
-21.9199
  0
LINE
  8
0
 10
-5.66992
 20
-21.9199
 11
-5.63281
 21
-21.9092
  0
LINE
  8
0
 10
-5.63281
 20
-21.9092
 11
-5.59375
 21
-21.9014
  0
LINE
  8
0
 10
-5.59375
 20
-21.9014
 11
-5.55371
 21
-21.8965
  0
LINE
  8
0
 10
-5.55371
 20
-21.8965
 11
-5.5127
 21
-21.8945
  0
LINE
  8
0
 10
-5.5127
 20
-21.8945
 11
5.4502
 21
-21.8945
  0
LINE
  8
0
 10
5.4502
 20
-21.8945
 11
5.49121
 21
-21.8965
  0
LINE
  8
0
 10
5.49121
 20
-21.8965
 11
5.53125
 21
-21.9014
  0
LINE
  8
0
 10
5.53125
 20
-21.9014
 11
5.56934
 21
-21.9092
  0
LINE
  8
0
 10
5.56934
 20
-21.9092
 11
5.60742
 21
-21.9199
  0
LINE
  8
0
 10
5.60742
 20
-21.9199
 11
5.64355
 21
-21.9336
  0
LINE
  8
0
 10
5.64355
 20
-21.9336
 11
5.67871
 21
-21.9502
  0
LINE
  8
0
 10
5.67871
 20
-21.9502
 11
5.71191
 21
-21.9697
  0
LINE
  8
0
 10
5.71191
 20
-21.9697
 11
5.74414
 21
-21.9912
  0
LINE
  8
0
 10
5.74414
 20
-21.9912
 11
5.77441
 21
-22.0146
  0
LINE
  8
0
 10
5.77441
 20
-22.0146
 11
5.80176
 21
-22.041
  0
LINE
  8
0
 10
5.80176
 20
-22.041
 11
5.82812
 21
-22.0693
  0
LINE
  8
0
 10
5.82812
 20
-22.0693
 11
5.85156
 21
-22.0996
  0
LINE
  8
0
 10
5.85156
 20
-22.0996
 11
5.87305
 21
-22.1309
  0
LINE
  8
0
 10
5.87305
 20
-22.1309
 11
5.89258
 21
-22.165
  0
LINE
  8
0
 10
5.89258
 20
-22.165
 11
5.90918
 21
-22.2002
  0
LINE
  8
0
 10
5.90918
 20
-22.2002
 11
5.92285
 21
-22.2363
  0
LINE
  8
0
 10
5.92285
 20
-22.2363
 11
5.93359
 21
-22.2744
  0
LINE
  8
0
 10
5.93359
 20
-22.2744
 11
5.94141
 21
-22.3135
  0
LINE
  8
0
 10
5.94141
 20
-22.3135
 11
5.94629
 21
-22.3535
  0
LINE
  8
0
 10
5.94629
 20
-22.3535
 11
5.94824
 21
-22.3945
  0
LINE
  8
0
 10
5.94824
 20
-22.3945
 11
5.94824
 21
-27.4961
  0
LINE
  8
0
 10
5.94824
 20
-27.4961
 11
5.94727
 21
-27.5205
  0
LINE
  8
0
 10
5.94727
 20
-27.5205
 11
5.94434
 21
-27.5449
  0
LINE
  8
0
 10
5.94434
 20
-27.5449
 11
5.93945
 21
-27.5684
  0
LINE
  8
0
 10
5.93945
 20
-27.5684
 11
5.93262
 21
-27.5908
  0
LINE
  8
0
 10
5.93262
 20
-27.5908
 11
5.9248
 21
-27.6133
  0
LINE
  8
0
 10
5.9248
 20
-27.6133
 11
5.91504
 21
-27.6338
  0
LINE
  8
0
 10
5.91504
 20
-27.6338
 11
5.90332
 21
-27.6543
  0
LINE
  8
0
 10
5.90332
 20
-27.6543
 11
5.89062
 21
-27.6729
  0
LINE
  8
0
 10
5.89062
 20
-27.6729
 11
5.87598
 21
-27.6914
  0
LINE
  8
0
 10
5.87598
 20
-27.6914
 11
5.86035
 21
-27.708
  0
LINE
  8
0
 10
5.86035
 20
-27.708
 11
5.84375
 21
-27.7236
  0
LINE
  8
0
 10
5.84375
 20
-27.7236
 11
5.82617
 21
-27.7383
  0
LINE
  8
0
 10
5.82617
 20
-27.7383
 11
5.80664
 21
-27.751
  0
LINE
  8
0
 10
5.80664
 20
-27.751
 11
5.78711
 21
-27.7627
  0
LINE
  8
0
 10
5.78711
 20
-27.7627
 11
5.76562
 21
-27.7725
  0
LINE
  8
0
 10
5.76562
 20
-27.7725
 11
5.74414
 21
-27.7803
  0
LINE
  8
0
 10
5.74414
 20
-27.7803
 11
5.72168
 21
-27.7871
  0
LINE
  8
0
 10
5.72168
 20
-27.7871
 11
5.69824
 21
-27.792
  0
LINE
  8
0
 10
5.69824
 20
-27.792
 11
5.67383
 21
-27.7949
  0
LINE
  8
0
 10
5.67383
 20
-27.7949
 11
5.64941
 21
-27.7959
  0
LINE
  8
0
 10
5.64941
 20
-27.7959
 11
2.11328
 21
-27.7959
  0
LINE
  8
0
 10
2.11328
 20
-27.7959
 11
2.11328
 21
-29.5977
  0
LINE
  8
0
 10
2.11328
 20
-29.5977
 11
2.11035
 21
-29.5967
  0
LINE
  8
0
 10
2.11035
 20
-29.5967
 11
2.11133
 21
-29.6211
  0
LINE
  8
0
 10
2.11133
 20
-29.6211
 11
2.11426
 21
-29.6445
  0
LINE
  8
0
 10
2.11426
 20
-29.6445
 11
2.11914
 21
-29.668
  0
LINE
  8
0
 10
2.11914
 20
-29.668
 11
2.12598
 21
-29.6914
  0
LINE
  8
0
 10
2.12598
 20
-29.6914
 11
2.13379
 21
-29.7129
  0
LINE
  8
0
 10
2.13379
 20
-29.7129
 11
2.14453
 21
-29.7344
  0
LINE
  8
0
 10
2.14453
 20
-29.7344
 11
2.15527
 21
-29.7539
  0
LINE
  8
0
 10
2.15527
 20
-29.7539
 11
2.16797
 21
-29.7734
  0
LINE
  8
0
 10
2.16797
 20
-29.7734
 11
2.18262
 21
-29.791
  0
LINE
  8
0
 10
2.18262
 20
-29.791
 11
2.19824
 21
-29.8076
  0
LINE
  8
0
 10
2.19824
 20
-29.8076
 11
2.21484
 21
-29.8232
  0
LINE
  8
0
 10
2.21484
 20
-29.8232
 11
2.23242
 21
-29.8379
  0
LINE
  8
0
 10
2.23242
 20
-29.8379
 11
2.25195
 21
-29.8506
  0
LINE
  8
0
 10
2.25195
 20
-29.8506
 11
2.27246
 21
-29.8623
  0
LINE
  8
0
 10
2.27246
 20
-29.8623
 11
2.29297
 21
-29.8721
  0
LINE
  8
0
 10
2.29297
 20
-29.8721
 11
2.31445
 21
-29.8809
  0
LINE
  8
0
 10
2.31445
 20
-29.8809
 11
2.33691
 21
-29.8867
  0
LINE
  8
0
 10
2.33691
 20
-29.8867
 11
2.36035
 21
-29.8916
  0
LINE
  8
0
 10
2.36035
 20
-29.8916
 11
2.38477
 21
-29.8945
  0
LINE
  8
0
 10
2.38477
 20
-29.8945
 11
2.40918
 21
-29.8955
  0
LINE
  8
0
 10
2.40918
 20
-29.8955
 11
2.41016
 21
-29.8984
  0
LINE
  8
0
 10
2.41016
 20
-29.8984
 11
7.44336
 21
-29.8984
  0
LINE
  8
0
 10
7.44336
 20
-29.8984
 11
7.44238
 21
-29.8955
  0
LINE
  8
0
 10
7.44238
 20
-29.8955
 11
7.4834
 21
-29.8945
  0
LINE
  8
0
 10
7.4834
 20
-29.8945
 11
7.52344
 21
-29.8896
  0
LINE
  8
0
 10
7.52344
 20
-29.8896
 11
7.5625
 21
-29.8809
  0
LINE
  8
0
 10
7.5625
 20
-29.8809
 11
7.59961
 21
-29.8701
  0
LINE
  8
0
 10
7.59961
 20
-29.8701
 11
7.63672
 21
-29.8564
  0
LINE
  8
0
 10
7.63672
 20
-29.8564
 11
7.67188
 21
-29.8398
  0
LINE
  8
0
 10
7.67188
 20
-29.8398
 11
7.70508
 21
-29.8213
  0
LINE
  8
0
 10
7.70508
 20
-29.8213
 11
7.73633
 21
-29.7998
  0
LINE
  8
0
 10
7.73633
 20
-29.7998
 11
7.7666
 21
-29.7754
  0
LINE
  8
0
 10
7.7666
 20
-29.7754
 11
7.79492
 21
-29.749
  0
LINE
  8
0
 10
7.79492
 20
-29.749
 11
7.82031
 21
-29.7217
  0
LINE
  8
0
 10
7.82031
 20
-29.7217
 11
7.84473
 21
-29.6914
  0
LINE
  8
0
 10
7.84473
 20
-29.6914
 11
7.86621
 21
-29.6592
  0
LINE
  8
0
 10
7.86621
 20
-29.6592
 11
7.88477
 21
-29.626
  0
LINE
  8
0
 10
7.88477
 20
-29.626
 11
7.90137
 21
-29.5908
  0
LINE
  8
0
 10
7.90137
 20
-29.5908
 11
7.91504
 21
-29.5537
  0
LINE
  8
0
 10
7.91504
 20
-29.5537
 11
7.92578
 21
-29.5156
  0
LINE
  8
0
 10
7.92578
 20
-29.5156
 11
7.93457
 21
-29.4766
  0
LINE
  8
0
 10
7.93457
 20
-29.4766
 11
7.93848
 21
-29.4365
  0
LINE
  8
0
 10
7.93848
 20
-29.4365
 11
7.94043
 21
-29.3955
  0
LINE
  8
0
 10
7.94043
 20
-29.3955
 11
7.94238
 21
-29.3975
  0
LINE
  8
0
 10
7.94238
 20
-29.3975
 11
7.94238
 21
-17.7451
  0
LINE
  8
0
 10
7.94238
 20
-17.7451
 11
7.94043
 21
-17.7441
  0
LINE
  8
0
 10
7.94043
 20
-17.7441
 11
7.93945
 21
-17.7197
  0
LINE
  8
0
 10
7.93945
 20
-17.7197
 11
7.93652
 21
-17.6953
  0
LINE
  8
0
 10
7.93652
 20
-17.6953
 11
7.93164
 21
-17.6729
  0
LINE
  8
0
 10
7.93164
 20
-17.6729
 11
7.92578
 21
-17.6504
  0
LINE
  8
0
 10
7.92578
 20
-17.6504
 11
7.91797
 21
-17.6279
  0
LINE
  8
0
 10
7.91797
 20
-17.6279
 11
7.9082
 21
-17.6074
  0
LINE
  8
0
 10
7.9082
 20
-17.6074
 11
7.89648
 21
-17.5879
  0
LINE
  8
0
 10
7.89648
 20
-17.5879
 11
7.88379
 21
-17.5684
  0
LINE
  8
0
 10
7.88379
 20
-17.5684
 11
7.87012
 21
-17.5508
  0
LINE
  8
0
 10
7.87012
 20
-17.5508
 11
7.85449
 21
-17.5342
  0
LINE
  8
0
 10
7.85449
 20
-17.5342
 11
7.83789
 21
-17.5186
  0
LINE
  8
0
 10
7.83789
 20
-17.5186
 11
7.82031
 21
-17.5039
  0
LINE
  8
0
 10
7.82031
 20
-17.5039
 11
7.80176
 21
-17.4912
  0
LINE
  8
0
 10
7.80176
 20
-17.4912
 11
7.78223
 21
-17.4795
  0
LINE
  8
0
 10
7.78223
 20
-17.4795
 11
7.76172
 21
-17.4697
  0
LINE
  8
0
 10
7.76172
 20
-17.4697
 11
7.74023
 21
-17.4609
  0
LINE
  8
0
 10
7.74023
 20
-17.4609
 11
7.71777
 21
-17.4541
  0
LINE
  8
0
 10
7.71777
 20
-17.4541
 11
7.69434
 21
-17.4492
  0
LINE
  8
0
 10
7.69434
 20
-17.4492
 11
7.6709
 21
-17.4453
  0
LINE
  8
0
 10
7.6709
 20
-17.4453
 11
7.64746
 21
-17.4443
  0
LINE
  8
0
 10
7.64746
 20
-17.4443
 11
5.84863
 21
-17.4443
  0
LINE
  8
0
 10
5.84863
 20
-17.4443
 11
5.84863
 21
-19.5947
  0
LINE
  8
0
 10
5.84863
 20
-19.5947
 11
5.84766
 21
-19.6182
  0
LINE
  8
0
 10
5.84766
 20
-19.6182
 11
5.83984
 21
-19.665
  0
LINE
  8
0
 10
5.83984
 20
-19.665
 11
5.83301
 21
-19.6885
  0
LINE
  8
0
 10
5.83301
 20
-19.6885
 11
5.82422
 21
-19.71
  0
LINE
  8
0
 10
5.82422
 20
-19.71
 11
5.81445
 21
-19.7314
  0
LINE
  8
0
 10
5.81445
 20
-19.7314
 11
5.80371
 21
-19.751
  0
LINE
  8
0
 10
5.80371
 20
-19.751
 11
5.79102
 21
-19.7705
  0
LINE
  8
0
 10
5.79102
 20
-19.7705
 11
5.77637
 21
-19.7881
  0
LINE
  8
0
 10
5.77637
 20
-19.7881
 11
5.76074
 21
-19.8047
  0
LINE
  8
0
 10
5.76074
 20
-19.8047
 11
5.74414
 21
-19.8203
  0
LINE
  8
0
 10
5.74414
 20
-19.8203
 11
5.72656
 21
-19.835
  0
LINE
  8
0
 10
5.72656
 20
-19.835
 11
5.70703
 21
-19.8477
  0
LINE
  8
0
 10
5.70703
 20
-19.8477
 11
5.68652
 21
-19.8594
  0
LINE
  8
0
 10
5.68652
 20
-19.8594
 11
5.66602
 21
-19.8691
  0
LINE
  8
0
 10
5.66602
 20
-19.8691
 11
5.64453
 21
-19.8779
  0
LINE
  8
0
 10
5.64453
 20
-19.8779
 11
5.62207
 21
-19.8838
  0
LINE
  8
0
 10
5.62207
 20
-19.8838
 11
5.59863
 21
-19.8887
  0
LINE
  8
0
 10
5.59863
 20
-19.8887
 11
5.57422
 21
-19.8916
  0
LINE
  8
0
 10
5.57422
 20
-19.8916
 11
5.5498
 21
-19.8926
  0
LINE
  8
0
 10
5.5498
 20
-19.8926
 11
5.55078
 21
-19.8945
  0
LINE
  8
0
 10
5.55078
 20
-19.8945
 11
2.06152
 21
-19.8945
  0
LINE
  8
0
 10
2.06152
 20
-19.8945
 11
1.98047
 21
-19.8916
  0
LINE
  8
0
 10
1.98047
 20
-19.8916
 11
1.90039
 21
-19.8818
  0
LINE
  8
0
 10
1.90039
 20
-19.8818
 11
1.82227
 21
-19.8662
  0
LINE
  8
0
 10
1.82227
 20
-19.8662
 11
1.74707
 21
-19.8438
  0
LINE
  8
0
 10
1.74707
 20
-19.8438
 11
1.67383
 21
-19.8164
  0
LINE
  8
0
 10
1.67383
 20
-19.8164
 11
1.60352
 21
-19.7832
  0
LINE
  8
0
 10
1.60352
 20
-19.7832
 11
1.53711
 21
-19.7451
  0
LINE
  8
0
 10
1.53711
 20
-19.7451
 11
1.47266
 21
-19.7021
  0
LINE
  8
0
 10
1.47266
 20
-19.7021
 11
1.41309
 21
-19.6543
  0
LINE
  8
0
 10
1.41309
 20
-19.6543
 11
1.35645
 21
-19.6016
  0
LINE
  8
0
 10
1.35645
 20
-19.6016
 11
1.30469
 21
-19.5459
  0
LINE
  8
0
 10
1.30469
 20
-19.5459
 11
1.25684
 21
-19.4854
  0
LINE
  8
0
 10
1.25684
 20
-19.4854
 11
1.21387
 21
-19.4219
  0
LINE
  8
0
 10
1.21387
 20
-19.4219
 11
1.17578
 21
-19.3545
  0
LINE
  8
0
 10
1.17578
 20
-19.3545
 11
1.14258
 21
-19.2842
  0
LINE
  8
0
 10
1.14258
 20
-19.2842
 11
1.11523
 21
-19.2109
  0
LINE
  8
0
 10
1.11523
 20
-19.2109
 11
1.09375
 21
-19.1348
  0
LINE
  8
0
 10
1.09375
 20
-19.1348
 11
1.07812
 21
-19.0566
  0
LINE
  8
0
 10
1.07812
 20
-19.0566
 11
1.06836
 21
-18.9766
  0
LINE
  8
0
 10
1.06836
 20
-18.9766
 11
1.06445
 21
-18.8945
  0
LINE
  8
0
 10
1.06445
 20
-18.8945
 11
1.06445
 21
-11.6553
  0
LINE
  8
0
 10
1.06445
 20
-11.6553
 11
1.06738
 21
-11.583
  0
LINE
  8
0
 10
1.06738
 20
-11.583
 11
1.0752
 21
-11.5127
  0
LINE
  8
0
 10
1.0752
 20
-11.5127
 11
1.08691
 21
-11.4434
  0
LINE
  8
0
 10
1.08691
 20
-11.4434
 11
1.10449
 21
-11.375
  0
LINE
  8
0
 10
1.10449
 20
-11.375
 11
1.12598
 21
-11.3086
  0
LINE
  8
0
 10
1.12598
 20
-11.3086
 11
1.15234
 21
-11.2451
  0
LINE
  8
0
 10
1.15234
 20
-11.2451
 11
1.18262
 21
-11.1826
  0
LINE
  8
0
 10
1.18262
 20
-11.1826
 11
1.2168
 21
-11.124
  0
LINE
  8
0
 10
1.2168
 20
-11.124
 11
1.25488
 21
-11.0674
  0
LINE
  8
0
 10
1.25488
 20
-11.0674
 11
1.29688
 21
-11.0127
  0
LINE
  8
0
 10
1.29688
 20
-11.0127
 11
1.34277
 21
-10.9619
  0
LINE
  8
0
 10
1.34277
 20
-10.9619
 11
1.3916
 21
-10.9141
  0
LINE
  8
0
 10
1.3916
 20
-10.9141
 11
1.44434
 21
-10.8701
  0
LINE
  8
0
 10
1.44434
 20
-10.8701
 11
1.49902
 21
-10.8291
  0
LINE
  8
0
 10
1.49902
 20
-10.8291
 11
1.55762
 21
-10.792
  0
LINE
  8
0
 10
1.55762
 20
-10.792
 11
1.61816
 21
-10.7588
  0
LINE
  8
0
 10
1.61816
 20
-10.7588
 11
1.68164
 21
-10.7295
  0
LINE
  8
0
 10
1.68164
 20
-10.7295
 11
1.74805
 21
-10.7051
  0
LINE
  8
0
 10
1.74805
 20
-10.7051
 11
1.81641
 21
-10.6855
  0
LINE
  8
0
 10
1.81641
 20
-10.6855
 11
1.88672
 21
-10.6699
  0
LINE
  8
0
 10
1.88672
 20
-10.6699
 11
1.88574
 21
-10.6719
  0
LINE
  8
0
 10
1.88574
 20
-10.6719
 11
2.05469
 21
-10.6396
  0
LINE
  8
0
 10
2.05469
 20
-10.6396
 11
2.22266
 21
-10.6055
  0
LINE
  8
0
 10
2.22266
 20
-10.6055
 11
2.39062
 21
-10.5684
  0
LINE
  8
0
 10
2.39062
 20
-10.5684
 11
2.55762
 21
-10.5293
  0
LINE
  8
0
 10
2.55762
 20
-10.5293
 11
2.72363
 21
-10.4863
  0
LINE
  8
0
 10
2.72363
 20
-10.4863
 11
2.88965
 21
-10.4424
  0
LINE
  8
0
 10
2.88965
 20
-10.4424
 11
3.05469
 21
-10.3945
  0
LINE
  8
0
 10
3.05469
 20
-10.3945
 11
3.21875
 21
-10.3447
  0
LINE
  8
0
 10
3.21875
 20
-10.3447
 11
3.38184
 21
-10.292
  0
LINE
  8
0
 10
3.38184
 20
-10.292
 11
3.54395
 21
-10.2373
  0
LINE
  8
0
 10
3.54395
 20
-10.2373
 11
3.70508
 21
-10.1797
  0
LINE
  8
0
 10
3.70508
 20
-10.1797
 11
3.86621
 21
-10.1191
  0
LINE
  8
0
 10
3.86621
 20
-10.1191
 11
4.02539
 21
-10.0566
  0
LINE
  8
0
 10
4.02539
 20
-10.0566
 11
4.18457
 21
-9.99121
  0
LINE
  8
0
 10
4.18457
 20
-9.99121
 11
4.3418
 21
-9.92383
  0
LINE
  8
0
 10
4.3418
 20
-9.92383
 11
4.49805
 21
-9.85352
  0
LINE
  8
0
 10
4.49805
 20
-9.85352
 11
4.6543
 21
-9.78027
  0
LINE
  8
0
 10
4.6543
 20
-9.78027
 11
4.80859
 21
-9.70508
  0
LINE
  8
0
 10
4.80859
 20
-9.70508
 11
4.96191
 21
-9.62695
  0
LINE
  8
0
 10
4.96191
 20
-9.62695
 11
5.11426
 21
-9.54688
  0
LINE
  8
0
 10
5.11426
 20
-9.54688
 11
5.13867
 21
-9.53613
  0
LINE
  8
0
 10
5.13867
 20
-9.53613
 11
5.16211
 21
-9.52637
  0
LINE
  8
0
 10
5.16211
 20
-9.52637
 11
5.18652
 21
-9.5166
  0
LINE
  8
0
 10
5.18652
 20
-9.5166
 11
5.21094
 21
-9.50879
  0
LINE
  8
0
 10
5.21094
 20
-9.50879
 11
5.23633
 21
-9.50195
  0
LINE
  8
0
 10
5.23633
 20
-9.50195
 11
5.26074
 21
-9.49707
  0
LINE
  8
0
 10
5.26074
 20
-9.49707
 11
5.28613
 21
-9.49316
  0
LINE
  8
0
 10
5.28613
 20
-9.49316
 11
5.31152
 21
-9.49023
  0
LINE
  8
0
 10
5.31152
 20
-9.49023
 11
5.33691
 21
-9.48926
  0
LINE
  8
0
 10
5.33691
 20
-9.48926
 11
5.3623
 21
-9.48926
  0
LINE
  8
0
 10
5.3623
 20
-9.48926
 11
5.3877
 21
-9.49023
  0
LINE
  8
0
 10
5.3877
 20
-9.49023
 11
5.41309
 21
-9.49316
  0
LINE
  8
0
 10
5.41309
 20
-9.49316
 11
5.43848
 21
-9.49707
  0
LINE
  8
0
 10
5.43848
 20
-9.49707
 11
5.46289
 21
-9.50195
  0
LINE
  8
0
 10
5.46289
 20
-9.50195
 11
5.48828
 21
-9.50879
  0
LINE
  8
0
 10
5.48828
 20
-9.50879
 11
5.51172
 21
-9.5166
  0
LINE
  8
0
 10
5.51172
 20
-9.5166
 11
5.53613
 21
-9.52539
  0
LINE
  8
0
 10
5.53613
 20
-9.52539
 11
5.58301
 21
-9.54688
  0
LINE
  8
0
 10
5.58301
 20
-9.54688
 11
5.60645
 21
-9.56055
  0
LINE
  8
0
 10
5.60645
 20
-9.56055
 11
5.62793
 21
-9.57422
  0
LINE
  8
0
 10
5.62793
 20
-9.57422
 11
5.64941
 21
-9.58984
  0
LINE
  8
0
 10
5.64941
 20
-9.58984
 11
5.66992
 21
-9.60547
  0
LINE
  8
0
 10
5.66992
 20
-9.60547
 11
5.68945
 21
-9.62305
  0
LINE
  8
0
 10
5.68945
 20
-9.62305
 11
5.70703
 21
-9.64062
  0
LINE
  8
0
 10
5.70703
 20
-9.64062
 11
5.72461
 21
-9.65918
  0
LINE
  8
0
 10
5.72461
 20
-9.65918
 11
5.74121
 21
-9.67969
  0
LINE
  8
0
 10
5.74121
 20
-9.67969
 11
5.75586
 21
-9.69922
  0
LINE
  8
0
 10
5.75586
 20
-9.69922
 11
5.77051
 21
-9.7207
  0
LINE
  8
0
 10
5.77051
 20
-9.7207
 11
5.7832
 21
-9.74219
  0
LINE
  8
0
 10
5.7832
 20
-9.74219
 11
5.7959
 21
-9.76465
  0
LINE
  8
0
 10
5.7959
 20
-9.76465
 11
5.80664
 21
-9.78809
  0
LINE
  8
0
 10
5.80664
 20
-9.78809
 11
5.81641
 21
-9.81152
  0
LINE
  8
0
 10
5.81641
 20
-9.81152
 11
5.83203
 21
-9.86035
  0
LINE
  8
0
 10
5.83203
 20
-9.86035
 11
5.83789
 21
-9.88574
  0
LINE
  8
0
 10
5.83789
 20
-9.88574
 11
5.84277
 21
-9.91113
  0
LINE
  8
0
 10
5.84277
 20
-9.91113
 11
5.8457
 21
-9.93652
  0
LINE
  8
0
 10
5.8457
 20
-9.93652
 11
5.84766
 21
-9.96289
  0
LINE
  8
0
 10
5.84766
 20
-9.96289
 11
5.84863
 21
-9.98926
  0
LINE
  8
0
 10
5.84863
 20
-9.98926
 11
5.84863
 21
-13.1445
  0
LINE
  8
0
 10
5.84863
 20
-13.1445
 11
7.64355
 21
-13.1445
  0
LINE
  8
0
 10
7.64355
 20
-13.1445
 11
7.64258
 21
-13.1426
  0
LINE
  8
0
 10
7.64258
 20
-13.1426
 11
7.66699
 21
-13.1416
  0
LINE
  8
0
 10
7.66699
 20
-13.1416
 11
7.69043
 21
-13.1387
  0
LINE
  8
0
 10
7.69043
 20
-13.1387
 11
7.71387
 21
-13.1338
  0
LINE
  8
0
 10
7.71387
 20
-13.1338
 11
7.73633
 21
-13.127
  0
LINE
  8
0
 10
7.73633
 20
-13.127
 11
7.75781
 21
-13.1182
  0
LINE
  8
0
 10
7.75781
 20
-13.1182
 11
7.7793
 21
-13.1084
  0
LINE
  8
0
 10
7.7793
 20
-13.1084
 11
7.79883
 21
-13.0977
  0
LINE
  8
0
 10
7.79883
 20
-13.0977
 11
7.81836
 21
-13.084
  0
LINE
  8
0
 10
7.81836
 20
-13.084
 11
7.83594
 21
-13.0703
  0
LINE
  8
0
 10
7.83594
 20
-13.0703
 11
7.85352
 21
-13.0547
  0
LINE
  8
0
 10
7.85352
 20
-13.0547
 11
7.86914
 21
-13.0381
  0
LINE
  8
0
 10
7.86914
 20
-13.0381
 11
7.88281
 21
-13.0195
  0
LINE
  8
0
 10
7.88281
 20
-13.0195
 11
7.89551
 21
-13
  0
LINE
  8
0
 10
7.89551
 20
-13
 11
7.90723
 21
-12.9805
  0
LINE
  8
0
 10
7.90723
 20
-12.9805
 11
7.91699
 21
-12.959
  0
LINE
  8
0
 10
7.91699
 20
-12.959
 11
7.92578
 21
-12.9375
  0
LINE
  8
0
 10
7.92578
 20
-12.9375
 11
7.93164
 21
-12.915
  0
LINE
  8
0
 10
7.93164
 20
-12.915
 11
7.93652
 21
-12.8916
  0
LINE
  8
0
 10
7.93652
 20
-12.8916
 11
7.93945
 21
-12.8672
  0
LINE
  8
0
 10
7.93945
 20
-12.8672
 11
7.94043
 21
-12.8428
  0
LINE
  8
0
 10
7.94043
 20
-12.8428
 11
7.94238
 21
-12.8438
  0
LINE
  8
0
 10
7.94238
 20
-12.8438
 11
7.94238
 21
-8.24121
  0
LINE
  8
0
 10
7.94238
 20
-8.24121
 11
7.94043
 21
-8.24023
  0
LINE
  8
0
 10
7.94043
 20
-8.24023
 11
7.94043
 21
-8.21973
  0
LINE
  8
0
 10
7.94043
 20
-8.21973
 11
7.93945
 21
-8.2002
  0
LINE
  8
0
 10
7.93945
 20
-8.2002
 11
7.9375
 21
-8.18066
  0
LINE
  8
0
 10
7.9375
 20
-8.18066
 11
7.93457
 21
-8.16113
  0
LINE
  8
0
 10
7.93457
 20
-8.16113
 11
7.93066
 21
-8.1416
  0
LINE
  8
0
 10
7.93066
 20
-8.1416
 11
7.92676
 21
-8.12305
  0
LINE
  8
0
 10
7.92676
 20
-8.12305
 11
7.92188
 21
-8.10352
  0
LINE
  8
0
 10
7.92188
 20
-8.10352
 11
7.91016
 21
-8.06641
  0
LINE
  8
0
 10
7.91016
 20
-8.06641
 11
7.90234
 21
-8.04883
  0
LINE
  8
0
 10
7.90234
 20
-8.04883
 11
7.89453
 21
-8.03027
  0
LINE
  8
0
 10
7.89453
 20
-8.03027
 11
7.88672
 21
-8.0127
  0
LINE
  8
0
 10
7.88672
 20
-8.0127
 11
7.87695
 21
-7.99609
  0
LINE
  8
0
 10
7.87695
 20
-7.99609
 11
7.86719
 21
-7.97852
  0
LINE
  8
0
 10
7.86719
 20
-7.97852
 11
7.85645
 21
-7.96289
  0
LINE
  8
0
 10
7.85645
 20
-7.96289
 11
7.8457
 21
-7.94629
  0
LINE
  8
0
 10
7.8457
 20
-7.94629
 11
7.83398
 21
-7.93066
  0
LINE
  8
0
 10
7.83398
 20
-7.93066
 11
7.82129
 21
-7.91504
  0
LINE
  8
0
 10
7.82129
 20
-7.91504
 11
7.80859
 21
-7.90039
  0
LINE
  8
0
 10
7.80859
 20
-7.90039
 11
7.79492
 21
-7.88672
  0
LINE
  8
0
 10
7.79492
 20
-7.88672
 11
3.30469
 21
-3.38086
  0
LINE
  8
0
 10
3.30469
 20
-3.38086
 11
3.30469
 21
-3.37793
  0
LINE
  8
0
 10
3.30469
 20
-3.37793
 11
3.27832
 21
-3.34961
  0
LINE
  8
0
 10
3.27832
 20
-3.34961
 11
3.25488
 21
-3.32031
  0
LINE
  8
0
 10
3.25488
 20
-3.32031
 11
3.23438
 21
-3.28906
  0
LINE
  8
0
 10
3.23438
 20
-3.28906
 11
3.21582
 21
-3.25684
  0
LINE
  8
0
 10
3.21582
 20
-3.25684
 11
3.19922
 21
-3.22266
  0
LINE
  8
0
 10
3.19922
 20
-3.22266
 11
3.18652
 21
-3.18848
  0
LINE
  8
0
 10
3.18652
 20
-3.18848
 11
3.17578
 21
-3.15332
  0
LINE
  8
0
 10
3.17578
 20
-3.15332
 11
3.16797
 21
-3.11816
  0
LINE
  8
0
 10
3.16797
 20
-3.11816
 11
3.16211
 21
-3.08203
  0
LINE
  8
0
 10
3.16211
 20
-3.08203
 11
3.15918
 21
-3.0459
  0
LINE
  8
0
 10
3.15918
 20
-3.0459
 11
3.15918
 21
-3.00879
  0
LINE
  8
0
 10
3.15918
 20
-3.00879
 11
3.16211
 21
-2.97266
  0
LINE
  8
0
 10
3.16211
 20
-2.97266
 11
3.16699
 21
-2.93652
  0
LINE
  8
0
 10
3.16699
 20
-2.93652
 11
3.1748
 21
-2.90039
  0
LINE
  8
0
 10
3.1748
 20
-2.90039
 11
3.18457
 21
-2.86523
  0
LINE
  8
0
 10
3.18457
 20
-2.86523
 11
3.19824
 21
-2.83105
  0
LINE
  8
0
 10
3.19824
 20
-2.83105
 11
3.21387
 21
-2.79688
  0
LINE
  8
0
 10
3.21387
 20
-2.79688
 11
3.23242
 21
-2.76367
  0
LINE
  8
0
 10
3.23242
 20
-2.76367
 11
3.25293
 21
-2.73242
  0
LINE
  8
0
 10
3.25293
 20
-2.73242
 11
3.27734
 21
-2.70215
  0
LINE
  8
0
 10
3.27734
 20
-2.70215
 11
3.27539
 21
-2.70312
  0
LINE
  8
0
 10
3.27539
 20
-2.70312
 11
3.40527
 21
-2.54102
  0
LINE
  8
0
 10
3.40527
 20
-2.54102
 11
3.52734
 21
-2.37402
  0
LINE
  8
0
 10
3.52734
 20
-2.37402
 11
3.64062
 21
-2.20215
  0
LINE
  8
0
 10
3.64062
 20
-2.20215
 11
3.74512
 21
-2.02637
  0
LINE
  8
0
 10
3.74512
 20
-2.02637
 11
3.84082
 21
-1.8457
  0
LINE
  8
0
 10
3.84082
 20
-1.8457
 11
3.92773
 21
-1.66113
  0
LINE
  8
0
 10
3.92773
 20
-1.66113
 11
4.00586
 21
-1.47363
  0
LINE
  8
0
 10
4.00586
 20
-1.47363
 11
4.0752
 21
-1.28223
  0
LINE
  8
0
 10
4.0752
 20
-1.28223
 11
4.13477
 21
-1.08887
  0
LINE
  8
0
 10
4.13477
 20
-1.08887
 11
4.18652
 21
-0.892578
  0
LINE
  8
0
 10
4.18652
 20
-0.892578
 11
4.22852
 21
-0.694336
  0
LINE
  8
0
 10
4.22852
 20
-0.694336
 11
4.26074
 21
-0.494141
  0
LINE
  8
0
 10
4.26074
 20
-0.494141
 11
4.28418
 21
-0.291992
  0
LINE
  8
0
 10
4.28418
 20
-0.291992
 11
4.29883
 21
-0.0888672
  0
LINE
  8
0
 10
4.29883
 20
-0.0888672
 11
4.30273
 21
0.115234
  0
LINE
  8
0
 10
4.30273
 20
0.115234
 11
4.29785
 21
0.319336
  0
LINE
  8
0
 10
4.29785
 20
0.319336
 11
4.2832
 21
0.523438
  0
LINE
  8
0
 10
4.2832
 20
0.523438
 11
4.25879
 21
0.728516
  0
LINE
  8
0
 10
4.25879
 20
0.728516
 11
4.22461
 21
0.932617
  0
LINE
  8
0
 10
4.22461
 20
0.932617
 11
4.18066
 21
1.13574
  0
LINE
  8
0
 10
4.18066
 20
1.13574
 11
4.12695
 21
1.33594
  0
LINE
  8
0
 10
4.12695
 20
1.33594
 11
4.06445
 21
1.5332
  0
LINE
  8
0
 10
4.06445
 20
1.5332
 11
3.99316
 21
1.72656
  0
LINE
  8
0
 10
3.99316
 20
1.72656
 11
3.91211
 21
1.91504
  0
LINE
  8
0
 10
3.91211
 20
1.91504
 11
3.82324
 21
2.09863
  0
LINE
  8
0
 10
3.82324
 20
2.09863
 11
3.72656
 21
2.27734
  0
LINE
  8
0
 10
3.72656
 20
2.27734
 11
3.62109
 21
2.45215
  0
LINE
  8
0
 10
3.62109
 20
2.45215
 11
3.50879
 21
2.62012
  0
LINE
  8
0
 10
3.50879
 20
2.62012
 11
3.3877
 21
2.7832
  0
LINE
  8
0
 10
3.3877
 20
2.7832
 11
3.25977
 21
2.94043
  0
LINE
  8
0
 10
3.25977
 20
2.94043
 11
3.125
 21
3.0918
  0
LINE
  8
0
 10
3.125
 20
3.0918
 11
2.98242
 21
3.23633
  0
LINE
  8
0
 10
2.98242
 20
3.23633
 11
2.83398
 21
3.37402
  0
LINE
  8
0
 10
2.83398
 20
3.37402
 11
2.67871
 21
3.50488
  0
LINE
  8
0
 10
2.67871
 20
3.50488
 11
2.51758
 21
3.62891
  0
LINE
  8
0
 10
2.51758
 20
3.62891
 11
2.34961
 21
3.74512
  0
LINE
  8
0
 10
2.34961
 20
3.74512
 11
2.17676
 21
3.85352
  0
LINE
  8
0
 10
2.17676
 20
3.85352
 11
1.99805
 21
3.9541
  0
LINE
  8
0
 10
1.99805
 20
3.9541
 11
1.81348
 21
4.04688
  0
LINE
  8
0
 10
1.81348
 20
4.04688
 11
1.62402
 21
4.13086
  0
LINE
  8
0
 10
1.62402
 20
4.13086
 11
1.60449
 21
4.13867
  0
LINE
  8
0
 10
1.60449
 20
4.13867
 11
1.58496
 21
4.14551
  0
LINE
  8
0
 10
1.58496
 20
4.14551
 11
1.56445
 21
4.15234
  0
LINE
  8
0
 10
1.56445
 20
4.15234
 11
1.54395
 21
4.15723
  0
LINE
  8
0
 10
1.54395
 20
4.15723
 11
1.52246
 21
4.16113
  0
LINE
  8
0
 10
1.52246
 20
4.16113
 11
1.48145
 21
4.16699
  0
LINE
  8
0
 10
1.48145
 20
4.16699
 11
1.45996
 21
4.16797
  0
LINE
  8
0
 10
1.45996
 20
4.16797
 11
1.43945
 21
4.16895
  0
LINE
  8
0
 10
1.43945
 20
4.16895
 11
1.41797
 21
4.16895
  0
LINE
  8
0
 10
1.41797
 20
4.16895
 11
1.39746
 21
4.16797
  0
LINE
  8
0
 10
1.39746
 20
4.16797
 11
1.37598
 21
4.16602
  0
LINE
  8
0
 10
1.37598
 20
4.16602
 11
1.35547
 21
4.16309
  0
LINE
  8
0
 10
1.35547
 20
4.16309
 11
1.33496
 21
4.15918
  0
LINE
  8
0
 10
1.33496
 20
4.15918
 11
1.31445
 21
4.1543
  0
LINE
  8
0
 10
1.31445
 20
4.1543
 11
1.27344
 21
4.14258
  0
LINE
  8
0
 10
1.27344
 20
4.14258
 11
1.25293
 21
4.13477
  0
LINE
  8
0
 10
1.25293
 20
4.13477
 11
1.2334
 21
4.12695
  0
LINE
  8
0
 10
1.2334
 20
4.12695
 11
1.21387
 21
4.11719
  0
LINE
  8
0
 10
1.21387
 20
4.11719
 11
1.19531
 21
4.10742
  0
LINE
  8
0
 10
1.19531
 20
4.10742
 11
1.17676
 21
4.09668
  0
LINE
  8
0
 10
1.17676
 20
4.09668
 11
1.1582
 21
4.08496
  0
LINE
  8
0
 10
1.1582
 20
4.08496
 11
1.1416
 21
4.07324
  0
LINE
  8
0
 10
1.1416
 20
4.07324
 11
1.12402
 21
4.06055
  0
LINE
  8
0
 10
1.12402
 20
4.06055
 11
1.1084
 21
4.04688
  0
LINE
  8
0
 10
1.1084
 20
4.04688
 11
1.07715
 21
4.01758
  0
LINE
  8
0
 10
1.07715
 20
4.01758
 11
1.0498
 21
3.98633
  0
LINE
  8
0
 10
1.0498
 20
3.98633
 11
1.03613
 21
3.96973
  0
LINE
  8
0
 10
1.03613
 20
3.96973
 11
1.0127
 21
3.93457
  0
LINE
  8
0
 10
1.0127
 20
3.93457
 11
1.00195
 21
3.91699
  0
LINE
  8
0
 10
1.00195
 20
3.91699
 11
0.992188
 21
3.89844
  0
LINE
  8
0
 10
0.992188
 20
3.89844
 11
0.982422
 21
3.87891
  0
LINE
  8
0
 10
0.982422
 20
3.87891
 11
0.973633
 21
3.85938
  0
LINE
  8
0
 10
0.973633
 20
3.85938
 11
0.966797
 21
3.83984
  0
LINE
  8
0
 10
0.966797
 20
3.83984
 11
0.953125
 21
3.79883
  0
LINE
  8
0
 10
0.953125
 20
3.79883
 11
0.954102
 21
3.79688
  0
LINE
  8
0
 10
0.954102
 20
3.79688
 11
0.569336
 21
2.36133
  0
LINE
  8
0
 10
0.569336
 20
2.36133
 11
0.564453
 21
2.33984
  0
LINE
  8
0
 10
0.564453
 20
2.33984
 11
0.560547
 21
2.31738
  0
LINE
  8
0
 10
0.560547
 20
2.31738
 11
0.558594
 21
2.27441
  0
LINE
  8
0
 10
0.558594
 20
2.27441
 11
0.560547
 21
2.25293
  0
LINE
  8
0
 10
0.560547
 20
2.25293
 11
0.563477
 21
2.23145
  0
LINE
  8
0
 10
0.563477
 20
2.23145
 11
0.568359
 21
2.20996
  0
LINE
  8
0
 10
0.568359
 20
2.20996
 11
0.574219
 21
2.19043
  0
LINE
  8
0
 10
0.574219
 20
2.19043
 11
0.581055
 21
2.16992
  0
LINE
  8
0
 10
0.581055
 20
2.16992
 11
0.589844
 21
2.15039
  0
LINE
  8
0
 10
0.589844
 20
2.15039
 11
0.599609
 21
2.13184
  0
LINE
  8
0
 10
0.599609
 20
2.13184
 11
0.611328
 21
2.11426
  0
LINE
  8
0
 10
0.611328
 20
2.11426
 11
0.624023
 21
2.09766
  0
LINE
  8
0
 10
0.624023
 20
2.09766
 11
0.637695
 21
2.08105
  0
LINE
  8
0
 10
0.637695
 20
2.08105
 11
0.652344
 21
2.06543
  0
LINE
  8
0
 10
0.652344
 20
2.06543
 11
0.685547
 21
2.03809
  0
LINE
  8
0
 10
0.685547
 20
2.03809
 11
0.704102
 21
2.02637
  0
LINE
  8
0
 10
0.704102
 20
2.02637
 11
0.723633
 21
2.01562
  0
LINE
  8
0
 10
0.723633
 20
2.01562
 11
0.744141
 21
2.00684
  0
LINE
  8
0
 10
0.744141
 20
2.00684
 11
0.830078
 21
1.96875
  0
LINE
  8
0
 10
0.830078
 20
1.96875
 11
0.914062
 21
1.92676
  0
LINE
  8
0
 10
0.914062
 20
1.92676
 11
0.996094
 21
1.88184
  0
LINE
  8
0
 10
0.996094
 20
1.88184
 11
1.0752
 21
1.83301
  0
LINE
  8
0
 10
1.0752
 20
1.83301
 11
1.15234
 21
1.78125
  0
LINE
  8
0
 10
1.15234
 20
1.78125
 11
1.22656
 21
1.72559
  0
LINE
  8
0
 10
1.22656
 20
1.72559
 11
1.29785
 21
1.66699
  0
LINE
  8
0
 10
1.29785
 20
1.66699
 11
1.36621
 21
1.60547
  0
LINE
  8
0
 10
1.36621
 20
1.60547
 11
1.43164
 21
1.54004
  0
LINE
  8
0
 10
1.43164
 20
1.54004
 11
1.49414
 21
1.47266
  0
LINE
  8
0
 10
1.49414
 20
1.47266
 11
1.55371
 21
1.40234
  0
LINE
  8
0
 10
1.55371
 20
1.40234
 11
1.61035
 21
1.3291
  0
LINE
  8
0
 10
1.61035
 20
1.3291
 11
1.66406
 21
1.25391
  0
LINE
  8
0
 10
1.66406
 20
1.25391
 11
1.71387
 21
1.17578
  0
LINE
  8
0
 10
1.71387
 20
1.17578
 11
1.75977
 21
1.09473
  0
LINE
  8
0
 10
1.75977
 20
1.09473
 11
1.80273
 21
1.0127
  0
LINE
  8
0
 10
1.80273
 20
1.0127
 11
1.8418
 21
0.927734
  0
LINE
  8
0
 10
1.8418
 20
0.927734
 11
1.87695
 21
0.84082
  0
LINE
  8
0
 10
1.87695
 20
0.84082
 11
1.9082
 21
0.751953
  0
LINE
  8
0
 10
1.9082
 20
0.751953
 11
1.93555
 21
0.662109
  0
LINE
  8
0
 10
1.93555
 20
0.662109
 11
1.95898
 21
0.570312
  0
LINE
  8
0
 10
1.95898
 20
0.570312
 11
1.97754
 21
0.478516
  0
LINE
  8
0
 10
1.97754
 20
0.478516
 11
1.99219
 21
0.385742
  0
LINE
  8
0
 10
1.99219
 20
0.385742
 11
2.00293
 21
0.292969
  0
LINE
  8
0
 10
2.00293
 20
0.292969
 11
2.00879
 21
0.200195
  0
LINE
  8
0
 10
2.00879
 20
0.200195
 11
2.01074
 21
0.107422
  0
LINE
  8
0
 10
2.01074
 20
0.107422
 11
2.00879
 21
0.0146484
  0
LINE
  8
0
 10
2.00879
 20
0.0146484
 11
2.00195
 21
-0.0771484
  0
LINE
  8
0
 10
2.00195
 20
-0.0771484
 11
1.99219
 21
-0.168945
  0
LINE
  8
0
 10
1.99219
 20
-0.168945
 11
1.97754
 21
-0.260742
  0
LINE
  8
0
 10
1.97754
 20
-0.260742
 11
1.95898
 21
-0.350586
  0
LINE
  8
0
 10
1.95898
 20
-0.350586
 11
1.93555
 21
-0.44043
  0
LINE
  8
0
 10
1.93555
 20
-0.44043
 11
1.90918
 21
-0.52832
  0
LINE
  8
0
 10
1.90918
 20
-0.52832
 11
1.87891
 21
-0.616211
  0
LINE
  8
0
 10
1.87891
 20
-0.616211
 11
1.84375
 21
-0.702148
  0
LINE
  8
0
 10
1.84375
 20
-0.702148
 11
1.80566
 21
-0.787109
  0
LINE
  8
0
 10
1.80566
 20
-0.787109
 11
1.7627
 21
-0.870117
  0
LINE
  8
0
 10
1.7627
 20
-0.870117
 11
1.71582
 21
-0.951172
  0
LINE
  8
0
 10
1.71582
 20
-0.951172
 11
1.66602
 21
-1.03027
  0
LINE
  8
0
 10
1.66602
 20
-1.03027
 11
1.6123
 21
-1.10742
  0
LINE
  8
0
 10
1.6123
 20
-1.10742
 11
1.60449
 21
-1.11914
  0
LINE
  8
0
 10
1.60449
 20
-1.11914
 11
1.59668
 21
-1.13184
  0
LINE
  8
0
 10
1.59668
 20
-1.13184
 11
1.58301
 21
-1.15723
  0
LINE
  8
0
 10
1.58301
 20
-1.15723
 11
1.57715
 21
-1.1709
  0
LINE
  8
0
 10
1.57715
 20
-1.1709
 11
1.57227
 21
-1.18457
  0
LINE
  8
0
 10
1.57227
 20
-1.18457
 11
1.56738
 21
-1.19922
  0
LINE
  8
0
 10
1.56738
 20
-1.19922
 11
1.56348
 21
-1.21289
  0
LINE
  8
0
 10
1.56348
 20
-1.21289
 11
1.56055
 21
-1.22754
  0
LINE
  8
0
 10
1.56055
 20
-1.22754
 11
1.55859
 21
-1.24121
  0
LINE
  8
0
 10
1.55859
 20
-1.24121
 11
1.55664
 21
-1.25586
  0
LINE
  8
0
 10
1.55664
 20
-1.25586
 11
1.55469
 21
-1.28516
  0
LINE
  8
0
 10
1.55469
 20
-1.28516
 11
1.55664
 21
-1.31445
  0
LINE
  8
0
 10
1.55664
 20
-1.31445
 11
1.55859
 21
-1.3291
  0
LINE
  8
0
 10
1.55859
 20
-1.3291
 11
1.56445
 21
-1.3584
  0
LINE
  8
0
 10
1.56445
 20
-1.3584
 11
1.56836
 21
-1.37305
  0
LINE
  8
0
 10
1.56836
 20
-1.37305
 11
1.57324
 21
-1.38672
  0
LINE
  8
0
 10
1.57324
 20
-1.38672
 11
1.61523
 21
-1.50879
  0
LINE
  8
0
 10
1.61523
 20
-1.50879
 11
1.62109
 21
-1.52734
  0
LINE
  8
0
 10
1.62109
 20
-1.52734
 11
1.62598
 21
-1.54492
  0
LINE
  8
0
 10
1.62598
 20
-1.54492
 11
1.62988
 21
-1.56348
  0
LINE
  8
0
 10
1.62988
 20
-1.56348
 11
1.63184
 21
-1.58203
  0
LINE
  8
0
 10
1.63184
 20
-1.58203
 11
1.63281
 21
-1.60156
  0
LINE
  8
0
 10
1.63281
 20
-1.60156
 11
1.63281
 21
-1.61914
  0
LINE
  8
0
 10
1.63281
 20
-1.61914
 11
1.63184
 21
-1.6377
  0
LINE
  8
0
 10
1.63184
 20
-1.6377
 11
1.62988
 21
-1.65625
  0
LINE
  8
0
 10
1.62988
 20
-1.65625
 11
1.62695
 21
-1.6748
  0
LINE
  8
0
 10
1.62695
 20
-1.6748
 11
1.62207
 21
-1.69238
  0
LINE
  8
0
 10
1.62207
 20
-1.69238
 11
1.61035
 21
-1.72754
  0
LINE
  8
0
 10
1.61035
 20
-1.72754
 11
1.60254
 21
-1.74414
  0
LINE
  8
0
 10
1.60254
 20
-1.74414
 11
1.59375
 21
-1.75977
  0
LINE
  8
0
 10
1.59375
 20
-1.75977
 11
1.58398
 21
-1.77637
  0
LINE
  8
0
 10
1.58398
 20
-1.77637
 11
1.57324
 21
-1.79102
  0
LINE
  8
0
 10
1.57324
 20
-1.79102
 11
1.56152
 21
-1.80566
  0
LINE
  8
0
 10
1.56152
 20
-1.80566
 11
1.54883
 21
-1.81934
  0
LINE
  8
0
 10
1.54883
 20
-1.81934
 11
1.53516
 21
-1.83301
  0
LINE
  8
0
 10
1.53516
 20
-1.83301
 11
1.52051
 21
-1.8457
  0
LINE
  8
0
 10
1.52051
 20
-1.8457
 11
1.45508
 21
-1.89453
  0
LINE
  8
0
 10
1.45508
 20
-1.89453
 11
1.38965
 21
-1.94238
  0
LINE
  8
0
 10
1.38965
 20
-1.94238
 11
1.32227
 21
-1.9873
  0
LINE
  8
0
 10
1.32227
 20
-1.9873
 11
1.25391
 21
-2.03027
  0
LINE
  8
0
 10
1.25391
 20
-2.03027
 11
1.18457
 21
-2.07129
  0
LINE
  8
0
 10
1.18457
 20
-2.07129
 11
1.11328
 21
-2.10938
  0
LINE
  8
0
 10
1.11328
 20
-2.10938
 11
1.04102
 21
-2.14551
  0
LINE
  8
0
 10
1.04102
 20
-2.14551
 11
0.967773
 21
-2.17969
  0
LINE
  8
0
 10
0.967773
 20
-2.17969
 11
0.894531
 21
-2.20996
  0
LINE
  8
0
 10
0.894531
 20
-2.20996
 11
0.819336
 21
-2.23926
  0
LINE
  8
0
 10
0.819336
 20
-2.23926
 11
0.743164
 21
-2.26562
  0
LINE
  8
0
 10
0.743164
 20
-2.26562
 11
0.666992
 21
-2.28906
  0
LINE
  8
0
 10
0.666992
 20
-2.28906
 11
0.588867
 21
-2.31055
  0
LINE
  8
0
 10
0.588867
 20
-2.31055
 11
0.510742
 21
-2.33008
  0
LINE
  8
0
 10
0.510742
 20
-2.33008
 11
0.431641
 21
-2.3457
  0
LINE
  8
0
 10
0.431641
 20
-2.3457
 11
0.352539
 21
-2.36035
  0
LINE
  8
0
 10
0.352539
 20
-2.36035
 11
0.272461
 21
-2.37109
  0
LINE
  8
0
 10
0.272461
 20
-2.37109
 11
0.192383
 21
-2.37988
  0
LINE
  8
0
 10
0.192383
 20
-2.37988
 11
0.111328
 21
-2.38574
  0
LINE
  8
0
 10
0.111328
 20
-2.38574
 11
0.0302734
 21
-2.38965
  0
LINE
  8
0
 10
0.0302734
 20
-2.38965
 11
0.0126953
 21
-2.38965
  0
LINE
  8
0
 10
0.0126953
 20
-2.38965
 11
-0.00683594
 21
-2.38867
  0
LINE
  8
0
 10
-0.00683594
 20
-2.38867
 11
-0.0253906
 21
-2.38574
  0
LINE
  8
0
 10
-0.0253906
 20
-2.38574
 11
-0.0439453
 21
-2.38184
  0
LINE
  8
0
 10
-0.0439453
 20
-2.38184
 11
-0.0615234
 21
-2.37695
  0
LINE
  8
0
 10
-0.0615234
 20
-2.37695
 11
-0.0791016
 21
-2.37109
  0
LINE
  8
0
 10
-0.0791016
 20
-2.37109
 11
-0.0957031
 21
-2.36426
  0
LINE
  8
0
 10
-0.0957031
 20
-2.36426
 11
-0.112305
 21
-2.35645
  0
LINE
  8
0
 10
-0.112305
 20
-2.35645
 11
-0.128906
 21
-2.34766
  0
LINE
  8
0
 10
-0.128906
 20
-2.34766
 11
-0.144531
 21
-2.33789
  0
LINE
  8
0
 10
-0.144531
 20
-2.33789
 11
-0.15918
 21
-2.32715
  0
LINE
  8
0
 10
-0.15918
 20
-2.32715
 11
-0.172852
 21
-2.31543
  0
LINE
  8
0
 10
-0.172852
 20
-2.31543
 11
-0.186523
 21
-2.30273
  0
LINE
  8
0
 10
-0.186523
 20
-2.30273
 11
-0.199219
 21
-2.28906
  0
LINE
  8
0
 10
-0.199219
 20
-2.28906
 11
-0.210938
 21
-2.27539
  0
LINE
  8
0
 10
-0.210938
 20
-2.27539
 11
-0.232422
 21
-2.24414
  0
LINE
  8
0
 10
-0.232422
 20
-2.24414
 11
-0.25
 21
-2.21094
  0
LINE
  8
0
 10
-0.25
 20
-2.21094
 11
-0.300781
 21
-2.07324
  0
LINE
  8
0
 10
-0.300781
 20
-2.07324
 11
-0.306641
 21
-2.05859
  0
LINE
  8
0
 10
-0.306641
 20
-2.05859
 11
-0.3125
 21
-2.04492
  0
LINE
  8
0
 10
-0.3125
 20
-2.04492
 11
-0.319336
 21
-2.03223
  0
LINE
  8
0
 10
-0.319336
 20
-2.03223
 11
-0.334961
 21
-2.00684
  0
LINE
  8
0
 10
-0.334961
 20
-2.00684
 11
-0.352539
 21
-1.9834
  0
LINE
  8
0
 10
-0.352539
 20
-1.9834
 11
-0.37207
 21
-1.96191
  0
LINE
  8
0
 10
-0.37207
 20
-1.96191
 11
-0.393555
 21
-1.94238
  0
LINE
  8
0
 10
-0.393555
 20
-1.94238
 11
-0.405273
 21
-1.93359
  0
LINE
  8
0
 10
-0.405273
 20
-1.93359
 11
-0.416992
 21
-1.92578
  0
LINE
  8
0
 10
-0.416992
 20
-1.92578
 11
-0.442383
 21
-1.91016
  0
LINE
  8
0
 10
-0.442383
 20
-1.91016
 11
-0.456055
 21
-1.9043
  0
LINE
  8
0
 10
-0.456055
 20
-1.9043
 11
-0.46875
 21
-1.89844
  0
LINE
  8
0
 10
-0.46875
 20
-1.89844
 11
-0.483398
 21
-1.89258
  0
LINE
  8
0
 10
-0.483398
 20
-1.89258
 11
-0.49707
 21
-1.88867
  0
LINE
  8
0
 10
-0.49707
 20
-1.88867
 11
-0.511719
 21
-1.88477
  0
LINE
  8
0
 10
-0.511719
 20
-1.88477
 11
-0.603516
 21
-1.85938
  0
LINE
  8
0
 10
-0.603516
 20
-1.85938
 11
-0.692383
 21
-1.83105
  0
LINE
  8
0
 10
-0.692383
 20
-1.83105
 11
-0.780273
 21
-1.79883
  0
LINE
  8
0
 10
-0.780273
 20
-1.79883
 11
-0.866211
 21
-1.7627
  0
LINE
  8
0
 10
-0.866211
 20
-1.7627
 11
-0.950195
 21
-1.72266
  0
LINE
  8
0
 10
-0.950195
 20
-1.72266
 11
-1.03125
 21
-1.67969
  0
LINE
  8
0
 10
-1.03125
 20
-1.67969
 11
-1.11133
 21
-1.63184
  0
LINE
  8
0
 10
-1.11133
 20
-1.63184
 11
-1.18848
 21
-1.58203
  0
LINE
  8
0
 10
-1.18848
 20
-1.58203
 11
-1.2627
 21
-1.52734
  0
LINE
  8
0
 10
-1.2627
 20
-1.52734
 11
-1.33496
 21
-1.4707
  0
LINE
  8
0
 10
-1.33496
 20
-1.4707
 11
-1.4043
 21
-1.41016
  0
LINE
  8
0
 10
-1.4043
 20
-1.41016
 11
-1.47168
 21
-1.34668
  0
LINE
  8
0
 10
-1.47168
 20
-1.34668
 11
-1.53516
 21
-1.2793
  0
LINE
  8
0
 10
-1.53516
 20
-1.2793
 11
-1.59668
 21
-1.20996
  0
LINE
  8
0
 10
-1.59668
 20
-1.20996
 11
-1.6543
 21
-1.1377
  0
LINE
  8
0
 10
-1.6543
 20
-1.1377
 11
-1.70898
 21
-1.0625
  0
LINE
  8
0
 10
-1.70898
 20
-1.0625
 11
-1.76074
 21
-0.985352
  0
LINE
  8
0
 10
-1.76074
 20
-0.985352
 11
-1.80859
 21
-0.904297
  0
LINE
  8
0
 10
-1.80859
 20
-0.904297
 11
-1.85254
 21
-0.822266
  0
LINE
  8
0
 10
-1.85254
 20
-0.822266
 11
-1.89355
 21
-0.736328
  0
LINE
  8
0
 10
-1.89355
 20
-0.736328
 11
-1.93066
 21
-0.649414
  0
LINE
  8
0
 10
-1.93066
 20
-0.649414
 11
-1.96387
 21
-0.561523
  0
LINE
  8
0
 10
-1.96387
 20
-0.561523
 11
-1.99219
 21
-0.472656
  0
LINE
  8
0
 10
-1.99219
 20
-0.472656
 11
-2.0166
 21
-0.382812
  0
LINE
  8
0
 10
-2.0166
 20
-0.382812
 11
-2.03613
 21
-0.291016
  0
LINE
  8
0
 10
-2.03613
 20
-0.291016
 11
-2.05273
 21
-0.200195
  0
LINE
  8
0
 10
-2.05273
 20
-0.200195
 11
-2.06445
 21
-0.108398
  0
LINE
  8
0
 10
-2.06445
 20
-0.108398
 11
-2.07227
 21
-0.015625
  0
LINE
  8
0
 10
-2.07227
 20
-0.015625
 11
-2.07617
 21
0.0761719
  0
LINE
  8
0
 10
-2.07617
 20
0.0761719
 11
-2.0752
 21
0.168945
  0
LINE
  8
0
 10
-2.0752
 20
0.168945
 11
-2.07031
 21
0.260742
  0
LINE
  8
0
 10
-2.07031
 20
0.260742
 11
-2.06152
 21
0.352539
  0
LINE
  8
0
 10
-2.06152
 20
0.352539
 11
-2.04883
 21
0.444336
  0
LINE
  8
0
 10
-2.04883
 20
0.444336
 11
-2.03125
 21
0.535156
  0
LINE
  8
0
 10
-2.03125
 20
0.535156
 11
-2.01074
 21
0.625977
  0
LINE
  8
0
 10
-2.01074
 20
0.625977
 11
-1.98535
 21
0.714844
  0
LINE
  8
0
 10
-1.98535
 20
0.714844
 11
-1.95508
 21
0.803711
  0
LINE
  8
0
 10
-1.95508
 20
0.803711
 11
-1.92188
 21
0.890625
  0
LINE
  8
0
 10
-1.92188
 20
0.890625
 11
-1.88379
 21
0.977539
  0
LINE
  8
0
 10
-1.88379
 20
0.977539
 11
-1.84277
 21
1.06152
  0
LINE
  8
0
 10
-1.84277
 20
1.06152
 11
-1.84082
 21
1.0625
  0
LINE
  8
0
 10
-1.84082
 20
1.0625
 11
-1.83105
 21
1.08203
  0
LINE
  8
0
 10
-1.83105
 20
1.08203
 11
-1.82324
 21
1.10254
  0
LINE
  8
0
 10
-1.82324
 20
1.10254
 11
-1.81738
 21
1.12402
  0
LINE
  8
0
 10
-1.81738
 20
1.12402
 11
-1.8125
 21
1.14453
  0
LINE
  8
0
 10
-1.8125
 20
1.14453
 11
-1.80859
 21
1.16602
  0
LINE
  8
0
 10
-1.80859
 20
1.16602
 11
-1.80664
 21
1.1875
  0
LINE
  8
0
 10
-1.80664
 20
1.1875
 11
-1.80664
 21
1.20898
  0
LINE
  8
0
 10
-1.80664
 20
1.20898
 11
-1.80859
 21
1.23047
  0
LINE
  8
0
 10
-1.80859
 20
1.23047
 11
-1.81055
 21
1.25098
  0
LINE
  8
0
 10
-1.81055
 20
1.25098
 11
-1.81543
 21
1.27148
  0
LINE
  8
0
 10
-1.81543
 20
1.27148
 11
-1.82129
 21
1.29199
  0
LINE
  8
0
 10
-1.82129
 20
1.29199
 11
-1.82812
 21
1.3125
  0
LINE
  8
0
 10
-1.82812
 20
1.3125
 11
-1.83691
 21
1.33203
  0
LINE
  8
0
 10
-1.83691
 20
1.33203
 11
-1.84668
 21
1.35059
  0
LINE
  8
0
 10
-1.84668
 20
1.35059
 11
-1.85742
 21
1.36914
  0
LINE
  8
0
 10
-1.85742
 20
1.36914
 11
-1.87012
 21
1.38574
  0
LINE
  8
0
 10
-1.87012
 20
1.38574
 11
-1.88477
 21
1.40234
  0
LINE
  8
0
 10
-1.88477
 20
1.40234
 11
-1.89941
 21
1.41797
  0
LINE
  8
0
 10
-1.89941
 20
1.41797
 11
-1.91602
 21
1.43262
  0
LINE
  8
0
 10
-1.91602
 20
1.43262
 11
-1.93457
 21
1.44629
  0
LINE
  8
0
 10
-1.93457
 20
1.44629
 11
-1.93262
 21
1.44629
  0
LINE
  8
0
 10
-1.93262
 20
1.44629
 11
-3.14551
 21
2.2998
  0
LINE
  8
0
 10
-3.14551
 20
2.2998
 11
-3.14746
 21
2.30078
  0
LINE
  8
0
 10
-3.14746
 20
2.30078
 11
-3.16602
 21
2.31348
  0
LINE
  8
0
 10
-3.16602
 20
2.31348
 11
-3.18359
 21
2.32422
  0
LINE
  8
0
 10
-3.18359
 20
2.32422
 11
-3.20312
 21
2.33398
  0
LINE
  8
0
 10
-3.20312
 20
2.33398
 11
-3.22168
 21
2.34375
  0
LINE
  8
0
 10
-3.22168
 20
2.34375
 11
-3.24121
 21
2.35254
  0
LINE
  8
0
 10
-3.24121
 20
2.35254
 11
-3.26074
 21
2.36035
  0
LINE
  8
0
 10
-3.26074
 20
2.36035
 11
-3.28027
 21
2.36719
  0
LINE
  8
0
 10
-3.28027
 20
2.36719
 11
-3.32129
 21
2.37891
  0
LINE
  8
0
 10
-3.32129
 20
2.37891
 11
-3.3623
 21
2.38672
  0
LINE
  8
0
 10
-3.3623
 20
2.38672
 11
-3.38379
 21
2.38867
  0
LINE
  8
0
 10
-3.38379
 20
2.38867
 11
-3.4043
 21
2.39062
  0
LINE
  8
0
 10
-3.4043
 20
2.39062
 11
-3.42578
 21
2.3916
  0
LINE
  8
0
 10
-3.42578
 20
2.3916
 11
-3.44629
 21
2.3916
  0
LINE
  8
0
 10
-3.44629
 20
2.3916
 11
-3.46777
 21
2.39062
  0
LINE
  8
0
 10
-3.46777
 20
2.39062
 11
-3.48926
 21
2.38867
  0
LINE
  8
0
 10
-3.48926
 20
2.38867
 11
-3.50977
 21
2.38574
  0
LINE
  8
0
 10
-3.50977
 20
2.38574
 11
-3.53125
 21
2.38184
  0
LINE
  8
0
 10
-3.53125
 20
2.38184
 11
-3.57227
 21
2.37207
  0
LINE
  8
0
 10
-3.57227
 20
2.37207
 11
-3.61328
 21
2.3584
  0
LINE
  8
0
 10
-3.61328
 20
2.3584
 11
-3.65234
 21
2.34082
  0
LINE
  8
0
 10
-3.65234
 20
2.34082
 11
-3.6709
 21
2.33105
  0
LINE
  8
0
 10
-3.6709
 20
2.33105
 11
-3.68848
 21
2.32031
  0
LINE
  8
0
 10
-3.68848
 20
2.32031
 11
-3.70703
 21
2.30957
  0
LINE
  8
0
 10
-3.70703
 20
2.30957
 11
-3.72363
 21
2.29785
  0
LINE
  8
0
 10
-3.72363
 20
2.29785
 11
-3.74121
 21
2.28516
  0
LINE
  8
0
 10
-3.74121
 20
2.28516
 11
-3.77246
 21
2.25781
  0
LINE
  8
0
 10
-3.77246
 20
2.25781
 11
-3.78809
 21
2.24316
  0
LINE
  8
0
 10
-3.78809
 20
2.24316
 11
-3.80273
 21
2.22754
  0
LINE
  8
0
 10
-3.80273
 20
2.22754
 11
-3.81641
 21
2.21191
  0
LINE
  8
0
 10
-3.81641
 20
2.21191
 11
-3.8291
 21
2.19531
  0
LINE
  8
0
 10
-3.8291
 20
2.19531
 11
-3.8418
 21
2.17773
  0
LINE
  8
0
 10
-3.8418
 20
2.17773
 11
-3.85352
 21
2.16016
  0
LINE
  8
0
 10
-3.85352
 20
2.16016
 11
-3.86523
 21
2.1416
  0
LINE
  8
0
 10
-3.86523
 20
2.1416
 11
-3.875
 21
2.12305
  0
LINE
  8
0
 10
-3.875
 20
2.12305
 11
-3.87695
 21
2.12109
  0
LINE
  8
0
 10
-3.87695
 20
2.12109
 11
-3.97852
 21
1.91211
  0
LINE
  8
0
 10
-3.97852
 20
1.91211
 11
-4.06836
 21
1.69922
  0
LINE
  8
0
 10
-4.06836
 20
1.69922
 11
-4.14648
 21
1.4834
  0
LINE
  8
0
 10
-4.14648
 20
1.4834
 11
-4.21289
 21
1.26367
  0
LINE
  8
0
 10
-4.21289
 20
1.26367
 11
-4.26758
 21
1.04297
  0
LINE
  8
0
 10
-4.26758
 20
1.04297
 11
-4.30957
 21
0.819336
  0
LINE
  8
0
 10
-4.30957
 20
0.819336
 11
-4.34082
 21
0.594727
  0
LINE
  8
0
 10
-4.34082
 20
0.594727
 11
-4.36035
 21
0.370117
  0
LINE
  8
0
 10
-4.36035
 20
0.370117
 11
-4.36816
 21
0.143555
  0
LINE
  8
0
 10
-4.36816
 20
0.143555
 11
-4.36426
 21
-0.0820312
  0
LINE
  8
0
 10
-4.36426
 20
-0.0820312
 11
-4.34766
 21
-0.307617
  0
LINE
  8
0
 10
-4.34766
 20
-0.307617
 11
-4.32031
 21
-0.53125
  0
LINE
  8
0
 10
-4.32031
 20
-0.53125
 11
-4.28125
 21
-0.753906
  0
LINE
  8
0
 10
-4.28125
 20
-0.753906
 11
-4.23145
 21
-0.975586
  0
LINE
  8
0
 10
-4.23145
 20
-0.975586
 11
-4.16895
 21
-1.19336
  0
LINE
  8
0
 10
-4.16895
 20
-1.19336
 11
-4.0957
 21
-1.40918
  0
LINE
  8
0
 10
-4.0957
 20
-1.40918
 11
-4.00977
 21
-1.62109
  0
LINE
  8
0
 10
-4.00977
 20
-1.62109
 11
-3.91309
 21
-1.83008
  0
LINE
  8
0
 10
-3.91309
 20
-1.83008
 11
-3.80566
 21
-2.03418
  0
LINE
  8
0
 10
-3.80566
 20
-2.03418
 11
-3.68555
 21
-2.2334
  0
LINE
  8
0
 10
-3.68555
 20
-2.2334
 11
-3.55566
 21
-2.42676
  0
LINE
  8
0
 10
-3.55566
 20
-2.42676
 11
-3.41602
 21
-2.61035
  0
LINE
  8
0
 10
-3.41602
 20
-2.61035
 11
-3.26855
 21
-2.78613
  0
LINE
  8
0
 10
-3.26855
 20
-2.78613
 11
-3.1123
 21
-2.95312
  0
LINE
  8
0
 10
-3.1123
 20
-2.95312
 11
-2.94824
 21
-3.11035
  0
LINE
  8
0
 10
-2.94824
 20
-3.11035
 11
-2.77637
 21
-3.25879
  0
LINE
  8
0
 10
-2.77637
 20
-3.25879
 11
-2.59766
 21
-3.39746
  0
LINE
  8
0
 10
-2.59766
 20
-3.39746
 11
-2.41309
 21
-3.52734
  0
LINE
  8
0
 10
-2.41309
 20
-3.52734
 11
-2.22168
 21
-3.64648
  0
LINE
  8
0
 10
-2.22168
 20
-3.64648
 11
-2.02441
 21
-3.75488
  0
LINE
  8
0
 10
-2.02441
 20
-3.75488
 11
-1.82227
 21
-3.85352
  0
LINE
  8
0
 10
-1.82227
 20
-3.85352
 11
-1.61426
 21
-3.94141
  0
LINE
  8
0
 10
-1.61426
 20
-3.94141
 11
-1.40234
 21
-4.01855
  0
LINE
  8
0
 10
-1.40234
 20
-4.01855
 11
-1.18652
 21
-4.08496
  0
LINE
  8
0
 10
-1.18652
 20
-4.08496
 11
-0.966797
 21
-4.13965
  0
LINE
  8
0
 10
-0.966797
 20
-4.13965
 11
-0.744141
 21
-4.18262
  0
LINE
  8
0
 10
-0.744141
 20
-4.18262
 11
-0.518555
 21
-4.21387
  0
LINE
  8
0
 10
-0.518555
 20
-4.21387
 11
-0.290039
 21
-4.23438
  0
LINE
  8
0
 10
-0.290039
 20
-4.23438
 11
-0.0595703
 21
-4.24121
  0
LINE
  8
0
 10
-0.0595703
 20
-4.24121
 11
0.171875
 21
-4.23633
  0
LINE
  8
0
 10
0.171875
 20
-4.23633
 11
0.213867
 21
-4.23535
  0
LINE
  8
0
 10
0.213867
 20
-4.23535
 11
0.255859
 21
-4.23535
  0
LINE
  8
0
 10
0.255859
 20
-4.23535
 11
0.297852
 21
-4.23828
  0
LINE
  8
0
 10
0.297852
 20
-4.23828
 11
0.338867
 21
-4.24219
  0
LINE
  8
0
 10
0.338867
 20
-4.24219
 11
0.379883
 21
-4.24805
  0
LINE
  8
0
 10
0.379883
 20
-4.24805
 11
0.420898
 21
-4.25586
  0
LINE
  8
0
 10
0.420898
 20
-4.25586
 11
0.460938
 21
-4.26465
  0
LINE
  8
0
 10
0.460938
 20
-4.26465
 11
0.500977
 21
-4.27539
  0
LINE
  8
0
 10
0.500977
 20
-4.27539
 11
0.540039
 21
-4.28809
  0
LINE
  8
0
 10
0.540039
 20
-4.28809
 11
0.579102
 21
-4.30273
  0
LINE
  8
0
 10
0.579102
 20
-4.30273
 11
0.617188
 21
-4.31836
  0
LINE
  8
0
 10
0.617188
 20
-4.31836
 11
0.654297
 21
-4.33496
  0
LINE
  8
0
 10
0.654297
 20
-4.33496
 11
0.691406
 21
-4.35449
  0
LINE
  8
0
 10
0.691406
 20
-4.35449
 11
0.727539
 21
-4.375
  0
LINE
  8
0
 10
0.727539
 20
-4.375
 11
0.762695
 21
-4.39648
  0
LINE
  8
0
 10
0.762695
 20
-4.39648
 11
0.796875
 21
-4.41992
  0
LINE
  8
0
 10
0.796875
 20
-4.41992
 11
0.830078
 21
-4.44434
  0
LINE
  8
0
 10
0.830078
 20
-4.44434
 11
0.862305
 21
-4.4707
  0
LINE
  8
0
 10
0.862305
 20
-4.4707
 11
0.894531
 21
-4.49902
  0
LINE
  8
0
 10
0.894531
 20
-4.49902
 11
0.924805
 21
-4.52832
  0
LINE
  8
0
 10
0.924805
 20
-4.52832
 11
3.27832
 21
-6.88867
  0
LINE
  8
0
 10
3.27832
 20
-6.88867
 11
3.27539
 21
-6.88867
  0
LINE
  8
0
 10
3.27539
 20
-6.88867
 11
3.28613
 21
-6.89941
  0
LINE
  8
0
 10
3.28613
 20
-6.89941
 11
3.2959
 21
-6.91113
  0
LINE
  8
0
 10
3.2959
 20
-6.91113
 11
3.30469
 21
-6.92188
  0
LINE
  8
0
 10
3.30469
 20
-6.92188
 11
3.3125
 21
-6.93457
  0
LINE
  8
0
 10
3.3125
 20
-6.93457
 11
3.32031
 21
-6.94629
  0
LINE
  8
0
 10
3.32031
 20
-6.94629
 11
3.32812
 21
-6.95898
  0
LINE
  8
0
 10
3.32812
 20
-6.95898
 11
3.33398
 21
-6.97266
  0
LINE
  8
0
 10
3.33398
 20
-6.97266
 11
3.33984
 21
-6.98535
  0
LINE
  8
0
 10
3.33984
 20
-6.98535
 11
3.3457
 21
-6.99902
  0
LINE
  8
0
 10
3.3457
 20
-6.99902
 11
3.35352
 21
-7.02637
  0
LINE
  8
0
 10
3.35352
 20
-7.02637
 11
3.35742
 21
-7.04102
  0
LINE
  8
0
 10
3.35742
 20
-7.04102
 11
3.35938
 21
-7.05469
  0
LINE
  8
0
 10
3.35938
 20
-7.05469
 11
3.36133
 21
-7.06934
  0
LINE
  8
0
 10
3.36133
 20
-7.06934
 11
3.36328
 21
-7.09863
  0
LINE
  8
0
 10
3.36328
 20
-7.09863
 11
3.36328
 21
-7.11328
  0
LINE
  8
0
 10
3.36328
 20
-7.11328
 11
3.36133
 21
-7.12793
  0
LINE
  8
0
 10
3.36133
 20
-7.12793
 11
3.36035
 21
-7.14258
  0
LINE
  8
0
 10
3.36035
 20
-7.14258
 11
3.35742
 21
-7.15723
  0
LINE
  8
0
 10
3.35742
 20
-7.15723
 11
3.35449
 21
-7.1709
  0
LINE
  8
0
 10
3.35449
 20
-7.1709
 11
3.35059
 21
-7.18555
  0
LINE
  8
0
 10
3.35059
 20
-7.18555
 11
3.34668
 21
-7.19922
  0
LINE
  8
0
 10
3.34668
 20
-7.19922
 11
3.33496
 21
-7.22656
  0
LINE
  8
0
 10
3.33496
 20
-7.22656
 11
3.3291
 21
-7.23926
  0
LINE
  8
0
 10
3.3291
 20
-7.23926
 11
3.32227
 21
-7.25195
  0
LINE
  8
0
 10
3.32227
 20
-7.25195
 11
3.31445
 21
-7.26465
  0
LINE
  8
0
 10
3.31445
 20
-7.26465
 11
3.30566
 21
-7.27637
  0
LINE
  8
0
 10
3.30566
 20
-7.27637
 11
3.29785
 21
-7.28809
  0
LINE
  8
0
 10
3.29785
 20
-7.28809
 11
3.27832
 21
-7.30957
  0
LINE
  8
0
 10
3.27832
 20
-7.30957
 11
3.26758
 21
-7.32031
  0
LINE
  8
0
 10
3.26758
 20
-7.32031
 11
3.25684
 21
-7.3291
  0
LINE
  8
0
 10
3.25684
 20
-7.3291
 11
3.24609
 21
-7.33887
  0
LINE
  8
0
 10
3.24609
 20
-7.33887
 11
3.23438
 21
-7.34766
  0
LINE
  8
0
 10
3.23438
 20
-7.34766
 11
3.22168
 21
-7.35547
  0
LINE
  8
0
 10
3.22168
 20
-7.35547
 11
3.19629
 21
-7.36914
  0
LINE
  8
0
 10
3.19629
 20
-7.36914
 11
3.18262
 21
-7.37598
  0
LINE
  8
0
 10
3.18262
 20
-7.37598
 11
2.56836
 21
-7.61426
  0
LINE
  8
0
 10
2.56836
 20
-7.61426
 11
1.94629
 21
-7.79785
  0
LINE
  8
0
 10
1.94629
 20
-7.79785
 11
1.31934
 21
-7.93066
  0
LINE
  8
0
 10
1.31934
 20
-7.93066
 11
0.691406
 21
-8.0127
  0
LINE
  8
0
 10
0.691406
 20
-8.0127
 11
0.0644531
 21
-8.04395
  0
LINE
  8
0
 10
0.0644531
 20
-8.04395
 11
-0.55957
 21
-8.02734
  0
LINE
  8
0
 10
-0.55957
 20
-8.02734
 11
-1.17773
 21
-7.96191
  0
LINE
  8
0
 10
-1.17773
 20
-7.96191
 11
-1.78613
 21
-7.85059
  0
LINE
  8
0
 10
-1.78613
 20
-7.85059
 11
-2.38379
 21
-7.69336
  0
LINE
  8
0
 10
-2.38379
 20
-7.69336
 11
-2.9668
 21
-7.49219
  0
LINE
  8
0
 10
-2.9668
 20
-7.49219
 11
-3.5332
 21
-7.24707
  0
LINE
  8
0
 10
-3.5332
 20
-7.24707
 11
-4.08008
 21
-6.95898
  0
LINE
  8
0
 10
-4.08008
 20
-6.95898
 11
-4.60547
 21
-6.62988
  0
LINE
  8
0
 10
-4.60547
 20
-6.62988
 11
-5.10547
 21
-6.25977
  0
LINE
  8
0
 10
-5.10547
 20
-6.25977
 11
-5.57812
 21
-5.85059
  0
LINE
  8
0
 10
-5.57812
 20
-5.85059
 11
-6.01953
 21
-5.40234
  0
LINE
  8
0
 10
-6.01953
 20
-5.40234
 11
-6.42969
 21
-4.91699
  0
LINE
  8
0
 10
-6.42969
 20
-4.91699
 11
-6.80371
 21
-4.39648
  0
LINE
  8
0
 10
-6.80371
 20
-4.39648
 11
-7.13965
 21
-3.83887
  0
LINE
  8
0
 10
-7.13965
 20
-3.83887
 11
-7.43457
 21
-3.24805
  0
LINE
  8
0
 10
-7.43457
 20
-3.24805
 11
-7.43262
 21
-3.24805
  0
LINE
  8
0
 10
-7.43262
 20
-3.24805
 11
-7.44238
 21
-3.22852
  0
LINE
  8
0
 10
-7.44238
 20
-3.22852
 11
-7.45312
 21
-3.21094
  0
LINE
  8
0
 10
-7.45312
 20
-3.21094
 11
-7.46387
 21
-3.19434
  0
LINE
  8
0
 10
-7.46387
 20
-3.19434
 11
-7.47656
 21
-3.17773
  0
LINE
  8
0
 10
-7.47656
 20
-3.17773
 11
-7.49023
 21
-3.16309
  0
LINE
  8
0
 10
-7.49023
 20
-3.16309
 11
-7.50488
 21
-3.14941
  0
LINE
  8
0
 10
-7.50488
 20
-3.14941
 11
-7.52051
 21
-3.13574
  0
LINE
  8
0
 10
-7.52051
 20
-3.13574
 11
-7.53613
 21
-3.12402
  0
LINE
  8
0
 10
-7.53613
 20
-3.12402
 11
-7.55273
 21
-3.11328
  0
LINE
  8
0
 10
-7.55273
 20
-3.11328
 11
-7.57031
 21
-3.10352
  0
LINE
  8
0
 10
-7.57031
 20
-3.10352
 11
-7.60742
 21
-3.08789
  0
LINE
  8
0
 10
-7.60742
 20
-3.08789
 11
-7.62598
 21
-3.08203
  0
LINE
  8
0
 10
-7.62598
 20
-3.08203
 11
-7.64551
 21
-3.07715
  0
LINE
  8
0
 10
-7.64551
 20
-3.07715
 11
-7.66602
 21
-3.07422
  0
LINE
  8
0
 10
-7.66602
 20
-3.07422
 11
-7.68555
 21
-3.07227
  0
LINE
  8
0
 10
-7.68555
 20
-3.07227
 11
-7.70605
 21
-3.07129
  0
LINE
  8
0
 10
-7.70605
 20
-3.07129
 11
-7.72656
 21
-3.07227
  0
LINE
  8
0
 10
-7.72656
 20
-3.07227
 11
-7.74707
 21
-3.07422
  0
LINE
  8
0
 10
-7.74707
 20
-3.07422
 11
-7.76758
 21
-3.07812
  0
LINE
  8
0
 10
-7.76758
 20
-3.07812
 11
-7.78809
 21
-3.08398
  0
LINE
  8
0
 10
-7.78809
 20
-3.08398
 11
-7.80762
 21
-3.08984
  0
LINE
  8
0
 10
-7.80762
 20
-3.08984
 11
-7.82715
 21
-3.09766
  0
LINE
  8
0
 10
-7.82715
 20
-3.09766
 11
-7.84473
 21
-3.10645
  0
LINE
  8
0
 10
-7.84473
 20
-3.10645
 11
-7.8623
 21
-3.11719
  0
LINE
  8
0
 10
-7.8623
 20
-3.11719
 11
-7.87891
 21
-3.12793
  0
LINE
  8
0
 10
-7.87891
 20
-3.12793
 11
-7.89551
 21
-3.14062
  0
LINE
  8
0
 10
-7.89551
 20
-3.14062
 11
-7.91016
 21
-3.15332
  0
LINE
  8
0
 10
-7.91016
 20
-3.15332
 11
-7.9375
 21
-3.18262
  0
LINE
  8
0
 10
-7.9375
 20
-3.18262
 11
-7.94922
 21
-3.19922
  0
LINE
  8
0
 10
-7.94922
 20
-3.19922
 11
-7.95996
 21
-3.21582
  0
LINE
  8
0
 10
-7.95996
 20
-3.21582
 11
-7.96973
 21
-3.2334
  0
LINE
  8
0
 10
-7.96973
 20
-3.2334
 11
-7.97852
 21
-3.25195
  0
LINE
  8
0
 10
-7.97852
 20
-3.25195
 11
-7.98633
 21
-3.27051
  0
LINE
  8
0
 10
-7.98633
 20
-3.27051
 11
-7.99219
 21
-3.29004
  0
LINE
  8
0
 10
-7.99219
 20
-3.29004
 11
-7.99707
 21
-3.30957
  0
LINE
  8
0
 10
-7.99707
 20
-3.30957
 11
-8.00098
 21
-3.33008
  0
LINE
  8
0
 10
-8.00098
 20
-3.33008
 11
-8.00293
 21
-3.35059
  0
LINE
  8
0
 10
-8.00293
 20
-3.35059
 11
-8.00293
 21
-12.8428
  0
LINE
  8
0
 10
-8.00293
 20
-12.8428
 11
-8.00195
 21
-12.8672
  0
LINE
  8
0
 10
-8.00195
 20
-12.8672
 11
-8
 21
-12.8916
  0
LINE
  8
0
 10
-8
 20
-12.8916
 11
-7.99512
 21
-12.915
  0
LINE
  8
0
 10
-7.99512
 20
-12.915
 11
-7.98828
 21
-12.9375
  0
LINE
  8
0
 10
-7.98828
 20
-12.9375
 11
-7.97949
 21
-12.959
  0
LINE
  8
0
 10
-7.97949
 20
-12.959
 11
-7.96973
 21
-12.9805
  0
LINE
  8
0
 10
-7.96973
 20
-12.9805
 11
-7.95898
 21
-13
  0
LINE
  8
0
 10
-7.95898
 20
-13
 11
-7.94629
 21
-13.0195
  0
LINE
  8
0
 10
-7.94629
 20
-13.0195
 11
-7.93164
 21
-13.0381
  0
LINE
  8
0
 10
-7.93164
 20
-13.0381
 11
-7.91602
 21
-13.0547
  0
LINE
  8
0
 10
-7.91602
 20
-13.0547
 11
-7.89941
 21
-13.0703
  0
LINE
  8
0
 10
-7.89941
 20
-13.0703
 11
-7.8623
 21
-13.0977
  0
LINE
  8
0
 10
-7.8623
 20
-13.0977
 11
-7.8418
 21
-13.1084
  0
LINE
  8
0
 10
-7.8418
 20
-13.1084
 11
-7.82129
 21
-13.1182
  0
LINE
  8
0
 10
-7.82129
 20
-13.1182
 11
-7.7998
 21
-13.127
  0
LINE
  8
0
 10
-7.7998
 20
-13.127
 11
-7.77637
 21
-13.1338
  0
LINE
  8
0
 10
-7.77637
 20
-13.1338
 11
-7.75391
 21
-13.1387
  0
LINE
  8
0
 10
-7.75391
 20
-13.1387
 11
-7.72949
 21
-13.1416
  0
LINE
  8
0
 10
-7.72949
 20
-13.1416
 11
-7.70508
 21
-13.1426
  0
LINE
  8
0
 10
-7.70508
 20
-13.1426
 11
-7.7041
 21
-13.1445
  0
LINE
  8
0
 10
-7.7041
 20
-13.1445
 11
-5.91113
 21
-13.1445
  0
LINE
  8
0
 10
-5.91113
 20
-13.1445
 11
-5.91113
 21
-9.98926
  0
LINE
  8
0
 10
-5.91113
 20
-9.98926
 11
-5.91016
 21
-9.96289
  0
LINE
  8
0
 10
-5.91016
 20
-9.96289
 11
-5.9082
 21
-9.93652
  0
LINE
  8
0
 10
-5.9082
 20
-9.93652
 11
-5.90527
 21
-9.91113
  0
LINE
  8
0
 10
-5.90527
 20
-9.91113
 11
-5.90039
 21
-9.88574
  0
LINE
  8
0
 10
-5.90039
 20
-9.88574
 11
-5.89453
 21
-9.86035
  0
LINE
  8
0
 10
-5.89453
 20
-9.86035
 11
-5.8877
 21
-9.83594
  0
LINE
  8
0
 10
-5.8877
 20
-9.83594
 11
-5.87891
 21
-9.81152
  0
LINE
  8
0
 10
-5.87891
 20
-9.81152
 11
-5.86914
 21
-9.78809
  0
LINE
  8
0
 10
-5.86914
 20
-9.78809
 11
-5.8584
 21
-9.76465
  0
LINE
  8
0
 10
-5.8584
 20
-9.76465
 11
-5.84668
 21
-9.74219
  0
LINE
  8
0
 10
-5.84668
 20
-9.74219
 11
-5.81934
 21
-9.69922
  0
LINE
  8
0
 10
-5.81934
 20
-9.69922
 11
-5.80371
 21
-9.67969
  0
LINE
  8
0
 10
-5.80371
 20
-9.67969
 11
-5.78809
 21
-9.65918
  0
LINE
  8
0
 10
-5.78809
 20
-9.65918
 11
-5.77051
 21
-9.64062
  0
LINE
  8
0
 10
-5.77051
 20
-9.64062
 11
-5.75195
 21
-9.62305
  0
LINE
  8
0
 10
-5.75195
 20
-9.62305
 11
-5.73242
 21
-9.60547
  0
LINE
  8
0
 10
-5.73242
 20
-9.60547
 11
-5.69141
 21
-9.57422
  0
LINE
  8
0
 10
-5.69141
 20
-9.57422
 11
-5.64648
 21
-9.54688
  0
LINE
  8
0
 10
-5.64648
 20
-9.54688
 11
-5.59961
 21
-9.52539
  0
LINE
  8
0
 10
-5.59961
 20
-9.52539
 11
-5.5752
 21
-9.5166
  0
LINE
  8
0
 10
-5.5752
 20
-9.5166
 11
-5.55078
 21
-9.50879
  0
LINE
  8
0
 10
-5.55078
 20
-9.50879
 11
-5.52637
 21
-9.50195
  0
LINE
  8
0
 10
-5.52637
 20
-9.50195
 11
-5.50098
 21
-9.49707
  0
LINE
  8
0
 10
-5.50098
 20
-9.49707
 11
-5.47559
 21
-9.49316
  0
LINE
  8
0
 10
-5.47559
 20
-9.49316
 11
-5.4502
 21
-9.49023
  0
LINE
  8
0
 10
-5.4502
 20
-9.49023
 11
-5.4248
 21
-9.48926
  0
LINE
  8
0
 10
-5.4248
 20
-9.48926
 11
-5.39941
 21
-9.48926
  0
LINE
  8
0
 10
-5.39941
 20
-9.48926
 11
-5.37402
 21
-9.49023
  0
LINE
  8
0
 10
-5.37402
 20
-9.49023
 11
-5.34863
 21
-9.49316
  0
LINE
  8
0
 10
-5.34863
 20
-9.49316
 11
-5.32422
 21
-9.49707
  0
LINE
  8
0
 10
-5.32422
 20
-9.49707
 11
-5.29883
 21
-9.50195
  0
LINE
  8
0
 10
-5.29883
 20
-9.50195
 11
-5.27441
 21
-9.50879
  0
LINE
  8
0
 10
-5.27441
 20
-9.50879
 11
-5.25
 21
-9.5166
  0
LINE
  8
0
 10
-5.25
 20
-9.5166
 11
-5.20117
 21
-9.53613
  0
LINE
  8
0
 10
-5.20117
 20
-9.53613
 11
-5.17773
 21
-9.54785
  0
LINE
  8
0
 10
-5.17773
 20
-9.54785
 11
-5.02734
 21
-9.62695
  0
LINE
  8
0
 10
-5.02734
 20
-9.62695
 11
-4.87402
 21
-9.70508
  0
LINE
  8
0
 10
-4.87402
 20
-9.70508
 11
-4.71875
 21
-9.78027
  0
LINE
  8
0
 10
-4.71875
 20
-9.78027
 11
-4.56348
 21
-9.85352
  0
LINE
  8
0
 10
-4.56348
 20
-9.85352
 11
-4.40723
 21
-9.92383
  0
LINE
  8
0
 10
-4.40723
 20
-9.92383
 11
-4.24902
 21
-9.99121
  0
LINE
  8
0
 10
-4.24902
 20
-9.99121
 11
-4.09082
 21
-10.0566
  0
LINE
  8
0
 10
-4.09082
 20
-10.0566
 11
-3.93066
 21
-10.1191
  0
LINE
  8
0
 10
-3.93066
 20
-10.1191
 11
-3.77051
 21
-10.1797
  0
LINE
  8
0
 10
-3.77051
 20
-10.1797
 11
-3.60938
 21
-10.2373
  0
LINE
  8
0
 10
-3.60938
 20
-10.2373
 11
-3.44629
 21
-10.292
  0
LINE
  8
0
 10
-3.44629
 20
-10.292
 11
-3.2832
 21
-10.3447
  0
LINE
  8
0
 10
-3.2832
 20
-10.3447
 11
-3.11914
 21
-10.3945
  0
LINE
  8
0
 10
-3.11914
 20
-10.3945
 11
-2.9541
 21
-10.4424
  0
LINE
  8
0
 10
-2.9541
 20
-10.4424
 11
-2.78906
 21
-10.4863
  0
LINE
  8
0
 10
-2.78906
 20
-10.4863
 11
-2.62207
 21
-10.5293
  0
LINE
  8
0
 10
-2.62207
 20
-10.5293
 11
-2.45508
 21
-10.5684
  0
LINE
  8
0
 10
-2.45508
 20
-10.5684
 11
-2.28809
 21
-10.6055
  0
LINE
  8
0
 10
-2.28809
 20
-10.6055
 11
-2.11914
 21
-10.6396
  0
LINE
  8
0
 10
-2.11914
 20
-10.6396
 11
-1.9502
 21
-10.6719
  0
LINE
  8
0
 10
-1.9502
 20
-10.6719
 11
-1.94922
 21
-10.6699
  0
LINE
  8
0
 10
-1.94922
 20
-10.6699
 11
-1.87891
 21
-10.6855
  0
LINE
  8
0
 10
-1.87891
 20
-10.6855
 11
-1.81055
 21
-10.7051
  0
LINE
  8
0
 10
-1.81055
 20
-10.7051
 11
-1.74512
 21
-10.7295
  0
LINE
  8
0
 10
-1.74512
 20
-10.7295
 11
-1.68164
 21
-10.7588
  0
LINE
  8
0
 10
-1.68164
 20
-10.7588
 11
-1.62012
 21
-10.792
  0
LINE
  8
0
 10
-1.62012
 20
-10.792
 11
-1.5625
 21
-10.8291
  0
LINE
  8
0
 10
-1.5625
 20
-10.8291
 11
-1.50684
 21
-10.8701
  0
LINE
  8
0
 10
-1.50684
 20
-10.8701
 11
-1.45508
 21
-10.9141
  0
LINE
  8
0
 10
-1.45508
 20
-10.9141
 11
-1.40527
 21
-10.9619
  0
LINE
  8
0
 10
-1.40527
 20
-10.9619
 11
-1.36035
 21
-11.0127
  0
LINE
  8
0
 10
-1.36035
 20
-11.0127
 11
-1.31836
 21
-11.0664
  0
LINE
  8
0
 10
-1.31836
 20
-11.0664
 11
-1.28027
 21
-11.124
  0
LINE
  8
0
 10
-1.28027
 20
-11.124
 11
-1.24512
 21
-11.1826
  0
LINE
  8
0
 10
-1.24512
 20
-11.1826
 11
-1.21484
 21
-11.2451
  0
LINE
  8
0
 10
-1.21484
 20
-11.2451
 11
-1.18945
 21
-11.3086
  0
LINE
  8
0
 10
-1.18945
 20
-11.3086
 11
-1.16699
 21
-11.375
  0
LINE
  8
0
 10
-1.16699
 20
-11.375
 11
-1.15039
 21
-11.4424
  0
LINE
  8
0
 10
-1.15039
 20
-11.4424
 11
-1.1377
 21
-11.5117
  0
LINE
  8
0
 10
-1.1377
 20
-11.5117
 11
-1.12988
 21
-11.583
  0
LINE
  8
0
 10
-1.12988
 20
-11.583
 11
-1.12695
 21
-11.6553
  0
LINE
  8
0
 10
-1.12695
 20
-11.6553
 11
-1.12695
 21
-18.8945
  0
LINE
  8
0
 10
-1.12695
 20
-18.8945
 11
-1.13086
 21
-18.9766
  0
LINE
  8
0
 10
-1.13086
 20
-18.9766
 11
-1.14062
 21
-19.0566
  0
LINE
  8
0
 10
-1.14062
 20
-19.0566
 11
-1.15625
 21
-19.1348
  0
LINE
  8
0
 10
-1.15625
 20
-19.1348
 11
-1.17871
 21
-19.2109
  0
LINE
  8
0
 10
-1.17871
 20
-19.2109
 11
-1.20605
 21
-19.2842
  0
LINE
  8
0
 10
-1.20605
 20
-19.2842
 11
-1.23828
 21
-19.3545
  0
LINE
  8
0
 10
-1.23828
 20
-19.3545
 11
-1.27734
 21
-19.4219
  0
LINE
  8
0
 10
-1.27734
 20
-19.4219
 11
-1.32031
 21
-19.4854
  0
LINE
  8
0
 10
-1.32031
 20
-19.4854
 11
-1.36719
 21
-19.5459
  0
LINE
  8
0
 10
-1.36719
 20
-19.5459
 11
-1.41992
 21
-19.6016
  0
LINE
  8
0
 10
-1.41992
 20
-19.6016
 11
-1.47559
 21
-19.6543
  0
LINE
  8
0
 10
-1.47559
 20
-19.6543
 11
-1.53613
 21
-19.7021
  0
LINE
  8
0
 10
-1.53613
 20
-19.7021
 11
-1.59961
 21
-19.7451
  0
LINE
  8
0
 10
-1.59961
 20
-19.7451
 11
-1.66602
 21
-19.7832
  0
LINE
  8
0
 10
-1.66602
 20
-19.7832
 11
-1.73633
 21
-19.8164
  0
LINE
  8
0
 10
-1.73633
 20
-19.8164
 11
-1.80957
 21
-19.8438
  0
LINE
  8
0
 10
-1.80957
 20
-19.8438
 11
-1.88477
 21
-19.8662
  0
LINE
  8
0
 10
-1.88477
 20
-19.8662
 11
-1.96289
 21
-19.8818
  0
LINE
  8
0
 10
-1.96289
 20
-19.8818
 11
-2.04297
 21
-19.8916
  0
LINE
  8
0
 10
-2.04297
 20
-19.8916
 11
-2.125
 21
-19.8945
  0
LINE
  8
0
 10
-2.125
 20
-19.8945
 11
-5.61133
 21
-19.8945
  0
LINE
  8
0
 10
-5.61133
 20
-19.8945
 11
-5.6123
 21
-19.8926
  0
LINE
  8
0
 10
-5.6123
 20
-19.8926
 11
-5.63672
 21
-19.8916
  0
LINE
  8
0
 10
-5.63672
 20
-19.8916
 11
-5.66113
 21
-19.8887
  0
LINE
  8
0
 10
-5.66113
 20
-19.8887
 11
-5.68457
 21
-19.8838
  0
LINE
  8
0
 10
-5.68457
 20
-19.8838
 11
-5.70703
 21
-19.8779
  0
LINE
  8
0
 10
-5.70703
 20
-19.8779
 11
-5.72852
 21
-19.8691
  0
LINE
  8
0
 10
-5.72852
 20
-19.8691
 11
-5.75
 21
-19.8594
  0
LINE
  8
0
 10
-5.75
 20
-19.8594
 11
-5.76953
 21
-19.8477
  0
LINE
  8
0
 10
-5.76953
 20
-19.8477
 11
-5.78906
 21
-19.835
  0
LINE
  8
0
 10
-5.78906
 20
-19.835
 11
-5.80664
 21
-19.8203
  0
LINE
  8
0
 10
-5.80664
 20
-19.8203
 11
-5.82422
 21
-19.8047
  0
LINE
  8
0
 10
-5.82422
 20
-19.8047
 11
-5.83887
 21
-19.7881
  0
LINE
  8
0
 10
-5.83887
 20
-19.7881
 11
-5.85352
 21
-19.7705
  0
LINE
  8
0
 10
-5.85352
 20
-19.7705
 11
-5.86621
 21
-19.751
  0
LINE
  8
0
 10
-5.86621
 20
-19.751
 11
-5.87793
 21
-19.7314
  0
LINE
  8
0
 10
-5.87793
 20
-19.7314
 11
-5.8877
 21
-19.71
  0
LINE
  8
0
 10
-5.8877
 20
-19.71
 11
-5.89551
 21
-19.6885
  0
LINE
  8
0
 10
-5.89551
 20
-19.6885
 11
-5.90234
 21
-19.665
  0
LINE
  8
0
 10
-5.90234
 20
-19.665
 11
-5.90723
 21
-19.6416
  0
LINE
  8
0
 10
-5.90723
 20
-19.6416
 11
-5.91016
 21
-19.6182
  0
LINE
  8
0
 10
-5.91016
 20
-19.6182
 11
-5.91113
 21
-19.5938
  0
LINE
  8
0
 10
-5.91113
 20
-19.5938
 11
-5.91113
 21
-17.4443
  0
LINE
  8
0
 10
-5.91113
 20
-17.4443
 11
-7.70508
 21
-17.4443
  0
LINE
  8
0
 10
-7.70508
 20
-17.4443
 11
-7.72949
 21
-17.4453
  0
LINE
  8
0
 10
-7.72949
 20
-17.4453
 11
-7.75391
 21
-17.4482
  0
LINE
  8
0
 10
-7.75391
 20
-17.4482
 11
-7.77637
 21
-17.4531
  0
LINE
  8
0
 10
-7.77637
 20
-17.4531
 11
-7.7998
 21
-17.46
  0
LINE
  8
0
 10
-7.7998
 20
-17.46
 11
-7.82129
 21
-17.4678
  0
LINE
  8
0
 10
-7.82129
 20
-17.4678
 11
-7.8418
 21
-17.4775
  0
LINE
  8
0
 10
-7.8418
 20
-17.4775
 11
-7.8623
 21
-17.4893
  0
LINE
  8
0
 10
-7.8623
 20
-17.4893
 11
-7.88086
 21
-17.502
  0
LINE
  8
0
 10
-7.88086
 20
-17.502
 11
-7.89941
 21
-17.5166
  0
LINE
  8
0
 10
-7.89941
 20
-17.5166
 11
-7.91602
 21
-17.5322
  0
LINE
  8
0
 10
-7.91602
 20
-17.5322
 11
-7.93164
 21
-17.5488
  0
LINE
  8
0
 10
-7.93164
 20
-17.5488
 11
-7.94629
 21
-17.5674
  0
LINE
  8
0
 10
-7.94629
 20
-17.5674
 11
-7.95898
 21
-17.5859
  0
LINE
  8
0
 10
-7.95898
 20
-17.5859
 11
-7.96973
 21
-17.6064
  0
LINE
  8
0
 10
-7.96973
 20
-17.6064
 11
-7.97949
 21
-17.627
  0
LINE
  8
0
 10
-7.97949
 20
-17.627
 11
-7.98828
 21
-17.6494
  0
LINE
  8
0
 10
-7.98828
 20
-17.6494
 11
-7.99512
 21
-17.6719
  0
LINE
  8
0
 10
-7.99512
 20
-17.6719
 11
-8
 21
-17.6953
  0
LINE
  8
0
 10
-8
 20
-17.6953
 11
-8.00195
 21
-17.7197
  0
LINE
  8
0
 10
-8.00195
 20
-17.7197
 11
-8.00293
 21
-17.7441
  0
LINE
  8
0
 10
-8.00293
 20
-17.7441
 11
-8.00293
 21
-29.3955
  0
LINE
  8
0
 10
-8.00293
 20
-29.3955
 11
-8.00195
 21
-29.4365
  0
LINE
  8
0
 10
-8.00195
 20
-29.4365
 11
-7.99707
 21
-29.4766
  0
LINE
  8
0
 10
-7.99707
 20
-29.4766
 11
-7.98926
 21
-29.5156
  0
LINE
  8
0
 10
-7.98926
 20
-29.5156
 11
-7.97754
 21
-29.5537
  0
LINE
  8
0
 10
-7.97754
 20
-29.5537
 11
-7.96387
 21
-29.5908
  0
LINE
  8
0
 10
-7.96387
 20
-29.5908
 11
-7.94824
 21
-29.626
  0
LINE
  8
0
 10
-7.94824
 20
-29.626
 11
-7.92871
 21
-29.6592
  0
LINE
  8
0
 10
-7.92871
 20
-29.6592
 11
-7.90723
 21
-29.6914
  0
LINE
  8
0
 10
-7.90723
 20
-29.6914
 11
-7.88379
 21
-29.7217
  0
LINE
  8
0
 10
-7.88379
 20
-29.7217
 11
-7.85742
 21
-29.749
  0
LINE
  8
0
 10
-7.85742
 20
-29.749
 11
-7.8291
 21
-29.7754
  0
LINE
  8
0
 10
-7.8291
 20
-29.7754
 11
-7.7998
 21
-29.7998
  0
LINE
  8
0
 10
-7.7998
 20
-29.7998
 11
-7.76758
 21
-29.8213
  0
LINE
  8
0
 10
-7.76758
 20
-29.8213
 11
-7.73438
 21
-29.8398
  0
LINE
  8
0
 10
-7.73438
 20
-29.8398
 11
-7.69922
 21
-29.8564
  0
LINE
  8
0
 10
-7.69922
 20
-29.8564
 11
-7.66309
 21
-29.8701
  0
LINE
  8
0
 10
-7.66309
 20
-29.8701
 11
-7.625
 21
-29.8809
  0
LINE
  8
0
 10
-7.625
 20
-29.8809
 11
-7.58594
 21
-29.8896
  0
LINE
  8
0
 10
-7.58594
 20
-29.8896
 11
-7.5459
 21
-29.8945
  0
LINE
  8
0
 10
-7.5459
 20
-29.8945
 11
-7.50488
 21
-29.8955
  0
LINE
  8
0
 10
-7.50488
 20
-29.8955
 11
-7.50391
 21
-29.8984
  0
LINE
  8
0
 10
-7.50391
 20
-29.8984
 11
-2.47266
 21
-29.8984
  0
LINE
  8
0
 10
-2.47266
 20
-29.8984
 11
-2.47461
 21
-29.8955
  0
ENDSEC
  0
SECTION
  2
OBJECTS
  0
DICTIONARY
  0
ENDSEC
  0
EOF
