<?xml version="1.0" encoding="UTF-8" standalone="no"?>
<!-- Created with Inkscape (http://www.inkscape.org/) -->

<svg
   xmlns:dc="http://purl.org/dc/elements/1.1/"
   xmlns:cc="http://creativecommons.org/ns#"
   xmlns:rdf="http://www.w3.org/1999/02/22-rdf-syntax-ns#"
   xmlns:svg="http://www.w3.org/2000/svg"
   xmlns="http://www.w3.org/2000/svg"
   xmlns:sodipodi="http://sodipodi.sourceforge.net/DTD/sodipodi-0.dtd"
   xmlns:inkscape="http://www.inkscape.org/namespaces/inkscape"
   id="svg2"
   version="1.1"
   inkscape:version="0.91 r13725"
   xml:space="preserve"
   width="141.73225"
   height="141.73225"
   viewBox="0 0 141.73225 141.73225"
   sodipodi:docname="S 253.svg"><metadata
     id="metadata8"><rdf:RDF><cc:Work
         rdf:about=""><dc:format>image/svg+xml</dc:format><dc:type
           rdf:resource="http://purl.org/dc/dcmitype/StillImage" /><dc:title></dc:title></cc:Work></rdf:RDF></metadata><defs
     id="defs6" /><sodipodi:namedview
     pagecolor="#ffffff"
     bordercolor="#666666"
     borderopacity="1"
     objecttolerance="10"
     gridtolerance="10"
     guidetolerance="10"
     inkscape:pageopacity="0"
     inkscape:pageshadow="2"
     inkscape:window-width="1222"
     inkscape:window-height="793"
     id="namedview4"
     showgrid="false"
     inkscape:zoom="6.6604458"
     inkscape:cx="45.648006"
     inkscape:cy="80.260114"
     inkscape:window-x="0"
     inkscape:window-y="0"
     inkscape:window-maximized="0"
     inkscape:current-layer="g10" /><g
     id="g10"
     inkscape:groupmode="layer"
     inkscape:label="S 253"
     transform="matrix(1.25,0,0,-1.25,0,141.73225)"><path
       d="m 58.0422,50.1355 -0.0017,0.0014 c -0.2823,0.2821 -0.6707,0.4323 -1.0695,0.4133 l 3e-4,-8e-4 c -2.204,-0.104 -4.2956,0.9779 -5.4839,2.8372 -1.1883,1.8589 -1.2921,4.2117 -0.2719,6.1682 l 0.0023,0.0017 c 0.0941,0.1808 0.2616,0.3121 0.4595,0.3605 0.1981,0.0485 0.4073,0.0091 0.5743,-0.108 l 0.0028,-0.0014 1.7246,-1.2092 -0.002,2e-4 c 0.1747,-0.1221 0.2316,-0.3554 0.1324,-0.5442 l -0.002,-3e-4 c -0.4155,-0.7926 -0.4425,-1.7322 -0.0731,-2.5475 0.3694,-0.8149 1.0936,-1.4145 1.9636,-1.6245 l 0.0014,-9e-4 c 0.138,-0.0331 0.2503,-0.1335 0.299,-0.267 l 0.0632,-0.1698 c 0.0624,-0.1715 0.2274,-0.2837 0.4094,-0.2789 l -0.0015,5e-4 c 0.7708,0.0196 1.514,0.2903 2.1172,0.7708 l 0.0017,-6e-4 c 0.1426,0.1137 0.1965,0.3056 0.1344,0.4771 l 6e-4,-0.0017 -0.0615,0.1726 8e-4,0.0017 c -0.0487,0.1335 -0.0269,0.2826 0.0573,0.3969 l -0.0023,-0.0017 c 0.5312,0.7203 0.701,1.6449 0.4601,2.5066 -0.2413,0.8621 -0.8657,1.5645 -1.6937,1.9046 -0.1976,0.0808 -0.3039,0.296 -0.2486,0.5021 l 8e-4,-3e-4 0.5463,2.0333 -6e-4,0.0028 c 0.0527,0.1967 0.1876,0.3614 0.3705,0.4516 0.1825,0.0901 0.3957,0.0972 0.5836,0.0195 l -0.0014,-5e-4 c 1.8199,-0.7524 3.1706,-2.329 3.6349,-4.2427 0.464,-1.9136 -0.0142,-3.9339 -1.2872,-5.4362 l 0.0025,0.0017 c -0.2381,-0.2812 -0.2208,-0.6979 0.0394,-0.9584 l -5e-4,-0.0037 6.3833,-6.3836 -6e-4,0.0025 c 0.1327,-0.1329 0.2075,-0.3129 0.2075,-0.5009 l 0.0031,-0.0014 0,-6.5191 -0.0031,0.0014 c 0,-0.2341 -0.1899,-0.4241 -0.4243,-0.4241 l 0.0017,-0.0031 -2.5515,0 0,4.4688 c 0,0.2489 -0.1307,0.4797 -0.3444,0.6075 -0.2134,0.1279 -0.4782,0.1347 -0.6976,0.017 l -0.0017,0.0014 C 62.5592,42.2595 61.0106,41.722 59.4065,41.4357 l 0.0017,0.002 c -0.676,-0.1208 -1.1684,-0.7089 -1.1684,-1.3958 l 0,-10.2523 c 0,-0.783 0.6347,-1.4176 1.4176,-1.4176 l 4.9595,0 -0.0014,0.0031 c 0.2344,0 0.424,0.1899 0.424,0.424 l 3e-4,-0.0014 0,3.0453 2.5569,0 c 0.2313,-0.004 0.4172,-0.1925 0.4172,-0.4244 l 0.0031,-0.0014 0,-16.5033 -0.0031,0.0017 c 0,-0.3912 -0.3169,-0.7081 -0.7081,-0.7081 l 0.0014,-0.0031 -7.1546,0 -0.0017,0.0031 c -0.2341,0 -0.4241,0.1899 -0.4241,0.4241 l 0.0032,-0.0014 0,2.5514 5.0275,0 c 0.2344,0 0.424,0.19 0.424,0.4244 l 0,-0.0017 0,7.2275 c 0,0.3909 -0.3169,0.7078 -0.7078,0.7078 -0.0031,0 -0.0062,0 -0.0093,0 l -15.5747,0 c -0.3909,0 -0.7078,-0.3169 -0.7078,-0.7081 l 0,-7.2255 c 0,-0.2344 0.1896,-0.4244 0.4241,-0.4244 l 5.0306,0 0,-2.5514 -0.0031,0.0014 c 0,-0.2342 -0.1899,-0.4241 -0.4244,-0.4241 l 0.0017,-0.0031 -7.1518,0 -0.0014,0.0031 c -0.3912,0 -0.7081,0.3169 -0.7081,0.7081 l 0,16.503 c 0,0.2345 0.1899,0.4244 0.4241,0.4244 l 2.55,0 0,-3.0439 c 0,-0.2341 0.1899,-0.424 0.4244,-0.424 l 0.0014,-0.0031 4.9564,0 c 0.7832,0 1.4179,0.6346 1.4179,1.4176 l 0,10.2526 c 0,0.6866 -0.4924,1.2747 -1.1688,1.3955 l -0.0011,-0.002 c -1.6041,0.2863 -3.1527,0.8238 -4.5896,1.5922 l 0.0014,-0.0014 c -0.2194,0.1177 -0.4841,0.1109 -0.6979,-0.017 -0.2134,-0.1278 -0.3441,-0.3586 -0.3441,-0.6075 l 0,-4.4688 -2.5483,0 -0.0017,0.0031 c -0.2342,0 -0.4241,0.19 -0.4241,0.4241 l 0,13.4147 c 0,0.1998 0.1395,0.3727 0.3348,0.415 0.1956,0.0419 0.3937,-0.0581 0.4759,-0.2401 l -0.0017,-6e-4 c 2.594,-5.7387 9.3087,-8.3404 15.0922,-5.8473 l 0,0.0014 c 0.1293,0.0559 0.2223,0.1718 0.2486,0.3101 0.0267,0.1381 -0.0173,0.2801 -0.1165,0.3796 l 0.004,8e-4 -3.3446,3.3415 z"
       style="fill:#231f20;fill-opacity:1;fill-rule:evenodd;stroke:none"
       id="path12"
       inkscape:connector-curvature="0" /><path
       d="m 48.1915,95.7832 0.0031,-0.0014 0,-7.2227 -0.0031,0.0015 c 0,-0.3909 0.3169,-0.7078 0.7078,-0.7078 l 0.0017,-0.0032 15.5838,0 -0.0017,0.0032 c 0.3912,0 0.7081,0.3169 0.7081,0.7078 l 0,-0.0015 0,7.2241 c 0,0.2345 -0.1899,0.4244 -0.4244,0.4244 l -5.0272,0 0,2.5515 -0.0031,0.0014 c 0,0.2344 0.1899,0.4243 0.424,0.4243 l 0.002,-0.0031 7.1547,0 -0.0017,0.0031 c 0.3911,0 0.7081,-0.3169 0.7081,-0.7081 l 0.0031,-0.0014 0,-16.5033 -0.0031,0.0014 c 0,-0.2341 -0.19,-0.424 -0.4244,-0.424 l 0.0017,-0.0032 -2.5483,0 0,3.0453 -0.0032,0.0017 c 0,0.2319 -0.1862,0.4204 -0.4172,0.4241 l -4.9635,0 -0.0017,0.0031 c -0.7829,0 -1.4176,-0.6347 -1.4176,-1.4179 l 0.0031,-0.0014 0,-15.5404 -0.0031,0.0014 c 0,-0.6449 0.4351,-1.2084 1.059,-1.3714 l -0.0034,0 c 0.5383,-0.1406 1.0647,-0.3246 1.5736,-0.5499 0.0042,-0.002 0.0085,-0.004 0.0127,-0.006 0.2679,-0.119 0.5811,-0.0609 0.7883,0.1463 l 6e-4,-6e-4 2.9557,2.9557 -0.0017,-0.0011 c 0.2659,0.2656 0.4152,0.6262 0.4152,1.002 l 0.0032,-0.0014 0,5.2172 2.5483,0 -0.0017,0.0031 c 0.2342,0 0.4244,-0.1896 0.4244,-0.4241 l 0.0031,-0.0017 0,-6.5191 -0.0031,0.0014 c 0,-0.1876 -0.0746,-0.3676 -0.2075,-0.5006 l 0.0039,-5e-4 -6.2538,-6.2538 -0.0039,5e-4 C 61.3089,61.505 60.9066,61.4806 60.6249,61.7017 l -9e-4,0.0023 c -2.2201,1.741 -5.3201,1.8156 -7.6215,0.1843 -2.3017,-1.632 -3.257,-4.582 -2.3491,-7.2533 0.908,-2.6708 3.4631,-4.4278 6.2822,-4.3192 l 0.0019,6e-4 c 0.3946,0.015 0.7779,-0.135 1.0571,-0.4142 l 0.002,-0.0014 3.0449,-3.0452 -0.0039,-6e-4 c 0.1009,-0.1009 0.1443,-0.2458 0.1156,-0.3855 -0.0286,-0.1398 -0.1255,-0.2557 -0.2579,-0.3087 l -0.0012,0.0011 c -3.4914,-1.3946 -7.4477,-0.9674 -10.5604,1.1412 -3.113,2.1087 -4.9777,5.624 -4.9777,9.3836 l 0.0031,-0.0014 0,18.3464 c 0,0.2347 0.19,0.4243 0.4241,0.4243 l 0.0017,-0.0031 2.5486,0 0,-10.7938 c 0,-0.2837 0.1693,-0.54 0.4301,-0.6511 0.261,-0.1114 0.5632,-0.0561 0.7681,0.14 l -5e-4,3e-4 c 1.2725,1.2212 2.8363,2.0962 4.5428,2.5424 0.6242,0.163 1.0593,0.7265 1.0593,1.3714 l 0,-0.0014 0,15.5421 c 0,0.7829 -0.6347,1.4176 -1.4179,1.4176 l 0.002,-0.0031 -4.9598,0 c -0.2344,0 -0.4243,-0.19 -0.4243,-0.4244 0,-0.0023 0,-0.0048 2e-4,-0.0071 l 0,-3.0396 -2.5486,0 -0.0017,0.0032 c -0.2341,0 -0.4241,0.1899 -0.4241,0.424 l 0,16.5033 c 0,0.3912 0.317,0.7081 0.7081,0.7081 l 0.0017,-0.0031 7.1547,0 -0.0017,0.0031 c 0.2344,0 0.4243,-0.1899 0.4243,-0.424 l 0,-2.5532 -5.0306,0 c -0.2342,0 -0.4241,-0.1899 -0.4241,-0.4244 z"
       style="fill:#b4b4b4;stroke:#231f20;stroke-width:0.21600001;stroke-linecap:butt;stroke-linejoin:miter;stroke-miterlimit:22.92558479;stroke-dasharray:none;stroke-opacity:1;fill-opacity:1"
       id="path14"
       inkscape:connector-curvature="0" /><path
       d="m 45.3591,74.9988 0.4544,0.4544"
       style="fill:none;stroke:#231f20;stroke-width:0.21600001;stroke-linecap:butt;stroke-linejoin:miter;stroke-miterlimit:22.92558479;stroke-dasharray:none;stroke-opacity:1"
       id="path72"
       inkscape:connector-curvature="0" /></g></svg>