solid al-profile-cover
facet normal 0.0 0.0 -1.0
  outer loop
    vertex 31.53073372946036 33.695518130045144 0.0
    vertex 30.0 26.000000000000004 0.0
    vertex 30.0 34.0 0.0
  endloop
endfacet
facet normal 0.0 0.0 -1.0
  outer loop
    vertex 30.0 26.000000000000004 0.0
    vertex 31.53073372946036 33.695518130045144 0.0
    vertex 31.530733729460366 26.30448186995486 0.0
  endloop
endfacet
facet normal 0.0 0.0 -1.0
  outer loop
    vertex 31.530733729460366 26.30448186995486 0.0
    vertex 31.53073372946036 33.695518130045144 0.0
    vertex 32.828427124746185 32.82842712474619 0.0
  endloop
endfacet
facet normal 0.0 0.0 -1.0
  outer loop
    vertex 31.530733729460366 26.30448186995486 0.0
    vertex 32.828427124746185 32.82842712474619 0.0
    vertex 32.82842712474619 27.171572875253815 0.0
  endloop
endfacet
facet normal 0.0 0.0 -1.0
  outer loop
    vertex 32.82842712474619 27.171572875253815 0.0
    vertex 32.828427124746185 32.82842712474619 0.0
    vertex 33.695518130045144 31.53073372946036 0.0
  endloop
endfacet
facet normal 0.0 0.0 -1.0
  outer loop
    vertex 32.82842712474619 27.171572875253815 0.0
    vertex 33.695518130045144 31.53073372946036 0.0
    vertex 33.69551813004515 28.469266270539645 0.0
  endloop
endfacet
facet normal 0.0 0.0 -1.0
  outer loop
    vertex 33.69551813004515 28.469266270539645 0.0
    vertex 33.695518130045144 31.53073372946036 0.0
    vertex 34.0 30.0 0.0
  endloop
endfacet
facet normal 0.0 0.0 -1.0
  outer loop
    vertex -3.695518130045145 31.53073372946036 0.0
    vertex -3.695518130045145 28.469266270539645 0.0
    vertex -3.9999999999999982 30.0 0.0
  endloop
endfacet
facet normal 0.0 0.0 -1.0
  outer loop
    vertex -3.695518130045145 28.469266270539645 0.0
    vertex -3.695518130045145 31.53073372946036 0.0
    vertex -2.828427124746189 32.828427124746185 0.0
  endloop
endfacet
facet normal 0.0 0.0 -1.0
  outer loop
    vertex -3.695518130045145 28.469266270539645 0.0
    vertex -2.828427124746189 32.828427124746185 0.0
    vertex -2.8284271247461885 27.17157287525381 0.0
  endloop
endfacet
facet normal 0.0 0.0 -1.0
  outer loop
    vertex -2.8284271247461885 27.17157287525381 0.0
    vertex -2.828427124746189 32.828427124746185 0.0
    vertex -1.5307337294603587 33.695518130045144 0.0
  endloop
endfacet
facet normal 0.0 0.0 -1.0
  outer loop
    vertex -2.8284271247461885 27.17157287525381 0.0
    vertex -1.5307337294603587 33.695518130045144 0.0
    vertex -1.5307337294603587 26.30448186995486 0.0
  endloop
endfacet
facet normal 0.0 0.0 -1.0
  outer loop
    vertex -1.5307337294603587 26.30448186995486 0.0
    vertex -1.5307337294603587 33.695518130045144 0.0
    vertex -3.768143997376469e-16 34.0 0.0
  endloop
endfacet
facet normal 0.0 0.0 -1.0
  outer loop
    vertex -1.5307337294603587 26.30448186995486 0.0
    vertex -3.768143997376469e-16 34.0 0.0
    vertex -1.130443199212942e-16 26.000000000000004 0.0
  endloop
endfacet
facet normal 0.0 0.0 -1.0
  outer loop
    vertex -1.130443199212942e-16 26.000000000000004 0.0
    vertex -3.768143997376469e-16 34.0 0.0
    vertex 1.530733729460358 33.69551813004515 0.0
  endloop
endfacet
facet normal 0.0 0.0 -1.0
  outer loop
    vertex -1.130443199212942e-16 26.000000000000004 0.0
    vertex 1.530733729460358 33.69551813004515 0.0
    vertex 2.449293598294706e-16 -3.9999999999999996 0.0
  endloop
endfacet
facet normal 0.0 0.0 -1.0
  outer loop
    vertex 2.449293598294706e-16 -3.9999999999999996 0.0
    vertex 1.530733729460358 33.69551813004515 0.0
    vertex 1.5307337294603591 -3.6955181300451465 0.0
  endloop
endfacet
facet normal 0.0 0.0 -1.0
  outer loop
    vertex 1.5307337294603591 -3.6955181300451465 0.0
    vertex 1.530733729460358 33.69551813004515 0.0
    vertex 2.8284271247461885 32.82842712474619 0.0
  endloop
endfacet
facet normal 0.0 0.0 -1.0
  outer loop
    vertex 1.5307337294603591 -3.6955181300451465 0.0
    vertex 2.8284271247461885 32.82842712474619 0.0
    vertex 2.82842712474619 -2.82842712474619 0.0
  endloop
endfacet
facet normal 0.0 0.0 -1.0
  outer loop
    vertex 2.82842712474619 -2.82842712474619 0.0
    vertex 2.8284271247461885 32.82842712474619 0.0
    vertex 3.6955181300451447 31.53073372946036 0.0
  endloop
endfacet
facet normal 0.0 0.0 -1.0
  outer loop
    vertex 2.82842712474619 -2.82842712474619 0.0
    vertex 3.6955181300451447 31.53073372946036 0.0
    vertex 3.695518130045146 -1.530733729460359 0.0
  endloop
endfacet
facet normal 0.0 0.0 -1.0
  outer loop
    vertex 3.695518130045146 -1.530733729460359 0.0
    vertex 3.6955181300451447 31.53073372946036 0.0
    vertex 3.9999999999999982 30.0 0.0
  endloop
endfacet
facet normal 0.0 0.0 -1.0
  outer loop
    vertex 3.695518130045146 -1.530733729460359 0.0
    vertex 3.9999999999999982 30.0 0.0
    vertex 3.999999999999999 0.0 0.0
  endloop
endfacet
facet normal 0.0 0.0 -1.0
  outer loop
    vertex 3.999999999999999 0.0 0.0
    vertex 3.9999999999999982 30.0 0.0
    vertex 26.000000000000004 30.0 0.0
  endloop
endfacet
facet normal 0.0 0.0 -1.0
  outer loop
    vertex 3.999999999999999 0.0 0.0
    vertex 26.000000000000004 30.0 0.0
    vertex 26.000000000000004 -7.347880794884117e-16 0.0
  endloop
endfacet
facet normal 0.0 0.0 -1.0
  outer loop
    vertex 26.000000000000004 -7.347880794884117e-16 0.0
    vertex 26.000000000000004 30.0 0.0
    vertex 26.30448186995486 31.53073372946036 0.0
  endloop
endfacet
facet normal 0.0 0.0 -1.0
  outer loop
    vertex 26.000000000000004 -7.347880794884117e-16 0.0
    vertex 26.30448186995486 31.53073372946036 0.0
    vertex 26.304481869954852 -1.5307337294603611 0.0
  endloop
endfacet
facet normal 0.0 0.0 -1.0
  outer loop
    vertex 26.304481869954852 -1.5307337294603611 0.0
    vertex 26.30448186995486 31.53073372946036 0.0
    vertex 27.17157287525381 -2.8284271247461903 0.0
  endloop
endfacet
facet normal 0.0 0.0 -1.0
  outer loop
    vertex 27.17157287525381 -2.8284271247461903 0.0
    vertex 26.30448186995486 31.53073372946036 0.0
    vertex 27.17157287525381 32.828427124746185 0.0
  endloop
endfacet
facet normal 0.0 0.0 -1.0
  outer loop
    vertex 27.17157287525381 -2.8284271247461903 0.0
    vertex 27.17157287525381 32.828427124746185 0.0
    vertex 28.469266270539645 33.695518130045144 0.0
  endloop
endfacet
facet normal 0.0 0.0 -1.0
  outer loop
    vertex 27.17157287525381 -2.8284271247461903 0.0
    vertex 28.469266270539645 33.695518130045144 0.0
    vertex 28.469266270539645 -3.6955181300451465 0.0
  endloop
endfacet
facet normal 0.0 0.0 -1.0
  outer loop
    vertex 28.469266270539645 -3.6955181300451465 0.0
    vertex 28.469266270539645 33.695518130045144 0.0
    vertex 30.0 34.0 0.0
  endloop
endfacet
facet normal 0.0 0.0 -1.0
  outer loop
    vertex 28.469266270539645 -3.6955181300451465 0.0
    vertex 30.0 34.0 0.0
    vertex 30.0 -3.999999999999999 0.0
  endloop
endfacet
facet normal 0.0 0.0 -1.0
  outer loop
    vertex 30.0 -3.999999999999999 0.0
    vertex 30.0 34.0 0.0
    vertex 30.0 26.000000000000004 0.0
  endloop
endfacet
facet normal 0.0 0.0 -1.0
  outer loop
    vertex 30.0 -3.999999999999999 0.0
    vertex 30.0 26.000000000000004 0.0
    vertex 30.0 3.999999999999999 0.0
  endloop
endfacet
facet normal 0.0 0.0 -1.0
  outer loop
    vertex 30.0 -3.999999999999999 0.0
    vertex 30.0 3.999999999999999 0.0
    vertex 31.53073372946036 3.695518130045146 0.0
  endloop
endfacet
facet normal 0.0 0.0 -1.0
  outer loop
    vertex 30.0 -3.999999999999999 0.0
    vertex 31.53073372946036 3.695518130045146 0.0
    vertex 31.53073372946036 -3.695518130045146 0.0
  endloop
endfacet
facet normal 0.0 0.0 -1.0
  outer loop
    vertex 31.53073372946036 -3.695518130045146 0.0
    vertex 31.53073372946036 3.695518130045146 0.0
    vertex 32.82842712474619 2.82842712474619 0.0
  endloop
endfacet
facet normal 0.0 0.0 -1.0
  outer loop
    vertex 31.53073372946036 -3.695518130045146 0.0
    vertex 32.82842712474619 2.82842712474619 0.0
    vertex 32.82842712474619 -2.8284271247461894 0.0
  endloop
endfacet
facet normal 0.0 0.0 -1.0
  outer loop
    vertex 32.82842712474619 -2.8284271247461894 0.0
    vertex 32.82842712474619 2.82842712474619 0.0
    vertex 33.69551813004515 1.5307337294603591 0.0
  endloop
endfacet
facet normal 0.0 0.0 -1.0
  outer loop
    vertex 32.82842712474619 -2.8284271247461894 0.0
    vertex 33.69551813004515 1.5307337294603591 0.0
    vertex 33.69551813004515 -1.5307337294603587 0.0
  endloop
endfacet
facet normal 0.0 0.0 -1.0
  outer loop
    vertex 33.69551813004515 -1.5307337294603587 0.0
    vertex 33.69551813004515 1.5307337294603591 0.0
    vertex 34.0 2.449293598294706e-16 0.0
  endloop
endfacet
facet normal 0.0 0.0 -1.0
  outer loop
    vertex -3.6955181300451465 1.5307337294603585 0.0
    vertex -3.695518130045146 -1.5307337294603596 0.0
    vertex -3.999999999999999 -4.898587196589412e-16 0.0
  endloop
endfacet
facet normal 0.0 0.0 -1.0
  outer loop
    vertex -3.695518130045146 -1.5307337294603596 0.0
    vertex -3.6955181300451465 1.5307337294603585 0.0
    vertex -2.8284271247461903 2.82842712474619 0.0
  endloop
endfacet
facet normal 0.0 0.0 -1.0
  outer loop
    vertex -3.695518130045146 -1.5307337294603596 0.0
    vertex -2.8284271247461903 2.82842712474619 0.0
    vertex -2.8284271247461894 -2.8284271247461903 0.0
  endloop
endfacet
facet normal 0.0 0.0 -1.0
  outer loop
    vertex -2.8284271247461894 -2.8284271247461903 0.0
    vertex -2.8284271247461903 2.82842712474619 0.0
    vertex -1.5307337294603611 3.695518130045146 0.0
  endloop
endfacet
facet normal 0.0 0.0 -1.0
  outer loop
    vertex -2.8284271247461894 -2.8284271247461903 0.0
    vertex -1.5307337294603611 3.695518130045146 0.0
    vertex -1.5307337294603587 -3.6955181300451465 0.0
  endloop
endfacet
facet normal 0.0 0.0 -1.0
  outer loop
    vertex -1.5307337294603587 -3.6955181300451465 0.0
    vertex -1.5307337294603611 3.695518130045146 0.0
    vertex -7.347880794884117e-16 3.9999999999999996 0.0
  endloop
endfacet
facet normal 0.0 0.0 -1.0
  outer loop
    vertex -1.5307337294603587 -3.6955181300451465 0.0
    vertex -7.347880794884117e-16 3.9999999999999996 0.0
    vertex 2.449293598294706e-16 -3.9999999999999996 0.0
  endloop
endfacet
facet normal 0.0 0.0 -1.0
  outer loop
    vertex 2.449293598294706e-16 -3.9999999999999996 0.0
    vertex -7.347880794884117e-16 3.9999999999999996 0.0
    vertex -1.130443199212942e-16 26.000000000000004 0.0
  endloop
endfacet
facet normal 1.0 -0.0 -0.0
  outer loop
    vertex 30.0 26.000000000000004 0.0
    vertex 30.0 3.999999999999999 0.20000000000000004
    vertex 30.0 3.999999999999999 0.0
  endloop
endfacet
facet normal 1.0 -0.0 -0.0
  outer loop
    vertex 30.0 0.0 0.20000000000000004
    vertex 30.0 30.0 0.5999999999999999
    vertex 30.0 -1.440462594727605e-18 0.5999999999999999
  endloop
endfacet
facet normal 1.0 -0.0 -0.0
  outer loop
    vertex 30.0 30.0 0.5999999999999999
    vertex 30.0 0.0 0.20000000000000004
    vertex 30.0 3.999999999999999 0.20000000000000004
  endloop
endfacet
facet normal 1.0 -0.0 -0.0
  outer loop
    vertex 30.0 30.0 0.5999999999999999
    vertex 30.0 3.999999999999999 0.20000000000000004
    vertex 30.0 26.000000000000004 0.20000000000000004
  endloop
endfacet
facet normal 1.0 -0.0 -0.0
  outer loop
    vertex 30.0 26.000000000000004 0.20000000000000004
    vertex 30.0 3.999999999999999 0.20000000000000004
    vertex 30.0 26.000000000000004 0.0
  endloop
endfacet
facet normal 1.0 -0.0 -0.0
  outer loop
    vertex 30.0 30.0 0.5999999999999999
    vertex 30.0 26.000000000000004 0.20000000000000004
    vertex 30.0 30.0 0.20000000000000004
  endloop
endfacet
facet normal -1.1163907285044925e-17 -1.0 7.919776466759945e-17
  outer loop
    vertex 19.000000000000004 2.9082551451746384e-18 3.0
    vertex 11.0 -1.440462594727605e-18 0.5999999999999999
    vertex 19.000000000000004 -1.440462594727605e-18 0.5999999999999999
  endloop
endfacet
facet normal -1.1163907285044925e-17 -1.0 7.919776466759945e-17
  outer loop
    vertex 11.0 -1.440462594727605e-18 0.5999999999999999
    vertex 19.000000000000004 2.9082551451746384e-18 3.0
    vertex 11.0 2.9082551451746384e-18 3.0
  endloop
endfacet
facet normal -1.1163907285044925e-17 -1.0 7.919776466759945e-17
  outer loop
    vertex 30.0 -1.440462594727605e-18 0.5999999999999999
    vertex 26.000000000000004 -7.347880794884117e-16 0.20000000000000004
    vertex 30.0 0.0 0.20000000000000004
  endloop
endfacet
facet normal -1.1163907285044925e-17 -1.0 7.919776466759945e-17
  outer loop
    vertex 26.000000000000004 -7.347880794884117e-16 0.20000000000000004
    vertex 30.0 -1.440462594727605e-18 0.5999999999999999
    vertex 3.999999999999999 0.0 0.20000000000000004
  endloop
endfacet
facet normal -1.1163907285044925e-17 -1.0 7.919776466759945e-17
  outer loop
    vertex 3.999999999999999 0.0 0.20000000000000004
    vertex 30.0 -1.440462594727605e-18 0.5999999999999999
    vertex 0.0 0.0 0.20000000000000004
  endloop
endfacet
facet normal -1.1163907285044925e-17 -1.0 7.919776466759945e-17
  outer loop
    vertex 0.0 0.0 0.20000000000000004
    vertex 30.0 -1.440462594727605e-18 0.5999999999999999
    vertex -1.7438380078489507e-19 -1.440462594727605e-18 0.5999999999999999
  endloop
endfacet
facet normal -1.1163907285044925e-17 -1.0 7.919776466759945e-17
  outer loop
    vertex -1.7438380078489507e-19 -1.440462594727605e-18 0.5999999999999999
    vertex 30.0 -1.440462594727605e-18 0.5999999999999999
    vertex 19.000000000000004 -1.440462594727605e-18 0.5999999999999999
  endloop
endfacet
facet normal -1.1163907285044925e-17 -1.0 7.919776466759945e-17
  outer loop
    vertex -1.7438380078489507e-19 -1.440462594727605e-18 0.5999999999999999
    vertex 19.000000000000004 -1.440462594727605e-18 0.5999999999999999
    vertex 11.0 -1.440462594727605e-18 0.5999999999999999
  endloop
endfacet
facet normal -1.1163907285044925e-17 -1.0 7.919776466759945e-17
  outer loop
    vertex 26.000000000000004 -7.347880794884117e-16 0.20000000000000004
    vertex 3.999999999999999 0.0 0.0
    vertex 26.000000000000004 -7.347880794884117e-16 0.0
  endloop
endfacet
facet normal -1.1163907285044925e-17 -1.0 7.919776466759945e-17
  outer loop
    vertex 3.999999999999999 0.0 0.0
    vertex 26.000000000000004 -7.347880794884117e-16 0.20000000000000004
    vertex 3.999999999999999 0.0 0.20000000000000004
  endloop
endfacet
facet normal -1.0 2.926096731919387e-18 2.191644950875282e-16
  outer loop
    vertex -1.7438380078489507e-19 30.0 0.5999999999999999
    vertex 0.0 0.0 0.20000000000000004
    vertex -1.7438380078489507e-19 -1.440462594727605e-18 0.5999999999999999
  endloop
endfacet
facet normal -1.0 2.926096731919387e-18 2.191644950875282e-16
  outer loop
    vertex 0.0 0.0 0.20000000000000004
    vertex -1.7438380078489507e-19 30.0 0.5999999999999999
    vertex -7.347880794884117e-16 3.9999999999999996 0.20000000000000004
  endloop
endfacet
facet normal -1.0 2.926096731919387e-18 2.191644950875282e-16
  outer loop
    vertex -7.347880794884117e-16 3.9999999999999996 0.20000000000000004
    vertex -1.7438380078489507e-19 30.0 0.5999999999999999
    vertex -7.347880794884117e-16 3.9999999999999996 0.0
  endloop
endfacet
facet normal -1.0 2.926096731919387e-18 2.191644950875282e-16
  outer loop
    vertex -7.347880794884117e-16 3.9999999999999996 0.0
    vertex -1.7438380078489507e-19 30.0 0.5999999999999999
    vertex -1.130443199212942e-16 26.000000000000004 0.20000000000000004
  endloop
endfacet
facet normal -1.0 2.926096731919387e-18 2.191644950875282e-16
  outer loop
    vertex -1.130443199212942e-16 26.000000000000004 0.20000000000000004
    vertex -1.7438380078489507e-19 30.0 0.5999999999999999
    vertex 0.0 30.0 0.20000000000000004
  endloop
endfacet
facet normal -1.0 2.926096731919387e-18 2.191644950875282e-16
  outer loop
    vertex -1.130443199212942e-16 26.000000000000004 0.0
    vertex -7.347880794884117e-16 3.9999999999999996 0.0
    vertex -1.130443199212942e-16 26.000000000000004 0.20000000000000004
  endloop
endfacet
facet normal -0.0 1.0 -0.0
  outer loop
    vertex 11.0 30.0 3.0
    vertex 19.0 30.0 0.5999999999999999
    vertex 11.0 30.0 0.5999999999999999
  endloop
endfacet
facet normal -0.0 1.0 -0.0
  outer loop
    vertex 19.0 30.0 0.5999999999999999
    vertex 11.0 30.0 3.0
    vertex 19.0 30.0 3.0
  endloop
endfacet
facet normal -0.0 1.0 -0.0
  outer loop
    vertex -1.7438380078489507e-19 30.0 0.5999999999999999
    vertex 3.9999999999999982 30.0 0.20000000000000004
    vertex 0.0 30.0 0.20000000000000004
  endloop
endfacet
facet normal -0.0 1.0 -0.0
  outer loop
    vertex 3.9999999999999982 30.0 0.20000000000000004
    vertex -1.7438380078489507e-19 30.0 0.5999999999999999
    vertex 26.000000000000004 30.0 0.20000000000000004
  endloop
endfacet
facet normal -0.0 1.0 -0.0
  outer loop
    vertex 26.000000000000004 30.0 0.20000000000000004
    vertex -1.7438380078489507e-19 30.0 0.5999999999999999
    vertex 30.0 30.0 0.20000000000000004
  endloop
endfacet
facet normal -0.0 1.0 -0.0
  outer loop
    vertex 30.0 30.0 0.20000000000000004
    vertex -1.7438380078489507e-19 30.0 0.5999999999999999
    vertex 30.0 30.0 0.5999999999999999
  endloop
endfacet
facet normal -0.0 1.0 -0.0
  outer loop
    vertex 30.0 30.0 0.5999999999999999
    vertex -1.7438380078489507e-19 30.0 0.5999999999999999
    vertex 11.0 30.0 0.5999999999999999
  endloop
endfacet
facet normal -0.0 1.0 -0.0
  outer loop
    vertex 30.0 30.0 0.5999999999999999
    vertex 11.0 30.0 0.5999999999999999
    vertex 19.0 30.0 0.5999999999999999
  endloop
endfacet
facet normal -0.0 1.0 -0.0
  outer loop
    vertex 3.9999999999999982 30.0 0.20000000000000004
    vertex 26.000000000000004 30.0 0.0
    vertex 3.9999999999999982 30.0 0.0
  endloop
endfacet
facet normal -0.0 1.0 -0.0
  outer loop
    vertex 26.000000000000004 30.0 0.0
    vertex 3.9999999999999982 30.0 0.20000000000000004
    vertex 26.000000000000004 30.0 0.20000000000000004
  endloop
endfacet
facet normal 4.359595019622375e-19 3.601156486819012e-18 1.0
  outer loop
    vertex -1.7438380078489507e-19 -1.440462594727605e-18 0.5999999999999999
    vertex 4.1213203435596375 1.9999999999999971 0.5999999999999999
    vertex -1.7438380078489507e-19 30.0 0.5999999999999999
  endloop
endfacet
facet normal 4.359595019622375e-19 3.601156486819012e-18 1.0
  outer loop
    vertex 4.1213203435596375 1.9999999999999971 0.5999999999999999
    vertex -1.7438380078489507e-19 -1.440462594727605e-18 0.5999999999999999
    vertex 11.0 -1.440462594727605e-18 0.5999999999999999
  endloop
endfacet
facet normal 4.359595019622375e-19 3.601156486819012e-18 1.0
  outer loop
    vertex 4.1213203435596375 1.9999999999999971 0.5999999999999999
    vertex 11.0 -1.440462594727605e-18 0.5999999999999999
    vertex 11.0 1.9999999999999996 0.5999999999999999
  endloop
endfacet
facet normal 4.359595019622375e-19 3.601156486819012e-18 1.0
  outer loop
    vertex 9.62132034355964 7.499999999999997 0.5999999999999999
    vertex 4.121320343559641 28.000000000000004 0.5999999999999995
    vertex 4.1213203435596375 1.9999999999999971 0.5999999999999999
  endloop
endfacet
facet normal 4.359595019622375e-19 3.601156486819012e-18 1.0
  outer loop
    vertex 4.121320343559641 28.000000000000004 0.5999999999999995
    vertex 9.62132034355964 7.499999999999997 0.5999999999999999
    vertex 9.621320343559637 22.500000000000004 0.5999999999999995
  endloop
endfacet
facet normal 4.359595019622375e-19 3.601156486819012e-18 1.0
  outer loop
    vertex 9.621320343559637 22.500000000000004 0.5999999999999995
    vertex 9.62132034355964 7.499999999999997 0.5999999999999999
    vertex 20.37867965644036 22.5 0.5999999999999995
  endloop
endfacet
facet normal 4.359595019622375e-19 3.601156486819012e-18 1.0
  outer loop
    vertex 20.37867965644036 22.5 0.5999999999999995
    vertex 9.62132034355964 7.499999999999997 0.5999999999999999
    vertex 20.37867965644036 7.499999999999997 0.5999999999999999
  endloop
endfacet
facet normal 4.359595019622375e-19 3.601156486819012e-18 1.0
  outer loop
    vertex 20.37867965644036 22.5 0.5999999999999995
    vertex 20.37867965644036 7.499999999999997 0.5999999999999999
    vertex 25.87867965644037 1.9999999999999962 0.5999999999999999
  endloop
endfacet
facet normal 4.359595019622375e-19 3.601156486819012e-18 1.0
  outer loop
    vertex 20.37867965644036 22.5 0.5999999999999995
    vertex 25.87867965644037 1.9999999999999962 0.5999999999999999
    vertex 25.878679656440358 28.0 0.5999999999999995
  endloop
endfacet
facet normal 4.359595019622375e-19 3.601156486819012e-18 1.0
  outer loop
    vertex 19.000000000000004 -1.440462594727605e-18 0.5999999999999999
    vertex 25.87867965644037 1.9999999999999962 0.5999999999999999
    vertex 19.000000000000004 1.9999999999999962 0.5999999999999996
  endloop
endfacet
facet normal 4.359595019622375e-19 3.601156486819012e-18 1.0
  outer loop
    vertex 25.87867965644037 1.9999999999999962 0.5999999999999999
    vertex 19.000000000000004 -1.440462594727605e-18 0.5999999999999999
    vertex 30.0 -1.440462594727605e-18 0.5999999999999999
  endloop
endfacet
facet normal 4.359595019622375e-19 3.601156486819012e-18 1.0
  outer loop
    vertex 19.000000000000004 28.0 0.5999999999999999
    vertex 30.0 30.0 0.5999999999999999
    vertex 19.0 30.0 0.5999999999999999
  endloop
endfacet
facet normal 4.359595019622375e-19 3.601156486819012e-18 1.0
  outer loop
    vertex 30.0 30.0 0.5999999999999999
    vertex 19.000000000000004 28.0 0.5999999999999999
    vertex 25.878679656440358 28.0 0.5999999999999995
  endloop
endfacet
facet normal 4.359595019622375e-19 3.601156486819012e-18 1.0
  outer loop
    vertex 30.0 30.0 0.5999999999999999
    vertex 25.878679656440358 28.0 0.5999999999999995
    vertex 25.87867965644037 1.9999999999999962 0.5999999999999999
  endloop
endfacet
facet normal 4.359595019622375e-19 3.601156486819012e-18 1.0
  outer loop
    vertex 30.0 30.0 0.5999999999999999
    vertex 25.87867965644037 1.9999999999999962 0.5999999999999999
    vertex 30.0 -1.440462594727605e-18 0.5999999999999999
  endloop
endfacet
facet normal 4.359595019622375e-19 3.601156486819012e-18 1.0
  outer loop
    vertex -1.7438380078489507e-19 30.0 0.5999999999999999
    vertex 4.121320343559641 28.000000000000004 0.5999999999999995
    vertex 11.0 30.0 0.5999999999999999
  endloop
endfacet
facet normal 4.359595019622375e-19 3.601156486819012e-18 1.0
  outer loop
    vertex 4.121320343559641 28.000000000000004 0.5999999999999995
    vertex -1.7438380078489507e-19 30.0 0.5999999999999999
    vertex 4.1213203435596375 1.9999999999999971 0.5999999999999999
  endloop
endfacet
facet normal 4.359595019622375e-19 3.601156486819012e-18 1.0
  outer loop
    vertex 11.0 30.0 0.5999999999999999
    vertex 4.121320343559641 28.000000000000004 0.5999999999999995
    vertex 11.0 28.0 0.5999999999999999
  endloop
endfacet
facet normal 1.0 7.049916206369757e-16 -5.874930171974788e-16
  outer loop
    vertex 19.000000000000004 1.9999999999999962 0.5999999999999996
    vertex 19.000000000000004 2.9082551451746384e-18 3.0
    vertex 19.000000000000004 -1.440462594727605e-18 0.5999999999999999
  endloop
endfacet
facet normal 1.0 7.049916206369757e-16 -5.874930171974788e-16
  outer loop
    vertex 19.000000000000004 2.9082551451746384e-18 3.0
    vertex 19.000000000000004 1.9999999999999962 0.5999999999999996
    vertex 19.000000000000004 1.9999999999999962 3.0
  endloop
endfacet
facet normal 0.0 -1.0 0.0
  outer loop
    vertex 25.87867965644037 1.9999999999999962 0.5999999999999999
    vertex 19.000000000000004 1.9999999999999962 3.0
    vertex 19.000000000000004 1.9999999999999962 0.5999999999999996
  endloop
endfacet
facet normal 0.0 -1.0 0.0
  outer loop
    vertex 19.000000000000004 1.9999999999999962 3.0
    vertex 25.87867965644037 1.9999999999999962 0.5999999999999999
    vertex 25.87867965644037 1.9999999999999962 3.0
  endloop
endfacet
facet normal 3.5871283378041453e-16 -1.0 1.4687325429936958e-16
  outer loop
    vertex 11.0 1.9999999999999998 3.0
    vertex 4.1213203435596375 1.9999999999999971 0.5999999999999999
    vertex 11.0 1.9999999999999996 0.5999999999999999
  endloop
endfacet
facet normal 3.5871283378041453e-16 -1.0 1.4687325429936958e-16
  outer loop
    vertex 4.1213203435596375 1.9999999999999971 0.5999999999999999
    vertex 11.0 1.9999999999999998 3.0
    vertex 4.121320343559638 1.9999999999999973 3.0
  endloop
endfacet
facet normal -1.0 0.0 0.0
  outer loop
    vertex 11.0 2.9082551451746384e-18 3.0
    vertex 11.0 1.9999999999999996 0.5999999999999999
    vertex 11.0 -1.440462594727605e-18 0.5999999999999999
  endloop
endfacet
facet normal -1.0 0.0 0.0
  outer loop
    vertex 11.0 1.9999999999999996 0.5999999999999999
    vertex 11.0 2.9082551451746384e-18 3.0
    vertex 11.0 1.9999999999999998 3.0
  endloop
endfacet
facet normal -0.7071067811865475 0.7071067811865476 2.0608741264738447e-16
  outer loop
    vertex 4.121320343559638 1.9999999999999973 3.0
    vertex 9.62132034355964 7.499999999999997 0.5999999999999999
    vertex 4.1213203435596375 1.9999999999999971 0.5999999999999999
  endloop
endfacet
facet normal -0.7071067811865475 0.7071067811865476 2.0608741264738447e-16
  outer loop
    vertex 9.62132034355964 7.499999999999997 0.5999999999999999
    vertex 4.121320343559638 1.9999999999999973 3.0
    vertex 9.62132034355964 7.499999999999997 3.0
  endloop
endfacet
facet normal -0.0 1.0 -0.0
  outer loop
    vertex 9.62132034355964 7.499999999999997 3.0
    vertex 20.37867965644036 7.499999999999997 0.5999999999999999
    vertex 9.62132034355964 7.499999999999997 0.5999999999999999
  endloop
endfacet
facet normal -0.0 1.0 -0.0
  outer loop
    vertex 20.37867965644036 7.499999999999997 0.5999999999999999
    vertex 9.62132034355964 7.499999999999997 3.0
    vertex 20.37867965644036 7.499999999999997 3.0
  endloop
endfacet
facet normal 0.7071067811865472 0.7071067811865478 -0.0
  outer loop
    vertex 20.37867965644036 7.499999999999997 3.0
    vertex 25.87867965644037 1.9999999999999962 0.5999999999999999
    vertex 20.37867965644036 7.499999999999997 0.5999999999999999
  endloop
endfacet
facet normal 0.7071067811865472 0.7071067811865478 -0.0
  outer loop
    vertex 25.87867965644037 1.9999999999999962 0.5999999999999999
    vertex 20.37867965644036 7.499999999999997 3.0
    vertex 25.87867965644037 1.9999999999999962 3.0
  endloop
endfacet
facet normal -0.0 -0.0 1.0
  outer loop
    vertex 31.530733729460366 26.30448186995486 0.20000000000000004
    vertex 30.0 30.0 0.20000000000000004
    vertex 30.0 26.000000000000004 0.20000000000000004
  endloop
endfacet
facet normal -0.0 -0.0 1.0
  outer loop
    vertex 30.0 30.0 0.20000000000000004
    vertex 31.530733729460366 26.30448186995486 0.20000000000000004
    vertex 30.0 34.0 0.20000000000000004
  endloop
endfacet
facet normal -0.0 -0.0 1.0
  outer loop
    vertex 30.0 34.0 0.20000000000000004
    vertex 31.530733729460366 26.30448186995486 0.20000000000000004
    vertex 31.53073372946036 33.695518130045144 0.20000000000000004
  endloop
endfacet
facet normal -0.0 -0.0 1.0
  outer loop
    vertex 31.53073372946036 33.695518130045144 0.20000000000000004
    vertex 31.530733729460366 26.30448186995486 0.20000000000000004
    vertex 32.828427124746185 32.82842712474619 0.20000000000000004
  endloop
endfacet
facet normal -0.0 -0.0 1.0
  outer loop
    vertex 32.828427124746185 32.82842712474619 0.20000000000000004
    vertex 31.530733729460366 26.30448186995486 0.20000000000000004
    vertex 32.82842712474619 27.171572875253815 0.20000000000000004
  endloop
endfacet
facet normal -0.0 -0.0 1.0
  outer loop
    vertex 32.828427124746185 32.82842712474619 0.20000000000000004
    vertex 32.82842712474619 27.171572875253815 0.20000000000000004
    vertex 33.695518130045144 31.53073372946036 0.20000000000000004
  endloop
endfacet
facet normal -0.0 -0.0 1.0
  outer loop
    vertex 33.695518130045144 31.53073372946036 0.20000000000000004
    vertex 32.82842712474619 27.171572875253815 0.20000000000000004
    vertex 33.69551813004515 28.469266270539645 0.20000000000000004
  endloop
endfacet
facet normal -0.0 -0.0 1.0
  outer loop
    vertex 33.695518130045144 31.53073372946036 0.20000000000000004
    vertex 33.69551813004515 28.469266270539645 0.20000000000000004
    vertex 34.0 30.0 0.20000000000000004
  endloop
endfacet
facet normal -0.0 -0.0 1.0
  outer loop
    vertex 30.0 30.0 0.20000000000000004
    vertex 26.30448186995486 31.53073372946036 0.20000000000000004
    vertex 26.000000000000004 30.0 0.20000000000000004
  endloop
endfacet
facet normal -0.0 -0.0 1.0
  outer loop
    vertex 26.30448186995486 31.53073372946036 0.20000000000000004
    vertex 30.0 30.0 0.20000000000000004
    vertex 27.17157287525381 32.828427124746185 0.20000000000000004
  endloop
endfacet
facet normal -0.0 -0.0 1.0
  outer loop
    vertex 27.17157287525381 32.828427124746185 0.20000000000000004
    vertex 30.0 30.0 0.20000000000000004
    vertex 28.469266270539645 33.695518130045144 0.20000000000000004
  endloop
endfacet
facet normal -0.0 -0.0 1.0
  outer loop
    vertex 28.469266270539645 33.695518130045144 0.20000000000000004
    vertex 30.0 30.0 0.20000000000000004
    vertex 30.0 34.0 0.20000000000000004
  endloop
endfacet
facet normal -0.9807852804032302 0.19509032201612977 0.0
  outer loop
    vertex 26.30448186995486 31.53073372946036 0.20000000000000004
    vertex 26.000000000000004 30.0 0.0
    vertex 26.000000000000004 30.0 0.20000000000000004
  endloop
endfacet
facet normal -0.9807852804032302 0.19509032201612977 0.0
  outer loop
    vertex 26.000000000000004 30.0 0.0
    vertex 26.30448186995486 31.53073372946036 0.20000000000000004
    vertex 26.30448186995486 31.53073372946036 0.0
  endloop
endfacet
facet normal -0.8314696123025462 0.5555702330196008 0.0
  outer loop
    vertex 27.17157287525381 32.828427124746185 0.20000000000000004
    vertex 26.30448186995486 31.53073372946036 0.0
    vertex 26.30448186995486 31.53073372946036 0.20000000000000004
  endloop
endfacet
facet normal -0.8314696123025462 0.5555702330196008 0.0
  outer loop
    vertex 26.30448186995486 31.53073372946036 0.0
    vertex 27.17157287525381 32.828427124746185 0.20000000000000004
    vertex 27.17157287525381 32.828427124746185 0.0
  endloop
endfacet
facet normal -0.5555702330196016 0.8314696123025457 0.0
  outer loop
    vertex 27.17157287525381 32.828427124746185 0.20000000000000004
    vertex 28.469266270539645 33.695518130045144 0.0
    vertex 27.17157287525381 32.828427124746185 0.0
  endloop
endfacet
facet normal -0.5555702330196016 0.8314696123025457 0.0
  outer loop
    vertex 28.469266270539645 33.695518130045144 0.0
    vertex 27.17157287525381 32.828427124746185 0.20000000000000004
    vertex 28.469266270539645 33.695518130045144 0.20000000000000004
  endloop
endfacet
facet normal -0.19509032201612977 0.9807852804032302 0.0
  outer loop
    vertex 28.469266270539645 33.695518130045144 0.20000000000000004
    vertex 30.0 34.0 0.0
    vertex 28.469266270539645 33.695518130045144 0.0
  endloop
endfacet
facet normal -0.19509032201612977 0.9807852804032302 0.0
  outer loop
    vertex 30.0 34.0 0.0
    vertex 28.469266270539645 33.695518130045144 0.20000000000000004
    vertex 30.0 34.0 0.20000000000000004
  endloop
endfacet
facet normal 0.19509032201612977 0.9807852804032302 0.0
  outer loop
    vertex 30.0 34.0 0.20000000000000004
    vertex 31.53073372946036 33.695518130045144 0.0
    vertex 30.0 34.0 0.0
  endloop
endfacet
facet normal 0.19509032201612977 0.9807852804032302 0.0
  outer loop
    vertex 31.53073372946036 33.695518130045144 0.0
    vertex 30.0 34.0 0.20000000000000004
    vertex 31.53073372946036 33.695518130045144 0.20000000000000004
  endloop
endfacet
facet normal 0.5555702330196008 0.8314696123025462 0.0
  outer loop
    vertex 31.53073372946036 33.695518130045144 0.20000000000000004
    vertex 32.828427124746185 32.82842712474619 0.0
    vertex 31.53073372946036 33.695518130045144 0.0
  endloop
endfacet
facet normal 0.5555702330196008 0.8314696123025462 0.0
  outer loop
    vertex 32.828427124746185 32.82842712474619 0.0
    vertex 31.53073372946036 33.695518130045144 0.20000000000000004
    vertex 32.828427124746185 32.82842712474619 0.20000000000000004
  endloop
endfacet
facet normal 0.8314696123025457 0.5555702330196016 0.0
  outer loop
    vertex 32.828427124746185 32.82842712474619 0.0
    vertex 33.695518130045144 31.53073372946036 0.20000000000000004
    vertex 33.695518130045144 31.53073372946036 0.0
  endloop
endfacet
facet normal 0.8314696123025457 0.5555702330196016 0.0
  outer loop
    vertex 33.695518130045144 31.53073372946036 0.20000000000000004
    vertex 32.828427124746185 32.82842712474619 0.0
    vertex 32.828427124746185 32.82842712474619 0.20000000000000004
  endloop
endfacet
facet normal 0.9807852804032302 0.19509032201612977 0.0
  outer loop
    vertex 33.695518130045144 31.53073372946036 0.0
    vertex 34.0 30.0 0.20000000000000004
    vertex 34.0 30.0 0.0
  endloop
endfacet
facet normal 0.9807852804032302 0.19509032201612977 0.0
  outer loop
    vertex 34.0 30.0 0.20000000000000004
    vertex 33.695518130045144 31.53073372946036 0.0
    vertex 33.695518130045144 31.53073372946036 0.20000000000000004
  endloop
endfacet
facet normal 0.9807852804032308 -0.19509032201612628 0.0
  outer loop
    vertex 34.0 30.0 0.0
    vertex 33.69551813004515 28.469266270539645 0.20000000000000004
    vertex 33.69551813004515 28.469266270539645 0.0
  endloop
endfacet
facet normal 0.9807852804032308 -0.19509032201612628 0.0
  outer loop
    vertex 33.69551813004515 28.469266270539645 0.20000000000000004
    vertex 34.0 30.0 0.0
    vertex 34.0 30.0 0.20000000000000004
  endloop
endfacet
facet normal 0.8314696123025446 -0.5555702330196033 0.0
  outer loop
    vertex 33.69551813004515 28.469266270539645 0.0
    vertex 32.82842712474619 27.171572875253815 0.20000000000000004
    vertex 32.82842712474619 27.171572875253815 0.0
  endloop
endfacet
facet normal 0.8314696123025446 -0.5555702330196033 0.0
  outer loop
    vertex 32.82842712474619 27.171572875253815 0.20000000000000004
    vertex 33.69551813004515 28.469266270539645 0.0
    vertex 33.69551813004515 28.469266270539645 0.20000000000000004
  endloop
endfacet
facet normal 0.5555702330196033 -0.8314696123025446 0.0
  outer loop
    vertex 32.82842712474619 27.171572875253815 0.20000000000000004
    vertex 31.530733729460366 26.30448186995486 0.0
    vertex 32.82842712474619 27.171572875253815 0.0
  endloop
endfacet
facet normal 0.5555702330196033 -0.8314696123025446 0.0
  outer loop
    vertex 31.530733729460366 26.30448186995486 0.0
    vertex 32.82842712474619 27.171572875253815 0.20000000000000004
    vertex 31.530733729460366 26.30448186995486 0.20000000000000004
  endloop
endfacet
facet normal 0.19509032201612908 -0.9807852804032303 0.0
  outer loop
    vertex 31.530733729460366 26.30448186995486 0.20000000000000004
    vertex 30.0 26.000000000000004 0.0
    vertex 31.530733729460366 26.30448186995486 0.0
  endloop
endfacet
facet normal 0.19509032201612908 -0.9807852804032303 0.0
  outer loop
    vertex 30.0 26.000000000000004 0.0
    vertex 31.530733729460366 26.30448186995486 0.20000000000000004
    vertex 30.0 26.000000000000004 0.20000000000000004
  endloop
endfacet
facet normal -0.0 -0.0 1.0
  outer loop
    vertex -3.695518130045145 28.469266270539645 0.20000000000000004
    vertex -3.695518130045145 31.53073372946036 0.20000000000000004
    vertex -3.9999999999999982 30.0 0.20000000000000004
  endloop
endfacet
facet normal -0.0 -0.0 1.0
  outer loop
    vertex -3.695518130045145 31.53073372946036 0.20000000000000004
    vertex -3.695518130045145 28.469266270539645 0.20000000000000004
    vertex -2.8284271247461885 27.17157287525381 0.20000000000000004
  endloop
endfacet
facet normal -0.0 -0.0 1.0
  outer loop
    vertex -3.695518130045145 31.53073372946036 0.20000000000000004
    vertex -2.8284271247461885 27.17157287525381 0.20000000000000004
    vertex -2.828427124746189 32.828427124746185 0.20000000000000004
  endloop
endfacet
facet normal -0.0 -0.0 1.0
  outer loop
    vertex -2.828427124746189 32.828427124746185 0.20000000000000004
    vertex -2.8284271247461885 27.17157287525381 0.20000000000000004
    vertex -1.5307337294603587 33.695518130045144 0.20000000000000004
  endloop
endfacet
facet normal -0.0 -0.0 1.0
  outer loop
    vertex -1.5307337294603587 33.695518130045144 0.20000000000000004
    vertex -2.8284271247461885 27.17157287525381 0.20000000000000004
    vertex -1.5307337294603587 26.30448186995486 0.20000000000000004
  endloop
endfacet
facet normal -0.0 -0.0 1.0
  outer loop
    vertex -1.5307337294603587 33.695518130045144 0.20000000000000004
    vertex -1.5307337294603587 26.30448186995486 0.20000000000000004
    vertex -3.768143997376469e-16 34.0 0.20000000000000004
  endloop
endfacet
facet normal -0.0 -0.0 1.0
  outer loop
    vertex -3.768143997376469e-16 34.0 0.20000000000000004
    vertex -1.5307337294603587 26.30448186995486 0.20000000000000004
    vertex -1.130443199212942e-16 26.000000000000004 0.20000000000000004
  endloop
endfacet
facet normal -0.0 -0.0 1.0
  outer loop
    vertex -3.768143997376469e-16 34.0 0.20000000000000004
    vertex -1.130443199212942e-16 26.000000000000004 0.20000000000000004
    vertex 0.0 30.0 0.20000000000000004
  endloop
endfacet
facet normal -0.0 -0.0 1.0
  outer loop
    vertex -3.768143997376469e-16 34.0 0.20000000000000004
    vertex 0.0 30.0 0.20000000000000004
    vertex 1.530733729460358 33.69551813004515 0.20000000000000004
  endloop
endfacet
facet normal -0.0 -0.0 1.0
  outer loop
    vertex 1.530733729460358 33.69551813004515 0.20000000000000004
    vertex 0.0 30.0 0.20000000000000004
    vertex 3.9999999999999982 30.0 0.20000000000000004
  endloop
endfacet
facet normal -0.0 -0.0 1.0
  outer loop
    vertex 1.530733729460358 33.69551813004515 0.20000000000000004
    vertex 3.9999999999999982 30.0 0.20000000000000004
    vertex 2.8284271247461885 32.82842712474619 0.20000000000000004
  endloop
endfacet
facet normal -0.0 -0.0 1.0
  outer loop
    vertex 2.8284271247461885 32.82842712474619 0.20000000000000004
    vertex 3.9999999999999982 30.0 0.20000000000000004
    vertex 3.6955181300451447 31.53073372946036 0.20000000000000004
  endloop
endfacet
facet normal -0.1950903220161297 -0.9807852804032301 -0.0
  outer loop
    vertex -1.130443199212942e-16 26.000000000000004 0.20000000000000004
    vertex -1.5307337294603587 26.30448186995486 0.0
    vertex -1.130443199212942e-16 26.000000000000004 0.0
  endloop
endfacet
facet normal -0.1950903220161297 -0.9807852804032301 -0.0
  outer loop
    vertex -1.5307337294603587 26.30448186995486 0.0
    vertex -1.130443199212942e-16 26.000000000000004 0.20000000000000004
    vertex -1.5307337294603587 26.30448186995486 0.20000000000000004
  endloop
endfacet
facet normal -0.5555702330196002 -0.8314696123025467 -0.0
  outer loop
    vertex -1.5307337294603587 26.30448186995486 0.20000000000000004
    vertex -2.8284271247461885 27.17157287525381 0.0
    vertex -1.5307337294603587 26.30448186995486 0.0
  endloop
endfacet
facet normal -0.5555702330196002 -0.8314696123025467 -0.0
  outer loop
    vertex -2.8284271247461885 27.17157287525381 0.0
    vertex -1.5307337294603587 26.30448186995486 0.20000000000000004
    vertex -2.8284271247461885 27.17157287525381 0.20000000000000004
  endloop
endfacet
facet normal -0.8314696123025459 -0.5555702330196013 -0.0
  outer loop
    vertex -3.695518130045145 28.469266270539645 0.20000000000000004
    vertex -2.8284271247461885 27.17157287525381 0.0
    vertex -2.8284271247461885 27.17157287525381 0.20000000000000004
  endloop
endfacet
facet normal -0.8314696123025459 -0.5555702330196013 -0.0
  outer loop
    vertex -2.8284271247461885 27.17157287525381 0.0
    vertex -3.695518130045145 28.469266270539645 0.20000000000000004
    vertex -3.695518130045145 28.469266270539645 0.0
  endloop
endfacet
facet normal -0.9807852804032304 -0.19509032201612844 -0.0
  outer loop
    vertex -3.9999999999999982 30.0 0.20000000000000004
    vertex -3.695518130045145 28.469266270539645 0.0
    vertex -3.695518130045145 28.469266270539645 0.20000000000000004
  endloop
endfacet
facet normal -0.9807852804032304 -0.19509032201612844 -0.0
  outer loop
    vertex -3.695518130045145 28.469266270539645 0.0
    vertex -3.9999999999999982 30.0 0.20000000000000004
    vertex -3.9999999999999982 30.0 0.0
  endloop
endfacet
facet normal -0.9807852804032304 0.19509032201612844 0.0
  outer loop
    vertex -3.695518130045145 31.53073372946036 0.20000000000000004
    vertex -3.9999999999999982 30.0 0.0
    vertex -3.9999999999999982 30.0 0.20000000000000004
  endloop
endfacet
facet normal -0.9807852804032304 0.19509032201612844 0.0
  outer loop
    vertex -3.9999999999999982 30.0 0.0
    vertex -3.695518130045145 31.53073372946036 0.20000000000000004
    vertex -3.695518130045145 31.53073372946036 0.0
  endloop
endfacet
facet normal -0.831469612302545 0.5555702330196028 0.0
  outer loop
    vertex -2.828427124746189 32.828427124746185 0.20000000000000004
    vertex -3.695518130045145 31.53073372946036 0.0
    vertex -3.695518130045145 31.53073372946036 0.20000000000000004
  endloop
endfacet
facet normal -0.831469612302545 0.5555702330196028 0.0
  outer loop
    vertex -3.695518130045145 31.53073372946036 0.0
    vertex -2.828427124746189 32.828427124746185 0.20000000000000004
    vertex -2.828427124746189 32.828427124746185 0.0
  endloop
endfacet
facet normal -0.5555702330196026 0.831469612302545 0.0
  outer loop
    vertex -2.828427124746189 32.828427124746185 0.20000000000000004
    vertex -1.5307337294603587 33.695518130045144 0.0
    vertex -2.828427124746189 32.828427124746185 0.0
  endloop
endfacet
facet normal -0.5555702330196026 0.831469612302545 0.0
  outer loop
    vertex -1.5307337294603587 33.695518130045144 0.0
    vertex -2.828427124746189 32.828427124746185 0.20000000000000004
    vertex -1.5307337294603587 33.695518130045144 0.20000000000000004
  endloop
endfacet
facet normal -0.1950903220161297 0.9807852804032301 0.0
  outer loop
    vertex -1.5307337294603587 33.695518130045144 0.20000000000000004
    vertex -3.768143997376469e-16 34.0 0.0
    vertex -1.5307337294603587 33.695518130045144 0.0
  endloop
endfacet
facet normal -0.1950903220161297 0.9807852804032301 0.0
  outer loop
    vertex -3.768143997376469e-16 34.0 0.0
    vertex -1.5307337294603587 33.695518130045144 0.20000000000000004
    vertex -3.768143997376469e-16 34.0 0.20000000000000004
  endloop
endfacet
facet normal 0.19509032201612622 0.9807852804032309 0.0
  outer loop
    vertex -3.768143997376469e-16 34.0 0.20000000000000004
    vertex 1.530733729460358 33.69551813004515 0.0
    vertex -3.768143997376469e-16 34.0 0.0
  endloop
endfacet
facet normal 0.19509032201612622 0.9807852804032309 0.0
  outer loop
    vertex 1.530733729460358 33.69551813004515 0.0
    vertex -3.768143997376469e-16 34.0 0.20000000000000004
    vertex 1.530733729460358 33.69551813004515 0.20000000000000004
  endloop
endfacet
facet normal 0.5555702330196025 0.831469612302545 0.0
  outer loop
    vertex 1.530733729460358 33.69551813004515 0.20000000000000004
    vertex 2.8284271247461885 32.82842712474619 0.0
    vertex 1.530733729460358 33.69551813004515 0.0
  endloop
endfacet
facet normal 0.5555702330196025 0.831469612302545 0.0
  outer loop
    vertex 2.8284271247461885 32.82842712474619 0.0
    vertex 1.530733729460358 33.69551813004515 0.20000000000000004
    vertex 2.8284271247461885 32.82842712474619 0.20000000000000004
  endloop
endfacet
facet normal 0.831469612302546 0.555570233019601 0.0
  outer loop
    vertex 2.8284271247461885 32.82842712474619 0.0
    vertex 3.6955181300451447 31.53073372946036 0.20000000000000004
    vertex 3.6955181300451447 31.53073372946036 0.0
  endloop
endfacet
facet normal 0.831469612302546 0.555570233019601 0.0
  outer loop
    vertex 3.6955181300451447 31.53073372946036 0.20000000000000004
    vertex 2.8284271247461885 32.82842712474619 0.0
    vertex 2.8284271247461885 32.82842712474619 0.20000000000000004
  endloop
endfacet
facet normal 0.9807852804032304 0.19509032201612891 0.0
  outer loop
    vertex 3.6955181300451447 31.53073372946036 0.0
    vertex 3.9999999999999982 30.0 0.20000000000000004
    vertex 3.9999999999999982 30.0 0.0
  endloop
endfacet
facet normal 0.9807852804032304 0.19509032201612891 0.0
  outer loop
    vertex 3.9999999999999982 30.0 0.20000000000000004
    vertex 3.6955181300451447 31.53073372946036 0.0
    vertex 3.6955181300451447 31.53073372946036 0.20000000000000004
  endloop
endfacet
facet normal -0.0 -0.0 1.0
  outer loop
    vertex -3.695518130045146 -1.5307337294603596 0.20000000000000004
    vertex -3.6955181300451465 1.5307337294603585 0.20000000000000004
    vertex -3.999999999999999 -4.898587196589412e-16 0.20000000000000004
  endloop
endfacet
facet normal -0.0 -0.0 1.0
  outer loop
    vertex -3.6955181300451465 1.5307337294603585 0.20000000000000004
    vertex -3.695518130045146 -1.5307337294603596 0.20000000000000004
    vertex -2.8284271247461903 2.82842712474619 0.20000000000000004
  endloop
endfacet
facet normal -0.0 -0.0 1.0
  outer loop
    vertex -2.8284271247461903 2.82842712474619 0.20000000000000004
    vertex -3.695518130045146 -1.5307337294603596 0.20000000000000004
    vertex -2.8284271247461894 -2.8284271247461903 0.20000000000000004
  endloop
endfacet
facet normal -0.0 -0.0 1.0
  outer loop
    vertex -2.8284271247461903 2.82842712474619 0.20000000000000004
    vertex -2.8284271247461894 -2.8284271247461903 0.20000000000000004
    vertex -1.5307337294603611 3.695518130045146 0.20000000000000004
  endloop
endfacet
facet normal -0.0 -0.0 1.0
  outer loop
    vertex -1.5307337294603611 3.695518130045146 0.20000000000000004
    vertex -2.8284271247461894 -2.8284271247461903 0.20000000000000004
    vertex -1.5307337294603587 -3.6955181300451465 0.20000000000000004
  endloop
endfacet
facet normal -0.0 -0.0 1.0
  outer loop
    vertex -1.5307337294603611 3.695518130045146 0.20000000000000004
    vertex -1.5307337294603587 -3.6955181300451465 0.20000000000000004
    vertex -7.347880794884117e-16 3.9999999999999996 0.20000000000000004
  endloop
endfacet
facet normal -0.0 -0.0 1.0
  outer loop
    vertex -7.347880794884117e-16 3.9999999999999996 0.20000000000000004
    vertex -1.5307337294603587 -3.6955181300451465 0.20000000000000004
    vertex 2.449293598294706e-16 -3.9999999999999996 0.20000000000000004
  endloop
endfacet
facet normal -0.0 -0.0 1.0
  outer loop
    vertex -7.347880794884117e-16 3.9999999999999996 0.20000000000000004
    vertex 2.449293598294706e-16 -3.9999999999999996 0.20000000000000004
    vertex 0.0 0.0 0.20000000000000004
  endloop
endfacet
facet normal -0.0 -0.0 1.0
  outer loop
    vertex 0.0 0.0 0.20000000000000004
    vertex 2.449293598294706e-16 -3.9999999999999996 0.20000000000000004
    vertex 3.999999999999999 0.0 0.20000000000000004
  endloop
endfacet
facet normal -0.0 -0.0 1.0
  outer loop
    vertex 3.999999999999999 0.0 0.20000000000000004
    vertex 2.449293598294706e-16 -3.9999999999999996 0.20000000000000004
    vertex 1.5307337294603591 -3.6955181300451465 0.20000000000000004
  endloop
endfacet
facet normal -0.0 -0.0 1.0
  outer loop
    vertex 3.999999999999999 0.0 0.20000000000000004
    vertex 1.5307337294603591 -3.6955181300451465 0.20000000000000004
    vertex 2.82842712474619 -2.82842712474619 0.20000000000000004
  endloop
endfacet
facet normal -0.0 -0.0 1.0
  outer loop
    vertex 3.999999999999999 0.0 0.20000000000000004
    vertex 2.82842712474619 -2.82842712474619 0.20000000000000004
    vertex 3.695518130045146 -1.530733729460359 0.20000000000000004
  endloop
endfacet
facet normal 0.9807852804032304 -0.19509032201612833 0.0
  outer loop
    vertex 3.999999999999999 0.0 0.0
    vertex 3.695518130045146 -1.530733729460359 0.20000000000000004
    vertex 3.695518130045146 -1.530733729460359 0.0
  endloop
endfacet
facet normal 0.9807852804032304 -0.19509032201612833 0.0
  outer loop
    vertex 3.695518130045146 -1.530733729460359 0.20000000000000004
    vertex 3.999999999999999 0.0 0.0
    vertex 3.999999999999999 0.0 0.20000000000000004
  endloop
endfacet
facet normal 0.8314696123025453 -0.555570233019602 0.0
  outer loop
    vertex 3.695518130045146 -1.530733729460359 0.0
    vertex 2.82842712474619 -2.82842712474619 0.20000000000000004
    vertex 2.82842712474619 -2.82842712474619 0.0
  endloop
endfacet
facet normal 0.8314696123025453 -0.555570233019602 0.0
  outer loop
    vertex 2.82842712474619 -2.82842712474619 0.20000000000000004
    vertex 3.695518130045146 -1.530733729460359 0.0
    vertex 3.695518130045146 -1.530733729460359 0.20000000000000004
  endloop
endfacet
facet normal 0.5555702330196024 -0.8314696123025452 0.0
  outer loop
    vertex 2.82842712474619 -2.82842712474619 0.20000000000000004
    vertex 1.5307337294603591 -3.6955181300451465 0.0
    vertex 2.82842712474619 -2.82842712474619 0.0
  endloop
endfacet
facet normal 0.5555702330196024 -0.8314696123025452 0.0
  outer loop
    vertex 1.5307337294603591 -3.6955181300451465 0.0
    vertex 2.82842712474619 -2.82842712474619 0.20000000000000004
    vertex 1.5307337294603591 -3.6955181300451465 0.20000000000000004
  endloop
endfacet
facet normal 0.19509032201612833 -0.9807852804032304 0.0
  outer loop
    vertex 1.5307337294603591 -3.6955181300451465 0.20000000000000004
    vertex 2.449293598294706e-16 -3.9999999999999996 0.0
    vertex 1.5307337294603591 -3.6955181300451465 0.0
  endloop
endfacet
facet normal 0.19509032201612833 -0.9807852804032304 0.0
  outer loop
    vertex 2.449293598294706e-16 -3.9999999999999996 0.0
    vertex 1.5307337294603591 -3.6955181300451465 0.20000000000000004
    vertex 2.449293598294706e-16 -3.9999999999999996 0.20000000000000004
  endloop
endfacet
facet normal -0.1950903220161284 -0.9807852804032305 -0.0
  outer loop
    vertex 2.449293598294706e-16 -3.9999999999999996 0.20000000000000004
    vertex -1.5307337294603587 -3.6955181300451465 0.0
    vertex 2.449293598294706e-16 -3.9999999999999996 0.0
  endloop
endfacet
facet normal -0.1950903220161284 -0.9807852804032305 -0.0
  outer loop
    vertex -1.5307337294603587 -3.6955181300451465 0.0
    vertex 2.449293598294706e-16 -3.9999999999999996 0.20000000000000004
    vertex -1.5307337294603587 -3.6955181300451465 0.20000000000000004
  endloop
endfacet
facet normal -0.5555702330196022 -0.8314696123025453 -0.0
  outer loop
    vertex -1.5307337294603587 -3.6955181300451465 0.20000000000000004
    vertex -2.8284271247461894 -2.8284271247461903 0.0
    vertex -1.5307337294603587 -3.6955181300451465 0.0
  endloop
endfacet
facet normal -0.5555702330196022 -0.8314696123025453 -0.0
  outer loop
    vertex -2.8284271247461894 -2.8284271247461903 0.0
    vertex -1.5307337294603587 -3.6955181300451465 0.20000000000000004
    vertex -2.8284271247461894 -2.8284271247461903 0.20000000000000004
  endloop
endfacet
facet normal -0.8314696123025452 -0.5555702330196022 -0.0
  outer loop
    vertex -3.695518130045146 -1.5307337294603596 0.20000000000000004
    vertex -2.8284271247461894 -2.8284271247461903 0.0
    vertex -2.8284271247461894 -2.8284271247461903 0.20000000000000004
  endloop
endfacet
facet normal -0.8314696123025452 -0.5555702330196022 -0.0
  outer loop
    vertex -2.8284271247461894 -2.8284271247461903 0.0
    vertex -3.695518130045146 -1.5307337294603596 0.20000000000000004
    vertex -3.695518130045146 -1.5307337294603596 0.0
  endloop
endfacet
facet normal -0.9807852804032304 -0.19509032201612833 -0.0
  outer loop
    vertex -3.999999999999999 -4.898587196589412e-16 0.20000000000000004
    vertex -3.695518130045146 -1.5307337294603596 0.0
    vertex -3.695518130045146 -1.5307337294603596 0.20000000000000004
  endloop
endfacet
facet normal -0.9807852804032304 -0.19509032201612833 -0.0
  outer loop
    vertex -3.695518130045146 -1.5307337294603596 0.0
    vertex -3.999999999999999 -4.898587196589412e-16 0.20000000000000004
    vertex -3.999999999999999 -4.898587196589412e-16 0.0
  endloop
endfacet
facet normal -0.9807852804032307 0.19509032201612792 0.0
  outer loop
    vertex -3.6955181300451465 1.5307337294603585 0.20000000000000004
    vertex -3.999999999999999 -4.898587196589412e-16 0.0
    vertex -3.999999999999999 -4.898587196589412e-16 0.20000000000000004
  endloop
endfacet
facet normal -0.9807852804032307 0.19509032201612792 0.0
  outer loop
    vertex -3.999999999999999 -4.898587196589412e-16 0.0
    vertex -3.6955181300451465 1.5307337294603585 0.20000000000000004
    vertex -3.6955181300451465 1.5307337294603585 0.0
  endloop
endfacet
facet normal -0.8314696123025453 0.555570233019602 0.0
  outer loop
    vertex -2.8284271247461903 2.82842712474619 0.20000000000000004
    vertex -3.6955181300451465 1.5307337294603585 0.0
    vertex -3.6955181300451465 1.5307337294603585 0.20000000000000004
  endloop
endfacet
facet normal -0.8314696123025453 0.555570233019602 0.0
  outer loop
    vertex -3.6955181300451465 1.5307337294603585 0.0
    vertex -2.8284271247461903 2.82842712474619 0.20000000000000004
    vertex -2.8284271247461903 2.82842712474619 0.0
  endloop
endfacet
facet normal -0.5555702330196025 0.8314696123025451 0.0
  outer loop
    vertex -2.8284271247461903 2.82842712474619 0.20000000000000004
    vertex -1.5307337294603611 3.695518130045146 0.0
    vertex -2.8284271247461903 2.82842712474619 0.0
  endloop
endfacet
facet normal -0.5555702330196025 0.8314696123025451 0.0
  outer loop
    vertex -1.5307337294603611 3.695518130045146 0.0
    vertex -2.8284271247461903 2.82842712474619 0.20000000000000004
    vertex -1.5307337294603611 3.695518130045146 0.20000000000000004
  endloop
endfacet
facet normal -0.1950903220161286 0.9807852804032304 0.0
  outer loop
    vertex -1.5307337294603611 3.695518130045146 0.20000000000000004
    vertex -7.347880794884117e-16 3.9999999999999996 0.0
    vertex -1.5307337294603611 3.695518130045146 0.0
  endloop
endfacet
facet normal -0.1950903220161286 0.9807852804032304 0.0
  outer loop
    vertex -7.347880794884117e-16 3.9999999999999996 0.0
    vertex -1.5307337294603611 3.695518130045146 0.20000000000000004
    vertex -7.347880794884117e-16 3.9999999999999996 0.20000000000000004
  endloop
endfacet
facet normal -0.0 -0.0 1.0
  outer loop
    vertex 26.304481869954852 -1.5307337294603611 0.20000000000000004
    vertex 30.0 0.0 0.20000000000000004
    vertex 26.000000000000004 -7.347880794884117e-16 0.20000000000000004
  endloop
endfacet
facet normal -0.0 -0.0 1.0
  outer loop
    vertex 30.0 0.0 0.20000000000000004
    vertex 26.304481869954852 -1.5307337294603611 0.20000000000000004
    vertex 27.17157287525381 -2.8284271247461903 0.20000000000000004
  endloop
endfacet
facet normal -0.0 -0.0 1.0
  outer loop
    vertex 30.0 0.0 0.20000000000000004
    vertex 27.17157287525381 -2.8284271247461903 0.20000000000000004
    vertex 28.469266270539645 -3.6955181300451465 0.20000000000000004
  endloop
endfacet
facet normal -0.0 -0.0 1.0
  outer loop
    vertex 30.0 0.0 0.20000000000000004
    vertex 28.469266270539645 -3.6955181300451465 0.20000000000000004
    vertex 30.0 -3.999999999999999 0.20000000000000004
  endloop
endfacet
facet normal -0.0 -0.0 1.0
  outer loop
    vertex 30.0 0.0 0.20000000000000004
    vertex 30.0 -3.999999999999999 0.20000000000000004
    vertex 31.53073372946036 -3.695518130045146 0.20000000000000004
  endloop
endfacet
facet normal -0.0 -0.0 1.0
  outer loop
    vertex 30.0 0.0 0.20000000000000004
    vertex 31.53073372946036 -3.695518130045146 0.20000000000000004
    vertex 30.0 3.999999999999999 0.20000000000000004
  endloop
endfacet
facet normal -0.0 -0.0 1.0
  outer loop
    vertex 30.0 3.999999999999999 0.20000000000000004
    vertex 31.53073372946036 -3.695518130045146 0.20000000000000004
    vertex 31.53073372946036 3.695518130045146 0.20000000000000004
  endloop
endfacet
facet normal -0.0 -0.0 1.0
  outer loop
    vertex 31.53073372946036 3.695518130045146 0.20000000000000004
    vertex 31.53073372946036 -3.695518130045146 0.20000000000000004
    vertex 32.82842712474619 -2.8284271247461894 0.20000000000000004
  endloop
endfacet
facet normal -0.0 -0.0 1.0
  outer loop
    vertex 31.53073372946036 3.695518130045146 0.20000000000000004
    vertex 32.82842712474619 -2.8284271247461894 0.20000000000000004
    vertex 32.82842712474619 2.82842712474619 0.20000000000000004
  endloop
endfacet
facet normal -0.0 -0.0 1.0
  outer loop
    vertex 32.82842712474619 2.82842712474619 0.20000000000000004
    vertex 32.82842712474619 -2.8284271247461894 0.20000000000000004
    vertex 33.69551813004515 -1.5307337294603587 0.20000000000000004
  endloop
endfacet
facet normal -0.0 -0.0 1.0
  outer loop
    vertex 32.82842712474619 2.82842712474619 0.20000000000000004
    vertex 33.69551813004515 -1.5307337294603587 0.20000000000000004
    vertex 33.69551813004515 1.5307337294603591 0.20000000000000004
  endloop
endfacet
facet normal -0.0 -0.0 1.0
  outer loop
    vertex 33.69551813004515 1.5307337294603591 0.20000000000000004
    vertex 33.69551813004515 -1.5307337294603587 0.20000000000000004
    vertex 34.0 2.449293598294706e-16 0.20000000000000004
  endloop
endfacet
facet normal -0.9807852804032309 -0.19509032201612597 -0.0
  outer loop
    vertex 26.000000000000004 -7.347880794884117e-16 0.20000000000000004
    vertex 26.304481869954852 -1.5307337294603611 0.0
    vertex 26.304481869954852 -1.5307337294603611 0.20000000000000004
  endloop
endfacet
facet normal -0.9807852804032309 -0.19509032201612597 -0.0
  outer loop
    vertex 26.304481869954852 -1.5307337294603611 0.0
    vertex 26.000000000000004 -7.347880794884117e-16 0.20000000000000004
    vertex 26.000000000000004 -7.347880794884117e-16 0.0
  endloop
endfacet
facet normal 0.19509032201612844 0.9807852804032304 0.0
  outer loop
    vertex 30.0 3.999999999999999 0.20000000000000004
    vertex 31.53073372946036 3.695518130045146 0.0
    vertex 30.0 3.999999999999999 0.0
  endloop
endfacet
facet normal 0.19509032201612844 0.9807852804032304 0.0
  outer loop
    vertex 31.53073372946036 3.695518130045146 0.0
    vertex 30.0 3.999999999999999 0.20000000000000004
    vertex 31.53073372946036 3.695518130045146 0.20000000000000004
  endloop
endfacet
facet normal 0.5555702330196012 0.831469612302546 0.0
  outer loop
    vertex 31.53073372946036 3.695518130045146 0.20000000000000004
    vertex 32.82842712474619 2.82842712474619 0.0
    vertex 31.53073372946036 3.695518130045146 0.0
  endloop
endfacet
facet normal 0.5555702330196012 0.831469612302546 0.0
  outer loop
    vertex 32.82842712474619 2.82842712474619 0.0
    vertex 31.53073372946036 3.695518130045146 0.20000000000000004
    vertex 32.82842712474619 2.82842712474619 0.20000000000000004
  endloop
endfacet
facet normal 0.831469612302545 0.5555702330196025 0.0
  outer loop
    vertex 32.82842712474619 2.82842712474619 0.0
    vertex 33.69551813004515 1.5307337294603591 0.20000000000000004
    vertex 33.69551813004515 1.5307337294603591 0.0
  endloop
endfacet
facet normal 0.831469612302545 0.5555702330196025 0.0
  outer loop
    vertex 33.69551813004515 1.5307337294603591 0.20000000000000004
    vertex 32.82842712474619 2.82842712474619 0.0
    vertex 32.82842712474619 2.82842712474619 0.20000000000000004
  endloop
endfacet
facet normal 0.9807852804032309 0.19509032201612614 0.0
  outer loop
    vertex 33.69551813004515 1.5307337294603591 0.0
    vertex 34.0 2.449293598294706e-16 0.20000000000000004
    vertex 34.0 2.449293598294706e-16 0.0
  endloop
endfacet
facet normal 0.9807852804032309 0.19509032201612614 0.0
  outer loop
    vertex 34.0 2.449293598294706e-16 0.20000000000000004
    vertex 33.69551813004515 1.5307337294603591 0.0
    vertex 33.69551813004515 1.5307337294603591 0.20000000000000004
  endloop
endfacet
facet normal 0.980785280403231 -0.1950903220161262 0.0
  outer loop
    vertex 34.0 2.449293598294706e-16 0.0
    vertex 33.69551813004515 -1.5307337294603587 0.20000000000000004
    vertex 33.69551813004515 -1.5307337294603587 0.0
  endloop
endfacet
facet normal 0.980785280403231 -0.1950903220161262 0.0
  outer loop
    vertex 33.69551813004515 -1.5307337294603587 0.20000000000000004
    vertex 34.0 2.449293598294706e-16 0.0
    vertex 34.0 2.449293598294706e-16 0.20000000000000004
  endloop
endfacet
facet normal 0.8314696123025451 -0.5555702330196025 0.0
  outer loop
    vertex 33.69551813004515 -1.5307337294603587 0.0
    vertex 32.82842712474619 -2.8284271247461894 0.20000000000000004
    vertex 32.82842712474619 -2.8284271247461894 0.0
  endloop
endfacet
facet normal 0.8314696123025451 -0.5555702330196025 0.0
  outer loop
    vertex 32.82842712474619 -2.8284271247461894 0.20000000000000004
    vertex 33.69551813004515 -1.5307337294603587 0.0
    vertex 33.69551813004515 -1.5307337294603587 0.20000000000000004
  endloop
endfacet
facet normal 0.5555702330196013 -0.8314696123025459 0.0
  outer loop
    vertex 32.82842712474619 -2.8284271247461894 0.20000000000000004
    vertex 31.53073372946036 -3.695518130045146 0.0
    vertex 32.82842712474619 -2.8284271247461894 0.0
  endloop
endfacet
facet normal 0.5555702330196013 -0.8314696123025459 0.0
  outer loop
    vertex 31.53073372946036 -3.695518130045146 0.0
    vertex 32.82842712474619 -2.8284271247461894 0.20000000000000004
    vertex 31.53073372946036 -3.695518130045146 0.20000000000000004
  endloop
endfacet
facet normal 0.19509032201612844 -0.9807852804032304 0.0
  outer loop
    vertex 31.53073372946036 -3.695518130045146 0.20000000000000004
    vertex 30.0 -3.999999999999999 0.0
    vertex 31.53073372946036 -3.695518130045146 0.0
  endloop
endfacet
facet normal 0.19509032201612844 -0.9807852804032304 0.0
  outer loop
    vertex 30.0 -3.999999999999999 0.0
    vertex 31.53073372946036 -3.695518130045146 0.20000000000000004
    vertex 30.0 -3.999999999999999 0.20000000000000004
  endloop
endfacet
facet normal -0.19509032201612805 -0.9807852804032305 -0.0
  outer loop
    vertex 30.0 -3.999999999999999 0.20000000000000004
    vertex 28.469266270539645 -3.6955181300451465 0.0
    vertex 30.0 -3.999999999999999 0.0
  endloop
endfacet
facet normal -0.19509032201612805 -0.9807852804032305 -0.0
  outer loop
    vertex 28.469266270539645 -3.6955181300451465 0.0
    vertex 30.0 -3.999999999999999 0.20000000000000004
    vertex 28.469266270539645 -3.6955181300451465 0.20000000000000004
  endloop
endfacet
facet normal -0.5555702330196013 -0.8314696123025459 -0.0
  outer loop
    vertex 28.469266270539645 -3.6955181300451465 0.20000000000000004
    vertex 27.17157287525381 -2.8284271247461903 0.0
    vertex 28.469266270539645 -3.6955181300451465 0.0
  endloop
endfacet
facet normal -0.5555702330196013 -0.8314696123025459 -0.0
  outer loop
    vertex 27.17157287525381 -2.8284271247461903 0.0
    vertex 28.469266270539645 -3.6955181300451465 0.20000000000000004
    vertex 27.17157287525381 -2.8284271247461903 0.20000000000000004
  endloop
endfacet
facet normal -0.8314696123025448 -0.555570233019603 -0.0
  outer loop
    vertex 26.304481869954852 -1.5307337294603611 0.20000000000000004
    vertex 27.17157287525381 -2.8284271247461903 0.0
    vertex 27.17157287525381 -2.8284271247461903 0.20000000000000004
  endloop
endfacet
facet normal -0.8314696123025448 -0.555570233019603 -0.0
  outer loop
    vertex 27.17157287525381 -2.8284271247461903 0.0
    vertex 26.304481869954852 -1.5307337294603611 0.20000000000000004
    vertex 26.304481869954852 -1.5307337294603611 0.0
  endloop
endfacet
facet normal 4.099575243204739e-16 1.0 -1.1749860343949574e-15
  outer loop
    vertex 4.12132034355964 28.000000000000004 3.0
    vertex 11.0 28.0 0.5999999999999999
    vertex 4.121320343559641 28.000000000000004 0.5999999999999995
  endloop
endfacet
facet normal 4.099575243204739e-16 1.0 -1.1749860343949574e-15
  outer loop
    vertex 11.0 28.0 0.5999999999999999
    vertex 4.12132034355964 28.000000000000004 3.0
    vertex 11.0 28.000000000000004 3.0
  endloop
endfacet
facet normal -0.7071067811865479 -0.7071067811865471 -3.4347902107897505e-16
  outer loop
    vertex 9.621320343559633 22.500000000000007 3.0
    vertex 4.121320343559641 28.000000000000004 0.5999999999999995
    vertex 9.621320343559637 22.500000000000004 0.5999999999999995
  endloop
endfacet
facet normal -0.7071067811865479 -0.7071067811865471 -3.4347902107897505e-16
  outer loop
    vertex 4.121320343559641 28.000000000000004 0.5999999999999995
    vertex 9.621320343559633 22.500000000000007 3.0
    vertex 4.12132034355964 28.000000000000004 3.0
  endloop
endfacet
facet normal -2.6214300373617764e-16 -1.0 1.174986034394957e-15
  outer loop
    vertex 20.37867965644036 22.500000000000004 3.0
    vertex 9.621320343559637 22.500000000000004 0.5999999999999995
    vertex 20.37867965644036 22.5 0.5999999999999995
  endloop
endfacet
facet normal -2.6214300373617764e-16 -1.0 1.174986034394957e-15
  outer loop
    vertex 9.621320343559637 22.500000000000004 0.5999999999999995
    vertex 20.37867965644036 22.500000000000004 3.0
    vertex 9.621320343559633 22.500000000000007 3.0
  endloop
endfacet
facet normal 0.7071067811865475 -0.7071067811865477 -4.808706295105632e-16
  outer loop
    vertex 25.87867965644036 28.0 3.0
    vertex 20.37867965644036 22.5 0.5999999999999995
    vertex 25.878679656440358 28.0 0.5999999999999995
  endloop
endfacet
facet normal 0.7071067811865475 -0.7071067811865477 -4.808706295105632e-16
  outer loop
    vertex 20.37867965644036 22.5 0.5999999999999995
    vertex 25.87867965644036 28.0 3.0
    vertex 20.37867965644036 22.500000000000004 3.0
  endloop
endfacet
facet normal -0.0 1.0 -0.0
  outer loop
    vertex 19.000000000000004 28.0 0.5999999999999999
    vertex 25.87867965644036 28.0 3.0
    vertex 25.878679656440358 28.0 0.5999999999999995
  endloop
endfacet
facet normal -0.0 1.0 -0.0
  outer loop
    vertex 25.87867965644036 28.0 3.0
    vertex 19.000000000000004 28.0 0.5999999999999999
    vertex 19.0 28.0 3.0
  endloop
endfacet
facet normal 1.0 7.049916206369737e-16 5.874930171974787e-16
  outer loop
    vertex 19.0 30.0 0.5999999999999999
    vertex 19.0 28.0 3.0
    vertex 19.000000000000004 28.0 0.5999999999999999
  endloop
endfacet
facet normal 1.0 7.049916206369737e-16 5.874930171974787e-16
  outer loop
    vertex 19.0 28.0 3.0
    vertex 19.0 30.0 0.5999999999999999
    vertex 19.0 30.0 3.0
  endloop
endfacet
facet normal -0.0 -0.0 1.0
  outer loop
    vertex 10.035533905932732 23.500000000000004 3.9999999999999996
    vertex 12.0 27.0 3.9999999999999996
    vertex 6.535533905932734 27.000000000000007 3.9999999999999996
  endloop
endfacet
facet normal -0.0 -0.0 1.0
  outer loop
    vertex 12.0 27.0 3.9999999999999996
    vertex 10.035533905932732 23.500000000000004 3.9999999999999996
    vertex 19.96446609406727 23.500000000000004 3.9999999999999996
  endloop
endfacet
facet normal -0.0 -0.0 1.0
  outer loop
    vertex 12.0 27.0 3.9999999999999996
    vertex 19.96446609406727 23.500000000000004 3.9999999999999996
    vertex 12.0 29.000000000000004 3.9999999999999996
  endloop
endfacet
facet normal -0.0 -0.0 1.0
  outer loop
    vertex 12.0 29.000000000000004 3.9999999999999996
    vertex 19.96446609406727 23.500000000000004 3.9999999999999996
    vertex 18.0 27.0 3.9999999999999996
  endloop
endfacet
facet normal -0.0 -0.0 1.0
  outer loop
    vertex 12.0 29.000000000000004 3.9999999999999996
    vertex 18.0 27.0 3.9999999999999996
    vertex 17.999999999999996 29.000000000000004 3.9999999999999996
  endloop
endfacet
facet normal -0.0 -0.0 1.0
  outer loop
    vertex 18.0 27.0 3.9999999999999996
    vertex 19.96446609406727 23.500000000000004 3.9999999999999996
    vertex 23.464466094067266 27.0 3.9999999999999996
  endloop
endfacet
facet normal -1.0 0.0 0.0
  outer loop
    vertex 11.0 28.000000000000004 3.0
    vertex 11.0 30.0 0.5999999999999999
    vertex 11.0 28.0 0.5999999999999999
  endloop
endfacet
facet normal -1.0 0.0 0.0
  outer loop
    vertex 11.0 30.0 0.5999999999999999
    vertex 11.0 28.000000000000004 3.0
    vertex 11.0 30.0 3.0
  endloop
endfacet
facet normal -0.0 -0.0 1.0
  outer loop
    vertex 18.000000000000004 0.9999999999999999 3.9999999999999996
    vertex 12.0 3.0 3.9999999999999996
    vertex 12.0 0.9999999999999999 3.9999999999999996
  endloop
endfacet
facet normal -0.0 -0.0 1.0
  outer loop
    vertex 12.0 3.0 3.9999999999999996
    vertex 18.000000000000004 0.9999999999999999 3.9999999999999996
    vertex 18.0 2.9999999999999964 3.9999999999999996
  endloop
endfacet
facet normal -0.0 -0.0 1.0
  outer loop
    vertex 12.0 3.0 3.9999999999999996
    vertex 10.035533905932738 6.4999999999999964 3.9999999999999996
    vertex 6.535533905932735 2.9999999999999982 3.9999999999999996
  endloop
endfacet
facet normal -0.0 -0.0 1.0
  outer loop
    vertex 10.035533905932738 6.4999999999999964 3.9999999999999996
    vertex 12.0 3.0 3.9999999999999996
    vertex 19.964466094067266 6.499999999999998 3.9999999999999996
  endloop
endfacet
facet normal -0.0 -0.0 1.0
  outer loop
    vertex 19.964466094067266 6.499999999999998 3.9999999999999996
    vertex 12.0 3.0 3.9999999999999996
    vertex 18.0 2.9999999999999964 3.9999999999999996
  endloop
endfacet
facet normal -0.0 -0.0 1.0
  outer loop
    vertex 19.964466094067266 6.499999999999998 3.9999999999999996
    vertex 18.0 2.9999999999999964 3.9999999999999996
    vertex 23.464466094067273 2.9999999999999964 3.9999999999999996
  endloop
endfacet
facet normal -3.956878322829745e-18 -0.7071067811865476 0.7071067811865476
  outer loop
    vertex 18.000000000000004 0.9999999999999999 3.9999999999999996
    vertex 11.0 2.9082551451746384e-18 3.0
    vertex 19.000000000000004 2.9082551451746384e-18 3.0
  endloop
endfacet
facet normal -3.956878322829745e-18 -0.7071067811865476 0.7071067811865476
  outer loop
    vertex 11.0 2.9082551451746384e-18 3.0
    vertex 18.000000000000004 0.9999999999999999 3.9999999999999996
    vertex 12.0 0.9999999999999999 3.9999999999999996
  endloop
endfacet
facet normal 0.7071067811865469 4.674352329266721e-16 0.7071067811865482
  outer loop
    vertex 18.000000000000004 0.9999999999999999 3.9999999999999996
    vertex 19.000000000000004 1.9999999999999962 3.0
    vertex 18.0 2.9999999999999964 3.9999999999999996
  endloop
endfacet
facet normal 0.7071067811865469 4.674352329266721e-16 0.7071067811865482
  outer loop
    vertex 19.000000000000004 1.9999999999999962 3.0
    vertex 18.000000000000004 0.9999999999999999 3.9999999999999996
    vertex 19.000000000000004 2.9082551451746384e-18 3.0
  endloop
endfacet
facet normal -0.4999999999999994 0.4999999999999996 0.7071067811865482
  outer loop
    vertex 6.535533905932735 2.9999999999999982 3.9999999999999996
    vertex 9.62132034355964 7.499999999999997 3.0
    vertex 4.121320343559638 1.9999999999999973 3.0
  endloop
endfacet
facet normal -0.4999999999999994 0.4999999999999996 0.7071067811865482
  outer loop
    vertex 9.62132034355964 7.499999999999997 3.0
    vertex 6.535533905932735 2.9999999999999982 3.9999999999999996
    vertex 10.035533905932738 6.4999999999999964 3.9999999999999996
  endloop
endfacet
facet normal 2.584189663230955e-17 -0.7071067811865474 0.7071067811865477
  outer loop
    vertex 19.000000000000004 1.9999999999999962 3.0
    vertex 23.464466094067273 2.9999999999999964 3.9999999999999996
    vertex 18.0 2.9999999999999964 3.9999999999999996
  endloop
endfacet
facet normal 2.584189663230955e-17 -0.7071067811865474 0.7071067811865477
  outer loop
    vertex 23.464466094067273 2.9999999999999964 3.9999999999999996
    vertex 19.000000000000004 1.9999999999999962 3.0
    vertex 25.87867965644037 1.9999999999999962 3.0
  endloop
endfacet
facet normal 3.956878322829758e-18 0.7071067811865481 0.707106781186547
  outer loop
    vertex 12.0 29.000000000000004 3.9999999999999996
    vertex 19.0 30.0 3.0
    vertex 11.0 30.0 3.0
  endloop
endfacet
facet normal 3.956878322829758e-18 0.7071067811865481 0.707106781186547
  outer loop
    vertex 19.0 30.0 3.0
    vertex 12.0 29.000000000000004 3.9999999999999996
    vertex 17.999999999999996 29.000000000000004 3.9999999999999996
  endloop
endfacet
facet normal -0.7071067811865476 0.0 0.7071067811865476
  outer loop
    vertex 12.0 29.000000000000004 3.9999999999999996
    vertex 11.0 28.000000000000004 3.0
    vertex 12.0 27.0 3.9999999999999996
  endloop
endfacet
facet normal -0.7071067811865476 0.0 0.7071067811865476
  outer loop
    vertex 11.0 28.000000000000004 3.0
    vertex 12.0 29.000000000000004 3.9999999999999996
    vertex 11.0 30.0 3.0
  endloop
endfacet
facet normal -4.6159539427493594e-17 0.7071067811865475 0.7071067811865476
  outer loop
    vertex 10.035533905932738 6.4999999999999964 3.9999999999999996
    vertex 20.37867965644036 7.499999999999997 3.0
    vertex 9.62132034355964 7.499999999999997 3.0
  endloop
endfacet
facet normal -4.6159539427493594e-17 0.7071067811865475 0.7071067811865476
  outer loop
    vertex 20.37867965644036 7.499999999999997 3.0
    vertex 10.035533905932738 6.4999999999999964 3.9999999999999996
    vertex 19.964466094067266 6.499999999999998 3.9999999999999996
  endloop
endfacet
facet normal 0.5000000000000008 0.5000000000000013 0.7071067811865462
  outer loop
    vertex 23.464466094067273 2.9999999999999964 3.9999999999999996
    vertex 20.37867965644036 7.499999999999997 3.0
    vertex 19.964466094067266 6.499999999999998 3.9999999999999996
  endloop
endfacet
facet normal 0.5000000000000008 0.5000000000000013 0.7071067811865462
  outer loop
    vertex 20.37867965644036 7.499999999999997 3.0
    vertex 23.464466094067273 2.9999999999999964 3.9999999999999996
    vertex 25.87867965644037 1.9999999999999962 3.0
  endloop
endfacet
facet normal 2.7133991463925076e-16 -0.7071067811865476 0.7071067811865475
  outer loop
    vertex 12.0 3.0 3.9999999999999996
    vertex 4.121320343559638 1.9999999999999973 3.0
    vertex 11.0 1.9999999999999998 3.0
  endloop
endfacet
facet normal 2.7133991463925076e-16 -0.7071067811865476 0.7071067811865475
  outer loop
    vertex 4.121320343559638 1.9999999999999973 3.0
    vertex 12.0 3.0 3.9999999999999996
    vertex 6.535533905932735 2.9999999999999982 3.9999999999999996
  endloop
endfacet
facet normal -0.7071067811865477 6.232469772355622e-17 0.7071067811865474
  outer loop
    vertex 12.0 0.9999999999999999 3.9999999999999996
    vertex 11.0 1.9999999999999998 3.0
    vertex 11.0 2.9082551451746384e-18 3.0
  endloop
endfacet
facet normal -0.7071067811865477 6.232469772355622e-17 0.7071067811865474
  outer loop
    vertex 11.0 1.9999999999999998 3.0
    vertex 12.0 0.9999999999999999 3.9999999999999996
    vertex 12.0 3.0 3.9999999999999996
  endloop
endfacet
facet normal 0.7071067811865475 4.674352329266704e-16 0.7071067811865477
  outer loop
    vertex 18.0 27.0 3.9999999999999996
    vertex 19.0 30.0 3.0
    vertex 17.999999999999996 29.000000000000004 3.9999999999999996
  endloop
endfacet
facet normal 0.7071067811865475 4.674352329266704e-16 0.7071067811865477
  outer loop
    vertex 19.0 30.0 3.0
    vertex 18.0 27.0 3.9999999999999996
    vertex 19.0 28.0 3.0
  endloop
endfacet
facet normal 2.8426086295540536e-16 0.7071067811865475 0.7071067811865477
  outer loop
    vertex 6.535533905932734 27.000000000000007 3.9999999999999996
    vertex 11.0 28.000000000000004 3.0
    vertex 4.12132034355964 28.000000000000004 3.0
  endloop
endfacet
facet normal 2.8426086295540536e-16 0.7071067811865475 0.7071067811865477
  outer loop
    vertex 11.0 28.000000000000004 3.0
    vertex 6.535533905932734 27.000000000000007 3.9999999999999996
    vertex 12.0 27.0 3.9999999999999996
  endloop
endfacet
facet normal -1.9202368401837323e-16 -0.7071067811865481 0.707106781186547
  outer loop
    vertex 19.96446609406727 23.500000000000004 3.9999999999999996
    vertex 9.621320343559633 22.500000000000007 3.0
    vertex 20.37867965644036 22.500000000000004 3.0
  endloop
endfacet
facet normal -1.9202368401837323e-16 -0.7071067811865481 0.707106781186547
  outer loop
    vertex 9.621320343559633 22.500000000000007 3.0
    vertex 19.96446609406727 23.500000000000004 3.9999999999999996
    vertex 10.035533905932732 23.500000000000004 3.9999999999999996
  endloop
endfacet
facet normal 0.4999999999999996 -0.4999999999999998 0.707106781186548
  outer loop
    vertex 20.37867965644036 22.500000000000004 3.0
    vertex 23.464466094067266 27.0 3.9999999999999996
    vertex 19.96446609406727 23.500000000000004 3.9999999999999996
  endloop
endfacet
facet normal 0.4999999999999996 -0.4999999999999998 0.707106781186548
  outer loop
    vertex 23.464466094067266 27.0 3.9999999999999996
    vertex 20.37867965644036 22.500000000000004 3.0
    vertex 25.87867965644036 28.0 3.0
  endloop
endfacet
facet normal -0.49999999999999994 -0.49999999999999944 0.707106781186548
  outer loop
    vertex 9.621320343559633 22.500000000000007 3.0
    vertex 6.535533905932734 27.000000000000007 3.9999999999999996
    vertex 4.12132034355964 28.000000000000004 3.0
  endloop
endfacet
facet normal -0.49999999999999994 -0.49999999999999944 0.707106781186548
  outer loop
    vertex 6.535533905932734 27.000000000000007 3.9999999999999996
    vertex 9.621320343559633 22.500000000000007 3.0
    vertex 10.035533905932732 23.500000000000004 3.9999999999999996
  endloop
endfacet
facet normal 1.29209483161548e-17 0.7071067811865481 0.707106781186547
  outer loop
    vertex 18.0 27.0 3.9999999999999996
    vertex 25.87867965644036 28.0 3.0
    vertex 19.0 28.0 3.0
  endloop
endfacet
facet normal 1.29209483161548e-17 0.7071067811865481 0.707106781186547
  outer loop
    vertex 25.87867965644036 28.0 3.0
    vertex 18.0 27.0 3.9999999999999996
    vertex 23.464466094067266 27.0 3.9999999999999996
  endloop
endfacet
endsolid al-profile-cover
