solid corner-coupler_v2
facet normal -0.13052619222005102 0.7010573846499814 -0.7010573846499746
  outer loop
    vertex 14.999999999999995 31.041987694089467 8.55599205235723
    vertex 15.802339039817822 36.77353358939424 14.138154656037218
    vertex 15.802339039817822 31.116679339901864 8.481300406544802
  endloop
endfacet
facet normal -0.13052619222005102 0.7010573846499814 -0.7010573846499746
  outer loop
    vertex 15.802339039817822 36.77353358939424 14.138154656037218
    vertex 14.999999999999995 31.041987694089467 8.55599205235723
    vertex 14.999999999999995 36.698841943581805 14.212846301849632
  endloop
endfacet
facet normal 0.13052619222005363 0.7010573846499811 -0.7010573846499744
  outer loop
    vertex 14.197660960182185 36.77353358939424 14.138154656037218
    vertex 14.999999999999995 31.041987694089467 8.55599205235723
    vertex 14.197660960182185 31.116679339901864 8.481300406544802
  endloop
endfacet
facet normal 0.13052619222005363 0.7010573846499811 -0.7010573846499744
  outer loop
    vertex 14.999999999999995 31.041987694089467 8.55599205235723
    vertex 14.197660960182185 36.77353358939424 14.138154656037218
    vertex 14.999999999999995 36.698841943581805 14.212846301849632
  endloop
endfacet
facet normal 0.38268343236510954 0.6532814824381852 -0.6532814824381797
  outer loop
    vertex 13.450000000000003 36.99251841460316 13.91916983082829
    vertex 14.197660960182185 31.116679339901864 8.481300406544802
    vertex 13.450000000000003 31.335664165110803 8.262315581335878
  endloop
endfacet
facet normal 0.38268343236510954 0.6532814824381852 -0.6532814824381797
  outer loop
    vertex 14.197660960182185 31.116679339901864 8.481300406544802
    vertex 13.450000000000003 36.99251841460316 13.91916983082829
    vertex 14.197660960182185 36.77353358939424 14.138154656037218
  endloop
endfacet
facet normal 0.6087614290087168 0.5609855267969358 -0.5609855267969304
  outer loop
    vertex 12.807968978321707 31.684018715767763 7.913961030678921
    vertex 13.450000000000003 36.99251841460316 13.91916983082829
    vertex 13.450000000000003 31.335664165110803 8.262315581335878
  endloop
endfacet
facet normal 0.6087614290087168 0.5609855267969358 -0.5609855267969304
  outer loop
    vertex 13.450000000000003 36.99251841460316 13.91916983082829
    vertex 12.807968978321707 31.684018715767763 7.913961030678921
    vertex 12.807968978321707 37.340872965260125 13.570815280171338
  endloop
endfacet
facet normal 0.7933533402912255 0.43045933457688906 -0.43045933457688756
  outer loop
    vertex 12.315321248268239 32.13800320492858 7.459976541518097
    vertex 12.807968978321707 37.340872965260125 13.570815280171338
    vertex 12.807968978321707 31.684018715767763 7.913961030678921
  endloop
endfacet
facet normal 0.7933533402912255 0.43045933457688906 -0.43045933457688756
  outer loop
    vertex 12.807968978321707 37.340872965260125 13.570815280171338
    vertex 12.315321248268239 32.13800320492858 7.459976541518097
    vertex 12.315321248268239 37.79485745442097 13.116830791010477
  endloop
endfacet
facet normal 0.9238795325112897 0.270598050073093 -0.27059805007309384
  outer loop
    vertex 12.005629938503892 32.666679339901854 6.931300406544828
    vertex 12.315321248268239 37.79485745442097 13.116830791010477
    vertex 12.315321248268239 32.13800320492858 7.459976541518097
  endloop
endfacet
facet normal 0.9238795325112897 0.270598050073093 -0.27059805007309384
  outer loop
    vertex 12.315321248268239 37.79485745442097 13.116830791010477
    vertex 12.005629938503892 32.666679339901854 6.931300406544828
    vertex 12.005629938503892 38.323533589394266 12.588154656037226
  endloop
endfacet
facet normal 0.9914448613738084 0.09229595564126877 -0.09229595564126895
  outer loop
    vertex 11.899999999999991 33.234018715767725 6.3639610306789365
    vertex 12.005629938503892 38.323533589394266 12.588154656037226
    vertex 12.005629938503892 32.666679339901854 6.931300406544828
  endloop
endfacet
facet normal 0.9914448613738084 0.09229595564126877 -0.09229595564126895
  outer loop
    vertex 12.005629938503892 38.323533589394266 12.588154656037226
    vertex 11.899999999999991 33.234018715767725 6.3639610306789365
    vertex 11.899999999999991 38.89087296526012 12.020815280171329
  endloop
endfacet
facet normal 0.9914448613738079 -0.09229595564127102 0.09229595564127074
  outer loop
    vertex 12.005629938503892 33.80135809163359 5.796621654813052
    vertex 11.899999999999991 38.89087296526012 12.020815280171329
    vertex 11.899999999999991 33.234018715767725 6.3639610306789365
  endloop
endfacet
facet normal 0.9914448613738079 -0.09229595564127102 0.09229595564127074
  outer loop
    vertex 11.899999999999991 38.89087296526012 12.020815280171329
    vertex 12.005629938503892 33.80135809163359 5.796621654813052
    vertex 12.005629938503892 39.45821234112595 11.45347590430545
  endloop
endfacet
facet normal 0.9238795325112852 -0.2705980500731021 0.27059805007310056
  outer loop
    vertex 12.31532124826825 34.33003422660687 5.267945519839788
    vertex 12.005629938503892 39.45821234112595 11.45347590430545
    vertex 12.005629938503892 33.80135809163359 5.796621654813052
  endloop
endfacet
facet normal 0.9238795325112852 -0.2705980500731021 0.27059805007310056
  outer loop
    vertex 12.005629938503892 39.45821234112595 11.45347590430545
    vertex 12.31532124826825 34.33003422660687 5.267945519839788
    vertex 12.31532124826825 39.986888476099246 10.924799769332187
  endloop
endfacet
facet normal 0.793353340291239 -0.4304593345768772 0.4304593345768748
  outer loop
    vertex 12.807968978321696 34.78401871576772 4.813961030678958
    vertex 12.31532124826825 39.986888476099246 10.924799769332187
    vertex 12.31532124826825 34.33003422660687 5.267945519839788
  endloop
endfacet
facet normal 0.793353340291239 -0.4304593345768772 0.4304593345768748
  outer loop
    vertex 12.31532124826825 39.986888476099246 10.924799769332187
    vertex 12.807968978321696 34.78401871576772 4.813961030678958
    vertex 12.807968978321696 40.440872965260084 10.470815280171353
  endloop
endfacet
facet normal 0.6087614290087233 -0.5609855267969309 0.5609855267969284
  outer loop
    vertex 13.450000000000015 35.132373266424686 4.465606480021983
    vertex 12.807968978321696 40.440872965260084 10.470815280171353
    vertex 12.807968978321696 34.78401871576772 4.813961030678958
  endloop
endfacet
facet normal 0.6087614290087233 -0.5609855267969309 0.5609855267969284
  outer loop
    vertex 12.807968978321696 40.440872965260084 10.470815280171353
    vertex 13.450000000000015 35.132373266424686 4.465606480021983
    vertex 13.450000000000015 40.78922751591708 10.122460729514394
  endloop
endfacet
facet normal 0.3826834323650775 -0.6532814824381926 0.6532814824381911
  outer loop
    vertex 14.197660960182196 41.00821234112596 9.903475904305457
    vertex 13.450000000000015 35.132373266424686 4.465606480021983
    vertex 14.197660960182196 35.351358091633585 4.246621654813075
  endloop
endfacet
facet normal 0.3826834323650775 -0.6532814824381926 0.6532814824381911
  outer loop
    vertex 13.450000000000015 35.132373266424686 4.465606480021983
    vertex 14.197660960182196 41.00821234112596 9.903475904305457
    vertex 13.450000000000015 40.78922751591708 10.122460729514394
  endloop
endfacet
facet normal 0.13052619222005815 -0.7010573846499786 0.7010573846499761
  outer loop
    vertex 15.000000000000007 41.08290398693838 9.828784258493046
    vertex 14.197660960182196 35.351358091633585 4.246621654813075
    vertex 15.000000000000007 35.42604973744602 4.171930009000658
  endloop
endfacet
facet normal 0.13052619222005815 -0.7010573846499786 0.7010573846499761
  outer loop
    vertex 14.197660960182196 35.351358091633585 4.246621654813075
    vertex 15.000000000000007 41.08290398693838 9.828784258493046
    vertex 14.197660960182196 41.00821234112596 9.903475904305457
  endloop
endfacet
facet normal -0.13052619222004044 -0.7010573846499805 0.7010573846499776
  outer loop
    vertex 15.802339039817822 35.3513580916336 4.2466216548130635
    vertex 15.000000000000007 41.08290398693838 9.828784258493046
    vertex 15.000000000000007 35.42604973744602 4.171930009000658
  endloop
endfacet
facet normal -0.13052619222004044 -0.7010573846499805 0.7010573846499776
  outer loop
    vertex 15.000000000000007 41.08290398693838 9.828784258493046
    vertex 15.802339039817822 35.3513580916336 4.2466216548130635
    vertex 15.802339039817822 41.00821234112597 9.903475904305452
  endloop
endfacet
facet normal -0.3826834323650958 -0.6532814824381874 0.6532814824381857
  outer loop
    vertex 16.550000000000022 35.132373266424686 4.465606480022
    vertex 15.802339039817822 41.00821234112597 9.903475904305452
    vertex 15.802339039817822 35.3513580916336 4.2466216548130635
  endloop
endfacet
facet normal -0.3826834323650958 -0.6532814824381874 0.6532814824381857
  outer loop
    vertex 15.802339039817822 41.00821234112597 9.903475904305452
    vertex 16.550000000000022 35.132373266424686 4.465606480022
    vertex 16.550000000000022 40.78922751591707 10.122460729514394
  endloop
endfacet
facet normal -0.6087614290087298 -0.5609855267969271 0.560985526796925
  outer loop
    vertex 17.192031021678307 40.440872965260084 10.470815280171353
    vertex 16.550000000000022 35.132373266424686 4.465606480022
    vertex 17.192031021678307 34.78401871576772 4.813961030678958
  endloop
endfacet
facet normal -0.6087614290087298 -0.5609855267969271 0.560985526796925
  outer loop
    vertex 16.550000000000022 35.132373266424686 4.465606480022
    vertex 17.192031021678307 40.440872965260084 10.470815280171353
    vertex 16.550000000000022 40.78922751591707 10.122460729514394
  endloop
endfacet
facet normal -0.7933533402912262 -0.4304593345768889 0.43045933457688645
  outer loop
    vertex 17.68467875173177 39.986888476099246 10.924799769332187
    vertex 17.192031021678307 34.78401871576772 4.813961030678958
    vertex 17.68467875173177 34.33003422660687 5.267945519839788
  endloop
endfacet
facet normal -0.7933533402912262 -0.4304593345768889 0.43045933457688645
  outer loop
    vertex 17.192031021678307 34.78401871576772 4.813961030678958
    vertex 17.68467875173177 39.986888476099246 10.924799769332187
    vertex 17.192031021678307 40.440872965260084 10.470815280171353
  endloop
endfacet
facet normal -0.9238795325112857 -0.270598050073101 0.2705980500730995
  outer loop
    vertex 17.994370061496127 39.45821234112595 11.45347590430545
    vertex 17.68467875173177 34.33003422660687 5.267945519839788
    vertex 17.994370061496127 33.80135809163359 5.796621654813052
  endloop
endfacet
facet normal -0.9238795325112857 -0.270598050073101 0.2705980500730995
  outer loop
    vertex 17.68467875173177 34.33003422660687 5.267945519839788
    vertex 17.994370061496127 39.45821234112595 11.45347590430545
    vertex 17.68467875173177 39.986888476099246 10.924799769332187
  endloop
endfacet
facet normal -0.9914448613738116 -0.09229595564125065 0.09229595564125045
  outer loop
    vertex 18.100000000000005 38.89087296526012 12.020815280171336
    vertex 17.994370061496127 33.80135809163359 5.796621654813052
    vertex 18.100000000000005 33.23401871576772 6.363961030678945
  endloop
endfacet
facet normal -0.9914448613738116 -0.09229595564125065 0.09229595564125045
  outer loop
    vertex 17.994370061496127 33.80135809163359 5.796621654813052
    vertex 18.100000000000005 38.89087296526012 12.020815280171336
    vertex 17.994370061496127 39.45821234112595 11.45347590430545
  endloop
endfacet
facet normal -0.9914448613738118 0.09229595564124975 -0.09229595564124991
  outer loop
    vertex 17.994370061496127 38.323533589394245 12.58815465603722
    vertex 18.100000000000005 33.23401871576772 6.363961030678945
    vertex 17.994370061496127 32.666679339901854 6.931300406544831
  endloop
endfacet
facet normal -0.9914448613738118 0.09229595564124975 -0.09229595564124991
  outer loop
    vertex 18.100000000000005 33.23401871576772 6.363961030678945
    vertex 17.994370061496127 38.323533589394245 12.58815465603722
    vertex 18.100000000000005 38.89087296526012 12.020815280171336
  endloop
endfacet
facet normal -0.9238795325112862 0.27059805007309934 -0.27059805007309995
  outer loop
    vertex 17.68467875173177 37.79485745442097 13.116830791010498
    vertex 17.994370061496127 32.666679339901854 6.931300406544831
    vertex 17.68467875173177 32.13800320492856 7.459976541518103
  endloop
endfacet
facet normal -0.9238795325112862 0.27059805007309934 -0.27059805007309995
  outer loop
    vertex 17.994370061496127 32.666679339901854 6.931300406544831
    vertex 17.68467875173177 37.79485745442097 13.116830791010498
    vertex 17.994370061496127 38.323533589394245 12.58815465603722
  endloop
endfacet
facet normal -0.7933533402912172 0.43045933457689667 -0.43045933457689534
  outer loop
    vertex 17.192031021678293 37.34087296526011 13.570815280171344
    vertex 17.68467875173177 32.13800320492856 7.459976541518103
    vertex 17.192031021678293 31.684018715767753 7.9139610306789265
  endloop
endfacet
facet normal -0.7933533402912172 0.43045933457689667 -0.43045933457689534
  outer loop
    vertex 17.68467875173177 32.13800320492856 7.459976541518103
    vertex 17.192031021678293 37.34087296526011 13.570815280171344
    vertex 17.68467875173177 37.79485745442097 13.116830791010498
  endloop
endfacet
facet normal -0.6087614290087224 0.5609855267969329 -0.5609855267969271
  outer loop
    vertex 16.550000000000008 36.992518414603154 13.9191698308283
    vertex 17.192031021678293 31.684018715767753 7.9139610306789265
    vertex 16.550000000000008 31.335664165110792 8.262315581335882
  endloop
endfacet
facet normal -0.6087614290087224 0.5609855267969329 -0.5609855267969271
  outer loop
    vertex 17.192031021678293 31.684018715767753 7.9139610306789265
    vertex 16.550000000000008 36.992518414603154 13.9191698308283
    vertex 17.192031021678293 37.34087296526011 13.570815280171344
  endloop
endfacet
facet normal -0.38268343236509345 0.6532814824381902 -0.6532814824381843
  outer loop
    vertex 15.802339039817822 31.116679339901864 8.481300406544802
    vertex 16.550000000000008 36.992518414603154 13.9191698308283
    vertex 16.550000000000008 31.335664165110792 8.262315581335882
  endloop
endfacet
facet normal -0.38268343236509345 0.6532814824381902 -0.6532814824381843
  outer loop
    vertex 16.550000000000008 36.992518414603154 13.9191698308283
    vertex 15.802339039817822 31.116679339901864 8.481300406544802
    vertex 15.802339039817822 36.77353358939424 14.138154656037218
  endloop
endfacet
facet normal 0.9238795325112833 -0.27059805007310433 -0.27059805007310467
  outer loop
    vertex 12.005629938503883 18.24500890552957 6.931300406544811
    vertex 12.315321248268242 13.116830791010454 13.116830791010448
    vertex 12.005629938503883 12.588154656037187 12.588154656037187
  endloop
endfacet
facet normal 0.9238795325112833 -0.27059805007310433 -0.27059805007310467
  outer loop
    vertex 12.315321248268242 13.116830791010454 13.116830791010448
    vertex 12.005629938503883 18.24500890552957 6.931300406544811
    vertex 12.315321248268242 18.773685040502826 7.45997654151808
  endloop
endfacet
facet normal 0.7933533402912428 -0.4304593345768726 -0.4304593345768727
  outer loop
    vertex 12.315321248268242 18.773685040502826 7.45997654151808
    vertex 12.807968978321696 13.570815280171304 13.5708152801713
    vertex 12.315321248268242 13.116830791010454 13.116830791010448
  endloop
endfacet
facet normal 0.7933533402912428 -0.4304593345768726 -0.4304593345768727
  outer loop
    vertex 12.807968978321696 13.570815280171304 13.5708152801713
    vertex 12.315321248268242 18.773685040502826 7.45997654151808
    vertex 12.807968978321696 19.227669529663675 7.9139610306789265
  endloop
endfacet
facet normal 0.6087614290087235 -0.5609855267969297 -0.5609855267969293
  outer loop
    vertex 12.807968978321696 19.227669529663675 7.9139610306789265
    vertex 13.449999999999992 13.91916983082827 13.919169830828272
    vertex 12.807968978321696 13.570815280171304 13.5708152801713
  endloop
endfacet
facet normal 0.6087614290087235 -0.5609855267969297 -0.5609855267969293
  outer loop
    vertex 13.449999999999992 13.91916983082827 13.919169830828272
    vertex 12.807968978321696 19.227669529663675 7.9139610306789265
    vertex 13.450000000000003 19.576024080320646 8.262315581335896
  endloop
endfacet
facet normal 0.3826834323650937 -0.6532814824381872 -0.653281482438187
  outer loop
    vertex 14.197660960182185 19.79500890552956 8.481300406544822
    vertex 13.449999999999992 13.91916983082827 13.919169830828272
    vertex 13.450000000000003 19.576024080320646 8.262315581335896
  endloop
endfacet
facet normal 0.3826834323650937 -0.6532814824381872 -0.653281482438187
  outer loop
    vertex 13.449999999999992 13.91916983082827 13.919169830828272
    vertex 14.197660960182185 19.79500890552956 8.481300406544822
    vertex 14.197660960182173 14.138154656037178 14.138154656037196
  endloop
endfacet
facet normal 0.13052619222004241 -0.7010573846499782 -0.7010573846499794
  outer loop
    vertex 14.197660960182185 19.79500890552956 8.481300406544822
    vertex 14.999999999999995 14.21284630184959 14.21284630184961
    vertex 14.197660960182173 14.138154656037178 14.138154656037196
  endloop
endfacet
facet normal 0.13052619222004241 -0.7010573846499782 -0.7010573846499794
  outer loop
    vertex 14.999999999999995 14.21284630184959 14.21284630184961
    vertex 14.197660960182185 19.79500890552956 8.481300406544822
    vertex 14.999999999999984 19.869700551341978 8.55599205235723
  endloop
endfacet
facet normal -0.13052619222004386 -0.7010573846499784 -0.7010573846499789
  outer loop
    vertex 15.802339039817822 19.795008905529556 8.48130040654482
    vertex 14.999999999999995 14.21284630184959 14.21284630184961
    vertex 14.999999999999984 19.869700551341978 8.55599205235723
  endloop
endfacet
facet normal -0.13052619222004386 -0.7010573846499784 -0.7010573846499789
  outer loop
    vertex 14.999999999999995 14.21284630184959 14.21284630184961
    vertex 15.802339039817822 19.795008905529556 8.48130040654482
    vertex 15.802339039817811 14.138154656037178 14.138154656037196
  endloop
endfacet
facet normal -0.3826834323650885 -0.6532814824381886 -0.6532814824381887
  outer loop
    vertex 15.802339039817822 19.795008905529556 8.48130040654482
    vertex 16.549999999999997 13.91916983082827 13.919169830828277
    vertex 15.802339039817811 14.138154656037178 14.138154656037196
  endloop
endfacet
facet normal -0.3826834323650885 -0.6532814824381886 -0.6532814824381887
  outer loop
    vertex 16.549999999999997 13.91916983082827 13.919169830828277
    vertex 15.802339039817822 19.795008905529556 8.48130040654482
    vertex 16.549999999999997 19.576024080320646 8.262315581335896
  endloop
endfacet
facet normal -0.6087614290087272 -0.5609855267969274 -0.5609855267969274
  outer loop
    vertex 16.549999999999997 13.91916983082827 13.919169830828277
    vertex 17.192031021678293 19.227669529663665 7.913961030678932
    vertex 17.192031021678282 13.5708152801713 13.570815280171304
  endloop
endfacet
facet normal -0.6087614290087272 -0.5609855267969274 -0.5609855267969274
  outer loop
    vertex 17.192031021678293 19.227669529663665 7.913961030678932
    vertex 16.549999999999997 13.91916983082827 13.919169830828277
    vertex 16.549999999999997 19.576024080320646 8.262315581335896
  endloop
endfacet
facet normal -0.7933533402912316 -0.43045933457688157 -0.43045933457688396
  outer loop
    vertex 17.192031021678282 13.5708152801713 13.570815280171304
    vertex 17.68467875173177 18.77368504050281 7.4599765415180945
    vertex 17.684678751731745 13.116830791010448 13.116830791010448
  endloop
endfacet
facet normal -0.7933533402912316 -0.43045933457688157 -0.43045933457688396
  outer loop
    vertex 17.68467875173177 18.77368504050281 7.4599765415180945
    vertex 17.192031021678282 13.5708152801713 13.570815280171304
    vertex 17.192031021678293 19.227669529663665 7.913961030678932
  endloop
endfacet
facet normal -0.9238795325112825 -0.2705980500731048 -0.270598050073107
  outer loop
    vertex 17.684678751731745 13.116830791010448 13.116830791010448
    vertex 17.994370061496117 18.245008905529563 6.931300406544819
    vertex 17.994370061496117 12.588154656037187 12.588154656037187
  endloop
endfacet
facet normal -0.9238795325112825 -0.2705980500731048 -0.270598050073107
  outer loop
    vertex 17.994370061496117 18.245008905529563 6.931300406544819
    vertex 17.684678751731745 13.116830791010448 13.116830791010448
    vertex 17.68467875173177 18.77368504050281 7.4599765415180945
  endloop
endfacet
facet normal -0.9914448613738127 -0.09229595564124564 -0.09229595564124517
  outer loop
    vertex 17.994370061496117 12.588154656037187 12.588154656037187
    vertex 18.099999999999984 17.677669529663714 6.363961030678945
    vertex 18.099999999999994 12.020815280171309 12.020815280171295
  endloop
endfacet
facet normal -0.9914448613738127 -0.09229595564124564 -0.09229595564124517
  outer loop
    vertex 18.099999999999984 17.677669529663714 6.363961030678945
    vertex 17.994370061496117 12.588154656037187 12.588154656037187
    vertex 17.994370061496117 18.245008905529563 6.931300406544819
  endloop
endfacet
facet normal -0.9914448613738132 0.09229595564124184 0.09229595564124372
  outer loop
    vertex 18.099999999999994 12.020815280171309 12.020815280171295
    vertex 17.994370061496117 17.11033015379781 5.796621654813078
    vertex 17.994370061496117 11.45347590430542 11.45347590430541
  endloop
endfacet
facet normal -0.9914448613738132 0.09229595564124184 0.09229595564124372
  outer loop
    vertex 17.994370061496117 17.11033015379781 5.796621654813078
    vertex 18.099999999999994 12.020815280171309 12.020815280171295
    vertex 18.099999999999984 17.677669529663714 6.363961030678945
  endloop
endfacet
facet normal -0.9238795325112841 0.2705980500731029 0.27059805007310317
  outer loop
    vertex 17.994370061496117 11.45347590430542 11.45347590430541
    vertex 17.68467875173177 16.581654018824537 5.267945519839797
    vertex 17.684678751731745 10.924799769332163 10.924799769332138
  endloop
endfacet
facet normal -0.9238795325112841 0.2705980500731029 0.27059805007310317
  outer loop
    vertex 17.68467875173177 16.581654018824537 5.267945519839797
    vertex 17.994370061496117 11.45347590430542 11.45347590430541
    vertex 17.994370061496117 17.11033015379781 5.796621654813078
  endloop
endfacet
facet normal -0.7933533402912375 0.4304593345768775 0.4304593345768771
  outer loop
    vertex 17.684678751731745 10.924799769332163 10.924799769332138
    vertex 17.192031021678293 16.127669529663677 4.8139610306789296
    vertex 17.192031021678282 10.470815280171301 10.47081528017129
  endloop
endfacet
facet normal -0.7933533402912375 0.4304593345768775 0.4304593345768771
  outer loop
    vertex 17.192031021678293 16.127669529663677 4.8139610306789296
    vertex 17.684678751731745 10.924799769332163 10.924799769332138
    vertex 17.68467875173177 16.581654018824537 5.267945519839797
  endloop
endfacet
facet normal -0.608761429008717 0.5609855267969327 0.5609855267969334
  outer loop
    vertex 17.192031021678282 10.470815280171301 10.47081528017129
    vertex 16.549999999999997 15.779314979006728 4.465606480021961
    vertex 16.549999999999997 10.122460729514344 10.122460729514332
  endloop
endfacet
facet normal -0.608761429008717 0.5609855267969327 0.5609855267969334
  outer loop
    vertex 16.549999999999997 15.779314979006728 4.465606480021961
    vertex 17.192031021678282 10.470815280171301 10.47081528017129
    vertex 17.192031021678293 16.127669529663677 4.8139610306789296
  endloop
endfacet
facet normal -0.3826834323650983 0.653281482438185 0.6532814824381867
  outer loop
    vertex 16.549999999999997 10.122460729514344 10.122460729514332
    vertex 15.802339039817811 15.560330153797802 4.246621654813044
    vertex 15.802339039817811 9.903475904305422 9.903475904305408
  endloop
endfacet
facet normal -0.3826834323650983 0.653281482438185 0.6532814824381867
  outer loop
    vertex 15.802339039817811 15.560330153797802 4.246621654813044
    vertex 16.549999999999997 10.122460729514344 10.122460729514332
    vertex 16.549999999999997 15.779314979006728 4.465606480021961
  endloop
endfacet
facet normal -0.13052619222005155 0.7010573846499769 0.7010573846499789
  outer loop
    vertex 14.999999999999995 9.828784258493005 9.828784258492991
    vertex 15.802339039817811 15.560330153797802 4.246621654813044
    vertex 14.999999999999984 15.485638507985385 4.171930009000621
  endloop
endfacet
facet normal -0.13052619222005155 0.7010573846499769 0.7010573846499789
  outer loop
    vertex 15.802339039817811 15.560330153797802 4.246621654813044
    vertex 14.999999999999995 9.828784258493005 9.828784258492991
    vertex 15.802339039817811 9.903475904305422 9.903475904305408
  endloop
endfacet
facet normal 0.130526192220052 0.7010573846499769 0.7010573846499789
  outer loop
    vertex 14.999999999999995 9.828784258493005 9.828784258492991
    vertex 14.197660960182185 15.560330153797802 4.246621654813044
    vertex 14.197660960182173 9.903475904305424 9.9034759043054
  endloop
endfacet
facet normal 0.130526192220052 0.7010573846499769 0.7010573846499789
  outer loop
    vertex 14.197660960182185 15.560330153797802 4.246621654813044
    vertex 14.999999999999995 9.828784258493005 9.828784258492991
    vertex 14.999999999999984 15.485638507985385 4.171930009000621
  endloop
endfacet
facet normal 0.38268343236509816 0.6532814824381846 0.6532814824381872
  outer loop
    vertex 14.197660960182173 9.903475904305424 9.9034759043054
    vertex 13.449999999999992 15.779314979006728 4.465606480021961
    vertex 13.449999999999992 10.122460729514346 10.122460729514327
  endloop
endfacet
facet normal 0.38268343236509816 0.6532814824381846 0.6532814824381872
  outer loop
    vertex 13.449999999999992 15.779314979006728 4.465606480021961
    vertex 14.197660960182173 9.903475904305424 9.9034759043054
    vertex 14.197660960182185 15.560330153797802 4.246621654813044
  endloop
endfacet
facet normal 0.6087614290087136 0.5609855267969345 0.5609855267969354
  outer loop
    vertex 13.449999999999992 15.779314979006728 4.465606480021961
    vertex 12.807968978321696 10.470815280171312 10.47081528017129
    vertex 13.449999999999992 10.122460729514346 10.122460729514327
  endloop
endfacet
facet normal 0.6087614290087136 0.5609855267969345 0.5609855267969354
  outer loop
    vertex 12.807968978321696 10.470815280171312 10.47081528017129
    vertex 13.449999999999992 15.779314979006728 4.465606480021961
    vertex 12.807968978321696 16.127669529663688 4.813961030678921
  endloop
endfacet
facet normal 0.7933533402912469 0.43045933457686786 0.4304593345768697
  outer loop
    vertex 12.807968978321696 16.127669529663688 4.813961030678921
    vertex 12.315321248268242 10.924799769332163 10.924799769332138
    vertex 12.807968978321696 10.470815280171312 10.47081528017129
  endloop
endfacet
facet normal 0.7933533402912469 0.43045933457686786 0.4304593345768697
  outer loop
    vertex 12.315321248268242 10.924799769332163 10.924799769332138
    vertex 12.807968978321696 16.127669529663688 4.813961030678921
    vertex 12.315321248268242 16.581654018824555 5.267945519839788
  endloop
endfacet
facet normal 0.9238795325112862 0.27059805007309845 0.27059805007310067
  outer loop
    vertex 12.315321248268242 16.581654018824555 5.267945519839788
    vertex 12.005629938503883 11.45347590430543 11.453475904305416
    vertex 12.315321248268242 10.924799769332163 10.924799769332138
  endloop
endfacet
facet normal 0.9238795325112862 0.27059805007309845 0.27059805007310067
  outer loop
    vertex 12.005629938503883 11.45347590430543 11.453475904305416
    vertex 12.315321248268242 16.581654018824555 5.267945519839788
    vertex 12.005629938503883 17.110330153797822 5.796621654813075
  endloop
endfacet
facet normal 0.9914448613738103 0.09229595564125803 0.09229595564125884
  outer loop
    vertex 12.005629938503883 17.110330153797822 5.796621654813075
    vertex 11.899999999999993 12.020815280171304 12.020815280171302
    vertex 12.005629938503883 11.45347590430543 11.453475904305416
  endloop
endfacet
facet normal 0.9914448613738103 0.09229595564125803 0.09229595564125884
  outer loop
    vertex 11.899999999999993 12.020815280171304 12.020815280171302
    vertex 12.005629938503883 17.110330153797822 5.796621654813075
    vertex 11.899999999999993 17.677669529663707 6.363961030678948
  endloop
endfacet
facet normal 0.99144486137381 -0.09229595564125982 -0.09229595564126031
  outer loop
    vertex 11.899999999999993 17.677669529663707 6.363961030678948
    vertex 12.005629938503883 12.588154656037187 12.588154656037187
    vertex 11.899999999999993 12.020815280171304 12.020815280171302
  endloop
endfacet
facet normal 0.99144486137381 -0.09229595564125982 -0.09229595564126031
  outer loop
    vertex 12.005629938503883 12.588154656037187 12.588154656037187
    vertex 11.899999999999993 17.677669529663707 6.363961030678948
    vertex 12.005629938503883 18.24500890552957 6.931300406544811
  endloop
endfacet
facet normal 0.0 -0.7071067811865477 0.7071067811865474
  outer loop
    vertex 18.999999999999993 7.071067811865459 9.899494936611642
    vertex 10.999999999999995 -0.4142135623731144 2.414213562373065
    vertex 18.999999999999993 -0.4142135623731144 2.414213562373065
  endloop
endfacet
facet normal 0.0 -0.7071067811865477 0.7071067811865474
  outer loop
    vertex 10.999999999999995 -0.4142135623731144 2.414213562373065
    vertex 18.999999999999993 7.071067811865459 9.899494936611642
    vertex 10.999999999999995 7.071067811865459 9.899494936611642
  endloop
endfacet
facet normal 1.2365244758843227e-16 0.7071067811865391 0.7071067811865559
  outer loop
    vertex 18.999999999999993 7.071067811865459 9.899494936611642
    vertex 10.999999999999995 8.485281374238566 8.48528137423857
    vertex 10.999999999999995 7.071067811865459 9.899494936611642
  endloop
endfacet
facet normal 1.2365244758843227e-16 0.7071067811865391 0.7071067811865559
  outer loop
    vertex 10.999999999999995 8.485281374238566 8.48528137423857
    vertex 18.999999999999993 7.071067811865459 9.899494936611642
    vertex 18.999999999999993 8.485281374238566 8.485281374238568
  endloop
endfacet
facet normal -2.4730489517686276e-16 -0.707106781186544 -0.707106781186551
  outer loop
    vertex 18.999999999999993 15.55634918610403 15.55634918610405
    vertex 10.999999999999995 14.142135623730939 16.970562748477132
    vertex 10.999999999999995 15.55634918610403 15.556349186104056
  endloop
endfacet
facet normal -2.4730489517686276e-16 -0.707106781186544 -0.707106781186551
  outer loop
    vertex 10.999999999999995 14.142135623730939 16.970562748477132
    vertex 18.999999999999993 15.55634918610403 15.55634918610405
    vertex 18.999999999999993 14.142135623730939 16.970562748477132
  endloop
endfacet
facet normal 1.0 -3.48946099617149e-16 1.046838298851442e-15
  outer loop
    vertex 19.000000000000004 35.35533905932736 15.556349186104061
    vertex 18.999999999999993 29.4576297914498 24.282485578727794
    vertex 18.999999999999993 26.629202666703616 24.282485578727794
  endloop
endfacet
facet normal 1.0 -3.48946099617149e-16 1.046838298851442e-15
  outer loop
    vertex 18.999999999999993 29.4576297914498 24.282485578727794
    vertex 19.000000000000004 35.35533905932736 15.556349186104061
    vertex 19.000000000000004 36.76955262170045 16.970562748477153
  endloop
endfacet
facet normal 5.301114199936775e-31 0.707106781186547 0.7071067811865481
  outer loop
    vertex 10.999999999999995 29.4576297914498 24.282485578727794
    vertex 19.000000000000004 36.76955262170045 16.970562748477153
    vertex 10.999999999999993 36.76955262170045 16.970562748477153
  endloop
endfacet
facet normal 5.301114199936775e-31 0.707106781186547 0.7071067811865481
  outer loop
    vertex 19.000000000000004 36.76955262170045 16.970562748477153
    vertex 10.999999999999995 29.4576297914498 24.282485578727794
    vertex 18.999999999999993 29.4576297914498 24.282485578727794
  endloop
endfacet
facet normal -1.0 -8.723652490428799e-17 2.6170957471285965e-16
  outer loop
    vertex 10.999999999999995 29.4576297914498 24.282485578727794
    vertex 10.999999999999993 35.35533905932736 15.556349186104061
    vertex 10.999999999999995 26.629202666703627 24.282485578727794
  endloop
endfacet
facet normal -1.0 -8.723652490428799e-17 2.6170957471285965e-16
  outer loop
    vertex 10.999999999999993 35.35533905932736 15.556349186104061
    vertex 10.999999999999995 29.4576297914498 24.282485578727794
    vertex 10.999999999999993 36.76955262170045 16.970562748477153
  endloop
endfacet
facet normal -0.0 0.7071067811865489 -0.7071067811865461
  outer loop
    vertex 10.999999999999993 36.76955262170045 16.970562748477153
    vertex 19.000000000000004 35.35533905932736 15.556349186104061
    vertex 10.999999999999993 35.35533905932736 15.556349186104061
  endloop
endfacet
facet normal -0.0 0.7071067811865489 -0.7071067811865461
  outer loop
    vertex 19.000000000000004 35.35533905932736 15.556349186104061
    vertex 10.999999999999993 36.76955262170045 16.970562748477153
    vertex 19.000000000000004 36.76955262170045 16.970562748477153
  endloop
endfacet
facet normal 5.6880125890678035e-16 0.7071067811865467 0.7071067811865483
  outer loop
    vertex 19.000000000000014 43.840620433565896 9.89949493661172
    vertex 11.000000000000012 51.32590180780451 2.4142135623731287
    vertex 11.000000000000004 43.84062043356591 9.899494936611715
  endloop
endfacet
facet normal 5.6880125890678035e-16 0.7071067811865467 0.7071067811865483
  outer loop
    vertex 11.000000000000012 51.32590180780451 2.4142135623731287
    vertex 19.000000000000014 43.840620433565896 9.89949493661172
    vertex 19.000000000000014 51.32590180780451 2.4142135623731216
  endloop
endfacet
facet normal -1.1252372730547138e-15 -0.7071067811865559 0.7071067811865391
  outer loop
    vertex 19.000000000000014 42.42640687119283 8.485281374238618
    vertex 11.000000000000004 43.84062043356591 9.899494936611715
    vertex 11.000000000000004 42.42640687119283 8.48528137423861
  endloop
endfacet
facet normal -1.1252372730547138e-15 -0.7071067811865559 0.7071067811865391
  outer loop
    vertex 11.000000000000004 43.84062043356591 9.899494936611715
    vertex 19.000000000000014 42.42640687119283 8.485281374238618
    vertex 19.000000000000014 43.840620433565896 9.89949493661172
  endloop
endfacet
facet normal -1.0 0.0 0.0
  outer loop
    vertex 10.999999999999995 21.454058453981524 24.28248557872778
    vertex 10.999999999999995 15.55634918610403 15.556349186104056
    vertex 10.999999999999995 14.142135623730939 16.970562748477132
  endloop
endfacet
facet normal -1.0 0.0 0.0
  outer loop
    vertex 10.999999999999995 15.55634918610403 15.556349186104056
    vertex 10.999999999999995 21.454058453981524 24.28248557872778
    vertex 10.999999999999995 24.282485578727723 24.28248557872778
  endloop
endfacet
facet normal 8.786034839291562e-32 -0.7071067811865506 0.7071067811865445
  outer loop
    vertex 18.999999999999993 21.454058453981524 24.28248557872778
    vertex 10.999999999999995 14.142135623730939 16.970562748477132
    vertex 18.999999999999993 14.142135623730939 16.970562748477132
  endloop
endfacet
facet normal 8.786034839291562e-32 -0.7071067811865506 0.7071067811865445
  outer loop
    vertex 10.999999999999995 14.142135623730939 16.970562748477132
    vertex 18.999999999999993 21.454058453981524 24.28248557872778
    vertex 10.999999999999995 21.454058453981524 24.28248557872778
  endloop
endfacet
facet normal 1.0 -0.0 -0.0
  outer loop
    vertex 18.999999999999993 15.55634918610403 15.55634918610405
    vertex 18.999999999999993 21.454058453981524 24.28248557872778
    vertex 18.999999999999993 14.142135623730939 16.970562748477132
  endloop
endfacet
facet normal 1.0 -0.0 -0.0
  outer loop
    vertex 18.999999999999993 21.454058453981524 24.28248557872778
    vertex 18.999999999999993 15.55634918610403 15.55634918610405
    vertex 18.999999999999993 24.282485578727734 24.28248557872778
  endloop
endfacet
facet normal 1.6458948341719186e-16 -1.7314894581090954e-15 1.0
  outer loop
    vertex 30.000000000000043 24.282485578727734 24.28248557872778
    vertex 18.999999999999993 26.629202666703616 24.282485578727794
    vertex 18.999999999999993 24.282485578727734 24.28248557872778
  endloop
endfacet
facet normal 1.6458948341719186e-16 -1.7314894581090954e-15 1.0
  outer loop
    vertex 18.999999999999993 26.629202666703616 24.282485578727794
    vertex 30.000000000000043 24.282485578727734 24.28248557872778
    vertex 30.000000000000043 26.629202666703616 24.282485578727794
  endloop
endfacet
facet normal 1.6458948341719186e-16 -1.7314894581090954e-15 1.0
  outer loop
    vertex 18.999999999999993 21.454058453981524 24.28248557872778
    vertex 10.999999999999995 24.282485578727723 24.28248557872778
    vertex 10.999999999999995 21.454058453981524 24.28248557872778
  endloop
endfacet
facet normal 1.6458948341719186e-16 -1.7314894581090954e-15 1.0
  outer loop
    vertex 10.999999999999995 24.282485578727723 24.28248557872778
    vertex 18.999999999999993 21.454058453981524 24.28248557872778
    vertex 10.999999999999995 26.629202666703627 24.282485578727794
  endloop
endfacet
facet normal 1.6458948341719186e-16 -1.7314894581090954e-15 1.0
  outer loop
    vertex 10.999999999999995 26.629202666703627 24.282485578727794
    vertex 18.999999999999993 21.454058453981524 24.28248557872778
    vertex 10.999999999999995 29.4576297914498 24.282485578727794
  endloop
endfacet
facet normal 1.6458948341719186e-16 -1.7314894581090954e-15 1.0
  outer loop
    vertex 10.999999999999995 29.4576297914498 24.282485578727794
    vertex 18.999999999999993 21.454058453981524 24.28248557872778
    vertex 18.999999999999993 29.4576297914498 24.282485578727794
  endloop
endfacet
facet normal 1.6458948341719186e-16 -1.7314894581090954e-15 1.0
  outer loop
    vertex 18.999999999999993 29.4576297914498 24.282485578727794
    vertex 18.999999999999993 21.454058453981524 24.28248557872778
    vertex 18.999999999999993 24.282485578727734 24.28248557872778
  endloop
endfacet
facet normal 1.6458948341719186e-16 -1.7314894581090954e-15 1.0
  outer loop
    vertex 18.999999999999993 29.4576297914498 24.282485578727794
    vertex 18.999999999999993 24.282485578727734 24.28248557872778
    vertex 18.999999999999993 26.629202666703616 24.282485578727794
  endloop
endfacet
facet normal 1.6458948341719186e-16 -1.7314894581090954e-15 1.0
  outer loop
    vertex 10.999999999999995 24.282485578727723 24.28248557872778
    vertex 1.6919798895287383e-14 26.629202666703627 24.282485578727794
    vertex 1.4099832412739488e-14 24.282485578727734 24.282485578727794
  endloop
endfacet
facet normal 1.6458948341719186e-16 -1.7314894581090954e-15 1.0
  outer loop
    vertex 1.6919798895287383e-14 26.629202666703627 24.282485578727794
    vertex 10.999999999999995 24.282485578727723 24.28248557872778
    vertex 10.999999999999995 26.629202666703627 24.282485578727794
  endloop
endfacet
facet normal 1.0 -0.0 -0.0
  outer loop
    vertex 18.999999999999993 0.9999999999999911 0.9999999999999974
    vertex 18.999999999999993 7.071067811865459 9.899494936611642
    vertex 18.999999999999993 -0.4142135623731144 2.414213562373065
  endloop
endfacet
facet normal 1.0 -0.0 -0.0
  outer loop
    vertex 18.999999999999993 7.071067811865459 9.899494936611642
    vertex 18.999999999999993 0.9999999999999911 0.9999999999999974
    vertex 18.999999999999993 8.485281374238566 8.485281374238568
  endloop
endfacet
facet normal -1.0 0.0 0.0
  outer loop
    vertex 10.999999999999995 7.071067811865459 9.899494936611642
    vertex 10.999999999999995 0.9999999999999883 0.9999999999999974
    vertex 10.999999999999995 -0.4142135623731144 2.414213562373065
  endloop
endfacet
facet normal -1.0 0.0 0.0
  outer loop
    vertex 10.999999999999995 0.9999999999999883 0.9999999999999974
    vertex 10.999999999999995 7.071067811865459 9.899494936611642
    vertex 10.999999999999995 8.485281374238566 8.48528137423857
  endloop
endfacet
facet normal -1.0 7.672626198614293e-16 -2.687582642293245e-16
  outer loop
    vertex 11.000000000000004 43.84062043356591 9.899494936611715
    vertex 11.00000000000001 49.91168824543139 1.000000000000003
    vertex 11.000000000000004 42.42640687119283 8.48528137423861
  endloop
endfacet
facet normal -1.0 7.672626198614293e-16 -2.687582642293245e-16
  outer loop
    vertex 11.00000000000001 49.91168824543139 1.000000000000003
    vertex 11.000000000000004 43.84062043356591 9.899494936611715
    vertex 11.000000000000012 51.32590180780451 2.4142135623731287
  endloop
endfacet
facet normal 1.0 -0.0 -0.0
  outer loop
    vertex 19.000000000000014 49.91168824543139 1.000000000000003
    vertex 19.000000000000014 43.840620433565896 9.89949493661172
    vertex 19.000000000000014 42.42640687119283 8.485281374238618
  endloop
endfacet
facet normal 1.0 -0.0 -0.0
  outer loop
    vertex 19.000000000000014 43.840620433565896 9.89949493661172
    vertex 19.000000000000014 49.91168824543139 1.000000000000003
    vertex 19.000000000000014 51.32590180780451 2.4142135623731216
  endloop
endfacet
facet normal 1.2365244758842916e-16 -0.7071067811865385 -0.7071067811865566
  outer loop
    vertex 18.999999999999993 0.9999999999999911 0.9999999999999974
    vertex 10.999999999999995 -0.4142135623731144 2.414213562373065
    vertex 10.999999999999995 0.9999999999999883 0.9999999999999974
  endloop
endfacet
facet normal 1.2365244758842916e-16 -0.7071067811865385 -0.7071067811865566
  outer loop
    vertex 10.999999999999995 -0.4142135623731144 2.414213562373065
    vertex 18.999999999999993 0.9999999999999911 0.9999999999999974
    vertex 18.999999999999993 -0.4142135623731144 2.414213562373065
  endloop
endfacet
facet normal -3.0294849659165477e-16 0.7071067811865478 -0.7071067811865474
  outer loop
    vertex 11.000000000000012 51.32590180780451 2.4142135623731287
    vertex 19.000000000000014 49.91168824543139 1.000000000000003
    vertex 11.00000000000001 49.91168824543139 1.000000000000003
  endloop
endfacet
facet normal -3.0294849659165477e-16 0.7071067811865478 -0.7071067811865474
  outer loop
    vertex 19.000000000000014 49.91168824543139 1.000000000000003
    vertex 11.000000000000012 51.32590180780451 2.4142135623731287
    vertex 19.000000000000014 51.32590180780451 2.4142135623731216
  endloop
endfacet
facet normal 1.954013986582608e-16 0.7071067811865488 -0.7071067811865464
  outer loop
    vertex 6.000000000000026 11.313708498984758 0.0
    vertex 14.197660960182185 15.560330153797802 4.246621654813044
    vertex 14.999999999999984 15.485638507985385 4.171930009000621
  endloop
endfacet
facet normal 1.954013986582608e-16 0.7071067811865488 -0.7071067811865464
  outer loop
    vertex 14.197660960182185 15.560330153797802 4.246621654813044
    vertex 6.000000000000026 11.313708498984758 0.0
    vertex 13.449999999999992 15.779314979006728 4.465606480021961
  endloop
endfacet
facet normal 1.954013986582608e-16 0.7071067811865488 -0.7071067811865464
  outer loop
    vertex 13.449999999999992 15.779314979006728 4.465606480021961
    vertex 6.000000000000026 11.313708498984758 0.0
    vertex 12.807968978321696 16.127669529663688 4.813961030678921
  endloop
endfacet
facet normal 1.954013986582608e-16 0.7071067811865488 -0.7071067811865464
  outer loop
    vertex 12.807968978321696 16.127669529663688 4.813961030678921
    vertex 6.000000000000026 11.313708498984758 0.0
    vertex 12.315321248268242 16.581654018824555 5.267945519839788
  endloop
endfacet
facet normal 1.954013986582608e-16 0.7071067811865488 -0.7071067811865464
  outer loop
    vertex 12.315321248268242 16.581654018824555 5.267945519839788
    vertex 6.000000000000026 11.313708498984758 0.0
    vertex 6.000000000000026 25.4558441227157 14.142135623730987
  endloop
endfacet
facet normal 1.954013986582608e-16 0.7071067811865488 -0.7071067811865464
  outer loop
    vertex 12.315321248268242 16.581654018824555 5.267945519839788
    vertex 6.000000000000026 25.4558441227157 14.142135623730987
    vertex 12.005629938503883 17.110330153797822 5.796621654813075
  endloop
endfacet
facet normal 1.954013986582608e-16 0.7071067811865488 -0.7071067811865464
  outer loop
    vertex 12.005629938503883 17.110330153797822 5.796621654813075
    vertex 6.000000000000026 25.4558441227157 14.142135623730987
    vertex 11.899999999999993 17.677669529663707 6.363961030678948
  endloop
endfacet
facet normal 1.954013986582608e-16 0.7071067811865488 -0.7071067811865464
  outer loop
    vertex 11.899999999999993 17.677669529663707 6.363961030678948
    vertex 6.000000000000026 25.4558441227157 14.142135623730987
    vertex 12.005629938503883 18.24500890552957 6.931300406544811
  endloop
endfacet
facet normal 1.954013986582608e-16 0.7071067811865488 -0.7071067811865464
  outer loop
    vertex 12.005629938503883 18.24500890552957 6.931300406544811
    vertex 6.000000000000026 25.4558441227157 14.142135623730987
    vertex 12.315321248268242 18.773685040502826 7.45997654151808
  endloop
endfacet
facet normal 1.954013986582608e-16 0.7071067811865488 -0.7071067811865464
  outer loop
    vertex 12.315321248268242 18.773685040502826 7.45997654151808
    vertex 6.000000000000026 25.4558441227157 14.142135623730987
    vertex 12.807968978321696 19.227669529663675 7.9139610306789265
  endloop
endfacet
facet normal 1.954013986582608e-16 0.7071067811865488 -0.7071067811865464
  outer loop
    vertex 12.807968978321696 19.227669529663675 7.9139610306789265
    vertex 6.000000000000026 25.4558441227157 14.142135623730987
    vertex 13.450000000000003 19.576024080320646 8.262315581335896
  endloop
endfacet
facet normal 1.954013986582608e-16 0.7071067811865488 -0.7071067811865464
  outer loop
    vertex 13.450000000000003 19.576024080320646 8.262315581335896
    vertex 6.000000000000026 25.4558441227157 14.142135623730987
    vertex 14.197660960182185 19.79500890552956 8.481300406544822
  endloop
endfacet
facet normal 1.954013986582608e-16 0.7071067811865488 -0.7071067811865464
  outer loop
    vertex 14.197660960182185 19.79500890552956 8.481300406544822
    vertex 6.000000000000026 25.4558441227157 14.142135623730987
    vertex 14.999999999999984 19.869700551341978 8.55599205235723
  endloop
endfacet
facet normal 1.954013986582608e-16 0.7071067811865488 -0.7071067811865464
  outer loop
    vertex 24.000000000000046 11.313708498984758 -1.4099832412739487e-15
    vertex 17.68467875173177 16.581654018824537 5.267945519839797
    vertex 24.000000000000046 25.45584412271569 14.142135623730987
  endloop
endfacet
facet normal 1.954013986582608e-16 0.7071067811865488 -0.7071067811865464
  outer loop
    vertex 17.68467875173177 16.581654018824537 5.267945519839797
    vertex 24.000000000000046 11.313708498984758 -1.4099832412739487e-15
    vertex 17.192031021678293 16.127669529663677 4.8139610306789296
  endloop
endfacet
facet normal 1.954013986582608e-16 0.7071067811865488 -0.7071067811865464
  outer loop
    vertex 17.192031021678293 16.127669529663677 4.8139610306789296
    vertex 24.000000000000046 11.313708498984758 -1.4099832412739487e-15
    vertex 16.549999999999997 15.779314979006728 4.465606480021961
  endloop
endfacet
facet normal 1.954013986582608e-16 0.7071067811865488 -0.7071067811865464
  outer loop
    vertex 16.549999999999997 15.779314979006728 4.465606480021961
    vertex 24.000000000000046 11.313708498984758 -1.4099832412739487e-15
    vertex 6.000000000000026 11.313708498984758 0.0
  endloop
endfacet
facet normal 1.954013986582608e-16 0.7071067811865488 -0.7071067811865464
  outer loop
    vertex 16.549999999999997 15.779314979006728 4.465606480021961
    vertex 6.000000000000026 11.313708498984758 0.0
    vertex 15.802339039817811 15.560330153797802 4.246621654813044
  endloop
endfacet
facet normal 1.954013986582608e-16 0.7071067811865488 -0.7071067811865464
  outer loop
    vertex 15.802339039817811 15.560330153797802 4.246621654813044
    vertex 6.000000000000026 11.313708498984758 0.0
    vertex 14.999999999999984 15.485638507985385 4.171930009000621
  endloop
endfacet
facet normal 1.954013986582608e-16 0.7071067811865488 -0.7071067811865464
  outer loop
    vertex 24.000000000000046 25.45584412271569 14.142135623730987
    vertex 17.68467875173177 16.581654018824537 5.267945519839797
    vertex 17.994370061496117 17.11033015379781 5.796621654813078
  endloop
endfacet
facet normal 1.954013986582608e-16 0.7071067811865488 -0.7071067811865464
  outer loop
    vertex 24.000000000000046 25.45584412271569 14.142135623730987
    vertex 17.994370061496117 17.11033015379781 5.796621654813078
    vertex 18.099999999999984 17.677669529663714 6.363961030678945
  endloop
endfacet
facet normal 1.954013986582608e-16 0.7071067811865488 -0.7071067811865464
  outer loop
    vertex 24.000000000000046 25.45584412271569 14.142135623730987
    vertex 18.099999999999984 17.677669529663714 6.363961030678945
    vertex 17.994370061496117 18.245008905529563 6.931300406544819
  endloop
endfacet
facet normal 1.954013986582608e-16 0.7071067811865488 -0.7071067811865464
  outer loop
    vertex 24.000000000000046 25.45584412271569 14.142135623730987
    vertex 17.994370061496117 18.245008905529563 6.931300406544819
    vertex 17.68467875173177 18.77368504050281 7.4599765415180945
  endloop
endfacet
facet normal 1.954013986582608e-16 0.7071067811865488 -0.7071067811865464
  outer loop
    vertex 24.000000000000046 25.45584412271569 14.142135623730987
    vertex 17.68467875173177 18.77368504050281 7.4599765415180945
    vertex 17.192031021678293 19.227669529663665 7.913961030678932
  endloop
endfacet
facet normal 1.954013986582608e-16 0.7071067811865488 -0.7071067811865464
  outer loop
    vertex 24.000000000000046 25.45584412271569 14.142135623730987
    vertex 17.192031021678293 19.227669529663665 7.913961030678932
    vertex 16.549999999999997 19.576024080320646 8.262315581335896
  endloop
endfacet
facet normal 1.954013986582608e-16 0.7071067811865488 -0.7071067811865464
  outer loop
    vertex 24.000000000000046 25.45584412271569 14.142135623730987
    vertex 16.549999999999997 19.576024080320646 8.262315581335896
    vertex 15.802339039817822 19.795008905529556 8.48130040654482
  endloop
endfacet
facet normal 1.954013986582608e-16 0.7071067811865488 -0.7071067811865464
  outer loop
    vertex 24.000000000000046 25.45584412271569 14.142135623730987
    vertex 15.802339039817822 19.795008905529556 8.48130040654482
    vertex 14.999999999999984 19.869700551341978 8.55599205235723
  endloop
endfacet
facet normal 1.954013986582608e-16 0.7071067811865488 -0.7071067811865464
  outer loop
    vertex 24.000000000000046 25.45584412271569 14.142135623730987
    vertex 14.999999999999984 19.869700551341978 8.55599205235723
    vertex 6.000000000000026 25.4558441227157 14.142135623730987
  endloop
endfacet
facet normal 1.0 -3.988034845056784e-16 3.988034845056772e-16
  outer loop
    vertex 6.000000000000037 39.59797974644669 1.4099832412739487e-15
    vertex 6.000000000000026 25.4558441227157 14.142135623730987
    vertex 6.000000000000026 11.313708498984758 0.0
  endloop
endfacet
facet normal -1.0 0.0 0.0
  outer loop
    vertex 24.000000000000046 39.59797974644669 -1.4099832412739487e-15
    vertex 24.000000000000046 11.313708498984758 -1.4099832412739487e-15
    vertex 24.000000000000046 25.45584412271569 14.142135623730987
  endloop
endfacet
facet normal -2.931020979873908e-16 -0.7071067811865475 -0.7071067811865477
  outer loop
    vertex 6.000000000000037 39.59797974644669 1.4099832412739487e-15
    vertex 12.005629938503892 33.80135809163359 5.796621654813052
    vertex 11.899999999999991 33.234018715767725 6.3639610306789365
  endloop
endfacet
facet normal -2.931020979873908e-16 -0.7071067811865475 -0.7071067811865477
  outer loop
    vertex 12.005629938503892 33.80135809163359 5.796621654813052
    vertex 6.000000000000037 39.59797974644669 1.4099832412739487e-15
    vertex 12.31532124826825 34.33003422660687 5.267945519839788
  endloop
endfacet
facet normal -2.931020979873908e-16 -0.7071067811865475 -0.7071067811865477
  outer loop
    vertex 12.31532124826825 34.33003422660687 5.267945519839788
    vertex 6.000000000000037 39.59797974644669 1.4099832412739487e-15
    vertex 12.807968978321696 34.78401871576772 4.813961030678958
  endloop
endfacet
facet normal -2.931020979873908e-16 -0.7071067811865475 -0.7071067811865477
  outer loop
    vertex 12.807968978321696 34.78401871576772 4.813961030678958
    vertex 6.000000000000037 39.59797974644669 1.4099832412739487e-15
    vertex 13.450000000000015 35.132373266424686 4.465606480021983
  endloop
endfacet
facet normal -2.931020979873908e-16 -0.7071067811865475 -0.7071067811865477
  outer loop
    vertex 13.450000000000015 35.132373266424686 4.465606480021983
    vertex 6.000000000000037 39.59797974644669 1.4099832412739487e-15
    vertex 24.000000000000046 39.59797974644669 -1.4099832412739487e-15
  endloop
endfacet
facet normal -2.931020979873908e-16 -0.7071067811865475 -0.7071067811865477
  outer loop
    vertex 13.450000000000015 35.132373266424686 4.465606480021983
    vertex 24.000000000000046 39.59797974644669 -1.4099832412739487e-15
    vertex 14.197660960182196 35.351358091633585 4.246621654813075
  endloop
endfacet
facet normal -2.931020979873908e-16 -0.7071067811865475 -0.7071067811865477
  outer loop
    vertex 14.197660960182196 35.351358091633585 4.246621654813075
    vertex 24.000000000000046 39.59797974644669 -1.4099832412739487e-15
    vertex 15.000000000000007 35.42604973744602 4.171930009000658
  endloop
endfacet
facet normal -2.931020979873908e-16 -0.7071067811865475 -0.7071067811865477
  outer loop
    vertex 15.000000000000007 35.42604973744602 4.171930009000658
    vertex 24.000000000000046 39.59797974644669 -1.4099832412739487e-15
    vertex 15.802339039817822 35.3513580916336 4.2466216548130635
  endloop
endfacet
facet normal -2.931020979873908e-16 -0.7071067811865475 -0.7071067811865477
  outer loop
    vertex 15.802339039817822 35.3513580916336 4.2466216548130635
    vertex 24.000000000000046 39.59797974644669 -1.4099832412739487e-15
    vertex 16.550000000000022 35.132373266424686 4.465606480022
  endloop
endfacet
facet normal -2.931020979873908e-16 -0.7071067811865475 -0.7071067811865477
  outer loop
    vertex 16.550000000000022 35.132373266424686 4.465606480022
    vertex 24.000000000000046 39.59797974644669 -1.4099832412739487e-15
    vertex 17.192031021678307 34.78401871576772 4.813961030678958
  endloop
endfacet
facet normal -2.931020979873908e-16 -0.7071067811865475 -0.7071067811865477
  outer loop
    vertex 17.192031021678307 34.78401871576772 4.813961030678958
    vertex 24.000000000000046 39.59797974644669 -1.4099832412739487e-15
    vertex 17.68467875173177 34.33003422660687 5.267945519839788
  endloop
endfacet
facet normal -2.931020979873908e-16 -0.7071067811865475 -0.7071067811865477
  outer loop
    vertex 17.68467875173177 34.33003422660687 5.267945519839788
    vertex 24.000000000000046 39.59797974644669 -1.4099832412739487e-15
    vertex 17.994370061496127 33.80135809163359 5.796621654813052
  endloop
endfacet
facet normal -2.931020979873908e-16 -0.7071067811865475 -0.7071067811865477
  outer loop
    vertex 17.994370061496127 33.80135809163359 5.796621654813052
    vertex 24.000000000000046 39.59797974644669 -1.4099832412739487e-15
    vertex 18.100000000000005 33.23401871576772 6.363961030678945
  endloop
endfacet
facet normal -2.931020979873908e-16 -0.7071067811865475 -0.7071067811865477
  outer loop
    vertex 6.000000000000026 25.4558441227157 14.142135623730987
    vertex 12.807968978321707 31.684018715767763 7.913961030678921
    vertex 24.000000000000046 25.45584412271569 14.142135623730987
  endloop
endfacet
facet normal -2.931020979873908e-16 -0.7071067811865475 -0.7071067811865477
  outer loop
    vertex 12.807968978321707 31.684018715767763 7.913961030678921
    vertex 6.000000000000026 25.4558441227157 14.142135623730987
    vertex 12.315321248268239 32.13800320492858 7.459976541518097
  endloop
endfacet
facet normal -2.931020979873908e-16 -0.7071067811865475 -0.7071067811865477
  outer loop
    vertex 12.315321248268239 32.13800320492858 7.459976541518097
    vertex 6.000000000000026 25.4558441227157 14.142135623730987
    vertex 6.000000000000037 39.59797974644669 1.4099832412739487e-15
  endloop
endfacet
facet normal -2.931020979873908e-16 -0.7071067811865475 -0.7071067811865477
  outer loop
    vertex 12.315321248268239 32.13800320492858 7.459976541518097
    vertex 6.000000000000037 39.59797974644669 1.4099832412739487e-15
    vertex 12.005629938503892 32.666679339901854 6.931300406544828
  endloop
endfacet
facet normal -2.931020979873908e-16 -0.7071067811865475 -0.7071067811865477
  outer loop
    vertex 12.005629938503892 32.666679339901854 6.931300406544828
    vertex 6.000000000000037 39.59797974644669 1.4099832412739487e-15
    vertex 11.899999999999991 33.234018715767725 6.3639610306789365
  endloop
endfacet
facet normal -2.931020979873908e-16 -0.7071067811865475 -0.7071067811865477
  outer loop
    vertex 24.000000000000046 25.45584412271569 14.142135623730987
    vertex 12.807968978321707 31.684018715767763 7.913961030678921
    vertex 13.450000000000003 31.335664165110803 8.262315581335878
  endloop
endfacet
facet normal -2.931020979873908e-16 -0.7071067811865475 -0.7071067811865477
  outer loop
    vertex 24.000000000000046 25.45584412271569 14.142135623730987
    vertex 13.450000000000003 31.335664165110803 8.262315581335878
    vertex 14.197660960182185 31.116679339901864 8.481300406544802
  endloop
endfacet
facet normal -2.931020979873908e-16 -0.7071067811865475 -0.7071067811865477
  outer loop
    vertex 24.000000000000046 25.45584412271569 14.142135623730987
    vertex 14.197660960182185 31.116679339901864 8.481300406544802
    vertex 14.999999999999995 31.041987694089467 8.55599205235723
  endloop
endfacet
facet normal -2.931020979873908e-16 -0.7071067811865475 -0.7071067811865477
  outer loop
    vertex 24.000000000000046 25.45584412271569 14.142135623730987
    vertex 14.999999999999995 31.041987694089467 8.55599205235723
    vertex 15.802339039817822 31.116679339901864 8.481300406544802
  endloop
endfacet
facet normal -2.931020979873908e-16 -0.7071067811865475 -0.7071067811865477
  outer loop
    vertex 24.000000000000046 25.45584412271569 14.142135623730987
    vertex 15.802339039817822 31.116679339901864 8.481300406544802
    vertex 16.550000000000008 31.335664165110792 8.262315581335882
  endloop
endfacet
facet normal -2.931020979873908e-16 -0.7071067811865475 -0.7071067811865477
  outer loop
    vertex 24.000000000000046 25.45584412271569 14.142135623730987
    vertex 16.550000000000008 31.335664165110792 8.262315581335882
    vertex 17.192031021678293 31.684018715767753 7.9139610306789265
  endloop
endfacet
facet normal -2.931020979873908e-16 -0.7071067811865475 -0.7071067811865477
  outer loop
    vertex 24.000000000000046 25.45584412271569 14.142135623730987
    vertex 17.192031021678293 31.684018715767753 7.9139610306789265
    vertex 17.68467875173177 32.13800320492856 7.459976541518103
  endloop
endfacet
facet normal -2.931020979873908e-16 -0.7071067811865475 -0.7071067811865477
  outer loop
    vertex 24.000000000000046 25.45584412271569 14.142135623730987
    vertex 17.68467875173177 32.13800320492856 7.459976541518103
    vertex 17.994370061496127 32.666679339901854 6.931300406544831
  endloop
endfacet
facet normal -2.931020979873908e-16 -0.7071067811865475 -0.7071067811865477
  outer loop
    vertex 24.000000000000046 25.45584412271569 14.142135623730987
    vertex 17.994370061496127 32.666679339901854 6.931300406544831
    vertex 18.100000000000005 33.23401871576772 6.363961030678945
  endloop
endfacet
facet normal -2.931020979873908e-16 -0.7071067811865475 -0.7071067811865477
  outer loop
    vertex 24.000000000000046 25.45584412271569 14.142135623730987
    vertex 18.100000000000005 33.23401871576772 6.363961030678945
    vertex 24.000000000000046 39.59797974644669 -1.4099832412739487e-15
  endloop
endfacet
facet normal -1.0 3.8312334477502154e-16 2.37251355322661e-16
  outer loop
    vertex 1.4099832412739488e-14 24.282485578727734 24.282485578727794
    vertex 1.930953846881108e-14 49.91168824543139 1.0000000000000027
    vertex 6.624903215488481e-16 0.9999999999999978 0.9999999999999999
  endloop
endfacet
facet normal -1.0 3.8312334477502154e-16 2.37251355322661e-16
  outer loop
    vertex 1.930953846881108e-14 49.91168824543139 1.0000000000000027
    vertex 1.4099832412739488e-14 24.282485578727734 24.282485578727794
    vertex 1.6919798895287383e-14 26.629202666703627 24.282485578727794
  endloop
endfacet
facet normal 1.5396413707508851e-16 0.7071067811865477 0.7071067811865475
  outer loop
    vertex 1.6919798895287383e-14 26.629202666703627 24.282485578727794
    vertex 11.00000000000001 49.91168824543139 1.000000000000003
    vertex 1.930953846881108e-14 49.91168824543139 1.0000000000000027
  endloop
endfacet
facet normal 1.5396413707508851e-16 0.7071067811865477 0.7071067811865475
  outer loop
    vertex 11.00000000000001 49.91168824543139 1.000000000000003
    vertex 1.6919798895287383e-14 26.629202666703627 24.282485578727794
    vertex 11.000000000000004 42.42640687119283 8.48528137423861
  endloop
endfacet
facet normal 1.5396413707508851e-16 0.7071067811865477 0.7071067811865475
  outer loop
    vertex 11.000000000000004 42.42640687119283 8.48528137423861
    vertex 1.6919798895287383e-14 26.629202666703627 24.282485578727794
    vertex 12.31532124826825 39.986888476099246 10.924799769332187
  endloop
endfacet
facet normal 1.5396413707508851e-16 0.7071067811865477 0.7071067811865475
  outer loop
    vertex 11.000000000000004 42.42640687119283 8.48528137423861
    vertex 12.31532124826825 39.986888476099246 10.924799769332187
    vertex 12.807968978321696 40.440872965260084 10.470815280171353
  endloop
endfacet
facet normal 1.5396413707508851e-16 0.7071067811865477 0.7071067811865475
  outer loop
    vertex 11.000000000000004 42.42640687119283 8.48528137423861
    vertex 12.807968978321696 40.440872965260084 10.470815280171353
    vertex 13.450000000000015 40.78922751591708 10.122460729514394
  endloop
endfacet
facet normal 1.5396413707508851e-16 0.7071067811865477 0.7071067811865475
  outer loop
    vertex 11.000000000000004 42.42640687119283 8.48528137423861
    vertex 13.450000000000015 40.78922751591708 10.122460729514394
    vertex 19.000000000000014 42.42640687119283 8.485281374238618
  endloop
endfacet
facet normal 1.5396413707508851e-16 0.7071067811865477 0.7071067811865475
  outer loop
    vertex 19.000000000000014 42.42640687119283 8.485281374238618
    vertex 13.450000000000015 40.78922751591708 10.122460729514394
    vertex 14.197660960182196 41.00821234112596 9.903475904305457
  endloop
endfacet
facet normal 1.5396413707508851e-16 0.7071067811865477 0.7071067811865475
  outer loop
    vertex 19.000000000000014 42.42640687119283 8.485281374238618
    vertex 14.197660960182196 41.00821234112596 9.903475904305457
    vertex 15.000000000000007 41.08290398693838 9.828784258493046
  endloop
endfacet
facet normal 1.5396413707508851e-16 0.7071067811865477 0.7071067811865475
  outer loop
    vertex 12.31532124826825 39.986888476099246 10.924799769332187
    vertex 1.6919798895287383e-14 26.629202666703627 24.282485578727794
    vertex 12.005629938503892 39.45821234112595 11.45347590430545
  endloop
endfacet
facet normal 1.5396413707508851e-16 0.7071067811865477 0.7071067811865475
  outer loop
    vertex 12.005629938503892 39.45821234112595 11.45347590430545
    vertex 1.6919798895287383e-14 26.629202666703627 24.282485578727794
    vertex 11.899999999999991 38.89087296526012 12.020815280171329
  endloop
endfacet
facet normal 1.5396413707508851e-16 0.7071067811865477 0.7071067811865475
  outer loop
    vertex 11.899999999999991 38.89087296526012 12.020815280171329
    vertex 1.6919798895287383e-14 26.629202666703627 24.282485578727794
    vertex 12.005629938503892 38.323533589394266 12.588154656037226
  endloop
endfacet
facet normal 1.5396413707508851e-16 0.7071067811865477 0.7071067811865475
  outer loop
    vertex 12.005629938503892 38.323533589394266 12.588154656037226
    vertex 1.6919798895287383e-14 26.629202666703627 24.282485578727794
    vertex 12.315321248268239 37.79485745442097 13.116830791010477
  endloop
endfacet
facet normal 1.5396413707508851e-16 0.7071067811865477 0.7071067811865475
  outer loop
    vertex 12.315321248268239 37.79485745442097 13.116830791010477
    vertex 1.6919798895287383e-14 26.629202666703627 24.282485578727794
    vertex 12.807968978321707 37.340872965260125 13.570815280171338
  endloop
endfacet
facet normal 1.5396413707508851e-16 0.7071067811865477 0.7071067811865475
  outer loop
    vertex 12.807968978321707 37.340872965260125 13.570815280171338
    vertex 1.6919798895287383e-14 26.629202666703627 24.282485578727794
    vertex 10.999999999999993 35.35533905932736 15.556349186104061
  endloop
endfacet
facet normal 1.5396413707508851e-16 0.7071067811865477 0.7071067811865475
  outer loop
    vertex 12.807968978321707 37.340872965260125 13.570815280171338
    vertex 10.999999999999993 35.35533905932736 15.556349186104061
    vertex 13.450000000000003 36.99251841460316 13.91916983082829
  endloop
endfacet
facet normal 1.5396413707508851e-16 0.7071067811865477 0.7071067811865475
  outer loop
    vertex 13.450000000000003 36.99251841460316 13.91916983082829
    vertex 10.999999999999993 35.35533905932736 15.556349186104061
    vertex 14.197660960182185 36.77353358939424 14.138154656037218
  endloop
endfacet
facet normal 1.5396413707508851e-16 0.7071067811865477 0.7071067811865475
  outer loop
    vertex 14.197660960182185 36.77353358939424 14.138154656037218
    vertex 10.999999999999993 35.35533905932736 15.556349186104061
    vertex 14.999999999999995 36.698841943581805 14.212846301849632
  endloop
endfacet
facet normal 1.5396413707508851e-16 0.7071067811865477 0.7071067811865475
  outer loop
    vertex 10.999999999999993 35.35533905932736 15.556349186104061
    vertex 1.6919798895287383e-14 26.629202666703627 24.282485578727794
    vertex 10.999999999999995 26.629202666703627 24.282485578727794
  endloop
endfacet
facet normal 1.5396413707508851e-16 0.7071067811865477 0.7071067811865475
  outer loop
    vertex 19.000000000000014 49.91168824543139 1.000000000000003
    vertex 30.000000000000043 26.629202666703616 24.282485578727794
    vertex 30.00000000000003 49.91168824543139 0.9999999999999999
  endloop
endfacet
facet normal 1.5396413707508851e-16 0.7071067811865477 0.7071067811865475
  outer loop
    vertex 30.000000000000043 26.629202666703616 24.282485578727794
    vertex 19.000000000000014 49.91168824543139 1.000000000000003
    vertex 19.000000000000014 42.42640687119283 8.485281374238618
  endloop
endfacet
facet normal 1.5396413707508851e-16 0.7071067811865477 0.7071067811865475
  outer loop
    vertex 30.000000000000043 26.629202666703616 24.282485578727794
    vertex 19.000000000000014 42.42640687119283 8.485281374238618
    vertex 17.68467875173177 39.986888476099246 10.924799769332187
  endloop
endfacet
facet normal 1.5396413707508851e-16 0.7071067811865477 0.7071067811865475
  outer loop
    vertex 17.68467875173177 39.986888476099246 10.924799769332187
    vertex 19.000000000000014 42.42640687119283 8.485281374238618
    vertex 17.192031021678307 40.440872965260084 10.470815280171353
  endloop
endfacet
facet normal 1.5396413707508851e-16 0.7071067811865477 0.7071067811865475
  outer loop
    vertex 17.192031021678307 40.440872965260084 10.470815280171353
    vertex 19.000000000000014 42.42640687119283 8.485281374238618
    vertex 16.550000000000022 40.78922751591707 10.122460729514394
  endloop
endfacet
facet normal 1.5396413707508851e-16 0.7071067811865477 0.7071067811865475
  outer loop
    vertex 16.550000000000022 40.78922751591707 10.122460729514394
    vertex 19.000000000000014 42.42640687119283 8.485281374238618
    vertex 15.802339039817822 41.00821234112597 9.903475904305452
  endloop
endfacet
facet normal 1.5396413707508851e-16 0.7071067811865477 0.7071067811865475
  outer loop
    vertex 15.802339039817822 41.00821234112597 9.903475904305452
    vertex 19.000000000000014 42.42640687119283 8.485281374238618
    vertex 15.000000000000007 41.08290398693838 9.828784258493046
  endloop
endfacet
facet normal 1.5396413707508851e-16 0.7071067811865477 0.7071067811865475
  outer loop
    vertex 30.000000000000043 26.629202666703616 24.282485578727794
    vertex 17.68467875173177 39.986888476099246 10.924799769332187
    vertex 17.994370061496127 39.45821234112595 11.45347590430545
  endloop
endfacet
facet normal 1.5396413707508851e-16 0.7071067811865477 0.7071067811865475
  outer loop
    vertex 30.000000000000043 26.629202666703616 24.282485578727794
    vertex 17.994370061496127 39.45821234112595 11.45347590430545
    vertex 18.100000000000005 38.89087296526012 12.020815280171336
  endloop
endfacet
facet normal 1.5396413707508851e-16 0.7071067811865477 0.7071067811865475
  outer loop
    vertex 30.000000000000043 26.629202666703616 24.282485578727794
    vertex 18.100000000000005 38.89087296526012 12.020815280171336
    vertex 17.994370061496127 38.323533589394245 12.58815465603722
  endloop
endfacet
facet normal 1.5396413707508851e-16 0.7071067811865477 0.7071067811865475
  outer loop
    vertex 30.000000000000043 26.629202666703616 24.282485578727794
    vertex 17.994370061496127 38.323533589394245 12.58815465603722
    vertex 17.68467875173177 37.79485745442097 13.116830791010498
  endloop
endfacet
facet normal 1.5396413707508851e-16 0.7071067811865477 0.7071067811865475
  outer loop
    vertex 30.000000000000043 26.629202666703616 24.282485578727794
    vertex 17.68467875173177 37.79485745442097 13.116830791010498
    vertex 17.192031021678293 37.34087296526011 13.570815280171344
  endloop
endfacet
facet normal 1.5396413707508851e-16 0.7071067811865477 0.7071067811865475
  outer loop
    vertex 30.000000000000043 26.629202666703616 24.282485578727794
    vertex 17.192031021678293 37.34087296526011 13.570815280171344
    vertex 19.000000000000004 35.35533905932736 15.556349186104061
  endloop
endfacet
facet normal 1.5396413707508851e-16 0.7071067811865477 0.7071067811865475
  outer loop
    vertex 19.000000000000004 35.35533905932736 15.556349186104061
    vertex 17.192031021678293 37.34087296526011 13.570815280171344
    vertex 16.550000000000008 36.992518414603154 13.9191698308283
  endloop
endfacet
facet normal 1.5396413707508851e-16 0.7071067811865477 0.7071067811865475
  outer loop
    vertex 19.000000000000004 35.35533905932736 15.556349186104061
    vertex 16.550000000000008 36.992518414603154 13.9191698308283
    vertex 15.802339039817822 36.77353358939424 14.138154656037218
  endloop
endfacet
facet normal 1.5396413707508851e-16 0.7071067811865477 0.7071067811865475
  outer loop
    vertex 19.000000000000004 35.35533905932736 15.556349186104061
    vertex 15.802339039817822 36.77353358939424 14.138154656037218
    vertex 14.999999999999995 36.698841943581805 14.212846301849632
  endloop
endfacet
facet normal 1.5396413707508851e-16 0.7071067811865477 0.7071067811865475
  outer loop
    vertex 19.000000000000004 35.35533905932736 15.556349186104061
    vertex 14.999999999999995 36.698841943581805 14.212846301849632
    vertex 10.999999999999993 35.35533905932736 15.556349186104061
  endloop
endfacet
facet normal 1.5396413707508851e-16 0.7071067811865477 0.7071067811865475
  outer loop
    vertex 30.000000000000043 26.629202666703616 24.282485578727794
    vertex 19.000000000000004 35.35533905932736 15.556349186104061
    vertex 18.999999999999993 26.629202666703616 24.282485578727794
  endloop
endfacet
facet normal 1.0 2.3008733217702767e-16 -2.422392981206764e-16
  outer loop
    vertex 30.00000000000003 49.91168824543139 0.9999999999999999
    vertex 30.000000000000043 24.282485578727734 24.28248557872778
    vertex 30.000000000000043 0.9999999999999992 0.9999999999999971
  endloop
endfacet
facet normal 1.0 2.3008733217702767e-16 -2.422392981206764e-16
  outer loop
    vertex 30.000000000000043 24.282485578727734 24.28248557872778
    vertex 30.00000000000003 49.91168824543139 0.9999999999999999
    vertex 30.000000000000043 26.629202666703616 24.282485578727794
  endloop
endfacet
facet normal 2.5250118480314523e-16 -0.7071067811865482 0.7071067811865468
  outer loop
    vertex 30.000000000000043 24.282485578727734 24.28248557872778
    vertex 18.999999999999993 0.9999999999999911 0.9999999999999974
    vertex 30.000000000000043 0.9999999999999992 0.9999999999999971
  endloop
endfacet
facet normal 2.5250118480314523e-16 -0.7071067811865482 0.7071067811865468
  outer loop
    vertex 18.999999999999993 0.9999999999999911 0.9999999999999974
    vertex 30.000000000000043 24.282485578727734 24.28248557872778
    vertex 18.999999999999993 8.485281374238566 8.485281374238568
  endloop
endfacet
facet normal 2.5250118480314523e-16 -0.7071067811865482 0.7071067811865468
  outer loop
    vertex 18.999999999999993 8.485281374238566 8.485281374238568
    vertex 30.000000000000043 24.282485578727734 24.28248557872778
    vertex 17.684678751731745 10.924799769332163 10.924799769332138
  endloop
endfacet
facet normal 2.5250118480314523e-16 -0.7071067811865482 0.7071067811865468
  outer loop
    vertex 18.999999999999993 8.485281374238566 8.485281374238568
    vertex 17.684678751731745 10.924799769332163 10.924799769332138
    vertex 17.192031021678282 10.470815280171301 10.47081528017129
  endloop
endfacet
facet normal 2.5250118480314523e-16 -0.7071067811865482 0.7071067811865468
  outer loop
    vertex 18.999999999999993 8.485281374238566 8.485281374238568
    vertex 17.192031021678282 10.470815280171301 10.47081528017129
    vertex 16.549999999999997 10.122460729514344 10.122460729514332
  endloop
endfacet
facet normal 2.5250118480314523e-16 -0.7071067811865482 0.7071067811865468
  outer loop
    vertex 18.999999999999993 8.485281374238566 8.485281374238568
    vertex 16.549999999999997 10.122460729514344 10.122460729514332
    vertex 10.999999999999995 8.485281374238566 8.48528137423857
  endloop
endfacet
facet normal 2.5250118480314523e-16 -0.7071067811865482 0.7071067811865468
  outer loop
    vertex 10.999999999999995 8.485281374238566 8.48528137423857
    vertex 16.549999999999997 10.122460729514344 10.122460729514332
    vertex 15.802339039817811 9.903475904305422 9.903475904305408
  endloop
endfacet
facet normal 2.5250118480314523e-16 -0.7071067811865482 0.7071067811865468
  outer loop
    vertex 10.999999999999995 8.485281374238566 8.48528137423857
    vertex 15.802339039817811 9.903475904305422 9.903475904305408
    vertex 14.999999999999995 9.828784258493005 9.828784258492991
  endloop
endfacet
facet normal 2.5250118480314523e-16 -0.7071067811865482 0.7071067811865468
  outer loop
    vertex 17.684678751731745 10.924799769332163 10.924799769332138
    vertex 30.000000000000043 24.282485578727734 24.28248557872778
    vertex 17.994370061496117 11.45347590430542 11.45347590430541
  endloop
endfacet
facet normal 2.5250118480314523e-16 -0.7071067811865482 0.7071067811865468
  outer loop
    vertex 17.994370061496117 11.45347590430542 11.45347590430541
    vertex 30.000000000000043 24.282485578727734 24.28248557872778
    vertex 18.099999999999994 12.020815280171309 12.020815280171295
  endloop
endfacet
facet normal 2.5250118480314523e-16 -0.7071067811865482 0.7071067811865468
  outer loop
    vertex 18.099999999999994 12.020815280171309 12.020815280171295
    vertex 30.000000000000043 24.282485578727734 24.28248557872778
    vertex 17.994370061496117 12.588154656037187 12.588154656037187
  endloop
endfacet
facet normal 2.5250118480314523e-16 -0.7071067811865482 0.7071067811865468
  outer loop
    vertex 17.994370061496117 12.588154656037187 12.588154656037187
    vertex 30.000000000000043 24.282485578727734 24.28248557872778
    vertex 17.684678751731745 13.116830791010448 13.116830791010448
  endloop
endfacet
facet normal 2.5250118480314523e-16 -0.7071067811865482 0.7071067811865468
  outer loop
    vertex 17.684678751731745 13.116830791010448 13.116830791010448
    vertex 30.000000000000043 24.282485578727734 24.28248557872778
    vertex 17.192031021678282 13.5708152801713 13.570815280171304
  endloop
endfacet
facet normal 2.5250118480314523e-16 -0.7071067811865482 0.7071067811865468
  outer loop
    vertex 17.192031021678282 13.5708152801713 13.570815280171304
    vertex 30.000000000000043 24.282485578727734 24.28248557872778
    vertex 18.999999999999993 15.55634918610403 15.55634918610405
  endloop
endfacet
facet normal 2.5250118480314523e-16 -0.7071067811865482 0.7071067811865468
  outer loop
    vertex 17.192031021678282 13.5708152801713 13.570815280171304
    vertex 18.999999999999993 15.55634918610403 15.55634918610405
    vertex 16.549999999999997 13.91916983082827 13.919169830828277
  endloop
endfacet
facet normal 2.5250118480314523e-16 -0.7071067811865482 0.7071067811865468
  outer loop
    vertex 16.549999999999997 13.91916983082827 13.919169830828277
    vertex 18.999999999999993 15.55634918610403 15.55634918610405
    vertex 15.802339039817811 14.138154656037178 14.138154656037196
  endloop
endfacet
facet normal 2.5250118480314523e-16 -0.7071067811865482 0.7071067811865468
  outer loop
    vertex 15.802339039817811 14.138154656037178 14.138154656037196
    vertex 18.999999999999993 15.55634918610403 15.55634918610405
    vertex 14.999999999999995 14.21284630184959 14.21284630184961
  endloop
endfacet
facet normal 2.5250118480314523e-16 -0.7071067811865482 0.7071067811865468
  outer loop
    vertex 18.999999999999993 15.55634918610403 15.55634918610405
    vertex 30.000000000000043 24.282485578727734 24.28248557872778
    vertex 18.999999999999993 24.282485578727734 24.28248557872778
  endloop
endfacet
facet normal 2.5250118480314523e-16 -0.7071067811865482 0.7071067811865468
  outer loop
    vertex 10.999999999999995 8.485281374238566 8.48528137423857
    vertex 6.624903215488481e-16 0.9999999999999978 0.9999999999999999
    vertex 10.999999999999995 0.9999999999999883 0.9999999999999974
  endloop
endfacet
facet normal 2.5250118480314523e-16 -0.7071067811865482 0.7071067811865468
  outer loop
    vertex 6.624903215488481e-16 0.9999999999999978 0.9999999999999999
    vertex 10.999999999999995 8.485281374238566 8.48528137423857
    vertex 1.4099832412739488e-14 24.282485578727734 24.282485578727794
  endloop
endfacet
facet normal 2.5250118480314523e-16 -0.7071067811865482 0.7071067811865468
  outer loop
    vertex 1.4099832412739488e-14 24.282485578727734 24.282485578727794
    vertex 10.999999999999995 8.485281374238566 8.48528137423857
    vertex 12.315321248268242 10.924799769332163 10.924799769332138
  endloop
endfacet
facet normal 2.5250118480314523e-16 -0.7071067811865482 0.7071067811865468
  outer loop
    vertex 12.315321248268242 10.924799769332163 10.924799769332138
    vertex 10.999999999999995 8.485281374238566 8.48528137423857
    vertex 12.807968978321696 10.470815280171312 10.47081528017129
  endloop
endfacet
facet normal 2.5250118480314523e-16 -0.7071067811865482 0.7071067811865468
  outer loop
    vertex 12.807968978321696 10.470815280171312 10.47081528017129
    vertex 10.999999999999995 8.485281374238566 8.48528137423857
    vertex 13.449999999999992 10.122460729514346 10.122460729514327
  endloop
endfacet
facet normal 2.5250118480314523e-16 -0.7071067811865482 0.7071067811865468
  outer loop
    vertex 13.449999999999992 10.122460729514346 10.122460729514327
    vertex 10.999999999999995 8.485281374238566 8.48528137423857
    vertex 14.197660960182173 9.903475904305424 9.9034759043054
  endloop
endfacet
facet normal 2.5250118480314523e-16 -0.7071067811865482 0.7071067811865468
  outer loop
    vertex 14.197660960182173 9.903475904305424 9.9034759043054
    vertex 10.999999999999995 8.485281374238566 8.48528137423857
    vertex 14.999999999999995 9.828784258493005 9.828784258492991
  endloop
endfacet
facet normal 2.5250118480314523e-16 -0.7071067811865482 0.7071067811865468
  outer loop
    vertex 1.4099832412739488e-14 24.282485578727734 24.282485578727794
    vertex 12.315321248268242 10.924799769332163 10.924799769332138
    vertex 12.005629938503883 11.45347590430543 11.453475904305416
  endloop
endfacet
facet normal 2.5250118480314523e-16 -0.7071067811865482 0.7071067811865468
  outer loop
    vertex 1.4099832412739488e-14 24.282485578727734 24.282485578727794
    vertex 12.005629938503883 11.45347590430543 11.453475904305416
    vertex 11.899999999999993 12.020815280171304 12.020815280171302
  endloop
endfacet
facet normal 2.5250118480314523e-16 -0.7071067811865482 0.7071067811865468
  outer loop
    vertex 1.4099832412739488e-14 24.282485578727734 24.282485578727794
    vertex 11.899999999999993 12.020815280171304 12.020815280171302
    vertex 12.005629938503883 12.588154656037187 12.588154656037187
  endloop
endfacet
facet normal 2.5250118480314523e-16 -0.7071067811865482 0.7071067811865468
  outer loop
    vertex 1.4099832412739488e-14 24.282485578727734 24.282485578727794
    vertex 12.005629938503883 12.588154656037187 12.588154656037187
    vertex 12.315321248268242 13.116830791010454 13.116830791010448
  endloop
endfacet
facet normal 2.5250118480314523e-16 -0.7071067811865482 0.7071067811865468
  outer loop
    vertex 1.4099832412739488e-14 24.282485578727734 24.282485578727794
    vertex 12.315321248268242 13.116830791010454 13.116830791010448
    vertex 12.807968978321696 13.570815280171304 13.5708152801713
  endloop
endfacet
facet normal 2.5250118480314523e-16 -0.7071067811865482 0.7071067811865468
  outer loop
    vertex 1.4099832412739488e-14 24.282485578727734 24.282485578727794
    vertex 12.807968978321696 13.570815280171304 13.5708152801713
    vertex 10.999999999999995 15.55634918610403 15.556349186104056
  endloop
endfacet
facet normal 2.5250118480314523e-16 -0.7071067811865482 0.7071067811865468
  outer loop
    vertex 10.999999999999995 15.55634918610403 15.556349186104056
    vertex 12.807968978321696 13.570815280171304 13.5708152801713
    vertex 13.449999999999992 13.91916983082827 13.919169830828272
  endloop
endfacet
facet normal 2.5250118480314523e-16 -0.7071067811865482 0.7071067811865468
  outer loop
    vertex 10.999999999999995 15.55634918610403 15.556349186104056
    vertex 13.449999999999992 13.91916983082827 13.919169830828272
    vertex 14.197660960182173 14.138154656037178 14.138154656037196
  endloop
endfacet
facet normal 2.5250118480314523e-16 -0.7071067811865482 0.7071067811865468
  outer loop
    vertex 10.999999999999995 15.55634918610403 15.556349186104056
    vertex 14.197660960182173 14.138154656037178 14.138154656037196
    vertex 14.999999999999995 14.21284630184959 14.21284630184961
  endloop
endfacet
facet normal 2.5250118480314523e-16 -0.7071067811865482 0.7071067811865468
  outer loop
    vertex 10.999999999999995 15.55634918610403 15.556349186104056
    vertex 14.999999999999995 14.21284630184959 14.21284630184961
    vertex 18.999999999999993 15.55634918610403 15.55634918610405
  endloop
endfacet
facet normal 2.5250118480314523e-16 -0.7071067811865482 0.7071067811865468
  outer loop
    vertex 1.4099832412739488e-14 24.282485578727734 24.282485578727794
    vertex 10.999999999999995 15.55634918610403 15.556349186104056
    vertex 10.999999999999995 24.282485578727723 24.28248557872778
  endloop
endfacet
facet normal 0.7071067811865481 2.0388505180002585e-16 -0.707106781186547
  outer loop
    vertex 29.000000000000043 1.414213562373094 -2.633664786411592e-15
    vertex 30.00000000000003 49.91168824543139 0.9999999999999999
    vertex 30.000000000000043 0.9999999999999992 0.9999999999999971
  endloop
endfacet
facet normal 0.7071067811865481 2.0388505180002585e-16 -0.707106781186547
  outer loop
    vertex 30.00000000000003 49.91168824543139 0.9999999999999999
    vertex 29.000000000000043 1.414213562373094 -2.633664786411592e-15
    vertex 29.000000000000032 49.4974746830583 2.9636891550311426e-17
  endloop
endfacet
facet normal -0.7071067811865477 3.1423867719673933e-16 -0.7071067811865475
  outer loop
    vertex 1.930953846881108e-14 49.91168824543139 1.0000000000000027
    vertex 1.0000000000000002 1.4142135623730925 -2.963689155031162e-17
    vertex 6.624903215488481e-16 0.9999999999999978 0.9999999999999999
  endloop
endfacet
facet normal -0.7071067811865477 3.1423867719673933e-16 -0.7071067811865475
  outer loop
    vertex 1.0000000000000002 1.4142135623730925 -2.963689155031162e-17
    vertex 1.930953846881108e-14 49.91168824543139 1.0000000000000027
    vertex 1.0000000000000193 49.4974746830583 2.6336647864115915e-15
  endloop
endfacet
facet normal -3.45790869844529e-17 0.9238795325112871 -0.3826834323650893
  outer loop
    vertex 1.0000000000000193 49.4974746830583 2.6336647864115915e-15
    vertex 30.00000000000003 49.91168824543139 0.9999999999999999
    vertex 29.000000000000032 49.4974746830583 2.9636891550311426e-17
  endloop
endfacet
facet normal -3.45790869844529e-17 0.9238795325112871 -0.3826834323650893
  outer loop
    vertex 30.00000000000003 49.91168824543139 0.9999999999999999
    vertex 1.0000000000000193 49.4974746830583 2.6336647864115915e-15
    vertex 1.930953846881108e-14 49.91168824543139 1.0000000000000027
  endloop
endfacet
facet normal -3.45790869844529e-17 0.9238795325112871 -0.3826834323650893
  outer loop
    vertex 30.00000000000003 49.91168824543139 0.9999999999999999
    vertex 1.930953846881108e-14 49.91168824543139 1.0000000000000027
    vertex 19.000000000000014 49.91168824543139 1.000000000000003
  endloop
endfacet
facet normal -3.45790869844529e-17 0.9238795325112871 -0.3826834323650893
  outer loop
    vertex 19.000000000000014 49.91168824543139 1.000000000000003
    vertex 1.930953846881108e-14 49.91168824543139 1.0000000000000027
    vertex 11.00000000000001 49.91168824543139 1.000000000000003
  endloop
endfacet
facet normal -8.598205313221202e-17 5.5389372848010993e-17 -1.0
  outer loop
    vertex 1.0000000000000193 49.4974746830583 2.6336647864115915e-15
    vertex 6.000000000000037 39.59797974644669 1.4099832412739487e-15
    vertex 6.000000000000026 11.313708498984758 0.0
  endloop
endfacet
facet normal -8.598205313221202e-17 5.5389372848010993e-17 -1.0
  outer loop
    vertex 6.000000000000037 39.59797974644669 1.4099832412739487e-15
    vertex 1.0000000000000193 49.4974746830583 2.6336647864115915e-15
    vertex 29.000000000000032 49.4974746830583 2.9636891550311426e-17
  endloop
endfacet
facet normal -8.598205313221202e-17 5.5389372848010993e-17 -1.0
  outer loop
    vertex 6.000000000000037 39.59797974644669 1.4099832412739487e-15
    vertex 29.000000000000032 49.4974746830583 2.9636891550311426e-17
    vertex 24.000000000000046 39.59797974644669 -1.4099832412739487e-15
  endloop
endfacet
facet normal -8.598205313221202e-17 5.5389372848010993e-17 -1.0
  outer loop
    vertex 24.000000000000046 39.59797974644669 -1.4099832412739487e-15
    vertex 29.000000000000032 49.4974746830583 2.9636891550311426e-17
    vertex 24.000000000000046 11.313708498984758 -1.4099832412739487e-15
  endloop
endfacet
facet normal -8.598205313221202e-17 5.5389372848010993e-17 -1.0
  outer loop
    vertex 1.0000000000000002 1.4142135623730925 -2.963689155031162e-17
    vertex 6.000000000000026 11.313708498984758 0.0
    vertex 29.000000000000043 1.414213562373094 -2.633664786411592e-15
  endloop
endfacet
facet normal -8.598205313221202e-17 5.5389372848010993e-17 -1.0
  outer loop
    vertex 6.000000000000026 11.313708498984758 0.0
    vertex 1.0000000000000002 1.4142135623730925 -2.963689155031162e-17
    vertex 1.0000000000000193 49.4974746830583 2.6336647864115915e-15
  endloop
endfacet
facet normal -8.598205313221202e-17 5.5389372848010993e-17 -1.0
  outer loop
    vertex 29.000000000000043 1.414213562373094 -2.633664786411592e-15
    vertex 6.000000000000026 11.313708498984758 0.0
    vertex 24.000000000000046 11.313708498984758 -1.4099832412739487e-15
  endloop
endfacet
facet normal -8.598205313221202e-17 5.5389372848010993e-17 -1.0
  outer loop
    vertex 29.000000000000043 1.414213562373094 -2.633664786411592e-15
    vertex 24.000000000000046 11.313708498984758 -1.4099832412739487e-15
    vertex 29.000000000000032 49.4974746830583 2.9636891550311426e-17
  endloop
endfacet
facet normal 2.14776937791633e-19 -0.9238795325112862 -0.38268343236509156
  outer loop
    vertex 30.000000000000043 0.9999999999999992 0.9999999999999971
    vertex 1.0000000000000002 1.4142135623730925 -2.963689155031162e-17
    vertex 29.000000000000043 1.414213562373094 -2.633664786411592e-15
  endloop
endfacet
facet normal 2.14776937791633e-19 -0.9238795325112862 -0.38268343236509156
  outer loop
    vertex 1.0000000000000002 1.4142135623730925 -2.963689155031162e-17
    vertex 30.000000000000043 0.9999999999999992 0.9999999999999971
    vertex 10.999999999999995 0.9999999999999883 0.9999999999999974
  endloop
endfacet
facet normal 2.14776937791633e-19 -0.9238795325112862 -0.38268343236509156
  outer loop
    vertex 1.0000000000000002 1.4142135623730925 -2.963689155031162e-17
    vertex 10.999999999999995 0.9999999999999883 0.9999999999999974
    vertex 6.624903215488481e-16 0.9999999999999978 0.9999999999999999
  endloop
endfacet
facet normal 2.14776937791633e-19 -0.9238795325112862 -0.38268343236509156
  outer loop
    vertex 10.999999999999995 0.9999999999999883 0.9999999999999974
    vertex 30.000000000000043 0.9999999999999992 0.9999999999999971
    vertex 18.999999999999993 0.9999999999999911 0.9999999999999974
  endloop
endfacet
endsolid corner-coupler_v2
