solid LCD_SupportB
facet normal 0.7071067811865478 -0.7071067811865472 0.0
  outer loop
    vertex 23.54085860776016 13.54085860776017 9.973122440662246e-16
    vertex 13.535533905932736 3.5355339059327386 10.000000000000002
    vertex 13.535533905932736 3.5355339059327386 9.978398278426018e-16
  endloop
endfacet
facet normal 0.7071067811865478 -0.7071067811865472 0.0
  outer loop
    vertex 13.535533905932736 3.5355339059327386 10.000000000000002
    vertex 23.54085860776016 13.54085860776017 9.973122440662246e-16
    vertex 23.54085860776016 13.54085860776017 10.000000000000002
  endloop
endfacet
facet normal 0.9238795325112873 -0.3826834323650888 0.0
  outer loop
    vertex 38.128561319579845 29.07590477448741 9.978398278426018e-16
    vertex 37.6290592070567 27.870000000000008 10.000000000000002
    vertex 37.6290592070567 27.870000000000008 9.978398278426018e-16
  endloop
endfacet
facet normal 0.9238795325112873 -0.3826834323650888 0.0
  outer loop
    vertex 37.6290592070567 27.870000000000008 10.000000000000002
    vertex 38.128561319579845 29.07590477448741 9.978398278426018e-16
    vertex 38.128561319579845 29.07590477448741 10.000000000000002
  endloop
endfacet
facet normal 0.22094238269039063 0.975286862174967 0.0
  outer loop
    vertex 6.914565621984245 60.119529603528356 10.000000000000002
    vertex 8.473671727453763 59.76632827254624 9.978398278426018e-16
    vertex 6.914565621984245 60.119529603528356 9.978398278426018e-16
  endloop
endfacet
facet normal 0.22094238269039063 0.975286862174967 0.0
  outer loop
    vertex 8.473671727453763 59.76632827254624 9.978398278426018e-16
    vertex 6.914565621984245 60.119529603528356 10.000000000000002
    vertex 8.473671727453763 59.76632827254624 10.000000000000002
  endloop
endfacet
facet normal -0.0 -1.0 -0.0
  outer loop
    vertex 6.999999999999998 51.99999999999999 10.000000000000002
    vertex 3.0 51.99999999999999 9.978398278426018e-16
    vertex 6.999999999999998 51.99999999999999 9.978398278426018e-16
  endloop
endfacet
facet normal -0.0 -1.0 -0.0
  outer loop
    vertex 3.0 51.99999999999999 9.978398278426018e-16
    vertex 6.999999999999998 51.99999999999999 10.000000000000002
    vertex 3.0 51.99999999999999 10.000000000000002
  endloop
endfacet
facet normal -0.7071067811865481 0.7071067811865469 0.0
  outer loop
    vertex 34.00603896932106 20.470505063388337 10.000000000000002
    vertex 30.68263709774429 17.147103191811564 3.817806310390499e-15
    vertex 30.68263709774429 17.147103191811564 10.000000000000002
  endloop
endfacet
facet normal -0.7071067811865481 0.7071067811865469 0.0
  outer loop
    vertex 30.68263709774429 17.147103191811564 3.817806310390499e-15
    vertex 34.00603896932106 20.470505063388337 10.000000000000002
    vertex 34.00603896932106 20.470505063388337 3.817806310390499e-15
  endloop
endfacet
facet normal 0.6445533419641216 0.7645593432578547 8.394226264027677e-18
  outer loop
    vertex 12.47367172745376 12.044739539319245 3.7235454264733874e-15
    vertex 13.035533905932734 11.57106781186548 10.000000000000005
    vertex 13.035533905932734 11.57106781186548 3.611734603674826e-15
  endloop
endfacet
facet normal 0.6445533419641216 0.7645593432578547 8.394226264027677e-18
  outer loop
    vertex 13.035533905932734 11.57106781186548 10.000000000000005
    vertex 12.47367172745376 12.044739539319245 3.7235454264733874e-15
    vertex 12.47367172745376 12.044739539319243 10.000000000000005
  endloop
endfacet
facet normal 3.961995244356737e-32 -4.059100909168849e-32 1.0
  outer loop
    vertex 28.349184719828678 8.449689783217025 10.000000000000002
    vertex 25.308625560726522 11.773091654793795 10.000000000000002
    vertex 21.985223689149752 8.449689783217025 10.000000000000002
  endloop
endfacet
facet normal 3.961995244356737e-32 -4.059100909168849e-32 1.0
  outer loop
    vertex 28.349184719828678 8.449689783217025 10.000000000000002
    vertex 30.68263709774429 17.147103191811564 10.000000000000002
    vertex 28.914870144777918 18.914870144777936 10.000000000000002
  endloop
endfacet
facet normal 3.961995244356737e-32 -4.059100909168849e-32 1.0
  outer loop
    vertex 30.68263709774429 17.147103191811564 10.000000000000002
    vertex 28.349184719828678 8.449689783217025 10.000000000000002
    vertex 34.00603896932106 14.106544032709408 10.000000000000002
  endloop
endfacet
facet normal 3.961995244356737e-32 -4.059100909168849e-32 1.0
  outer loop
    vertex 30.68263709774429 17.147103191811564 10.000000000000002
    vertex 34.00603896932106 14.106544032709408 10.000000000000002
    vertex 34.00603896932106 20.470505063388337 10.000000000000002
  endloop
endfacet
facet normal 3.961995244356737e-32 -4.059100909168849e-32 1.0
  outer loop
    vertex 6.999999999999998 51.99999999999999 10.000000000000002
    vertex 3.0 58.599999999999994 10.000000000000002
    vertex 3.0 51.99999999999999 10.000000000000002
  endloop
endfacet
facet normal 3.961995244356737e-32 -4.059100909168849e-32 1.0
  outer loop
    vertex 3.0 58.599999999999994 10.000000000000002
    vertex 6.999999999999998 51.99999999999999 10.000000000000002
    vertex 5.5 60.239999999999995 10.000000000000002
  endloop
endfacet
facet normal 3.961995244356737e-32 -4.059100909168849e-32 1.0
  outer loop
    vertex 5.5 60.239999999999995 10.000000000000002
    vertex 6.999999999999998 51.99999999999999 10.000000000000002
    vertex 6.914565621984245 60.119529603528356 10.000000000000002
  endloop
endfacet
facet normal 3.961995244356737e-32 -4.059100909168849e-32 1.0
  outer loop
    vertex 6.914565621984245 60.119529603528356 10.000000000000002
    vertex 6.999999999999998 51.99999999999999 10.000000000000002
    vertex 8.473671727453763 59.76632827254624 10.000000000000002
  endloop
endfacet
facet normal 3.961995244356737e-32 -4.059100909168849e-32 1.0
  outer loop
    vertex 8.473671727453763 59.76632827254624 10.000000000000002
    vertex 6.999999999999998 51.99999999999999 10.000000000000002
    vertex 7.973671727453765 0.4736717274537647 10.000000000000002
  endloop
endfacet
facet normal 3.961995244356737e-32 -4.059100909168849e-32 1.0
  outer loop
    vertex 8.473671727453763 59.76632827254624 10.000000000000002
    vertex 7.973671727453765 0.4736717274537647 10.000000000000002
    vertex 9.571067811865476 1.0355339059327375 10.000000000000002
  endloop
endfacet
facet normal 3.961995244356737e-32 -4.059100909168849e-32 1.0
  outer loop
    vertex 8.473671727453763 59.76632827254624 10.000000000000002
    vertex 9.571067811865476 1.0355339059327375 10.000000000000002
    vertex 10.071067811865474 59.20446609406726 10.000000000000002
  endloop
endfacet
facet normal 3.961995244356737e-32 -4.059100909168849e-32 1.0
  outer loop
    vertex 10.071067811865474 59.20446609406726 10.000000000000002
    vertex 9.571067811865476 1.0355339059327375 10.000000000000002
    vertex 11.097893971888562 1.7677669529663693 10.000000000000002
  endloop
endfacet
facet normal 3.961995244356737e-32 -4.059100909168849e-32 1.0
  outer loop
    vertex 10.071067811865474 59.20446609406726 10.000000000000002
    vertex 11.097893971888562 1.7677669529663693 10.000000000000002
    vertex 11.59789397188856 58.47223304703363 10.000000000000002
  endloop
endfacet
facet normal 3.961995244356737e-32 -4.059100909168849e-32 1.0
  outer loop
    vertex 11.59789397188856 58.47223304703363 10.000000000000002
    vertex 11.097893971888562 1.7677669529663693 10.000000000000002
    vertex 11.999999999999996 14.07106781186548 10.000000000000005
  endloop
endfacet
facet normal 3.961995244356737e-32 -4.059100909168849e-32 1.0
  outer loop
    vertex 11.999999999999996 14.07106781186548 10.000000000000005
    vertex 11.097893971888562 1.7677669529663693 10.000000000000002
    vertex 12.450099527916981 2.6204703964716414 10.000000000000002
  endloop
endfacet
facet normal 3.961995244356737e-32 -4.059100909168849e-32 1.0
  outer loop
    vertex 11.999999999999996 14.07106781186548 10.000000000000005
    vertex 12.450099527916981 2.6204703964716414 10.000000000000002
    vertex 12.120470396471637 12.897442982824517 10.000000000000005
  endloop
endfacet
facet normal 3.961995244356737e-32 -4.059100909168849e-32 1.0
  outer loop
    vertex 12.120470396471637 12.897442982824517 10.000000000000005
    vertex 12.450099527916981 2.6204703964716414 10.000000000000002
    vertex 12.47367172745376 12.044739539319243 10.000000000000005
  endloop
endfacet
facet normal 3.961995244356737e-32 -4.059100909168849e-32 1.0
  outer loop
    vertex 12.47367172745376 12.044739539319243 10.000000000000005
    vertex 12.450099527916981 2.6204703964716414 10.000000000000002
    vertex 13.535533905932736 3.5355339059327386 10.000000000000002
  endloop
endfacet
facet normal 3.961995244356737e-32 -4.059100909168849e-32 1.0
  outer loop
    vertex 12.47367172745376 12.044739539319243 10.000000000000005
    vertex 13.535533905932736 3.5355339059327386 10.000000000000002
    vertex 13.035533905932734 11.57106781186548 10.000000000000005
  endloop
endfacet
facet normal 3.961995244356737e-32 -4.059100909168849e-32 1.0
  outer loop
    vertex 13.035533905932734 11.57106781186548 10.000000000000005
    vertex 13.535533905932736 3.5355339059327386 10.000000000000002
    vertex 13.767766952966369 11.508707745909655 10.000000000000005
  endloop
endfacet
facet normal 3.961995244356737e-32 -4.059100909168849e-32 1.0
  outer loop
    vertex 13.767766952966369 11.508707745909655 10.000000000000005
    vertex 13.535533905932736 3.5355339059327386 10.000000000000002
    vertex 23.54085860776016 13.54085860776017 10.000000000000002
  endloop
endfacet
facet normal 3.961995244356737e-32 -4.059100909168849e-32 1.0
  outer loop
    vertex 13.767766952966369 11.508707745909655 10.000000000000005
    vertex 23.54085860776016 13.54085860776017 10.000000000000002
    vertex 14.620470396471639 11.861909076891779 10.000000000000005
  endloop
endfacet
facet normal 3.961995244356737e-32 -4.059100909168849e-32 1.0
  outer loop
    vertex 14.620470396471639 11.861909076891779 10.000000000000005
    vertex 23.54085860776016 13.54085860776017 10.000000000000002
    vertex 15.535533905932738 12.606601717798219 10.000000000000005
  endloop
endfacet
facet normal 3.961995244356737e-32 -4.059100909168849e-32 1.0
  outer loop
    vertex 15.535533905932738 12.606601717798219 10.000000000000005
    vertex 23.54085860776016 13.54085860776017 10.000000000000002
    vertex 29.763398282201788 26.834466094067263 10.000000000000004
  endloop
endfacet
facet normal 3.961995244356737e-32 -4.059100909168849e-32 1.0
  outer loop
    vertex 29.763398282201788 26.834466094067263 10.000000000000004
    vertex 23.54085860776016 13.54085860776017 10.000000000000002
    vertex 25.308625560726522 11.773091654793795 10.000000000000002
  endloop
endfacet
facet normal 3.961995244356737e-32 -4.059100909168849e-32 1.0
  outer loop
    vertex 29.763398282201788 26.834466094067263 10.000000000000004
    vertex 25.308625560726522 11.773091654793795 10.000000000000002
    vertex 28.914870144777918 18.914870144777936 10.000000000000002
  endloop
endfacet
facet normal 3.961995244356737e-32 -4.059100909168849e-32 1.0
  outer loop
    vertex 28.914870144777918 18.914870144777936 10.000000000000002
    vertex 25.308625560726522 11.773091654793795 10.000000000000002
    vertex 28.349184719828678 8.449689783217025 10.000000000000002
  endloop
endfacet
facet normal 3.961995244356737e-32 -4.059100909168849e-32 1.0
  outer loop
    vertex 29.763398282201788 26.834466094067263 10.000000000000004
    vertex 28.914870144777918 18.914870144777936 10.000000000000002
    vertex 36.834466094067245 26.83446609406727 10.000000000000002
  endloop
endfacet
facet normal 3.961995244356737e-32 -4.059100909168849e-32 1.0
  outer loop
    vertex 29.763398282201788 26.834466094067263 10.000000000000004
    vertex 36.834466094067245 26.83446609406727 10.000000000000002
    vertex 30.55799139519124 27.870000000000005 10.000000000000004
  endloop
endfacet
facet normal 3.961995244356737e-32 -4.059100909168849e-32 1.0
  outer loop
    vertex 30.55799139519124 27.870000000000005 10.000000000000004
    vertex 36.834466094067245 26.83446609406727 10.000000000000002
    vertex 31.057493507714387 29.075904774487395 10.000000000000004
  endloop
endfacet
facet normal 3.961995244356737e-32 -4.059100909168849e-32 1.0
  outer loop
    vertex 31.057493507714387 29.075904774487395 10.000000000000004
    vertex 36.834466094067245 26.83446609406727 10.000000000000002
    vertex 31.227864376269043 30.369999999999997 10.000000000000004
  endloop
endfacet
facet normal 3.961995244356737e-32 -4.059100909168849e-32 1.0
  outer loop
    vertex 11.59789397188856 58.47223304703363 10.000000000000002
    vertex 11.999999999999996 46.668932188134505 10.000000000000005
    vertex 12.95009952791698 57.61952960352836 10.000000000000002
  endloop
endfacet
facet normal 3.961995244356737e-32 -4.059100909168849e-32 1.0
  outer loop
    vertex 11.999999999999996 46.668932188134505 10.000000000000005
    vertex 11.59789397188856 58.47223304703363 10.000000000000002
    vertex 11.999999999999996 14.07106781186548 10.000000000000005
  endloop
endfacet
facet normal 3.961995244356737e-32 -4.059100909168849e-32 1.0
  outer loop
    vertex 12.95009952791698 57.61952960352836 10.000000000000002
    vertex 11.999999999999996 46.668932188134505 10.000000000000005
    vertex 12.120470396471639 47.84255701717547 10.000000000000005
  endloop
endfacet
facet normal 3.961995244356737e-32 -4.059100909168849e-32 1.0
  outer loop
    vertex 12.95009952791698 57.61952960352836 10.000000000000002
    vertex 12.120470396471639 47.84255701717547 10.000000000000005
    vertex 12.47367172745376 48.69526046068074 10.000000000000005
  endloop
endfacet
facet normal 3.961995244356737e-32 -4.059100909168849e-32 1.0
  outer loop
    vertex 12.95009952791698 57.61952960352836 10.000000000000002
    vertex 12.47367172745376 48.69526046068074 10.000000000000005
    vertex 13.035533905932738 49.168932188134505 10.000000000000005
  endloop
endfacet
facet normal 3.961995244356737e-32 -4.059100909168849e-32 1.0
  outer loop
    vertex 12.95009952791698 57.61952960352836 10.000000000000002
    vertex 13.035533905932738 49.168932188134505 10.000000000000005
    vertex 14.035533905932736 56.704466094067264 10.000000000000002
  endloop
endfacet
facet normal 3.961995244356737e-32 -4.059100909168849e-32 1.0
  outer loop
    vertex 14.035533905932736 56.704466094067264 10.000000000000002
    vertex 13.035533905932738 49.168932188134505 10.000000000000005
    vertex 13.767766952966369 49.231292254090334 10.000000000000005
  endloop
endfacet
facet normal 3.961995244356737e-32 -4.059100909168849e-32 1.0
  outer loop
    vertex 14.035533905932736 56.704466094067264 10.000000000000002
    vertex 13.767766952966369 49.231292254090334 10.000000000000005
    vertex 14.62047039647164 48.87809092310821 10.000000000000005
  endloop
endfacet
facet normal 3.961995244356737e-32 -4.059100909168849e-32 1.0
  outer loop
    vertex 14.035533905932736 56.704466094067264 10.000000000000002
    vertex 14.62047039647164 48.87809092310821 10.000000000000005
    vertex 36.834466094067245 33.90553390593274 10.000000000000002
  endloop
endfacet
facet normal 3.961995244356737e-32 -4.059100909168849e-32 1.0
  outer loop
    vertex 36.834466094067245 33.90553390593274 10.000000000000002
    vertex 14.62047039647164 48.87809092310821 10.000000000000005
    vertex 15.535533905932738 48.133398282201775 10.000000000000005
  endloop
endfacet
facet normal 3.961995244356737e-32 -4.059100909168849e-32 1.0
  outer loop
    vertex 36.834466094067245 33.90553390593274 10.000000000000002
    vertex 15.535533905932738 48.133398282201775 10.000000000000005
    vertex 29.76339828220178 33.905533905932735 10.000000000000004
  endloop
endfacet
facet normal 3.961995244356737e-32 -4.059100909168849e-32 1.0
  outer loop
    vertex 36.834466094067245 33.90553390593274 10.000000000000002
    vertex 29.76339828220178 33.905533905932735 10.000000000000004
    vertex 30.557991395191234 32.87 10.000000000000004
  endloop
endfacet
facet normal 3.961995244356737e-32 -4.059100909168849e-32 1.0
  outer loop
    vertex 36.834466094067245 33.90553390593274 10.000000000000002
    vertex 30.557991395191234 32.87 10.000000000000004
    vertex 31.057493507714387 31.6640952255126 10.000000000000004
  endloop
endfacet
facet normal 3.961995244356737e-32 -4.059100909168849e-32 1.0
  outer loop
    vertex 36.834466094067245 33.90553390593274 10.000000000000002
    vertex 31.057493507714387 31.6640952255126 10.000000000000004
    vertex 31.227864376269043 30.369999999999997 10.000000000000004
  endloop
endfacet
facet normal 3.961995244356737e-32 -4.059100909168849e-32 1.0
  outer loop
    vertex 36.834466094067245 33.90553390593274 10.000000000000002
    vertex 31.227864376269043 30.369999999999997 10.000000000000004
    vertex 36.834466094067245 26.83446609406727 10.000000000000002
  endloop
endfacet
facet normal 3.961995244356737e-32 -4.059100909168849e-32 1.0
  outer loop
    vertex 36.834466094067245 33.90553390593274 10.000000000000002
    vertex 36.834466094067245 26.83446609406727 10.000000000000002
    vertex 37.6290592070567 27.870000000000008 10.000000000000002
  endloop
endfacet
facet normal 3.961995244356737e-32 -4.059100909168849e-32 1.0
  outer loop
    vertex 36.834466094067245 33.90553390593274 10.000000000000002
    vertex 37.6290592070567 27.870000000000008 10.000000000000002
    vertex 37.6290592070567 32.870000000000005 10.000000000000002
  endloop
endfacet
facet normal 3.961995244356737e-32 -4.059100909168849e-32 1.0
  outer loop
    vertex 37.6290592070567 32.870000000000005 10.000000000000002
    vertex 37.6290592070567 27.870000000000008 10.000000000000002
    vertex 38.128561319579845 29.07590477448741 10.000000000000002
  endloop
endfacet
facet normal 3.961995244356737e-32 -4.059100909168849e-32 1.0
  outer loop
    vertex 37.6290592070567 32.870000000000005 10.000000000000002
    vertex 38.128561319579845 29.07590477448741 10.000000000000002
    vertex 38.128561319579845 31.66409522551261 10.000000000000002
  endloop
endfacet
facet normal 3.961995244356737e-32 -4.059100909168849e-32 1.0
  outer loop
    vertex 38.128561319579845 31.66409522551261 10.000000000000002
    vertex 38.128561319579845 29.07590477448741 10.000000000000002
    vertex 38.29893218813451 30.370000000000008 10.000000000000002
  endloop
endfacet
facet normal 3.961995244356737e-32 -4.059100909168849e-32 1.0
  outer loop
    vertex 2.9999999999999996 0.0 10.000000000000002
    vertex 0.0 2.5300000000000002 10.000000000000002
    vertex 0.0 1.9999999999999996 10.000000000000002
  endloop
endfacet
facet normal 3.961995244356737e-32 -4.059100909168849e-32 1.0
  outer loop
    vertex 0.0 2.5300000000000002 10.000000000000002
    vertex 2.9999999999999996 0.0 10.000000000000002
    vertex 1.2500000000000002 1.9999999999999998 10.000000000000002
  endloop
endfacet
facet normal 3.961995244356737e-32 -4.059100909168849e-32 1.0
  outer loop
    vertex 1.2500000000000002 1.9999999999999998 10.000000000000002
    vertex 2.9999999999999996 0.0 10.000000000000002
    vertex 3.0 1.9999999999999998 10.000000000000002
  endloop
endfacet
facet normal 3.961995244356737e-32 -4.059100909168849e-32 1.0
  outer loop
    vertex 3.0 1.9999999999999998 10.000000000000002
    vertex 2.9999999999999996 0.0 10.000000000000002
    vertex 4.999999999999999 0.0 10.000000000000002
  endloop
endfacet
facet normal 3.961995244356737e-32 -4.059100909168849e-32 1.0
  outer loop
    vertex 3.0 1.9999999999999998 10.000000000000002
    vertex 4.999999999999999 0.0 10.000000000000002
    vertex 3.0 7.999999999999999 10.000000000000002
  endloop
endfacet
facet normal 3.961995244356737e-32 -4.059100909168849e-32 1.0
  outer loop
    vertex 3.0 7.999999999999999 10.000000000000002
    vertex 4.999999999999999 0.0 10.000000000000002
    vertex 6.999999999999998 7.999999999999999 10.000000000000002
  endloop
endfacet
facet normal 3.961995244356737e-32 -4.059100909168849e-32 1.0
  outer loop
    vertex 6.999999999999998 7.999999999999999 10.000000000000002
    vertex 4.999999999999999 0.0 10.000000000000002
    vertex 6.414565621984246 0.12047039647164023 10.000000000000002
  endloop
endfacet
facet normal 3.961995244356737e-32 -4.059100909168849e-32 1.0
  outer loop
    vertex 6.999999999999998 7.999999999999999 10.000000000000002
    vertex 6.414565621984246 0.12047039647164023 10.000000000000002
    vertex 7.973671727453765 0.4736717274537647 10.000000000000002
  endloop
endfacet
facet normal 3.961995244356737e-32 -4.059100909168849e-32 1.0
  outer loop
    vertex 6.999999999999998 7.999999999999999 10.000000000000002
    vertex 7.973671727453765 0.4736717274537647 10.000000000000002
    vertex 6.999999999999998 51.99999999999999 10.000000000000002
  endloop
endfacet
facet normal 3.961995244356737e-32 -4.059100909168849e-32 1.0
  outer loop
    vertex 1.2499999999999996 56.849999999999994 10.000000000000002
    vertex 0.0 60.239999999999995 10.000000000000002
    vertex 0.0 56.849999999999994 10.000000000000002
  endloop
endfacet
facet normal 3.961995244356737e-32 -4.059100909168849e-32 1.0
  outer loop
    vertex 0.0 60.239999999999995 10.000000000000002
    vertex 1.2499999999999996 56.849999999999994 10.000000000000002
    vertex 1.2499999999999996 58.599999999999994 10.000000000000002
  endloop
endfacet
facet normal 3.961995244356737e-32 -4.059100909168849e-32 1.0
  outer loop
    vertex 0.0 60.239999999999995 10.000000000000002
    vertex 1.2499999999999996 58.599999999999994 10.000000000000002
    vertex 5.5 60.239999999999995 10.000000000000002
  endloop
endfacet
facet normal 3.961995244356737e-32 -4.059100909168849e-32 1.0
  outer loop
    vertex 5.5 60.239999999999995 10.000000000000002
    vertex 1.2499999999999996 58.599999999999994 10.000000000000002
    vertex 3.0 58.599999999999994 10.000000000000002
  endloop
endfacet
facet normal 3.961995244356737e-32 -4.059100909168849e-32 1.0
  outer loop
    vertex 1.2500000000000002 2.53 10.000000000000002
    vertex 0.0 2.5300000000000002 10.000000000000002
    vertex 1.2500000000000002 1.9999999999999998 10.000000000000002
  endloop
endfacet
facet normal 0.2209423826903948 -0.9752868621749661 0.0
  outer loop
    vertex 7.973671727453765 0.4736717274537647 10.000000000000002
    vertex 6.414565621984246 0.12047039647164023 9.978398278426018e-16
    vertex 7.973671727453765 0.4736717274537647 9.978398278426018e-16
  endloop
endfacet
facet normal 0.2209423826903948 -0.9752868621749661 0.0
  outer loop
    vertex 6.414565621984246 0.12047039647164023 9.978398278426018e-16
    vertex 7.973671727453765 0.4736717274537647 10.000000000000002
    vertex 6.414565621984246 0.12047039647164023 10.000000000000002
  endloop
endfacet
facet normal 1.0 0.0 0.0
  outer loop
    vertex 1.2499999999999996 58.599999999999994 9.978398278426018e-16
    vertex 1.2499999999999996 56.849999999999994 10.000000000000002
    vertex 1.2499999999999996 56.849999999999994 9.978398278426018e-16
  endloop
endfacet
facet normal 1.0 0.0 0.0
  outer loop
    vertex 1.2499999999999996 56.849999999999994 10.000000000000002
    vertex 1.2499999999999996 58.599999999999994 9.978398278426018e-16
    vertex 1.2499999999999996 58.599999999999994 10.000000000000002
  endloop
endfacet
facet normal -0.0 -1.0 -0.0
  outer loop
    vertex 3.0 58.599999999999994 10.000000000000002
    vertex 1.2499999999999996 58.599999999999994 9.978398278426018e-16
    vertex 3.0 58.599999999999994 9.978398278426018e-16
  endloop
endfacet
facet normal -0.0 -1.0 -0.0
  outer loop
    vertex 1.2499999999999996 58.599999999999994 9.978398278426018e-16
    vertex 3.0 58.599999999999994 10.000000000000002
    vertex 1.2499999999999996 58.599999999999994 10.000000000000002
  endloop
endfacet
facet normal -0.0 -1.0 -0.0
  outer loop
    vertex 1.2499999999999996 56.849999999999994 10.000000000000002
    vertex 0.0 56.849999999999994 9.978398278426018e-16
    vertex 1.2499999999999996 56.849999999999994 9.978398278426018e-16
  endloop
endfacet
facet normal -0.0 -1.0 -0.0
  outer loop
    vertex 0.0 56.849999999999994 9.978398278426018e-16
    vertex 1.2499999999999996 56.849999999999994 10.000000000000002
    vertex 0.0 56.849999999999994 10.000000000000002
  endloop
endfacet
facet normal 1.0 0.0 0.0
  outer loop
    vertex 34.00603896932106 20.470505063388337 3.817806310390499e-15
    vertex 34.00603896932106 14.106544032709408 10.000000000000002
    vertex 34.00603896932106 14.106544032709408 9.978398278426018e-16
  endloop
endfacet
facet normal 1.0 0.0 0.0
  outer loop
    vertex 34.00603896932106 14.106544032709408 10.000000000000002
    vertex 34.00603896932106 20.470505063388337 3.817806310390499e-15
    vertex 34.00603896932106 20.470505063388337 10.000000000000002
  endloop
endfacet
facet normal 0.08485705729787892 -0.9963931351764446 0.0
  outer loop
    vertex 6.414565621984246 0.12047039647164023 10.000000000000002
    vertex 4.999999999999999 0.0 9.978398278426018e-16
    vertex 6.414565621984246 0.12047039647164023 9.978398278426018e-16
  endloop
endfacet
facet normal 0.08485705729787892 -0.9963931351764446 0.0
  outer loop
    vertex 4.999999999999999 0.0 9.978398278426018e-16
    vertex 6.414565621984246 0.12047039647164023 10.000000000000002
    vertex 4.999999999999999 0.0 10.000000000000002
  endloop
endfacet
facet normal 0.0 1.0 0.0
  outer loop
    vertex 3.0 7.999999999999999 10.000000000000002
    vertex 6.999999999999998 7.999999999999999 9.978398278426018e-16
    vertex 3.0 7.999999999999999 9.978398278426018e-16
  endloop
endfacet
facet normal 0.0 1.0 0.0
  outer loop
    vertex 6.999999999999998 7.999999999999999 9.978398278426018e-16
    vertex 3.0 7.999999999999999 10.000000000000002
    vertex 6.999999999999998 7.999999999999999 10.000000000000002
  endloop
endfacet
facet normal 0.7071067811865476 0.7071067811865475 0.0
  outer loop
    vertex 14.035533905932736 56.704466094067264 9.978398278426018e-16
    vertex 36.834466094067245 33.90553390593274 10.000000000000002
    vertex 36.834466094067245 33.90553390593274 9.978398278426018e-16
  endloop
endfacet
facet normal 0.7071067811865476 0.7071067811865475 0.0
  outer loop
    vertex 36.834466094067245 33.90553390593274 10.000000000000002
    vertex 14.035533905932736 56.704466094067264 9.978398278426018e-16
    vertex 14.035533905932736 56.704466094067264 10.000000000000002
  endloop
endfacet
facet normal 0.7071067811865478 0.7071067811865474 -1.1809162993577807e-32
  outer loop
    vertex 28.914870144777918 18.914870144777936 9.978398278426018e-16
    vertex 30.68263709774429 17.147103191811564 10.000000000000002
    vertex 30.68263709774429 17.147103191811564 3.817806310390499e-15
  endloop
endfacet
facet normal 0.7071067811865478 0.7071067811865474 -1.1809162993577807e-32
  outer loop
    vertex 30.68263709774429 17.147103191811564 10.000000000000002
    vertex 28.914870144777918 18.914870144777936 9.978398278426018e-16
    vertex 28.914870144777918 18.914870144777936 10.000000000000002
  endloop
endfacet
facet normal 0.0 1.0 0.0
  outer loop
    vertex 1.2500000000000002 1.9999999999999998 10.000000000000002
    vertex 3.0 1.9999999999999998 9.978398278426018e-16
    vertex 1.2500000000000002 1.9999999999999998 9.978398278426018e-16
  endloop
endfacet
facet normal 0.0 1.0 0.0
  outer loop
    vertex 3.0 1.9999999999999998 9.978398278426018e-16
    vertex 1.2500000000000002 1.9999999999999998 10.000000000000002
    vertex 3.0 1.9999999999999998 10.000000000000002
  endloop
endfacet
facet normal 0.6445533419641241 -0.7645593432578527 -1.2588702645606263e-16
  outer loop
    vertex 13.035533905932738 49.168932188134505 10.000000000000005
    vertex 12.473671727453764 48.69526046068074 3.7235454264733874e-15
    vertex 13.035533905932738 49.16893218813451 3.611734603674826e-15
  endloop
endfacet
facet normal 0.6445533419641241 -0.7645593432578527 -1.2588702645606263e-16
  outer loop
    vertex 12.473671727453764 48.69526046068074 3.7235454264733874e-15
    vertex 13.035533905932738 49.168932188134505 10.000000000000005
    vertex 12.47367172745376 48.69526046068074 10.000000000000005
  endloop
endfacet
facet normal -1.0 5.34084561088617e-17 0.0
  outer loop
    vertex 3.0 58.599999999999994 10.000000000000002
    vertex 3.0 51.99999999999999 9.978398278426018e-16
    vertex 3.0 51.99999999999999 10.000000000000002
  endloop
endfacet
facet normal -1.0 5.34084561088617e-17 0.0
  outer loop
    vertex 3.0 51.99999999999999 9.978398278426018e-16
    vertex 3.0 58.599999999999994 10.000000000000002
    vertex 3.0 58.599999999999994 9.978398278426018e-16
  endloop
endfacet
facet normal -0.7071067811865474 0.7071067811865477 6.331005316527663e-17
  outer loop
    vertex 15.535533905932736 12.606601717798219 3.1142334945004754e-15
    vertex 29.763398282201788 26.834466094067263 10.000000000000004
    vertex 29.763398282201788 26.834466094067263 2.9142940245867596e-16
  endloop
endfacet
facet normal -0.7071067811865474 0.7071067811865477 6.331005316527663e-17
  outer loop
    vertex 29.763398282201788 26.834466094067263 10.000000000000004
    vertex 15.535533905932736 12.606601717798219 3.1142334945004754e-15
    vertex 15.535533905932738 12.606601717798219 10.000000000000005
  endloop
endfacet
facet normal -0.7933533402912359 -0.6087614290087195 0.0
  outer loop
    vertex 29.76339828220178 33.905533905932735 10.000000000000004
    vertex 30.557991395191234 32.87 1.3330502043685497e-16
    vertex 30.557991395191234 32.87 10.000000000000004
  endloop
endfacet
facet normal -0.7933533402912359 -0.6087614290087195 0.0
  outer loop
    vertex 30.557991395191234 32.87 1.3330502043685497e-16
    vertex 29.76339828220178 33.905533905932735 10.000000000000004
    vertex 29.76339828220178 33.905533905932735 2.9142940245867675e-16
  endloop
endfacet
facet normal 0.0848570572978794 -0.9963931351764446 -2.6876660151765183e-16
  outer loop
    vertex 13.767766952966369 49.231292254090334 10.000000000000005
    vertex 13.035533905932738 49.16893218813451 3.611734603674826e-15
    vertex 13.76776695296637 49.231292254090334 3.4660199024454876e-15
  endloop
endfacet
facet normal 0.0848570572978794 -0.9963931351764446 -2.6876660151765183e-16
  outer loop
    vertex 13.035533905932738 49.16893218813451 3.611734603674826e-15
    vertex 13.767766952966369 49.231292254090334 10.000000000000005
    vertex 13.035533905932738 49.168932188134505 10.000000000000005
  endloop
endfacet
facet normal -0.7933533402912359 0.6087614290087195 0.0
  outer loop
    vertex 30.55799139519124 27.870000000000005 10.000000000000004
    vertex 29.763398282201788 26.834466094067263 2.9142940245867596e-16
    vertex 29.763398282201788 26.834466094067263 10.000000000000004
  endloop
endfacet
facet normal -0.7933533402912359 0.6087614290087195 0.0
  outer loop
    vertex 29.763398282201788 26.834466094067263 2.9142940245867596e-16
    vertex 30.55799139519124 27.870000000000005 10.000000000000004
    vertex 30.55799139519124 27.870000000000005 1.3330502043685465e-16
  endloop
endfacet
facet normal 0.6445533419641227 0.7645593432578539 0.0
  outer loop
    vertex 12.95009952791698 57.61952960352836 10.000000000000002
    vertex 14.035533905932736 56.704466094067264 9.978398278426018e-16
    vertex 12.95009952791698 57.61952960352836 9.978398278426018e-16
  endloop
endfacet
facet normal 0.6445533419641227 0.7645593432578539 0.0
  outer loop
    vertex 14.035533905932736 56.704466094067264 9.978398278426018e-16
    vertex 12.95009952791698 57.61952960352836 10.000000000000002
    vertex 14.035533905932736 56.704466094067264 10.000000000000002
  endloop
endfacet
facet normal -0.554700196225229 -0.8320502943378437 0.0
  outer loop
    vertex 2.9999999999999996 0.0 9.978398278426018e-16
    vertex 0.0 1.9999999999999996 10.000000000000002
    vertex 0.0 1.9999999999999996 9.978398278426018e-16
  endloop
endfacet
facet normal -0.554700196225229 -0.8320502943378437 0.0
  outer loop
    vertex 0.0 1.9999999999999996 10.000000000000002
    vertex 2.9999999999999996 0.0 9.978398278426018e-16
    vertex 2.9999999999999996 0.0 10.000000000000002
  endloop
endfacet
facet normal 0.0 1.0 0.0
  outer loop
    vertex 0.0 60.239999999999995 10.000000000000002
    vertex 5.5 60.239999999999995 9.978398278426018e-16
    vertex 0.0 60.239999999999995 9.978398278426018e-16
  endloop
endfacet
facet normal 0.0 1.0 0.0
  outer loop
    vertex 5.5 60.239999999999995 9.978398278426018e-16
    vertex 0.0 60.239999999999995 10.000000000000002
    vertex 5.5 60.239999999999995 10.000000000000002
  endloop
endfacet
facet normal 0.0 -1.0 0.0
  outer loop
    vertex 4.999999999999999 0.0 10.000000000000002
    vertex 2.9999999999999996 0.0 9.978398278426018e-16
    vertex 4.999999999999999 0.0 9.978398278426018e-16
  endloop
endfacet
facet normal 0.0 -1.0 0.0
  outer loop
    vertex 2.9999999999999996 0.0 9.978398278426018e-16
    vertex 4.999999999999999 0.0 10.000000000000002
    vertex 2.9999999999999996 0.0 10.000000000000002
  endloop
endfacet
facet normal 0.9238795325112867 0.3826834323650898 2.6768088963356276e-17
  outer loop
    vertex 12.47367172745376 12.044739539319245 3.7235454264733874e-15
    vertex 12.120470396471637 12.897442982824517 10.000000000000005
    vertex 12.47367172745376 12.044739539319243 10.000000000000005
  endloop
endfacet
facet normal 0.9238795325112867 0.3826834323650898 2.6768088963356276e-17
  outer loop
    vertex 12.120470396471637 12.897442982824517 10.000000000000005
    vertex 12.47367172745376 12.044739539319245 3.7235454264733874e-15
    vertex 12.120470396471637 12.897442982824517 3.793832648043573e-15
  endloop
endfacet
facet normal 0.7071067811865476 -0.7071067811865476 0.0
  outer loop
    vertex 34.00603896932106 14.106544032709408 9.978398278426018e-16
    vertex 28.349184719828678 8.449689783217025 10.000000000000002
    vertex 28.349184719828678 8.449689783217025 9.978398278426018e-16
  endloop
endfacet
facet normal 0.7071067811865476 -0.7071067811865476 0.0
  outer loop
    vertex 28.349184719828678 8.449689783217025 10.000000000000002
    vertex 34.00603896932106 14.106544032709408 9.978398278426018e-16
    vertex 34.00603896932106 14.106544032709408 10.000000000000002
  endloop
endfacet
facet normal -0.6312069050459884 -0.7756144938191037 -8.830381019702149e-17
  outer loop
    vertex 15.535533905932738 48.133398282201775 10.000000000000005
    vertex 14.620470396471644 48.87809092310821 3.2963315388692233e-15
    vertex 15.535533905932738 48.133398282201775 3.1142334945004754e-15
  endloop
endfacet
facet normal -0.6312069050459884 -0.7756144938191037 -8.830381019702149e-17
  outer loop
    vertex 14.620470396471644 48.87809092310821 3.2963315388692233e-15
    vertex 15.535533905932738 48.133398282201775 10.000000000000005
    vertex 14.62047039647164 48.87809092310821 10.000000000000005
  endloop
endfacet
facet normal 0.7933533402912359 -0.6087614290087195 0.0
  outer loop
    vertex 37.6290592070567 27.870000000000008 9.978398278426018e-16
    vertex 36.834466094067245 26.83446609406727 10.000000000000002
    vertex 36.834466094067245 26.83446609406727 9.978398278426018e-16
  endloop
endfacet
facet normal 0.7933533402912359 -0.6087614290087195 0.0
  outer loop
    vertex 36.834466094067245 26.83446609406727 10.000000000000002
    vertex 37.6290592070567 27.870000000000008 9.978398278426018e-16
    vertex 37.6290592070567 27.870000000000008 10.000000000000002
  endloop
endfacet
facet normal 0.3318092074317439 0.9433465163255325 0.0
  outer loop
    vertex 8.473671727453763 59.76632827254624 10.000000000000002
    vertex 10.071067811865474 59.20446609406726 9.978398278426018e-16
    vertex 8.473671727453763 59.76632827254624 9.978398278426018e-16
  endloop
endfacet
facet normal 0.3318092074317439 0.9433465163255325 0.0
  outer loop
    vertex 10.071067811865474 59.20446609406726 9.978398278426018e-16
    vertex 8.473671727453763 59.76632827254624 10.000000000000002
    vertex 10.071067811865474 59.20446609406726 10.000000000000002
  endloop
endfacet
facet normal -0.6312069050459878 0.7756144938191045 1.4472691257499826e-16
  outer loop
    vertex 14.620470396471639 11.86190907689178 3.2963315388692233e-15
    vertex 15.535533905932738 12.606601717798219 10.000000000000005
    vertex 15.535533905932736 12.606601717798219 3.1142334945004754e-15
  endloop
endfacet
facet normal -0.6312069050459878 0.7756144938191045 1.4472691257499826e-16
  outer loop
    vertex 15.535533905932738 12.606601717798219 10.000000000000005
    vertex 14.620470396471639 11.86190907689178 3.2963315388692233e-15
    vertex 14.620470396471639 11.861909076891779 10.000000000000005
  endloop
endfacet
facet normal 0.9947729510558513 -0.1021115852762703 7.027859135293719e-17
  outer loop
    vertex 12.12047039647164 47.84255701717547 3.793832648043573e-15
    vertex 11.999999999999996 46.668932188134505 10.000000000000005
    vertex 11.999999999999996 46.668932188134505 3.817806310390499e-15
  endloop
endfacet
facet normal 0.9947729510558513 -0.1021115852762703 7.027859135293719e-17
  outer loop
    vertex 11.999999999999996 46.668932188134505 10.000000000000005
    vertex 12.12047039647164 47.84255701717547 3.793832648043573e-15
    vertex 12.120470396471639 47.84255701717547 10.000000000000005
  endloop
endfacet
facet normal -0.9914448613738109 -0.1305261922200476 0.0
  outer loop
    vertex 31.057493507714387 31.6640952255126 10.000000000000004
    vertex 31.227864376269043 30.369999999999997 0.0
    vertex 31.227864376269043 30.369999999999997 10.000000000000004
  endloop
endfacet
facet normal -0.9914448613738109 -0.1305261922200476 0.0
  outer loop
    vertex 31.227864376269043 30.369999999999997 0.0
    vertex 31.057493507714387 31.6640952255126 10.000000000000004
    vertex 31.057493507714387 31.6640952255126 3.3903878430776154e-17
  endloop
endfacet
facet normal 0.5334020967941773 -0.8458618108979594 0.0
  outer loop
    vertex 12.450099527916981 2.6204703964716414 10.000000000000002
    vertex 11.097893971888562 1.7677669529663693 9.978398278426018e-16
    vertex 12.450099527916981 2.6204703964716414 9.978398278426018e-16
  endloop
endfacet
facet normal 0.5334020967941773 -0.8458618108979594 0.0
  outer loop
    vertex 11.097893971888562 1.7677669529663693 9.978398278426018e-16
    vertex 12.450099527916981 2.6204703964716414 10.000000000000002
    vertex 11.097893971888562 1.7677669529663693 10.000000000000002
  endloop
endfacet
facet normal 0.4324221780673746 -0.9016712593376078 0.0
  outer loop
    vertex 11.097893971888562 1.7677669529663693 10.000000000000002
    vertex 9.571067811865476 1.0355339059327375 9.978398278426018e-16
    vertex 11.097893971888562 1.7677669529663693 9.978398278426018e-16
  endloop
endfacet
facet normal 0.4324221780673746 -0.9016712593376078 0.0
  outer loop
    vertex 9.571067811865476 1.0355339059327375 9.978398278426018e-16
    vertex 11.097893971888562 1.7677669529663693 10.000000000000002
    vertex 9.571067811865476 1.0355339059327375 10.000000000000002
  endloop
endfacet
facet normal 0.7933533402912359 0.6087614290087195 0.0
  outer loop
    vertex 36.834466094067245 33.90553390593274 9.978398278426018e-16
    vertex 37.6290592070567 32.870000000000005 10.000000000000002
    vertex 37.6290592070567 32.870000000000005 9.978398278426018e-16
  endloop
endfacet
facet normal 0.7933533402912359 0.6087614290087195 0.0
  outer loop
    vertex 37.6290592070567 32.870000000000005 10.000000000000002
    vertex 36.834466094067245 33.90553390593274 9.978398278426018e-16
    vertex 36.834466094067245 33.90553390593274 10.000000000000002
  endloop
endfacet
facet normal 0.08485705729787947 0.9963931351764446 -1.828169208745305e-17
  outer loop
    vertex 13.035533905932734 11.57106781186548 3.611734603674826e-15
    vertex 13.767766952966369 11.508707745909655 10.000000000000005
    vertex 13.767766952966365 11.508707745909655 3.4660199024454876e-15
  endloop
endfacet
facet normal 0.08485705729787947 0.9963931351764446 -1.828169208745305e-17
  outer loop
    vertex 13.767766952966369 11.508707745909655 10.000000000000005
    vertex 13.035533905932734 11.57106781186548 3.611734603674826e-15
    vertex 13.035533905932734 11.57106781186548 10.000000000000005
  endloop
endfacet
facet normal 0.7071067811865479 -0.7071067811865472 0.0
  outer loop
    vertex 36.834466094067245 26.83446609406727 9.978398278426018e-16
    vertex 28.914870144777918 18.914870144777936 10.000000000000002
    vertex 28.914870144777918 18.914870144777936 9.978398278426018e-16
  endloop
endfacet
facet normal 0.7071067811865479 -0.7071067811865472 0.0
  outer loop
    vertex 28.914870144777918 18.914870144777936 10.000000000000002
    vertex 36.834466094067245 26.83446609406727 9.978398278426018e-16
    vertex 36.834466094067245 26.83446609406727 10.000000000000002
  endloop
endfacet
facet normal 2.819966482547897e-16 1.0 0.0
  outer loop
    vertex 0.0 2.5300000000000002 10.000000000000002
    vertex 1.2500000000000002 2.53 9.978398278426018e-16
    vertex 0.0 2.5300000000000002 9.978398278426018e-16
  endloop
endfacet
facet normal 2.819966482547897e-16 1.0 0.0
  outer loop
    vertex 1.2500000000000002 2.53 9.978398278426018e-16
    vertex 0.0 2.5300000000000002 10.000000000000002
    vertex 1.2500000000000002 2.53 10.000000000000002
  endloop
endfacet
facet normal 0.9947729510558515 0.10211158527626882 0.0
  outer loop
    vertex 11.999999999999996 14.07106781186548 3.817806310390499e-15
    vertex 12.120470396471637 12.897442982824517 10.000000000000005
    vertex 12.120470396471637 12.897442982824517 3.793832648043573e-15
  endloop
endfacet
facet normal 0.9947729510558515 0.10211158527626882 0.0
  outer loop
    vertex 12.120470396471637 12.897442982824517 10.000000000000005
    vertex 11.999999999999996 14.07106781186548 3.817806310390499e-15
    vertex 11.999999999999996 14.07106781186548 10.000000000000005
  endloop
endfacet
facet normal 0.0 -1.0 0.0
  outer loop
    vertex 28.349184719828678 8.449689783217025 10.000000000000002
    vertex 21.985223689149752 8.449689783217025 2.4078230691165503e-15
    vertex 28.349184719828678 8.449689783217025 9.978398278426018e-16
  endloop
endfacet
facet normal 0.0 -1.0 0.0
  outer loop
    vertex 21.985223689149752 8.449689783217025 2.4078230691165503e-15
    vertex 28.349184719828678 8.449689783217025 10.000000000000002
    vertex 21.985223689149752 8.449689783217025 10.000000000000002
  endloop
endfacet
facet normal -1.0 0.0 0.0
  outer loop
    vertex 0.0 60.239999999999995 10.000000000000002
    vertex 0.0 56.849999999999994 9.978398278426018e-16
    vertex 0.0 56.849999999999994 10.000000000000002
  endloop
endfacet
facet normal -1.0 0.0 0.0
  outer loop
    vertex 0.0 56.849999999999994 9.978398278426018e-16
    vertex 0.0 60.239999999999995 10.000000000000002
    vertex 0.0 60.239999999999995 9.978398278426018e-16
  endloop
endfacet
facet normal -1.0 0.0 0.0
  outer loop
    vertex 6.999999999999998 51.99999999999999 10.000000000000002
    vertex 6.999999999999998 7.999999999999999 9.978398278426018e-16
    vertex 6.999999999999998 7.999999999999999 10.000000000000002
  endloop
endfacet
facet normal -1.0 0.0 0.0
  outer loop
    vertex 6.999999999999998 7.999999999999999 9.978398278426018e-16
    vertex 6.999999999999998 51.99999999999999 10.000000000000002
    vertex 6.999999999999998 51.99999999999999 9.978398278426018e-16
  endloop
endfacet
facet normal -1.0 0.0 0.0
  outer loop
    vertex 3.0 7.999999999999999 10.000000000000002
    vertex 3.0 1.9999999999999998 9.978398278426018e-16
    vertex 3.0 1.9999999999999998 10.000000000000002
  endloop
endfacet
facet normal -1.0 0.0 0.0
  outer loop
    vertex 3.0 1.9999999999999998 9.978398278426018e-16
    vertex 3.0 7.999999999999999 10.000000000000002
    vertex 3.0 7.999999999999999 9.978398278426018e-16
  endloop
endfacet
facet normal -0.9238795325112865 0.3826834323650903 0.0
  outer loop
    vertex 31.057493507714387 29.075904774487395 10.000000000000004
    vertex 30.55799139519124 27.870000000000005 1.3330502043685465e-16
    vertex 30.55799139519124 27.870000000000005 10.000000000000004
  endloop
endfacet
facet normal -0.9238795325112865 0.3826834323650903 0.0
  outer loop
    vertex 30.55799139519124 27.870000000000005 1.3330502043685465e-16
    vertex 31.057493507714387 29.075904774487395 10.000000000000004
    vertex 31.057493507714387 29.075904774487395 3.390387843077584e-17
  endloop
endfacet
facet normal -1.0 0.0 0.0
  outer loop
    vertex 0.0 2.5300000000000002 10.000000000000002
    vertex 0.0 1.9999999999999996 9.978398278426018e-16
    vertex 0.0 1.9999999999999996 10.000000000000002
  endloop
endfacet
facet normal -1.0 0.0 0.0
  outer loop
    vertex 0.0 1.9999999999999996 9.978398278426018e-16
    vertex 0.0 2.5300000000000002 10.000000000000002
    vertex 0.0 2.5300000000000002 9.978398278426018e-16
  endloop
endfacet
facet normal 0.08485705729788043 0.9963931351764446 0.0
  outer loop
    vertex 5.5 60.239999999999995 10.000000000000002
    vertex 6.914565621984245 60.119529603528356 9.978398278426018e-16
    vertex 5.5 60.239999999999995 9.978398278426018e-16
  endloop
endfacet
facet normal 0.08485705729788043 0.9963931351764446 0.0
  outer loop
    vertex 6.914565621984245 60.119529603528356 9.978398278426018e-16
    vertex 5.5 60.239999999999995 10.000000000000002
    vertex 6.914565621984245 60.119529603528356 10.000000000000002
  endloop
endfacet
facet normal 0.9238795325112865 0.38268343236509017 0.0
  outer loop
    vertex 37.6290592070567 32.870000000000005 9.978398278426018e-16
    vertex 38.128561319579845 31.66409522551261 10.000000000000002
    vertex 38.128561319579845 31.66409522551261 9.978398278426018e-16
  endloop
endfacet
facet normal 0.9238795325112865 0.38268343236509017 0.0
  outer loop
    vertex 38.128561319579845 31.66409522551261 10.000000000000002
    vertex 37.6290592070567 32.870000000000005 9.978398278426018e-16
    vertex 37.6290592070567 32.870000000000005 10.000000000000002
  endloop
endfacet
facet normal -0.70710678118655 -0.7071067811865451 2.6379188818864937e-18
  outer loop
    vertex 23.54085860776016 13.54085860776017 10.000000000000002
    vertex 25.308625560726522 11.773091654793795 2.4072954853401733e-15
    vertex 25.308625560726522 11.773091654793795 10.000000000000002
  endloop
endfacet
facet normal -0.70710678118655 -0.7071067811865451 2.6379188818864937e-18
  outer loop
    vertex 25.308625560726522 11.773091654793795 2.4072954853401733e-15
    vertex 23.54085860776016 13.54085860776017 10.000000000000002
    vertex 23.54085860776016 13.54085860776017 9.973122440662246e-16
  endloop
endfacet
facet normal 0.43242217806736966 0.9016712593376102 0.0
  outer loop
    vertex 10.071067811865474 59.20446609406726 10.000000000000002
    vertex 11.59789397188856 58.47223304703363 9.978398278426018e-16
    vertex 10.071067811865474 59.20446609406726 9.978398278426018e-16
  endloop
endfacet
facet normal 0.43242217806736966 0.9016712593376102 0.0
  outer loop
    vertex 11.59789397188856 58.47223304703363 9.978398278426018e-16
    vertex 10.071067811865474 59.20446609406726 10.000000000000002
    vertex 11.59789397188856 58.47223304703363 10.000000000000002
  endloop
endfacet
facet normal 0.9238795325112867 -0.38268343236509 1.9516412791071574e-16
  outer loop
    vertex 12.473671727453764 48.69526046068074 3.7235454264733874e-15
    vertex 12.120470396471639 47.84255701717547 10.000000000000005
    vertex 12.12047039647164 47.84255701717547 3.793832648043573e-15
  endloop
endfacet
facet normal 0.9238795325112867 -0.38268343236509 1.9516412791071574e-16
  outer loop
    vertex 12.120470396471639 47.84255701717547 10.000000000000005
    vertex 12.473671727453764 48.69526046068074 3.7235454264733874e-15
    vertex 12.47367172745376 48.69526046068074 10.000000000000005
  endloop
endfacet
facet normal -0.3826834323650894 0.9238795325112868 1.1838181545060544e-16
  outer loop
    vertex 13.767766952966365 11.508707745909655 3.4660199024454876e-15
    vertex 14.620470396471639 11.861909076891779 10.000000000000005
    vertex 14.620470396471639 11.86190907689178 3.2963315388692233e-15
  endloop
endfacet
facet normal -0.3826834323650894 0.9238795325112868 1.1838181545060544e-16
  outer loop
    vertex 14.620470396471639 11.861909076891779 10.000000000000005
    vertex 13.767766952966365 11.508707745909655 3.4660199024454876e-15
    vertex 13.767766952966369 11.508707745909655 10.000000000000005
  endloop
endfacet
facet normal 0.6445533419641227 -0.7645593432578539 0.0
  outer loop
    vertex 13.535533905932736 3.5355339059327386 10.000000000000002
    vertex 12.450099527916981 2.6204703964716414 9.978398278426018e-16
    vertex 13.535533905932736 3.5355339059327386 9.978398278426018e-16
  endloop
endfacet
facet normal 0.6445533419641227 -0.7645593432578539 0.0
  outer loop
    vertex 12.450099527916981 2.6204703964716414 9.978398278426018e-16
    vertex 13.535533905932736 3.5355339059327386 10.000000000000002
    vertex 12.450099527916981 2.6204703964716414 10.000000000000002
  endloop
endfacet
facet normal 1.0 0.0 0.0
  outer loop
    vertex 11.999999999999996 46.668932188134505 3.817806310390499e-15
    vertex 11.999999999999996 14.07106781186548 10.000000000000005
    vertex 11.999999999999996 14.07106781186548 3.817806310390499e-15
  endloop
endfacet
facet normal 1.0 0.0 0.0
  outer loop
    vertex 11.999999999999996 14.07106781186548 10.000000000000005
    vertex 11.999999999999996 46.668932188134505 3.817806310390499e-15
    vertex 11.999999999999996 46.668932188134505 10.000000000000005
  endloop
endfacet
facet normal 1.2093940987047038e-17 -1.990147213122545e-18 -1.0
  outer loop
    vertex 0.0 60.239999999999995 9.978398278426018e-16
    vertex 1.2499999999999996 58.599999999999994 9.978398278426018e-16
    vertex 0.0 56.849999999999994 9.978398278426018e-16
  endloop
endfacet
facet normal 1.2093940987047038e-17 -1.990147213122545e-18 -1.0
  outer loop
    vertex 1.2499999999999996 58.599999999999994 9.978398278426018e-16
    vertex 0.0 60.239999999999995 9.978398278426018e-16
    vertex 5.5 60.239999999999995 9.978398278426018e-16
  endloop
endfacet
facet normal 1.2093940987047038e-17 -1.990147213122545e-18 -1.0
  outer loop
    vertex 1.2499999999999996 58.599999999999994 9.978398278426018e-16
    vertex 5.5 60.239999999999995 9.978398278426018e-16
    vertex 3.0 58.599999999999994 9.978398278426018e-16
  endloop
endfacet
facet normal 1.2093940987047038e-17 -1.990147213122545e-18 -1.0
  outer loop
    vertex 28.349184719828678 8.449689783217025 9.978398278426018e-16
    vertex 21.985223689149752 8.449689783217025 2.4078230691165503e-15
    vertex 25.308625560726522 11.773091654793795 2.4072954853401733e-15
  endloop
endfacet
facet normal 1.2093940987047038e-17 -1.990147213122545e-18 -1.0
  outer loop
    vertex 6.999999999999998 7.999999999999999 9.978398278426018e-16
    vertex 3.0 1.9999999999999998 9.978398278426018e-16
    vertex 3.0 7.999999999999999 9.978398278426018e-16
  endloop
endfacet
facet normal 1.2093940987047038e-17 -1.990147213122545e-18 -1.0
  outer loop
    vertex 3.0 1.9999999999999998 9.978398278426018e-16
    vertex 6.999999999999998 7.999999999999999 9.978398278426018e-16
    vertex 4.999999999999999 0.0 9.978398278426018e-16
  endloop
endfacet
facet normal 1.2093940987047038e-17 -1.990147213122545e-18 -1.0
  outer loop
    vertex 4.999999999999999 0.0 9.978398278426018e-16
    vertex 6.999999999999998 7.999999999999999 9.978398278426018e-16
    vertex 6.414565621984246 0.12047039647164023 9.978398278426018e-16
  endloop
endfacet
facet normal 1.2093940987047038e-17 -1.990147213122545e-18 -1.0
  outer loop
    vertex 6.414565621984246 0.12047039647164023 9.978398278426018e-16
    vertex 6.999999999999998 7.999999999999999 9.978398278426018e-16
    vertex 7.973671727453765 0.4736717274537647 9.978398278426018e-16
  endloop
endfacet
facet normal 1.2093940987047038e-17 -1.990147213122545e-18 -1.0
  outer loop
    vertex 1.2500000000000002 2.53 9.978398278426018e-16
    vertex 0.0 1.9999999999999996 9.978398278426018e-16
    vertex 0.0 2.5300000000000002 9.978398278426018e-16
  endloop
endfacet
facet normal 1.2093940987047038e-17 -1.990147213122545e-18 -1.0
  outer loop
    vertex 0.0 1.9999999999999996 9.978398278426018e-16
    vertex 1.2500000000000002 2.53 9.978398278426018e-16
    vertex 1.2500000000000002 1.9999999999999998 9.978398278426018e-16
  endloop
endfacet
facet normal 1.2093940987047038e-17 -1.990147213122545e-18 -1.0
  outer loop
    vertex 0.0 1.9999999999999996 9.978398278426018e-16
    vertex 1.2500000000000002 1.9999999999999998 9.978398278426018e-16
    vertex 2.9999999999999996 0.0 9.978398278426018e-16
  endloop
endfacet
facet normal 1.2093940987047038e-17 -1.990147213122545e-18 -1.0
  outer loop
    vertex 2.9999999999999996 0.0 9.978398278426018e-16
    vertex 1.2500000000000002 1.9999999999999998 9.978398278426018e-16
    vertex 3.0 1.9999999999999998 9.978398278426018e-16
  endloop
endfacet
facet normal 1.2093940987047038e-17 -1.990147213122545e-18 -1.0
  outer loop
    vertex 2.9999999999999996 0.0 9.978398278426018e-16
    vertex 3.0 1.9999999999999998 9.978398278426018e-16
    vertex 4.999999999999999 0.0 9.978398278426018e-16
  endloop
endfacet
facet normal 1.2093940987047038e-17 -1.990147213122545e-18 -1.0
  outer loop
    vertex 12.95009952791698 57.61952960352836 9.978398278426018e-16
    vertex 11.999999999999996 46.668932188134505 3.817806310390499e-15
    vertex 11.59789397188856 58.47223304703363 9.978398278426018e-16
  endloop
endfacet
facet normal 1.2093940987047038e-17 -1.990147213122545e-18 -1.0
  outer loop
    vertex 11.999999999999996 46.668932188134505 3.817806310390499e-15
    vertex 12.95009952791698 57.61952960352836 9.978398278426018e-16
    vertex 12.12047039647164 47.84255701717547 3.793832648043573e-15
  endloop
endfacet
facet normal 1.2093940987047038e-17 -1.990147213122545e-18 -1.0
  outer loop
    vertex 12.12047039647164 47.84255701717547 3.793832648043573e-15
    vertex 12.95009952791698 57.61952960352836 9.978398278426018e-16
    vertex 12.473671727453764 48.69526046068074 3.7235454264733874e-15
  endloop
endfacet
facet normal 1.2093940987047038e-17 -1.990147213122545e-18 -1.0
  outer loop
    vertex 12.473671727453764 48.69526046068074 3.7235454264733874e-15
    vertex 12.95009952791698 57.61952960352836 9.978398278426018e-16
    vertex 13.035533905932738 49.16893218813451 3.611734603674826e-15
  endloop
endfacet
facet normal 1.2093940987047038e-17 -1.990147213122545e-18 -1.0
  outer loop
    vertex 13.035533905932738 49.16893218813451 3.611734603674826e-15
    vertex 12.95009952791698 57.61952960352836 9.978398278426018e-16
    vertex 14.035533905932736 56.704466094067264 9.978398278426018e-16
  endloop
endfacet
facet normal 1.2093940987047038e-17 -1.990147213122545e-18 -1.0
  outer loop
    vertex 13.035533905932738 49.16893218813451 3.611734603674826e-15
    vertex 14.035533905932736 56.704466094067264 9.978398278426018e-16
    vertex 13.76776695296637 49.231292254090334 3.4660199024454876e-15
  endloop
endfacet
facet normal 1.2093940987047038e-17 -1.990147213122545e-18 -1.0
  outer loop
    vertex 13.76776695296637 49.231292254090334 3.4660199024454876e-15
    vertex 14.035533905932736 56.704466094067264 9.978398278426018e-16
    vertex 14.620470396471644 48.87809092310821 3.2963315388692233e-15
  endloop
endfacet
facet normal 1.2093940987047038e-17 -1.990147213122545e-18 -1.0
  outer loop
    vertex 14.620470396471644 48.87809092310821 3.2963315388692233e-15
    vertex 14.035533905932736 56.704466094067264 9.978398278426018e-16
    vertex 36.834466094067245 33.90553390593274 9.978398278426018e-16
  endloop
endfacet
facet normal 1.2093940987047038e-17 -1.990147213122545e-18 -1.0
  outer loop
    vertex 14.620470396471644 48.87809092310821 3.2963315388692233e-15
    vertex 36.834466094067245 33.90553390593274 9.978398278426018e-16
    vertex 15.535533905932738 48.133398282201775 3.1142334945004754e-15
  endloop
endfacet
facet normal 1.2093940987047038e-17 -1.990147213122545e-18 -1.0
  outer loop
    vertex 15.535533905932738 48.133398282201775 3.1142334945004754e-15
    vertex 36.834466094067245 33.90553390593274 9.978398278426018e-16
    vertex 29.76339828220178 33.905533905932735 2.9142940245867675e-16
  endloop
endfacet
facet normal 1.2093940987047038e-17 -1.990147213122545e-18 -1.0
  outer loop
    vertex 29.76339828220178 33.905533905932735 2.9142940245867675e-16
    vertex 36.834466094067245 33.90553390593274 9.978398278426018e-16
    vertex 30.557991395191234 32.87 1.3330502043685497e-16
  endloop
endfacet
facet normal 1.2093940987047038e-17 -1.990147213122545e-18 -1.0
  outer loop
    vertex 30.557991395191234 32.87 1.3330502043685497e-16
    vertex 36.834466094067245 33.90553390593274 9.978398278426018e-16
    vertex 31.057493507714387 31.6640952255126 3.3903878430776154e-17
  endloop
endfacet
facet normal 1.2093940987047038e-17 -1.990147213122545e-18 -1.0
  outer loop
    vertex 31.057493507714387 31.6640952255126 3.3903878430776154e-17
    vertex 36.834466094067245 33.90553390593274 9.978398278426018e-16
    vertex 31.227864376269043 30.369999999999997 0.0
  endloop
endfacet
facet normal 1.2093940987047038e-17 -1.990147213122545e-18 -1.0
  outer loop
    vertex 3.0 58.599999999999994 9.978398278426018e-16
    vertex 6.999999999999998 51.99999999999999 9.978398278426018e-16
    vertex 3.0 51.99999999999999 9.978398278426018e-16
  endloop
endfacet
facet normal 1.2093940987047038e-17 -1.990147213122545e-18 -1.0
  outer loop
    vertex 6.999999999999998 51.99999999999999 9.978398278426018e-16
    vertex 3.0 58.599999999999994 9.978398278426018e-16
    vertex 5.5 60.239999999999995 9.978398278426018e-16
  endloop
endfacet
facet normal 1.2093940987047038e-17 -1.990147213122545e-18 -1.0
  outer loop
    vertex 6.999999999999998 51.99999999999999 9.978398278426018e-16
    vertex 5.5 60.239999999999995 9.978398278426018e-16
    vertex 6.914565621984245 60.119529603528356 9.978398278426018e-16
  endloop
endfacet
facet normal 1.2093940987047038e-17 -1.990147213122545e-18 -1.0
  outer loop
    vertex 6.999999999999998 51.99999999999999 9.978398278426018e-16
    vertex 6.914565621984245 60.119529603528356 9.978398278426018e-16
    vertex 8.473671727453763 59.76632827254624 9.978398278426018e-16
  endloop
endfacet
facet normal 1.2093940987047038e-17 -1.990147213122545e-18 -1.0
  outer loop
    vertex 6.999999999999998 51.99999999999999 9.978398278426018e-16
    vertex 8.473671727453763 59.76632827254624 9.978398278426018e-16
    vertex 6.999999999999998 7.999999999999999 9.978398278426018e-16
  endloop
endfacet
facet normal 1.2093940987047038e-17 -1.990147213122545e-18 -1.0
  outer loop
    vertex 6.999999999999998 7.999999999999999 9.978398278426018e-16
    vertex 8.473671727453763 59.76632827254624 9.978398278426018e-16
    vertex 7.973671727453765 0.4736717274537647 9.978398278426018e-16
  endloop
endfacet
facet normal 1.2093940987047038e-17 -1.990147213122545e-18 -1.0
  outer loop
    vertex 7.973671727453765 0.4736717274537647 9.978398278426018e-16
    vertex 8.473671727453763 59.76632827254624 9.978398278426018e-16
    vertex 9.571067811865476 1.0355339059327375 9.978398278426018e-16
  endloop
endfacet
facet normal 1.2093940987047038e-17 -1.990147213122545e-18 -1.0
  outer loop
    vertex 9.571067811865476 1.0355339059327375 9.978398278426018e-16
    vertex 8.473671727453763 59.76632827254624 9.978398278426018e-16
    vertex 10.071067811865474 59.20446609406726 9.978398278426018e-16
  endloop
endfacet
facet normal 1.2093940987047038e-17 -1.990147213122545e-18 -1.0
  outer loop
    vertex 9.571067811865476 1.0355339059327375 9.978398278426018e-16
    vertex 10.071067811865474 59.20446609406726 9.978398278426018e-16
    vertex 11.097893971888562 1.7677669529663693 9.978398278426018e-16
  endloop
endfacet
facet normal 1.2093940987047038e-17 -1.990147213122545e-18 -1.0
  outer loop
    vertex 11.097893971888562 1.7677669529663693 9.978398278426018e-16
    vertex 10.071067811865474 59.20446609406726 9.978398278426018e-16
    vertex 11.59789397188856 58.47223304703363 9.978398278426018e-16
  endloop
endfacet
facet normal 1.2093940987047038e-17 -1.990147213122545e-18 -1.0
  outer loop
    vertex 11.097893971888562 1.7677669529663693 9.978398278426018e-16
    vertex 11.59789397188856 58.47223304703363 9.978398278426018e-16
    vertex 11.999999999999996 14.07106781186548 3.817806310390499e-15
  endloop
endfacet
facet normal 1.2093940987047038e-17 -1.990147213122545e-18 -1.0
  outer loop
    vertex 11.097893971888562 1.7677669529663693 9.978398278426018e-16
    vertex 11.999999999999996 14.07106781186548 3.817806310390499e-15
    vertex 12.450099527916981 2.6204703964716414 9.978398278426018e-16
  endloop
endfacet
facet normal 1.2093940987047038e-17 -1.990147213122545e-18 -1.0
  outer loop
    vertex 11.999999999999996 14.07106781186548 3.817806310390499e-15
    vertex 11.59789397188856 58.47223304703363 9.978398278426018e-16
    vertex 11.999999999999996 46.668932188134505 3.817806310390499e-15
  endloop
endfacet
facet normal 1.2093940987047038e-17 -1.990147213122545e-18 -1.0
  outer loop
    vertex 12.450099527916981 2.6204703964716414 9.978398278426018e-16
    vertex 11.999999999999996 14.07106781186548 3.817806310390499e-15
    vertex 12.120470396471637 12.897442982824517 3.793832648043573e-15
  endloop
endfacet
facet normal 1.2093940987047038e-17 -1.990147213122545e-18 -1.0
  outer loop
    vertex 12.450099527916981 2.6204703964716414 9.978398278426018e-16
    vertex 12.120470396471637 12.897442982824517 3.793832648043573e-15
    vertex 12.47367172745376 12.044739539319245 3.7235454264733874e-15
  endloop
endfacet
facet normal 1.2093940987047038e-17 -1.990147213122545e-18 -1.0
  outer loop
    vertex 12.450099527916981 2.6204703964716414 9.978398278426018e-16
    vertex 12.47367172745376 12.044739539319245 3.7235454264733874e-15
    vertex 13.535533905932736 3.5355339059327386 9.978398278426018e-16
  endloop
endfacet
facet normal 1.2093940987047038e-17 -1.990147213122545e-18 -1.0
  outer loop
    vertex 13.535533905932736 3.5355339059327386 9.978398278426018e-16
    vertex 12.47367172745376 12.044739539319245 3.7235454264733874e-15
    vertex 13.035533905932734 11.57106781186548 3.611734603674826e-15
  endloop
endfacet
facet normal 1.2093940987047038e-17 -1.990147213122545e-18 -1.0
  outer loop
    vertex 13.535533905932736 3.5355339059327386 9.978398278426018e-16
    vertex 13.035533905932734 11.57106781186548 3.611734603674826e-15
    vertex 13.767766952966365 11.508707745909655 3.4660199024454876e-15
  endloop
endfacet
facet normal 1.2093940987047038e-17 -1.990147213122545e-18 -1.0
  outer loop
    vertex 13.535533905932736 3.5355339059327386 9.978398278426018e-16
    vertex 13.767766952966365 11.508707745909655 3.4660199024454876e-15
    vertex 23.54085860776016 13.54085860776017 9.973122440662246e-16
  endloop
endfacet
facet normal 1.2093940987047038e-17 -1.990147213122545e-18 -1.0
  outer loop
    vertex 23.54085860776016 13.54085860776017 9.973122440662246e-16
    vertex 13.767766952966365 11.508707745909655 3.4660199024454876e-15
    vertex 14.620470396471639 11.86190907689178 3.2963315388692233e-15
  endloop
endfacet
facet normal 1.2093940987047038e-17 -1.990147213122545e-18 -1.0
  outer loop
    vertex 23.54085860776016 13.54085860776017 9.973122440662246e-16
    vertex 14.620470396471639 11.86190907689178 3.2963315388692233e-15
    vertex 15.535533905932736 12.606601717798219 3.1142334945004754e-15
  endloop
endfacet
facet normal 1.2093940987047038e-17 -1.990147213122545e-18 -1.0
  outer loop
    vertex 23.54085860776016 13.54085860776017 9.973122440662246e-16
    vertex 15.535533905932736 12.606601717798219 3.1142334945004754e-15
    vertex 29.763398282201788 26.834466094067263 2.9142940245867596e-16
  endloop
endfacet
facet normal 1.2093940987047038e-17 -1.990147213122545e-18 -1.0
  outer loop
    vertex 23.54085860776016 13.54085860776017 9.973122440662246e-16
    vertex 29.763398282201788 26.834466094067263 2.9142940245867596e-16
    vertex 25.308625560726522 11.773091654793795 2.4072954853401733e-15
  endloop
endfacet
facet normal 1.2093940987047038e-17 -1.990147213122545e-18 -1.0
  outer loop
    vertex 25.308625560726522 11.773091654793795 2.4072954853401733e-15
    vertex 29.763398282201788 26.834466094067263 2.9142940245867596e-16
    vertex 28.914870144777918 18.914870144777936 9.978398278426018e-16
  endloop
endfacet
facet normal 1.2093940987047038e-17 -1.990147213122545e-18 -1.0
  outer loop
    vertex 25.308625560726522 11.773091654793795 2.4072954853401733e-15
    vertex 28.914870144777918 18.914870144777936 9.978398278426018e-16
    vertex 28.349184719828678 8.449689783217025 9.978398278426018e-16
  endloop
endfacet
facet normal 1.2093940987047038e-17 -1.990147213122545e-18 -1.0
  outer loop
    vertex 28.914870144777918 18.914870144777936 9.978398278426018e-16
    vertex 29.763398282201788 26.834466094067263 2.9142940245867596e-16
    vertex 36.834466094067245 26.83446609406727 9.978398278426018e-16
  endloop
endfacet
facet normal 1.2093940987047038e-17 -1.990147213122545e-18 -1.0
  outer loop
    vertex 36.834466094067245 26.83446609406727 9.978398278426018e-16
    vertex 29.763398282201788 26.834466094067263 2.9142940245867596e-16
    vertex 30.55799139519124 27.870000000000005 1.3330502043685465e-16
  endloop
endfacet
facet normal 1.2093940987047038e-17 -1.990147213122545e-18 -1.0
  outer loop
    vertex 36.834466094067245 26.83446609406727 9.978398278426018e-16
    vertex 30.55799139519124 27.870000000000005 1.3330502043685465e-16
    vertex 31.057493507714387 29.075904774487395 3.390387843077584e-17
  endloop
endfacet
facet normal 1.2093940987047038e-17 -1.990147213122545e-18 -1.0
  outer loop
    vertex 36.834466094067245 26.83446609406727 9.978398278426018e-16
    vertex 31.057493507714387 29.075904774487395 3.390387843077584e-17
    vertex 31.227864376269043 30.369999999999997 0.0
  endloop
endfacet
facet normal 1.2093940987047038e-17 -1.990147213122545e-18 -1.0
  outer loop
    vertex 36.834466094067245 26.83446609406727 9.978398278426018e-16
    vertex 31.227864376269043 30.369999999999997 0.0
    vertex 36.834466094067245 33.90553390593274 9.978398278426018e-16
  endloop
endfacet
facet normal 1.2093940987047038e-17 -1.990147213122545e-18 -1.0
  outer loop
    vertex 36.834466094067245 26.83446609406727 9.978398278426018e-16
    vertex 36.834466094067245 33.90553390593274 9.978398278426018e-16
    vertex 37.6290592070567 32.870000000000005 9.978398278426018e-16
  endloop
endfacet
facet normal 1.2093940987047038e-17 -1.990147213122545e-18 -1.0
  outer loop
    vertex 36.834466094067245 26.83446609406727 9.978398278426018e-16
    vertex 37.6290592070567 32.870000000000005 9.978398278426018e-16
    vertex 37.6290592070567 27.870000000000008 9.978398278426018e-16
  endloop
endfacet
facet normal 1.2093940987047038e-17 -1.990147213122545e-18 -1.0
  outer loop
    vertex 37.6290592070567 27.870000000000008 9.978398278426018e-16
    vertex 37.6290592070567 32.870000000000005 9.978398278426018e-16
    vertex 38.128561319579845 31.66409522551261 9.978398278426018e-16
  endloop
endfacet
facet normal 1.2093940987047038e-17 -1.990147213122545e-18 -1.0
  outer loop
    vertex 37.6290592070567 27.870000000000008 9.978398278426018e-16
    vertex 38.128561319579845 31.66409522551261 9.978398278426018e-16
    vertex 38.128561319579845 29.07590477448741 9.978398278426018e-16
  endloop
endfacet
facet normal 1.2093940987047038e-17 -1.990147213122545e-18 -1.0
  outer loop
    vertex 38.128561319579845 29.07590477448741 9.978398278426018e-16
    vertex 38.128561319579845 31.66409522551261 9.978398278426018e-16
    vertex 38.29893218813451 30.370000000000008 9.978398278426018e-16
  endloop
endfacet
facet normal 1.2093940987047038e-17 -1.990147213122545e-18 -1.0
  outer loop
    vertex 28.349184719828678 8.449689783217025 9.978398278426018e-16
    vertex 30.68263709774429 17.147103191811564 3.817806310390499e-15
    vertex 34.00603896932106 14.106544032709408 9.978398278426018e-16
  endloop
endfacet
facet normal 1.2093940987047038e-17 -1.990147213122545e-18 -1.0
  outer loop
    vertex 30.68263709774429 17.147103191811564 3.817806310390499e-15
    vertex 28.349184719828678 8.449689783217025 9.978398278426018e-16
    vertex 28.914870144777918 18.914870144777936 9.978398278426018e-16
  endloop
endfacet
facet normal 1.2093940987047038e-17 -1.990147213122545e-18 -1.0
  outer loop
    vertex 34.00603896932106 14.106544032709408 9.978398278426018e-16
    vertex 30.68263709774429 17.147103191811564 3.817806310390499e-15
    vertex 34.00603896932106 20.470505063388337 3.817806310390499e-15
  endloop
endfacet
facet normal 1.2093940987047038e-17 -1.990147213122545e-18 -1.0
  outer loop
    vertex 1.2499999999999996 56.849999999999994 9.978398278426018e-16
    vertex 0.0 56.849999999999994 9.978398278426018e-16
    vertex 1.2499999999999996 58.599999999999994 9.978398278426018e-16
  endloop
endfacet
facet normal 0.9914448613738105 -0.13052619222005188 0.0
  outer loop
    vertex 38.29893218813451 30.370000000000008 9.978398278426018e-16
    vertex 38.128561319579845 29.07590477448741 10.000000000000002
    vertex 38.128561319579845 29.07590477448741 9.978398278426018e-16
  endloop
endfacet
facet normal 0.9914448613738105 -0.13052619222005188 0.0
  outer loop
    vertex 38.128561319579845 29.07590477448741 10.000000000000002
    vertex 38.29893218813451 30.370000000000008 9.978398278426018e-16
    vertex 38.29893218813451 30.370000000000008 10.000000000000002
  endloop
endfacet
facet normal -0.923879532511285 -0.38268343236509395 3.67344247332222e-32
  outer loop
    vertex 30.557991395191234 32.87 10.000000000000004
    vertex 31.057493507714387 31.6640952255126 3.3903878430776154e-17
    vertex 31.057493507714387 31.6640952255126 10.000000000000004
  endloop
endfacet
facet normal -0.923879532511285 -0.38268343236509395 3.67344247332222e-32
  outer loop
    vertex 31.057493507714387 31.6640952255126 3.3903878430776154e-17
    vertex 30.557991395191234 32.87 10.000000000000004
    vertex 30.557991395191234 32.87 1.3330502043685497e-16
  endloop
endfacet
facet normal 0.9914448613738105 0.13052619222005188 0.0
  outer loop
    vertex 38.128561319579845 31.66409522551261 9.978398278426018e-16
    vertex 38.29893218813451 30.370000000000008 10.000000000000002
    vertex 38.29893218813451 30.370000000000008 9.978398278426018e-16
  endloop
endfacet
facet normal 0.9914448613738105 0.13052619222005188 0.0
  outer loop
    vertex 38.29893218813451 30.370000000000008 10.000000000000002
    vertex 38.128561319579845 31.66409522551261 9.978398278426018e-16
    vertex 38.128561319579845 31.66409522551261 10.000000000000002
  endloop
endfacet
facet normal -0.7071067811865477 0.7071067811865474 0.0
  outer loop
    vertex 25.308625560726522 11.773091654793795 10.000000000000002
    vertex 21.985223689149752 8.449689783217025 2.4078230691165503e-15
    vertex 21.985223689149752 8.449689783217025 10.000000000000002
  endloop
endfacet
facet normal -0.7071067811865477 0.7071067811865474 0.0
  outer loop
    vertex 21.985223689149752 8.449689783217025 2.4078230691165503e-15
    vertex 25.308625560726522 11.773091654793795 10.000000000000002
    vertex 25.308625560726522 11.773091654793795 2.4072954853401733e-15
  endloop
endfacet
facet normal -0.7071067811865474 -0.7071067811865477 4.4802361246183674e-32
  outer loop
    vertex 29.76339828220178 33.905533905932735 10.000000000000004
    vertex 15.535533905932738 48.133398282201775 3.1142334945004754e-15
    vertex 29.76339828220178 33.905533905932735 2.9142940245867675e-16
  endloop
endfacet
facet normal -0.7071067811865474 -0.7071067811865477 4.4802361246183674e-32
  outer loop
    vertex 15.535533905932738 48.133398282201775 3.1142334945004754e-15
    vertex 29.76339828220178 33.905533905932735 10.000000000000004
    vertex 15.535533905932738 48.133398282201775 10.000000000000005
  endloop
endfacet
facet normal -0.9914448613738109 0.1305261922200476 0.0
  outer loop
    vertex 31.227864376269043 30.369999999999997 10.000000000000004
    vertex 31.057493507714387 29.075904774487395 3.390387843077584e-17
    vertex 31.057493507714387 29.075904774487395 10.000000000000004
  endloop
endfacet
facet normal -0.9914448613738109 0.1305261922200476 0.0
  outer loop
    vertex 31.057493507714387 29.075904774487395 3.390387843077584e-17
    vertex 31.227864376269043 30.369999999999997 10.000000000000004
    vertex 31.227864376269043 30.369999999999997 0.0
  endloop
endfacet
facet normal 1.0 0.0 0.0
  outer loop
    vertex 1.2500000000000002 2.53 9.978398278426018e-16
    vertex 1.2500000000000002 1.9999999999999998 10.000000000000002
    vertex 1.2500000000000002 1.9999999999999998 9.978398278426018e-16
  endloop
endfacet
facet normal 1.0 0.0 0.0
  outer loop
    vertex 1.2500000000000002 1.9999999999999998 10.000000000000002
    vertex 1.2500000000000002 2.53 9.978398278426018e-16
    vertex 1.2500000000000002 2.53 10.000000000000002
  endloop
endfacet
facet normal 0.33180920743173997 -0.9433465163255338 0.0
  outer loop
    vertex 9.571067811865476 1.0355339059327375 10.000000000000002
    vertex 7.973671727453765 0.4736717274537647 9.978398278426018e-16
    vertex 9.571067811865476 1.0355339059327375 9.978398278426018e-16
  endloop
endfacet
facet normal 0.33180920743173997 -0.9433465163255338 0.0
  outer loop
    vertex 7.973671727453765 0.4736717274537647 9.978398278426018e-16
    vertex 9.571067811865476 1.0355339059327375 10.000000000000002
    vertex 7.973671727453765 0.4736717274537647 10.000000000000002
  endloop
endfacet
facet normal 0.5334020967941789 0.8458618108979583 0.0
  outer loop
    vertex 11.59789397188856 58.47223304703363 10.000000000000002
    vertex 12.95009952791698 57.61952960352836 9.978398278426018e-16
    vertex 11.59789397188856 58.47223304703363 9.978398278426018e-16
  endloop
endfacet
facet normal 0.5334020967941789 0.8458618108979583 0.0
  outer loop
    vertex 12.95009952791698 57.61952960352836 9.978398278426018e-16
    vertex 11.59789397188856 58.47223304703363 10.000000000000002
    vertex 12.95009952791698 57.61952960352836 10.000000000000002
  endloop
endfacet
facet normal -0.38268343236508834 -0.9238795325112875 -1.0685060174367607e-16
  outer loop
    vertex 14.62047039647164 48.87809092310821 10.000000000000005
    vertex 13.76776695296637 49.231292254090334 3.4660199024454876e-15
    vertex 14.620470396471644 48.87809092310821 3.2963315388692233e-15
  endloop
endfacet
facet normal -0.38268343236508834 -0.9238795325112875 -1.0685060174367607e-16
  outer loop
    vertex 13.76776695296637 49.231292254090334 3.4660199024454876e-15
    vertex 14.62047039647164 48.87809092310821 10.000000000000005
    vertex 13.767766952966369 49.231292254090334 10.000000000000005
  endloop
endfacet
endsolid LCD_SupportB
