0
SECTION
2
HEADER
9
$INSUNITS
70
4
9
$ACADVER
1
AC1014
9
$HANDSEED
5
FFFF
0
ENDSEC
0
SECTION
2
TABLES
0
TABLE
2
VPORT
5
8
100
AcDbSymbolTable
0
ENDTAB
0
TABLE
2
LTYPE
5
5
100
AcDbSymbolTable
0
LTYPE
5
14
100
AcDbSymbolTableRecord
100
AcDbLinetypeTableRecord
2
BYBLOCK
70
0
0
LTYPE
5
15
100
AcDbSymbolTableRecord
100
AcDbLinetypeTableRecord
2
BYLAYER
70
0
0
ENDTAB
0
TABLE
2
LAYER
5
2
100
AcDbSymbolTable
70
2
0
LAYER
5
50
100
AcDbSymbolTableRecord
100
AcDbLayerTableRecord
2
0
70
0
6
CONTINUOUS
0
ENDTAB
0
TABLE
2
STYLE
5
3
100
AcDbSymbolTable
70
1
0
STYLE
5
11
100
AcDbSymbolTableRecord
100
AcDbTextStyleTableRecord
2
STANDARD
70
0
0
ENDTAB
0
TABLE
2
VIEW
5
6
100
AcDbSymbolTable
70
0
0
ENDTAB
0
TABLE
2
UCS
5
7
100
AcDbSymbolTable
70
0
0
ENDTAB
0
TABLE
2
APPID
5
9
100
AcDbSymbolTable
70
2
0
APPID
5
12
100
AcDbSymbolTableRecord
100
AcDbRegAppTableRecord
2
ACAD
70
0
0
ENDTAB
0
TABLE
2
DIMSTYLE
5
A
100
AcDbSymbolTable
70
1
0
ENDTAB
0
TABLE
2
BLOCK_RECORD
5
1
100
AcDbSymbolTable
70
1
0
BLOCK_RECORD
5
1F
100
AcDbSymbolTableRecord
100
AcDbBlockTableRecord
2
*MODEL_SPACE
0
BLOCK_RECORD
5
1B
100
AcDbSymbolTableRecord
100
AcDbBlockTableRecord
2
*PAPER_SPACE
0
ENDTAB
0
ENDSEC
0
SECTION
2
BLOCKS
0
BLOCK
5
20
100
AcDbEntity
100
AcDbBlockBegin
2
*MODEL_SPACE
0
ENDBLK
5
21
100
AcDbEntity
100
AcDbBlockEnd
0
BLOCK
5
1C
100
AcDbEntity
100
AcDbBlockBegin
2
*PAPER_SPACE
0
ENDBLK
5
1D
100
AcDbEntity
100
AcDbBlockEnd
0
ENDSEC
0
SECTION
2
ENTITIES
0
LINE
5
100
100
AcDbEntity
8
0
100
AcDbLine
10
113.24270756095777
20
-88.135364942087989
30
0
11
113.24270756095778
21
-83.138878429706949
31
0
0
ARC
5
101
100
AcDbEntity
8
0
100
AcDbCircle
10
108.24270756095784
20
-83.138878429706935
30
-2.3947971802426073e-47
40
4.9999999999999467
100
AcDbArc
50
0
51
90.000000000000171
0
LINE
5
102
100
AcDbEntity
8
0
100
AcDbLine
10
108.24270756095783
20
-78.138878429706949
30
3.0263505287805918e-47
11
-56.862703636128806
21
-78.138878429706935
31
-1.7353689265707353e-31
0
ARC
5
103
100
AcDbEntity
8
0
100
AcDbCircle
10
-56.862703636128806
20
-83.138878429706921
30
-6.56858655152258e-46
40
4.9999999999999822
100
AcDbArc
50
90
51
180
0
LINE
5
104
100
AcDbEntity
8
0
100
AcDbLine
10
-61.862703636128778
20
-83.138878429704761
30
-1.2006826296925376e-31
11
-61.862703636137752
21
-103.75124348944919
31
0
0
ARC
5
105
100
AcDbEntity
8
0
100
AcDbCircle
10
-74.362703636130959
20
-88.138748493447821
30
8.8817841970012523e-15
40
19.999999999999961
100
AcDbArc
50
229.45840586335862
51
308.68218745346462
0
LINE
5
106
100
AcDbEntity
8
0
100
AcDbLine
10
-87.362701583795712
20
-103.33743440245686
30
8.8817841970012523e-15
11
-87.362703102011011
21
156.86112157029228
31
8.8817841970012523e-15
0
LINE
5
107
100
AcDbEntity
8
0
100
AcDbLine
10
-87.362703102011011
20
156.86112157029228
30
8.8817841970012523e-15
11
-87.362702271018549
21
166.86463533930265
31
0
0
ARC
5
108
100
AcDbEntity
8
0
100
AcDbCircle
10
-74.257294701276962
20
166.86463500944203
30
4.6527488073284942e-46
40
13.105407569741638
100
AcDbArc
50
0
51
179.99999879258175
0
LINE
5
109
100
AcDbEntity
8
0
100
AcDbLine
10
-61.151887131535325
20
166.86463496097215
30
2.0484040126164339e-32
11
-61.151887131535354
21
161.86112157029226
31
-8.8817841970012523e-15
0
ARC
5
110
100
AcDbEntity
8
0
100
AcDbCircle
10
-56.151887131535346
20
161.8611215702922
30
-8.8817841970012523e-15
40
5.0000000000000089
100
AcDbArc
50
180
51
269.99999999999989
0
LINE
5
111
100
AcDbEntity
8
0
100
AcDbLine
10
-56.151887131535354
20
156.8611215702922
30
-8.8817841970012523e-15
11
108.74271074681815
21
156.86112157029191
31
-8.8817841970012523e-15
0
ARC
5
112
100
AcDbEntity
8
0
100
AcDbCircle
10
108.74271074681818
20
161.86112157029189
30
-4.6185374190393141e-47
40
4.9999999999999645
100
AcDbArc
50
269.99999999999972
51
360
0
LINE
5
113
100
AcDbEntity
8
0
100
AcDbLine
10
113.74271074681818
20
161.86112157028973
30
-9.5430489234961899e-33
11
113.74271074682713
21
182.47374650262634
31
0
0
ARC
5
114
100
AcDbEntity
8
0
100
AcDbCircle
10
126.24271074682031
20
166.86125150662502
30
0
40
19.999999999999961
100
AcDbArc
50
49.45837920776065
51
128.68218745346468
0
LINE
5
115
100
AcDbEntity
8
0
100
AcDbLine
10
139.24271576533712
20
182.05993136767006
30
0
11
139.24271306523187
21
156.86112157029183
31
8.8817841970012523e-15
0
LINE
5
116
100
AcDbEntity
8
0
100
AcDbLine
10
139.24271306523187
20
156.86112157029183
30
8.8817841970012523e-15
11
139.24270303648854
21
-88.135365317289157
31
0
0
ARC
5
117
100
AcDbEntity
8
0
100
AcDbCircle
10
126.24270529872314
20
-88.135364990557918
30
2.7369110631344083e-47
40
12.999997737765376
100
AcDbArc
50
180
51
359.99999879258172
0
CIRCLE
5
118
100
AcDbEntity
8
0
100
AcDbCircle
10
-74.357710746500487
20
166.8611215703028
30
0
40
5.0999999999999996
0
CIRCLE
5
119
100
AcDbEntity
8
0
100
AcDbCircle
10
-74.357710746500715
20
-88.13887842970658
30
8.8817841970012523e-15
40
9.4999999999999893
0
CIRCLE
5
120
100
AcDbEntity
8
0
100
AcDbCircle
10
-74.362703636124706
20
-73.638748493447707
30
0
40
1.9999999999999902
0
CIRCLE
5
121
100
AcDbEntity
8
0
100
AcDbCircle
10
126.24271074681396
20
152.36125150662519
30
0
40
2.000000000000008
0
CIRCLE
5
122
100
AcDbEntity
8
0
100
AcDbCircle
10
134.36770529872311
20
-88.135364990557889
30
0
40
1.7500000000000049
0
CIRCLE
5
123
100
AcDbEntity
8
0
100
AcDbCircle
10
126.24270529872308
20
-96.260364990557889
30
0
40
1.7500000000000049
0
CIRCLE
5
124
100
AcDbEntity
8
0
100
AcDbCircle
10
118.11770529872311
20
-88.135364990557932
30
0
40
1.7500000000000049
0
CIRCLE
5
125
100
AcDbEntity
8
0
100
AcDbCircle
10
126.24270529872311
20
-80.010364990557918
30
0
40
1.7500000000000049
0
CIRCLE
5
126
100
AcDbEntity
8
0
100
AcDbCircle
10
126.24270529872314
20
-88.135364990557918
30
2.7369110631344083e-47
40
5.0999999999999908
0
CIRCLE
5
127
100
AcDbEntity
8
0
100
AcDbCircle
10
126.2427107468267
20
181.36125150662494
30
8.8817841970012523e-15
40
1.9999999999999902
0
CIRCLE
5
128
100
AcDbEntity
8
0
100
AcDbCircle
10
126.24271074682031
20
166.86125150662502
30
0
40
9.500000000000016
0
CIRCLE
5
129
100
AcDbEntity
8
0
100
AcDbCircle
10
-74.362703636137269
20
-102.63874849344775
30
8.8817841970012523e-15
40
2.000000000000008
0
CIRCLE
5
130
100
AcDbEntity
8
0
100
AcDbCircle
10
-74.257294701276919
20
158.73963500944211
30
0
40
1.749999999999996
0
CIRCLE
5
131
100
AcDbEntity
8
0
100
AcDbCircle
10
-74.257294701276919
20
174.98963500944197
30
0
40
1.749999999999996
0
CIRCLE
5
132
100
AcDbEntity
8
0
100
AcDbCircle
10
-82.382294701276948
20
166.86463500944203
30
0
40
1.7500000000000049
0
CIRCLE
5
133
100
AcDbEntity
8
0
100
AcDbCircle
10
-66.132294701276933
20
166.86463500944205
30
0
40
1.7499999999999871
0
ENDSEC
0
SECTION
2
OBJECTS
0
DICTIONARY
5
C
100
AcDbDictionary
3
ACAD_GROUP
350
D
3
ACAD_MLINESTYLE
350
17
0
DICTIONARY
5
D
100
AcDbDictionary
0
DICTIONARY
5
1A
330
C
100
AcDbDictionary
0
DICTIONARY
5
17
100
AcDbDictionary
0
ENDSEC
0
EOF
